# Created by Open3D 
# object name: 5d12d1a313cff5ad66f379f51753f72b
# number of vertices: 332
# number of triangles: 244
v -0.89347 -0.296725 5.15491e-17
vn 0 -6.57113e-17 -1
v -1.07793 0.386301 0
vn 0 -6.04416e-17 -1
v -0.89347 0.386301 0
vn 0 -6.07892e-17 -1
v -1.07793 -0.296725 5.15491e-17
vn 0 -7.2389e-17 -1
v -0.89347 0.386301 0
vn 5.93304e-17 1 -5.93304e-17
v -1.07793 0.386301 0
vn 5.70084e-17 1 -5.70084e-17
v -0.89347 0.386301 0.209208
vn 4.7932e-17 1 -4.7932e-17
v -0.89347 0.386301 0
vn 1 -5.7893e-17 3.54493e-33
v -0.89347 0.300923 0.0725888
vn 1 -5.54259e-17 3.39386e-33
v -0.89347 -0.296725 5.15491e-17
vn 1 -5.64317e-17 3.45545e-33
v -0.89347 -0.386301 1.03098e-16
vn 0 -7.43531e-17 -1
v -1.07793 -0.296725 5.15491e-17
vn -1 5.72808e-17 -3.50744e-33
v -1.07793 -0.296725 0.0725888
vn -1 5.58926e-17 -3.42244e-33
v -1.07793 0.386301 0
vn -1 5.56889e-17 -3.40997e-33
v -1.07793 0.386301 0.274357
vn 5.33046e-17 1 -5.33046e-17
v -0.89347 0.386301 0.209208
vn 1 -5.97241e-17 3.65705e-33
v -0.89347 -0.296725 0.0725888
vn 1 -5.72715e-17 3.50687e-33
v -1.07793 -0.386301 1.03098e-16
vn 0 -6.79087e-17 -1
v -0.89347 -0.386301 1.03098e-16
vn 1 -5.99383e-17 3.67017e-33
v -1.07793 -0.386301 0.274357
vn -1 5.4996e-17 -3.36753e-33
v -1.07793 0.300923 0.0725888
vn -1 5.73812e-17 -3.51359e-33
v 0.893467 0.386301 0.274357
vn 4.28694e-17 1 -4.28694e-17
v -1.07793 0.386301 0.274357
vn -1 5.70633e-17 -3.49412e-33
v -0.89347 0.300923 0.209208
vn 1 -6.06275e-17 3.71237e-33
v -0.89347 0.300923 0.0725888
vn 0 4.93755e-17 1
v -1.07793 -0.296725 0.0725888
vn 0 4.93755e-17 1
v -0.89347 -0.296725 0.0725888
vn 0 5.46684e-17 1
v -0.89347 -0.386301 1.03098e-16
vn -5.70084e-17 -1 5.70084e-17
v -1.07793 -0.386301 0.274357
vn -5.18575e-17 -1 5.18575e-17
v -1.07793 -0.386301 1.03098e-16
vn -5.87621e-17 -1 5.87621e-17
v -1.07793 -0.386301 1.03098e-16
vn -1 5.99718e-17 -3.67221e-33
v -0.89347 -0.386301 0.209208
vn 1 -5.96519e-17 3.65263e-33
v -1.07793 -0.296725 0.209208
vn -1 5.86647e-17 -3.59218e-33
v -1.07793 0.300923 0.0725888
vn 0 5.46684e-17 1
v -1.07793 0.386301 0.274357
vn 0 4.82756e-17 1
v 0.893467 0.337559 0.274357
vn 0 5.0801e-17 1
v 0.893467 0.386301 0.274357
vn 0 5.54311e-17 1
v 0.893467 0.386301 0.209208
vn 5.5833e-17 1 -5.5833e-17
v -1.07793 0.300923 0.209208
vn -1 5.63664e-17 -3.45145e-33
v -0.89347 0.386301 0.209208
vn 0 -4.59587e-17 -1
v 0.893467 0.300923 0.209208
vn 0 -1.47941e-17 -1
v -0.89347 0.300923 0.209208
vn 0 -5.25073e-17 -1
v -1.07793 0.300923 0.209208
vn -5.87717e-17 -1 5.87717e-17
v -0.89347 0.300923 0.0725888
vn -5.87717e-17 -1 5.87717e-17
v -0.89347 0.300923 0.209208
vn -5.99768e-17 -1 5.99768e-17
v -1.07793 -0.296725 0.0725888
vn 5.87717e-17 1 -5.87717e-17
v -0.89347 -0.296725 0.209208
vn 5.87717e-17 1 -5.87717e-17
v -0.89347 -0.296725 0.0725888
vn 5.99768e-17 1 -5.99768e-17
v -0.89347 -0.386301 0.209208
vn -4.95629e-17 -1 4.95629e-17
v -0.89347 -0.296725 0.209208
vn 1 -6.0598e-17 3.71056e-33
v -1.07793 -0.296725 0.209208
vn 5.99768e-17 1 -5.99768e-17
v -1.07793 0.300923 0.0725888
vn -5.99768e-17 -1 5.99768e-17
v -1.00299 0.337559 0.274357
vn 0 5.02166e-17 1
v 0.893467 0.337559 0.415667
vn -1 4.98449e-17 -3.05213e-33
v 0.893467 0.386301 0.274357
vn -1 5.97356e-17 -3.65776e-33
v 0.893467 0.337559 0.274357
vn -1 6.08737e-17 -3.72744e-33
v 0.893467 0.386301 0
vn 5.8762e-17 1 -5.8762e-17
v 0.893467 0.386301 0.209208
vn 0 -5.25073e-17 -1
v -1.07793 0.300923 0.209208
vn 0 -2.68181e-17 -1
v 0.893467 -0.386301 0.274357
vn -4.76957e-17 -1 4.76957e-17
v -0.89347 -0.296725 0.209208
vn 0 -4.54018e-17 -1
v 0.893467 -0.386301 0.209208
vn 0 -4.54018e-17 -1
v -0.89347 -0.386301 0.209208
vn 0 -5.2142e-17 -1
v -1.07793 -0.296725 0.209208
vn 0 -1.66096e-17 -1
v 0.893467 -0.296725 0.209208
vn 0 -5.2142e-17 -1
v -1.07793 -0.386301 0.274357
vn 0 4.72254e-17 1
v 0.893467 0.386301 0.734068
vn -1 5.67972e-17 -3.47783e-33
v 1.07793 0.386301 0
vn 5.30372e-17 1 -5.30372e-17
v 0.893467 0.386301 0
vn -1 5.97905e-17 -3.66112e-33
v 0.893467 0.300923 0.0802425
vn -1 5.967e-17 -3.65374e-33
v 0.893467 0.386301 0.209208
vn -1 5.97567e-17 -3.65904e-33
v 0.893467 0.300923 0.209208
vn -1 6.0661e-17 -3.71442e-33
v 0.893467 -0.386301 0.209208
vn -5.37719e-17 -1 5.37719e-17
v 0.893467 -0.344069 0.274357
vn 0 5.19838e-17 1
v 0.893467 -0.386301 0.274357
vn 0 5.61415e-17 1
v 1.07793 -0.296725 0.209208
vn 0 -2.4266e-17 -1
v -1.00299 -0.344069 0.274357
vn 0 5.3578e-17 1
v 0.893467 0.300923 0.58386
vn -1 5.50418e-17 -3.37034e-33
v 1.07793 0.386301 0.734068
vn 5.17638e-17 1 -5.17638e-17
v 0.893467 0.386301 0.734068
vn 5.7203e-17 1 -5.7203e-17
v 1.07793 0.279228 5.15491e-17
vn 0 -7.21729e-17 -1
v 0.893467 0.386301 0
vn 0 -7.38522e-17 -1
v 1.07793 0.386301 0
vn 0 -6.76751e-17 -1
v 0.893467 0.279228 0.0802425
vn -1 5.84075e-17 -3.57643e-33
v 1.07793 0.300923 0.0802425
vn -5.89043e-17 -1 5.89043e-17
v 0.893467 0.300923 0.209208
vn -5.89043e-17 -1 5.89043e-17
v 0.893467 0.300923 0.0802425
vn -6.00457e-17 -1 6.00457e-17
v 1.07793 -0.386301 1.03098e-16
vn -4.99874e-17 -1 4.99874e-17
v 0.893467 -0.386301 0.734068
vn -1 5.54273e-17 -3.39394e-33
v 0.893467 -0.344069 0.274357
vn -1 5.99313e-17 -3.66974e-33
v 0.893467 -0.386301 0.274357
vn -1 6.02322e-17 -3.68816e-33
v 0.893467 -0.296725 0.0802425
vn -1 5.51092e-17 -3.37447e-33
v 0.893467 -0.386301 0.209208
vn -1 5.9686e-17 -3.65471e-33
v 0.893467 -0.296725 0.209208
vn -1 6.06332e-17 -3.71272e-33
v 1.07793 0.300923 0.209208
vn 0 -5.46683e-17 -1
v 1.07793 -0.296725 0.209208
vn 5.89043e-17 1 -5.89043e-17
v 0.893467 -0.296725 0.0802425
vn 5.89043e-17 1 -5.89043e-17
v 0.893467 -0.296725 0.209208
vn 6.00457e-17 1 -6.00457e-17
v 0.893467 -0.313326 0.58386
vn -1 5.07332e-17 -3.10652e-33
v 0.893467 0.300923 0.681383
vn -1 5.72473e-17 -3.50539e-33
v 0.893467 -0.386301 0.734068
vn 0 4.67266e-17 1
v 1.07793 0.386301 0.734068
vn 0 4.67266e-17 1
v 0.893467 0.386301 0.734068
vn 0 5.30049e-17 1
v 1.07793 0.300923 0.0802425
vn 1 -5.29207e-17 3.24046e-33
v 1.07793 0.386301 0
vn 1 -5.77146e-17 3.534e-33
v 1.07793 0.386301 0.734068
vn 1 -5.2787e-17 3.23228e-33
v 0.893467 0.279228 5.15491e-17
vn 0 -6.58905e-17 -1
v 1.07793 0.279228 5.15491e-17
vn 1 -5.81491e-17 3.56061e-33
v 0.893467 0.279228 5.15491e-17
vn -1 5.60453e-17 -3.43179e-33
v 0.893467 0.279228 0.0802425
vn 0 4.93753e-17 1
v 1.07793 0.300923 0.0802425
vn 0 5.44564e-17 1
v 0.893467 0.300923 0.0802425
vn 0 6.09666e-17 1
v 1.07793 0.300923 0.209208
vn -6.00457e-17 -1 6.00457e-17
v 0.893467 -0.386301 1.03098e-16
vn -5.93304e-17 -1 5.93304e-17
v 0.893467 -0.386301 0.734068
vn -5.17638e-17 -1 5.17638e-17
v 0.893467 -0.344069 0.415667
vn -1 5.47889e-17 -3.35486e-33
v 0.893467 -0.386301 1.03098e-16
vn -1 5.76737e-17 -3.5315e-33
v 1.07793 0.300923 0.209208
vn 1 -4.98522e-17 3.05257e-33
v 1.07793 0.300923 0.58386
vn 1 -4.30364e-17 2.63522e-33
v 1.07793 -0.296725 0.209208
vn 1 -4.31379e-17 2.64144e-33
v 1.07793 -0.296725 0.0802425
vn 6.00457e-17 1 -6.00457e-17
v 0.893467 -0.313326 0.58386
vn 0 4.91112e-17 1
v 1.07793 0.300923 0.58386
vn 0 4.91112e-17 1
v 0.893467 0.300923 0.58386
vn 0 5.4506e-17 1
v 1.07793 0.300923 0.58386
vn -5.94554e-17 -1 5.94554e-17
v 0.893467 0.300923 0.681383
vn -5.94554e-17 -1 5.94554e-17
v 0.893467 0.300923 0.58386
vn -6.03308e-17 -1 6.03308e-17
v 1.07793 -0.386301 0.734068
vn 0 5.30049e-17 1
v 1.07793 -0.386301 1.03098e-16
vn 0 -6.07768e-17 -1
v 1.07793 -0.386301 1.03098e-16
vn 1 -5.35749e-17 3.28052e-33
v 1.07793 -0.296725 0.0802425
vn 0 4.95495e-17 1
v 0.893467 -0.386301 1.03098e-16
vn 0 -6.09777e-17 -1
v 1.07793 -0.386301 0.734068
vn -5.50414e-17 -1 5.50414e-17
v 1.07793 -0.313326 0.58386
vn 1 -5.00199e-17 3.06284e-33
v 1.07793 -0.386301 0.734068
vn 1 -5.4271e-17 3.32315e-33
v 1.07793 -0.296725 0.0802425
vn 1 -5.5307e-17 3.38658e-33
v 0.893467 -0.296725 0.0802425
vn 0 5.48818e-17 1
v 1.07793 -0.313326 0.58386
vn 0 5.4506e-17 1
v 1.07793 0.300923 0.681383
vn -6.03308e-17 -1 6.03308e-17
v 0.893467 -0.313326 0.681383
vn -1 5.92324e-17 -3.62694e-33
v 1.07793 -0.313326 0.681383
vn 1 -5.73027e-17 3.50878e-33
v 1.07793 0.300923 0.681383
vn 1 -5.91732e-17 3.62331e-33
v 0.893467 -0.313326 0.58386
vn 5.94554e-17 1 -5.94554e-17
v 1.07793 -0.313326 0.681383
vn 5.94554e-17 1 -5.94554e-17
v 1.07793 -0.313326 0.58386
vn 6.03308e-17 1 -6.03308e-17
v 1.07793 -0.313326 0.681383
vn 0 -4.91112e-17 -1
v 0.893467 0.300923 0.681383
vn 0 -4.91112e-17 -1
v 1.07793 0.300923 0.681383
vn 0 -5.4506e-17 -1
v 0.893467 -0.313326 0.681383
vn 0 -5.4506e-17 -1
v 0.893467 -0.313326 0.681383
vn 6.03308e-17 1 -6.03308e-17
v -0.89347 0.386301 0
vn 0 6.07892e-17 1
v -1.07793 0.386301 0
vn 0 6.04416e-17 1
v -0.89347 -0.296725 5.15491e-17
vn 0 6.57113e-17 1
v -1.07793 -0.296725 5.15491e-17
vn 0 7.2389e-17 1
v -0.89347 0.386301 0.209208
vn -4.7932e-17 -1 4.7932e-17
v -1.07793 0.386301 0
vn -5.70084e-17 -1 5.70084e-17
v -0.89347 0.386301 0
vn -5.93304e-17 -1 5.93304e-17
v -0.89347 -0.296725 5.15491e-17
vn -1 5.64317e-17 -3.45545e-33
v -0.89347 0.300923 0.0725888
vn -1 5.54259e-17 -3.39386e-33
v -0.89347 0.386301 0
vn -1 5.7893e-17 -3.54493e-33
v -0.89347 -0.386301 1.03098e-16
vn 0 7.43531e-17 1
v -1.07793 0.386301 0
vn 1 -5.56889e-17 3.40997e-33
v -1.07793 -0.296725 0.0725888
vn 1 -5.58926e-17 3.42244e-33
v -1.07793 -0.296725 5.15491e-17
vn 1 -5.72808e-17 3.50744e-33
v -1.07793 0.386301 0.274357
vn -5.33046e-17 -1 5.33046e-17
v -0.89347 0.386301 0.209208
vn -1 5.97241e-17 -3.65705e-33
v -0.89347 -0.296725 0.0725888
vn -1 5.72715e-17 -3.50687e-33
v -1.07793 -0.386301 1.03098e-16
vn 0 6.79087e-17 1
v -0.89347 -0.386301 1.03098e-16
vn -1 5.99383e-17 -3.67017e-33
v -1.07793 -0.386301 0.274357
vn 1 -5.4996e-17 3.36753e-33
v -1.07793 0.300923 0.0725888
vn 1 -5.73812e-17 3.51359e-33
v 0.893467 0.386301 0.274357
vn -4.28694e-17 -1 4.28694e-17
v -1.07793 0.386301 0.274357
vn 1 -5.70633e-17 3.49412e-33
v -0.89347 0.300923 0.209208
vn -1 6.06275e-17 -3.71237e-33
v -0.89347 -0.296725 0.0725888
vn 0 -5.46684e-17 -1
v -1.07793 -0.296725 0.0725888
vn 0 -4.93755e-17 -1
v -0.89347 0.300923 0.0725888
vn 0 -4.93755e-17 -1
v -1.07793 -0.386301 1.03098e-16
vn 5.87621e-17 1 -5.87621e-17
v -1.07793 -0.386301 0.274357
vn 5.18575e-17 1 -5.18575e-17
v -0.89347 -0.386301 1.03098e-16
vn 5.70084e-17 1 -5.70084e-17
v -1.07793 -0.386301 1.03098e-16
vn 1 -5.99718e-17 3.67221e-33
v -0.89347 -0.386301 0.209208
vn -1 5.96519e-17 -3.65263e-33
v -1.07793 -0.296725 0.209208
vn 1 -5.86647e-17 3.59218e-33
v -1.07793 0.300923 0.0725888
vn 0 -5.46684e-17 -1
v 0.893467 0.386301 0.274357
vn 0 -5.54311e-17 -1
v 0.893467 0.337559 0.274357
vn 0 -5.0801e-17 -1
v -1.07793 0.386301 0.274357
vn 0 -4.82756e-17 -1
v 0.893467 0.386301 0.209208
vn -5.5833e-17 -1 5.5833e-17
v -1.07793 0.300923 0.209208
vn 1 -5.63664e-17 3.45145e-33
v -0.89347 0.300923 0.209208
vn 0 5.25073e-17 1
v 0.893467 0.300923 0.209208
vn 0 1.47941e-17 1
v -0.89347 0.386301 0.209208
vn 0 4.59587e-17 1
v -0.89347 0.300923 0.209208
vn 5.99768e-17 1 -5.99768e-17
v -0.89347 0.300923 0.0725888
vn 5.87717e-17 1 -5.87717e-17
v -1.07793 0.300923 0.209208
vn 5.87717e-17 1 -5.87717e-17
v -0.89347 -0.296725 0.0725888
vn -5.99768e-17 -1 5.99768e-17
v -0.89347 -0.296725 0.209208
vn -5.87717e-17 -1 5.87717e-17
v -1.07793 -0.296725 0.0725888
vn -5.87717e-17 -1 5.87717e-17
v -0.89347 -0.386301 0.209208
vn 4.95629e-17 1 -4.95629e-17
v -0.89347 -0.296725 0.209208
vn -1 6.0598e-17 -3.71056e-33
v -1.07793 -0.296725 0.209208
vn -5.99768e-17 -1 5.99768e-17
v -1.07793 0.300923 0.0725888
vn 5.99768e-17 1 -5.99768e-17
v -1.00299 0.337559 0.274357
vn 0 -5.02166e-17 -1
v 0.893467 0.337559 0.274357
vn 1 -6.08737e-17 3.72744e-33
v 0.893467 0.386301 0.274357
vn 1 -5.97356e-17 3.65776e-33
v 0.893467 0.337559 0.415667
vn 1 -4.98449e-17 3.05213e-33
v 0.893467 0.386301 0
vn -5.8762e-17 -1 5.8762e-17
v 0.893467 0.386301 0.209208
vn 0 5.25073e-17 1
v -1.07793 0.300923 0.209208
vn 0 2.68181e-17 1
v 0.893467 -0.386301 0.274357
vn 4.76957e-17 1 -4.76957e-17
v -0.89347 -0.386301 0.209208
vn 0 5.2142e-17 1
v 0.893467 -0.386301 0.209208
vn 0 4.54018e-17 1
v -0.89347 -0.296725 0.209208
vn 0 4.54018e-17 1
v -1.07793 -0.296725 0.209208
vn 0 1.66096e-17 1
v 0.893467 -0.296725 0.209208
vn 0 5.2142e-17 1
v -1.07793 -0.386301 0.274357
vn 0 -4.72254e-17 -1
v 0.893467 0.337559 0.274357
vn -5.00832e-17 -1 5.00832e-17
v 0.893467 0.337559 0.415667
vn -4.23688e-17 -1 4.23688e-17
v -1.00299 0.337559 0.274357
vn -4.23688e-17 -1 4.23688e-17
v 0.893467 0.386301 0.734068
vn 1 -5.67972e-17 3.47783e-33
v 1.07793 0.386301 0
vn -5.30372e-17 -1 5.30372e-17
v 0.893467 0.386301 0.209208
vn 1 -5.97567e-17 3.65904e-33
v 0.893467 0.300923 0.0802425
vn 1 -5.967e-17 3.65374e-33
v 0.893467 0.386301 0
vn 1 -5.97905e-17 3.66112e-33
v 0.893467 0.300923 0.209208
vn 1 -6.0661e-17 3.71442e-33
v 0.893467 -0.386301 0.209208
vn 5.37719e-17 1 -5.37719e-17
v 0.893467 -0.386301 0.274357
vn 0 -5.61415e-17 -1
v 0.893467 -0.344069 0.274357
vn 0 -5.19838e-17 -1
v 1.07793 -0.296725 0.209208
vn 0 2.4266e-17 1
v -1.00299 -0.344069 0.274357
vn 0 -5.3578e-17 -1
v -1.00299 0.337559 0.415667
vn -5.00832e-17 -1 5.00832e-17
v 0.893467 0.300923 0.58386
vn 1 -5.50418e-17 3.37034e-33
v 0.893467 0.386301 0.734068
vn -5.7203e-17 -1 5.7203e-17
v 1.07793 0.386301 0.734068
vn -5.17638e-17 -1 5.17638e-17
v 1.07793 0.386301 0
vn 0 6.76751e-17 1
v 0.893467 0.386301 0
vn 0 7.38522e-17 1
v 1.07793 0.279228 5.15491e-17
vn 0 7.21729e-17 1
v 0.893467 0.279228 0.0802425
vn 1 -5.84075e-17 3.57643e-33
v 0.893467 0.300923 0.0802425
vn 6.00457e-17 1 -6.00457e-17
v 0.893467 0.300923 0.209208
vn 5.89043e-17 1 -5.89043e-17
v 1.07793 0.300923 0.0802425
vn 5.89043e-17 1 -5.89043e-17
v 1.07793 -0.386301 1.03098e-16
vn 4.99874e-17 1 -4.99874e-17
v 0.893467 -0.386301 0.274357
vn 1 -6.02322e-17 3.68816e-33
v 0.893467 -0.344069 0.274357
vn 1 -5.99313e-17 3.66974e-33
v 0.893467 -0.386301 0.734068
vn 1 -5.54273e-17 3.39394e-33
v 0.893467 -0.296725 0.209208
vn 1 -6.06332e-17 3.71272e-33
v 0.893467 -0.386301 0.209208
vn 1 -5.9686e-17 3.65471e-33
v 0.893467 -0.296725 0.0802425
vn 1 -5.51092e-17 3.37447e-33
v 1.07793 0.300923 0.209208
vn 0 5.46683e-17 1
v 0.893467 -0.296725 0.209208
vn -6.00457e-17 -1 6.00457e-17
v 0.893467 -0.296725 0.0802425
vn -5.89043e-17 -1 5.89043e-17
v 1.07793 -0.296725 0.209208
vn -5.89043e-17 -1 5.89043e-17
v -1.00299 -0.344069 0.274357
vn 1 -5.65719e-17 3.46403e-33
v -1.00299 0.337559 0.274357
vn 1 -5.25708e-17 3.21903e-33
v -1.00299 -0.344069 0.415667
vn 1 -5.25708e-17 3.21903e-33
v -1.00299 0.337559 0.415667
vn 1 -5.65719e-17 3.46403e-33
v -1.00299 0.337559 0.415667
vn 0 -2.54294e-17 -1
v 0.893467 0.337559 0.415667
vn 0 -1.60468e-17 -1
v -1.00299 -0.344069 0.415667
vn 0 -1.60468e-17 -1
v 0.893467 -0.313326 0.58386
vn 1 -5.07332e-17 3.10652e-33
v 0.893467 0.300923 0.681383
vn 1 -5.72473e-17 3.50539e-33
v 0.893467 0.386301 0.734068
vn 0 -5.30049e-17 -1
v 1.07793 0.386301 0.734068
vn 0 -4.67266e-17 -1
v 0.893467 -0.386301 0.734068
vn 0 -4.67266e-17 -1
v 1.07793 0.386301 0.734068
vn -1 5.2787e-17 -3.23228e-33
v 1.07793 0.386301 0
vn -1 5.77146e-17 -3.534e-33
v 1.07793 0.300923 0.0802425
vn -1 5.29207e-17 -3.24046e-33
v 0.893467 0.279228 5.15491e-17
vn 0 6.58905e-17 1
v 1.07793 0.279228 5.15491e-17
vn -1 5.81491e-17 -3.56061e-33
v 0.893467 0.279228 5.15491e-17
vn 1 -5.60453e-17 3.43179e-33
v 0.893467 0.300923 0.0802425
vn 0 -6.09666e-17 -1
v 1.07793 0.300923 0.0802425
vn 0 -5.44564e-17 -1
v 0.893467 0.279228 0.0802425
vn 0 -4.93753e-17 -1
v 1.07793 0.300923 0.209208
vn 6.00457e-17 1 -6.00457e-17
v 0.893467 -0.386301 1.03098e-16
vn 5.93304e-17 1 -5.93304e-17
v 0.893467 -0.386301 0.734068
vn 5.17638e-17 1 -5.17638e-17
v -1.00299 -0.344069 0.274357
vn 5.00832e-17 1 -5.00832e-17
v -1.00299 -0.344069 0.415667
vn 4.23688e-17 1 -4.23688e-17
v 0.893467 -0.344069 0.274357
vn 4.23688e-17 1 -4.23688e-17
v 0.893467 -0.344069 0.415667
vn 1 -5.47889e-17 3.35486e-33
v 0.893467 -0.386301 1.03098e-16
vn 1 -5.76737e-17 3.5315e-33
v 1.07793 -0.296725 0.209208
vn -1 4.31379e-17 -2.64144e-33
v 1.07793 0.300923 0.58386
vn -1 4.30364e-17 -2.63522e-33
v 1.07793 0.300923 0.209208
vn -1 4.98522e-17 -3.05257e-33
v 1.07793 -0.296725 0.0802425
vn -6.00457e-17 -1 6.00457e-17
v 0.893467 -0.344069 0.415667
vn 0 -2.54294e-17 -1
v 0.893467 0.300923 0.58386
vn 0 -5.4506e-17 -1
v 1.07793 0.300923 0.58386
vn 0 -4.91112e-17 -1
v 0.893467 -0.313326 0.58386
vn 0 -4.91112e-17 -1
v 0.893467 0.300923 0.58386
vn 6.03308e-17 1 -6.03308e-17
v 0.893467 0.300923 0.681383
vn 5.94554e-17 1 -5.94554e-17
v 1.07793 0.300923 0.58386
vn 5.94554e-17 1 -5.94554e-17
v 1.07793 -0.386301 0.734068
vn 0 -5.30049e-17 -1
v 1.07793 -0.386301 1.03098e-16
vn 0 6.07768e-17 1
v 1.07793 -0.386301 1.03098e-16
vn -1 5.35749e-17 -3.28052e-33
v 1.07793 -0.296725 0.0802425
vn 0 -4.95495e-17 -1
v 0.893467 -0.386301 1.03098e-16
vn 0 6.09777e-17 1
v 1.07793 -0.386301 0.734068
vn 5.50414e-17 1 -5.50414e-17
v 0.893467 -0.344069 0.415667
vn 5.00832e-17 1 -5.00832e-17
v 1.07793 -0.313326 0.58386
vn -1 5.00199e-17 -3.06284e-33
v 1.07793 -0.296725 0.0802425
vn -1 5.5307e-17 -3.38658e-33
v 1.07793 -0.386301 0.734068
vn -1 5.4271e-17 -3.32315e-33
v 0.893467 -0.296725 0.0802425
vn 0 -5.48818e-17 -1
v 1.07793 -0.313326 0.58386
vn 0 -5.4506e-17 -1
v 1.07793 0.300923 0.681383
vn 6.03308e-17 1 -6.03308e-17
v 0.893467 -0.313326 0.681383
vn 1 -5.92324e-17 3.62694e-33
v 1.07793 -0.313326 0.681383
vn -1 5.73027e-17 -3.50878e-33
v 1.07793 0.300923 0.681383
vn -1 5.91732e-17 -3.62331e-33
v 1.07793 -0.313326 0.58386
vn -6.03308e-17 -1 6.03308e-17
v 1.07793 -0.313326 0.681383
vn -5.94554e-17 -1 5.94554e-17
v 0.893467 -0.313326 0.58386
vn -5.94554e-17 -1 5.94554e-17
v 1.07793 0.300923 0.681383
vn 0 5.4506e-17 1
v 0.893467 0.300923 0.681383
vn 0 4.91112e-17 1
v 1.07793 -0.313326 0.681383
vn 0 4.91112e-17 1
v 0.893467 -0.313326 0.681383
vn 0 5.4506e-17 1
v 0.893467 -0.313326 0.681383
vn -6.03308e-17 -1 6.03308e-17
v -1.00299 0.337559 0.274357
vn 4.23688e-17 1 -4.23688e-17
v 0.893467 0.337559 0.415667
vn 4.23688e-17 1 -4.23688e-17
v 0.893467 0.337559 0.274357
vn 5.00832e-17 1 -5.00832e-17
v -1.00299 0.337559 0.415667
vn 5.00832e-17 1 -5.00832e-17
v -1.00299 -0.344069 0.415667
vn -1 5.25708e-17 -3.21903e-33
v -1.00299 0.337559 0.274357
vn -1 5.25708e-17 -3.21903e-33
v -1.00299 -0.344069 0.274357
vn -1 5.65719e-17 -3.46403e-33
v -1.00299 0.337559 0.415667
vn -1 5.65719e-17 -3.46403e-33
v -1.00299 -0.344069 0.415667
vn 0 1.60468e-17 1
v 0.893467 0.337559 0.415667
vn 0 1.60468e-17 1
v -1.00299 0.337559 0.415667
vn 0 2.54294e-17 1
v 0.893467 -0.344069 0.274357
vn -4.23688e-17 -1 4.23688e-17
v -1.00299 -0.344069 0.415667
vn -4.23688e-17 -1 4.23688e-17
v -1.00299 -0.344069 0.274357
vn -5.00832e-17 -1 5.00832e-17
v 0.893467 -0.344069 0.415667
vn 0 2.54294e-17 1
v 0.893467 -0.344069 0.415667
vn -5.00832e-17 -1 5.00832e-17
f 1//1 2//2 3//3
f 2//2 1//1 4//4
f 11//11 4//4 1//1
f 4//4 11//11 18//18
f 5//5 6//6 7//7
f 15//15 7//7 6//6
f 7//7 15//15 22//22
f 7//7 22//22 38//38
f 38//38 22//22 57//57
f 57//57 22//22 68//68
f 79//79 22//22 80//80
f 68//68 22//22 79//79
f 8//8 9//9 10//10
f 9//9 8//8 16//16
f 17//17 10//10 9//9
f 9//9 16//16 24//24
f 17//17 19//19 10//10
f 19//19 17//17 32//32
f 32//32 17//17 50//50
f 12//12 13//13 14//14
f 12//12 20//20 13//13
f 20//20 12//12 31//31
f 21//21 14//14 13//13
f 13//13 20//20 33//33
f 14//14 21//21 23//23
f 23//23 21//21 39//39
f 23//23 39//39 20//20
f 33//33 20//20 39//39
f 25//25 26//26 27//27
f 26//26 25//25 34//34
f 28//28 29//29 30//30
f 29//29 28//28 49//49
f 29//29 49//49 60//60
f 60//60 49//49 73//73
f 73//73 88//88 60//60
f 60//60 88//88 115//115
f 88//88 73//73 114//114
f 115//115 88//88 133//133
f 35//35 36//36 37//37
f 36//36 35//35 53//53
f 66//66 53//53 35//35
f 53//53 66//66 77//77
f 74//74 66//66 75//75
f 77//77 66//66 74//74
f 40//40 41//41 42//42
f 41//41 40//40 58//58
f 42//42 41//41 59//59
f 59//59 41//41 64//64
f 64//64 41//41 76//76
f 76//76 41//41 95//95
f 64//64 65//65 61//61
f 64//64 76//76 65//65
f 62//62 61//61 65//65
f 61//61 62//62 63//63
f 43//43 44//44 45//45
f 44//44 43//43 52//52
f 46//46 47//47 48//48
f 47//47 46//46 51//51
f 54//54 55//55 56//56
f 55//55 54//54 67//67
f 67//67 54//54 78//78
f 78//78 54//54 99//99
f 116//116 99//99 54//54
f 67//67 78//78 100//100
f 67//67 100//100 89//89
f 140//140 89//89 100//100
f 89//89 90//90 91//91
f 90//90 89//89 116//116
f 116//116 89//89 99//99
f 99//99 89//89 140//140
f 69//69 70//70 71//71
f 69//69 84//84 70//70
f 84//84 69//69 109//109
f 71//71 70//70 72//72
f 84//84 109//109 92//92
f 117//117 92//92 109//109
f 92//92 93//93 94//94
f 92//92 117//117 93//93
f 81//81 82//82 83//83
f 82//82 81//81 107//107
f 129//129 107//107 81//81
f 107//107 129//129 132//132
f 85//85 86//86 87//87
f 86//86 85//85 113//113
f 96//96 97//97 98//98
f 97//97 96//96 121//121
f 101//101 102//102 103//103
f 102//102 101//101 128//128
f 104//104 105//105 106//106
f 105//105 104//104 108//108
f 104//104 106//106 118//118
f 108//108 104//104 130//130
f 136//136 130//130 104//104
f 118//118 119//119 120//120
f 118//118 106//106 119//119
f 134//134 120//120 119//119
f 119//119 106//106 142//142
f 135//135 136//136 120//120
f 135//135 120//120 134//134
f 130//130 136//136 135//135
f 135//135 141//141 106//106
f 135//135 134//134 141//141
f 142//142 106//106 141//141
f 110//110 111//111 112//112
f 111//111 110//110 131//131
f 131//131 110//110 137//137
f 122//122 123//123 124//124
f 123//123 122//122 138//138
f 125//125 126//126 127//127
f 126//126 125//125 139//139
f 143//143 144//144 145//145
f 144//144 143//143 150//150
f 146//146 147//147 148//148
f 147//147 146//146 149//149
f 151//151 152//152 153//153
f 154//154 153//153 152//152
f 153//153 154//154 161//161
f 168//168 161//161 154//154
f 155//155 156//156 157//157
f 156//156 155//155 165//165
f 172//172 165//165 155//155
f 188//188 172//172 155//155
f 207//207 172//172 188//188
f 221//221 172//172 207//207
f 233//233 172//172 234//234
f 234//234 172//172 221//221
f 158//158 159//159 160//160
f 159//159 158//158 167//167
f 158//158 169//169 167//167
f 166//166 160//160 159//159
f 174//174 166//166 159//159
f 182//182 167//167 169//169
f 200//200 167//167 182//182
f 162//162 163//163 164//164
f 163//163 162//162 171//171
f 173//173 171//171 162//162
f 163//163 170//170 164//164
f 183//183 170//170 163//163
f 181//181 164//164 170//170
f 189//189 170//170 183//183
f 170//170 189//189 173//173
f 189//189 171//171 173//173
f 175//175 176//176 177//177
f 184//184 177//177 176//176
f 178//178 179//179 180//180
f 199//199 180//180 179//179
f 210//210 199//199 179//179
f 226//226 199//199 210//210
f 210//210 242//242 226//226
f 276//276 242//242 210//210
f 275//275 226//226 242//242
f 298//298 242//242 276//276
f 185//185 186//186 187//187
f 203//203 187//187 186//186
f 187//187 203//203 216//216
f 230//230 216//216 203//203
f 227//227 216//216 228//228
f 228//228 216//216 230//230
f 190//190 191//191 192//192
f 209//209 191//191 190//190
f 208//208 192//192 191//191
f 214//214 191//191 209//209
f 229//229 191//191 214//214
f 249//249 191//191 229//229
f 213//213 215//215 214//214
f 215//215 229//229 214//214
f 211//211 212//212 213//213
f 215//215 213//213 212//212
f 193//193 194//194 195//195
f 202//202 195//195 194//194
f 196//196 197//197 198//198
f 201//201 198//198 197//197
f 204//204 205//205 206//206
f 220//220 206//206 205//205
f 232//232 206//206 220//220
f 260//260 206//206 232//232
f 206//206 260//260 280//280
f 261//261 232//232 220//220
f 245//245 261//261 220//220
f 261//261 245//245 306//306
f 243//243 244//244 245//245
f 280//280 245//245 244//244
f 260//260 245//245 280//280
f 306//306 245//245 260//260
f 217//217 218//218 219//219
f 231//231 219//219 218//218
f 222//222 223//223 224//224
f 225//225 223//223 222//222
f 223//223 238//238 224//224
f 270//270 224//224 238//238
f 248//248 270//270 238//238
f 270//270 248//248 281//281
f 246//246 247//247 248//248
f 247//247 281//281 248//248
f 235//235 236//236 237//237
f 268//268 237//237 236//236
f 237//237 268//268 294//294
f 297//297 294//294 268//268
f 239//239 240//240 241//241
f 274//274 241//241 240//240
f 250//250 251//251 252//252
f 285//285 252//252 251//251
f 253//253 254//254 255//255
f 256//256 255//255 254//254
f 257//257 258//258 259//259
f 286//286 259//259 258//258
f 262//262 263//263 264//264
f 293//293 264//264 263//263
f 265//265 266//266 267//267
f 284//284 265//265 267//267
f 283//283 265//265 284//284
f 265//265 307//307 302//302
f 308//308 265//265 283//283
f 307//307 265//265 308//308
f 269//269 267//267 266//266
f 295//295 267//267 269//269
f 267//267 295//295 301//301
f 302//302 301//301 295//295
f 282//282 301//301 302//302
f 300//300 282//282 302//302
f 307//307 300//300 302//302
f 282//282 283//283 284//284
f 283//283 282//282 300//300
f 271//271 272//272 273//273
f 296//296 273//273 272//272
f 303//303 273//273 296//296
f 277//277 278//278 279//279
f 299//299 279//279 278//278
f 287//287 288//288 289//289
f 304//304 289//289 288//288
f 290//290 291//291 292//292
f 305//305 292//292 291//291
f 309//309 310//310 311//311
f 316//316 311//311 310//310
f 312//312 313//313 314//314
f 315//315 314//314 313//313
f 317//317 318//318 319//319
f 318//318 317//317 320//320
f 321//321 322//322 323//323
f 322//322 321//321 324//324
f 325//325 326//326 327//327
f 326//326 325//325 331//331
f 328//328 329//329 330//330
f 329//329 328//328 332//332
