# Created by Open3D 
# object name: 946bd5aeda453b38b3a454ed6a7199e2
# number of vertices: 1314
# number of triangles: 724
v 0.891305 0.241809 0.132561
vn 1 -5.83843e-17 3.57501e-33
v 0.891305 -0.24194 0.0686259
vn 1 -5.83843e-17 3.57501e-33
v 0.891305 0.241809 0.0686259
vn 1 -5.97744e-17 3.66013e-33
v 0.891305 -0.24194 0.132561
vn 1 -5.97744e-17 3.66013e-33
v 0.891305 0.241809 0.0686259
vn -1 5.97744e-17 -3.66013e-33
v 0.891305 -0.24194 0.0686259
vn -1 5.83843e-17 -3.57501e-33
v 0.891305 0.241809 0.132561
vn -1 5.83843e-17 -3.57501e-33
v 0.891305 -0.24194 0.132561
vn -1 5.97744e-17 -3.66013e-33
v 0.891305 -0.24194 0.0686259
vn 0 -5.57896e-17 -1
v 0.837364 0.241809 0.0686259
vn 0 -5.57896e-17 -1
v 0.891305 0.241809 0.0686259
vn 0 -5.83844e-17 -1
v 0.891305 0.241809 0.0686259
vn 0 5.83844e-17 1
v 0.837364 0.241809 0.0686259
vn 0 5.57896e-17 1
v 0.891305 -0.24194 0.0686259
vn 0 5.57896e-17 1
v 0.891305 0.241809 0.0686259
vn 6.10402e-17 1 -6.10402e-17
v 0.837364 0.241809 0.132561
vn 6.10402e-17 1 -6.10402e-17
v 0.891305 0.241809 0.132561
vn 6.11361e-17 1 -6.11361e-17
v 0.891305 0.241809 0.132561
vn -6.11361e-17 -1 6.11361e-17
v 0.837364 0.241809 0.132561
vn -6.10402e-17 -1 6.10402e-17
v 0.891305 0.241809 0.0686259
vn -6.10402e-17 -1 6.10402e-17
v 0.837364 0.241809 0.132561
vn 0 5.57896e-17 1
v 0.891305 -0.24194 0.132561
vn 0 5.57896e-17 1
v 0.891305 0.241809 0.132561
vn 0 5.83844e-17 1
v 0.891305 0.241809 0.132561
vn 0 -5.83844e-17 -1
v 0.891305 -0.24194 0.132561
vn 0 -5.57896e-17 -1
v 0.837364 0.241809 0.132561
vn 0 -5.57896e-17 -1
v 0.837364 -0.24194 0.132561
vn -6.10402e-17 -1 6.10402e-17
v 0.891305 -0.24194 0.0686259
vn -6.10402e-17 -1 6.10402e-17
v 0.891305 -0.24194 0.132561
vn -6.11361e-17 -1 6.11361e-17
v 0.891305 -0.24194 0.132561
vn 6.11361e-17 1 -6.11361e-17
v 0.891305 -0.24194 0.0686259
vn 6.10402e-17 1 -6.10402e-17
v 0.837364 -0.24194 0.132561
vn 6.10402e-17 1 -6.10402e-17
v 0.837364 -0.24194 0.0686259
vn 0 -5.83844e-17 -1
v 0.837364 -0.24194 0.0686259
vn 0 5.83844e-17 1
v 0.837364 0.241809 0.0686259
vn 6.11361e-17 1 -6.11361e-17
v 0.837364 0.241809 0.0686259
vn -6.11361e-17 -1 6.11361e-17
v 0.837364 -0.24194 0.132561
vn 0 5.83844e-17 1
v 0.837364 -0.24194 0.132561
vn 0 -5.83844e-17 -1
v 0.837364 -0.24194 0.0686259
vn -6.11361e-17 -1 6.11361e-17
v 0.837364 -0.24194 0.0686259
vn 6.11361e-17 1 -6.11361e-17
v 0.837364 -0.24194 0.0686259
vn -1 5.83843e-17 -3.57501e-33
v 0.837364 0.241809 0.132561
vn -1 5.83843e-17 -3.57501e-33
v 0.837364 0.241809 0.0686259
vn -1 5.97744e-17 -3.66013e-33
v 0.837364 0.241809 0.0686259
vn 1 -5.97744e-17 3.66013e-33
v 0.837364 0.241809 0.132561
vn 1 -5.83843e-17 3.57501e-33
v 0.837364 -0.24194 0.0686259
vn 1 -5.83843e-17 3.57501e-33
v 0.837364 -0.24194 0.132561
vn -1 5.97744e-17 -3.66013e-33
v 0.837364 -0.24194 0.132561
vn 1 -5.97744e-17 3.66013e-33
v 0.677006 0.241809 0.132561
vn 1 -5.83843e-17 3.57501e-33
v 0.677006 -0.24194 0.0686259
vn 1 -5.83843e-17 3.57501e-33
v 0.677006 0.241809 0.0686259
vn 1 -5.97744e-17 3.66013e-33
v 0.677006 -0.24194 0.132561
vn 1 -5.97744e-17 3.66013e-33
v 0.677006 0.241809 0.0686259
vn -1 5.97744e-17 -3.66013e-33
v 0.677006 -0.24194 0.0686259
vn -1 5.83843e-17 -3.57501e-33
v 0.677006 0.241809 0.132561
vn -1 5.83843e-17 -3.57501e-33
v 0.677006 -0.24194 0.132561
vn -1 5.97744e-17 -3.66013e-33
v 0.677006 -0.24194 0.0686259
vn 0 -5.57897e-17 -1
v 0.623066 0.241809 0.0686259
vn 0 -5.57897e-17 -1
v 0.677006 0.241809 0.0686259
vn 0 -5.83844e-17 -1
v 0.677006 0.241809 0.0686259
vn 0 5.83844e-17 1
v 0.623066 0.241809 0.0686259
vn 0 5.57897e-17 1
v 0.677006 -0.24194 0.0686259
vn 0 5.57897e-17 1
v 0.677006 0.241809 0.0686259
vn 6.10402e-17 1 -6.10402e-17
v 0.623066 0.241809 0.132561
vn 6.10402e-17 1 -6.10402e-17
v 0.677006 0.241809 0.132561
vn 6.11361e-17 1 -6.11361e-17
v 0.677006 0.241809 0.132561
vn -6.11361e-17 -1 6.11361e-17
v 0.623066 0.241809 0.132561
vn -6.10402e-17 -1 6.10402e-17
v 0.677006 0.241809 0.0686259
vn -6.10402e-17 -1 6.10402e-17
v 0.623066 0.241809 0.132561
vn 0 5.57897e-17 1
v 0.677006 -0.24194 0.132561
vn 0 5.57897e-17 1
v 0.677006 0.241809 0.132561
vn 0 5.83844e-17 1
v 0.677006 0.241809 0.132561
vn 0 -5.83844e-17 -1
v 0.677006 -0.24194 0.132561
vn 0 -5.57897e-17 -1
v 0.623066 0.241809 0.132561
vn 0 -5.57897e-17 -1
v 0.623066 -0.24194 0.132561
vn -6.10402e-17 -1 6.10402e-17
v 0.677006 -0.24194 0.0686259
vn -6.10402e-17 -1 6.10402e-17
v 0.677006 -0.24194 0.132561
vn -6.11361e-17 -1 6.11361e-17
v 0.677006 -0.24194 0.132561
vn 6.11361e-17 1 -6.11361e-17
v 0.677006 -0.24194 0.0686259
vn 6.10402e-17 1 -6.10402e-17
v 0.623066 -0.24194 0.132561
vn 6.10402e-17 1 -6.10402e-17
v 0.623066 -0.24194 0.0686259
vn 0 -5.83844e-17 -1
v 0.623066 -0.24194 0.0686259
vn 0 5.83844e-17 1
v 0.623066 0.241809 0.0686259
vn 6.11361e-17 1 -6.11361e-17
v 0.623066 0.241809 0.0686259
vn -6.11361e-17 -1 6.11361e-17
v 0.623066 -0.24194 0.132561
vn 0 5.83844e-17 1
v 0.623066 -0.24194 0.132561
vn 0 -5.83844e-17 -1
v 0.623066 -0.24194 0.0686259
vn -6.11361e-17 -1 6.11361e-17
v 0.623066 -0.24194 0.0686259
vn 6.11361e-17 1 -6.11361e-17
v 0.623066 -0.24194 0.0686259
vn -1 5.83843e-17 -3.57501e-33
v 0.623066 0.241809 0.132561
vn -1 5.83843e-17 -3.57501e-33
v 0.623066 0.241809 0.0686259
vn -1 5.97744e-17 -3.66013e-33
v 0.623066 0.241809 0.0686259
vn 1 -5.97744e-17 3.66013e-33
v 0.623066 0.241809 0.132561
vn 1 -5.83843e-17 3.57501e-33
v 0.623066 -0.24194 0.0686259
vn 1 -5.83843e-17 3.57501e-33
v 0.623066 -0.24194 0.132561
vn -1 5.97744e-17 -3.66013e-33
v 0.623066 -0.24194 0.132561
vn 1 -5.97744e-17 3.66013e-33
v 0.242985 0.241809 0.132561
vn 1 -5.83843e-17 3.57501e-33
v 0.242985 -0.24194 0.0686259
vn 1 -5.83843e-17 3.57501e-33
v 0.242985 0.241809 0.0686259
vn 1 -5.97744e-17 3.66013e-33
v 0.242985 -0.24194 0.132561
vn 1 -5.97744e-17 3.66013e-33
v 0.242985 0.241809 0.0686259
vn -1 5.97744e-17 -3.66013e-33
v 0.242985 -0.24194 0.0686259
vn -1 5.83843e-17 -3.57501e-33
v 0.242985 0.241809 0.132561
vn -1 5.83843e-17 -3.57501e-33
v 0.242985 -0.24194 0.132561
vn -1 5.97744e-17 -3.66013e-33
v 0.242985 -0.24194 0.0686259
vn 0 -5.57895e-17 -1
v 0.189043 0.241809 0.0686259
vn 0 -5.57895e-17 -1
v 0.242985 0.241809 0.0686259
vn 0 -5.83843e-17 -1
v 0.242985 0.241809 0.0686259
vn 0 5.83843e-17 1
v 0.189043 0.241809 0.0686259
vn 0 5.57895e-17 1
v 0.242985 -0.24194 0.0686259
vn 0 5.57895e-17 1
v 0.242985 0.241809 0.0686259
vn 6.10402e-17 1 -6.10402e-17
v 0.189043 0.241809 0.132561
vn 6.10402e-17 1 -6.10402e-17
v 0.242985 0.241809 0.132561
vn 6.11361e-17 1 -6.11361e-17
v 0.242985 0.241809 0.132561
vn -6.11361e-17 -1 6.11361e-17
v 0.189043 0.241809 0.132561
vn -6.10402e-17 -1 6.10402e-17
v 0.242985 0.241809 0.0686259
vn -6.10402e-17 -1 6.10402e-17
v 0.189043 0.241809 0.132561
vn 0 5.57895e-17 1
v 0.242985 -0.24194 0.132561
vn 0 5.57895e-17 1
v 0.242985 0.241809 0.132561
vn 0 5.83843e-17 1
v 0.242985 0.241809 0.132561
vn 0 -5.83843e-17 -1
v 0.242985 -0.24194 0.132561
vn 0 -5.57895e-17 -1
v 0.189043 0.241809 0.132561
vn 0 -5.57895e-17 -1
v 0.189043 -0.24194 0.132561
vn -6.10402e-17 -1 6.10402e-17
v 0.242985 -0.24194 0.0686259
vn -6.10402e-17 -1 6.10402e-17
v 0.242985 -0.24194 0.132561
vn -6.11361e-17 -1 6.11361e-17
v 0.242985 -0.24194 0.132561
vn 6.11361e-17 1 -6.11361e-17
v 0.242985 -0.24194 0.0686259
vn 6.10402e-17 1 -6.10402e-17
v 0.189043 -0.24194 0.132561
vn 6.10402e-17 1 -6.10402e-17
v 0.189043 -0.24194 0.0686259
vn 0 -5.83843e-17 -1
v 0.189043 -0.24194 0.0686259
vn 0 5.83843e-17 1
v 0.189043 0.241809 0.0686259
vn 6.11361e-17 1 -6.11361e-17
v 0.189043 0.241809 0.0686259
vn -6.11361e-17 -1 6.11361e-17
v 0.189043 -0.24194 0.132561
vn 0 5.83843e-17 1
v 0.189043 -0.24194 0.132561
vn 0 -5.83843e-17 -1
v 0.189043 -0.24194 0.0686259
vn -6.11361e-17 -1 6.11361e-17
v 0.189043 -0.24194 0.0686259
vn 6.11361e-17 1 -6.11361e-17
v 0.189043 -0.24194 0.0686259
vn -1 5.83843e-17 -3.57501e-33
v 0.189043 0.241809 0.132561
vn -1 5.83843e-17 -3.57501e-33
v 0.189043 0.241809 0.0686259
vn -1 5.97744e-17 -3.66013e-33
v 0.189043 0.241809 0.0686259
vn 1 -5.97744e-17 3.66013e-33
v 0.189043 0.241809 0.132561
vn 1 -5.83843e-17 3.57501e-33
v 0.189043 -0.24194 0.0686259
vn 1 -5.83843e-17 3.57501e-33
v 0.189043 -0.24194 0.132561
vn -1 5.97744e-17 -3.66013e-33
v 0.189043 -0.24194 0.132561
vn 1 -5.97744e-17 3.66013e-33
v -0.184825 0.241809 0.132561
vn 1 -5.83843e-17 3.57501e-33
v -0.184825 -0.24194 0.0686259
vn 1 -5.83843e-17 3.57501e-33
v -0.184825 0.241809 0.0686259
vn 1 -5.97744e-17 3.66013e-33
v -0.184825 -0.24194 0.132561
vn 1 -5.97744e-17 3.66013e-33
v -0.184825 0.241809 0.0686259
vn -1 5.97744e-17 -3.66013e-33
v -0.184825 -0.24194 0.0686259
vn -1 5.83843e-17 -3.57501e-33
v -0.184825 0.241809 0.132561
vn -1 5.83843e-17 -3.57501e-33
v -0.184825 -0.24194 0.132561
vn -1 5.97744e-17 -3.66013e-33
v -0.184825 -0.24194 0.0686259
vn 0 -5.57895e-17 -1
v -0.238767 0.241809 0.0686259
vn 0 -5.57895e-17 -1
v -0.184825 0.241809 0.0686259
vn 0 -5.83843e-17 -1
v -0.184825 0.241809 0.0686259
vn 0 5.83843e-17 1
v -0.238767 0.241809 0.0686259
vn 0 5.57895e-17 1
v -0.184825 -0.24194 0.0686259
vn 0 5.57895e-17 1
v -0.184825 0.241809 0.0686259
vn 6.10402e-17 1 -6.10402e-17
v -0.238767 0.241809 0.132561
vn 6.10402e-17 1 -6.10402e-17
v -0.184825 0.241809 0.132561
vn 6.11361e-17 1 -6.11361e-17
v -0.184825 0.241809 0.132561
vn -6.11361e-17 -1 6.11361e-17
v -0.238767 0.241809 0.132561
vn -6.10402e-17 -1 6.10402e-17
v -0.184825 0.241809 0.0686259
vn -6.10402e-17 -1 6.10402e-17
v -0.238767 0.241809 0.132561
vn 0 5.57895e-17 1
v -0.184825 -0.24194 0.132561
vn 0 5.57895e-17 1
v -0.184825 0.241809 0.132561
vn 0 5.83843e-17 1
v -0.184825 0.241809 0.132561
vn 0 -5.83843e-17 -1
v -0.184825 -0.24194 0.132561
vn 0 -5.57895e-17 -1
v -0.238767 0.241809 0.132561
vn 0 -5.57895e-17 -1
v -0.238767 -0.24194 0.132561
vn -6.10402e-17 -1 6.10402e-17
v -0.184825 -0.24194 0.0686259
vn -6.10402e-17 -1 6.10402e-17
v -0.184825 -0.24194 0.132561
vn -6.11361e-17 -1 6.11361e-17
v -0.184825 -0.24194 0.132561
vn 6.11361e-17 1 -6.11361e-17
v -0.184825 -0.24194 0.0686259
vn 6.10402e-17 1 -6.10402e-17
v -0.238767 -0.24194 0.132561
vn 6.10402e-17 1 -6.10402e-17
v -0.238767 -0.24194 0.0686259
vn 0 -5.83843e-17 -1
v -0.238767 -0.24194 0.0686259
vn 0 5.83843e-17 1
v -0.238767 0.241809 0.0686259
vn 6.11361e-17 1 -6.11361e-17
v -0.238767 0.241809 0.0686259
vn -6.11361e-17 -1 6.11361e-17
v -0.238767 -0.24194 0.132561
vn 0 5.83843e-17 1
v -0.238767 -0.24194 0.132561
vn 0 -5.83843e-17 -1
v -0.238767 -0.24194 0.0686259
vn -6.11361e-17 -1 6.11361e-17
v -0.238767 -0.24194 0.0686259
vn 6.11361e-17 1 -6.11361e-17
v -0.238767 -0.24194 0.0686259
vn -1 5.83843e-17 -3.57501e-33
v -0.238767 0.241809 0.132561
vn -1 5.83843e-17 -3.57501e-33
v -0.238767 0.241809 0.0686259
vn -1 5.97744e-17 -3.66013e-33
v -0.238767 0.241809 0.0686259
vn 1 -5.97744e-17 3.66013e-33
v -0.238767 0.241809 0.132561
vn 1 -5.83843e-17 3.57501e-33
v -0.238767 -0.24194 0.0686259
vn 1 -5.83843e-17 3.57501e-33
v -0.238767 -0.24194 0.132561
vn -1 5.97744e-17 -3.66013e-33
v -0.238767 -0.24194 0.132561
vn 1 -5.97744e-17 3.66013e-33
v -0.401544 0.241794 0.132561
vn 1 -5.83843e-17 3.57501e-33
v -0.401544 -0.241956 0.0686259
vn 1 -5.83843e-17 3.57501e-33
v -0.401544 0.241794 0.0686259
vn 1 -5.97744e-17 3.66013e-33
v -0.401544 -0.241956 0.132561
vn 1 -5.97744e-17 3.66013e-33
v -0.401544 0.241794 0.0686259
vn -1 5.97744e-17 -3.66013e-33
v -0.401544 -0.241956 0.0686259
vn -1 5.83843e-17 -3.57501e-33
v -0.401544 0.241794 0.132561
vn -1 5.83843e-17 -3.57501e-33
v -0.401544 -0.241956 0.132561
vn -1 5.97744e-17 -3.66013e-33
v -0.401544 -0.241956 0.0686259
vn 0 -5.57897e-17 -1
v -0.455483 0.241794 0.0686259
vn 0 -5.57897e-17 -1
v -0.401544 0.241794 0.0686259
vn 0 -5.83844e-17 -1
v -0.401544 0.241794 0.0686259
vn 0 5.83844e-17 1
v -0.455483 0.241794 0.0686259
vn 0 5.57897e-17 1
v -0.401544 -0.241956 0.0686259
vn 0 5.57897e-17 1
v -0.401544 0.241794 0.0686259
vn 6.10402e-17 1 -6.10402e-17
v -0.455483 0.241794 0.132561
vn 6.10402e-17 1 -6.10402e-17
v -0.401544 0.241794 0.132561
vn 6.11361e-17 1 -6.11361e-17
v -0.401544 0.241794 0.132561
vn -6.11361e-17 -1 6.11361e-17
v -0.455483 0.241794 0.132561
vn -6.10402e-17 -1 6.10402e-17
v -0.401544 0.241794 0.0686259
vn -6.10402e-17 -1 6.10402e-17
v -0.455483 0.241794 0.132561
vn 0 5.57897e-17 1
v -0.401544 -0.241956 0.132561
vn 0 5.57897e-17 1
v -0.401544 0.241794 0.132561
vn 0 5.83844e-17 1
v -0.401544 0.241794 0.132561
vn 0 -5.83844e-17 -1
v -0.401544 -0.241956 0.132561
vn 0 -5.57897e-17 -1
v -0.455483 0.241794 0.132561
vn 0 -5.57897e-17 -1
v -0.455483 -0.241956 0.132561
vn -6.10402e-17 -1 6.10402e-17
v -0.401544 -0.241956 0.0686259
vn -6.10402e-17 -1 6.10402e-17
v -0.401544 -0.241956 0.132561
vn -6.11361e-17 -1 6.11361e-17
v -0.401544 -0.241956 0.132561
vn 6.11361e-17 1 -6.11361e-17
v -0.401544 -0.241956 0.0686259
vn 6.10402e-17 1 -6.10402e-17
v -0.455483 -0.241956 0.132561
vn 6.10402e-17 1 -6.10402e-17
v -0.455483 -0.241956 0.0686259
vn 0 -5.83844e-17 -1
v -0.455483 -0.241956 0.0686259
vn 0 5.83844e-17 1
v -0.455483 0.241794 0.0686259
vn 6.11361e-17 1 -6.11361e-17
v -0.455483 0.241794 0.0686259
vn -6.11361e-17 -1 6.11361e-17
v -0.455483 -0.241956 0.132561
vn 0 5.83844e-17 1
v -0.455483 -0.241956 0.132561
vn 0 -5.83844e-17 -1
v -0.455483 -0.241956 0.0686259
vn -6.11361e-17 -1 6.11361e-17
v -0.455483 -0.241956 0.0686259
vn 6.11361e-17 1 -6.11361e-17
v -0.455483 -0.241956 0.0686259
vn -1 5.83843e-17 -3.57501e-33
v -0.455483 0.241794 0.132561
vn -1 5.83843e-17 -3.57501e-33
v -0.455483 0.241794 0.0686259
vn -1 5.97744e-17 -3.66013e-33
v -0.455483 0.241794 0.0686259
vn 1 -5.97744e-17 3.66013e-33
v -0.455483 0.241794 0.132561
vn 1 -5.83843e-17 3.57501e-33
v -0.455483 -0.241956 0.0686259
vn 1 -5.83843e-17 3.57501e-33
v -0.455483 -0.241956 0.132561
vn -1 5.97744e-17 -3.66013e-33
v -0.455483 -0.241956 0.132561
vn 1 -5.97744e-17 3.66013e-33
v 0.0277833 0.241809 0.132561
vn 1 -5.83843e-17 3.57501e-33
v 0.0277833 -0.24194 0.0686259
vn 1 -5.83843e-17 3.57501e-33
v 0.0277833 0.241809 0.0686259
vn 1 -5.97744e-17 3.66013e-33
v 0.0277833 -0.24194 0.132561
vn 1 -5.97744e-17 3.66013e-33
v 0.0277833 0.241809 0.0686259
vn -1 5.97744e-17 -3.66013e-33
v 0.0277833 -0.24194 0.0686259
vn -1 5.83843e-17 -3.57501e-33
v 0.0277833 0.241809 0.132561
vn -1 5.83843e-17 -3.57501e-33
v 0.0277833 -0.24194 0.132561
vn -1 5.97744e-17 -3.66013e-33
v 0.0277833 -0.24194 0.0686259
vn 0 -5.57897e-17 -1
v -0.0261563 0.241809 0.0686259
vn 0 -5.57897e-17 -1
v 0.0277833 0.241809 0.0686259
vn 0 -5.83844e-17 -1
v 0.0277833 0.241809 0.0686259
vn 0 5.83844e-17 1
v -0.0261563 0.241809 0.0686259
vn 0 5.57897e-17 1
v 0.0277833 -0.24194 0.0686259
vn 0 5.57897e-17 1
v 0.0277833 0.241809 0.0686259
vn 6.10402e-17 1 -6.10402e-17
v -0.0261563 0.241809 0.132561
vn 6.10402e-17 1 -6.10402e-17
v 0.0277833 0.241809 0.132561
vn 6.11361e-17 1 -6.11361e-17
v 0.0277833 0.241809 0.132561
vn -6.11361e-17 -1 6.11361e-17
v -0.0261563 0.241809 0.132561
vn -6.10402e-17 -1 6.10402e-17
v 0.0277833 0.241809 0.0686259
vn -6.10402e-17 -1 6.10402e-17
v -0.0261563 0.241809 0.132561
vn 0 5.57897e-17 1
v 0.0277833 -0.24194 0.132561
vn 0 5.57897e-17 1
v 0.0277833 0.241809 0.132561
vn 0 5.83844e-17 1
v 0.0277833 0.241809 0.132561
vn 0 -5.83844e-17 -1
v 0.0277833 -0.24194 0.132561
vn 0 -5.57897e-17 -1
v -0.0261563 0.241809 0.132561
vn 0 -5.57897e-17 -1
v -0.0261563 -0.24194 0.132561
vn -6.10402e-17 -1 6.10402e-17
v 0.0277833 -0.24194 0.0686259
vn -6.10402e-17 -1 6.10402e-17
v 0.0277833 -0.24194 0.132561
vn -6.11361e-17 -1 6.11361e-17
v 0.0277833 -0.24194 0.132561
vn 6.11361e-17 1 -6.11361e-17
v 0.0277833 -0.24194 0.0686259
vn 6.10402e-17 1 -6.10402e-17
v -0.0261563 -0.24194 0.132561
vn 6.10402e-17 1 -6.10402e-17
v -0.0261563 -0.24194 0.0686259
vn 0 -5.83844e-17 -1
v -0.0261563 -0.24194 0.0686259
vn 0 5.83844e-17 1
v -0.0261563 0.241809 0.0686259
vn 6.11361e-17 1 -6.11361e-17
v -0.0261563 0.241809 0.0686259
vn -6.11361e-17 -1 6.11361e-17
v -0.0261563 -0.24194 0.132561
vn 0 5.83844e-17 1
v -0.0261563 -0.24194 0.132561
vn 0 -5.83844e-17 -1
v -0.0261563 -0.24194 0.0686259
vn -6.11361e-17 -1 6.11361e-17
v -0.0261563 -0.24194 0.0686259
vn 6.11361e-17 1 -6.11361e-17
v -0.0261563 -0.24194 0.0686259
vn -1 5.83843e-17 -3.57501e-33
v -0.0261563 0.241809 0.132561
vn -1 5.83843e-17 -3.57501e-33
v -0.0261563 0.241809 0.0686259
vn -1 5.97744e-17 -3.66013e-33
v -0.0261563 0.241809 0.0686259
vn 1 -5.97744e-17 3.66013e-33
v -0.0261563 0.241809 0.132561
vn 1 -5.83843e-17 3.57501e-33
v -0.0261563 -0.24194 0.0686259
vn 1 -5.83843e-17 3.57501e-33
v -0.0261563 -0.24194 0.132561
vn -1 5.97744e-17 -3.66013e-33
v -0.0261563 -0.24194 0.132561
vn 1 -5.97744e-17 3.66013e-33
v 0.459153 0.241809 0.132561
vn 1 -5.83843e-17 3.57501e-33
v 0.459153 -0.24194 0.0686259
vn 1 -5.83843e-17 3.57501e-33
v 0.459153 0.241809 0.0686259
vn 1 -5.97744e-17 3.66013e-33
v 0.459153 -0.24194 0.132561
vn 1 -5.97744e-17 3.66013e-33
v 0.459153 0.241809 0.0686259
vn -1 5.97744e-17 -3.66013e-33
v 0.459153 -0.24194 0.0686259
vn -1 5.83843e-17 -3.57501e-33
v 0.459153 0.241809 0.132561
vn -1 5.83843e-17 -3.57501e-33
v 0.459153 -0.24194 0.132561
vn -1 5.97744e-17 -3.66013e-33
v 0.459153 -0.24194 0.0686259
vn 0 -5.57895e-17 -1
v 0.405211 0.241809 0.0686259
vn 0 -5.57895e-17 -1
v 0.459153 0.241809 0.0686259
vn 0 -5.83843e-17 -1
v 0.459153 0.241809 0.0686259
vn 0 5.83843e-17 1
v 0.405211 0.241809 0.0686259
vn 0 5.57895e-17 1
v 0.459153 -0.24194 0.0686259
vn 0 5.57895e-17 1
v 0.459153 0.241809 0.0686259
vn 6.10402e-17 1 -6.10402e-17
v 0.405211 0.241809 0.132561
vn 6.10402e-17 1 -6.10402e-17
v 0.459153 0.241809 0.132561
vn 6.11361e-17 1 -6.11361e-17
v 0.459153 0.241809 0.132561
vn -6.11361e-17 -1 6.11361e-17
v 0.405211 0.241809 0.132561
vn -6.10402e-17 -1 6.10402e-17
v 0.459153 0.241809 0.0686259
vn -6.10402e-17 -1 6.10402e-17
v 0.405211 0.241809 0.132561
vn 0 5.57895e-17 1
v 0.459153 -0.24194 0.132561
vn 0 5.57895e-17 1
v 0.459153 0.241809 0.132561
vn 0 5.83843e-17 1
v 0.459153 0.241809 0.132561
vn 0 -5.83843e-17 -1
v 0.459153 -0.24194 0.132561
vn 0 -5.57895e-17 -1
v 0.405211 0.241809 0.132561
vn 0 -5.57895e-17 -1
v 0.405211 -0.24194 0.132561
vn -6.10402e-17 -1 6.10402e-17
v 0.459153 -0.24194 0.0686259
vn -6.10402e-17 -1 6.10402e-17
v 0.459153 -0.24194 0.132561
vn -6.11361e-17 -1 6.11361e-17
v 0.459153 -0.24194 0.132561
vn 6.11361e-17 1 -6.11361e-17
v 0.459153 -0.24194 0.0686259
vn 6.10402e-17 1 -6.10402e-17
v 0.405211 -0.24194 0.132561
vn 6.10402e-17 1 -6.10402e-17
v 0.405211 -0.24194 0.0686259
vn 0 -5.83843e-17 -1
v 0.405211 -0.24194 0.0686259
vn 0 5.83843e-17 1
v 0.405211 0.241809 0.0686259
vn 6.11361e-17 1 -6.11361e-17
v 0.405211 0.241809 0.0686259
vn -6.11361e-17 -1 6.11361e-17
v 0.405211 -0.24194 0.132561
vn 0 5.83843e-17 1
v 0.405211 -0.24194 0.132561
vn 0 -5.83843e-17 -1
v 0.405211 -0.24194 0.0686259
vn -6.11361e-17 -1 6.11361e-17
v 0.405211 -0.24194 0.0686259
vn 6.11361e-17 1 -6.11361e-17
v 0.405211 -0.24194 0.0686259
vn -1 5.83843e-17 -3.57501e-33
v 0.405211 0.241809 0.132561
vn -1 5.83843e-17 -3.57501e-33
v 0.405211 0.241809 0.0686259
vn -1 5.97744e-17 -3.66013e-33
v 0.405211 0.241809 0.0686259
vn 1 -5.97744e-17 3.66013e-33
v 0.405211 0.241809 0.132561
vn 1 -5.83843e-17 3.57501e-33
v 0.405211 -0.24194 0.0686259
vn 1 -5.83843e-17 3.57501e-33
v 0.405211 -0.24194 0.132561
vn -1 5.97744e-17 -3.66013e-33
v 0.405211 -0.24194 0.132561
vn 1 -5.97744e-17 3.66013e-33
v -0.835107 0.241809 0.132561
vn 1 -5.83843e-17 3.57501e-33
v -0.835107 -0.24194 0.0686259
vn 1 -5.83843e-17 3.57501e-33
v -0.835107 0.241809 0.0686259
vn 1 -5.97744e-17 3.66013e-33
v -0.835107 -0.24194 0.132561
vn 1 -5.97744e-17 3.66013e-33
v -0.835107 0.241809 0.0686259
vn -1 5.97744e-17 -3.66013e-33
v -0.835107 -0.24194 0.0686259
vn -1 5.83843e-17 -3.57501e-33
v -0.835107 0.241809 0.132561
vn -1 5.83843e-17 -3.57501e-33
v -0.835107 -0.24194 0.132561
vn -1 5.97744e-17 -3.66013e-33
v -0.835107 -0.24194 0.0686259
vn 0 -5.57894e-17 -1
v -0.889049 0.241809 0.0686259
vn 0 -5.57894e-17 -1
v -0.835107 0.241809 0.0686259
vn 0 -5.83843e-17 -1
v -0.835107 0.241809 0.0686259
vn 0 5.83843e-17 1
v -0.889049 0.241809 0.0686259
vn 0 5.57894e-17 1
v -0.835107 -0.24194 0.0686259
vn 0 5.57894e-17 1
v -0.835107 0.241809 0.0686259
vn 6.10402e-17 1 -6.10402e-17
v -0.889049 0.241809 0.132561
vn 6.10402e-17 1 -6.10402e-17
v -0.835107 0.241809 0.132561
vn 6.11361e-17 1 -6.11361e-17
v -0.835107 0.241809 0.132561
vn -6.11361e-17 -1 6.11361e-17
v -0.889049 0.241809 0.132561
vn -6.10402e-17 -1 6.10402e-17
v -0.835107 0.241809 0.0686259
vn -6.10402e-17 -1 6.10402e-17
v -0.889049 0.241809 0.132561
vn 0 5.57894e-17 1
v -0.835107 -0.24194 0.132561
vn 0 5.57894e-17 1
v -0.835107 0.241809 0.132561
vn 0 5.83843e-17 1
v -0.835107 0.241809 0.132561
vn 0 -5.83843e-17 -1
v -0.835107 -0.24194 0.132561
vn 0 -5.57894e-17 -1
v -0.889049 0.241809 0.132561
vn 0 -5.57894e-17 -1
v -0.889049 -0.24194 0.132561
vn -6.10402e-17 -1 6.10402e-17
v -0.835107 -0.24194 0.0686259
vn -6.10402e-17 -1 6.10402e-17
v -0.835107 -0.24194 0.132561
vn -6.11361e-17 -1 6.11361e-17
v -0.835107 -0.24194 0.132561
vn 6.11361e-17 1 -6.11361e-17
v -0.835107 -0.24194 0.0686259
vn 6.10402e-17 1 -6.10402e-17
v -0.889049 -0.24194 0.132561
vn 6.10402e-17 1 -6.10402e-17
v -0.889049 -0.24194 0.0686259
vn 0 -5.83843e-17 -1
v -0.889049 -0.24194 0.0686259
vn 0 5.83843e-17 1
v -0.889049 0.241809 0.0686259
vn 6.11361e-17 1 -6.11361e-17
v -0.889049 0.241809 0.0686259
vn -6.11361e-17 -1 6.11361e-17
v -0.889049 -0.24194 0.132561
vn 0 5.83843e-17 1
v -0.889049 -0.24194 0.132561
vn 0 -5.83843e-17 -1
v -0.889049 -0.24194 0.0686259
vn -6.11361e-17 -1 6.11361e-17
v -0.889049 -0.24194 0.0686259
vn 6.11361e-17 1 -6.11361e-17
v -0.889049 -0.24194 0.0686259
vn -1 5.83843e-17 -3.57501e-33
v -0.889049 0.241809 0.132561
vn -1 5.83843e-17 -3.57501e-33
v -0.889049 0.241809 0.0686259
vn -1 5.97744e-17 -3.66013e-33
v -0.889049 0.241809 0.0686259
vn 1 -5.97744e-17 3.66013e-33
v -0.889049 0.241809 0.132561
vn 1 -5.83843e-17 3.57501e-33
v -0.889049 -0.24194 0.0686259
vn 1 -5.83843e-17 3.57501e-33
v -0.889049 -0.24194 0.132561
vn -1 5.97744e-17 -3.66013e-33
v -0.889049 -0.24194 0.132561
vn 1 -5.97744e-17 3.66013e-33
v -0.619605 0.241809 0.132561
vn 1 -5.83843e-17 3.57501e-33
v -0.619605 -0.24194 0.0686259
vn 1 -5.83843e-17 3.57501e-33
v -0.619605 0.241809 0.0686259
vn 1 -5.97744e-17 3.66013e-33
v -0.619605 -0.24194 0.132561
vn 1 -5.97744e-17 3.66013e-33
v -0.619605 0.241809 0.0686259
vn -1 5.97744e-17 -3.66013e-33
v -0.619605 -0.24194 0.0686259
vn -1 5.83843e-17 -3.57501e-33
v -0.619605 0.241809 0.132561
vn -1 5.83843e-17 -3.57501e-33
v -0.619605 -0.24194 0.132561
vn -1 5.97744e-17 -3.66013e-33
v -0.619605 -0.24194 0.0686259
vn 0 -5.57898e-17 -1
v -0.673544 0.241809 0.0686259
vn 0 -5.57898e-17 -1
v -0.619605 0.241809 0.0686259
vn 0 -5.83845e-17 -1
v -0.619605 0.241809 0.0686259
vn 0 5.83845e-17 1
v -0.673544 0.241809 0.0686259
vn 0 5.57898e-17 1
v -0.619605 -0.24194 0.0686259
vn 0 5.57898e-17 1
v -0.619605 0.241809 0.0686259
vn 6.10402e-17 1 -6.10402e-17
v -0.673544 0.241809 0.132561
vn 6.10402e-17 1 -6.10402e-17
v -0.619605 0.241809 0.132561
vn 6.11361e-17 1 -6.11361e-17
v -0.619605 0.241809 0.132561
vn -6.11361e-17 -1 6.11361e-17
v -0.673544 0.241809 0.132561
vn -6.10402e-17 -1 6.10402e-17
v -0.619605 0.241809 0.0686259
vn -6.10402e-17 -1 6.10402e-17
v -0.673544 0.241809 0.132561
vn 0 5.57898e-17 1
v -0.619605 -0.24194 0.132561
vn 0 5.57898e-17 1
v -0.619605 0.241809 0.132561
vn 0 5.83845e-17 1
v -0.619605 0.241809 0.132561
vn 0 -5.83845e-17 -1
v -0.619605 -0.24194 0.132561
vn 0 -5.57898e-17 -1
v -0.673544 0.241809 0.132561
vn 0 -5.57898e-17 -1
v -0.673544 -0.24194 0.132561
vn -6.10402e-17 -1 6.10402e-17
v -0.619605 -0.24194 0.0686259
vn -6.10402e-17 -1 6.10402e-17
v -0.619605 -0.24194 0.132561
vn -6.11361e-17 -1 6.11361e-17
v -0.619605 -0.24194 0.132561
vn 6.11361e-17 1 -6.11361e-17
v -0.619605 -0.24194 0.0686259
vn 6.10402e-17 1 -6.10402e-17
v -0.673544 -0.24194 0.132561
vn 6.10402e-17 1 -6.10402e-17
v -0.673544 -0.24194 0.0686259
vn 0 -5.83845e-17 -1
v -0.673544 -0.24194 0.0686259
vn 0 5.83845e-17 1
v -0.673544 0.241809 0.0686259
vn 6.11361e-17 1 -6.11361e-17
v -0.673544 0.241809 0.0686259
vn -6.11361e-17 -1 6.11361e-17
v -0.673544 -0.24194 0.132561
vn 0 5.83845e-17 1
v -0.673544 -0.24194 0.132561
vn 0 -5.83845e-17 -1
v -0.673544 -0.24194 0.0686259
vn -6.11361e-17 -1 6.11361e-17
v -0.673544 -0.24194 0.0686259
vn 6.11361e-17 1 -6.11361e-17
v -0.673544 -0.24194 0.0686259
vn -1 5.83843e-17 -3.57501e-33
v -0.673544 0.241809 0.132561
vn -1 5.83843e-17 -3.57501e-33
v -0.673544 0.241809 0.0686259
vn -1 5.97744e-17 -3.66013e-33
v -0.673544 0.241809 0.0686259
vn 1 -5.97744e-17 3.66013e-33
v -0.673544 0.241809 0.132561
vn 1 -5.83843e-17 3.57501e-33
v -0.673544 -0.24194 0.0686259
vn 1 -5.83843e-17 3.57501e-33
v -0.673544 -0.24194 0.132561
vn -1 5.97744e-17 -3.66013e-33
v -0.673544 -0.24194 0.132561
vn 1 -5.97744e-17 3.66013e-33
v -1.10583 0.109168 0.0668549
vn -5.42347e-17 -1 5.42347e-17
v 1.10574 0.109168 0.130786
vn -5.42347e-17 -1 5.42347e-17
v -1.10583 0.109168 0.130786
vn -5.75215e-17 -1 5.75215e-17
v 1.10574 0.109168 0.0668549
vn -5.75215e-17 -1 5.75215e-17
v -1.10583 0.109168 0.130786
vn 5.75215e-17 1 -5.75215e-17
v 1.10574 0.109168 0.130786
vn 5.42347e-17 1 -5.42347e-17
v -1.10583 0.109168 0.0668549
vn 5.42347e-17 1 -5.42347e-17
v 1.10574 0.109168 0.0668549
vn 5.75215e-17 1 -5.75215e-17
v 1.10574 0.124773 0.130786
vn 0 5.42346e-17 1
v -1.10583 0.109168 0.130786
vn 0 5.42346e-17 1
v 1.10574 0.109168 0.130786
vn 0 5.75214e-17 1
v 1.10574 0.109168 0.130786
vn 0 -5.75214e-17 -1
v -1.10583 0.109168 0.130786
vn 0 -5.42346e-17 -1
v 1.10574 0.124773 0.130786
vn 0 -5.42346e-17 -1
v -1.10583 0.109168 0.130786
vn -1 6.11361e-17 -3.74351e-33
v -1.10583 0.124773 0.0668549
vn -1 6.11361e-17 -3.74351e-33
v -1.10583 0.109168 0.0668549
vn -1 6.11842e-17 -3.74645e-33
v -1.10583 0.109168 0.0668549
vn 1 -6.11842e-17 3.74645e-33
v -1.10583 0.124773 0.0668549
vn 1 -6.11361e-17 3.74351e-33
v -1.10583 0.109168 0.130786
vn 1 -6.11361e-17 3.74351e-33
v -1.10583 0.109168 0.0668549
vn 0 -5.42346e-17 -1
v 1.10574 0.124773 0.0668549
vn 0 -5.42346e-17 -1
v 1.10574 0.109168 0.0668549
vn 0 -5.75214e-17 -1
v 1.10574 0.109168 0.0668549
vn 0 5.75214e-17 1
v 1.10574 0.124773 0.0668549
vn 0 5.42346e-17 1
v -1.10583 0.109168 0.0668549
vn 0 5.42346e-17 1
v 1.10574 0.124773 0.0668549
vn 1 -6.11361e-17 3.74351e-33
v 1.10574 0.109168 0.130786
vn 1 -6.11361e-17 3.74351e-33
v 1.10574 0.109168 0.0668549
vn 1 -6.11842e-17 3.74645e-33
v 1.10574 0.109168 0.0668549
vn -1 6.11842e-17 -3.74645e-33
v 1.10574 0.109168 0.130786
vn -1 6.11361e-17 -3.74351e-33
v 1.10574 0.124773 0.0668549
vn -1 6.11361e-17 -3.74351e-33
v -1.10583 0.124773 0.130786
vn 0 5.75214e-17 1
v -1.10583 0.124773 0.130786
vn 0 -5.75214e-17 -1
v 1.10574 0.124773 0.130786
vn 1 -6.11842e-17 3.74645e-33
v 1.10574 0.124773 0.130786
vn -1 6.11842e-17 -3.74645e-33
v -1.10583 0.124773 0.130786
vn -1 6.11842e-17 -3.74645e-33
v -1.10583 0.124773 0.130786
vn 1 -6.11842e-17 3.74645e-33
v -1.10583 0.124773 0.0668549
vn 0 -5.75214e-17 -1
v -1.10583 0.124773 0.0668549
vn 0 5.75214e-17 1
v 1.10574 0.124773 0.0668549
vn 5.42347e-17 1 -5.42347e-17
v -1.10583 0.124773 0.130786
vn 5.42347e-17 1 -5.42347e-17
v 1.10574 0.124773 0.130786
vn 5.75215e-17 1 -5.75215e-17
v 1.10574 0.124773 0.130786
vn -5.75215e-17 -1 5.75215e-17
v -1.10583 0.124773 0.130786
vn -5.42347e-17 -1 5.42347e-17
v 1.10574 0.124773 0.0668549
vn -5.42347e-17 -1 5.42347e-17
v -1.10583 0.124773 0.0668549
vn 5.75215e-17 1 -5.75215e-17
v -1.10583 0.124773 0.0668549
vn -5.75215e-17 -1 5.75215e-17
v -1.10583 -0.124903 0.0668549
vn -5.42347e-17 -1 5.42347e-17
v 1.10574 -0.124903 0.130786
vn -5.42347e-17 -1 5.42347e-17
v -1.10583 -0.124903 0.130786
vn -5.75215e-17 -1 5.75215e-17
v 1.10574 -0.124903 0.0668549
vn -5.75215e-17 -1 5.75215e-17
v -1.10583 -0.124903 0.130786
vn 5.75215e-17 1 -5.75215e-17
v 1.10574 -0.124903 0.130786
vn 5.42347e-17 1 -5.42347e-17
v -1.10583 -0.124903 0.0668549
vn 5.42347e-17 1 -5.42347e-17
v 1.10574 -0.124903 0.0668549
vn 5.75215e-17 1 -5.75215e-17
v 1.10574 -0.109299 0.130786
vn 0 5.42348e-17 1
v -1.10583 -0.124903 0.130786
vn 0 5.42348e-17 1
v 1.10574 -0.124903 0.130786
vn 0 5.75215e-17 1
v 1.10574 -0.124903 0.130786
vn 0 -5.75215e-17 -1
v -1.10583 -0.124903 0.130786
vn 0 -5.42348e-17 -1
v 1.10574 -0.109299 0.130786
vn 0 -5.42348e-17 -1
v -1.10583 -0.124903 0.130786
vn -1 6.11361e-17 -3.74351e-33
v -1.10583 -0.109299 0.0668549
vn -1 6.11361e-17 -3.74351e-33
v -1.10583 -0.124903 0.0668549
vn -1 6.11842e-17 -3.74645e-33
v -1.10583 -0.124903 0.0668549
vn 1 -6.11842e-17 3.74645e-33
v -1.10583 -0.109299 0.0668549
vn 1 -6.11361e-17 3.74351e-33
v -1.10583 -0.124903 0.130786
vn 1 -6.11361e-17 3.74351e-33
v -1.10583 -0.124903 0.0668549
vn 0 -5.42348e-17 -1
v 1.10574 -0.109299 0.0668549
vn 0 -5.42348e-17 -1
v 1.10574 -0.124903 0.0668549
vn 0 -5.75215e-17 -1
v 1.10574 -0.124903 0.0668549
vn 0 5.75215e-17 1
v 1.10574 -0.109299 0.0668549
vn 0 5.42348e-17 1
v -1.10583 -0.124903 0.0668549
vn 0 5.42348e-17 1
v 1.10574 -0.109299 0.0668549
vn 1 -6.11361e-17 3.74351e-33
v 1.10574 -0.124903 0.130786
vn 1 -6.11361e-17 3.74351e-33
v 1.10574 -0.124903 0.0668549
vn 1 -6.11842e-17 3.74645e-33
v 1.10574 -0.124903 0.0668549
vn -1 6.11842e-17 -3.74645e-33
v 1.10574 -0.124903 0.130786
vn -1 6.11361e-17 -3.74351e-33
v 1.10574 -0.109299 0.0668549
vn -1 6.11361e-17 -3.74351e-33
v -1.10583 -0.109299 0.130786
vn 0 5.75215e-17 1
v -1.10583 -0.109299 0.130786
vn 0 -5.75215e-17 -1
v 1.10574 -0.109299 0.130786
vn 1 -6.11842e-17 3.74645e-33
v 1.10574 -0.109299 0.130786
vn -1 6.11842e-17 -3.74645e-33
v -1.10583 -0.109299 0.130786
vn -1 6.11842e-17 -3.74645e-33
v -1.10583 -0.109299 0.130786
vn 1 -6.11842e-17 3.74645e-33
v -1.10583 -0.109299 0.0668549
vn 0 -5.75215e-17 -1
v -1.10583 -0.109299 0.0668549
vn 0 5.75215e-17 1
v 1.10574 -0.109299 0.0668549
vn 5.42347e-17 1 -5.42347e-17
v -1.10583 -0.109299 0.130786
vn 5.42347e-17 1 -5.42347e-17
v 1.10574 -0.109299 0.130786
vn 5.75215e-17 1 -5.75215e-17
v 1.10574 -0.109299 0.130786
vn -5.75215e-17 -1 5.75215e-17
v -1.10583 -0.109299 0.130786
vn -5.42347e-17 -1 5.42347e-17
v 1.10574 -0.109299 0.0668549
vn -5.42347e-17 -1 5.42347e-17
v -1.10583 -0.109299 0.0668549
vn 5.75215e-17 1 -5.75215e-17
v -1.10583 -0.109299 0.0668549
vn -5.75215e-17 -1 5.75215e-17
v 1.10574 0.0077371 0.0668549
vn 1 -6.11361e-17 3.74351e-33
v 1.10574 -0.00786734 0.130786
vn 1 -6.11361e-17 3.74351e-33
v 1.10574 -0.00786734 0.0668549
vn 1 -6.11842e-17 3.74645e-33
v 1.10574 0.0077371 0.130786
vn 1 -6.11842e-17 3.74645e-33
v 1.10574 -0.00786734 0.0668549
vn -1 6.11842e-17 -3.74645e-33
v 1.10574 -0.00786734 0.130786
vn -1 6.11361e-17 -3.74351e-33
v 1.10574 0.0077371 0.0668549
vn -1 6.11361e-17 -3.74351e-33
v 1.10574 0.0077371 0.130786
vn -1 6.11842e-17 -3.74645e-33
v 1.07882 -0.00593462 0.130786
vn -0.240739 -0.97059 5.93355e-17
v 1.10574 -0.00786734 0.0668549
vn -0.240739 -0.97059 5.93355e-17
v 1.10574 -0.00786734 0.130786
vn -0.24083 -0.970567 5.93821e-17
v 1.10574 -0.00786734 0.130786
vn 0.24083 0.970567 -5.93821e-17
v 1.10574 -0.00786734 0.0668549
vn 0.240739 0.97059 -5.93355e-17
v 1.07882 -0.00593462 0.130786
vn 0.240739 0.97059 -5.93355e-17
v 1.10574 -0.00786734 0.0668549
vn 0 -6.11481e-17 -1
v 1.07882 0.00580856 0.0668549
vn 0 -5.79187e-17 -1
v 1.10574 0.0077371 0.0668549
vn 0 -6.11842e-17 -1
v 1.10574 0.0077371 0.0668549
vn 0 6.11842e-17 1
v 1.07882 0.00580856 0.0668549
vn 0 5.79187e-17 1
v 1.10574 -0.00786734 0.0668549
vn 0 6.11481e-17 1
v 1.07882 0.00580856 0.0668549
vn -0.240164 0.970732 -5.93441e-17
v 1.10574 0.0077371 0.130786
vn -0.240164 0.970732 -5.93441e-17
v 1.10574 0.0077371 0.0668549
vn -0.240255 0.97071 -5.93907e-17
v 1.10574 0.0077371 0.0668549
vn 0.240255 -0.97071 5.93907e-17
v 1.10574 0.0077371 0.130786
vn 0.240164 -0.970732 5.93441e-17
v 1.07882 0.00580856 0.0668549
vn 0.240164 -0.970732 5.93441e-17
v 1.07882 0.00580856 0.130786
vn 0 5.79187e-17 1
v 1.10574 -0.00786734 0.130786
vn 0 6.11481e-17 1
v 1.10574 0.0077371 0.130786
vn 0 6.11842e-17 1
v 1.10574 0.0077371 0.130786
vn 0 -6.11842e-17 -1
v 1.10574 -0.00786734 0.130786
vn 0 -6.11481e-17 -1
v 1.07882 0.00580856 0.130786
vn 0 -5.79187e-17 -1
v 1.07882 -0.00593462 0.0668549
vn -0.24083 -0.970567 5.93821e-17
v 1.07882 -0.00593462 0.0668549
vn 0.24083 0.970567 -5.93821e-17
v 1.07882 -0.00593462 0.130786
vn 0 5.79618e-17 1
v 1.07882 -0.00593462 0.130786
vn 0 -5.79618e-17 -1
v 1.07882 -0.00593462 0.0668549
vn 0 -5.79618e-17 -1
v 1.07882 -0.00593462 0.0668549
vn 0 5.79618e-17 1
v 1.07882 0.00580856 0.130786
vn -0.240255 0.97071 -5.93907e-17
v 1.07882 0.00580856 0.130786
vn 0.240255 -0.97071 5.93907e-17
v 1.07882 -0.00593462 0.130786
vn 1 -6.12204e-17 3.74867e-33
v 1.07882 -0.00786317 0.0668549
vn 1 -6.12204e-17 3.74867e-33
v 1.07882 -0.00593462 0.0668549
vn 1 -6.12263e-17 3.74904e-33
v 1.07882 -0.00593462 0.0668549
vn -1 6.12263e-17 -3.74904e-33
v 1.07882 -0.00786317 0.0668549
vn -1 6.12204e-17 -3.74867e-33
v 1.07882 -0.00593462 0.130786
vn -1 6.12204e-17 -3.74867e-33
v -1.10583 -0.00786734 0.130786
vn 0 5.43111e-17 1
v -1.10583 -0.00786734 0.130786
vn 0 -5.43111e-17 -1
v -1.10583 -0.00786734 0.0668549
vn 0 -5.43111e-17 -1
v -1.10583 -0.00786734 0.0668549
vn 0 5.43111e-17 1
v 1.07882 0.00580856 0.0668549
vn 1 -6.12204e-17 3.74867e-33
v 1.07882 0.0077371 0.130786
vn 1 -6.12204e-17 3.74867e-33
v 1.07882 0.00580856 0.130786
vn 1 -6.12263e-17 3.74904e-33
v 1.07882 0.00580856 0.130786
vn -1 6.12263e-17 -3.74904e-33
v 1.07882 0.0077371 0.130786
vn -1 6.12204e-17 -3.74867e-33
v 1.07882 0.00580856 0.0668549
vn -1 6.12204e-17 -3.74867e-33
v 1.07882 -0.00786317 0.130786
vn 1 -6.12263e-17 3.74904e-33
v 1.07882 -0.00786317 0.130786
vn -1 6.12263e-17 -3.74904e-33
v 1.07882 -0.00786317 0.0668549
vn 0 -6.07538e-17 -1
v 1.07882 -0.00786317 0.0668549
vn 0 6.07538e-17 1
v 1.07882 0.0077371 0.130786
vn 0 5.71408e-17 1
v 1.07882 0.0077371 0.130786
vn 0 -5.71408e-17 -1
v 1.07882 -0.00786317 0.130786
vn 0 6.07538e-17 1
v 1.07882 -0.00786317 0.130786
vn 0 -6.07538e-17 -1
v 1.07882 0.0077371 0.0668549
vn 0 -5.71408e-17 -1
v 1.07882 0.0077371 0.0668549
vn 0 5.71408e-17 1
v 1.07882 0.0077371 0.0668549
vn 1 -6.12263e-17 3.74904e-33
v 1.07882 0.0077371 0.0668549
vn -1 6.12263e-17 -3.74904e-33
v 1.07882 -0.00786317 0.130786
vn 7.02466e-06 -1 5.43102e-17
v -1.10583 -0.00786734 0.0668549
vn 7.02466e-06 -1 5.43102e-17
v 1.07882 -0.00786317 0.0668549
vn 7.24774e-06 -1 5.75639e-17
v 1.07882 -0.00786317 0.0668549
vn -7.24774e-06 1 -5.75639e-17
v -1.10583 -0.00786734 0.0668549
vn -7.02466e-06 1 -5.43102e-17
v 1.07882 -0.00786317 0.130786
vn -7.02466e-06 1 -5.43102e-17
v -1.10583 0.0077371 0.130786
vn 0 5.75639e-17 1
v -1.10583 0.0077371 0.130786
vn 0 -5.75639e-17 -1
v -1.10583 -0.00786734 0.130786
vn 7.24774e-06 -1 5.75639e-17
v -1.10583 -0.00786734 0.130786
vn -7.24774e-06 1 -5.75639e-17
v -1.10583 0.0077371 0.0668549
vn 0 -5.75639e-17 -1
v -1.10583 0.0077371 0.0668549
vn 0 5.75639e-17 1
v 1.07882 0.0077371 0.0668549
vn 5.43102e-17 1 -5.43102e-17
v -1.10583 0.0077371 0.130786
vn 5.43102e-17 1 -5.43102e-17
v 1.07882 0.0077371 0.130786
vn 5.75639e-17 1 -5.75639e-17
v 1.07882 0.0077371 0.130786
vn -5.75639e-17 -1 5.75639e-17
v -1.10583 0.0077371 0.130786
vn -5.43102e-17 -1 5.43102e-17
v 1.07882 0.0077371 0.0668549
vn -5.43102e-17 -1 5.43102e-17
v -1.10583 0.0077371 0.0668549
vn -1 6.11361e-17 -3.74351e-33
v -1.10583 -0.00786734 0.130786
vn -1 6.11361e-17 -3.74351e-33
v -1.10583 0.0077371 0.130786
vn -1 6.11842e-17 -3.74645e-33
v -1.10583 0.0077371 0.130786
vn 1 -6.11842e-17 3.74645e-33
v -1.10583 -0.00786734 0.130786
vn 1 -6.11361e-17 3.74351e-33
v -1.10583 0.0077371 0.0668549
vn 1 -6.11361e-17 3.74351e-33
v -1.10583 -0.00786734 0.0668549
vn -1 6.11842e-17 -3.74645e-33
v -1.10583 -0.00786734 0.0668549
vn 1 -6.11842e-17 3.74645e-33
v -1.10583 0.0077371 0.0668549
vn 5.75639e-17 1 -5.75639e-17
v -1.10583 0.0077371 0.0668549
vn -5.75639e-17 -1 5.75639e-17
v -1.08 -0.235306 0.514569
vn -1 4.77173e-17 -2.92185e-33
v -1.08 0.232836 0.130971
vn -1 4.77173e-17 -2.92185e-33
v -1.08 -0.235306 0.130971
vn -1 5.36366e-17 -3.28429e-33
v -1.08 0.232836 0.514569
vn -1 5.36366e-17 -3.28429e-33
v -1.08 -0.235306 0.130971
vn 1 -5.36366e-17 3.28429e-33
v -1.08 0.232836 0.130971
vn 1 -4.77173e-17 2.92185e-33
v -1.08 -0.235306 0.514569
vn 1 -4.77173e-17 2.92185e-33
v -1.08 0.232836 0.514569
vn 1 -5.36366e-17 3.28429e-33
v -1.08 0.232836 0.130971
vn 0 -1.28197e-17 -1
v 1.07764 -0.235306 0.130971
vn 0 -1.28197e-17 -1
v -1.08 -0.235306 0.130971
vn 0 -2.12008e-17 -1
v -1.08 -0.235306 0.130971
vn 0 2.12008e-17 1
v 1.07764 -0.235306 0.130971
vn 0 1.28197e-17 1
v -1.08 0.232836 0.130971
vn 0 1.28197e-17 1
v 1.07764 -0.235306 0.130971
vn -3.48845e-17 -1 3.48845e-17
v -1.08 -0.235306 0.514569
vn -3.48845e-17 -1 3.48845e-17
v -1.08 -0.235306 0.130971
vn -4.44472e-17 -1 4.44472e-17
v -1.08 -0.235306 0.130971
vn 4.44472e-17 1 -4.44472e-17
v -1.08 -0.235306 0.514569
vn 3.48845e-17 1 -3.48845e-17
v 1.07764 -0.235306 0.130971
vn 3.48845e-17 1 -3.48845e-17
v -1.08 -0.235306 0.514569
vn 0 1.28197e-17 1
v 1.07764 0.232836 0.514569
vn 0 1.28197e-17 1
v -1.08 0.232836 0.514569
vn 0 2.12008e-17 1
v -1.08 0.232836 0.514569
vn 0 -2.12008e-17 -1
v 1.07764 0.232836 0.514569
vn 0 -1.28197e-17 -1
v -1.08 -0.235306 0.514569
vn 0 -1.28197e-17 -1
v 1.07764 0.232836 0.514569
vn 3.48845e-17 1 -3.48845e-17
v -1.08 0.232836 0.130971
vn 3.48845e-17 1 -3.48845e-17
v -1.08 0.232836 0.514569
vn 4.44472e-17 1 -4.44472e-17
v -1.08 0.232836 0.514569
vn -4.44472e-17 -1 4.44472e-17
v -1.08 0.232836 0.130971
vn -3.48845e-17 -1 3.48845e-17
v 1.07764 0.232836 0.514569
vn -3.48845e-17 -1 3.48845e-17
v 1.07764 0.232836 0.130971
vn 0 -2.12008e-17 -1
v 1.07764 0.232836 0.130971
vn 0 2.12008e-17 1
v 1.07764 -0.235306 0.514569
vn -4.44472e-17 -1 4.44472e-17
v 1.07764 -0.235306 0.514569
vn 4.44472e-17 1 -4.44472e-17
v 1.07764 -0.235306 0.514569
vn 0 2.12008e-17 1
v 1.07764 -0.235306 0.514569
vn 0 -2.12008e-17 -1
v 1.07764 0.232836 0.130971
vn 4.44472e-17 1 -4.44472e-17
v 1.07764 0.232836 0.130971
vn -4.44472e-17 -1 4.44472e-17
v 1.07764 0.232836 0.514569
vn 1 -4.77173e-17 2.92185e-33
v 1.07764 -0.235306 0.130971
vn 1 -4.77173e-17 2.92185e-33
v 1.07764 0.232836 0.130971
vn 1 -5.36366e-17 3.28429e-33
v 1.07764 0.232836 0.130971
vn -1 5.36366e-17 -3.28429e-33
v 1.07764 -0.235306 0.130971
vn -1 4.77173e-17 -2.92185e-33
v 1.07764 0.232836 0.514569
vn -1 4.77173e-17 -2.92185e-33
v 1.07764 -0.235306 0.514569
vn 1 -5.36366e-17 3.28429e-33
v 1.07764 -0.235306 0.514569
vn -1 5.36366e-17 -3.28429e-33
v -0.966695 0.206231 0.115035
vn 6.09443e-17 1 -6.09443e-17
v -1.01171 0.206231 0
vn 6.09443e-17 1 -6.09443e-17
v -1.01171 0.206231 0.115035
vn 6.1088e-17 1 -6.1088e-17
v -0.966695 0.206231 0
vn 6.1088e-17 1 -6.1088e-17
v -1.01171 0.206231 0.115035
vn -6.1088e-17 -1 6.1088e-17
v -1.01171 0.206231 0
vn -6.09443e-17 -1 6.09443e-17
v -0.966695 0.206231 0.115035
vn -6.09443e-17 -1 6.09443e-17
v -0.966695 0.206231 0
vn -6.1088e-17 -1 6.1088e-17
v -1.01171 0.206231 0
vn -1 5.6928e-17 -3.48584e-33
v -1.01171 -0.210502 0.115035
vn -1 5.6928e-17 -3.48584e-33
v -1.01171 0.206231 0.115035
vn -1 5.90018e-17 -3.61282e-33
v -1.01171 0.206231 0.115035
vn 1 -5.90018e-17 3.61282e-33
v -1.01171 -0.210502 0.115035
vn 1 -5.6928e-17 3.48584e-33
v -1.01171 0.206231 0
vn 1 -5.6928e-17 3.48584e-33
v -1.01171 -0.210502 0.115035
vn 0 5.72196e-17 1
v -0.966695 0.206231 0.115035
vn 0 5.72196e-17 1
v -1.01171 0.206231 0.115035
vn 0 5.9158e-17 1
v -1.01171 0.206231 0.115035
vn 0 -5.9158e-17 -1
v -0.966695 0.206231 0.115035
vn 0 -5.72196e-17 -1
v -1.01171 -0.210502 0.115035
vn 0 -5.72196e-17 -1
v -0.966695 0.206231 0.115035
vn 1 -5.6928e-17 3.48584e-33
v -0.966695 -0.210502 1.1862e-16
vn 1 -5.6928e-17 3.48584e-33
v -0.966695 0.206231 0
vn 1 -5.90018e-17 3.61282e-33
v -0.966695 0.206231 0
vn -1 5.90018e-17 -3.61282e-33
v -0.966695 -0.210502 1.1862e-16
vn -1 5.6928e-17 -3.48584e-33
v -0.966695 0.206231 0.115035
vn -1 5.6928e-17 -3.48584e-33
v -0.966695 -0.210502 1.1862e-16
vn 0 -6.17725e-17 -1
v -1.01171 0.206231 0
vn 0 -6.17725e-17 -1
v -0.966695 0.206231 0
vn 0 -6.15115e-17 -1
v -0.966695 0.206231 0
vn 0 6.15115e-17 1
v -1.01171 0.206231 0
vn 0 6.17725e-17 1
v -0.966695 -0.210502 1.1862e-16
vn 0 6.17725e-17 1
v -1.01171 -0.210502 1.1862e-16
vn -1 5.90018e-17 -3.61282e-33
v -1.01171 -0.210502 1.1862e-16
vn 1 -5.90018e-17 3.61282e-33
v -0.966695 -0.210502 0.115035
vn 0 5.9158e-17 1
v -0.966695 -0.210502 0.115035
vn 0 -5.9158e-17 -1
v -0.966695 -0.210502 0.115035
vn 1 -5.90018e-17 3.61282e-33
v -0.966695 -0.210502 0.115035
vn -1 5.90018e-17 -3.61282e-33
v -1.01171 -0.210502 1.1862e-16
vn 0 -6.15115e-17 -1
v -1.01171 -0.210502 1.1862e-16
vn 0 6.15115e-17 1
v -0.966695 -0.210502 1.1862e-16
vn -6.09443e-17 -1 6.09443e-17
v -1.01171 -0.210502 0.115035
vn -6.09443e-17 -1 6.09443e-17
v -1.01171 -0.210502 1.1862e-16
vn -6.1088e-17 -1 6.1088e-17
v -1.01171 -0.210502 1.1862e-16
vn 6.1088e-17 1 -6.1088e-17
v -1.01171 -0.210502 0.115035
vn 6.09443e-17 1 -6.09443e-17
v -0.966695 -0.210502 1.1862e-16
vn 6.09443e-17 1 -6.09443e-17
v -0.966695 -0.210502 0.115035
vn -6.1088e-17 -1 6.1088e-17
v -0.966695 -0.210502 0.115035
vn 6.1088e-17 1 -6.1088e-17
v 0.989859 0.206563 1.02531e-05
vn 1 -6.10879e-17 3.74056e-33
v 0.989859 0.193538 0.115042
vn 1 -6.10879e-17 3.74056e-33
v 0.989859 0.193538 1.02531e-05
vn 1 -6.116e-17 3.74498e-33
v 0.989859 0.206563 0.115042
vn 1 -6.116e-17 3.74498e-33
v 0.989859 0.193538 1.02531e-05
vn -1 6.116e-17 -3.74498e-33
v 0.989859 0.193538 0.115042
vn -1 6.10879e-17 -3.74056e-33
v 0.989859 0.206563 1.02531e-05
vn -1 6.10879e-17 -3.74056e-33
v 0.989859 0.206563 0.115042
vn -1 6.116e-17 -3.74498e-33
v -1.01171 0.193538 0.115042
vn -5.06007e-17 -1 5.06007e-17
v 0.989859 0.193538 1.02531e-05
vn -5.06007e-17 -1 5.06007e-17
v 0.989859 0.193538 0.115042
vn -5.54111e-17 -1 5.54111e-17
v 0.989859 0.193538 0.115042
vn 5.54111e-17 1 -5.54111e-17
v 0.989859 0.193538 1.02531e-05
vn 5.06007e-17 1 -5.06007e-17
v -1.01171 0.193538 0.115042
vn 5.06007e-17 1 -5.06007e-17
v -1.01171 0.193538 1.02531e-05
vn 0 -5.57941e-17 -1
v 0.989859 0.206563 1.02531e-05
vn 0 -5.57941e-17 -1
v 0.989859 0.193538 1.02531e-05
vn 0 -5.83868e-17 -1
v 0.989859 0.193538 1.02531e-05
vn 0 5.83868e-17 1
v 0.989859 0.206563 1.02531e-05
vn 0 5.57941e-17 1
v -1.01171 0.193538 1.02531e-05
vn 0 5.57941e-17 1
v 0.989859 0.206563 1.02531e-05
vn 5.06007e-17 1 -5.06007e-17
v -1.01171 0.206563 0.115042
vn 5.06007e-17 1 -5.06007e-17
v 0.989859 0.206563 0.115042
vn 5.54111e-17 1 -5.54111e-17
v 0.989859 0.206563 0.115042
vn -5.54111e-17 -1 5.54111e-17
v -1.01171 0.206563 0.115042
vn -5.06007e-17 -1 5.06007e-17
v 0.989859 0.206563 1.02531e-05
vn -5.06007e-17 -1 5.06007e-17
v -1.01171 0.206563 0.115042
vn 0 5.57941e-17 1
v 0.989859 0.193538 0.115042
vn 0 5.57941e-17 1
v 0.989859 0.206563 0.115042
vn 0 5.83868e-17 1
v 0.989859 0.206563 0.115042
vn 0 -5.83868e-17 -1
v 0.989859 0.193538 0.115042
vn 0 -5.57941e-17 -1
v -1.01171 0.206563 0.115042
vn 0 -5.57941e-17 -1
v -1.01171 0.193538 1.02531e-05
vn -5.54111e-17 -1 5.54111e-17
v -1.01171 0.193538 1.02531e-05
vn 5.54111e-17 1 -5.54111e-17
v -1.01171 0.193538 0.115042
vn 0 5.83868e-17 1
v -1.01171 0.193538 0.115042
vn 0 -5.83868e-17 -1
v -1.01171 0.206563 1.02531e-05
vn 0 -5.83868e-17 -1
v -1.01171 0.206563 1.02531e-05
vn 0 5.83868e-17 1
v -1.01171 0.206563 1.02531e-05
vn 5.54111e-17 1 -5.54111e-17
v -1.01171 0.206563 1.02531e-05
vn -5.54111e-17 -1 5.54111e-17
v -1.01171 0.193538 0.115042
vn -1 6.10879e-17 -3.74056e-33
v -1.01171 0.206563 1.02531e-05
vn -1 6.10879e-17 -3.74056e-33
v -1.01171 0.193538 1.02531e-05
vn -1 6.116e-17 -3.74498e-33
v -1.01171 0.193538 1.02531e-05
vn 1 -6.116e-17 3.74498e-33
v -1.01171 0.206563 1.02531e-05
vn 1 -6.10879e-17 3.74056e-33
v -1.01171 0.193538 0.115042
vn 1 -6.10879e-17 3.74056e-33
v -1.01171 0.206563 0.115042
vn -1 6.116e-17 -3.74498e-33
v -1.01171 0.206563 0.115042
vn 1 -6.116e-17 3.74498e-33
v 0.944843 -0.197479 0.115035
vn -1 5.69906e-17 -3.48967e-33
v 0.944843 0.206231 0
vn -1 5.70534e-17 -3.49351e-33
v 0.944843 -0.197479 1.1862e-16
vn -1 5.90354e-17 -3.61488e-33
v 0.944843 0.206231 0.115035
vn -1 5.9069e-17 -3.61694e-33
v 0.944843 -0.197479 1.1862e-16
vn 1 -5.90354e-17 3.61488e-33
v 0.944843 0.206231 0
vn 1 -5.70534e-17 3.49351e-33
v 0.944843 -0.197479 0.115035
vn 1 -5.69906e-17 3.48967e-33
v 0.944843 0.206231 0.115035
vn 1 -5.9069e-17 3.61694e-33
v 0.944843 0.206231 0
vn -1.13957e-18 -6.18359e-17 -1
v 0.989859 -0.210502 1.1862e-16
vn -1.13957e-18 -6.18359e-17 -1
v 0.944843 -0.197479 1.1862e-16
vn -1.17791e-18 -6.15605e-17 -1
v 0.944843 -0.197479 1.1862e-16
vn 1.17791e-18 6.15605e-17 1
v 0.989859 -0.210502 1.1862e-16
vn 1.13957e-18 6.18359e-17 1
v 0.944843 0.206231 0
vn 1.13957e-18 6.18359e-17 1
v 0.944843 -0.203991 1.1862e-16
vn -1 6.116e-17 -3.74498e-33
v 0.944843 -0.203991 1.1862e-16
vn 1 -6.116e-17 3.74498e-33
v 0.944843 -0.197479 0.115035
vn 0 5.72631e-17 1
v 0.989859 0.206231 0.115035
vn 0 5.72778e-17 1
v 0.944843 0.206231 0.115035
vn 0 5.92204e-17 1
v 0.944843 0.206231 0.115035
vn 0 -5.92204e-17 -1
v 0.989859 0.206231 0.115035
vn 0 -5.72778e-17 -1
v 0.944843 -0.197479 0.115035
vn 0 -5.72631e-17 -1
v 0.989859 0.206231 0.115035
vn 6.09443e-17 1 -6.09443e-17
v 0.944843 0.206231 0
vn 6.09443e-17 1 -6.09443e-17
v 0.944843 0.206231 0.115035
vn 6.1088e-17 1 -6.1088e-17
v 0.944843 0.206231 0.115035
vn -6.1088e-17 -1 6.1088e-17
v 0.944843 0.206231 0
vn -6.09443e-17 -1 6.09443e-17
v 0.989859 0.206231 0.115035
vn -6.09443e-17 -1 6.09443e-17
v 0.989859 0.206231 0
vn 0 -6.15116e-17 -1
v 0.989859 0.206231 0
vn 0 6.15116e-17 1
v 0.967359 -0.203991 1.1862e-16
vn 0 -6.12155e-17 -1
v 0.967359 -0.203991 1.1862e-16
vn 0 6.12155e-17 1
v 0.944843 -0.203991 0.115035
vn -1 6.11961e-17 -3.74719e-33
v 0.944843 -0.203991 0.115035
vn 1 -6.11961e-17 3.74719e-33
v 0.944843 -0.203991 1.1862e-16
vn 0 -6.12155e-17 -1
v 0.944843 -0.203991 1.1862e-16
vn 0 6.12155e-17 1
v 0.989859 -0.210502 0.115035
vn 0 5.91578e-17 1
v 0.989859 -0.210502 0.115035
vn 0 -5.91578e-17 -1
v 0.989859 0.206231 0
vn 6.1088e-17 1 -6.1088e-17
v 0.989859 0.206231 0
vn -6.1088e-17 -1 6.1088e-17
v 0.989859 0.206231 0.115035
vn 1 -5.6928e-17 3.48584e-33
v 0.989859 -0.210502 1.1862e-16
vn 1 -5.6928e-17 3.48584e-33
v 0.989859 0.206231 0
vn 1 -5.90018e-17 3.61282e-33
v 0.989859 0.206231 0
vn -1 5.90018e-17 -3.61282e-33
v 0.989859 -0.210502 1.1862e-16
vn -1 5.6928e-17 -3.48584e-33
v 0.989859 0.206231 0.115035
vn -1 5.6928e-17 -3.48584e-33
v 0.989859 -0.210502 1.1862e-16
vn -0.70652 -0.707693 4.31895e-17
v 0.967359 -0.203991 0.115035
vn -0.70652 -0.707693 4.31895e-17
v 0.967359 -0.203991 1.1862e-16
vn -0.706814 -0.707399 4.32435e-17
v 0.967359 -0.203991 1.1862e-16
vn 0.706814 0.707399 -4.32435e-17
v 0.967359 -0.203991 0.115035
vn 0.70652 0.707693 -4.31895e-17
v 0.989859 -0.210502 1.1862e-16
vn 0.70652 0.707693 -4.31895e-17
v 0.967359 -0.203991 1.1862e-16
vn -6.10879e-17 -1 6.10879e-17
v 0.944843 -0.203991 0.115035
vn -6.10879e-17 -1 6.10879e-17
v 0.944843 -0.203991 1.1862e-16
vn -6.116e-17 -1 6.116e-17
v 0.944843 -0.203991 1.1862e-16
vn 6.116e-17 1 -6.116e-17
v 0.944843 -0.203991 0.115035
vn 6.10879e-17 1 -6.10879e-17
v 0.967359 -0.203991 1.1862e-16
vn 6.10879e-17 1 -6.10879e-17
v 0.967359 -0.203991 0.115035
vn 0 6.12155e-17 1
v 0.944843 -0.203991 0.115035
vn 0 6.12155e-17 1
v 0.944843 -0.203991 0.115035
vn 0 -6.12155e-17 -1
v 0.967359 -0.203991 0.115035
vn 0 -6.12155e-17 -1
v 0.989859 -0.210502 0.115035
vn 1 -5.90018e-17 3.61282e-33
v 0.989859 -0.210502 0.115035
vn -1 5.90018e-17 -3.61282e-33
v 0.989859 -0.210502 0.115035
vn -0.706814 -0.707399 4.32435e-17
v 0.989859 -0.210502 0.115035
vn 0.706814 0.707399 -4.32435e-17
v 0.967359 -0.203991 0.115035
vn -6.116e-17 -1 6.116e-17
v 0.967359 -0.203991 0.115035
vn 6.116e-17 1 -6.116e-17
v 0.967109 -0.197834 0.0116348
vn 0.999999 0.00130692 -7.99236e-20
v 0.967138 -0.204367 7.52104e-05
vn 0.999999 0.00130625 -7.99662e-20
v 0.967109 -0.197834 7.52104e-05
vn 0.999999 0.00130617 -7.99709e-20
v 0.967138 -0.204367 0.0116348
vn 0.999999 0.00130751 -7.98858e-20
v 0.967109 -0.197834 7.52104e-05
vn -0.999999 -0.00130617 7.99709e-20
v 0.967138 -0.204367 7.52104e-05
vn -0.999999 -0.00130625 7.99662e-20
v 0.967109 -0.197834 0.0116348
vn -0.999999 -0.00130692 7.99236e-20
v 0.967138 -0.204367 0.0116348
vn -0.999999 -0.00130751 7.98858e-20
v 0.967138 -0.204367 7.52104e-05
vn 0 -5.58373e-17 -1
v 0.944843 -0.197834 7.52104e-05
vn 0 -5.97876e-17 -1
v 0.967109 -0.197834 7.52104e-05
vn 0 -6.12157e-17 -1
v 0.967109 -0.197834 7.52104e-05
vn 0 6.12157e-17 1
v 0.944843 -0.197834 7.52104e-05
vn 0 5.97876e-17 1
v 0.967138 -0.204367 7.52104e-05
vn 0 5.58373e-17 1
v 0.944843 -0.197834 7.52104e-05
vn 5.07889e-17 1 -5.07889e-17
v 0.967109 -0.197834 0.0116348
vn 6.11536e-17 1 -6.11536e-17
v 0.967109 -0.197834 7.52104e-05
vn 6.12251e-17 1 -6.12251e-17
v 0.967109 -0.197834 7.52104e-05
vn -6.12251e-17 -1 6.12251e-17
v 0.967109 -0.197834 0.0116348
vn -6.11536e-17 -1 6.11536e-17
v 0.944843 -0.197834 7.52104e-05
vn -5.07889e-17 -1 5.07889e-17
v 0.967109 -0.197834 0.11511
vn 0.999999 0.00130824 -7.99401e-20
v 0.967109 -0.197834 0.11511
vn -0.999999 -0.00130824 7.99401e-20
v 0.989388 -0.210858 0.11511
vn 0.709613 0.704592 -4.30011e-17
v 0.967138 -0.204367 7.52104e-05
vn 0.709875 0.704328 -4.3049e-17
v 0.967138 -0.204367 0.0116348
vn 0.709904 0.704298 -4.30544e-17
v 0.967138 -0.204367 0.0116348
vn -0.709904 -0.704298 4.30544e-17
v 0.967138 -0.204367 7.52104e-05
vn -0.709875 -0.704328 4.3049e-17
v 0.989388 -0.210858 0.11511
vn -0.709613 -0.704592 4.30011e-17
v -1.01171 -0.197834 7.52104e-05
vn 0 -5.71161e-17 -1
v -1.01171 -0.197834 7.52104e-05
vn 0 5.71161e-17 1
v 0.944843 -0.197834 0.0116348
vn 6.10967e-17 1 -6.10967e-17
v 0.944843 -0.197834 0.0116348
vn -6.10967e-17 -1 6.10967e-17
v 0.967138 -0.204367 0.11511
vn 0.999999 0.00130758 -7.99827e-20
v 0.967138 -0.204367 0.11511
vn -0.999999 -0.00130758 7.99827e-20
v 0.967109 -0.197834 0.11511
vn 6.11038e-17 1 -6.11038e-17
v 0.967109 -0.197834 0.11511
vn -6.11038e-17 -1 6.11038e-17
v 0.989388 -0.210858 7.52104e-05
vn 0.709903 0.704299 -4.30545e-17
v 0.989388 -0.210858 7.52104e-05
vn -0.709903 -0.704299 4.30545e-17
v 0.967138 -0.204367 0.11511
vn 0.709933 0.70427 -4.30599e-17
v 0.967138 -0.204367 0.11511
vn -0.709933 -0.70427 4.30599e-17
v -1.01171 -0.210858 7.52104e-05
vn 0 -5.70954e-17 -1
v -1.01171 -0.210858 7.52104e-05
vn 0 5.70954e-17 1
v -1.01171 -0.197834 0.11511
vn 5.07988e-17 1 -5.07988e-17
v -1.01171 -0.197834 7.52104e-05
vn 5.55297e-17 1 -5.55297e-17
v -1.01171 -0.197834 7.52104e-05
vn -5.55297e-17 -1 5.55297e-17
v -1.01171 -0.197834 0.11511
vn -5.07988e-17 -1 5.07988e-17
v 0.944843 -0.197834 0.11511
vn 5.54768e-17 1 -5.54768e-17
v 0.944843 -0.197834 0.11511
vn -5.54768e-17 -1 5.54768e-17
v 0.944843 -0.197834 0.11511
vn 0 5.97876e-17 1
v 0.967138 -0.204367 0.11511
vn 0 5.58373e-17 1
v 0.967109 -0.197834 0.11511
vn 0 6.12157e-17 1
v 0.967109 -0.197834 0.11511
vn 0 -6.12157e-17 -1
v 0.967138 -0.204367 0.11511
vn 0 -5.58373e-17 -1
v 0.944843 -0.197834 0.11511
vn 0 -5.97876e-17 -1
v -1.01171 -0.210858 0.11511
vn -5.06025e-17 -1 5.06025e-17
v 0.989388 -0.210858 7.52104e-05
vn -5.06025e-17 -1 5.06025e-17
v 0.989388 -0.210858 0.11511
vn -5.54122e-17 -1 5.54122e-17
v 0.989388 -0.210858 0.11511
vn 5.54122e-17 1 -5.54122e-17
v 0.989388 -0.210858 7.52104e-05
vn 5.06025e-17 1 -5.06025e-17
v -1.01171 -0.210858 0.11511
vn 5.06025e-17 1 -5.06025e-17
v 0.989388 -0.210858 7.52104e-05
vn 0 -5.97808e-17 -1
v 0.989388 -0.210858 7.52104e-05
vn 0 5.97808e-17 1
v -1.01171 -0.210858 0.11511
vn 0 5.70954e-17 1
v 0.989388 -0.210858 0.11511
vn 0 5.97808e-17 1
v 0.989388 -0.210858 0.11511
vn 0 -5.97808e-17 -1
v -1.01171 -0.210858 0.11511
vn 0 -5.70954e-17 -1
v -1.01171 -0.210858 0.11511
vn -1 6.1088e-17 -3.74056e-33
v -1.01171 -0.197834 7.52104e-05
vn -1 6.1088e-17 -3.74056e-33
v -1.01171 -0.210858 7.52104e-05
vn -1 6.116e-17 -3.74498e-33
v -1.01171 -0.210858 7.52104e-05
vn 1 -6.116e-17 3.74498e-33
v -1.01171 -0.197834 7.52104e-05
vn 1 -6.1088e-17 3.74056e-33
v -1.01171 -0.210858 0.11511
vn 1 -6.1088e-17 3.74056e-33
v -1.01171 -0.197834 0.11511
vn -1 6.116e-17 -3.74498e-33
v -1.01171 -0.197834 0.11511
vn 1 -6.116e-17 3.74498e-33
v -1.01171 -0.197834 0.11511
vn 0 5.71161e-17 1
v -1.01171 -0.197834 0.11511
vn 0 -5.71161e-17 -1
v -1.01171 -0.210858 7.52104e-05
vn -5.54122e-17 -1 5.54122e-17
v -1.01171 -0.210858 7.52104e-05
vn 5.54122e-17 1 -5.54122e-17
v -1.07886 0.249612 0.384992
vn 6.02837e-17 1 -6.02837e-17
v -1.1328 0.249612 0.0653266
vn 6.02837e-17 1 -6.02837e-17
v -1.1328 0.249612 0.384992
vn 6.07543e-17 1 -6.07543e-17
v -1.07886 0.249612 0.0653266
vn 6.07543e-17 1 -6.07543e-17
v -1.1328 0.249612 0.384992
vn -6.07543e-17 -1 6.07543e-17
v -1.1328 0.249612 0.0653266
vn -6.02837e-17 -1 6.02837e-17
v -1.07886 0.249612 0.384992
vn -6.02837e-17 -1 6.02837e-17
v -1.07886 0.249612 0.0653266
vn -6.07543e-17 -1 6.07543e-17
v -1.1328 0.249612 0.0653266
vn -1 4.89169e-17 -2.9953e-33
v -1.1328 -0.249742 0.384992
vn -1 4.89169e-17 -2.9953e-33
v -1.1328 0.249612 0.384992
vn -1 5.43861e-17 -3.33019e-33
v -1.1328 0.249612 0.384992
vn 1 -5.43861e-17 3.33019e-33
v -1.1328 -0.249742 0.384992
vn 1 -4.89169e-17 2.9953e-33
v -1.1328 0.249612 0.0653266
vn 1 -4.89169e-17 2.9953e-33
v -1.1328 -0.249742 0.384992
vn 0 5.56299e-17 1
v -1.07886 0.249612 0.384992
vn 0 5.56299e-17 1
v -1.1328 0.249612 0.384992
vn 0 5.82968e-17 1
v -1.1328 0.249612 0.384992
vn 0 -5.82968e-17 -1
v -1.07886 0.249612 0.384992
vn 0 -5.56299e-17 -1
v -1.1328 -0.249742 0.384992
vn 0 -5.56299e-17 -1
v -1.07886 0.249612 0.384992
vn 1 -4.89169e-17 2.9953e-33
v -1.07886 -0.249742 0.0653266
vn 1 -4.89169e-17 2.9953e-33
v -1.07886 0.249612 0.0653266
vn 1 -5.43861e-17 3.33019e-33
v -1.07886 0.249612 0.0653266
vn -1 5.43861e-17 -3.33019e-33
v -1.07886 -0.249742 0.0653266
vn -1 4.89169e-17 -2.9953e-33
v -1.07886 0.249612 0.384992
vn -1 4.89169e-17 -2.9953e-33
v -1.07886 -0.249742 0.0653266
vn 0 -5.56299e-17 -1
v -1.1328 0.249612 0.0653266
vn 0 -5.56299e-17 -1
v -1.07886 0.249612 0.0653266
vn 0 -5.82968e-17 -1
v -1.07886 0.249612 0.0653266
vn 0 5.82968e-17 1
v -1.1328 0.249612 0.0653266
vn 0 5.56299e-17 1
v -1.07886 -0.249742 0.0653266
vn 0 5.56299e-17 1
v -1.1328 -0.249742 0.0653266
vn -1 5.43861e-17 -3.33019e-33
v -1.1328 -0.249742 0.0653266
vn 1 -5.43861e-17 3.33019e-33
v -1.07886 -0.249742 0.384992
vn 0 5.82968e-17 1
v -1.07886 -0.249742 0.384992
vn 0 -5.82968e-17 -1
v -1.07886 -0.249742 0.384992
vn 1 -5.43861e-17 3.33019e-33
v -1.07886 -0.249742 0.384992
vn -1 5.43861e-17 -3.33019e-33
v -1.1328 -0.249742 0.0653266
vn 0 -5.82968e-17 -1
v -1.1328 -0.249742 0.0653266
vn 0 5.82968e-17 1
v -1.07886 -0.249742 0.0653266
vn -6.02837e-17 -1 6.02837e-17
v -1.1328 -0.249742 0.384992
vn -6.02837e-17 -1 6.02837e-17
v -1.1328 -0.249742 0.0653266
vn -6.07543e-17 -1 6.07543e-17
v -1.1328 -0.249742 0.0653266
vn 6.07543e-17 1 -6.07543e-17
v -1.1328 -0.249742 0.384992
vn 6.02837e-17 1 -6.02837e-17
v -1.07886 -0.249742 0.0653266
vn 6.02837e-17 1 -6.02837e-17
v -1.07886 -0.249742 0.384992
vn -6.07543e-17 -1 6.07543e-17
v -1.07886 -0.249742 0.384992
vn 6.07543e-17 1 -6.07543e-17
v 1.07943 -0.24194 0.0658428
vn 0 -6.12082e-17 -1
v 1.07943 -0.234137 0.0658428
vn 0 -5.91428e-17 -1
v 1.1064 -0.24194 0.0658428
vn 0 -6.12082e-17 -1
v 1.1064 -0.24194 0.0658428
vn 0 6.12082e-17 1
v 1.07943 -0.234137 0.0658428
vn 0 5.91428e-17 1
v 1.07943 -0.24194 0.0658428
vn 0 6.12082e-17 1
v 1.07943 -0.24194 0.0978104
vn -1 6.08583e-17 -3.7265e-33
v 1.07943 -0.234137 0.0658428
vn -1 6.08702e-17 -3.72723e-33
v 1.07943 -0.24194 0.0658428
vn -1 6.12203e-17 -3.74866e-33
v 1.07943 -0.24194 0.0658428
vn 1 -6.12203e-17 3.74866e-33
v 1.07943 -0.234137 0.0658428
vn 1 -6.08702e-17 3.72723e-33
v 1.07943 -0.24194 0.0978104
vn 1 -6.08583e-17 3.7265e-33
v 1.13337 -0.249742 0.0658428
vn 0 -5.83211e-17 -1
v 1.13337 -0.249742 0.0658428
vn 0 5.83211e-17 1
v 1.1064 -0.24194 0.0658428
vn -6.11842e-17 -1 6.11842e-17
v 1.07943 -0.24194 0.0978104
vn -6.11842e-17 -1 6.11842e-17
v 1.07943 -0.24194 0.0658428
vn -6.12082e-17 -1 6.12082e-17
v 1.07943 -0.24194 0.0658428
vn 6.12082e-17 1 -6.12082e-17
v 1.07943 -0.24194 0.0978104
vn 6.11842e-17 1 -6.11842e-17
v 1.1064 -0.24194 0.0658428
vn 6.11842e-17 1 -6.11842e-17
v 1.07943 -0.00595799 0.0658428
vn -1 6.04533e-17 -3.7017e-33
v 1.07943 -0.00595799 0.0658428
vn 1 -6.04533e-17 3.7017e-33
v 1.10602 -0.00786734 0.0658428
vn 0 -5.91197e-17 -1
v 1.10602 -0.00786734 0.0658428
vn 0 5.91197e-17 1
v 1.13337 -0.249742 0.0658428
vn -0.705153 -0.709055 4.29393e-17
v 1.1064 -0.24194 0.0978104
vn -0.706861 -0.707352 4.32527e-17
v 1.1064 -0.24194 0.0658428
vn -0.707008 -0.707205 4.32797e-17
v 1.1064 -0.24194 0.0658428
vn 0.707008 0.707205 -4.32797e-17
v 1.1064 -0.24194 0.0978104
vn 0.706861 0.707352 -4.32527e-17
v 1.13337 -0.249742 0.0658428
vn 0.705153 0.709055 -4.29393e-17
v 1.1064 -0.24194 0.0978104
vn -6.12082e-17 -1 6.12082e-17
v 1.1064 -0.24194 0.0978104
vn 6.12082e-17 1 -6.12082e-17
v 1.07943 -0.234137 0.0978104
vn -1 6.06258e-17 -3.71226e-33
v 1.07943 -0.234137 0.0978104
vn 1 -6.06258e-17 3.71226e-33
v 1.07943 -0.00595799 0.0658428
vn 0 -6.05454e-17 -1
v 1.07943 -0.00595799 0.0658428
vn 0 6.05454e-17 1
v 1.10602 0.0077371 0.0658428
vn 0 -5.76122e-17 -1
v 1.10602 0.0077371 0.0658428
vn 0 5.76122e-17 1
v 1.1064 -0.24194 0.113794
vn -0.706176 -0.708037 4.31268e-17
v 1.1064 -0.24194 0.113794
vn 0.706176 0.708037 -4.31268e-17
v 1.07943 -0.24194 0.0978104
vn 0 -6.12082e-17 -1
v 1.07943 -0.234137 0.0978104
vn 0 -6.12082e-17 -1
v 1.1064 -0.24194 0.0978104
vn 0 -6.12082e-17 -1
v 1.1064 -0.24194 0.0978104
vn 0 6.12082e-17 1
v 1.07943 -0.234137 0.0978104
vn 0 6.12082e-17 1
v 1.07943 -0.24194 0.0978104
vn 0 6.12082e-17 1
v 1.07943 -0.00636189 0.104447
vn -1 6.02948e-17 -3.69199e-33
v 1.07943 -0.00636189 0.104447
vn 1 -6.02948e-17 3.69199e-33
v 1.07943 -0.00636189 0.104447
vn 0.240603 0.969734 0.0415461
v 1.10602 -0.00786734 0.0658428
vn 0.240603 0.969734 0.0415461
v 1.07943 -0.00595799 0.0658428
vn 0.240658 0.96972 0.0415455
v 1.07943 -0.00595799 0.0658428
vn -0.240658 -0.96972 -0.0415455
v 1.10602 -0.00786734 0.0658428
vn -0.240603 -0.969734 -0.0415461
v 1.07943 -0.00636189 0.104447
vn -0.240603 -0.969734 -0.0415461
v 1.13337 0.249612 0.0658428
vn 0 -5.83211e-17 -1
v 1.13337 0.249612 0.0658428
vn 0 5.83211e-17 1
v 1.10602 -0.00827124 0.104447
vn -1 6.11501e-17 -3.74437e-33
v 1.10602 0.0077371 0.0658428
vn -1 6.11742e-17 -3.74584e-33
v 1.10602 -0.00786734 0.0658428
vn -1 6.12032e-17 -3.74762e-33
v 1.10602 -0.00786734 0.0658428
vn 1 -6.12032e-17 3.74762e-33
v 1.10602 0.0077371 0.0658428
vn 1 -6.11742e-17 3.74584e-33
v 1.10602 -0.00827124 0.104447
vn 1 -6.11501e-17 3.74437e-33
v 1.1064 -0.24194 0.385511
vn -0.705299 -0.70891 4.2966e-17
v 1.1064 -0.24194 0.385511
vn 0.705299 0.70891 -4.2966e-17
v 1.07943 -0.234137 0.113794
vn -0.707008 -0.707205 4.32797e-17
v 1.07943 -0.234137 0.113794
vn 0.707008 0.707205 -4.32797e-17
v 1.07943 -0.234137 0.0978104
vn -0.707058 -0.707156 4.32888e-17
v 1.07943 -0.234137 0.0978104
vn 0.707058 0.707156 -4.32888e-17
v 1.07943 -0.234137 0.113794
vn -1 5.77247e-17 -3.53462e-33
v 1.07943 -0.234137 0.113794
vn 1 -5.77247e-17 3.53462e-33
v 1.10602 -0.00827124 0.104447
vn 0.240658 0.96972 0.0415455
v 1.10602 -0.00827124 0.104447
vn -0.240658 -0.96972 -0.0415455
v 1.07943 0.249612 0.0658428
vn 0 -5.90808e-17 -1
v 1.07943 0.249612 0.0658428
vn 0 5.90808e-17 1
v 1.13337 0.249612 0.385511
vn 1 -4.89168e-17 2.99529e-33
v 1.13337 -0.249742 0.0658428
vn 1 -4.89168e-17 2.99529e-33
v 1.13337 0.249612 0.0658428
vn 1 -5.43861e-17 3.33019e-33
v 1.13337 0.249612 0.0658428
vn -1 5.43861e-17 -3.33019e-33
v 1.13337 -0.249742 0.0658428
vn -1 4.89168e-17 -2.99529e-33
v 1.13337 0.249612 0.385511
vn -1 4.89168e-17 -2.99529e-33
v 1.10602 0.0073332 0.104447
vn -1 6.11551e-17 -3.74468e-33
v 1.10602 0.0073332 0.104447
vn 1 -6.11551e-17 3.74468e-33
v 1.13337 -0.249742 0.385511
vn -0.706127 -0.708085 4.31178e-17
v 1.13337 -0.249742 0.385511
vn 0.706127 0.708085 -4.31178e-17
v 1.07943 -0.24194 0.385511
vn -6.08255e-17 -1 6.08255e-17
v 1.1064 -0.24194 0.113794
vn -6.08255e-17 -1 6.08255e-17
v 1.1064 -0.24194 0.385511
vn -6.10282e-17 -1 6.10282e-17
v 1.1064 -0.24194 0.385511
vn 6.10282e-17 1 -6.10282e-17
v 1.1064 -0.24194 0.113794
vn 6.08255e-17 1 -6.08255e-17
v 1.07943 -0.24194 0.385511
vn 6.08255e-17 1 -6.08255e-17
v 1.07943 -0.24194 0.113794
vn 0 -6.12082e-17 -1
v 1.07943 -0.234137 0.113794
vn 0 -6.12082e-17 -1
v 1.1064 -0.24194 0.113794
vn 0 -6.12082e-17 -1
v 1.1064 -0.24194 0.113794
vn 0 6.12082e-17 1
v 1.07943 -0.234137 0.113794
vn 0 6.12082e-17 1
v 1.07943 -0.24194 0.113794
vn 0 6.12082e-17 1
v 1.07943 -0.00636189 0.136414
vn -1 5.79377e-17 -3.54766e-33
v 1.07943 -0.00636189 0.136414
vn 1 -5.79377e-17 3.54766e-33
v 1.07943 -0.00636189 0.136414
vn 0.240831 0.970567 -5.93826e-17
v 1.10602 -0.00827124 0.104447
vn 0.240831 0.970567 -5.93826e-17
v 1.07943 -0.00636189 0.104447
vn 0.240877 0.970556 -5.94057e-17
v 1.07943 -0.00636189 0.104447
vn -0.240877 -0.970556 5.94057e-17
v 1.10602 -0.00827124 0.104447
vn -0.240831 -0.970567 5.93826e-17
v 1.07943 -0.00636189 0.136414
vn -0.240831 -0.970567 5.93826e-17
v 1.07943 0.0077371 0.0658428
vn 0 -6.0499e-17 -1
v 1.07943 0.0077371 0.0658428
vn 0 6.0499e-17 1
v 1.07943 0.249612 0.0658428
vn 6.02837e-17 1 -6.02837e-17
v 1.13337 0.249612 0.385511
vn 6.02837e-17 1 -6.02837e-17
v 1.13337 0.249612 0.0658428
vn 6.07543e-17 1 -6.07543e-17
v 1.13337 0.249612 0.0658428
vn -6.07543e-17 -1 6.07543e-17
v 1.13337 0.249612 0.385511
vn -6.02837e-17 -1 6.02837e-17
v 1.07943 0.249612 0.0658428
vn -6.02837e-17 -1 6.02837e-17
v 1.13337 -0.249742 0.385511
vn 1 -5.43861e-17 3.33019e-33
v 1.13337 -0.249742 0.385511
vn -1 5.43861e-17 -3.33019e-33
v 1.10602 -0.00827124 0.136414
vn -1 6.11842e-17 -3.74645e-33
v 1.10602 -0.00827124 0.136414
vn 1 -6.11842e-17 3.74645e-33
v 1.07943 0.00542805 0.104447
vn 0.240028 -0.969876 -0.0415524
v 1.10602 0.0077371 0.0658428
vn 0.240028 -0.969876 -0.0415524
v 1.10602 0.0073332 0.104447
vn 0.240082 -0.969863 -0.0415518
v 1.10602 0.0073332 0.104447
vn -0.240082 0.969863 0.0415518
v 1.10602 0.0077371 0.0658428
vn -0.240028 0.969876 0.0415524
v 1.07943 0.00542805 0.104447
vn -0.240028 0.969876 0.0415524
v 1.13337 -0.249742 0.385511
vn 0 5.82968e-17 1
v 1.07943 -0.234137 0.385511
vn 0 5.56896e-17 1
v 1.1064 -0.24194 0.385511
vn 0 6.12082e-17 1
v 1.1064 -0.24194 0.385511
vn 0 -6.12082e-17 -1
v 1.07943 -0.234137 0.385511
vn 0 -5.56896e-17 -1
v 1.13337 -0.249742 0.385511
vn 0 -5.82968e-17 -1
v 1.07943 -0.24194 0.113794
vn -6.10282e-17 -1 6.10282e-17
v 1.07943 -0.24194 0.113794
vn 6.10282e-17 1 -6.10282e-17
v 1.07943 -0.24194 0.385511
vn 0 6.12082e-17 1
v 1.07943 -0.24194 0.385511
vn 0 -6.12082e-17 -1
v 1.07943 -0.24194 0.385511
vn -1 6.10282e-17 -3.7369e-33
v 1.07943 -0.24194 0.113794
vn -1 6.11301e-17 -3.74314e-33
v 1.07943 -0.24194 0.113794
vn 1 -6.11301e-17 3.74314e-33
v 1.07943 -0.24194 0.385511
vn 1 -6.10282e-17 3.7369e-33
v 1.07943 -0.234137 0.385511
vn -1 5.33466e-17 -3.26654e-33
v 1.07943 -0.234137 0.385511
vn 1 -5.33466e-17 3.26654e-33
v 1.10602 -0.00827124 0.136414
vn 0.240877 0.970556 -5.94057e-17
v 1.10602 -0.00827124 0.136414
vn -0.240877 -0.970556 5.94057e-17
v 1.07943 0.00583192 0.0658428
vn 0 -6.12265e-17 -1
v 1.07943 0.00583192 0.0658428
vn 0 6.12265e-17 1
v 1.07943 0.0077371 0.0658428
vn -1 6.07812e-17 -3.72178e-33
v 1.07943 0.00542805 0.104447
vn -1 5.69532e-17 -3.48738e-33
v 1.07943 0.249612 0.0658428
vn -1 5.72843e-17 -3.50765e-33
v 1.07943 0.249612 0.0658428
vn 1 -5.72843e-17 3.50765e-33
v 1.07943 0.00542805 0.104447
vn 1 -5.69532e-17 3.48738e-33
v 1.07943 0.0077371 0.0658428
vn 1 -6.07812e-17 3.72178e-33
v 1.07943 0.249612 0.385511
vn 6.07543e-17 1 -6.07543e-17
v 1.07943 0.249612 0.385511
vn -6.07543e-17 -1 6.07543e-17
v 1.13337 0.249612 0.385511
vn 0 5.57096e-17 1
v 1.13337 0.249612 0.385511
vn 0 -5.57096e-17 -1
v 1.10602 0.0073332 0.136414
vn -1 6.12082e-17 -3.74793e-33
v 1.10602 0.0073332 0.136414
vn 1 -6.12082e-17 3.74793e-33
v 1.07943 0.00583192 0.0658428
vn 0.240082 -0.969863 -0.0415518
v 1.07943 0.00583192 0.0658428
vn -0.240082 0.969863 0.0415518
v 1.10602 0.0073332 0.104447
vn 0.240257 -0.970709 5.93913e-17
v 1.07943 0.00542805 0.136414
vn 0.240257 -0.970709 5.93913e-17
v 1.07943 0.00542805 0.104447
vn 0.240302 -0.970698 5.94143e-17
v 1.07943 0.00542805 0.104447
vn -0.240302 0.970698 -5.94143e-17
v 1.07943 0.00542805 0.136414
vn -0.240257 0.970709 -5.93913e-17
v 1.10602 0.0073332 0.104447
vn -0.240257 0.970709 -5.93913e-17
v 1.07943 0.00542805 0.136414
vn -1 5.54893e-17 -3.39774e-33
v 1.07943 0.00542805 0.136414
vn 1 -5.54893e-17 3.39774e-33
v 1.07943 0.00542805 0.136414
vn 0 -6.1149e-17 -1
v 1.10602 -0.00827124 0.136414
vn 0 -6.1149e-17 -1
v 1.07943 -0.00636189 0.136414
vn 0 -6.11964e-17 -1
v 1.07943 -0.00636189 0.136414
vn 0 6.11964e-17 1
v 1.10602 -0.00827124 0.136414
vn 0 6.1149e-17 1
v 1.07943 0.00542805 0.136414
vn 0 6.1149e-17 1
v 1.07943 0.00583192 0.0658428
vn -1 6.12287e-17 -3.74918e-33
v 1.07943 0.00583192 0.0658428
vn 1 -6.12287e-17 3.74918e-33
v 1.07943 0.249612 0.385511
vn -1 5.26622e-17 -3.22463e-33
v 1.07943 0.249612 0.385511
vn 1 -5.26622e-17 3.22463e-33
v 1.07943 0.249612 0.385511
vn 0 5.83843e-17 1
v 1.07943 0.249612 0.385511
vn 0 -5.83843e-17 -1
v 1.10602 0.0073332 0.136414
vn 0 -6.11848e-17 -1
v 1.10602 0.0073332 0.136414
vn 0 6.11848e-17 1
v 1.10602 0.0073332 0.136414
vn 0.240302 -0.970698 5.94143e-17
v 1.10602 0.0073332 0.136414
vn -0.240302 0.970698 -5.94143e-17
v 1.10547 -0.234701 0.113644
vn 6.12085e-17 1 -6.12085e-17
v 1.07878 -0.234701 0.0976599
vn 6.12085e-17 1 -6.12085e-17
v 1.07878 -0.234701 0.113644
vn 6.12204e-17 1 -6.12204e-17
v 1.10547 -0.234701 0.0976599
vn 6.12204e-17 1 -6.12204e-17
v 1.07878 -0.234701 0.113644
vn -6.12204e-17 -1 6.12204e-17
v 1.07878 -0.234701 0.0976599
vn -6.12085e-17 -1 6.12085e-17
v 1.10547 -0.234701 0.113644
vn -6.12085e-17 -1 6.12085e-17
v 1.10547 -0.234701 0.0976599
vn -6.12204e-17 -1 6.12204e-17
v 1.07878 -0.234701 0.0655351
vn 3.72164e-17 1 -3.72164e-17
v 1.07878 -0.234701 0.0655351
vn -3.72164e-17 -1 3.72164e-17
v 1.07878 -0.234701 0.113644
vn 0.711355 0.702833 -4.30004e-17
v 1.10549 -0.242528 0.0976599
vn 0.711306 0.702882 -4.29914e-17
v 1.07878 -0.234701 0.0976599
vn 0.711257 0.702932 -4.29824e-17
v 1.07878 -0.234701 0.0976599
vn -0.711257 -0.702932 4.29824e-17
v 1.10549 -0.242528 0.0976599
vn -0.711306 -0.702882 4.29914e-17
v 1.07878 -0.234701 0.113644
vn -0.711355 -0.702833 4.30004e-17
v 1.10549 -0.242528 0.113644
vn 0 -6.12084e-17 -1
v 1.07878 -0.234701 0.113644
vn 0 -6.12084e-17 -1
v 1.10547 -0.234701 0.113644
vn 0 -6.12084e-17 -1
v 1.10547 -0.234701 0.113644
vn 0 6.12084e-17 1
v 1.07878 -0.234701 0.113644
vn 0 6.12084e-17 1
v 1.10549 -0.242528 0.113644
vn 0 6.12084e-17 1
v 1.10547 -0.234701 0.113644
vn 0.999999 0.00130593 -7.99395e-20
v 1.10549 -0.242528 0.0976599
vn 0.999999 0.00130593 -7.99395e-20
v 1.10547 -0.234701 0.0976599
vn 0.999999 0.00130585 -7.99474e-20
v 1.10547 -0.234701 0.0976599
vn -0.999999 -0.00130585 7.99474e-20
v 1.10549 -0.242528 0.0976599
vn -0.999999 -0.00130593 7.99395e-20
v 1.10547 -0.234701 0.113644
vn -0.999999 -0.00130593 7.99395e-20
v 1.10549 -0.242528 0.0976599
vn 0 -6.12084e-17 -1
v 1.07878 -0.234701 0.0976599
vn 0 -6.12084e-17 -1
v 1.10547 -0.234701 0.0976599
vn 0 -6.12084e-17 -1
v 1.10547 -0.234701 0.0976599
vn 0 6.12084e-17 1
v 1.07878 -0.234701 0.0976599
vn 0 6.12084e-17 1
v 1.10549 -0.242528 0.0976599
vn 0 6.12084e-17 1
v 1.07878 -0.234701 0.129627
vn 6.08536e-17 1 -6.08536e-17
v 1.07878 -0.234701 0.129627
vn -6.08536e-17 -1 6.08536e-17
v 1.10549 -0.242528 0.0655351
vn 0.711306 0.702883 -4.29912e-17
v 1.07878 -0.234701 0.0655351
vn 0.711403 0.702784 -4.30091e-17
v 1.07878 -0.234701 0.0655351
vn -0.711403 -0.702784 4.30091e-17
v 1.10549 -0.242528 0.0655351
vn -0.711306 -0.702883 4.29912e-17
v 1.10549 -0.242528 0.113644
vn 0.711355 0.702833 -4.30004e-17
v 1.10549 -0.242528 0.113644
vn -0.711355 -0.702833 4.30004e-17
v 1.07878 -0.234701 0.129627
vn 0.711404 0.702784 -4.30093e-17
v 1.07878 -0.234701 0.129627
vn -0.711404 -0.702784 4.30093e-17
v 1.10549 -0.242528 0.113644
vn 0.999999 0.00130585 -7.99474e-20
v 1.10549 -0.242528 0.113644
vn -0.999999 -0.00130585 7.99474e-20
v 1.07878 -0.234701 0.385199
vn 4.61864e-17 1 -4.61864e-17
v 1.07878 -0.234701 0.385199
vn -4.61864e-17 -1 4.61864e-17
v -1.13337 -0.250306 0.0655351
vn 0 -5.41581e-17 -1
v 1.07878 -0.234701 0.0655351
vn 0 -5.57833e-17 -1
v 1.10549 -0.242528 0.0655351
vn 0 -5.74365e-17 -1
v 1.10549 -0.242528 0.0655351
vn 0 5.74365e-17 1
v 1.07878 -0.234701 0.0655351
vn 0 5.57833e-17 1
v -1.13337 -0.250306 0.0655351
vn 0 5.41581e-17 1
v 1.13215 -0.250306 0.385199
vn 0.708265 0.705946 -4.27545e-17
v 1.10549 -0.242528 0.0976599
vn 0.71005 0.704151 -4.3081e-17
v 1.10549 -0.242528 0.113644
vn 0.710099 0.704102 -4.309e-17
v 1.10549 -0.242528 0.113644
vn -0.710099 -0.704102 4.309e-17
v 1.10549 -0.242528 0.0976599
vn -0.71005 -0.704151 4.3081e-17
v 1.13215 -0.250306 0.385199
vn -0.708265 -0.705946 4.27545e-17
v 1.10549 -0.242528 0.0655351
vn 0.70913 0.705077 -4.29127e-17
v 1.10549 -0.242528 0.0655351
vn -0.70913 -0.705077 4.29127e-17
v 1.10549 -0.242528 0.129627
vn 0.711452 0.702734 -4.30182e-17
v 1.10549 -0.242528 0.129627
vn -0.711452 -0.702734 4.30182e-17
v -1.13337 -0.234701 0.385199
vn 3.72164e-17 1 -3.72164e-17
v -1.13337 -0.234701 0.385199
vn -3.72164e-17 -1 3.72164e-17
v 1.10547 -0.234701 0.385199
vn 6.08536e-17 1 -6.08536e-17
v 1.10547 -0.234701 0.385199
vn -6.08536e-17 -1 6.08536e-17
v -1.13337 -0.234701 0.0655351
vn 0 -5.75204e-17 -1
v -1.13337 -0.234701 0.0655351
vn 0 5.75204e-17 1
v 1.13215 -0.250306 0.0655351
vn 0 -5.92797e-17 -1
v 1.13215 -0.250306 0.0655351
vn 0 5.92797e-17 1
v 1.10549 -0.242528 0.129627
vn 0.709373 0.704834 -4.29571e-17
v 1.10549 -0.242528 0.129627
vn -0.709373 -0.704834 4.29571e-17
v 1.13215 -0.250306 0.0655351
vn 0.709225 0.704982 -4.29306e-17
v 1.13215 -0.250306 0.0655351
vn -0.709225 -0.704982 4.29306e-17
v 1.10549 -0.242528 0.129627
vn 0 -6.12084e-17 -1
v 1.07878 -0.234701 0.129627
vn 0 -6.12084e-17 -1
v 1.10547 -0.234701 0.129627
vn 0 -6.12084e-17 -1
v 1.10547 -0.234701 0.129627
vn 0 6.12084e-17 1
v 1.07878 -0.234701 0.129627
vn 0 6.12084e-17 1
v 1.10549 -0.242528 0.129627
vn 0 6.12084e-17 1
v -1.13337 -0.234701 0.0655351
vn 4.62951e-17 1 -4.62951e-17
v -1.13337 -0.234701 0.0655351
vn -4.62951e-17 -1 4.62951e-17
v 1.10549 -0.242528 0.385199
vn 0 5.41394e-17 1
v 1.07878 -0.234701 0.385199
vn 0 5.92899e-17 1
v -1.13337 -0.234701 0.385199
vn 0 5.57833e-17 1
v -1.13337 -0.234701 0.385199
vn 0 -5.57833e-17 -1
v 1.07878 -0.234701 0.385199
vn 0 -5.92899e-17 -1
v 1.10549 -0.242528 0.385199
vn 0 -5.41394e-17 -1
v 1.10547 -0.234701 0.129627
vn 6.10424e-17 1 -6.10424e-17
v 1.10547 -0.234701 0.129627
vn -6.10424e-17 -1 6.10424e-17
v 1.10547 -0.234701 0.385199
vn 0 6.12084e-17 1
v 1.10547 -0.234701 0.385199
vn 0 -6.12084e-17 -1
v -1.13337 -0.250306 0.385199
vn -1 6.07543e-17 -3.72013e-33
v -1.13337 -0.234701 0.0655351
vn -1 6.07543e-17 -3.72013e-33
v -1.13337 -0.250306 0.0655351
vn -1 6.09924e-17 -3.73471e-33
v -1.13337 -0.250306 0.0655351
vn 1 -6.09924e-17 3.73471e-33
v -1.13337 -0.234701 0.0655351
vn 1 -6.07543e-17 3.72013e-33
v -1.13337 -0.250306 0.385199
vn 1 -6.07543e-17 3.72013e-33
v 1.13215 -0.250306 0.0655351
vn -3.68676e-17 -1 3.68676e-17
v -1.13337 -0.250306 0.385199
vn -3.68676e-17 -1 3.68676e-17
v -1.13337 -0.250306 0.0655351
vn -4.60243e-17 -1 4.60243e-17
v -1.13337 -0.250306 0.0655351
vn 4.60243e-17 1 -4.60243e-17
v -1.13337 -0.250306 0.385199
vn 3.68676e-17 1 -3.68676e-17
v 1.13215 -0.250306 0.0655351
vn 3.68676e-17 1 -3.68676e-17
v 1.10549 -0.242528 0.385199
vn 0.70942 0.704786 -4.2966e-17
v 1.10549 -0.242528 0.385199
vn -0.70942 -0.704786 4.2966e-17
v 1.13215 -0.250306 0.385199
vn -4.60243e-17 -1 4.60243e-17
v 1.13215 -0.250306 0.385199
vn 4.60243e-17 1 -4.60243e-17
v 1.10547 -0.234701 0.385199
vn 0.999999 0.001305 -7.94988e-20
v 1.10549 -0.242528 0.129627
vn 0.999999 0.001305 -7.94988e-20
v 1.10547 -0.234701 0.129627
vn 0.999999 0.00130371 -7.9624e-20
v 1.10547 -0.234701 0.129627
vn -0.999999 -0.00130371 7.9624e-20
v 1.10549 -0.242528 0.129627
vn -0.999999 -0.001305 7.94988e-20
v 1.10547 -0.234701 0.385199
vn -0.999999 -0.001305 7.94988e-20
v -1.13337 -0.234701 0.385199
vn -1 6.09924e-17 -3.73471e-33
v -1.13337 -0.234701 0.385199
vn 1 -6.09924e-17 3.73471e-33
v -1.13337 -0.250306 0.385199
vn 0 5.57544e-17 1
v -1.13337 -0.250306 0.385199
vn 0 -5.57544e-17 -1
v 1.10549 -0.242528 0.385199
vn 0.999999 0.00130371 -7.9624e-20
v 1.10549 -0.242528 0.385199
vn -0.999999 -0.00130371 7.9624e-20
v 1.13215 -0.250306 0.385199
vn 0 5.92797e-17 1
v 1.13215 -0.250306 0.385199
vn 0 -5.92797e-17 -1
v 1.13272 0.250306 0.0653505
vn 1 -6.07543e-17 3.72013e-33
v 1.13272 0.234701 0.385014
vn 1 -6.07543e-17 3.72013e-33
v 1.13272 0.234701 0.0653505
vn 1 -6.09924e-17 3.73471e-33
v 1.13272 0.250306 0.385014
vn 1 -6.09924e-17 3.73471e-33
v 1.13272 0.234701 0.0653505
vn -1 6.09924e-17 -3.73471e-33
v 1.13272 0.234701 0.385014
vn -1 6.07543e-17 -3.72013e-33
v 1.13272 0.250306 0.0653505
vn -1 6.07543e-17 -3.72013e-33
v 1.13272 0.250306 0.385014
vn -1 6.09924e-17 -3.73471e-33
v -1.1328 0.234701 0.385014
vn -3.68676e-17 -1 3.68676e-17
v 1.13272 0.234701 0.0653505
vn -3.68676e-17 -1 3.68676e-17
v 1.13272 0.234701 0.385014
vn -4.60243e-17 -1 4.60243e-17
v 1.13272 0.234701 0.385014
vn 4.60243e-17 1 -4.60243e-17
v 1.13272 0.234701 0.0653505
vn 3.68676e-17 1 -3.68676e-17
v -1.1328 0.234701 0.385014
vn 3.68676e-17 1 -3.68676e-17
v -1.1328 0.234701 0.0653505
vn 0 -5.40836e-17 -1
v 1.13272 0.250306 0.0653505
vn 0 -5.40836e-17 -1
v 1.13272 0.234701 0.0653505
vn 0 -5.74364e-17 -1
v 1.13272 0.234701 0.0653505
vn 0 5.74364e-17 1
v 1.13272 0.250306 0.0653505
vn 0 5.40836e-17 1
v -1.1328 0.234701 0.0653505
vn 0 5.40836e-17 1
v 1.13272 0.250306 0.0653505
vn 3.68676e-17 1 -3.68676e-17
v -1.1328 0.250306 0.385014
vn 3.68676e-17 1 -3.68676e-17
v 1.13272 0.250306 0.385014
vn 4.60243e-17 1 -4.60243e-17
v 1.13272 0.250306 0.385014
vn -4.60243e-17 -1 4.60243e-17
v -1.1328 0.250306 0.385014
vn -3.68676e-17 -1 3.68676e-17
v 1.13272 0.250306 0.0653505
vn -3.68676e-17 -1 3.68676e-17
v 1.13272 0.250306 0.385014
vn 0 5.40836e-17 1
v -1.1328 0.234701 0.385014
vn 0 5.40836e-17 1
v 1.13272 0.234701 0.385014
vn 0 5.74364e-17 1
v 1.13272 0.234701 0.385014
vn 0 -5.74364e-17 -1
v -1.1328 0.234701 0.385014
vn 0 -5.40836e-17 -1
v 1.13272 0.250306 0.385014
vn 0 -5.40836e-17 -1
v -1.1328 0.234701 0.0653505
vn -4.60243e-17 -1 4.60243e-17
v -1.1328 0.234701 0.0653505
vn 4.60243e-17 1 -4.60243e-17
v -1.1328 0.250306 0.0653505
vn 0 -5.74364e-17 -1
v -1.1328 0.250306 0.0653505
vn 0 5.74364e-17 1
v -1.1328 0.250306 0.0653505
vn 4.60243e-17 1 -4.60243e-17
v -1.1328 0.250306 0.0653505
vn -4.60243e-17 -1 4.60243e-17
v -1.1328 0.250306 0.385014
vn 0 5.74364e-17 1
v -1.1328 0.250306 0.385014
vn 0 -5.74364e-17 -1
v -1.1328 0.234701 0.385014
vn -1 6.07543e-17 -3.72013e-33
v -1.1328 0.250306 0.0653505
vn -1 6.07543e-17 -3.72013e-33
v -1.1328 0.234701 0.0653505
vn -1 6.09924e-17 -3.73471e-33
v -1.1328 0.234701 0.0653505
vn 1 -6.09924e-17 3.73471e-33
v -1.1328 0.250306 0.0653505
vn 1 -6.07543e-17 3.72013e-33
v -1.1328 0.234701 0.385014
vn 1 -6.07543e-17 3.72013e-33
v -1.1328 0.250306 0.385014
vn -1 6.09924e-17 -3.73471e-33
v -1.1328 0.250306 0.385014
vn 1 -6.09924e-17 3.73471e-33
f 1//1 2//2 3//3
f 2//2 1//1 4//4
f 5//5 6//6 7//7
f 8//8 7//7 6//6
f 9//9 10//10 11//11
f 10//10 9//9 33//33
f 12//12 13//13 14//14
f 34//34 14//14 13//13
f 15//15 16//16 17//17
f 16//16 15//15 35//35
f 18//18 19//19 20//20
f 36//36 20//20 19//19
f 21//21 22//22 23//23
f 22//22 21//21 37//37
f 24//24 25//25 26//26
f 38//38 26//26 25//25
f 27//27 28//28 29//29
f 28//28 27//27 39//39
f 30//30 31//31 32//32
f 40//40 32//32 31//31
f 41//41 42//42 43//43
f 42//42 41//41 47//47
f 44//44 45//45 46//46
f 48//48 46//46 45//45
f 49//49 50//50 51//51
f 50//50 49//49 52//52
f 53//53 54//54 55//55
f 56//56 55//55 54//54
f 57//57 58//58 59//59
f 58//58 57//57 81//81
f 60//60 61//61 62//62
f 82//82 62//62 61//61
f 63//63 64//64 65//65
f 64//64 63//63 83//83
f 66//66 67//67 68//68
f 84//84 68//68 67//67
f 69//69 70//70 71//71
f 70//70 69//69 85//85
f 72//72 73//73 74//74
f 86//86 74//74 73//73
f 75//75 76//76 77//77
f 76//76 75//75 87//87
f 78//78 79//79 80//80
f 88//88 80//80 79//79
f 89//89 90//90 91//91
f 90//90 89//89 95//95
f 92//92 93//93 94//94
f 96//96 94//94 93//93
f 97//97 98//98 99//99
f 98//98 97//97 100//100
f 101//101 102//102 103//103
f 104//104 103//103 102//102
f 105//105 106//106 107//107
f 106//106 105//105 129//129
f 108//108 109//109 110//110
f 130//130 110//110 109//109
f 111//111 112//112 113//113
f 112//112 111//111 131//131
f 114//114 115//115 116//116
f 132//132 116//116 115//115
f 117//117 118//118 119//119
f 118//118 117//117 133//133
f 120//120 121//121 122//122
f 134//134 122//122 121//121
f 123//123 124//124 125//125
f 124//124 123//123 135//135
f 126//126 127//127 128//128
f 136//136 128//128 127//127
f 137//137 138//138 139//139
f 138//138 137//137 143//143
f 140//140 141//141 142//142
f 144//144 142//142 141//141
f 145//145 146//146 147//147
f 146//146 145//145 148//148
f 149//149 150//150 151//151
f 152//152 151//151 150//150
f 153//153 154//154 155//155
f 154//154 153//153 177//177
f 156//156 157//157 158//158
f 178//178 158//158 157//157
f 159//159 160//160 161//161
f 160//160 159//159 179//179
f 162//162 163//163 164//164
f 180//180 164//164 163//163
f 165//165 166//166 167//167
f 166//166 165//165 181//181
f 168//168 169//169 170//170
f 182//182 170//170 169//169
f 171//171 172//172 173//173
f 172//172 171//171 183//183
f 174//174 175//175 176//176
f 184//184 176//176 175//175
f 185//185 186//186 187//187
f 186//186 185//185 191//191
f 188//188 189//189 190//190
f 192//192 190//190 189//189
f 193//193 194//194 195//195
f 194//194 193//193 196//196
f 197//197 198//198 199//199
f 200//200 199//199 198//198
f 201//201 202//202 203//203
f 202//202 201//201 225//225
f 204//204 205//205 206//206
f 226//226 206//206 205//205
f 207//207 208//208 209//209
f 208//208 207//207 227//227
f 210//210 211//211 212//212
f 228//228 212//212 211//211
f 213//213 214//214 215//215
f 214//214 213//213 229//229
f 216//216 217//217 218//218
f 230//230 218//218 217//217
f 219//219 220//220 221//221
f 220//220 219//219 231//231
f 222//222 223//223 224//224
f 232//232 224//224 223//223
f 233//233 234//234 235//235
f 234//234 233//233 239//239
f 236//236 237//237 238//238
f 240//240 238//238 237//237
f 241//241 242//242 243//243
f 242//242 241//241 244//244
f 245//245 246//246 247//247
f 248//248 247//247 246//246
f 249//249 250//250 251//251
f 250//250 249//249 273//273
f 252//252 253//253 254//254
f 274//274 254//254 253//253
f 255//255 256//256 257//257
f 256//256 255//255 275//275
f 258//258 259//259 260//260
f 276//276 260//260 259//259
f 261//261 262//262 263//263
f 262//262 261//261 277//277
f 264//264 265//265 266//266
f 278//278 266//266 265//265
f 267//267 268//268 269//269
f 268//268 267//267 279//279
f 270//270 271//271 272//272
f 280//280 272//272 271//271
f 281//281 282//282 283//283
f 282//282 281//281 287//287
f 284//284 285//285 286//286
f 288//288 286//286 285//285
f 289//289 290//290 291//291
f 290//290 289//289 292//292
f 293//293 294//294 295//295
f 296//296 295//295 294//294
f 297//297 298//298 299//299
f 298//298 297//297 321//321
f 300//300 301//301 302//302
f 322//322 302//302 301//301
f 303//303 304//304 305//305
f 304//304 303//303 323//323
f 306//306 307//307 308//308
f 324//324 308//308 307//307
f 309//309 310//310 311//311
f 310//310 309//309 325//325
f 312//312 313//313 314//314
f 326//326 314//314 313//313
f 315//315 316//316 317//317
f 316//316 315//315 327//327
f 318//318 319//319 320//320
f 328//328 320//320 319//319
f 329//329 330//330 331//331
f 330//330 329//329 335//335
f 332//332 333//333 334//334
f 336//336 334//334 333//333
f 337//337 338//338 339//339
f 338//338 337//337 340//340
f 341//341 342//342 343//343
f 344//344 343//343 342//342
f 345//345 346//346 347//347
f 346//346 345//345 369//369
f 348//348 349//349 350//350
f 370//370 350//350 349//349
f 351//351 352//352 353//353
f 352//352 351//351 371//371
f 354//354 355//355 356//356
f 372//372 356//356 355//355
f 357//357 358//358 359//359
f 358//358 357//357 373//373
f 360//360 361//361 362//362
f 374//374 362//362 361//361
f 363//363 364//364 365//365
f 364//364 363//363 375//375
f 366//366 367//367 368//368
f 376//376 368//368 367//367
f 377//377 378//378 379//379
f 378//378 377//377 383//383
f 380//380 381//381 382//382
f 384//384 382//382 381//381
f 385//385 386//386 387//387
f 386//386 385//385 388//388
f 389//389 390//390 391//391
f 392//392 391//391 390//390
f 393//393 394//394 395//395
f 394//394 393//393 417//417
f 396//396 397//397 398//398
f 418//418 398//398 397//397
f 399//399 400//400 401//401
f 400//400 399//399 419//419
f 402//402 403//403 404//404
f 420//420 404//404 403//403
f 405//405 406//406 407//407
f 406//406 405//405 421//421
f 408//408 409//409 410//410
f 422//422 410//410 409//409
f 411//411 412//412 413//413
f 412//412 411//411 423//423
f 414//414 415//415 416//416
f 424//424 416//416 415//415
f 425//425 426//426 427//427
f 426//426 425//425 431//431
f 428//428 429//429 430//430
f 432//432 430//430 429//429
f 433//433 434//434 435//435
f 434//434 433//433 436//436
f 437//437 438//438 439//439
f 440//440 439//439 438//438
f 441//441 442//442 443//443
f 442//442 441//441 465//465
f 444//444 445//445 446//446
f 466//466 446//446 445//445
f 447//447 448//448 449//449
f 448//448 447//447 469//469
f 450//450 451//451 452//452
f 470//470 452//452 451//451
f 453//453 454//454 455//455
f 454//454 453//453 471//471
f 456//456 457//457 458//458
f 472//472 458//458 457//457
f 459//459 460//460 461//461
f 460//460 459//459 467//467
f 462//462 463//463 464//464
f 468//468 464//464 463//463
f 473//473 474//474 475//475
f 474//474 473//473 479//479
f 476//476 477//477 478//478
f 480//480 478//478 477//477
f 481//481 482//482 483//483
f 482//482 481//481 484//484
f 485//485 486//486 487//487
f 488//488 487//487 486//486
f 489//489 490//490 491//491
f 490//490 489//489 513//513
f 492//492 493//493 494//494
f 514//514 494//494 493//493
f 495//495 496//496 497//497
f 496//496 495//495 517//517
f 498//498 499//499 500//500
f 518//518 500//500 499//499
f 501//501 502//502 503//503
f 502//502 501//501 519//519
f 504//504 505//505 506//506
f 520//520 506//506 505//505
f 507//507 508//508 509//509
f 508//508 507//507 515//515
f 510//510 511//511 512//512
f 516//516 512//512 511//511
f 521//521 522//522 523//523
f 522//522 521//521 527//527
f 524//524 525//525 526//526
f 528//528 526//526 525//525
f 529//529 530//530 531//531
f 530//530 529//529 532//532
f 533//533 534//534 535//535
f 536//536 535//535 534//534
f 537//537 538//538 539//539
f 538//538 537//537 561//561
f 540//540 541//541 542//542
f 562//562 542//542 541//541
f 543//543 544//544 545//545
f 544//544 543//543 565//565
f 577//577 544//544 565//565
f 577//577 593//593 544//544
f 577//577 565//565 587//587
f 593//593 577//577 607//607
f 546//546 547//547 548//548
f 566//566 548//548 547//547
f 566//566 547//547 578//578
f 547//547 594//594 578//578
f 588//588 566//566 578//578
f 608//608 578//578 594//594
f 549//549 550//550 551//551
f 550//550 549//549 567//567
f 552//552 553//553 554//554
f 568//568 554//554 553//553
f 555//555 556//556 557//557
f 556//556 555//555 563//563
f 555//555 575//575 563//563
f 589//589 575//575 555//555
f 563//563 575//575 591//591
f 575//575 589//589 603//603
f 558//558 559//559 560//560
f 564//564 560//560 559//559
f 564//564 576//576 560//560
f 560//560 576//576 590//590
f 592//592 576//576 564//564
f 604//604 590//590 576//576
f 569//569 570//570 571//571
f 570//570 569//569 585//585
f 572//572 573//573 574//574
f 586//586 574//574 573//573
f 579//579 580//580 581//581
f 580//580 579//579 595//595
f 582//582 583//583 584//584
f 596//596 584//584 583//583
f 597//597 598//598 599//599
f 598//598 597//597 605//605
f 600//600 601//601 602//602
f 606//606 602//602 601//601
f 609//609 610//610 611//611
f 610//610 609//609 623//623
f 612//612 613//613 614//614
f 624//624 614//614 613//613
f 615//615 616//616 617//617
f 616//616 615//615 621//621
f 618//618 619//619 620//620
f 622//622 620//620 619//619
f 625//625 626//626 627//627
f 626//626 625//625 628//628
f 629//629 630//630 631//631
f 632//632 631//631 630//630
f 633//633 634//634 635//635
f 634//634 633//633 657//657
f 636//636 637//637 638//638
f 658//658 638//638 637//637
f 639//639 640//640 641//641
f 640//640 639//639 659//659
f 642//642 643//643 644//644
f 660//660 644//644 643//643
f 645//645 646//646 647//647
f 646//646 645//645 661//661
f 648//648 649//649 650//650
f 662//662 650//650 649//649
f 651//651 652//652 653//653
f 652//652 651//651 663//663
f 654//654 655//655 656//656
f 664//664 656//656 655//655
f 665//665 666//666 667//667
f 666//666 665//665 671//671
f 668//668 669//669 670//670
f 672//672 670//670 669//669
f 673//673 674//674 675//675
f 674//674 673//673 676//676
f 677//677 678//678 679//679
f 680//680 679//679 678//678
f 681//681 682//682 683//683
f 682//682 681//681 705//705
f 684//684 685//685 686//686
f 706//706 686//686 685//685
f 687//687 688//688 689//689
f 688//688 687//687 707//707
f 690//690 691//691 692//692
f 708//708 692//692 691//691
f 693//693 694//694 695//695
f 694//694 693//693 709//709
f 696//696 697//697 698//698
f 710//710 698//698 697//697
f 699//699 700//700 701//701
f 700//700 699//699 711//711
f 702//702 703//703 704//704
f 712//712 704//704 703//703
f 713//713 714//714 715//715
f 714//714 713//713 719//719
f 716//716 717//717 718//718
f 720//720 718//718 717//717
f 721//721 722//722 723//723
f 722//722 721//721 724//724
f 725//725 726//726 727//727
f 728//728 727//727 726//726
f 729//729 730//730 731//731
f 730//730 729//729 753//753
f 732//732 733//733 734//734
f 754//754 734//734 733//733
f 735//735 736//736 737//737
f 736//736 735//735 757//757
f 738//738 739//739 740//740
f 758//758 740//740 739//739
f 741//741 742//742 743//743
f 742//742 741//741 759//759
f 744//744 745//745 746//746
f 760//760 746//746 745//745
f 747//747 748//748 749//749
f 748//748 747//747 755//755
f 750//750 751//751 752//752
f 756//756 752//752 751//751
f 761//761 762//762 763//763
f 762//762 761//761 767//767
f 764//764 765//765 766//766
f 768//768 766//766 765//765
f 769//769 770//770 771//771
f 770//770 769//769 772//772
f 783//783 769//769 771//771
f 769//769 783//783 801//801
f 773//773 774//774 775//775
f 773//773 775//775 784//784
f 776//776 775//775 774//774
f 802//802 784//784 775//775
f 777//777 778//778 779//779
f 778//778 777//777 797//797
f 779//779 778//778 799//799
f 803//803 779//779 799//799
f 780//780 781//781 782//782
f 800//800 781//781 780//780
f 800//800 780//780 804//804
f 798//798 782//782 781//781
f 785//785 786//786 787//787
f 786//786 785//785 805//805
f 827//827 785//785 828//828
f 805//805 785//785 827//827
f 788//788 789//789 790//790
f 806//806 790//790 789//789
f 829//829 790//790 830//830
f 830//830 790//790 806//806
f 791//791 792//792 793//793
f 792//792 791//791 807//807
f 794//794 795//795 796//796
f 808//808 796//796 795//795
f 809//809 810//810 811//811
f 810//810 809//809 831//831
f 812//812 813//813 814//814
f 832//832 814//814 813//813
f 815//815 816//816 817//817
f 816//816 815//815 833//833
f 818//818 819//819 820//820
f 834//834 820//820 819//819
f 821//821 822//822 823//823
f 822//822 821//821 835//835
f 824//824 825//825 826//826
f 836//836 826//826 825//825
f 837//837 838//838 839//839
f 838//838 837//837 840//840
f 857//857 840//840 837//837
f 840//840 857//857 869//869
f 841//841 842//842 843//843
f 844//844 843//843 842//842
f 843//843 844//844 858//858
f 870//870 858//858 844//844
f 845//845 846//846 847//847
f 846//846 845//845 865//865
f 865//865 845//845 877//877
f 877//877 845//845 897//897
f 848//848 849//849 850//850
f 866//866 850//850 849//849
f 878//878 850//850 866//866
f 898//898 850//850 878//878
f 851//851 852//852 853//853
f 852//852 851//851 867//867
f 879//879 851//851 880//880
f 851//851 883//883 867//867
f 851//851 879//879 883//883
f 867//867 871//871 852//852
f 871//871 867//867 883//883
f 854//854 855//855 856//856
f 868//868 856//856 855//855
f 855//855 872//872 868//868
f 881//881 856//856 882//882
f 868//868 884//884 856//856
f 884//884 882//882 856//856
f 884//884 868//868 872//872
f 859//859 860//860 861//861
f 860//860 859//859 873//873
f 859//859 861//861 875//875
f 862//862 863//863 864//864
f 876//876 862//862 864//864
f 874//874 864//864 863//863
f 885//885 886//886 887//887
f 886//886 885//885 911//911
f 886//886 899//899 900//900
f 886//886 911//911 899//899
f 888//888 889//889 890//890
f 901//901 902//902 889//889
f 912//912 890//890 889//889
f 902//902 912//912 889//889
f 891//891 892//892 893//893
f 892//892 891//891 913//913
f 894//894 895//895 896//896
f 914//914 896//896 895//895
f 903//903 904//904 905//905
f 904//904 903//903 909//909
f 906//906 907//907 908//908
f 910//910 908//908 907//907
f 915//915 916//916 917//917
f 916//916 915//915 918//918
f 919//919 920//920 921//921
f 922//922 921//921 920//920
f 923//923 924//924 925//925
f 924//924 923//923 947//947
f 926//926 927//927 928//928
f 948//948 928//928 927//927
f 929//929 930//930 931//931
f 930//930 929//929 949//949
f 932//932 933//933 934//934
f 950//950 934//934 933//933
f 935//935 936//936 937//937
f 936//936 935//935 951//951
f 938//938 939//939 940//940
f 952//952 940//940 939//939
f 941//941 942//942 943//943
f 942//942 941//941 953//953
f 944//944 945//945 946//946
f 954//954 946//946 945//945
f 955//955 956//956 957//957
f 956//956 955//955 961//961
f 958//958 959//959 960//960
f 962//962 960//960 959//959
f 963//963 964//964 965//965
f 964//964 975//975 965//965
f 985//985 975//975 964//964
f 964//964 997//997 985//985
f 999//999 975//975 985//985
f 999//999 1017//1017 975//975
f 1017//1017 999//999 1035//1035
f 999//999 1067//1067 1035//1035
f 1067//1067 999//999 1103//1103
f 966//966 967//967 968//968
f 966//966 976//976 967//967
f 967//967 976//976 986//986
f 986//986 998//998 967//967
f 986//986 976//976 1000//1000
f 976//976 1018//1018 1000//1000
f 1036//1036 1000//1000 1018//1018
f 1036//1036 1068//1068 1000//1000
f 1104//1104 1000//1000 1068//1068
f 969//969 970//970 971//971
f 970//970 969//969 983//983
f 983//983 969//969 995//995
f 995//995 1009//1009 983//983
f 1009//1009 995//995 1031//1031
f 1009//1009 1031//1031 1059//1059
f 1095//1095 1031//1031 1096//1096
f 1059//1059 1031//1031 1099//1099
f 1031//1031 1095//1095 1099//1099
f 1059//1059 1099//1099 1125//1125
f 1135//1135 1125//1125 1099//1099
f 1135//1135 1106//1106 1125//1125
f 1107//1107 1106//1106 1135//1135
f 1105//1105 1106//1106 1107//1107
f 1106//1106 1105//1105 1133//1133
f 972//972 973//973 974//974
f 984//984 974//974 973//973
f 996//996 974//974 984//984
f 984//984 1010//1010 996//996
f 1032//1032 996//996 1010//1010
f 1060//1060 1032//1032 1010//1010
f 1097//1097 1032//1032 1098//1098
f 1100//1100 1032//1032 1060//1060
f 1100//1100 1098//1098 1032//1032
f 1126//1126 1100//1100 1060//1060
f 1100//1100 1126//1126 1136//1136
f 1126//1126 1109//1109 1136//1136
f 1136//1136 1109//1109 1108//1108
f 1108//1108 1109//1109 1110//1110
f 1134//1134 1110//1110 1109//1109
f 977//977 978//978 979//979
f 978//978 977//977 993//993
f 980//980 981//981 982//982
f 994//994 982//982 981//981
f 987//987 988//988 989//989
f 988//988 987//987 1001//1001
f 1001//1001 987//987 1025//1025
f 1025//1025 987//987 1045//1045
f 1027//1027 988//988 1001//1001
f 988//988 1027//1027 1029//1029
f 990//990 991//991 992//992
f 1002//1002 992//992 991//991
f 1002//1002 991//991 1028//1028
f 1030//1030 1028//1028 991//991
f 1026//1026 992//992 1002//1002
f 1046//1046 992//992 1026//1026
f 1003//1003 1004//1004 1005//1005
f 1006//1006 1007//1007 1008//1008
f 1011//1011 1012//1012 1013//1013
f 1012//1012 1011//1011 1033//1033
f 1014//1014 1015//1015 1016//1016
f 1034//1034 1016//1016 1015//1015
f 1019//1019 1020//1020 1021//1021
f 1020//1020 1019//1019 1043//1043
f 1043//1043 1019//1019 1077//1077
f 1043//1043 1077//1077 1115//1115
f 1022//1022 1023//1023 1024//1024
f 1044//1044 1024//1024 1023//1023
f 1078//1078 1024//1024 1044//1044
f 1116//1116 1078//1078 1044//1044
f 1037//1037 1038//1038 1039//1039
f 1038//1038 1037//1037 1075//1075
f 1040//1040 1041//1041 1042//1042
f 1076//1076 1042//1042 1041//1041
f 1047//1047 1048//1048 1049//1049
f 1048//1048 1047//1047 1091//1091
f 1050//1050 1051//1051 1052//1052
f 1092//1092 1052//1052 1051//1051
f 1053//1053 1054//1054 1055//1055
f 1056//1056 1057//1057 1058//1058
f 1061//1061 1062//1062 1063//1063
f 1062//1062 1061//1061 1101//1101
f 1064//1064 1065//1065 1066//1066
f 1102//1102 1066//1066 1065//1065
f 1069//1069 1070//1070 1071//1071
f 1070//1070 1069//1069 1111//1111
f 1072//1072 1073//1073 1074//1074
f 1112//1112 1074//1074 1073//1073
f 1079//1079 1080//1080 1081//1081
f 1080//1080 1079//1079 1117//1117
f 1082//1082 1083//1083 1084//1084
f 1118//1118 1084//1084 1083//1083
f 1085//1085 1086//1086 1087//1087
f 1113//1113 1086//1086 1085//1085
f 1087//1087 1086//1086 1093//1093
f 1086//1086 1113//1113 1137//1137
f 1088//1088 1089//1089 1090//1090
f 1094//1094 1089//1089 1088//1088
f 1090//1090 1089//1089 1114//1114
f 1138//1138 1114//1114 1089//1089
f 1119//1119 1120//1120 1121//1121
f 1120//1120 1119//1119 1141//1141
f 1122//1122 1123//1123 1124//1124
f 1142//1142 1124//1124 1123//1123
f 1127//1127 1128//1128 1129//1129
f 1128//1128 1127//1127 1139//1139
f 1130//1130 1131//1131 1132//1132
f 1140//1140 1132//1132 1131//1131
f 1143//1143 1144//1144 1145//1145
f 1144//1144 1143//1143 1146//1146
f 1151//1151 1145//1145 1144//1144
f 1151//1151 1177//1177 1145//1145
f 1151//1151 1189//1189 1177//1177
f 1151//1151 1207//1207 1189//1189
f 1207//1207 1151//1151 1225//1225
f 1209//1209 1177//1177 1189//1189
f 1177//1177 1209//1209 1233//1233
f 1147//1147 1148//1148 1149//1149
f 1148//1148 1147//1147 1152//1152
f 1147//1147 1178//1178 1152//1152
f 1150//1150 1149//1149 1148//1148
f 1178//1178 1190//1190 1152//1152
f 1190//1190 1208//1208 1152//1152
f 1226//1226 1152//1152 1208//1208
f 1190//1190 1178//1178 1210//1210
f 1234//1234 1210//1210 1178//1178
f 1153//1153 1154//1154 1155//1155
f 1154//1154 1153//1153 1183//1183
f 1185//1185 1183//1183 1153//1153
f 1179//1179 1155//1155 1154//1154
f 1155//1155 1179//1179 1180//1180
f 1183//1183 1185//1185 1205//1205
f 1156//1156 1157//1157 1158//1158
f 1181//1181 1182//1182 1156//1156
f 1157//1157 1156//1156 1182//1182
f 1184//1184 1158//1158 1157//1157
f 1158//1158 1184//1184 1186//1186
f 1206//1206 1186//1186 1184//1184
f 1159//1159 1160//1160 1161//1161
f 1162//1162 1163//1163 1164//1164
f 1165//1165 1166//1166 1167//1167
f 1166//1166 1165//1165 1187//1187
f 1168//1168 1169//1169 1170//1170
f 1188//1188 1170//1170 1169//1169
f 1171//1171 1172//1172 1173//1173
f 1174//1174 1175//1175 1176//1176
f 1191//1191 1192//1192 1193//1193
f 1192//1192 1191//1191 1211//1211
f 1191//1191 1193//1193 1213//1213
f 1194//1194 1195//1195 1196//1196
f 1214//1214 1194//1194 1196//1196
f 1212//1212 1196//1196 1195//1195
f 1197//1197 1198//1198 1199//1199
f 1197//1197 1203//1203 1198//1198
f 1197//1197 1199//1199 1215//1215
f 1203//1203 1197//1197 1217//1217
f 1197//1197 1215//1215 1249//1249
f 1200//1200 1201//1201 1202//1202
f 1216//1216 1200//1200 1202//1202
f 1201//1201 1204//1204 1202//1202
f 1218//1218 1202//1202 1204//1204
f 1250//1250 1216//1216 1202//1202
f 1219//1219 1220//1220 1221//1221
f 1222//1222 1223//1223 1224//1224
f 1227//1227 1228//1228 1229//1229
f 1228//1228 1227//1227 1235//1235
f 1227//1227 1229//1229 1261//1261
f 1227//1227 1261//1261 1265//1265
f 1230//1230 1231//1231 1232//1232
f 1262//1262 1230//1230 1232//1232
f 1236//1236 1232//1232 1231//1231
f 1266//1266 1262//1262 1232//1232
f 1237//1237 1238//1238 1239//1239
f 1238//1238 1237//1237 1259//1259
f 1240//1240 1241//1241 1242//1242
f 1260//1260 1242//1242 1241//1241
f 1243//1243 1244//1244 1245//1245
f 1244//1244 1243//1243 1251//1251
f 1246//1246 1247//1247 1248//1248
f 1252//1252 1248//1248 1247//1247
f 1253//1253 1254//1254 1255//1255
f 1254//1254 1253//1253 1263//1263
f 1256//1256 1257//1257 1258//1258
f 1264//1264 1258//1258 1257//1257
f 1267//1267 1268//1268 1269//1269
f 1268//1268 1267//1267 1270//1270
f 1271//1271 1272//1272 1273//1273
f 1274//1274 1273//1273 1272//1272
f 1275//1275 1276//1276 1277//1277
f 1276//1276 1275//1275 1299//1299
f 1278//1278 1279//1279 1280//1280
f 1300//1300 1280//1280 1279//1279
f 1281//1281 1282//1282 1283//1283
f 1282//1282 1281//1281 1301//1301
f 1284//1284 1285//1285 1286//1286
f 1302//1302 1286//1286 1285//1285
f 1287//1287 1288//1288 1289//1289
f 1288//1288 1287//1287 1303//1303
f 1290//1290 1291//1291 1292//1292
f 1304//1304 1292//1292 1291//1291
f 1293//1293 1294//1294 1295//1295
f 1294//1294 1293//1293 1305//1305
f 1296//1296 1297//1297 1298//1298
f 1306//1306 1298//1298 1297//1297
f 1307//1307 1308//1308 1309//1309
f 1308//1308 1307//1307 1313//1313
f 1310//1310 1311//1311 1312//1312
f 1314//1314 1312//1312 1311//1311
