# Created by Open3D 
# object name: bff79b49732569307ea323bc74055b8
# number of vertices: 624
# number of triangles: 444
mtllib bff79b49732569307ea323bc74055b8.mtl
v -1.57245 -0.219986 0
vn 0 -6.06776e-17 -1
v -1.7028 -0.256271 0
vn 0 -6.06776e-17 -1
v -1.7028 -0.219986 0
vn 0 -6.09537e-17 -1
v -1.57245 -0.256271 0
vn 0 -6.09537e-17 -1
v -1.7028 -0.256271 0
vn -0.987314 1.1091e-16 -0.15878
v -1.71909 -0.215449 0.0258732
vn -0.987314 1.1091e-16 -0.15878
v -1.7028 -0.219986 0
vn -0.987385 1.111e-16 -0.158339
v -1.71909 -0.215449 0.0258732
vn 1.20053e-16 0.987417 -0.158138
v -1.57245 -0.219986 0
vn 1.20053e-16 0.987417 -0.158138
v -1.7028 -0.219986 0
vn 1.20536e-16 0.987429 -0.158063
v -1.55615 -0.215449 0.0258732
vn 0.987314 -1.30198e-16 -0.15878
v -1.57245 -0.256271 0
vn 0.987314 -1.30198e-16 -0.15878
v -1.57245 -0.219986 0
vn 0.987385 -1.30422e-16 -0.158339
v -1.55615 -0.260808 0.0258732
vn -1.20053e-16 -0.987417 -0.158138
v -1.7028 -0.256271 0
vn -1.20053e-16 -0.987417 -0.158138
v -1.57245 -0.256271 0
vn -1.20536e-16 -0.987429 -0.158063
v -1.71909 -0.260808 0.0258732
vn -0.987371 1.11062e-16 -0.158427
v -1.55615 -0.215449 0.0258732
vn 1.20439e-16 0.987426 -0.15808
v -1.55615 -0.260808 0.0258732
vn 0.987371 -1.30376e-16 -0.158427
v -1.71909 -0.260808 0.0258732
vn -1.20439e-16 -0.987426 -0.15808
v -1.7028 0.248333 0
vn -1.20247e-16 -0.987425 -0.158091
v -1.55615 0.243797 0.0258732
vn -1.20054e-16 -0.98742 -0.158121
v -1.71909 0.243797 0.0258732
vn -1.2044e-16 -0.987429 -0.158061
v -1.57245 0.248333 0
vn 0.987314 -1.30197e-16 -0.15878
v -1.55615 0.289155 0.0258732
vn 0.987314 -1.30197e-16 -0.15878
v -1.55615 0.243797 0.0258732
vn 0.987371 -1.30376e-16 -0.158427
v -1.71909 0.289155 0.0258732
vn -0.987314 1.1091e-16 -0.15878
v -1.7028 0.248333 0
vn -0.987314 1.1091e-16 -0.15878
v -1.71909 0.243797 0.0258732
vn -0.987371 1.11062e-16 -0.158427
v -1.63763 0.248333 0
vn -1.20537e-16 -0.987431 -0.158048
v -1.57245 0.284619 0
vn 1.20054e-16 0.98742 -0.158121
v -1.71909 0.289155 0.0258732
vn 1.20054e-16 0.98742 -0.158121
v -1.55615 0.289155 0.0258732
vn 1.2044e-16 0.987429 -0.158061
v -1.57245 0.284619 0
vn 0.987385 -1.30422e-16 -0.158339
v -1.57245 0.248333 0
vn -1.20732e-16 -0.987436 -0.158017
v -1.7028 0.284619 0
vn -0.987385 1.111e-16 -0.158339
v -1.7028 0.248333 0
vn 0 -6.08153e-17 -1
v -1.57245 0.284619 0
vn 0 -6.06776e-17 -1
v -1.63763 0.248333 0
vn 0 -6.09537e-17 -1
v -1.7028 0.284619 0
vn 1.20538e-16 0.987432 -0.158046
v -1.57245 0.248333 0
vn 0 -6.10927e-17 -1
v -1.7028 0.284619 0
vn 0 -6.09537e-17 -1
v 1.7028 0.284619 0
vn 1.20054e-16 0.98742 -0.158121
v 1.55615 0.289155 0.0258732
vn 1.20054e-16 0.98742 -0.158121
v 1.7191 0.289155 0.0258732
vn 1.2044e-16 0.987429 -0.158061
v 1.55615 -0.260808 0.0258732
vn -0.987371 1.11062e-16 -0.158427
v 1.55615 -0.215449 0.0258732
vn -0.987314 1.1091e-16 -0.15878
v 1.57245 -0.256271 0
vn -0.987314 1.1091e-16 -0.15878
v 1.7028 0.248333 0
vn 0.987311 -1.30198e-16 -0.158798
v 1.7191 0.289155 0.0258732
vn 0.987311 -1.30198e-16 -0.158798
v 1.7191 0.243797 0.0258732
vn 0.987368 -1.30377e-16 -0.158446
v 1.57245 0.284619 0
vn 1.20538e-16 0.987432 -0.158046
v 1.7028 0.284619 0
vn 0.987382 -1.30422e-16 -0.158356
v 1.7191 -0.260808 0.0258732
vn -1.20439e-16 -0.987426 -0.15808
v 1.55615 -0.260808 0.0258732
vn -1.20053e-16 -0.987417 -0.15814
v 1.7028 -0.256271 0
vn -1.20053e-16 -0.987417 -0.15814
v 1.57245 -0.219986 0
vn -0.987385 1.111e-16 -0.158339
v 1.57245 -0.256271 0
vn -1.20536e-16 -0.987429 -0.158063
v 1.55615 0.289155 0.0258732
vn -0.987314 1.1091e-16 -0.15878
v 1.57245 0.248333 0
vn -0.987314 1.1091e-16 -0.15878
v 1.55615 0.243797 0.0258732
vn -0.987371 1.11062e-16 -0.158427
v 1.57245 0.248333 0
vn -1.20054e-16 -0.98742 -0.158121
v 1.7191 0.243797 0.0258732
vn -1.20054e-16 -0.98742 -0.158121
v 1.55615 0.243797 0.0258732
vn -1.2044e-16 -0.987429 -0.158061
v 1.7028 0.248333 0
vn -1.20538e-16 -0.987432 -0.158046
v 1.7028 0.284619 0
vn 0 -6.06776e-17 -1
v 1.57245 0.248333 0
vn 0 -6.06776e-17 -1
v 1.57245 0.284619 0
vn 0 -6.09537e-17 -1
v 1.57245 0.284619 0
vn -0.987385 1.111e-16 -0.158339
v 1.7028 0.248333 0
vn 0 -6.09537e-17 -1
v 1.7191 -0.260808 0.0258732
vn 0.987368 -1.30377e-16 -0.158446
v 1.7028 -0.256271 0
vn 0.987311 -1.30198e-16 -0.158799
v 1.7191 -0.215449 0.0258732
vn 0.987311 -1.30198e-16 -0.158799
v 1.7028 -0.219986 0
vn 1.20053e-16 0.987417 -0.15814
v 1.55615 -0.215449 0.0258732
vn 1.20053e-16 0.987417 -0.15814
v 1.7191 -0.215449 0.0258732
vn 1.20439e-16 0.987426 -0.15808
v 1.7028 -0.219986 0
vn 0 -6.06776e-17 -1
v 1.57245 -0.256271 0
vn 0 -6.06776e-17 -1
v 1.57245 -0.219986 0
vn 0 -6.09537e-17 -1
v 1.57245 -0.219986 0
vn 1.20536e-16 0.987429 -0.158063
v 1.7028 -0.256271 0
vn 0 -6.09537e-17 -1
v 1.7028 -0.219986 0
vn 0.987382 -1.30422e-16 -0.158356
v -1.7028 -0.219986 0
vn 0 6.09537e-17 1
v -1.7028 -0.256271 0
vn 0 6.06776e-17 1
v -1.57245 -0.219986 0
vn 0 6.06776e-17 1
v -1.57245 -0.256271 0
vn 0 6.09537e-17 1
v -1.7028 -0.219986 0
vn 0.987385 -1.111e-16 0.158339
v -1.71909 -0.215449 0.0258732
vn 0.987314 -1.1091e-16 0.15878
v -1.7028 -0.256271 0
vn 0.987314 -1.1091e-16 0.15878
v -1.7028 -0.219986 0
vn -1.20536e-16 -0.987429 0.158063
v -1.57245 -0.219986 0
vn -1.20053e-16 -0.987417 0.158138
v -1.71909 -0.215449 0.0258732
vn -1.20053e-16 -0.987417 0.158138
v -1.57245 -0.219986 0
vn -0.987385 1.30422e-16 0.158339
v -1.57245 -0.256271 0
vn -0.987314 1.30198e-16 0.15878
v -1.55615 -0.215449 0.0258732
vn -0.987314 1.30198e-16 0.15878
v -1.57245 -0.256271 0
vn 1.20536e-16 0.987429 0.158063
v -1.7028 -0.256271 0
vn 1.20053e-16 0.987417 0.158138
v -1.55615 -0.260808 0.0258732
vn 1.20053e-16 0.987417 0.158138
v -1.71909 -0.260808 0.0258732
vn 0.987371 -1.11062e-16 0.158427
v -1.55615 -0.215449 0.0258732
vn -1.20439e-16 -0.987426 0.15808
v -1.55615 -0.260808 0.0258732
vn -0.987371 1.30376e-16 0.158427
v -1.71909 -0.260808 0.0258732
vn 1.20439e-16 0.987426 0.15808
v -1.55615 -0.260808 0.0258732
vn 0 6.03168e-17 1
v -1.71909 -0.215449 0.0258732
vn 0 5.28358e-17 1
v -1.71909 -0.260808 0.0258732
vn 0 6.07425e-17 1
v -1.71909 -0.260808 0.0258732
vn 0 -6.07425e-17 -1
v -1.71909 -0.215449 0.0258732
vn 0 -5.28358e-17 -1
v -1.55615 -0.260808 0.0258732
vn 0 -6.03168e-17 -1
v -1.71909 0.243797 0.0258732
vn 0 5.64403e-17 1
v -1.71909 0.243797 0.0258732
vn 0 -5.64403e-17 -1
v -1.55615 -0.215449 0.0258732
vn 0 2.22864e-17 1
v -1.55615 -0.215449 0.0258732
vn 0 -2.22864e-17 -1
v -1.55615 0.243797 0.0258732
vn 0 5.28358e-17 1
v -1.55615 0.243797 0.0258732
vn 0 -5.28358e-17 -1
v -1.54597 -0.263642 0.0258732
vn 0 2.18448e-17 1
v -1.54597 -0.263642 0.0258732
vn 0 -2.18448e-17 -1
v -1.71909 -0.263642 0.0258732
vn 0 6.05693e-17 1
v -1.71909 -0.263642 0.0258732
vn 0 -6.05693e-17 -1
v -1.55615 0.289155 0.0258732
vn 0 2.4166e-17 1
v -1.55615 0.289155 0.0258732
vn 0 -2.4166e-17 -1
v 1.55615 0.289155 0.0258732
vn 0 1.40827e-17 1
v 1.55615 0.289155 0.0258732
vn 0 -1.40827e-17 -1
v -1.72929 0.29199 0.0258732
vn 0 6.00083e-17 1
v -1.72929 0.29199 0.0258732
vn 0 -6.00083e-17 -1
v -1.71909 0.289155 0.0258732
vn 0 5.97589e-17 1
v -1.71909 0.289155 0.0258732
vn 0 -5.97589e-17 -1
v -1.71909 0.243797 0.0258732
vn 1.2044e-16 0.987429 0.158061
v -1.55615 0.243797 0.0258732
vn 1.20054e-16 0.98742 0.158121
v -1.7028 0.248333 0
vn 1.20247e-16 0.987425 0.158091
v -1.55615 0.243797 0.0258732
vn -0.987371 1.30376e-16 0.158427
v -1.55615 0.289155 0.0258732
vn -0.987314 1.30197e-16 0.15878
v -1.57245 0.248333 0
vn -0.987314 1.30197e-16 0.15878
v 1.54597 -0.263642 0.0258732
vn 0 2.30397e-17 1
v 1.54597 -0.263642 0.0258732
vn 0 -2.30397e-17 -1
v -1.54597 -0.263642 0.15524
vn -1.09023e-16 -1 5.45115e-17
v -1.71909 -0.263642 0.0258732
vn -1.19785e-16 -1 5.98924e-17
v -1.54597 -0.263642 0.0258732
vn -1.19931e-16 -1 5.99654e-17
v -1.54597 -0.263642 0.0258732
vn 1.19931e-16 1 -5.99654e-17
v -1.71909 -0.263642 0.0258732
vn 1.19785e-16 1 -5.98924e-17
v -1.54597 -0.263642 0.15524
vn 1.09023e-16 1 -5.45115e-17
v -1.72929 -0.263642 0.0258732
vn 0 6.0899e-17 1
v -1.72929 -0.263642 0.0258732
vn 0 -6.0899e-17 -1
v -1.71909 0.243797 0.0258732
vn 0.987371 -1.11062e-16 0.158427
v -1.7028 0.248333 0
vn 0.987314 -1.1091e-16 0.15878
v -1.71909 0.289155 0.0258732
vn 0.987314 -1.1091e-16 0.15878
v -1.63763 0.248333 0
vn 1.20537e-16 0.987431 0.158048
v 1.72929 0.29199 0.0258732
vn 0 5.97757e-17 1
v 1.72929 0.29199 0.0258732
vn 0 -5.97757e-17 -1
v -1.55615 0.289155 0.0258732
vn -1.2044e-16 -0.987429 0.158061
v -1.71909 0.289155 0.0258732
vn -1.20054e-16 -0.98742 0.158121
v -1.57245 0.284619 0
vn -1.20054e-16 -0.98742 0.158121
v -1.57245 0.284619 0
vn -0.987385 1.30422e-16 0.158339
v -1.57245 0.248333 0
vn 1.20732e-16 0.987436 0.158017
v -1.54597 -0.263642 0.15524
vn 7.80909e-17 1 -3.90453e-17
v 1.54597 -0.263642 0.0258732
vn 6.89153e-17 1 -3.44575e-17
v -1.54597 -0.263642 0.0258732
vn 8.89146e-17 1 -4.44572e-17
v -1.54597 -0.263642 0.0258732
vn -8.89146e-17 -1 4.44572e-17
v 1.54597 -0.263642 0.0258732
vn -6.89153e-17 -1 3.44575e-17
v -1.54597 -0.263642 0.15524
vn -7.80909e-17 -1 3.90453e-17
v 1.55615 -0.260808 0.0258732
vn 0 6.04165e-17 1
v 1.55615 -0.260808 0.0258732
vn 0 -6.04165e-17 -1
v -1.72929 -0.263642 0.0258732
vn -1.13374e-16 -1 5.66866e-17
v -1.72929 -0.263642 0.0258732
vn 1.13374e-16 1 -5.66866e-17
v -1.72929 0.29199 0.367403
vn 1 -9.6975e-17 5.93799e-33
v -1.72929 -0.263642 0.0258732
vn 1 -9.6975e-17 5.93799e-33
v -1.72929 0.29199 0.0258732
vn 1 -9.6975e-17 5.93799e-33
v -1.72929 0.29199 0.0258732
vn -1 9.6975e-17 -5.93799e-33
v -1.72929 -0.263642 0.0258732
vn -1 9.6975e-17 -5.93799e-33
v -1.72929 0.29199 0.367403
vn -1 9.6975e-17 -5.93799e-33
v -1.7028 0.284619 0
vn 0.987385 -1.111e-16 0.158339
v -1.63763 0.248333 0
vn 0 6.09537e-17 1
v -1.57245 0.284619 0
vn 0 6.06776e-17 1
v -1.7028 0.248333 0
vn 0 6.08153e-17 1
v 1.7191 0.289155 0.0258732
vn 0 6.04165e-17 1
v 1.7191 0.289155 0.0258732
vn 0 -6.04165e-17 -1
v -1.7028 0.284619 0
vn -1.20538e-16 -0.987432 0.158046
v -1.57245 0.248333 0
vn 0 6.10927e-17 1
v 0.0183298 -0.263642 0.15524
vn 8.89146e-17 1 -4.44572e-17
v 0.0183298 -0.263642 0.15524
vn -8.89146e-17 -1 4.44572e-17
v 1.72929 -0.263642 0.0258732
vn 0 6.05166e-17 1
v 1.72929 -0.263642 0.0258732
vn 0 -6.05166e-17 -1
v 1.55615 -0.215449 0.0258732
vn 0 5.63518e-17 1
v 1.55615 -0.215449 0.0258732
vn 0 -5.63518e-17 -1
v -1.89223 -0.263642 0.367403
vn -1.08687e-16 -1 5.43432e-17
v -1.89223 -0.263642 0.367403
vn 1.08687e-16 1 -5.43432e-17
v -1.72929 0.29199 0.367403
vn 0.981166 -0.104412 0.162514
v -1.89223 -0.263642 0.367403
vn 0.981166 -0.104412 0.162514
v -1.72929 -0.263642 0.0258732
vn 0.981166 -0.104412 0.162514
v -1.72929 -0.263642 0.0258732
vn -0.981166 0.104412 -0.162514
v -1.89223 -0.263642 0.367403
vn -0.981166 0.104412 -0.162514
v -1.72929 0.29199 0.367403
vn -0.981166 0.104412 -0.162514
v -1.72929 0.29199 0.0258732
vn -3.79317e-17 -1 1.89658e-17
v 1.62745 0.29199 0.367403
vn -5.79227e-17 -1 2.89612e-17
v -1.72929 0.29199 0.367403
vn -5.88357e-17 -1 2.94178e-17
v -1.72929 0.29199 0.367403
vn 5.88357e-17 1 -2.94178e-17
v 1.62745 0.29199 0.367403
vn 5.79227e-17 1 -2.89612e-17
v -1.72929 0.29199 0.0258732
vn 3.79317e-17 1 -1.89658e-17
v 1.72929 0.29199 0.367403
vn -5.70375e-17 -1 2.85187e-17
v 1.72929 0.29199 0.0258732
vn -5.79227e-17 -1 2.89612e-17
v 1.72929 0.29199 0.0258732
vn 5.79227e-17 1 -2.89612e-17
v 1.72929 0.29199 0.367403
vn 5.70375e-17 1 -2.85187e-17
v -1.7028 0.284619 0
vn 0 6.09537e-17 1
v 1.7191 0.243797 0.0258732
vn 0 5.60955e-17 1
v 1.7191 0.243797 0.0258732
vn 0 -5.60955e-17 -1
v 1.7191 0.289155 0.0258732
vn -1.2044e-16 -0.987429 0.158061
v 1.55615 0.289155 0.0258732
vn -1.20054e-16 -0.98742 0.158121
v 1.7028 0.284619 0
vn -1.20054e-16 -0.98742 0.158121
v -0.0183298 -0.263642 0.15524
vn 1.22465e-16 1 -6.12323e-17
v -0.0183298 -0.263642 0.15524
vn -1.22465e-16 -1 6.12323e-17
v 1.54597 -0.263642 0.15524
vn 9.35046e-17 1 -4.67522e-17
v 1.54597 -0.263642 0.15524
vn -9.35046e-17 -1 4.67522e-17
v 1.7191 -0.260808 0.0258732
vn 0 6.03168e-17 1
v 1.7191 -0.260808 0.0258732
vn 0 -6.03168e-17 -1
v 1.72929 -0.263642 0.0258732
vn 1.11199e-16 1 -5.55991e-17
v 1.72929 -0.263642 0.0258732
vn -1.11199e-16 -1 5.55991e-17
v 1.57245 -0.256271 0
vn 0.987314 -1.1091e-16 0.15878
v 1.55615 -0.215449 0.0258732
vn 0.987314 -1.1091e-16 0.15878
v 1.55615 -0.260808 0.0258732
vn 0.987371 -1.11062e-16 0.158427
v 1.55615 0.243797 0.0258732
vn 0 5.31629e-17 1
v 1.55615 0.243797 0.0258732
vn 0 -5.31629e-17 -1
v -1.54597 -0.263642 0.222511
vn -1.19044e-16 -1 5.95219e-17
v -1.54597 -0.263642 0.222511
vn 1.19044e-16 1 -5.95219e-17
v -1.72929 -0.263642 0.367403
vn 0 5.26027e-17 1
v -1.72929 0.29199 0.367403
vn 0 5.23517e-17 1
v -1.89223 -0.263642 0.367403
vn 0 5.63059e-17 1
v -1.89223 -0.263642 0.367403
vn 0 -5.63059e-17 -1
v -1.72929 0.29199 0.367403
vn 0 -5.23517e-17 -1
v -1.72929 -0.263642 0.367403
vn 0 -5.26027e-17 -1
v -1.62743 0.29199 0.367403
vn -1.22465e-16 -1 6.12323e-17
v -1.62743 0.29199 0.367403
vn 1.22465e-16 1 -6.12323e-17
v 1.72929 0.29199 0.0258732
vn -0.9944 -0.10568 3.9332e-18
v 1.89223 -0.263642 0.367403
vn -0.9944 -0.10568 3.9332e-18
v 1.72929 0.29199 0.367403
vn -0.9944 -0.10568 3.9332e-18
v 1.72929 0.29199 0.367403
vn 0.9944 0.10568 -3.9332e-18
v 1.89223 -0.263642 0.367403
vn 0.9944 0.10568 -3.9332e-18
v 1.72929 0.29199 0.0258732
vn 0.9944 0.10568 -3.9332e-18
v 1.7191 0.243797 0.0258732
vn -0.987368 1.30377e-16 0.158446
v 1.7191 0.289155 0.0258732
vn -0.987311 1.30198e-16 0.158798
v 1.7028 0.248333 0
vn -0.987311 1.30198e-16 0.158798
v 1.57245 0.284619 0
vn -1.20538e-16 -0.987432 0.158046
v 1.7028 0.284619 0
vn -0.987382 1.30422e-16 0.158356
v 1.72929 0.29199 0.0258732
vn -0.986577 1.01317e-16 0.163297
v 1.72929 -0.263642 0.0258732
vn -0.986577 1.01317e-16 0.163297
v 1.89223 -0.263642 0.367403
vn -0.986577 1.01317e-16 0.163297
v 1.89223 -0.263642 0.367403
vn 0.986577 -1.01317e-16 -0.163297
v 1.72929 -0.263642 0.0258732
vn 0.986577 -1.01317e-16 -0.163297
v 1.72929 0.29199 0.0258732
vn 0.986577 -1.01317e-16 -0.163297
v -1.54597 -0.263642 0.15524
vn 0 -2.76609e-17 -1
v -0.0183298 0.133238 0.15524
vn 0 -2.80125e-17 -1
v -0.0183298 -0.263642 0.15524
vn 0 -3.6067e-17 -1
v -0.0183298 -0.263642 0.15524
vn 0 3.6067e-17 1
v -0.0183298 0.133238 0.15524
vn 0 2.80125e-17 1
v -1.54597 -0.263642 0.15524
vn 0 2.76609e-17 1
v -1.54597 -0.29199 0.15524
vn 0 -5.65029e-17 -1
v -1.54597 -0.29199 0.15524
vn 0 5.65029e-17 1
v 0.0183298 0.133238 0.15524
vn 0 -3.79374e-17 -1
v 0.0183298 -0.263642 0.15524
vn 0 -2.74863e-17 -1
v 0.0183298 -0.263642 0.15524
vn 0 2.74863e-17 1
v 0.0183298 0.133238 0.15524
vn 0 3.79374e-17 1
v 1.54597 0.133238 0.15524
vn 0 -2.81939e-17 -1
v 1.54597 -0.263642 0.15524
vn 0 -3.66745e-17 -1
v 1.54597 -0.263642 0.15524
vn 0 3.66745e-17 1
v 1.54597 0.133238 0.15524
vn 0 2.81939e-17 1
v 0.0183298 -0.29199 0.15524
vn 0 -5.65029e-17 -1
v 0.0183298 -0.29199 0.15524
vn 0 5.65029e-17 1
v 1.7191 -0.215449 0.0258732
vn 0 5.29348e-17 1
v 1.7191 -0.215449 0.0258732
vn 0 -5.29348e-17 -1
v 1.7028 -0.256271 0
vn 1.20053e-16 0.987417 0.15814
v 1.55615 -0.260808 0.0258732
vn 1.20053e-16 0.987417 0.15814
v 1.7191 -0.260808 0.0258732
vn 1.20439e-16 0.987426 0.15808
v 1.89223 -0.263642 0.367403
vn 1.08687e-16 1 -5.43432e-17
v 1.89223 -0.263642 0.367403
vn -1.08687e-16 -1 5.43432e-17
v 1.57245 -0.219986 0
vn 0.987385 -1.111e-16 0.158339
v 1.57245 -0.256271 0
vn 1.20536e-16 0.987429 0.158063
v 1.55615 0.243797 0.0258732
vn 0.987371 -1.11062e-16 0.158427
v 1.57245 0.248333 0
vn 0.987314 -1.1091e-16 0.15878
v 1.55615 0.289155 0.0258732
vn 0.987314 -1.1091e-16 0.15878
v -1.54597 0.0652016 0.222511
vn -1 1.11821e-16 -6.84704e-33
v -1.54597 -0.263642 0.15524
vn -1 1.14425e-16 -7.00649e-33
v -1.54597 -0.263642 0.222511
vn -1 1.17152e-16 -7.17346e-33
v -1.54597 -0.263642 0.222511
vn 1 -1.17152e-16 7.17346e-33
v -1.54597 -0.263642 0.15524
vn 1 -1.14425e-16 7.00649e-33
v -1.54597 0.0652016 0.222511
vn 1 -1.11821e-16 6.84704e-33
v -1.54597 -0.29199 0.15524
vn -1 1.21821e-16 -7.45939e-33
v -1.54597 -0.29199 0.15524
vn 1 -1.21821e-16 7.45939e-33
v -1.54597 -0.263642 0.24321
vn -1.19379e-16 -1 5.96893e-17
v -1.54597 -0.263642 0.24321
vn 1.19379e-16 1 -5.96893e-17
v -1.58671 0.235293 0.367403
vn 0 4.84926e-17 1
v -1.58671 0.235293 0.367403
vn 0 -4.84926e-17 -1
v -1.72929 -0.263642 0.367403
vn -1.20171e-16 -1 6.00853e-17
v -1.72929 -0.263642 0.367403
vn 1.20171e-16 1 -6.00853e-17
v 1.72929 -0.263642 0.367403
vn 0 -5.23517e-17 -1
v 1.62745 0.29199 0.367403
vn 0 -5.65845e-17 -1
v 1.72929 0.29199 0.367403
vn 0 -5.36101e-17 -1
v 1.72929 0.29199 0.367403
vn 0 5.36101e-17 1
v 1.62745 0.29199 0.367403
vn 0 5.65845e-17 1
v 1.72929 -0.263642 0.367403
vn 0 5.23517e-17 1
v 1.62745 0.29199 0.367403
vn 0 4.52827e-17 1
v -1.62743 0.29199 0.367403
vn 0 5.17198e-17 1
v -1.62743 0.29199 0.367403
vn 0 -5.17198e-17 -1
v 1.62745 0.29199 0.367403
vn 0 -4.52827e-17 -1
v 1.89223 -0.263642 0.367403
vn 0 -5.63059e-17 -1
v 1.89223 -0.263642 0.367403
vn 0 5.63059e-17 1
v 1.55615 0.243797 0.0258732
vn 1.2044e-16 0.987429 0.158061
v 1.7191 0.243797 0.0258732
vn 1.20054e-16 0.98742 0.158121
v 1.57245 0.248333 0
vn 1.20054e-16 0.98742 0.158121
v 1.7028 0.248333 0
vn 1.20538e-16 0.987432 0.158046
v 1.57245 0.284619 0
vn 0 6.09537e-17 1
v 1.57245 0.248333 0
vn 0 6.06776e-17 1
v 1.7028 0.284619 0
vn 0 6.06776e-17 1
v 1.57245 0.284619 0
vn 0.987385 -1.111e-16 0.158339
v 1.7028 0.248333 0
vn 0 6.09537e-17 1
v -1.54597 0.133238 0.15524
vn 0 -3.86101e-17 -1
v -1.54597 0.133238 0.15524
vn 0 3.86101e-17 1
v -0.0183298 0.0652016 0.222511
vn 1 -1.11422e-16 6.82258e-33
v -0.0183298 -0.263642 0.15524
vn 1 -1.14143e-16 6.98924e-33
v -0.0183298 0.133238 0.15524
vn 1 -1.1738e-16 7.18743e-33
v -0.0183298 0.133238 0.15524
vn -1 1.1738e-16 -7.18743e-33
v -0.0183298 -0.263642 0.15524
vn -1 1.14143e-16 -6.98924e-33
v -0.0183298 0.0652016 0.222511
vn -1 1.11422e-16 -6.82258e-33
v -0.0183298 -0.29199 0.15524
vn 0 -5.87726e-17 -1
v -0.0183298 -0.29199 0.15524
vn 0 5.87726e-17 1
v 0.0183298 -0.263642 0.15524
vn -1 1.17798e-16 -7.213e-33
v 0.0183298 0.0652016 0.222511
vn -1 1.11154e-16 -6.80623e-33
v 0.0183298 0.133238 0.15524
vn -1 1.1738e-16 -7.18743e-33
v 0.0183298 0.133238 0.15524
vn 1 -1.1738e-16 7.18743e-33
v 0.0183298 0.0652016 0.222511
vn 1 -1.11154e-16 6.80623e-33
v 0.0183298 -0.263642 0.15524
vn 1 -1.17798e-16 7.213e-33
v 1.54597 0.133238 0.15524
vn 1 -1.14031e-16 6.98237e-33
v 1.54597 -0.263642 0.222511
vn 1 -1.12401e-16 6.88254e-33
v 1.54597 -0.263642 0.15524
vn 1 -1.17499e-16 7.19472e-33
v 1.54597 -0.263642 0.15524
vn -1 1.17499e-16 -7.19472e-33
v 1.54597 -0.263642 0.222511
vn -1 1.12401e-16 -6.88254e-33
v 1.54597 0.133238 0.15524
vn -1 1.14031e-16 -6.98237e-33
v 1.54597 -0.29199 0.15524
vn 0 -5.87726e-17 -1
v 1.54597 -0.29199 0.15524
vn 0 5.87726e-17 1
v 0.0183298 -0.29199 0.15524
vn -1 1.18218e-16 -7.23875e-33
v 0.0183298 -0.29199 0.15524
vn 1 -1.18218e-16 7.23875e-33
v 1.7191 -0.215449 0.0258732
vn -0.987311 1.30198e-16 0.158799
v 1.7028 -0.256271 0
vn -0.987311 1.30198e-16 0.158799
v 1.7191 -0.260808 0.0258732
vn -0.987368 1.30377e-16 0.158446
v 1.54597 -0.263642 0.222511
vn 1.19044e-16 1 -5.95219e-17
v 1.54597 -0.263642 0.222511
vn -1.19044e-16 -1 5.95219e-17
v 1.7191 -0.215449 0.0258732
vn -1.20439e-16 -0.987426 0.15808
v 1.55615 -0.215449 0.0258732
vn -1.20053e-16 -0.987417 0.15814
v 1.7028 -0.219986 0
vn -1.20053e-16 -0.987417 0.15814
v 1.57245 -0.219986 0
vn 0 6.09537e-17 1
v 1.57245 -0.256271 0
vn 0 6.06776e-17 1
v 1.7028 -0.219986 0
vn 0 6.06776e-17 1
v 1.57245 -0.219986 0
vn -1.20536e-16 -0.987429 0.158063
v 1.7028 -0.256271 0
vn 0 6.09537e-17 1
v -1.54597 0.133238 0.15524
vn -1 1.1738e-16 -7.18743e-33
v -1.54597 0.133238 0.15524
vn 1 -1.1738e-16 7.18743e-33
v -1.54597 -0.263642 0.24321
vn -1 1.20149e-16 -7.357e-33
v -1.54597 -0.263642 0.24321
vn 1 -1.20149e-16 7.357e-33
v -1.54597 -0.263642 0.222511
vn 0 4.00912e-17 1
v -0.0183298 -0.29199 0.222511
vn 0 2.98019e-17 1
v -1.54597 0.0652016 0.222511
vn 0 2.89756e-17 1
v -1.54597 0.0652016 0.222511
vn 0 -2.89756e-17 -1
v -0.0183298 -0.29199 0.222511
vn 0 -2.98019e-17 -1
v -1.54597 -0.263642 0.222511
vn 0 -4.00912e-17 -1
v -1.54597 -0.29199 0.222511
vn -1 1.22142e-16 -7.47904e-33
v -1.54597 -0.29199 0.222511
vn 1 -1.22142e-16 7.47904e-33
v -1.58671 0.235293 0.367403
vn 0.915557 -0.0816973 0.393803
v -1.72929 -0.263642 0.367403
vn 0.915557 -0.0816973 0.393803
v -1.54597 -0.263642 0.24321
vn 0.915557 -0.0816973 0.393803
v -1.54597 -0.263642 0.24321
vn -0.915557 0.0816973 -0.393803
v -1.72929 -0.263642 0.367403
vn -0.915557 0.0816973 -0.393803
v -1.58671 0.235293 0.367403
vn -0.915557 0.0816973 -0.393803
v 1.58671 0.235293 0.367403
vn 0 -5.95961e-17 -1
v 1.58671 0.235293 0.367403
vn 0 5.95961e-17 1
v -1.54597 0.235293 0.367403
vn 0 5.63867e-17 1
v -1.54597 0.235293 0.367403
vn 0 -5.63867e-17 -1
v 1.54597 -0.263642 0.24321
vn 1.19379e-16 1 -5.96893e-17
v 1.72929 -0.263642 0.367403
vn 1.20171e-16 1 -6.00853e-17
v 1.72929 -0.263642 0.367403
vn -1.20171e-16 -1 6.00853e-17
v 1.54597 -0.263642 0.24321
vn -1.19379e-16 -1 5.96893e-17
v -1.54597 0.133238 0.222511
vn 1.02577e-16 1 -5.12881e-17
v -0.0183298 0.133238 0.15524
vn 1.02178e-16 1 -5.1089e-17
v -1.54597 0.133238 0.15524
vn 1.11642e-16 1 -5.58208e-17
v -1.54597 0.133238 0.15524
vn -1.11642e-16 -1 5.58208e-17
v -0.0183298 0.133238 0.15524
vn -1.02178e-16 -1 5.1089e-17
v -1.54597 0.133238 0.222511
vn -1.02577e-16 -1 5.12881e-17
v 0.0183298 0.133238 0.222511
vn 1.02178e-16 1 -5.1089e-17
v 0.0183298 0.133238 0.15524
vn 1.11406e-16 1 -5.57027e-17
v 0.0183298 0.133238 0.15524
vn -1.11406e-16 -1 5.57027e-17
v 0.0183298 0.133238 0.222511
vn -1.02178e-16 -1 5.1089e-17
v -0.0183298 -0.29199 0.222511
vn 1 -1.18218e-16 7.23875e-33
v -0.0183298 -0.29199 0.222511
vn -1 1.18218e-16 -7.23875e-33
v -0.0183298 0.133238 0.222511
vn 1 -1.17472e-16 7.19306e-33
v -0.0183298 0.133238 0.222511
vn -1 1.17472e-16 -7.19306e-33
v -0.0183298 -0.29199 0.15524
vn 1 -1.22142e-16 7.47904e-33
v -0.0183298 -0.29199 0.15524
vn -1 1.22142e-16 -7.47904e-33
v -0.0183298 -0.29199 0.222511
vn -1.02577e-16 -1 5.12881e-17
v -1.54597 -0.29199 0.15524
vn -1.02577e-16 -1 5.12881e-17
v -0.0183298 -0.29199 0.15524
vn -1.11642e-16 -1 5.58208e-17
v -0.0183298 -0.29199 0.15524
vn 1.11642e-16 1 -5.58208e-17
v -1.54597 -0.29199 0.15524
vn 1.02577e-16 1 -5.12881e-17
v -0.0183298 -0.29199 0.222511
vn 1.02577e-16 1 -5.12881e-17
v 1.54597 0.133238 0.15524
vn 1.02577e-16 1 -5.12881e-17
v 1.54597 0.133238 0.15524
vn -1.02577e-16 -1 5.12881e-17
v 0.0183298 0.133238 0.222511
vn -1 1.17472e-16 -7.19306e-33
v 0.0183298 0.133238 0.222511
vn 1 -1.17472e-16 7.19306e-33
v 1.54597 0.0652016 0.222511
vn 1 -1.16816e-16 7.15288e-33
v 1.54597 0.0652016 0.222511
vn -1 1.16816e-16 -7.15288e-33
v 1.54597 -0.29199 0.222511
vn 1 -1.21821e-16 7.45939e-33
v 1.54597 -0.29199 0.222511
vn -1 1.21821e-16 -7.45939e-33
v 1.54597 -0.29199 0.15524
vn 1 -1.22142e-16 7.47904e-33
v 1.54597 -0.29199 0.15524
vn -1 1.22142e-16 -7.47904e-33
v 1.54597 -0.29199 0.15524
vn -1.02577e-16 -1 5.12881e-17
v 0.0183298 -0.29199 0.222511
vn -1.02577e-16 -1 5.12881e-17
v 0.0183298 -0.29199 0.15524
vn -1.11642e-16 -1 5.58208e-17
v 0.0183298 -0.29199 0.15524
vn 1.11642e-16 1 -5.58208e-17
v 0.0183298 -0.29199 0.222511
vn 1.02577e-16 1 -5.12881e-17
v 1.54597 -0.29199 0.15524
vn 1.02577e-16 1 -5.12881e-17
v 0.0183298 -0.29199 0.222511
vn -1 1.1852e-16 -7.25726e-33
v 0.0183298 -0.29199 0.222511
vn 1 -1.1852e-16 7.25726e-33
v 1.7028 -0.219986 0
vn -0.987382 1.30422e-16 0.158356
v -1.54597 0.133238 0.222511
vn -1 1.21224e-16 -7.42278e-33
v -1.54597 0.133238 0.222511
vn 1 -1.21224e-16 7.42278e-33
v -1.54597 0.0797806 0.24321
vn -1 1.18958e-16 -7.28404e-33
v -1.54597 0.0797806 0.24321
vn 1 -1.18958e-16 7.28404e-33
v -1.54597 -0.29199 0.222511
vn 0 5.87726e-17 1
v -1.54597 -0.29199 0.222511
vn 0 -5.87726e-17 -1
v -0.0183298 0.0652016 0.222511
vn 0 3.54311e-17 1
v -0.0183298 0.0652016 0.222511
vn 0 -3.54311e-17 -1
v -1.54597 -0.29199 0.222511
vn -1.11642e-16 -1 5.58208e-17
v -1.54597 -0.29199 0.222511
vn 1.11642e-16 1 -5.58208e-17
v -1.54597 0.0797806 0.24321
vn 0.995734 -1.09369e-16 0.0922695
v -1.58671 0.235293 0.367403
vn 0.995705 -1.09109e-16 0.0925854
v -1.54597 -0.263642 0.24321
vn 0.995842 -1.10334e-16 0.0910979
v -1.54597 -0.263642 0.24321
vn -0.995842 1.10334e-16 -0.0910979
v -1.58671 0.235293 0.367403
vn -0.995705 1.09109e-16 -0.0925854
v -1.54597 0.0797806 0.24321
vn -0.995734 1.09369e-16 -0.0922695
v 1.58671 0.235293 0.367403
vn 0.915557 0.0816973 -0.393803
v 1.72929 -0.263642 0.367403
vn 0.915557 0.0816973 -0.393803
v 1.54597 -0.263642 0.24321
vn 0.915557 0.0816973 -0.393803
v 1.54597 -0.263642 0.24321
vn -0.915557 -0.0816973 0.393803
v 1.72929 -0.263642 0.367403
vn -0.915557 -0.0816973 0.393803
v 1.58671 0.235293 0.367403
vn -0.915557 -0.0816973 0.393803
v 1.54597 0.235293 0.367403
vn 0 5.63867e-17 1
v 1.58671 0.235293 0.367403
vn 0 6.10959e-17 1
v 1.58671 0.235293 0.367403
vn 0 -6.10959e-17 -1
v 1.54597 0.235293 0.367403
vn 0 -5.63867e-17 -1
v -1.58671 0.235293 0.367403
vn -1.02413e-16 -0.841008 0.541022
v -1.54597 0.147817 0.24321
vn -8.39364e-17 -0.835753 0.549105
v -1.54597 0.235293 0.367403
vn -7.0861e-17 -0.831989 0.554792
v -1.54597 0.235293 0.367403
vn 7.0861e-17 0.831989 -0.554792
v -1.54597 0.147817 0.24321
vn 8.39364e-17 0.835753 -0.549105
v -1.58671 0.235293 0.367403
vn 1.02413e-16 0.841008 -0.541022
v -0.0183298 0.235293 0.367403
vn 0 5.63983e-17 1
v -0.0183298 0.235293 0.367403
vn 0 -5.63983e-17 -1
v -0.0183298 0.133238 0.222511
vn 1.11406e-16 1 -5.57027e-17
v -0.0183298 0.133238 0.222511
vn -1.11406e-16 -1 5.57027e-17
v -1.54597 0.133238 0.222511
vn 0 5.09894e-17 1
v -0.0183298 0.133238 0.222511
vn 0 5.56434e-17 1
v -0.0183298 0.133238 0.222511
vn 0 -5.56434e-17 -1
v -1.54597 0.133238 0.222511
vn 0 -5.09894e-17 -1
v -0.0183298 0.233446 0.461374
vn 1 -1.17506e-16 7.19516e-33
v -0.0183298 0.233446 0.461374
vn -1 1.17506e-16 -7.19516e-33
v 1.54597 0.133238 0.222511
vn 1.11642e-16 1 -5.58208e-17
v 1.54597 0.133238 0.222511
vn -1.11642e-16 -1 5.58208e-17
v 1.54597 0.0652016 0.222511
vn 0 3.54311e-17 1
v 0.0183298 0.133238 0.222511
vn 0 5.09894e-17 1
v 0.0183298 0.0652016 0.222511
vn 0 2.84129e-17 1
v 0.0183298 0.0652016 0.222511
vn 0 -2.84129e-17 -1
v 0.0183298 0.133238 0.222511
vn 0 -5.09894e-17 -1
v 1.54597 0.0652016 0.222511
vn 0 -3.54311e-17 -1
v 0.0183298 0.233446 0.461374
vn -1 1.17506e-16 -7.19516e-33
v 0.0183298 0.233446 0.461374
vn 1 -1.17506e-16 7.19516e-33
v 1.54597 0.133238 0.222511
vn 1 -1.21224e-16 7.42278e-33
v 1.54597 0.133238 0.222511
vn -1 1.21224e-16 -7.42278e-33
v 1.54597 -0.29199 0.222511
vn 0 2.98019e-17 1
v 1.54597 -0.263642 0.222511
vn 0 6.12323e-17 1
v 1.54597 -0.263642 0.222511
vn 0 -6.12323e-17 -1
v 1.54597 -0.29199 0.222511
vn 0 -2.98019e-17 -1
v 1.54597 0.0797806 0.24321
vn 1 -1.17878e-16 7.21794e-33
v 1.54597 0.0797806 0.24321
vn -1 1.17878e-16 -7.21794e-33
v 1.54597 -0.29199 0.222511
vn -1.11642e-16 -1 5.58208e-17
v 1.54597 -0.29199 0.222511
vn 1.11642e-16 1 -5.58208e-17
v 0.0183298 -0.29199 0.222511
vn 0 4.00912e-17 1
v 0.0183298 -0.29199 0.222511
vn 0 -4.00912e-17 -1
v 1.54597 -0.263642 0.24321
vn 1 -1.21271e-16 7.42568e-33
v 1.54597 -0.263642 0.24321
vn -1 1.21271e-16 -7.42568e-33
v -1.54597 0.0652016 0.222511
vn 7.32756e-06 -0.840153 0.54235
v -0.0183298 0.233446 0.461374
vn 7.32756e-06 -0.840153 0.54235
v -1.54597 0.0797806 0.24321
vn 7.32756e-06 -0.840153 0.54235
v -1.54597 0.0797806 0.24321
vn -7.32756e-06 0.840153 -0.54235
v -0.0183298 0.233446 0.461374
vn -7.32756e-06 0.840153 -0.54235
v -1.54597 0.0652016 0.222511
vn -7.32756e-06 0.840153 -0.54235
v -0.0183298 0.233446 0.461374
vn -5.68664e-17 -0.827918 0.56085
v -1.54597 0.0652016 0.222511
vn -7.23396e-17 -0.832416 0.554151
v -0.0183298 0.0652016 0.222511
vn -7.23396e-17 -0.832416 0.554151
v -0.0183298 0.0652016 0.222511
vn 7.23396e-17 0.832416 -0.554151
v -1.54597 0.0652016 0.222511
vn 7.23396e-17 0.832416 -0.554151
v -0.0183298 0.233446 0.461374
vn 5.68664e-17 0.827918 -0.56085
v -1.54597 0.133238 0.24321
vn 0.996405 -1.15583e-16 0.0847175
v -1.54597 0.133238 0.24321
vn -0.996405 1.15583e-16 -0.0847175
v 1.54597 0.0797806 0.24321
vn 0.995734 -1.18879e-16 -0.0922695
v 1.58671 0.235293 0.367403
vn 0.995705 -1.18596e-16 -0.0925854
v 1.54597 -0.263642 0.24321
vn 0.995842 -1.19928e-16 -0.0910979
v 1.54597 -0.263642 0.24321
vn -0.995842 1.19928e-16 0.0910979
v 1.58671 0.235293 0.367403
vn -0.995705 1.18596e-16 0.0925854
v 1.54597 0.0797806 0.24321
vn -0.995734 1.18879e-16 0.0922695
v 0.0183298 0.235293 0.367403
vn 0 5.63983e-17 1
v 0.0183298 0.235293 0.367403
vn 0 -5.63983e-17 -1
v 1.54597 0.235293 0.367403
vn -7.6875e-17 -0.833725 0.55218
v 1.54597 0.147817 0.24321
vn -3.33565e-08 -0.831576 0.555411
v 1.58671 0.235293 0.367403
vn -1.0172e-16 -0.840812 0.541327
v 1.58671 0.235293 0.367403
vn 1.0172e-16 0.840812 -0.541327
v 1.54597 0.147817 0.24321
vn 1.02413e-16 0.841008 -0.541022
v 1.54597 0.235293 0.367403
vn 7.6875e-17 0.833725 -0.55218
v -1.58671 0.133238 0.222511
vn -1.22741e-05 -0.840981 0.541065
v -1.54597 0.147817 0.24321
vn -1.22741e-05 -0.840981 0.541065
v -1.58671 0.235293 0.367403
vn -1.22741e-05 -0.840981 0.541065
v -1.58671 0.235293 0.367403
vn 1.22741e-05 0.840981 -0.541065
v -1.54597 0.147817 0.24321
vn 1.22741e-05 0.840981 -0.541065
v -1.58671 0.133238 0.222511
vn 1.22741e-05 0.840981 -0.541065
v -1.54597 0.147817 0.24321
vn 0.996516 -1.1666e-16 0.0834072
v -1.54597 0.147817 0.24321
vn -0.996516 1.1666e-16 -0.0834072
v -0.0183298 0.235293 0.367403
vn -6.44796e-17 -0.830139 0.557557
v -0.0183298 0.235293 0.367403
vn 6.44796e-17 0.830139 -0.557557
v -1.54597 0.147817 0.24321
vn -1 1.20474e-16 -7.37688e-33
v -1.54597 0.233446 0.461374
vn -1 1.17948e-16 -7.2222e-33
v -1.54597 0.235293 0.367403
vn -1 1.2033e-16 -7.3681e-33
v -1.54597 0.235293 0.367403
vn 1 -1.2033e-16 7.3681e-33
v -1.54597 0.233446 0.461374
vn 1 -1.17948e-16 7.2222e-33
v -1.54597 0.147817 0.24321
vn 1 -1.20474e-16 7.37688e-33
v -0.0183298 0.280403 0.431448
vn -8.39322e-17 -0.835754 0.549104
v -0.0183298 0.280403 0.431448
vn 8.39322e-17 0.835754 -0.549104
v -1.54597 0.133238 0.222511
vn 3.82168e-08 -0.834497 0.551013
v -0.0183298 0.133238 0.222511
vn -8.11438e-17 -0.834954 0.55032
v -0.0183298 0.133238 0.222511
vn 8.11438e-17 0.834954 -0.55032
v -1.54597 0.133238 0.222511
vn -3.82168e-08 0.834497 -0.551013
v 0.0183298 0.235293 0.367403
vn -2.88127e-08 -0.828827 0.559504
v 0.0183298 0.133238 0.222511
vn -3.80641e-08 -0.834405 0.551152
v 0.0183298 0.133238 0.222511
vn 3.80641e-08 0.834405 -0.551152
v 0.0183298 0.235293 0.367403
vn 2.88127e-08 0.828827 -0.559504
v -0.0183298 0.235293 0.367403
vn 1 -1.201e-16 7.354e-33
v -0.0183298 0.235293 0.367403
vn -1 1.201e-16 -7.354e-33
v 1.54597 0.133238 0.222511
vn 0 5.56434e-17 1
v 1.54597 0.133238 0.222511
vn 0 -5.56434e-17 -1
v 1.54597 0.147817 0.24321
vn -9.93651e-17 -0.840152 0.54235
v 1.54597 0.133238 0.222511
vn -9.87121e-17 -0.839967 0.542637
v 1.54597 0.133238 0.222511
vn 9.87121e-17 0.839967 -0.542637
v 1.54597 0.147817 0.24321
vn 3.26764e-08 0.83117 -0.556018
v 1.54597 0.0797806 0.24321
vn -9.93651e-17 -0.840153 0.54235
v 0.0183298 0.0652016 0.222511
vn -9.93651e-17 -0.840153 0.54235
v 1.54597 0.0652016 0.222511
vn -9.93651e-17 -0.840153 0.54235
v 1.54597 0.0652016 0.222511
vn 9.93651e-17 0.840153 -0.54235
v 0.0183298 0.0652016 0.222511
vn 9.93651e-17 0.840153 -0.54235
v 1.54597 0.0797806 0.24321
vn 9.93651e-17 0.840153 -0.54235
v 0.0183298 0.235293 0.367403
vn -1 1.201e-16 -7.354e-33
v 0.0183298 0.235293 0.367403
vn 1 -1.201e-16 7.354e-33
v 0.0183298 0.0652016 0.222511
vn -6.39551e-07 -0.832416 0.554151
v 1.54597 0.0797806 0.24321
vn -5.02754e-07 -0.827918 0.56085
v 0.0183298 0.233446 0.461374
vn -5.02754e-07 -0.827918 0.56085
v 0.0183298 0.233446 0.461374
vn 5.02754e-07 0.827918 -0.56085
v 1.54597 0.0797806 0.24321
vn 5.02754e-07 0.827918 -0.56085
v 0.0183298 0.0652016 0.222511
vn 6.39551e-07 0.832416 -0.554151
v -1.54597 0.133238 0.24321
vn -1 1.19769e-16 -7.33372e-33
v -1.54597 0.133238 0.24321
vn 1 -1.19769e-16 7.33372e-33
v -1.54597 0.0797806 0.24321
vn -7.42562e-17 -0.832969 0.553319
v -1.54597 0.233446 0.461374
vn -7.42562e-17 -0.832969 0.553319
v -1.54597 0.233446 0.461374
vn 7.42562e-17 0.832969 -0.553319
v -1.54597 0.0797806 0.24321
vn 7.42562e-17 0.832969 -0.553319
v 1.54597 0.133238 0.24321
vn 0.996405 -1.25634e-16 -0.0847175
v 1.54597 0.133238 0.24321
vn -0.996405 1.25634e-16 0.0847175
v 1.54597 0.280403 0.431448
vn -8.39322e-17 -0.835754 0.549104
v 1.54597 0.280403 0.431448
vn 8.39322e-17 0.835754 -0.549104
v 1.54597 0.233446 0.461374
vn 1 -1.17948e-16 7.2222e-33
v 1.54597 0.147817 0.24321
vn 1 -1.20474e-16 7.37688e-33
v 1.54597 0.235293 0.367403
vn 1 -1.2033e-16 7.3681e-33
v 1.54597 0.235293 0.367403
vn -1 1.2033e-16 -7.3681e-33
v 1.54597 0.147817 0.24321
vn -1 1.20474e-16 -7.37688e-33
v 1.54597 0.233446 0.461374
vn -1 1.17948e-16 -7.2222e-33
v 1.54597 0.133238 0.222511
vn 2.35571e-05 -0.84115 0.540801
v 1.58671 0.235293 0.367403
vn 2.35571e-05 -0.84115 0.540801
v 1.54597 0.147817 0.24321
vn 2.35571e-05 -0.84115 0.540801
v 1.54597 0.147817 0.24321
vn -2.35571e-05 0.84115 -0.540801
v 1.58671 0.235293 0.367403
vn -2.35571e-05 0.84115 -0.540801
v 1.54597 0.133238 0.222511
vn -2.35571e-05 0.84115 -0.540801
v 1.54597 0.147817 0.24321
vn 0.996516 -1.26804e-16 -0.0834072
v 1.54597 0.147817 0.24321
vn -0.996516 1.26804e-16 0.0834072
v -1.58671 0.133238 0.222511
vn -1.02914e-16 -0.84115 0.540801
v -1.58671 0.133238 0.222511
vn 1.02914e-16 0.84115 -0.540801
v -0.0183298 0.235293 0.367403
vn 3.51498e-06 -0.840152 0.54235
v -1.54597 0.147817 0.24321
vn 3.51498e-06 -0.840152 0.54235
v -1.54597 0.147817 0.24321
vn -3.51498e-06 0.840152 -0.54235
v -0.0183298 0.235293 0.367403
vn -3.51498e-06 0.840152 -0.54235
v -1.54597 0.280403 0.431448
vn -1 1.2173e-16 -7.45381e-33
v -1.54597 0.280403 0.431448
vn 1 -1.2173e-16 7.45381e-33
v -1.54597 0.280403 0.431448
vn -9.25008e-17 -0.8382 0.545362
v -1.54597 0.280403 0.431448
vn 9.25008e-17 0.8382 -0.545362
v -0.0183298 0.280403 0.431448
vn 1 -1.2173e-16 7.45381e-33
v -0.0183298 0.280403 0.431448
vn -1 1.2173e-16 -7.45381e-33
v 1.54597 0.133238 0.24321
vn 1 -1.19769e-16 7.33372e-33
v 1.54597 0.133238 0.24321
vn -1 1.19769e-16 -7.33372e-33
v 0.0183298 0.280403 0.431448
vn -1 1.2173e-16 -7.45381e-33
v 0.0183298 0.280403 0.431448
vn 1 -1.2173e-16 7.45381e-33
v 1.54597 0.233446 0.461374
vn -7.42562e-17 -0.832969 0.553319
v 1.54597 0.233446 0.461374
vn 7.42562e-17 0.832969 -0.553319
v -0.0183298 0.233446 0.461374
vn 6.02806e-17 0.566383 0.824142
v -1.54597 0.280403 0.431448
vn 6.02806e-17 0.566383 0.824142
v -1.54597 0.233446 0.461374
vn 6.48259e-17 0.569217 0.822188
v -1.54597 0.233446 0.461374
vn -6.48259e-17 -0.569217 -0.822188
v -1.54597 0.280403 0.431448
vn -6.02806e-17 -0.566383 -0.824142
v -0.0183298 0.233446 0.461374
vn -6.02806e-17 -0.566383 -0.824142
v 0.0183298 0.280403 0.431448
vn -9.25008e-17 -0.8382 0.545362
v 0.0183298 0.280403 0.431448
vn 9.25008e-17 0.8382 -0.545362
v 1.54597 0.280403 0.431448
vn 1 -1.2173e-16 7.45381e-33
v 1.54597 0.280403 0.431448
vn -1 1.2173e-16 -7.45381e-33
v 1.58671 0.133238 0.222511
vn -1.02313e-16 -0.840981 0.541065
v 1.58671 0.133238 0.222511
vn 1.02313e-16 0.840981 -0.541065
v -0.0183298 0.280403 0.431448
vn 6.48259e-17 0.569217 0.822188
v -0.0183298 0.280403 0.431448
vn -6.48259e-17 -0.569217 -0.822188
v 1.54597 0.280403 0.431448
vn -6.02806e-17 -0.566383 -0.824142
v 0.0183298 0.233446 0.461374
vn -6.02806e-17 -0.566383 -0.824142
v 0.0183298 0.280403 0.431448
vn -6.48259e-17 -0.569217 -0.822188
v 0.0183298 0.280403 0.431448
vn 6.48259e-17 0.569217 0.822188
v 0.0183298 0.233446 0.461374
vn 6.02806e-17 0.566383 0.824142
v 1.54597 0.280403 0.431448
vn 6.02806e-17 0.566383 0.824142
v 1.54597 0.233446 0.461374
vn -6.48259e-17 -0.569217 -0.822188
v 1.54597 0.233446 0.461374
vn 6.48259e-17 0.569217 0.822188
vt -0.034996 0.034996
vt 0 0
vt 0 0.034996
vt 0 0
vt -0.034996 0.034996
vt -0.034996 0
vt 0 0
vt -0.03937 0.027688
vt -0.034996 0
vt -0.03937 0.027688
vt 0 0
vt 0.004374 0.027688
vt 0.004374 0.033217
vt -0.034996 0.005529
vt 0 0.005529
vt -0.034996 0.005529
vt 0.004374 0.033217
vt -0.03937 0.033217
vt 0.03937 0.033217
vt 0 0.005529
vt 0.034996 0.005529
vt 0 0.005529
vt 0.03937 0.033217
vt -0.004374 0.033217
vt 0.03937 0.027688
vt 0 0
vt 0.034996 -0
vt 0 0
vt 0.03937 0.027688
vt -0.004374 0.027688
vt -0 -0.076887
vt 0.03937 -0.049199
vt -0.004374 -0.049199
vt 0.017498 -0.076887
vt 0.03937 -0.049199
vt -0 -0.076887
vt 0.03937 -0.049199
vt 0.017498 -0.076887
vt 0.034996 -0.076887
vt 0.486658 0.005529
vt 0.526028 0.033217
vt 0.482283 0.033217
vt 0.526028 0.033217
vt 0.486658 0.005529
vt 0.521654 0.005529
vt -0.526028 0.027688
vt -0.486658 -0
vt -0.482283 0.027688
vt -0.486658 -0
vt -0.526028 0.027688
vt -0.521654 -0
vt -0.034996 0.082416
vt 0.004374 0.110104
vt -0.03937 0.110104
vt 0.004374 0.110104
vt -0.034996 0.082416
vt 0 0.082416
vt 0 0.486658
vt -0.034996 0.521654
vt -0.017498 0.486658
vt -0.034996 0.521654
vt 0 0.486658
vt 0 0.521654
vt -0.017498 0.486658
vt -0.034996 0.521654
vt -0.034996 0.486658
vt -0.914261 0.082416
vt -0.874891 0.110104
vt -0.918635 0.110104
vt -0.874891 0.110104
vt -0.914261 0.082416
vt -0.879265 0.082416
vt -0.004374 -0.111227
vt 0.03937 -0.111227
vt 0 -0.138916
vt 0.034996 -0.138916
vt 0 -0.138916
vt 0.03937 -0.111227
vt 0.486658 0.144445
vt 0.526028 0.172133
vt 0.482283 0.172133
vt 0.526028 0.172133
vt 0.486658 0.144445
vt 0.521654 0.144445
vt -0.918635 0.027688
vt -0.874891 0.027688
vt -0.914261 -0
vt -0.879265 -0
vt -0.914261 -0
vt -0.874891 0.027688
vt -0.526028 -0.111227
vt -0.486658 -0.138916
vt -0.482283 -0.111227
vt -0.486658 -0.138916
vt -0.526028 -0.111227
vt -0.521654 -0.138916
vt 0.879265 -0.076887
vt 0.918635 -0.049199
vt 0.874891 -0.049199
vt 0.918635 -0.049199
vt 0.879265 -0.076887
vt 0.914261 -0.076887
vt -0.914261 0.521654
vt -0.879265 0.486658
vt -0.879265 0.521654
vt -0.879265 0.486658
vt -0.914261 0.521654
vt -0.914261 0.486658
vt 0.004374 0.172133
vt 0 0.144445
vt -0.03937 0.172133
vt -0.034996 0.144445
vt -0.03937 0.172133
vt 0 0.144445
vt -0.914261 0.005529
vt -0.874891 0.033217
vt -0.918635 0.033217
vt -0.874891 0.033217
vt -0.914261 0.005529
vt -0.879265 0.005529
vt -0.914261 0.034996
vt -0.879265 -0
vt -0.879265 0.034996
vt -0.879265 -0
vt -0.914261 0.034996
vt -0.914261 -0
vt 0 0.64
vt 0 0
vt -0.641527 0.64
vt -0.641527 0
vt -0.641527 0.64
vt 0 0
vt -0.641527 0
vt -0.721718 0.50636
vt 0 0
vt 0.080191 0.50636
vt 0 0
vt -0.721718 0.50636
vt 0 0.101114
vt -0.641527 0.101114
vt 0.080191 0.607473
vt -0.721718 0.607473
vt 0.080191 0.607473
vt -0.641527 0.101114
vt 0.641527 0.101114
vt 0 0.101114
vt 0.721718 0.607473
vt -0.080191 0.607473
vt 0.721718 0.607473
vt 0 0.101114
vt 0.641527 -0
vt 0 0
vt 0.721718 0.50636
vt -0.080191 0.50636
vt 0.721718 0.50636
vt 0 0
vt 0.721718 -0.08
vt -0.080191 0.72
vt -0.080191 -0.08
vt -0.080191 0.72
vt 0.721718 -0.08
vt 0.721718 0.72
vt 0.721718 -0.08
vt 0.771838 -0.13
vt 0.721718 0.72
vt -0.080191 -0.08
vt 0.771838 -0.13
vt 0.721718 -0.08
vt -0.080191 8.82
vt -0.080191 -0.08
vt -0.080191 0.72
vt 0.721718 8.82
vt -0.080191 0.72
vt 0.721718 0.72
vt -0.080191 8.82
vt -0.080191 0.72
vt 0.721718 8.82
vt -0.080191 8.82
vt -0.080191 -0.13
vt -0.080191 -0.08
vt 0.771838 -0.13
vt -0.080191 -0.08
vt -0.080191 -0.13
vt 16.0382 9.62
vt 0.721718 0.72
vt 0.771838 -0.13
vt 16.0382 9.62
vt 0.771838 -0.13
vt 15.9881 -0.13
vt 0.721718 8.82
vt 0.721718 0.72
vt 0.721718 9.62
vt 16.0382 9.62
vt 0.721718 9.62
vt 0.721718 0.72
vt 0.721718 8.82
vt -0.080191 9.62
vt -0.080191 8.82
vt -0.080191 9.62
vt 0.721718 8.82
vt 0.721718 9.62
vt -0.13031 9.67
vt -0.080191 -0.13
vt -0.080191 8.82
vt -0.080191 9.62
vt -0.13031 9.67
vt -0.080191 8.82
vt -0.080191 -0.13
vt -0.13031 9.67
vt -0.13031 -0.13
vt -0.13031 9.67
vt -0.080191 9.62
vt 16.8902 9.67
vt 16.8902 9.67
vt -0.080191 9.62
vt 0.721718 9.62
vt 16.8902 9.67
vt 0.721718 9.62
vt 16.0382 9.62
vt 16.8902 9.67
vt 16.0382 9.62
vt 16.8401 9.62
vt 16.8902 9.67
vt 16.8401 9.62
vt 16.8902 -0.13
vt 16.0382 9.62
vt 16.8401 8.82
vt 16.8401 9.62
vt 16.8401 8.82
vt 16.8902 -0.13
vt 16.8401 9.62
vt 16.8902 -0.13
vt 16.0382 -0.08
vt 15.9881 -0.13
vt 16.0382 -0.08
vt 16.8902 -0.13
vt 16.8401 -0.08
vt 16.8401 -0.08
vt 16.8902 -0.13
vt 16.8401 0.72
vt 16.8401 0.72
vt 16.8902 -0.13
vt 16.8401 8.82
vt 16.8401 8.82
vt 16.0382 9.62
vt 16.0382 8.82
vt 16.0382 8.82
vt 16.8401 0.72
vt 16.8401 8.82
vt 16.0382 0.72
vt 16.8401 -0.08
vt 16.8401 0.72
vt 16.8401 0.72
vt 16.0382 8.82
vt 16.0382 0.72
vt 16.8401 -0.08
vt 16.0382 0.72
vt 16.0382 -0.08
vt 16.0382 9.62
vt 15.9881 -0.13
vt 16.0382 -0.08
vt 16.0382 9.62
vt 16.0382 -0.08
vt 16.0382 0.72
vt 16.0382 9.62
vt 16.0382 0.72
vt 16.0382 8.82
vt -0.080191 -0.08
vt -0.080191 0.72
vt 0.721718 -0.08
vt -0.080191 0.72
vt -0.080191 -0.08
vt -0.080191 8.82
vt 0.721718 -0.08
vt 0.771838 -0.13
vt -0.080191 -0.08
vt -0.080191 -0.08
vt -0.080191 -0.13
vt -0.080191 8.82
vt -0.080191 -0.13
vt -0.080191 -0.08
vt 0.771838 -0.13
vt 0.721718 0.72
vt 0.721718 -0.08
vt -0.080191 0.72
vt 0.721718 0.72
vt -0.080191 0.72
vt 0.721718 8.82
vt 0.721718 8.82
vt -0.080191 0.72
vt -0.080191 8.82
vt 0.721718 0.72
vt 0.771838 -0.13
vt 0.721718 -0.08
vt 0.771838 -0.13
vt 0.721718 0.72
vt 16.0382 9.62
vt 15.9881 -0.13
vt 0.771838 -0.13
vt 16.0382 9.62
vt 0.721718 9.62
vt 0.721718 0.72
vt 0.721718 8.82
vt 0.721718 0.72
vt 0.721718 9.62
vt 16.0382 9.62
vt -0.080191 8.82
vt -0.080191 9.62
vt 0.721718 8.82
vt 0.721718 9.62
vt 0.721718 8.82
vt -0.080191 9.62
vt 16.0382 9.62
vt 0.721718 9.62
vt 16.8902 9.67
vt 0.721718 9.62
vt -0.080191 9.62
vt 16.8902 9.67
vt -0.080191 8.82
vt -0.13031 9.67
vt -0.080191 9.62
vt 16.8902 9.67
vt -0.080191 9.62
vt -0.13031 9.67
vt 16.8401 9.62
vt 16.0382 9.62
vt 16.8902 9.67
vt 16.8902 -0.13
vt 16.8401 9.62
vt 16.8902 9.67
vt 16.8401 9.62
vt 16.8401 8.82
vt 16.0382 9.62
vt 16.8401 9.62
vt 16.8902 -0.13
vt 16.8401 8.82
vt 15.9881 -0.13
vt 16.0382 -0.08
vt 16.8902 -0.13
vt 16.8401 -0.08
vt 16.8902 -0.13
vt 16.0382 -0.08
vt 16.8401 0.72
vt 16.8902 -0.13
vt 16.8401 -0.08
vt 16.8401 8.82
vt 16.8902 -0.13
vt 16.8401 0.72
vt 16.0382 8.82
vt 16.0382 9.62
vt 16.8401 8.82
vt 16.8401 8.82
vt 16.8401 0.72
vt 16.0382 8.82
vt 16.8401 0.72
vt 16.8401 -0.08
vt 16.0382 0.72
vt 16.0382 0.72
vt 16.0382 8.82
vt 16.8401 0.72
vt 16.0382 -0.08
vt 16.0382 0.72
vt 16.8401 -0.08
vt 16.0382 -0.08
vt 15.9881 -0.13
vt 16.0382 9.62
vt 16.0382 0.72
vt 16.0382 -0.08
vt 16.0382 9.62
vt 16.0382 8.82
vt 16.0382 0.72
vt 16.0382 9.62
vt -0.080191 8.82
vt -0.080191 -0.13
vt -0.13031 9.67
vt -0.13031 -0.13
vt -0.13031 9.67
vt -0.080191 -0.13
vt -0.080191 -0.899756
vt 0.721718 -0.899756
vt -0 -1.40612
vt -0 -1.40612
vt 0.721718 -0.899756
vt 0.320764 -1.40612
vt 0.641527 -1.40612
vt 0.320764 -1.40612
vt 0.721718 -0.899756
vt 8.84105 0.607473
vt 9.64296 0.607473
vt 8.92124 0.101114
vt 9.56277 0.101114
vt 8.92124 0.101114
vt 9.64296 0.607473
vt 0.771838 3
vt -0.080191 0.5
vt 0.771838 0.5
vt -0.080191 0.5
vt 0.771838 3
vt -0.13031 0.5
vt -0.13031 0.5
vt 0.771838 3
vt -0.93222 7.1
vt -0.93222 7.1
vt 0.771838 3
vt 0.771838 4.3
vt -0.93222 7.1
vt 0.771838 4.3
vt 0.771838 4.7
vt -0.93222 7.1
vt 0.771838 4.7
vt -0.13031 7.1
vt 0.771838 0.5
vt -0.080191 0.5
vt 0.771838 3
vt -0.13031 0.5
vt 0.771838 3
vt -0.080191 0.5
vt -0.93222 7.1
vt 0.771838 3
vt -0.13031 0.5
vt 0.771838 4.3
vt 0.771838 3
vt -0.93222 7.1
vt 0.771838 4.7
vt 0.771838 4.3
vt -0.93222 7.1
vt -0.13031 7.1
vt 0.771838 4.7
vt -0.93222 7.1
vt -8.84105 0.50636
vt -8.92124 -0
vt -9.64296 0.50636
vt -9.56277 -0
vt -9.64296 0.50636
vt -8.92124 -0
vt -0.721718 2.01359
vt 0.080191 2.01359
vt -0.641527 1.50723
vt 0 1.50723
vt -0.641527 1.50723
vt 0.080191 2.01359
vt -0.771838 3
vt -15.9881 0.5
vt -0.771838 0.5
vt -15.9881 0.5
vt -0.771838 3
vt -8.47017 3
vt -8.47017 3
vt -0.771838 3
vt -8.28974 3
vt -15.9881 3
vt -15.9881 0.5
vt -8.47017 3
vt -15.9881 3
vt -16.8902 0.5
vt -15.9881 0.5
vt -16.8902 0.5
vt -15.9881 3
vt -17.6921 7.1
vt -17.6921 7.1
vt -15.9881 3
vt -15.9881 4.3
vt -17.6921 7.1
vt -15.9881 4.7
vt -16.8902 7.1
vt -17.6921 7.1
vt -15.9881 4.3
vt -15.9881 4.7
vt -0.771838 0.5
vt -15.9881 0.5
vt -0.771838 3
vt -8.47017 3
vt -0.771838 3
vt -15.9881 0.5
vt -8.47017 3
vt -15.9881 0.5
vt -15.9881 3
vt -15.9881 0.5
vt -16.8902 0.5
vt -15.9881 3
vt -8.28974 3
vt -0.771838 3
vt -8.47017 3
vt -17.6921 7.1
vt -15.9881 3
vt -16.8902 0.5
vt -15.9881 4.3
vt -15.9881 3
vt -17.6921 7.1
vt -16.8902 7.1
vt -15.9881 4.7
vt -17.6921 7.1
vt -15.9881 4.7
vt -15.9881 4.3
vt -17.6921 7.1
vt 9.69308 7.1
vt -0.13031 0.5
vt 9.69308 0.5
vt 9.69308 0.5
vt -0.13031 0.5
vt 9.69308 7.1
vt -0.320764 8.9
vt -0.641527 9.54
vt 0 8.9
vt -0.641527 8.9
vt -0.641527 9.54
vt -0.320764 8.9
vt 0 9.54
vt 0 8.9
vt -0.641527 9.54
vt 9.65034 7.15865
vt -0.205725 7.15865
vt -0.140481 0.510662
vt -0.140481 0.510662
vt -0.205725 7.15865
vt 9.65034 7.15865
vt -0.13031 0.5
vt 16.389 7.1
vt -0.13031 7.1
vt 16.8902 7.1
vt -0.13031 0.5
vt 16.8902 0.5
vt -0.13031 0.5
vt 16.8902 7.1
vt 16.389 7.1
vt -0.13031 7.1
vt 16.389 7.1
vt 0.370883 7.1
vt -0.13031 7.1
vt 16.389 7.1
vt -0.13031 0.5
vt 0.370883 7.1
vt 16.389 7.1
vt -0.13031 7.1
vt 16.389 7.1
vt 16.8902 7.1
vt -0.13031 0.5
vt 16.8902 0.5
vt -0.13031 0.5
vt 16.8902 7.1
vt -16.8401 2.01359
vt -16.0382 2.01359
vt -16.7599 1.50723
vt -16.1184 1.50723
vt -16.7599 1.50723
vt -16.0382 2.01359
vt 0 -2.54049
vt 0.721718 -2.03413
vt -0.080191 -2.03413
vt 0.721718 -2.03413
vt 0 -2.54049
vt 0.641527 -2.54049
vt -0.13031 -0.13
vt -0.13031 9.67
vt -0.93222 -0.13
vt -0.13031 9.67
vt -0.13031 -0.13
vt 0.57136 8.67
vt -0.13031 9.67
vt 0.57136 8.67
vt 0.370883 9.67
vt 0.57136 8.67
vt 16.389 9.67
vt 0.370883 9.67
vt 16.389 9.67
vt 0.57136 8.67
vt 0.771838 8.67
vt 16.389 9.67
vt 15.9881 8.67
vt 16.1885 8.67
vt 16.389 9.67
vt 0.771838 8.67
vt 8.28974 8.67
vt 16.389 9.67
vt 8.47017 8.67
vt 15.9881 8.67
vt 16.389 9.67
vt 8.28974 8.67
vt 8.47017 8.67
vt -0.93222 -0.13
vt -0.13031 9.67
vt -0.13031 -0.13
vt 0.57136 8.67
vt -0.13031 -0.13
vt -0.13031 9.67
vt 0.370883 9.67
vt 0.57136 8.67
vt -0.13031 9.67
vt 0.370883 9.67
vt 16.389 9.67
vt 0.57136 8.67
vt 0.771838 8.67
vt 0.57136 8.67
vt 16.389 9.67
vt 16.1885 8.67
vt 15.9881 8.67
vt 16.389 9.67
vt 8.28974 8.67
vt 0.771838 8.67
vt 16.389 9.67
vt 15.9881 8.67
vt 8.47017 8.67
vt 16.389 9.67
vt 8.47017 8.67
vt 8.28974 8.67
vt 16.389 9.67
vt -8.28672 0.5
vt 1.56934 7.1
vt -8.28672 7.1
vt -8.28672 7.1
vt 1.56934 7.1
vt -8.28672 0.5
vt 8.84105 3.14796
vt 9.64296 3.14796
vt 8.92124 2.6416
vt 9.56277 2.6416
vt 8.92124 2.6416
vt 9.64296 3.14796
vt -9.69308 2.52395
vt 0.13031 2.52395
vt 0.13031 9.17226
vt 0.13031 9.17226
vt 0.13031 2.52395
vt -9.69308 2.52395
vt -0.771838 -0.13
vt -8.28974 6.87
vt -8.28974 -0.13
vt -8.28974 -0.13
vt -0.771838 -0.63
vt -0.771838 -0.13
vt -8.28974 6.87
vt -0.771838 -0.13
vt -0.771838 6.87
vt -8.47017 6.87
vt -8.28974 -0.13
vt -8.28974 6.87
vt -8.28974 -0.13
vt -8.47017 6.87
vt -8.47017 -0.13
vt -0.771838 -0.63
vt -8.28974 -0.13
vt -8.28974 -0.63
vt -15.9881 6.87
vt -8.47017 -0.13
vt -8.47017 6.87
vt -8.47017 -0.13
vt -15.9881 6.87
vt -15.9881 -0.13
vt -15.9881 -0.13
vt -8.47017 -0.63
vt -8.47017 -0.13
vt -8.47017 -0.63
vt -15.9881 -0.13
vt -15.9881 -0.63
vt -8.28974 -0.13
vt -8.28974 6.87
vt -0.771838 -0.13
vt -0.771838 -0.13
vt -0.771838 -0.63
vt -8.28974 -0.13
vt -8.47017 -0.13
vt -8.47017 6.87
vt -8.28974 -0.13
vt -8.28974 6.87
vt -8.28974 -0.13
vt -8.47017 6.87
vt -8.28974 -0.63
vt -8.28974 -0.13
vt -0.771838 -0.63
vt -0.771838 6.87
vt -0.771838 -0.13
vt -8.28974 6.87
vt -8.47017 6.87
vt -8.47017 -0.13
vt -15.9881 6.87
vt -15.9881 -0.13
vt -15.9881 6.87
vt -8.47017 -0.13
vt -8.47017 -0.13
vt -8.47017 -0.63
vt -15.9881 -0.13
vt -15.9881 -0.63
vt -15.9881 -0.13
vt -8.47017 -0.63
vt -16.7599 -0
vt -16.0382 0.50636
vt -16.8401 0.50636
vt -16.0382 0.50636
vt -16.7599 -0
vt -16.1184 -0
vt -8.84105 -2.03413
vt -8.92124 -2.54049
vt -9.64296 -2.03413
vt -9.56277 -2.54049
vt -9.64296 -2.03413
vt -8.92124 -2.54049
vt -5.68353 4.3
vt 0.13031 3
vt 0.13031 4.3
vt 0.13031 3
vt -5.68353 4.3
vt -6.8864 3
vt 0.13031 4.7
vt -5.68353 4.3
vt 0.13031 4.3
vt -6.8864 3
vt -5.68353 4.3
vt -6.8864 4.3
vt -5.68353 4.3
vt 0.13031 4.7
vt -5.94129 4.7
vt -5.94129 4.7
vt -6.8864 4.3
vt -5.68353 4.3
vt 0.631504 3
vt 0.13031 4.3
vt 0.13031 3
vt 0.13031 4.3
vt 0.631504 3
vt 0.631504 4.3
vt -6.8864 4.3
vt -5.94129 4.7
vt -6.8864 4.7
vt -7.14415 4.7
vt -6.8864 4.3
vt -6.8864 4.7
vt -8.65802 8.91597
vt -6.8864 4.7
vt -5.94129 4.7
vt -6.8864 4.7
vt -8.65802 8.91597
vt -7.14415 4.7
vt -7.14415 4.7
vt -8.65802 8.91597
vt -8.69069 7.1
vt -8.69069 7.1
vt -8.65802 8.91597
vt -9.48823 8.33766
vt 0.13031 4.3
vt 0.13031 3
vt -5.68353 4.3
vt 0.13031 3
vt 0.13031 4.3
vt 0.631504 3
vt 0.13031 4.3
vt -5.68353 4.3
vt 0.13031 4.7
vt 0.631504 4.3
vt 0.631504 3
vt 0.13031 4.3
vt -6.8864 3
vt -5.68353 4.3
vt 0.13031 3
vt -6.8864 4.3
vt -5.68353 4.3
vt -6.8864 3
vt -5.94129 4.7
vt 0.13031 4.7
vt -5.68353 4.3
vt -5.68353 4.3
vt -6.8864 4.3
vt -5.94129 4.7
vt -6.8864 4.7
vt -5.94129 4.7
vt -6.8864 4.3
vt -6.8864 4.7
vt -6.8864 4.3
vt -7.14415 4.7
vt -5.94129 4.7
vt -6.8864 4.7
vt -8.65802 8.91597
vt -7.14415 4.7
vt -8.65802 8.91597
vt -6.8864 4.7
vt -8.69069 7.1
vt -8.65802 8.91597
vt -7.14415 4.7
vt -9.48823 8.33766
vt -8.65802 8.91597
vt -8.69069 7.1
vt -16.8902 -0.13
vt -16.389 9.67
vt -16.8902 9.67
vt -16.8902 -0.13
vt -16.8902 9.67
vt -17.6921 -0.13
vt -16.389 9.67
vt -16.8902 -0.13
vt -16.1885 8.67
vt -16.8902 9.67
vt -16.389 9.67
vt -16.8902 -0.13
vt -17.6921 -0.13
vt -16.8902 9.67
vt -16.8902 -0.13
vt -16.1885 8.67
vt -16.8902 -0.13
vt -16.389 9.67
vt 16.0382 -0.899756
vt 16.8401 -0.899756
vt 16.1184 -1.40612
vt 16.7599 -1.40612
vt 16.1184 -1.40612
vt 16.8401 -0.899756
vt -16.1184 9.54
vt -16.1184 8.9
vt -16.7599 9.54
vt -16.7599 8.9
vt -16.7599 9.54
vt -16.1184 8.9
vt 5.68353 4.3
vt -0.13031 3
vt 6.8864 3
vt -0.631504 4.3
vt -0.13031 3
vt 5.68353 4.3
vt 5.68353 4.3
vt 6.8864 3
vt 6.8864 4.3
vt 6.8864 4.3
vt 8.65802 8.91597
vt 5.68353 4.3
vt -0.13031 3
vt -0.631504 4.3
vt -0.631504 3
vt 8.65802 8.91597
vt 6.8864 4.3
vt 8.69069 7.1
vt 8.65802 8.91597
vt 8.69069 7.1
vt 9.48823 8.33766
vt 6.8864 3
vt -0.13031 3
vt 5.68353 4.3
vt 6.8864 4.3
vt 6.8864 3
vt 5.68353 4.3
vt 5.68353 4.3
vt -0.13031 3
vt -0.631504 4.3
vt -0.631504 3
vt -0.631504 4.3
vt -0.13031 3
vt 5.68353 4.3
vt 8.65802 8.91597
vt 6.8864 4.3
vt 8.69069 7.1
vt 6.8864 4.3
vt 8.65802 8.91597
vt 9.48823 8.33766
vt 8.69069 7.1
vt 8.65802 8.91597
vt 0.13031 3
vt -5.68353 4.3
vt -6.8864 3
vt 0.631504 3
vt -5.68353 4.3
vt 0.13031 3
vt -6.8864 3
vt -5.68353 4.3
vt -6.8864 4.3
vt -5.68353 4.3
vt 0.631504 3
vt 0.631504 4.3
vt -8.65802 8.91597
vt -6.8864 4.3
vt -5.68353 4.3
vt -6.8864 4.3
vt -8.65802 8.91597
vt -8.69069 7.1
vt -8.69069 7.1
vt -8.65802 8.91597
vt -9.48823 8.33766
vt -6.8864 3
vt -5.68353 4.3
vt 0.13031 3
vt -6.8864 4.3
vt -5.68353 4.3
vt -6.8864 3
vt 0.13031 3
vt -5.68353 4.3
vt 0.631504 3
vt 0.631504 4.3
vt 0.631504 3
vt -5.68353 4.3
vt -5.68353 4.3
vt -6.8864 4.3
vt -8.65802 8.91597
vt -8.69069 7.1
vt -8.65802 8.91597
vt -6.8864 4.3
vt -9.48823 8.33766
vt -8.65802 8.91597
vt -8.69069 7.1
vt 6.8864 3
vt -0.13031 4.3
vt -0.13031 3
vt -0.13031 4.3
vt 6.8864 3
vt 5.68353 4.3
vt 5.68353 4.3
vt 6.8864 3
vt 6.8864 4.3
vt -0.631504 4.3
vt -0.13031 3
vt -0.13031 4.3
vt 5.94129 4.7
vt -0.13031 4.3
vt 5.68353 4.3
vt -0.13031 4.3
vt 5.94129 4.7
vt -0.13031 4.7
vt -0.13031 3
vt -0.631504 4.3
vt -0.631504 3
vt 6.8864 4.3
vt 5.94129 4.7
vt 5.68353 4.3
vt 5.94129 4.7
vt 6.8864 4.3
vt 6.8864 4.7
vt 6.8864 4.7
vt 8.65802 8.91597
vt 5.94129 4.7
vt 7.14415 4.7
vt 6.8864 4.7
vt 6.8864 4.3
vt 8.65802 8.91597
vt 6.8864 4.7
vt 7.14415 4.7
vt 8.65802 8.91597
vt 7.14415 4.7
vt 8.69069 7.1
vt 8.65802 8.91597
vt 8.69069 7.1
vt 9.48823 8.33766
vt -0.13031 3
vt -0.13031 4.3
vt 6.8864 3
vt -0.13031 4.3
vt -0.13031 3
vt -0.631504 4.3
vt -0.631504 3
vt -0.631504 4.3
vt -0.13031 3
vt 5.68353 4.3
vt 6.8864 3
vt -0.13031 4.3
vt 5.68353 4.3
vt -0.13031 4.3
vt 5.94129 4.7
vt -0.13031 4.7
vt 5.94129 4.7
vt -0.13031 4.3
vt 6.8864 4.3
vt 6.8864 3
vt 5.68353 4.3
vt 5.68353 4.3
vt 5.94129 4.7
vt 6.8864 4.3
vt 6.8864 4.7
vt 6.8864 4.3
vt 5.94129 4.7
vt 5.94129 4.7
vt 8.65802 8.91597
vt 6.8864 4.7
vt 6.8864 4.3
vt 6.8864 4.7
vt 7.14415 4.7
vt 7.14415 4.7
vt 6.8864 4.7
vt 8.65802 8.91597
vt 8.69069 7.1
vt 7.14415 4.7
vt 8.65802 8.91597
vt 9.48823 8.33766
vt 8.69069 7.1
vt 8.65802 8.91597
vt -0.721718 3.14796
vt 0 2.6416
vt 0.080191 3.14796
vt 0 2.6416
vt -0.721718 3.14796
vt -0.641527 2.6416
vt -16.8401 0.607473
vt -16.0382 0.607473
vt -16.7599 0.101114
vt -16.1184 0.101114
vt -16.7599 0.101114
vt -16.0382 0.607473
vt -16.1184 0.64
vt -16.1184 -0
vt -16.7599 0.64
vt -16.7599 -0
vt -16.7599 0.64
vt -16.1184 -0
vt 0.771838 -0.13
vt 8.28974 -0.63
vt 0.771838 5.67
vt 8.28974 -0.63
vt 0.771838 -0.13
vt 0.771838 -0.63
vt 0.771838 5.67
vt 8.28974 -0.63
vt 8.28974 5.67
vt 8.28974 5.67
vt 0.771838 6.87
vt 0.771838 5.67
vt 0.771838 6.87
vt 8.28974 5.67
vt 8.28974 6.87
vt 0.771838 5.67
vt 8.28974 -0.63
vt 0.771838 -0.13
vt 8.28974 5.67
vt 8.28974 -0.63
vt 0.771838 5.67
vt 0.771838 5.67
vt 0.771838 6.87
vt 8.28974 5.67
vt 0.771838 -0.63
vt 0.771838 -0.13
vt 8.28974 -0.63
vt 8.28974 6.87
vt 8.28974 5.67
vt 0.771838 6.87
vt 8.70863 6.69228
vt -0.140233 6.69228
vt -0.068697 4.13007
vt -0.068697 4.13007
vt -0.140233 6.69228
vt 8.70863 6.69228
vt -0.771838 4.3
vt -8.28974 3
vt -0.771838 3
vt -8.28974 3
vt -0.771838 4.3
vt -8.28974 4.3
vt -8.28974 3
vt -8.47017 4.3
vt -8.47017 3
vt -8.47017 4.3
vt -8.28974 3
vt -8.28974 4.3
vt -8.47017 4.3
vt -15.9881 3
vt -8.47017 3
vt -15.9881 3
vt -8.47017 4.3
vt -15.9881 4.3
vt -0.771838 3
vt -8.28974 3
vt -0.771838 4.3
vt -8.47017 3
vt -8.47017 4.3
vt -8.28974 3
vt -8.28974 4.3
vt -0.771838 4.3
vt -8.28974 3
vt -8.28974 4.3
vt -8.28974 3
vt -8.47017 4.3
vt -8.47017 3
vt -15.9881 3
vt -8.47017 4.3
vt -15.9881 4.3
vt -8.47017 4.3
vt -15.9881 3
vt 8.28974 4.3
vt 0.771838 3
vt 8.28974 3
vt 0.771838 3
vt 8.28974 4.3
vt 0.771838 4.3
vt 8.28974 3
vt 0.771838 3
vt 8.28974 4.3
vt 0.771838 4.3
vt 8.28974 4.3
vt 0.771838 3
vt 15.9881 3
vt 8.47017 4.3
vt 8.47017 3
vt 8.47017 4.3
vt 15.9881 3
vt 15.9881 4.3
vt 8.47017 3
vt 8.47017 4.3
vt 15.9881 3
vt 15.9881 4.3
vt 15.9881 3
vt 8.47017 4.3
vt 5.94129 4.61982
vt 8.69069 7.02814
vt -0.13031 4.61982
vt 8.69069 7.02814
vt 5.94129 4.61982
vt 6.8864 4.61982
vt 8.69069 7.02814
vt 6.8864 4.61982
vt 7.14415 4.61982
vt -0.13031 4.61982
vt 8.69069 7.02814
vt 5.94129 4.61982
vt 6.8864 4.61982
vt 5.94129 4.61982
vt 8.69069 7.02814
vt 7.14415 4.61982
vt 6.8864 4.61982
vt 8.69069 7.02814
vt 7.37966 12.5284
vt -1.46921 12.5284
vt -1.39767 9.96621
vt -1.39767 9.96621
vt -1.46921 12.5284
vt 7.37966 12.5284
vt 0.57136 10.6607
vt 0.771838 7.8076
vt 0.771838 10.6607
vt 0.771838 7.8076
vt 8.28974 10.6607
vt 0.771838 10.6607
vt 0.771838 7.8076
vt 0.57136 7.33207
vt 0.771838 7.33207
vt 8.28974 12.1321
vt 0.771838 10.6607
vt 8.28974 10.6607
vt 0.771838 10.6607
vt 8.28974 12.1321
vt 0.771838 12.1321
vt 8.28974 10.6607
vt 0.771838 7.33207
vt 8.28974 7.33207
vt 8.28974 7.33207
vt 8.47017 10.6607
vt 8.28974 10.6607
vt 0.771838 7.33207
vt 8.28974 10.6607
vt 0.771838 7.8076
vt 8.47017 10.6607
vt 8.28974 7.33207
vt 8.47017 7.33207
vt 8.47017 10.6607
vt 15.9881 7.8076
vt 15.9881 10.6607
vt 15.9881 12.1321
vt 8.47017 10.6607
vt 15.9881 10.6607
vt 8.47017 7.33207
vt 15.9881 7.8076
vt 8.47017 10.6607
vt 8.47017 10.6607
vt 15.9881 12.1321
vt 8.47017 12.1321
vt 15.9881 7.8076
vt 8.47017 7.33207
vt 15.9881 7.33207
vt 16.1885 10.6607
vt 15.9881 7.33207
vt 16.1885 7.33207
vt 15.9881 10.6607
vt 15.9881 7.8076
vt 16.1885 10.6607
vt 0.771838 10.6607
vt 0.771838 7.8076
vt 0.57136 10.6607
vt 0.771838 10.6607
vt 8.28974 10.6607
vt 0.771838 7.8076
vt 8.28974 10.6607
vt 0.771838 10.6607
vt 8.28974 12.1321
vt 0.771838 12.1321
vt 8.28974 12.1321
vt 0.771838 10.6607
vt 0.771838 7.33207
vt 0.57136 7.33207
vt 0.771838 7.8076
vt 8.28974 7.33207
vt 0.771838 7.33207
vt 8.28974 10.6607
vt 0.771838 7.8076
vt 8.28974 10.6607
vt 0.771838 7.33207
vt 8.28974 10.6607
vt 8.47017 10.6607
vt 8.28974 7.33207
vt 8.47017 7.33207
vt 8.28974 7.33207
vt 8.47017 10.6607
vt 15.9881 10.6607
vt 15.9881 7.8076
vt 8.47017 10.6607
vt 15.9881 10.6607
vt 8.47017 10.6607
vt 15.9881 12.1321
vt 8.47017 10.6607
vt 15.9881 7.8076
vt 8.47017 7.33207
vt 8.47017 12.1321
vt 15.9881 12.1321
vt 8.47017 10.6607
vt 15.9881 7.33207
vt 8.47017 7.33207
vt 15.9881 7.8076
vt 16.1885 7.33207
vt 15.9881 7.33207
vt 16.1885 10.6607
vt 16.1885 10.6607
vt 15.9881 7.8076
vt 15.9881 10.6607
vt 15.9881 5.67
vt 8.47017 6.87
vt 8.47017 5.67
vt 15.9881 5.67
vt 15.9881 -0.63
vt 15.9881 -0.13
vt 8.47017 6.87
vt 15.9881 5.67
vt 15.9881 6.87
vt 8.47017 5.67
vt 15.9881 -0.63
vt 15.9881 5.67
vt 15.9881 -0.63
vt 8.47017 5.67
vt 8.47017 -0.63
vt 8.47017 5.67
vt 8.47017 6.87
vt 15.9881 5.67
vt 8.47017 -0.63
vt 8.47017 5.67
vt 15.9881 -0.63
vt 15.9881 5.67
vt 15.9881 -0.63
vt 8.47017 5.67
vt 15.9881 6.87
vt 15.9881 5.67
vt 8.47017 6.87
vt 15.9881 -0.13
vt 15.9881 -0.63
vt 15.9881 5.67
vt 0.771838 6.68316
vt 8.28974 12.1707
vt 0.771838 7.15869
vt 0.771838 7.15869
vt 8.28974 12.1707
vt 0.771838 6.68316
vt 8.28974 12.1707
vt 0.771838 6.68316
vt 8.28974 6.68316
vt 0.771838 7.15869
vt 8.28974 12.1707
vt 0.771838 12.1707
vt 8.28974 6.68316
vt 0.771838 6.68316
vt 8.28974 12.1707
vt 0.771838 12.1707
vt 8.28974 12.1707
vt 0.771838 7.15869
vt 5.94129 6.00834
vt 8.69069 8.41666
vt -0.13031 6.00834
vt 8.69069 8.41666
vt 5.94129 6.00834
vt 6.8864 6.00834
vt 8.69069 8.41666
vt 6.8864 6.00834
vt 7.14415 6.00834
vt -0.13031 6.00834
vt 8.69069 8.41666
vt 5.94129 6.00834
vt 6.8864 6.00834
vt 5.94129 6.00834
vt 8.69069 8.41666
vt 7.14415 6.00834
vt 6.8864 6.00834
vt 8.69069 8.41666
vt 0.57136 7.33207
vt 0.771838 7.8076
vt 0.57136 10.6607
vt 0.57136 10.6607
vt 0.771838 7.8076
vt 0.57136 7.33207
vt 15.9881 7.15869
vt 8.47017 6.68316
vt 15.9881 6.68316
vt 15.9881 6.68316
vt 8.47017 6.68316
vt 15.9881 7.15869
vt 8.47017 6.68316
vt 15.9881 7.15869
vt 8.47017 12.1707
vt 8.47017 12.1707
vt 15.9881 7.15869
vt 15.9881 12.1707
vt 8.47017 12.1707
vt 15.9881 7.15869
vt 8.47017 6.68316
vt 15.9881 12.1707
vt 15.9881 7.15869
vt 8.47017 12.1707
vt 15.9881 7.33207
vt 16.1885 10.6607
vt 15.9881 7.8076
vt 15.9881 7.8076
vt 16.1885 10.6607
vt 15.9881 7.33207
vt -8.28974 -1.97748
vt -0.771838 -2.98764
vt -0.771838 -1.97748
vt -0.771838 -2.98764
vt -8.28974 -1.97748
vt -8.28974 -2.98764
vt -0.771838 -1.97748
vt -0.771838 -2.98764
vt -8.28974 -1.97748
vt -8.28974 -2.98764
vt -8.28974 -1.97748
vt -0.771838 -2.98764
vt 15.9881 -2.98764
vt 8.47017 -1.97748
vt 8.47017 -2.98764
vt 8.47017 -1.97748
vt 15.9881 -2.98764
vt 15.9881 -1.97748
vt 8.47017 -2.98764
vt 8.47017 -1.97748
vt 15.9881 -2.98764
vt 15.9881 -1.97748
vt 15.9881 -2.98764
vt 8.47017 -1.97748
usemtl bff79b49732569307ea323bc74055b8_0
f 1/1/1 2/2/2 3/3/3
f 2/4/2 1/5/1 4/6/4
f 5/7/5 6/8/6 7/9/7
f 6/10/6 5/11/5 17/12/17
f 8/13/8 9/14/9 10/15/10
f 9/16/9 8/17/8 18/18/18
f 11/19/11 12/20/12 13/21/13
f 12/22/12 11/23/11 19/24/19
f 14/25/14 15/26/15 16/27/16
f 15/28/15 14/29/14 20/30/20
f 21/31/21 22/32/22 23/33/23
f 30/34/30 22/35/22 21/36/21
f 22/37/22 30/38/30 35/39/35
f 24/40/24 25/41/25 26/42/26
f 25/43/25 24/44/24 34/45/34
f 27/46/27 28/47/28 29/48/29
f 28/49/28 27/50/27 36/51/36
f 31/52/31 32/53/32 33/54/33
f 32/55/32 31/56/31 40/57/40
f 37/58/37 38/59/38 39/60/39
f 38/61/38 37/62/37 42/63/42
f 39/64/39 38/65/38 41/66/41
f 43/67/43 44/68/44 45/69/45
f 44/70/44 43/71/43 52/72/52
f 46/73/46 47/74/47 48/75/48
f 57/76/57 48/77/48 47/78/47
f 49/79/49 50/80/50 51/81/51
f 50/82/50 49/83/49 53/84/53
f 54/85/54 55/86/55 56/87/56
f 58/88/58 56/89/56 55/90/55
f 59/91/59 60/92/60 61/93/61
f 60/94/60 59/95/59 69/96/69
f 62/97/62 63/98/63 64/99/64
f 63/100/63 62/101/62 65/102/65
f 66/103/66 67/104/67 68/105/68
f 67/106/67 66/107/66 70/108/70
f 71/109/71 72/110/72 73/111/73
f 82/112/82 73/113/73 72/114/72
f 74/115/74 75/116/75 76/117/76
f 75/118/75 74/119/74 80/120/80
f 77/121/77 78/122/78 79/123/79
f 78/124/78 77/125/77 81/126/81
f 83/127/83 84/128/84 85/129/85
f 86/130/86 85/131/85 84/132/84
f 87/133/87 88/134/88 89/135/89
f 99/136/99 89/137/89 88/138/88
f 90/139/90 91/140/91 92/141/92
f 100/142/100 92/143/92 91/144/91
f 93/145/93 94/146/94 95/147/95
f 101/148/101 95/149/95 94/150/94
f 96/151/96 97/152/97 98/153/98
f 102/154/102 98/155/98 97/156/97
f 103/157/103 104/158/104 105/159/105
f 104/160/104 103/161/103 111/162/111
f 103/163/103 115/164/115 111/165/111
f 105/166/105 115/167/115 103/168/103
f 109/169/109 105/170/105 104/171/104
f 113/172/113 104/173/104 111/174/111
f 109/175/109 104/176/104 113/177/113
f 109/178/109 117/179/117 105/180/105
f 115/181/115 105/182/105 117/183/117
f 121/184/121 111/185/111 115/186/115
f 121/187/121 115/188/115 133/189/133
f 113/190/113 111/191/111 119/192/119
f 121/193/121 119/194/119 111/195/111
f 113/196/113 125/197/125 109/198/109
f 125/199/125 113/200/113 119/201/119
f 123/202/123 117/203/117 109/204/109
f 125/205/125 123/206/123 109/207/109
f 117/208/117 123/209/123 141/210/141
f 123/211/123 125/212/125 147/213/147
f 147/214/147 125/215/125 119/216/119
f 147/217/147 119/218/119 121/219/121
f 147/220/147 121/221/121 174/222/174
f 147/223/147 174/224/174 180/225/180
f 121/226/121 203/227/203 174/228/174
f 203/229/203 180/230/180 174/231/174
f 180/232/180 160/233/160 133/234/133
f 160/235/160 180/236/180 212/237/212
f 212/238/212 180/239/180 266/240/266
f 266/241/266 180/242/180 203/243/203
f 203/244/203 121/245/121 219/246/219
f 219/247/219 266/248/266 203/249/203
f 182/250/182 212/251/212 266/252/266
f 266/253/266 219/254/219 182/255/182
f 212/256/212 182/257/182 160/258/160
f 121/259/121 133/260/133 160/261/160
f 121/262/121 160/263/160 182/264/182
f 121/265/121 182/266/182 219/267/219
f 106/268/106 107/269/107 108/270/108
f 107/271/107 106/272/106 110/273/110
f 108/274/108 116/275/116 106/276/106
f 106/277/106 118/278/118 110/279/110
f 118/280/118 106/281/106 116/282/116
f 112/283/112 108/284/108 107/285/107
f 112/286/112 107/287/107 114/288/114
f 114/289/114 107/290/107 110/291/110
f 112/292/112 116/293/116 108/294/108
f 116/295/116 112/296/112 122/297/122
f 134/298/134 116/299/116 122/300/122
f 120/301/120 112/302/112 114/303/114
f 112/304/112 120/305/120 122/306/122
f 110/307/110 126/308/126 114/309/114
f 120/310/120 114/311/114 126/312/126
f 122/313/122 120/314/120 148/315/148
f 120/316/120 126/317/126 148/318/148
f 110/319/110 124/320/124 126/321/126
f 148/322/148 126/323/126 124/324/124
f 175/325/175 122/326/122 148/327/148
f 181/328/181 175/329/175 148/330/148
f 175/331/175 204/332/204 122/333/122
f 175/334/175 181/335/181 204/336/204
f 134/337/134 161/338/161 181/339/181
f 213/340/213 181/341/181 161/342/161
f 267/343/267 181/344/181 213/345/213
f 204/346/204 181/347/181 267/348/267
f 220/349/220 122/350/122 204/351/204
f 204/352/204 267/353/267 220/354/220
f 267/355/267 213/356/213 183/357/183
f 183/358/183 220/359/220 267/360/267
f 161/361/161 183/362/183 213/363/213
f 161/364/161 134/365/134 122/366/122
f 183/367/183 161/368/161 122/369/122
f 220/370/220 183/371/183 122/372/122
f 110/373/110 118/374/118 124/375/124
f 142/376/142 124/377/124 118/378/118
f 127/379/127 128/380/128 129/381/129
f 129/382/129 128/383/128 146/384/146
f 153/385/153 146/386/146 128/387/128
f 130/388/130 131/389/131 132/390/132
f 152/391/152 132/392/132 131/393/131
f 135/394/135 136/395/136 137/396/137
f 136/397/136 135/398/135 162/399/162
f 162/400/162 135/401/135 184/402/184
f 184/403/184 135/404/135 221/405/221
f 184/406/184 221/407/221 286/408/286
f 184/409/184 286/410/286 290/411/290
f 138/412/138 139/413/139 140/414/140
f 163/415/163 140/416/140 139/417/139
f 185/418/185 140/419/140 163/420/163
f 222/421/222 140/422/140 185/423/185
f 287/424/287 222/425/222 185/426/185
f 291/427/291 287/428/287 185/429/185
f 143/430/143 144/431/144 145/432/145
f 170/433/170 145/434/145 144/435/144
f 149/436/149 150/437/150 151/438/151
f 176/439/176 151/440/151 150/441/150
f 154/442/154 155/443/155 156/444/156
f 155/445/155 154/446/154 178/447/178
f 178/448/178 154/449/154 208/450/208
f 210/451/210 155/452/155 178/453/178
f 210/454/210 214/455/214 155/456/155
f 214/457/214 210/458/210 271/459/271
f 271/460/271 210/461/210 342/462/342
f 271/463/271 374/464/374 375/465/375
f 271/466/271 342/467/342 374/468/374
f 157/469/157 158/470/158 159/471/159
f 179/472/179 159/473/159 158/474/158
f 179/475/179 158/476/158 211/477/211
f 158/478/158 215/479/215 211/480/211
f 209/481/209 159/482/159 179/483/179
f 272/484/272 211/485/211 215/486/215
f 343/487/343 211/488/211 272/489/272
f 376/490/376 377/491/377 272/492/272
f 377/493/377 343/494/343 272/495/272
f 164/496/164 165/497/165 166/498/166
f 167/499/167 168/500/168 169/501/169
f 171/502/171 172/503/172 173/504/173
f 177/505/177 172/506/172 171/507/171
f 202/508/202 173/509/173 172/510/172
f 186/511/186 187/512/187 188/513/188
f 189/514/189 190/515/190 191/516/191
f 192/517/192 193/518/193 194/519/194
f 198/520/198 192/521/192 199/522/199
f 192/523/192 198/524/198 193/525/193
f 194/526/194 193/527/193 229/528/229
f 195/529/195 196/530/196 197/531/197
f 230/532/230 196/533/196 195/534/195
f 196/535/196 201/536/201 197/537/197
f 200/538/200 197/539/197 201/540/201
f 205/541/205 206/542/206 207/543/207
f 240/544/240 207/545/207 206/546/206
f 216/547/216 217/548/217 218/549/218
f 217/550/217 216/551/216 273/552/273
f 223/553/223 224/554/224 225/555/225
f 224/556/224 223/557/223 288/558/288
f 224/559/224 288/560/288 299/561/299
f 288/562/288 298/563/298 299/564/299
f 298/565/298 288/566/288 372/567/372
f 298/568/298 441/569/441 442/570/442
f 298/571/298 372/572/372 451/573/451
f 298/574/298 505/575/505 441/576/441
f 298/577/298 451/578/451 505/579/505
f 226/580/226 227/581/227 228/582/228
f 289/583/289 228/584/228 227/585/227
f 300/586/300 289/587/289 227/588/227
f 300/589/300 301/590/301 289/591/289
f 373/592/373 289/593/289 301/594/301
f 443/595/443 444/596/444 301/597/301
f 452/598/452 373/599/373 301/600/301
f 444/601/444 506/602/506 301/603/301
f 506/604/506 452/605/452 301/606/301
f 231/607/231 232/608/232 233/609/233
f 234/610/234 235/611/235 236/612/236
f 237/613/237 238/614/238 239/615/239
f 241/616/241 239/617/239 238/618/238
f 242/619/242 243/620/243 244/621/244
f 245/622/245 246/623/246 247/624/247
f 248/625/248 249/626/249 250/627/250
f 250/628/250 254/629/254 248/630/248
f 249/631/249 248/632/248 313/633/313
f 256/634/256 250/635/250 249/636/249
f 250/637/250 256/638/256 257/639/257
f 254/640/254 250/641/250 321/642/321
f 260/643/260 257/644/257 256/645/256
f 257/646/257 260/647/260 261/648/261
f 261/649/261 264/650/264 257/651/257
f 264/652/264 261/653/261 335/654/335
f 251/655/251 252/656/252 253/657/253
f 253/658/253 255/659/255 251/660/251
f 258/661/258 259/662/259 251/663/251
f 252/664/252 251/665/251 259/666/259
f 322/667/322 251/668/251 255/669/255
f 314/670/314 253/671/253 252/672/252
f 259/673/259 258/674/258 263/675/263
f 262/676/262 263/677/263 258/678/258
f 258/679/258 265/680/265 262/681/262
f 336/682/336 262/683/262 265/684/265
f 268/685/268 269/686/269 270/687/270
f 269/688/269 268/689/268 274/690/274
f 275/691/275 276/692/276 277/693/277
f 311/694/311 277/695/277 276/696/276
f 278/697/278 279/698/279 280/699/280
f 279/700/279 278/701/278 352/702/352
f 354/703/354 278/704/278 280/705/280
f 352/706/352 278/707/278 419/708/419
f 278/709/278 354/710/354 421/711/421
f 421/712/421 419/713/419 278/714/278
f 284/715/284 280/716/280 279/717/279
f 280/718/280 284/719/284 362/720/362
f 419/721/419 421/722/421 561/723/561
f 523/724/523 419/725/419 561/726/561
f 524/727/524 561/728/561 421/729/421
f 561/730/561 524/731/524 523/732/523
f 523/733/523 524/734/524 525/735/525
f 525/736/525 524/737/524 591/738/591
f 281/739/281 282/740/282 283/741/283
f 282/742/282 281/743/281 285/744/285
f 281/745/281 283/746/283 355/747/355
f 363/748/363 285/749/285 281/750/281
f 353/751/353 283/752/283 282/753/282
f 420/754/420 283/755/283 353/756/353
f 422/757/422 355/758/355 283/759/283
f 283/760/283 420/761/420 422/762/422
f 562/763/562 422/764/422 420/765/420
f 562/766/562 420/767/420 528/768/528
f 422/769/422 562/770/562 527/771/527
f 528/772/528 527/773/527 562/774/562
f 526/775/526 527/776/527 528/777/528
f 592/778/592 527/779/527 526/780/526
f 292/781/292 293/782/293 294/783/294
f 292/784/292 294/785/294 302/786/302
f 293/787/293 292/788/292 370/789/370
f 295/790/295 296/791/296 297/792/297
f 303/793/303 295/794/295 297/795/297
f 371/796/371 297/797/297 296/798/296
f 304/799/304 305/800/305 306/801/306
f 307/802/307 306/803/306 305/804/305
f 308/805/308 309/806/309 310/807/310
f 312/808/312 310/809/310 309/810/309
f 315/811/315 316/812/316 317/813/317
f 388/814/388 316/815/316 315/816/315
f 315/817/315 317/818/317 390/819/390
f 390/820/390 459/821/459 315/822/315
f 316/823/316 388/824/388 392/825/392
f 459/826/459 390/827/390 539/828/539
f 459/829/459 539/830/539 595/831/595
f 318/832/318 319/833/319 320/834/320
f 391/835/391 318/836/318 320/837/320
f 320/838/320 319/839/319 389/840/389
f 393/841/393 389/842/389 319/843/319
f 320/844/320 460/845/460 391/846/391
f 540/847/540 391/848/391 460/849/460
f 596/850/596 540/851/540 460/852/460
f 323/853/323 324/854/324 325/855/325
f 337/856/337 324/857/324 323/858/323
f 325/859/325 324/860/324 402/861/402
f 324/862/324 337/863/337 416/864/416
f 469/865/469 402/866/402 324/867/324
f 402/868/402 469/869/469 553/870/553
f 553/871/553 469/872/469 599/873/599
f 326/874/326 327/875/327 328/876/328
f 403/877/403 327/878/327 326/879/326
f 328/880/328 327/881/327 338/882/338
f 417/883/417 338/884/338 327/885/327
f 327/886/327 403/887/403 470/888/470
f 554/889/554 470/890/470 403/891/403
f 600/892/600 470/893/470 554/894/554
f 329/895/329 330/896/330 331/897/331
f 330/898/330 329/899/329 404/900/404
f 404/901/404 329/902/329 471/903/471
f 406/904/406 331/905/331 330/906/330
f 477/907/477 330/908/330 404/909/404
f 330/910/330 477/911/477 483/912/483
f 331/913/331 406/914/406 408/915/408
f 471/916/471 477/917/477 404/918/404
f 477/919/477 471/920/471 597/921/597
f 597/922/597 571/923/571 477/924/477
f 572/925/572 597/926/597 471/927/471
f 571/928/571 597/929/597 572/930/572
f 571/931/571 572/932/572 573/933/573
f 571/934/571 573/935/573 611/936/611
f 332/937/332 333/938/333 334/939/334
f 333/940/333 332/941/332 407/942/407
f 409/943/409 407/944/407 332/945/332
f 405/946/405 334/947/334 333/948/333
f 405/949/405 333/950/333 478/951/478
f 484/952/484 478/953/478 333/954/333
f 472/955/472 334/956/334 405/957/405
f 405/958/405 478/959/478 472/960/472
f 598/961/598 472/962/472 478/963/478
f 478/964/478 576/965/576 598/966/598
f 472/967/472 598/968/598 575/969/575
f 575/970/575 598/971/598 576/972/576
f 574/973/574 575/974/575 576/975/576
f 612/976/612 574/977/574 576/978/576
f 339/979/339 340/980/340 341/981/341
f 340/982/340 339/983/339 418/984/418
f 344/985/344 345/986/345 346/987/346
f 350/988/350 346/989/346 345/990/345
f 347/991/347 348/992/348 349/993/349
f 351/994/351 349/995/349 348/996/348
f 356/997/356 357/998/357 358/999/358
f 357/1000/357 356/1001/356 423/1002/423
f 358/1003/358 357/1004/357 425/1005/425
f 425/1006/425 455/1007/455 358/1008/358
f 455/1009/455 425/1010/425 456/1011/456
f 359/1012/359 360/1013/360 361/1014/361
f 426/1015/426 360/1016/360 359/1017/359
f 359/1018/359 458/1019/458 426/1020/426
f 424/1021/424 361/1022/361 360/1023/360
f 457/1024/457 426/1025/426 458/1026/458
f 364/1027/364 365/1028/365 366/1029/366
f 367/1030/367 368/1031/368 369/1032/369
f 378/1033/378 379/1034/379 380/1035/380
f 379/1036/379 378/1037/378 453/1038/453
f 379/1039/379 384/1040/384 385/1041/385
f 384/1042/384 379/1043/379 453/1044/453
f 384/1045/384 400/1046/400 385/1047/385
f 400/1048/400 384/1049/384 461/1050/461
f 381/1051/381 382/1052/382 383/1053/383
f 386/1054/386 387/1055/387 382/1056/382
f 454/1057/454 383/1058/383 382/1059/382
f 454/1060/454 382/1061/382 387/1062/387
f 386/1063/386 401/1064/401 387/1065/387
f 462/1066/462 387/1067/387 401/1068/401
f 394/1069/394 395/1070/395 396/1071/396
f 395/1072/395 394/1073/394 427/1074/427
f 397/1075/397 398/1076/398 399/1077/399
f 428/1078/428 399/1079/399 398/1080/398
f 410/1081/410 411/1082/411 412/1083/412
f 411/1084/411 410/1085/410 479/1086/479
f 413/1087/413 414/1088/414 415/1089/415
f 480/1090/480 415/1091/415 414/1092/414
f 429/1093/429 430/1094/430 431/1095/431
f 430/1096/430 429/1097/429 497/1098/497
f 430/1099/430 497/1100/497 519/1101/519
f 432/1102/432 433/1103/433 434/1104/434
f 498/1105/498 434/1106/434 433/1107/433
f 520/1108/520 498/1109/498 433/1110/433
f 435/1111/435 436/1112/436 437/1113/437
f 438/1114/438 439/1115/439 440/1116/440
f 445/1117/445 446/1118/446 447/1119/447
f 446/1120/446 521/1121/521 447/1122/447
f 446/1123/446 585/1124/585 531/1125/531
f 529/1126/529 447/1127/447 521/1128/521
f 447/1129/447 529/1130/529 593/1131/593
f 521/1132/521 531/1133/531 532/1134/532
f 532/1135/532 535/1136/535 521/1137/521
f 531/1138/531 587/1139/587 588/1140/588
f 535/1141/535 532/1142/532 536/1143/536
f 535/1144/535 508/1145/508 507/1146/507
f 569/1147/569 535/1148/535 507/1149/507
f 536/1150/536 508/1151/508 535/1152/535
f 535/1153/535 569/1154/569 609/1155/609
f 543/1156/543 536/1157/536 544/1158/544
f 509/1159/509 544/1160/544 613/1161/613
f 507/1162/507 508/1163/508 509/1164/509
f 448/1165/448 449/1166/449 450/1167/450
f 448/1168/448 522/1169/522 449/1170/449
f 522/1171/522 448/1172/448 530/1173/530
f 594/1174/594 530/1175/530 448/1176/448
f 534/1177/534 586/1178/586 449/1179/449
f 533/1180/533 534/1181/534 522/1182/522
f 589/1183/589 590/1184/590 534/1185/534
f 522/1186/522 538/1187/538 533/1188/533
f 537/1189/537 533/1190/533 538/1191/538
f 512/1192/512 546/1193/546 538/1194/538
f 512/1195/512 538/1196/538 570/1197/570
f 538/1198/538 546/1199/546 537/1200/537
f 610/1201/610 570/1202/570 538/1203/538
f 545/1204/545 537/1205/537 546/1206/546
f 614/1207/614 545/1208/545 510/1209/510
f 510/1210/510 511/1211/511 512/1212/512
f 463/1213/463 464/1214/464 465/1215/465
f 463/1216/463 473/1217/473 474/1218/474
f 464/1219/464 463/1220/463 541/1221/541
f 465/1222/465 473/1223/473 463/1224/463
f 473/1225/473 465/1226/465 481/1227/481
f 466/1228/466 467/1229/467 468/1230/468
f 482/1231/482 466/1232/466 476/1233/476
f 468/1234/468 476/1235/476 466/1236/466
f 542/1237/542 468/1238/468 467/1239/467
f 475/1240/475 476/1241/476 468/1242/468
f 485/1243/485 486/1244/486 487/1245/487
f 488/1246/488 489/1247/489 490/1248/490
f 491/1249/491 492/1250/492 493/1251/493
f 563/1252/563 491/1253/491 564/1254/564
f 494/1255/494 495/1256/495 496/1257/496
f 565/1258/565 496/1259/496 566/1260/566
f 499/1261/499 500/1262/500 501/1263/501
f 500/1264/500 499/1265/499 567/1266/567
f 500/1267/500 567/1268/567 583/1269/583
f 502/1270/502 503/1271/503 504/1272/504
f 568/1273/568 504/1274/504 503/1275/503
f 584/1276/584 568/1277/568 503/1278/503
f 513/1279/513 514/1280/514 515/1281/515
f 516/1282/516 517/1283/517 518/1284/518
f 547/1285/547 548/1286/548 549/1287/549
f 550/1288/550 551/1289/551 552/1290/552
f 555/1291/555 556/1292/556 557/1293/557
f 557/1294/557 556/1295/556 601/1296/601
f 558/1297/558 559/1298/559 560/1299/560
f 602/1300/602 559/1301/559 558/1302/558
f 577/1303/577 578/1304/578 579/1305/579
f 580/1306/580 581/1307/581 582/1308/582
f 603/1309/603 604/1310/604 605/1311/605
f 604/1312/604 603/1313/603 615/1314/615
f 606/1315/606 607/1316/607 608/1317/608
f 616/1318/616 608/1319/608 607/1320/607
f 617/1321/617 618/1322/618 619/1323/619
f 618/1324/618 617/1325/617 623/1326/623
f 620/1327/620 621/1328/621 622/1329/622
f 624/1330/624 622/1331/622 621/1332/621
