# Created by Open3D 
# object name: d116e9440f64d7a0e7791a1581855f1e
# number of vertices: 1192
# number of triangles: 808
v 1.3211 0.248105 0.0494513
vn 0 -5.26436e-17 -1
v 1.26606 0.220538 0.0494513
vn 0 -4.78165e-17 -1
v -1.3211 0.248105 0.0494513
vn 0 -4.79554e-17 -1
v 1.3211 -0.248105 0.0494513
vn 0 -4.48715e-17 -1
v -1.26606 0.220538 0.0494513
vn 0 -5.26996e-17 -1
v -1.3211 0.248105 0.0494513
vn 4.99301e-17 1 -2.4965e-17
v -0.516781 0.248105 0.471475
vn 6.27224e-17 1 -3.13611e-17
v 1.3211 0.248105 0.0494513
vn 4.20513e-17 1 -2.10256e-17
v 1.3211 0.248105 0.655234
vn 1 -7.60858e-17 4.6589e-33
v 1.3211 -0.248105 0.0494513
vn 1 -7.60858e-17 4.6589e-33
v 1.3211 0.248105 0.0494513
vn 1 -9.38586e-17 5.74717e-33
v 1.26606 0.179186 0.0494513
vn 0 -5.77018e-17 -1
v -1.3211 -0.248105 0.0494513
vn 0 -5.09125e-17 -1
v 1.18348 0.220538 0.0494513
vn 0 -5.28117e-17 -1
v -0.536697 0.248105 0.476416
vn 1.19862e-16 1 -5.99307e-17
v -0.495412 0.248105 0.469789
vn 1.20644e-16 1 -6.03216e-17
v 1.3211 -0.248105 0.655234
vn 1 -9.38586e-17 5.74717e-33
v 0.990823 0.248105 0.741775
vn 6.71908e-17 1 -3.35953e-17
v 1.3211 0.248105 0.655234
vn 1.04837e-16 1 -5.24184e-17
v 1.18348 0.179186 0.0494513
vn 0 -2.20176e-17 -1
v -1.26606 0.179186 0.0494513
vn 0 -2.38976e-17 -1
v -1.3211 -0.248105 0.655234
vn -1 7.60858e-17 -4.6589e-33
v -1.3211 0.248105 0.0494513
vn -1 7.60858e-17 -4.6589e-33
v -1.3211 -0.248105 0.0494513
vn -1 9.38586e-17 -5.74717e-33
v -1.18348 0.220538 0.0494513
vn 0 -4.64271e-17 -1
v -0.553795 0.248105 0.484274
vn 9.15292e-17 1 -4.57645e-17
v -0.474044 0.248105 0.471475
vn 1.1952e-16 1 -5.97598e-17
v 1.3211 0.0827005 0.655234
vn 1 -1.22465e-16 7.4988e-33
v 0.990823 -0.248105 0.568694
vn -1.00696e-16 -1 5.03478e-17
v 1.3211 -0.248105 0.0494513
vn -4.78129e-17 -1 2.39064e-17
v 1.3211 -0.248105 0.655234
vn -1.04837e-16 -1 5.24184e-17
v 0.54103 0.248105 0.526299
vn 9.16509e-17 1 -4.58253e-17
v 0.990823 0.0827005 0.741775
vn 0.365655 5.96519e-18 0.93075
v 1.3211 0.248105 0.655234
vn 0.365655 5.96519e-18 0.93075
v 0.990823 0.248105 0.741775
vn 0.381887 6.44769e-18 0.924209
v 1.26606 -0.179187 0.0494513
vn 0 -1.55616e-17 -1
v -1.26606 -0.179187 0.0494513
vn 0 -2.43558e-17 -1
v -1.3211 0.248105 0.655234
vn -1 9.38586e-17 -5.74717e-33
v -1.3211 -0.248105 0.0494513
vn -6.32304e-17 -1 3.16151e-17
v -0.990823 -0.248105 0.395613
vn -4.78129e-17 -1 2.39064e-17
v -1.3211 -0.248105 0.655234
vn -1.00696e-16 -1 5.03478e-17
v -0.990823 0.248105 0.741775
vn 6.73361e-17 1 -3.36679e-17
v -0.45413 0.248105 0.476416
vn 1.18624e-16 1 -5.93119e-17
v 1.3211 0.0827005 0.655234
vn 0.381887 6.44769e-18 0.924209
v 1.3211 0.0827005 0.655234
vn -0.339313 7.77792e-17 0.940673
v 0.990823 -0.248105 0.568694
vn -0.339313 7.77792e-17 0.940673
v 1.3211 -0.248105 0.655234
vn -0.365655 8.94775e-17 0.93075
v 0.990823 -0.248105 0.395613
vn -7.53847e-17 -1 3.76922e-17
v 0.539015 0.248105 0.513445
vn 1.20051e-16 1 -6.00251e-17
v 0.537422 0.248105 0.539027
vn 1.21077e-16 1 -6.05382e-17
v 0.990823 0.248105 0.741775
vn 0 2.96109e-17 1
v -0.990823 0.0827005 0.741775
vn 0 2.96109e-17 1
v 0.990823 0.0827005 0.741775
vn 0 3.99181e-17 1
v 1.26606 -0.220538 0.0494513
vn 0 -6.07815e-17 -1
v -1.18348 0.179186 0.0494513
vn 0 -2.36466e-17 -1
v -1.26606 -0.220538 0.0494513
vn 0 -5.4377e-17 -1
v -1.3211 0.0827005 0.655234
vn -1 1.22465e-16 -7.4988e-33
v -1.3211 0.248105 0.655234
vn 1.04837e-16 1 -5.24184e-17
v -0.990823 -0.248105 0.568694
vn -1.16851e-16 -1 5.84254e-17
v -0.566917 0.248105 0.494517
vn 1.22043e-16 1 -6.10213e-17
v -0.990823 0.0827005 0.568694
vn -1.03558e-16 -1 5.17786e-17
v -0.516781 0.0827005 0.471475
vn -1.14311e-16 -1 5.71555e-17
v -0.536697 0.0827005 0.476416
vn -1.22219e-16 -1 6.11092e-17
v -0.553795 0.0827005 0.484274
vn -1.14865e-16 -1 5.74323e-17
v -0.990823 0.0827005 0.395613
vn -1.02522e-16 -1 5.1261e-17
v -0.495412 0.0827005 0.469789
vn -1.08472e-16 -1 5.42357e-17
v -0.437029 0.248105 0.484274
vn 1.18006e-16 1 -5.90027e-17
v 0.990823 0.0827005 0.741775
vn -8.10017e-17 -1 4.05007e-17
v 0.990823 0.0827005 0.568694
vn -1.16851e-16 -1 5.84254e-17
v 1.3211 0.0827005 0.655234
vn -1.16851e-16 -1 5.84254e-17
v 0.990823 0.0827005 0.568694
vn -0.365655 8.94775e-17 0.93075
v 0.990823 -0.248105 0.568694
vn -1 1.09725e-16 -6.71871e-33
v 0.990823 0.0827005 0.395613
vn -1 1.09725e-16 -6.71871e-33
v 0.990823 -0.248105 0.395613
vn -1 1.15746e-16 -7.08735e-33
v 0.531518 0.248105 0.501343
vn 1.19758e-16 1 -5.9879e-17
v 0.528442 0.248105 0.550759
vn 1.21004e-16 1 -6.0502e-17
v -0.990823 0.248105 0.741775
vn 0 3.99181e-17 1
v -0.990823 0.0827005 0.741775
vn -8.52567e-17 -1 4.26282e-17
v -0.0249341 0.0827005 0.62442
vn -9.35664e-17 -1 4.6783e-17
v 1.18348 -0.220538 0.0494513
vn 0 -4.28532e-17 -1
v 1.18348 -0.179187 0.0494513
vn 0 -5.28119e-17 -1
v -1.3211 -0.248105 0.655234
vn 0.339313 5.18533e-18 0.940673
v -0.990823 0.0827005 0.568694
vn 0.339313 5.18533e-18 0.940673
v -1.3211 0.0827005 0.655234
vn 0.365655 5.96523e-18 0.93075
v -1.3211 0.0827005 0.655234
vn -0.365655 8.94774e-17 0.93075
v -0.990823 0.248105 0.741775
vn -0.365655 8.94774e-17 0.93075
v -1.3211 0.248105 0.655234
vn -0.381887 9.67149e-17 0.924209
v -0.990823 -0.248105 0.568694
vn 0.365655 5.96523e-18 0.93075
v -0.990823 -0.248105 0.395613
vn 1 -1.09725e-16 6.71871e-33
v -0.990823 0.0827005 0.568694
vn 1 -1.09725e-16 6.71871e-33
v -0.990823 -0.248105 0.568694
vn 1 -1.15746e-16 7.08735e-33
v -0.575164 0.248105 0.506444
vn 1.2168e-16 1 -6.084e-17
v 0.990823 0.0827005 0.395613
vn -8.73603e-17 -1 4.368e-17
v -0.474044 0.0827005 0.471475
vn -1.21158e-16 -1 6.05786e-17
v -0.423908 0.248105 0.494517
vn 1.17698e-16 1 -5.88487e-17
v 0.990823 0.0827005 0.568694
vn -1 1.15746e-16 -7.08735e-33
v 0.519046 0.248105 0.490815
vn 1.19661e-16 1 -5.98304e-17
v 0.514691 0.248105 0.560702
vn 1.21044e-16 1 -6.0522e-17
v -0.0249341 0.248105 0.62442
vn 9.35664e-17 1 -4.6783e-17
v -0.990823 0.0827005 0.741775
vn -0.381887 9.67149e-17 0.924209
v -0.516781 0.0827005 0.56701
vn -1.11297e-16 -1 5.56485e-17
v -3.58758e-09 0.0827005 0.626386
vn -1.21876e-16 -1 6.09376e-17
v -1.18348 -0.220538 0.0494513
vn 0 -4.82355e-17 -1
v -1.18348 -0.179187 0.0494513
vn 0 -4.64274e-17 -1
v -1.3211 0.0827005 0.655234
vn -1.16851e-16 -1 5.84254e-17
v -0.990823 0.0827005 0.395613
vn 1 -1.15746e-16 7.08735e-33
v -0.577981 0.248105 0.519242
vn 1.21387e-16 1 -6.06933e-17
v -0.566917 0.0827005 0.494517
vn -1.22043e-16 -1 6.10213e-17
v -0.45413 0.0827005 0.476416
vn -1.20293e-16 -1 6.01463e-17
v -0.415661 0.248105 0.506444
vn 1.17717e-16 1 -5.88581e-17
v 0.54103 0.0827005 0.526299
vn -1.07294e-16 -1 5.36468e-17
v 0.502444 0.248105 0.48258
vn 1.19765e-16 1 -5.98823e-17
v 0.539015 0.0827005 0.513445
vn -1.21202e-16 -1 6.0601e-17
v 0.537422 0.0827005 0.539027
vn -1.21077e-16 -1 6.05382e-17
v 0.497104 0.248105 0.568172
vn 1.21195e-16 1 -6.05975e-17
v 0.528442 0.0827005 0.550759
vn -1.21004e-16 -1 6.0502e-17
v -0.516781 0.248105 0.56701
vn 1.11297e-16 1 -5.56485e-17
v -3.58758e-09 0.248105 0.626386
vn 1.21876e-16 1 -6.09376e-17
v -0.536697 0.0827005 0.562068
vn -1.21195e-16 -1 6.05975e-17
v -0.495412 0.0827005 0.568694
vn -1.2222e-16 -1 6.111e-17
v 0.0249341 0.0827005 0.62442
vn -1.2113e-16 -1 6.05647e-17
v -0.575164 0.248105 0.532041
vn 1.21182e-16 1 -6.05908e-17
v -0.575164 0.0827005 0.506444
vn -1.2168e-16 -1 6.084e-17
v -0.437029 0.0827005 0.484274
vn -1.19598e-16 -1 5.97988e-17
v -0.412844 0.248105 0.519242
vn 1.02726e-16 1 -5.13627e-17
v 0.482855 0.248105 0.477196
vn 1.20064e-16 1 -6.00319e-17
v 0.531518 0.0827005 0.501343
vn -1.21191e-16 -1 6.05955e-17
v 0.476906 0.248105 0.572665
vn 1.21447e-16 1 -6.07233e-17
v 0.514691 0.0827005 0.560702
vn -1.21044e-16 -1 6.0522e-17
v -0.536697 0.248105 0.562068
vn 1.21195e-16 1 -6.05975e-17
v -0.495412 0.248105 0.568694
vn 1.2222e-16 1 -6.111e-17
v 0.0249341 0.248105 0.62442
vn 1.2113e-16 1 -6.05647e-17
v -0.553795 0.0827005 0.554209
vn -1.21083e-16 -1 6.05414e-17
v -0.474044 0.0827005 0.56701
vn -1.21917e-16 -1 6.09584e-17
v 0.048164 0.0827005 0.618659
vn -1.20501e-16 -1 6.02504e-17
v -0.566917 0.248105 0.543968
vn 1.21079e-16 1 -6.05391e-17
v -0.577981 0.0827005 0.519242
vn -1.21387e-16 -1 6.06933e-17
v -0.423908 0.0827005 0.494517
vn -1.19114e-16 -1 5.95567e-17
v -0.415661 0.0827005 0.506444
vn -1.18869e-16 -1 5.94341e-17
v -0.048164 0.248105 0.51873
vn 1.06624e-16 1 -5.3312e-17
v 0.461606 0.248105 0.475035
vn 1.2054e-16 1 -6.027e-17
v 0.519046 0.0827005 0.490815
vn -1.21281e-16 -1 6.06401e-17
v 0.45544 0.248105 0.573872
vn 1.21783e-16 1 -6.08915e-17
v 0.497104 0.0827005 0.568172
vn -1.21195e-16 -1 6.05975e-17
v -0.553795 0.248105 0.554209
vn 1.21083e-16 1 -6.05414e-17
v -0.474044 0.248105 0.56701
vn 1.21917e-16 1 -6.09584e-17
v 0.048164 0.248105 0.618659
vn 1.20501e-16 1 -6.02504e-17
v -0.566917 0.0827005 0.543968
vn -1.21079e-16 -1 6.05391e-17
v -0.45413 0.0827005 0.562068
vn -1.21667e-16 -1 6.08334e-17
v -0.415661 0.248105 0.532041
vn 1.21396e-16 1 -6.0698e-17
v -0.048164 0.248105 0.618659
vn 1.21808e-16 1 -6.0904e-17
v 0.068115 0.0827005 0.609489
vn -1.20029e-16 -1 6.00142e-17
v -0.575164 0.0827005 0.532041
vn -1.21182e-16 -1 6.05908e-17
v -0.412844 0.0827005 0.519242
vn -1.13477e-16 -1 5.67384e-17
v -0.068115 0.248105 0.527897
vn 1.21689e-16 1 -6.08445e-17
v -0.0249341 0.248105 0.512966
vn 1.2125e-16 1 -6.0625e-17
v 0.440138 0.248105 0.476242
vn 1.21165e-16 1 -6.05823e-17
v 0.502444 0.0827005 0.48258
vn -1.21465e-16 -1 6.07322e-17
v 0.482855 0.0827005 0.477196
vn -1.21732e-16 -1 6.08658e-17
v 0.434191 0.248105 0.571708
vn 1.22183e-16 1 -6.10913e-17
v 0.476906 0.0827005 0.572665
vn -1.21447e-16 -1 6.07233e-17
v -0.45413 0.248105 0.562068
vn 1.21667e-16 1 -6.08334e-17
v 0.068115 0.248105 0.609489
vn 1.20029e-16 1 -6.00142e-17
v -0.437029 0.0827005 0.554209
vn -1.21487e-16 -1 6.07432e-17
v -0.415661 0.0827005 0.532041
vn -1.21396e-16 -1 6.0698e-17
v -0.048164 0.0827005 0.618659
vn -1.21808e-16 -1 6.0904e-17
v -0.423908 0.248105 0.543968
vn 1.21387e-16 1 -6.06935e-17
v 0.0834249 0.0827005 0.59754
vn -1.19742e-16 -1 5.98706e-17
v -0.0249341 0.0827005 0.512966
vn -1.18274e-16 -1 5.91367e-17
v -0.0834249 0.248105 0.539846
vn 1.21542e-16 1 -6.07709e-17
v -3.58758e-09 0.248105 0.511
vn 1.20141e-16 1 -6.00703e-17
v 0.419932 0.248105 0.480733
vn 1.219e-16 1 -6.09497e-17
v 0.461606 0.0827005 0.475035
vn -1.22065e-16 -1 6.10324e-17
v 0.4146 0.248105 0.566326
vn 1.16568e-16 1 -5.82836e-17
v 0.45544 0.0827005 0.573872
vn -1.21783e-16 -1 6.08915e-17
v -0.437029 0.248105 0.554209
vn 1.21487e-16 1 -6.07432e-17
v 0.0834249 0.248105 0.59754
vn 1.19742e-16 1 -5.98706e-17
v -0.423908 0.0827005 0.543968
vn -1.21387e-16 -1 6.06935e-17
v -0.068115 0.248105 0.609489
vn 1.22045e-16 1 -6.10221e-17
v 0.0930461 0.0827005 0.583626
vn -1.19656e-16 -1 5.98276e-17
v -3.58758e-09 0.0827005 0.511
vn -1.21876e-16 -1 6.09376e-17
v -0.048164 0.0827005 0.51873
vn -1.21909e-16 -1 6.09545e-17
v -0.068115 0.0827005 0.609489
vn -1.22045e-16 -1 6.10221e-17
v -0.0930461 0.248105 0.553761
vn 1.21478e-16 1 -6.07386e-17
v 0.0249341 0.248105 0.512966
vn 1.19224e-16 1 -5.96119e-17
v 0.402354 0.248105 0.488204
vn 1.16298e-16 1 -5.81486e-17
v 0.440138 0.0827005 0.476242
vn -1.2163e-16 -1 6.08147e-17
v 0.096331 0.248105 0.568694
vn 1.06929e-16 1 -5.34644e-17
v 0.434191 0.0827005 0.571708
vn -1.22183e-16 -1 6.10913e-17
v 0.0930461 0.248105 0.583626
vn 1.19656e-16 1 -5.98276e-17
v -0.0834249 0.248105 0.59754
vn 1.21793e-16 1 -6.08962e-17
v 0.096331 0.0827005 0.568694
vn -1.13097e-16 -1 5.65483e-17
v 0.0249341 0.0827005 0.512966
vn -1.2113e-16 -1 6.05646e-17
v -0.068115 0.0827005 0.527897
vn -1.21689e-16 -1 6.08445e-17
v -0.0834249 0.0827005 0.59754
vn -1.21793e-16 -1 6.08962e-17
v -0.096331 0.248105 0.568694
vn 1.215e-16 1 -6.07497e-17
v 0.048164 0.248105 0.51873
vn 1.18552e-16 1 -5.9276e-17
v 0.0834249 0.0827005 0.539846
vn -1.21363e-16 -1 6.06813e-17
v 0.419932 0.0827005 0.480733
vn -1.21287e-16 -1 6.06431e-17
v 0.068115 0.0827005 0.527897
vn -1.20652e-16 -1 6.03256e-17
v 0.398 0.248105 0.558091
vn 1.21854e-16 1 -6.09267e-17
v 0.4146 0.0827005 0.566326
vn -1.16568e-16 -1 5.82836e-17
v -0.0930461 0.248105 0.583626
vn 1.21607e-16 1 -6.08034e-17
v 0.048164 0.0827005 0.51873
vn -1.20501e-16 -1 6.02504e-17
v -0.0834249 0.0827005 0.539846
vn -1.21542e-16 -1 6.07709e-17
v -0.0930461 0.0827005 0.583626
vn -1.21607e-16 -1 6.08034e-17
v 0.068115 0.248105 0.527897
vn 1.18162e-16 1 -5.9081e-17
v 0.0930461 0.248105 0.553761
vn 1.18296e-16 1 -5.91478e-17
v 0.388604 0.248105 0.498145
vn 1.2198e-16 1 -6.09898e-17
v 0.402354 0.0827005 0.488204
vn -1.22177e-16 -1 6.10882e-17
v 0.0930461 0.0827005 0.553761
vn -1.21407e-16 -1 6.07031e-17
v 0.385528 0.248105 0.547562
vn 1.21752e-16 1 -6.08759e-17
v 0.398 0.0827005 0.558091
vn -1.21854e-16 -1 6.09267e-17
v -0.0930461 0.0827005 0.553761
vn -1.21478e-16 -1 6.07386e-17
v -0.096331 0.0827005 0.568694
vn -1.215e-16 -1 6.07497e-17
v 0.0834249 0.248105 0.539846
vn 1.18075e-16 1 -5.90374e-17
v 0.37962 0.248105 0.50988
vn 1.21831e-16 1 -6.09154e-17
v 0.388604 0.0827005 0.498145
vn -1.2198e-16 -1 6.09898e-17
v 0.37803 0.248105 0.535461
vn 1.21714e-16 1 -6.08566e-17
v 0.385528 0.0827005 0.547562
vn -1.21752e-16 -1 6.08759e-17
v 0.376014 0.248105 0.522608
vn 1.2174e-16 1 -6.087e-17
v 0.37962 0.0827005 0.50988
vn -1.21831e-16 -1 6.09154e-17
v 0.37803 0.0827005 0.535461
vn -1.21714e-16 -1 6.08566e-17
v 0.376014 0.0827005 0.522608
vn -1.2174e-16 -1 6.087e-17
v -1.3211 0.248105 0.0494513
vn 0 4.79554e-17 1
v 1.26606 0.220538 0.0494513
vn 0 4.78165e-17 1
v 1.3211 0.248105 0.0494513
vn 0 5.26436e-17 1
v 1.3211 -0.248105 0.0494513
vn 0 4.48715e-17 1
v -1.26606 0.220538 0.0494513
vn 0 5.26996e-17 1
v 1.3211 0.248105 0.0494513
vn -4.20513e-17 -1 2.10256e-17
v -0.516781 0.248105 0.471475
vn -6.27224e-17 -1 3.13611e-17
v -1.3211 0.248105 0.0494513
vn -4.99301e-17 -1 2.4965e-17
v 1.3211 0.248105 0.0494513
vn -1 9.38586e-17 -5.74717e-33
v 1.3211 -0.248105 0.0494513
vn -1 7.60858e-17 -4.6589e-33
v 1.3211 0.248105 0.655234
vn -1 7.60858e-17 -4.6589e-33
v 1.26606 0.179186 0.0494513
vn 0 5.77018e-17 1
v -1.3211 -0.248105 0.0494513
vn 0 5.09125e-17 1
v 1.18348 0.220538 0.0494513
vn 0 5.28117e-17 1
v -0.536697 0.248105 0.476416
vn -1.19862e-16 -1 5.99307e-17
v -0.495412 0.248105 0.469789
vn -1.20644e-16 -1 6.03216e-17
v 1.3211 -0.248105 0.655234
vn -1 9.38586e-17 -5.74717e-33
v 1.3211 0.248105 0.655234
vn -1.04837e-16 -1 5.24184e-17
v 0.990823 0.248105 0.741775
vn -6.71908e-17 -1 3.35953e-17
v 1.18348 0.179186 0.0494513
vn 0 2.20176e-17 1
v 1.26606 0.179186 0.0494513
vn -1 1.22212e-16 -7.48328e-33
v 1.26606 0.220538 0.0494513
vn -1 1.21959e-16 -7.46783e-33
v 1.26606 0.179186 0
vn -1 1.21959e-16 -7.46783e-33
v -1.26606 0.179186 0.0494513
vn 0 2.38976e-17 1
v -1.3211 -0.248105 0.0494513
vn 1 -9.38586e-17 5.74717e-33
v -1.3211 0.248105 0.0494513
vn 1 -7.60858e-17 4.6589e-33
v -1.3211 -0.248105 0.655234
vn 1 -7.60858e-17 4.6589e-33
v 1.18348 0.220538 0.0494513
vn -1.22046e-16 -1 6.10229e-17
v 1.18348 0.220538 0
vn -1.2163e-16 -1 6.08149e-17
v 1.26606 0.220538 0.0494513
vn -1.2163e-16 -1 6.08149e-17
v -1.18348 0.220538 0.0494513
vn 0 4.64271e-17 1
v -0.553795 0.248105 0.484274
vn -9.15292e-17 -1 4.57645e-17
v -0.536697 0.248105 0.476416
vn -0.495073 7.65321e-18 -0.868851
v -0.516781 0.248105 0.471475
vn -0.261271 -2.66597e-17 -0.965266
v -0.536697 0.0827005 0.476416
vn -0.493406 7.61476e-18 -0.869799
v -0.516781 0.248105 0.471475
vn -0.254053 -2.77946e-17 -0.96719
v -0.495412 0.248105 0.469789
vn -0.00425907 -6.00816e-17 -0.999991
v -0.516781 0.0827005 0.471475
vn -0.252915 -2.76396e-17 -0.967488
v -0.474044 0.248105 0.471475
vn -1.1952e-16 -1 5.97598e-17
v 1.3211 0.0827005 0.655234
vn -1 1.22465e-16 -7.4988e-33
v 1.3211 -0.248105 0.655234
vn 1.04837e-16 1 -5.24184e-17
v 1.3211 -0.248105 0.0494513
vn 4.78129e-17 1 -2.39064e-17
v 0.990823 -0.248105 0.568694
vn 1.00696e-16 1 -5.03478e-17
v 0.54103 0.248105 0.526299
vn -9.16509e-17 -1 4.58253e-17
v 0.990823 0.248105 0.741775
vn -0.381887 -6.44769e-18 -0.924209
v 1.3211 0.248105 0.655234
vn -0.365655 -5.96519e-18 -0.93075
v 0.990823 0.0827005 0.741775
vn -0.365655 -5.96519e-18 -0.93075
v 1.26606 -0.179187 0.0494513
vn 0 1.55616e-17 1
v 1.26606 0.179186 0.0494513
vn 1.22046e-16 1 -6.10229e-17
v 1.26606 0.179186 0
vn 1.2163e-16 1 -6.08149e-17
v 1.18348 0.179186 0.0494513
vn 1.2163e-16 1 -6.08149e-17
v 1.26606 0.220538 0
vn -1 1.22212e-16 -7.48328e-33
v -1.26606 0.220538 0.0494513
vn 1 -1.22212e-16 7.48328e-33
v -1.26606 0.179186 0.0494513
vn 1 -1.21959e-16 7.46783e-33
v -1.26606 0.220538 0
vn 1 -1.21959e-16 7.46783e-33
v -1.26606 -0.179187 0.0494513
vn 0 2.43558e-17 1
v -1.3211 0.248105 0.655234
vn 1 -9.38586e-17 5.74717e-33
v -1.3211 -0.248105 0.655234
vn 1.00696e-16 1 -5.03478e-17
v -0.990823 -0.248105 0.395613
vn 4.78129e-17 1 -2.39064e-17
v -1.3211 -0.248105 0.0494513
vn 6.32304e-17 1 -3.16151e-17
v 1.26606 0.220538 0
vn -1.22046e-16 -1 6.10229e-17
v 1.18348 0.220538 0.0494513
vn 1 -1.22212e-16 7.48328e-33
v 1.18348 0.179186 0.0494513
vn 1 -1.21959e-16 7.46783e-33
v 1.18348 0.220538 0
vn 1 -1.21959e-16 7.46783e-33
v -1.26606 0.220538 0.0494513
vn -1.22046e-16 -1 6.10229e-17
v -1.26606 0.220538 0
vn -1.2163e-16 -1 6.08149e-17
v -1.18348 0.220538 0.0494513
vn -1.2163e-16 -1 6.08149e-17
v -0.990823 0.248105 0.741775
vn -6.73361e-17 -1 3.36679e-17
v -0.553795 0.248105 0.484274
vn -0.702823 4.26327e-17 -0.711364
v -0.536697 0.248105 0.476416
vn -0.50122 8.63525e-18 -0.86532
v -0.553795 0.0827005 0.484274
vn -0.701199 4.24549e-17 -0.712966
v -0.516781 0.0827005 0.471475
vn -0.261849 -2.68028e-17 -0.965109
v -0.536697 0.0827005 0.476416
vn -0.502226 8.67519e-18 -0.864736
v -0.495412 0.0827005 0.469789
vn -0.00400241 -6.04256e-17 -0.999992
v -0.495412 0.248105 0.469789
vn 0.00400241 -6.13371e-17 -0.999992
v -0.474044 0.248105 0.471475
vn 0.252915 -8.9449e-17 -0.967488
v -0.495412 0.0827005 0.469789
vn 0.00425907 -6.09879e-17 -0.999991
v -0.45413 0.248105 0.476416
vn -1.18624e-16 -1 5.93119e-17
v 1.3211 0.0827005 0.655234
vn -0.381887 -6.44769e-18 -0.924209
v 1.3211 -0.248105 0.655234
vn 0.365655 -8.94775e-17 -0.93075
v 0.990823 -0.248105 0.568694
vn 0.339313 -7.77792e-17 -0.940673
v 1.3211 0.0827005 0.655234
vn 0.339313 -7.77792e-17 -0.940673
v 0.990823 -0.248105 0.395613
vn 7.53847e-17 1 -3.76922e-17
v 0.539015 0.248105 0.513445
vn -1.20051e-16 -1 6.00251e-17
v 0.537422 0.248105 0.539027
vn -1.21077e-16 -1 6.05382e-17
v 0.990823 0.0827005 0.741775
vn 0 -3.99181e-17 -1
v -0.990823 0.0827005 0.741775
vn 0 -2.96109e-17 -1
v 0.990823 0.248105 0.741775
vn 0 -2.96109e-17 -1
v 1.26606 -0.220538 0.0494513
vn 0 6.07815e-17 1
v -1.18348 0.179186 0.0494513
vn 0 2.36466e-17 1
v 1.18348 0.179186 0
vn 1.22046e-16 1 -6.10229e-17
v 1.26606 0.220538 0
vn 0 6.08936e-17 1
v 1.18348 0.220538 0
vn 0 6.05586e-17 1
v 1.26606 0.179186 0
vn 0 6.05586e-17 1
v -1.26606 0.179186 0
vn 1 -1.22212e-16 7.48328e-33
v -1.26606 -0.220538 0.0494513
vn 0 5.4377e-17 1
v -1.3211 0.0827005 0.655234
vn 1 -1.22465e-16 7.4988e-33
v -1.3211 0.248105 0.655234
vn -1.04837e-16 -1 5.24184e-17
v -0.990823 -0.248105 0.568694
vn 1.16851e-16 1 -5.84254e-17
v 1.18348 0.179186 0
vn 1 -1.22212e-16 7.48328e-33
v -1.18348 0.220538 0
vn -1.22046e-16 -1 6.10229e-17
v -0.566917 0.248105 0.494517
vn -1.22043e-16 -1 6.10213e-17
v -0.553795 0.248105 0.484274
vn -0.708835 4.36217e-17 -0.705374
v -0.553795 0.0827005 0.484274
vn -0.707928 4.3461e-17 -0.706284
v -0.566917 0.248105 0.494517
vn -0.861948 7.45259e-17 -0.506996
v -0.536697 0.0827005 0.476416
vn 1.22219e-16 1 -6.11092e-17
v -0.516781 0.0827005 0.471475
vn 1.14311e-16 1 -5.71555e-17
v -0.990823 0.0827005 0.568694
vn 1.03558e-16 1 -5.17786e-17
v -0.553795 0.0827005 0.484274
vn 1.14865e-16 1 -5.74323e-17
v -0.495412 0.0827005 0.469789
vn 1.08472e-16 1 -5.42357e-17
v -0.990823 0.0827005 0.395613
vn 1.02522e-16 1 -5.1261e-17
v -0.474044 0.0827005 0.471475
vn 0.254053 -8.99507e-17 -0.96719
v -0.474044 0.248105 0.471475
vn 0.26185 -9.07354e-17 -0.965109
v -0.45413 0.248105 0.476416
vn 0.493409 -1.12833e-16 -0.869797
v -0.474044 0.0827005 0.471475
vn 0.261272 -9.02511e-17 -0.965265
v -0.437029 0.248105 0.484274
vn -1.18006e-16 -1 5.90027e-17
v 1.3211 0.0827005 0.655234
vn 1.16851e-16 1 -5.84254e-17
v 0.990823 0.0827005 0.568694
vn 1.16851e-16 1 -5.84254e-17
v 0.990823 0.0827005 0.741775
vn 8.10017e-17 1 -4.05007e-17
v 0.990823 0.0827005 0.568694
vn 0.365655 -8.94775e-17 -0.93075
v 0.990823 -0.248105 0.395613
vn 1 -1.15746e-16 7.08735e-33
v 0.990823 0.0827005 0.395613
vn 1 -1.09725e-16 6.71871e-33
v 0.990823 -0.248105 0.568694
vn 1 -1.09725e-16 6.71871e-33
v 0.531518 0.248105 0.501343
vn -1.19758e-16 -1 5.9879e-17
v 0.54103 0.248105 0.526299
vn 0.999456 -1.20082e-16 0.0329701
v 0.54103 0.0827005 0.526299
vn 0.999476 -1.19827e-16 0.0323592
v 0.539015 0.248105 0.513445
vn 0.975714 -1.32312e-16 -0.21905
v 0.528442 0.248105 0.550759
vn -1.21004e-16 -1 6.0502e-17
v 0.537422 0.248105 0.539027
vn 0.956599 -9.91045e-17 0.291408
v 0.537422 0.0827005 0.539027
vn 0.95651 -9.88751e-17 0.291701
v 0.54103 0.248105 0.526299
vn 0.999083 -1.19328e-16 0.0428234
v -0.990823 0.248105 0.741775
vn 0 -3.99181e-17 -1
v -0.0249341 0.0827005 0.62442
vn 9.35664e-17 1 -4.6783e-17
v -0.990823 0.0827005 0.741775
vn 8.52567e-17 1 -4.26282e-17
v 1.18348 -0.220538 0.0494513
vn 0 4.28532e-17 1
v 1.26606 -0.220538 0.0494513
vn -1 1.22212e-16 -7.48329e-33
v 1.26606 -0.179187 0.0494513
vn -1 1.21959e-16 -7.46783e-33
v 1.26606 -0.220538 0
vn -1 1.21959e-16 -7.46783e-33
v 1.18348 0.179186 0
vn 0 6.08936e-17 1
v -1.26606 0.179186 0
vn 0 6.08936e-17 1
v -1.18348 0.179186 0
vn 0 6.05586e-17 1
v -1.26606 0.220538 0
vn 0 6.05586e-17 1
v -1.26606 0.179186 0
vn 1.22046e-16 1 -6.10229e-17
v -1.26606 0.179186 0.0494513
vn 1.2163e-16 1 -6.08149e-17
v -1.18348 0.179186 0
vn 1.2163e-16 1 -6.08149e-17
v 1.18348 -0.179187 0.0494513
vn 0 5.28119e-17 1
v -1.26606 -0.179187 0.0494513
vn 1 -1.22296e-16 7.48845e-33
v -1.26606 -0.220538 0.0494513
vn 1 -1.22127e-16 7.47813e-33
v -1.26606 -0.179187 0.0164838
vn 1 -1.22127e-16 7.47813e-33
v -1.3211 0.0827005 0.655234
vn -0.365655 -5.96523e-18 -0.93075
v -0.990823 0.0827005 0.568694
vn -0.339313 -5.18533e-18 -0.940673
v -1.3211 -0.248105 0.655234
vn -0.339313 -5.18533e-18 -0.940673
v -1.3211 0.248105 0.655234
vn 0.381887 -9.67149e-17 -0.924209
v -0.990823 0.248105 0.741775
vn 0.365655 -8.94774e-17 -0.93075
v -1.3211 0.0827005 0.655234
vn 0.365655 -8.94774e-17 -0.93075
v -0.990823 -0.248105 0.568694
vn -0.365655 -5.96523e-18 -0.93075
v -0.990823 -0.248105 0.568694
vn -1 1.15746e-16 -7.08735e-33
v -0.990823 0.0827005 0.568694
vn -1 1.09725e-16 -6.71871e-33
v -0.990823 -0.248105 0.395613
vn -1 1.09725e-16 -6.71871e-33
v -1.18348 0.179186 0.0494513
vn -1 1.22212e-16 -7.48328e-33
v -1.18348 0.220538 0.0494513
vn -1 1.21959e-16 -7.46783e-33
v -1.18348 0.179186 0
vn -1 1.21959e-16 -7.46783e-33
v -1.18348 0.220538 0
vn -1 1.22212e-16 -7.48328e-33
v -1.18348 0.220538 0
vn 0 6.08936e-17 1
v -0.575164 0.248105 0.506444
vn -1.2168e-16 -1 6.084e-17
v -0.566917 0.0827005 0.494517
vn -0.863046 7.47689e-17 -0.505125
v 0.990823 0.0827005 0.395613
vn 8.73603e-17 1 -4.368e-17
v -0.474044 0.0827005 0.471475
vn 1.21158e-16 1 -6.05786e-17
v -0.45413 0.0827005 0.476416
vn 0.495075 -1.13403e-16 -0.86885
v -0.45413 0.248105 0.476416
vn 0.502224 -1.14013e-16 -0.864738
v -0.437029 0.248105 0.484274
vn 0.701196 -1.28648e-16 -0.712969
v -0.45413 0.0827005 0.476416
vn 0.501217 -1.13488e-16 -0.865322
v -0.423908 0.248105 0.494517
vn -1.17698e-16 -1 5.88487e-17
v 0.990823 0.0827005 0.568694
vn 1 -1.15746e-16 7.08735e-33
v 0.990823 -0.248105 0.395613
vn 0 -2.96111e-17 -1
v -0.990823 -0.248105 0.395613
vn 0 -1.95271e-17 -1
v 0.990823 0.0827005 0.395613
vn 0 -1.95271e-17 -1
v 0.519046 0.248105 0.490815
vn -1.19661e-16 -1 5.98304e-17
v 0.539015 0.248105 0.513445
vn 0.973732 -1.32819e-16 -0.227696
v 0.539015 0.0827005 0.513445
vn 0.97339 -1.32496e-16 -0.229154
v 0.531518 0.248105 0.501343
vn 0.885045 -1.3615e-16 -0.465506
v 0.539015 0.0827005 0.513445
vn 0.975726 -1.32605e-16 -0.218993
v 0.54103 0.0827005 0.526299
vn 0.99912 -1.19587e-16 0.0419461
v 0.514691 0.248105 0.560702
vn -1.21044e-16 -1 6.0522e-17
v 0.528442 0.248105 0.550759
vn 0.848213 -7.13516e-17 0.529656
v 0.528442 0.0827005 0.550759
vn 0.84768 -7.11422e-17 0.530507
v 0.537422 0.248105 0.539027
vn 0.953457 -9.81167e-17 0.30153
v 0.537422 0.0827005 0.539027
vn 0.953971 -9.83716e-17 0.2999
v -0.0249341 0.248105 0.62442
vn -9.35664e-17 -1 4.6783e-17
v -0.990823 0.0827005 0.741775
vn 0.381887 -9.67149e-17 -0.924209
v -0.516781 0.0827005 0.56701
vn 1.11297e-16 1 -5.56485e-17
v -3.58758e-09 0.0827005 0.626386
vn 1.21876e-16 1 -6.09376e-17
v -1.18348 -0.220538 0.0494513
vn 0 4.82355e-17 1
v 1.26606 -0.220538 0.0494513
vn 1.22046e-16 1 -6.10229e-17
v 1.26606 -0.220538 0
vn 1.2163e-16 1 -6.08149e-17
v 1.18348 -0.220538 0.0494513
vn 1.2163e-16 1 -6.08149e-17
v 1.26606 -0.179187 0
vn -1 1.22212e-16 -7.48329e-33
v -1.18348 0.179186 0.0494513
vn 1.22046e-16 1 -6.10229e-17
v 1.18348 -0.179187 0.0494513
vn -1.22046e-16 -1 6.10229e-17
v 1.18348 -0.179187 0
vn -1.2163e-16 -1 6.08149e-17
v 1.26606 -0.179187 0.0494513
vn -1.2163e-16 -1 6.08149e-17
v -1.18348 -0.179187 0.0494513
vn 0 4.64274e-17 1
v -1.26606 -0.220538 0.0164838
vn 1 -1.22296e-16 7.48845e-33
v -1.26606 -0.179187 0.0494513
vn -1.22185e-16 -1 6.10925e-17
v -1.26606 -0.179187 0.0164838
vn -1.21907e-16 -1 6.09534e-17
v -1.18348 -0.179187 0.0494513
vn -1.21907e-16 -1 6.09534e-17
v -1.3211 0.0827005 0.655234
vn 1.16851e-16 1 -5.84254e-17
v -0.990823 0.0827005 0.395613
vn -1 1.15746e-16 -7.08735e-33
v -0.577981 0.248105 0.519242
vn -1.21387e-16 -1 6.06933e-17
v -0.566917 0.248105 0.494517
vn -0.867428 7.56538e-17 -0.497563
v -0.566917 0.0827005 0.494517
vn -0.866966 7.544e-17 -0.498367
v -0.575164 0.248105 0.506444
vn -0.9641 1.01592e-16 -0.265538
v -0.566917 0.0827005 0.494517
vn 1.22043e-16 1 -6.10213e-17
v -0.990823 0.0827005 0.395613
vn 0 -2.96111e-17 -1
v -0.45413 0.0827005 0.476416
vn 1.20293e-16 1 -6.01463e-17
v -0.437029 0.0827005 0.484274
vn 0.702821 -1.29187e-16 -0.711367
v -0.423908 0.248105 0.494517
vn 0.863046 -1.36197e-16 -0.505125
v -0.423908 0.0827005 0.494517
vn 0.861948 -1.35755e-16 -0.506996
v -0.437029 0.248105 0.484274
vn 0.707928 -1.29097e-16 -0.706284
v -0.415661 0.248105 0.506444
vn -1.17717e-16 -1 5.88581e-17
v 0.54103 0.0827005 0.526299
vn 1.07294e-16 1 -5.36468e-17
v 0.502444 0.248105 0.48258
vn -1.19765e-16 -1 5.98823e-17
v 0.531518 0.248105 0.501343
vn 0.881328 -1.36443e-16 -0.472505
v 0.531518 0.0827005 0.501343
vn 0.880327 -1.36017e-16 -0.474367
v 0.519046 0.248105 0.490815
vn 0.733831 -1.30627e-16 -0.679332
v 0.531518 0.0827005 0.501343
vn 0.885436 -1.36521e-16 -0.464761
v 0.539015 0.0827005 0.513445
vn 1.21202e-16 1 -6.0601e-17
v 0.537422 0.0827005 0.539027
vn 1.21077e-16 1 -6.05382e-17
v 0.497104 0.248105 0.568172
vn -1.21195e-16 -1 6.05975e-17
v 0.514691 0.248105 0.560702
vn 0.682005 -3.8762e-17 0.731347
v 0.514691 0.0827005 0.560702
vn 0.681056 -3.8614e-17 0.732231
v 0.528442 0.248105 0.550759
vn 0.842377 -7.02089e-17 0.538889
v 0.528442 0.0827005 0.550759
vn 0.843568 -7.04467e-17 0.537022
v 0.528442 0.0827005 0.550759
vn 1.21004e-16 1 -6.0502e-17
v -0.516781 0.248105 0.56701
vn -1.11297e-16 -1 5.56485e-17
v -3.58758e-09 0.248105 0.626386
vn -1.21876e-16 -1 6.09376e-17
v -0.536697 0.0827005 0.562068
vn 1.21195e-16 1 -6.05975e-17
v -0.495412 0.0827005 0.568694
vn 1.2222e-16 1 -6.111e-17
v -0.0249341 0.0827005 0.62442
vn -0.253281 8.98048e-17 0.967393
v -3.58758e-09 0.0827005 0.626386
vn -0.0049384 6.09448e-17 0.999988
v -0.0249341 0.248105 0.62442
vn -0.25196 8.92212e-17 0.967738
v 0.0249341 0.0827005 0.62442
vn 1.2113e-16 1 -6.05647e-17
v 1.18348 -0.220538 0
vn 1.22046e-16 1 -6.10229e-17
v 1.26606 -0.179187 0
vn 0 6.08936e-17 1
v 1.18348 -0.179187 0
vn 0 6.05586e-17 1
v 1.26606 -0.220538 0
vn 0 6.05586e-17 1
v 1.26606 -0.179187 0
vn -1.22046e-16 -1 6.10229e-17
v 1.18348 -0.179187 0.0494513
vn 1 -1.22212e-16 7.48329e-33
v 1.18348 -0.220538 0.0494513
vn 1 -1.21959e-16 7.46783e-33
v 1.18348 -0.179187 0
vn 1 -1.21959e-16 7.46783e-33
v -1.26606 -0.220538 0.0164838
vn 0 6.08936e-17 1
v -1.18348 -0.220538 0.0164838
vn 0 6.05586e-17 1
v -1.26606 -0.179187 0.0164838
vn 0 6.05586e-17 1
v -1.26606 -0.220538 0.0164838
vn 1.22185e-16 1 -6.10925e-17
v -1.26606 -0.220538 0.0494513
vn 1.21907e-16 1 -6.09534e-17
v -1.18348 -0.220538 0.0164838
vn 1.21907e-16 1 -6.09534e-17
v -1.18348 -0.179187 0.0164838
vn -1.22185e-16 -1 6.10925e-17
v -1.18348 -0.220538 0.0494513
vn 1.22185e-16 1 -6.10925e-17
v -0.575164 0.248105 0.532041
vn -1.21182e-16 -1 6.05908e-17
v -0.575164 0.248105 0.506444
vn -0.966839 1.0255e-16 -0.255387
v -0.575164 0.0827005 0.506444
vn -0.966792 1.02319e-16 -0.255565
v -0.577981 0.248105 0.519242
vn -0.999986 1.21711e-16 -0.00524229
v -0.575164 0.0827005 0.506444
vn -0.964526 1.01847e-16 -0.263988
v -0.575164 0.0827005 0.506444
vn 1.2168e-16 1 -6.084e-17
v -0.437029 0.0827005 0.484274
vn 1.19598e-16 1 -5.97988e-17
v -0.437029 0.0827005 0.484274
vn 0.708835 -1.29574e-16 -0.705374
v -0.423908 0.0827005 0.494517
vn 0.867428 -1.36316e-16 -0.497563
v -0.423908 0.248105 0.494517
vn 0.866966 -1.35931e-16 -0.498367
v -0.415661 0.0827005 0.506444
vn 0.9641 -1.3357e-16 -0.265538
v -0.415661 0.248105 0.506444
vn 0.964526 -1.33905e-16 -0.263988
v -0.412844 0.248105 0.519242
vn -1.02726e-16 -1 5.13627e-17
v 0.482855 0.248105 0.477196
vn -1.20064e-16 -1 6.00319e-17
v 0.502444 0.248105 0.48258
vn 0.534107 -1.16735e-16 -0.845417
v 0.519046 0.248105 0.490815
vn 0.727298 -1.30214e-16 -0.686322
v 0.502444 0.0827005 0.48258
vn 0.533083 -1.16213e-16 -0.846063
v 0.519046 0.0827005 0.490815
vn 0.734688 -1.31093e-16 -0.678405
v 0.531518 0.0827005 0.501343
vn 1.21191e-16 1 -6.05955e-17
v 0.476906 0.248105 0.572665
vn -1.21447e-16 -1 6.07233e-17
v 0.514691 0.248105 0.560702
vn 0.675786 -3.7762e-17 0.737097
v 0.497104 0.248105 0.568172
vn 0.468657 -3.57333e-18 0.88338
v 0.514691 0.0827005 0.560702
vn 0.674119 -3.75994e-17 0.738622
v 0.514691 0.0827005 0.560702
vn 1.21044e-16 1 -6.0522e-17
v -0.536697 0.248105 0.562068
vn -1.21195e-16 -1 6.05975e-17
v -0.495412 0.248105 0.568694
vn -1.2222e-16 -1 6.111e-17
v 0.0249341 0.248105 0.62442
vn -1.2113e-16 -1 6.05647e-17
v -3.58758e-09 0.248105 0.626386
vn -0.00464382 6.13516e-17 0.999989
v -0.553795 0.0827005 0.554209
vn 1.21083e-16 1 -6.05414e-17
v -0.536697 0.0827005 0.562068
vn -0.495073 1.13403e-16 0.868851
v -0.516781 0.0827005 0.56701
vn -0.261271 9.02509e-17 0.965266
v -0.536697 0.248105 0.562068
vn -0.493406 1.12833e-16 0.869799
v -0.516781 0.0827005 0.56701
vn -0.254053 8.99507e-17 0.96719
v -0.495412 0.0827005 0.568694
vn -0.00425863 6.09879e-17 0.999991
v -0.516781 0.248105 0.56701
vn -0.252915 8.9449e-17 0.967489
v -0.474044 0.0827005 0.56701
vn 1.21917e-16 1 -6.09584e-17
v -0.0249341 0.248105 0.62442
vn -0.262327 9.07154e-17 0.964979
v -0.048164 0.248105 0.618659
vn -0.492336 1.12599e-16 0.870405
v -0.0249341 0.0827005 0.62442
vn -0.261651 9.01515e-17 0.965162
v -3.58758e-09 0.0827005 0.626386
vn 0.00464382 6.02944e-17 0.999989
v 0.0249341 0.0827005 0.62442
vn 0.25196 2.76682e-17 0.967738
v -3.58758e-09 0.248105 0.626386
vn 0.0049384 5.98946e-17 0.999988
v 0.048164 0.0827005 0.618659
vn 1.20501e-16 1 -6.02504e-17
v -1.18348 -0.220538 0.0494513
vn -1 1.22296e-16 -7.48845e-33
v -1.18348 -0.179187 0.0494513
vn -1 1.22127e-16 -7.47813e-33
v -1.18348 -0.220538 0.0164838
vn -1 1.22127e-16 -7.47813e-33
v 1.18348 -0.220538 0
vn 1 -1.22212e-16 7.48329e-33
v 1.18348 -0.220538 0
vn 0 6.08936e-17 1
v -1.18348 -0.179187 0.0164838
vn 0 6.08936e-17 1
v -1.18348 -0.179187 0.0164838
vn -1 1.22296e-16 -7.48845e-33
v -0.566917 0.248105 0.543968
vn -1.21079e-16 -1 6.05391e-17
v -0.577981 0.248105 0.519242
vn -0.99999 1.2243e-16 0.00449619
v -0.577981 0.0827005 0.519242
vn -0.999986 1.22168e-16 0.00524227
v -0.575164 0.248105 0.532041
vn -0.966792 1.3343e-16 0.255564
v -0.577981 0.0827005 0.519242
vn -0.99999 1.21972e-16 -0.00449621
v -0.577981 0.0827005 0.519242
vn 1.21387e-16 1 -6.06933e-17
v -0.423908 0.0827005 0.494517
vn 1.19114e-16 1 -5.95567e-17
v -0.415661 0.0827005 0.506444
vn 1.18869e-16 1 -5.94341e-17
v -0.415661 0.0827005 0.506444
vn 0.966839 -1.33733e-16 -0.255387
v -0.415661 0.248105 0.506444
vn 0.966792 -1.33431e-16 -0.255565
v -0.412844 0.0827005 0.519242
vn 0.999986 -1.22168e-16 -0.00524229
v -0.412844 0.248105 0.519242
vn 0.99999 -1.2243e-16 -0.00449621
v -0.048164 0.248105 0.51873
vn -1.06624e-16 -1 5.3312e-17
v 0.461606 0.248105 0.475035
vn -1.2054e-16 -1 6.027e-17
v 0.482855 0.248105 0.477196
vn 0.297594 -9.44714e-17 -0.954692
v 0.502444 0.248105 0.48258
vn 0.525399 -1.15584e-16 -0.850856
v 0.482855 0.0827005 0.477196
vn 0.296925 -9.39752e-17 -0.954901
v 0.519046 0.0827005 0.490815
vn 0.728872 -1.30742e-16 -0.68465
v 0.502444 0.0827005 0.48258
vn 0.527096 -1.16155e-16 -0.849806
v 0.519046 0.0827005 0.490815
vn 1.21281e-16 1 -6.06401e-17
v 0.45544 0.248105 0.573872
vn -1.21783e-16 -1 6.08915e-17
v 0.497104 0.248105 0.568172
vn 0.462383 -2.57179e-18 0.88668
v 0.476906 0.248105 0.572665
vn 0.225278 3.1593e-17 0.974294
v 0.497104 0.0827005 0.568172
vn 0.46076 -2.55861e-18 0.887525
v 0.497104 0.0827005 0.568172
vn 0.469636 -3.5903e-18 0.88286
v 0.497104 0.0827005 0.568172
vn 1.21195e-16 1 -6.05975e-17
v -0.553795 0.248105 0.554209
vn -1.21083e-16 -1 6.05414e-17
v -0.516781 0.248105 0.56701
vn -0.261849 9.07353e-17 0.965109
v -0.474044 0.248105 0.56701
vn -1.21917e-16 -1 6.09584e-17
v -0.495412 0.248105 0.568694
vn -0.00400219 6.13371e-17 0.999992
v 0.048164 0.248105 0.618659
vn -1.20501e-16 -1 6.02504e-17
v 0.0249341 0.248105 0.62442
vn 0.253281 2.78492e-17 0.967393
v -0.566917 0.0827005 0.543968
vn 1.21079e-16 1 -6.05391e-17
v -0.553795 0.0827005 0.554209
vn -0.702823 1.29188e-16 0.711364
v -0.536697 0.0827005 0.562068
vn -0.50122 1.13489e-16 0.86532
v -0.553795 0.248105 0.554209
vn -0.701199 1.28649e-16 0.712966
v -0.536697 0.248105 0.562068
vn -0.502226 1.14013e-16 0.864736
v -0.495412 0.0827005 0.568694
vn 0.00400219 6.04256e-17 0.999992
v -0.474044 0.0827005 0.56701
vn 0.252915 2.76396e-17 0.967489
v -0.495412 0.248105 0.568694
vn 0.00425863 6.00816e-17 0.999991
v -0.45413 0.0827005 0.562068
vn 1.21667e-16 1 -6.08334e-17
v -0.048164 0.0827005 0.618659
vn -0.494274 1.13262e-16 0.869306
v -0.048164 0.248105 0.618659
vn -1.21808e-16 -1 6.0904e-17
v -0.415661 0.248105 0.532041
vn -1.21396e-16 -1 6.0698e-17
v 0.0249341 0.0827005 0.62442
vn 0.262327 2.66988e-17 0.964979
v 0.048164 0.0827005 0.618659
vn 0.492336 -7.52056e-18 0.870405
v 0.0249341 0.248105 0.62442
vn 0.261651 2.65328e-17 0.965162
v 0.068115 0.0827005 0.609489
vn 1.20029e-16 1 -6.00142e-17
v -0.575164 0.248105 0.532041
vn -0.964526 1.33905e-16 0.263988
v -0.575164 0.0827005 0.532041
vn -0.9641 1.3357e-16 0.265538
v -0.566917 0.248105 0.543968
vn -0.866966 1.35931e-16 0.498367
v -0.575164 0.0827005 0.532041
vn -0.966839 1.33732e-16 0.255385
v -0.575164 0.0827005 0.532041
vn 1.21182e-16 1 -6.05908e-17
v -0.412844 0.0827005 0.519242
vn 1.13477e-16 1 -5.67384e-17
v -0.412844 0.0827005 0.519242
vn 0.99999 -1.21972e-16 0.00449619
v -0.412844 0.248105 0.519242
vn 0.999986 -1.21711e-16 0.00524227
v -0.415661 0.0827005 0.532041
vn 0.966792 -1.02319e-16 0.255564
v -0.068115 0.248105 0.527897
vn -1.21689e-16 -1 6.08445e-17
v -0.0249341 0.248105 0.512966
vn -1.2125e-16 -1 6.0625e-17
v 0.440138 0.248105 0.476242
vn -1.21165e-16 -1 6.05823e-17
v 0.461606 0.248105 0.475035
vn 0.0411914 -6.58321e-17 -0.999151
v 0.482855 0.248105 0.477196
vn 0.288615 -9.31907e-17 -0.957445
v 0.461606 0.0827005 0.475035
vn 0.0413161 -6.54588e-17 -0.999146
v 0.482855 0.0827005 0.477196
vn 0.289858 -9.37083e-17 -0.95707
v 0.502444 0.0827005 0.48258
vn 1.21465e-16 1 -6.07322e-17
v 0.482855 0.0827005 0.477196
vn 1.21732e-16 1 -6.08658e-17
v 0.434191 0.248105 0.571708
vn -1.22183e-16 -1 6.10913e-17
v 0.476906 0.248105 0.572665
vn 0.217898 3.27487e-17 0.975972
v 0.45544 0.248105 0.573872
vn -0.0327996 6.4565e-17 0.999462
v 0.476906 0.0827005 0.572665
vn 0.216872 3.25645e-17 0.9762
v 0.476906 0.0827005 0.572665
vn 0.225755 3.17649e-17 0.974184
v 0.476906 0.0827005 0.572665
vn 1.21447e-16 1 -6.07233e-17
v -0.45413 0.248105 0.562068
vn -1.21667e-16 -1 6.08334e-17
v -0.474044 0.248105 0.56701
vn 0.254053 2.77946e-17 0.96719
v 0.068115 0.248105 0.609489
vn -1.20029e-16 -1 6.00142e-17
v 0.048164 0.248105 0.618659
vn 0.494274 -7.56482e-18 0.869306
v -0.553795 0.0827005 0.554209
vn -0.708835 1.29574e-16 0.705374
v -0.553795 0.248105 0.554209
vn -0.707928 1.29097e-16 0.706285
v -0.566917 0.0827005 0.543968
vn -0.861948 1.35755e-16 0.506997
v -0.474044 0.0827005 0.56701
vn 0.26185 2.68027e-17 0.965109
v -0.45413 0.0827005 0.562068
vn 0.493409 -7.61505e-18 0.869797
v -0.474044 0.248105 0.56701
vn 0.261272 2.66596e-17 0.965265
v -0.437029 0.0827005 0.554209
vn 1.21487e-16 1 -6.07432e-17
v -0.048164 0.0827005 0.618659
vn 1.21808e-16 1 -6.0904e-17
v -0.415661 0.0827005 0.532041
vn 1.21396e-16 1 -6.0698e-17
v -0.048164 0.248105 0.618659
vn -0.502575 1.1397e-16 0.864534
v -0.068115 0.248105 0.609489
vn -0.700231 1.28443e-16 0.713916
v -0.048164 0.0827005 0.618659
vn -0.501401 1.13359e-16 0.865215
v -0.423908 0.248105 0.543968
vn -1.21387e-16 -1 6.06935e-17
v 0.048164 0.0827005 0.618659
vn 0.502575 -8.75032e-18 0.864534
v 0.068115 0.0827005 0.609489
vn 0.700231 -4.23177e-17 0.713916
v 0.048164 0.248105 0.618659
vn 0.501401 -8.70339e-18 0.865215
v 0.0834249 0.0827005 0.59754
vn 1.19742e-16 1 -5.98706e-17
v -0.566917 0.248105 0.543968
vn -0.863046 1.36197e-16 0.505125
v -0.566917 0.0827005 0.543968
vn -0.867428 1.36316e-16 0.497563
v -0.0249341 0.0827005 0.512966
vn 1.18274e-16 1 -5.91367e-17
v -0.415661 0.248105 0.532041
vn 0.966839 -1.0255e-16 0.255385
v -0.0834249 0.248105 0.539846
vn -1.21542e-16 -1 6.07709e-17
v -0.068115 0.248105 0.527897
vn -0.70212 4.25241e-17 -0.712058
v -0.048164 0.248105 0.51873
vn -0.501397 8.70292e-18 -0.865217
v -0.068115 0.0827005 0.527897
vn -0.700228 4.23173e-17 -0.713919
v -0.048164 0.248105 0.51873
vn -0.494277 7.5653e-18 -0.869304
v -0.0249341 0.248105 0.512966
vn -0.261656 -2.65322e-17 -0.965161
v -0.048164 0.0827005 0.51873
vn -0.49234 7.52103e-18 -0.870403
v -3.58758e-09 0.248105 0.511
vn -1.20141e-16 -1 6.00703e-17
v 0.419932 0.248105 0.480733
vn -1.219e-16 -1 6.09497e-17
v 0.440138 0.248105 0.476242
vn -0.217898 -3.27487e-17 -0.975972
v 0.461606 0.248105 0.475035
vn 0.0327996 -6.45649e-17 -0.999462
v 0.440138 0.0827005 0.476242
vn -0.216872 -3.25645e-17 -0.9762
v 0.461606 0.0827005 0.475035
vn 0.0331892 -6.49356e-17 -0.999449
v 0.461606 0.0827005 0.475035
vn 1.22065e-16 1 -6.10324e-17
v 0.4146 0.248105 0.566326
vn -1.16568e-16 -1 5.82836e-17
v 0.45544 0.248105 0.573872
vn -0.0411959 6.58326e-17 0.999151
v 0.434191 0.248105 0.571708
vn -0.28862 9.3191e-17 0.957444
v 0.45544 0.0827005 0.573872
vn -0.0413211 6.54593e-17 0.999146
v 0.45544 0.0827005 0.573872
vn -0.0331892 6.49356e-17 0.999449
v 0.45544 0.0827005 0.573872
vn 1.21783e-16 1 -6.08915e-17
v -0.437029 0.248105 0.554209
vn -1.21487e-16 -1 6.07432e-17
v -0.45413 0.248105 0.562068
vn 0.495075 -7.65349e-18 0.86885
v 0.0834249 0.248105 0.59754
vn -1.19742e-16 -1 5.98706e-17
v 0.068115 0.248105 0.609489
vn 0.702123 -4.25245e-17 0.712056
v -0.45413 0.0827005 0.562068
vn 0.502224 -8.6749e-18 0.864738
v -0.437029 0.0827005 0.554209
vn 0.701196 -4.24544e-17 0.712969
v -0.45413 0.248105 0.562068
vn 0.501217 -8.63496e-18 0.865321
v -0.423908 0.0827005 0.543968
vn 1.21387e-16 1 -6.06935e-17
v -0.068115 0.0827005 0.609489
vn -0.702123 1.29071e-16 0.712056
v -0.068115 0.248105 0.609489
vn -1.22045e-16 -1 6.10221e-17
v -0.423908 0.248105 0.543968
vn 0.867428 -7.56538e-17 0.497563
v -0.423908 0.0827005 0.543968
vn 0.866966 -7.544e-17 0.498367
v -0.415661 0.248105 0.532041
vn 0.9641 -1.01592e-16 0.265538
v 0.0834249 0.0827005 0.59754
vn 0.862559 -7.46593e-17 0.505957
v 0.0834249 0.248105 0.59754
vn 0.861278 -7.43763e-17 0.508134
v 0.068115 0.0827005 0.609489
vn 0.708049 -4.34853e-17 0.706164
v 0.0930461 0.0827005 0.583626
vn 1.19656e-16 1 -5.98276e-17
v -3.58758e-09 0.0827005 0.511
vn 1.21876e-16 1 -6.09376e-17
v -0.048164 0.0827005 0.51873
vn 1.21909e-16 1 -6.09545e-17
v -0.415661 0.0827005 0.532041
vn 0.964526 -1.01847e-16 0.263988
v -0.068115 0.0827005 0.609489
vn 1.22045e-16 1 -6.10221e-17
v -0.0930461 0.248105 0.553761
vn -1.21478e-16 -1 6.07386e-17
v -0.068115 0.248105 0.527897
vn -0.709107 4.36728e-17 -0.705101
v -0.068115 0.0827005 0.527897
vn -0.708049 4.34853e-17 -0.706164
v -0.0834249 0.248105 0.539846
vn -0.861278 7.43762e-17 -0.508134
v -0.048164 0.0827005 0.51873
vn -0.502572 8.74984e-18 -0.864535
v -0.0249341 0.0827005 0.512966
vn -0.262332 -2.66982e-17 -0.964978
v -0.0249341 0.248105 0.512966
vn -0.253281 -2.78492e-17 -0.967393
v -3.58758e-09 0.248105 0.511
vn -0.00493839 -5.98946e-17 -0.999988
v -0.0249341 0.0827005 0.512966
vn -0.25196 -2.76682e-17 -0.967738
v 0.0249341 0.248105 0.512966
vn -1.19224e-16 -1 5.96119e-17
v 0.402354 0.248105 0.488204
vn -1.16298e-16 -1 5.81486e-17
v 0.419932 0.248105 0.480733
vn -0.462374 2.57052e-18 -0.886685
v 0.440138 0.248105 0.476242
vn -0.22527 -3.15937e-17 -0.974296
v 0.419932 0.0827005 0.480733
vn -0.460749 2.55735e-18 -0.88753
v 0.440138 0.0827005 0.476242
vn -0.225747 -3.17657e-17 -0.974186
v 0.440138 0.0827005 0.476242
vn 1.2163e-16 1 -6.08147e-17
v 0.096331 0.248105 0.568694
vn -1.06929e-16 -1 5.34644e-17
v 0.434191 0.248105 0.571708
vn -0.297591 9.4471e-17 0.954693
v 0.4146 0.248105 0.566326
vn -0.525396 1.15583e-16 0.850858
v 0.434191 0.0827005 0.571708
vn -0.296921 9.39748e-17 0.954902
v 0.434191 0.0827005 0.571708
vn -0.289862 9.37087e-17 0.957068
v 0.434191 0.0827005 0.571708
vn 1.22183e-16 1 -6.10913e-17
v -0.437029 0.248105 0.554209
vn 0.702821 -4.26323e-17 0.711367
v 0.0930461 0.248105 0.583626
vn -1.19656e-16 -1 5.98276e-17
v 0.068115 0.248105 0.609489
vn 0.709107 -4.36728e-17 0.705101
v -0.423908 0.0827005 0.543968
vn 0.863046 -7.47689e-17 0.505125
v -0.423908 0.248105 0.543968
vn 0.861948 -7.4526e-17 0.506996
v -0.437029 0.0827005 0.554209
vn 0.707928 -4.3461e-17 0.706284
v -0.068115 0.0827005 0.609489
vn -0.709107 1.29519e-16 0.705101
v -0.068115 0.248105 0.609489
vn -0.708049 1.28963e-16 0.706164
v -0.0834249 0.0827005 0.59754
vn -0.861278 1.35602e-16 0.508134
v -0.0834249 0.248105 0.59754
vn -1.21793e-16 -1 6.08962e-17
v -0.437029 0.248105 0.554209
vn 0.708835 -4.36217e-17 0.705374
v 0.0834249 0.248105 0.59754
vn 0.86765 -7.56867e-17 0.497175
v 0.0834249 0.0827005 0.59754
vn 0.867112 -7.54375e-17 0.498114
v 0.0930461 0.248105 0.583626
vn 0.963799 -1.01452e-16 0.26663
v 0.0930461 0.0827005 0.583626
vn 0.964296 -1.01749e-16 0.264826
v 0.096331 0.0827005 0.568694
vn 1.13097e-16 1 -5.65483e-17
v 0.0249341 0.0827005 0.512966
vn 1.2113e-16 1 -6.05646e-17
v -3.58758e-09 0.0827005 0.511
vn -0.00464382 -6.02944e-17 -0.999989
v -0.068115 0.0827005 0.527897
vn 1.21689e-16 1 -6.08445e-17
v -0.0834249 0.0827005 0.59754
vn 1.21793e-16 1 -6.08962e-17
v -0.096331 0.248105 0.568694
vn -1.215e-16 -1 6.07497e-17
v -0.0834249 0.248105 0.539846
vn -0.86765 7.56866e-17 -0.497175
v -0.0834249 0.0827005 0.539846
vn -0.867112 7.54375e-17 -0.498114
v -0.0930461 0.248105 0.553761
vn -0.963799 1.01452e-16 -0.26663
v -0.0834249 0.0827005 0.539846
vn -0.862559 7.46592e-17 -0.505957
v -3.58758e-09 0.248105 0.511
vn 0.00464382 -6.13516e-17 -0.999989
v 0.0249341 0.248105 0.512966
vn 0.25196 -8.92212e-17 -0.967738
v -3.58758e-09 0.0827005 0.511
vn 0.00493839 -6.09448e-17 -0.999988
v 0.048164 0.248105 0.51873
vn -1.18552e-16 -1 5.9276e-17
v 0.402354 0.248105 0.488204
vn -0.675796 3.77635e-17 -0.737089
v 0.419932 0.248105 0.480733
vn -0.468667 3.57462e-18 -0.883375
v 0.402354 0.0827005 0.488204
vn -0.67413 3.7601e-17 -0.738613
v 0.419932 0.0827005 0.480733
vn -0.469645 3.59159e-18 -0.882855
v 0.419932 0.0827005 0.480733
vn 1.21287e-16 1 -6.06431e-17
v 0.0834249 0.0827005 0.539846
vn 1.21363e-16 1 -6.06813e-17
v 0.068115 0.0827005 0.527897
vn 1.20652e-16 1 -6.03256e-17
v 0.398 0.248105 0.558091
vn -1.21854e-16 -1 6.09267e-17
v 0.4146 0.0827005 0.566326
vn -0.527092 1.16154e-16 0.849808
v 0.4146 0.0827005 0.566326
vn 1.16568e-16 1 -5.82836e-17
v -0.0834249 0.248105 0.59754
vn -0.862559 1.36118e-16 0.505957
v -0.0930461 0.248105 0.583626
vn -1.21607e-16 -1 6.08034e-17
v 0.0930461 0.248105 0.583626
vn 0.966985 -1.02566e-16 0.254834
v 0.0930461 0.0827005 0.583626
vn 0.96693 -1.02295e-16 0.255043
v 0.096331 0.248105 0.568694
vn 0.999981 -1.21587e-16 0.00608903
v 0.096331 0.0827005 0.568694
vn 0.999986 -1.21891e-16 0.00522139
v 0.048164 0.0827005 0.51873
vn 1.20501e-16 1 -6.02504e-17
v 0.0249341 0.0827005 0.512966
vn 0.253281 -8.98048e-17 -0.967393
v -0.0834249 0.0827005 0.539846
vn 1.21542e-16 1 -6.07709e-17
v -0.0930461 0.0827005 0.583626
vn 1.21607e-16 1 -6.08034e-17
v -0.0930461 0.248105 0.553761
vn -0.966985 1.02565e-16 -0.254832
v -0.0930461 0.0827005 0.553761
vn -0.96693 1.02295e-16 -0.255042
v -0.096331 0.248105 0.568694
vn -0.999981 1.21587e-16 -0.006089
v -0.0930461 0.0827005 0.553761
vn -0.964296 1.01749e-16 -0.264826
v 0.0249341 0.248105 0.512966
vn 0.262332 -9.07157e-17 -0.964978
v 0.048164 0.248105 0.51873
vn 0.49234 -1.12599e-16 -0.870403
v 0.0249341 0.0827005 0.512966
vn 0.261656 -9.01519e-17 -0.965161
v 0.068115 0.248105 0.527897
vn -1.18162e-16 -1 5.9081e-17
v 0.0930461 0.248105 0.553761
vn -1.18296e-16 -1 5.91478e-17
v 0.388604 0.248105 0.498145
vn -1.2198e-16 -1 6.09898e-17
v 0.402354 0.248105 0.488204
vn -0.682003 3.87616e-17 -0.731349
v 0.402354 0.0827005 0.488204
vn -0.681054 3.86136e-17 -0.732233
v 0.388604 0.248105 0.498145
vn -0.842375 7.02087e-17 -0.538892
v 0.402354 0.0827005 0.488204
vn 1.22177e-16 1 -6.10882e-17
v 0.0930461 0.0827005 0.553761
vn 1.21407e-16 1 -6.07031e-17
v 0.4146 0.248105 0.566326
vn -0.534107 1.16735e-16 0.845417
v 0.398 0.248105 0.558091
vn -0.727298 1.30214e-16 0.686322
v 0.4146 0.0827005 0.566326
vn -0.533084 1.16213e-16 0.846063
v 0.385528 0.248105 0.547562
vn -1.21752e-16 -1 6.08759e-17
v -0.0834249 0.0827005 0.59754
vn -0.86765 1.36257e-16 0.497175
v -0.0834249 0.248105 0.59754
vn -0.867112 1.35808e-16 0.498114
v -0.0930461 0.0827005 0.583626
vn -0.963799 1.33474e-16 0.26663
v -0.0930461 0.248105 0.583626
vn -0.964296 1.33865e-16 0.264826
v 0.096331 0.248105 0.568694
vn 0.999986 -1.22423e-16 -0.00522138
v 0.096331 0.0827005 0.568694
vn 0.999981 -1.22117e-16 -0.00608902
v 0.0930461 0.248105 0.553761
vn 0.96693 -1.33313e-16 -0.255042
v 0.398 0.0827005 0.558091
vn 1.21854e-16 1 -6.09267e-17
v 0.048164 0.0827005 0.51873
vn 0.494277 -1.13262e-16 -0.869304
v -0.0930461 0.0827005 0.553761
vn 1.21478e-16 1 -6.07386e-17
v -0.096331 0.0827005 0.568694
vn 1.215e-16 1 -6.07497e-17
v -0.096331 0.248105 0.568694
vn -0.999986 1.22423e-16 0.00522138
v -0.096331 0.0827005 0.568694
vn -0.999981 1.22117e-16 0.00608902
v -0.0930461 0.248105 0.583626
vn -0.96693 1.33313e-16 0.255043
v -0.096331 0.0827005 0.568694
vn -0.999986 1.21891e-16 -0.00522136
v 0.048164 0.248105 0.51873
vn 0.502572 -1.1397e-16 -0.864535
v 0.068115 0.248105 0.527897
vn 0.700228 -1.28443e-16 -0.713919
v 0.048164 0.0827005 0.51873
vn 0.501397 -1.13359e-16 -0.865217
v 0.0834249 0.248105 0.539846
vn -1.18075e-16 -1 5.90374e-17
v 0.37962 0.248105 0.50988
vn -1.21831e-16 -1 6.09154e-17
v 0.388604 0.0827005 0.498145
vn -0.843567 7.04465e-17 -0.537025
v 0.388604 0.0827005 0.498145
vn 1.2198e-16 1 -6.09898e-17
v 0.068115 0.0827005 0.527897
vn 0.709107 -1.29519e-16 -0.705101
v 0.068115 0.248105 0.527897
vn 0.708049 -1.28963e-16 -0.706164
v 0.0834249 0.0827005 0.539846
vn 0.861278 -1.35602e-16 -0.508134
v 0.0834249 0.0827005 0.539846
vn 0.86765 -1.36257e-16 -0.497175
v 0.0834249 0.248105 0.539846
vn 0.867112 -1.35808e-16 -0.498114
v 0.0930461 0.0827005 0.553761
vn 0.963799 -1.33474e-16 -0.26663
v 0.068115 0.0827005 0.527897
vn 0.70212 -1.29071e-16 -0.712058
v 0.398 0.0827005 0.558091
vn -0.728872 1.30742e-16 0.68465
v 0.385528 0.248105 0.547562
vn -0.881328 1.36443e-16 0.472505
v 0.385528 0.0827005 0.547562
vn -0.880327 1.36017e-16 0.474367
v 0.398 0.248105 0.558091
vn -0.733831 1.30627e-16 0.679332
v 0.37803 0.248105 0.535461
vn -1.21714e-16 -1 6.08566e-17
v -0.0930461 0.0827005 0.583626
vn -0.966985 1.33665e-16 0.254834
v 0.0930461 0.0827005 0.553761
vn 0.966985 -1.33665e-16 -0.254832
v 0.385528 0.0827005 0.547562
vn 1.21752e-16 1 -6.08759e-17
v 0.0834249 0.248105 0.539846
vn 0.862559 -1.36118e-16 -0.505957
v 0.0930461 0.248105 0.553761
vn 0.964296 -1.33865e-16 -0.264826
v 0.376014 0.248105 0.522608
vn -1.2174e-16 -1 6.087e-17
v 0.388604 0.248105 0.498145
vn -0.848212 7.13513e-17 -0.529657
v 0.388604 0.0827005 0.498145
vn -0.847679 7.11419e-17 -0.53051
v 0.37962 0.248105 0.50988
vn -0.953455 9.81163e-17 -0.301534
v 0.37962 0.0827005 0.50988
vn 1.21831e-16 1 -6.09154e-17
v 0.398 0.0827005 0.558091
vn -0.734688 1.31093e-16 0.678405
v 0.385528 0.0827005 0.547562
vn -0.885436 1.36521e-16 0.464762
v 0.385528 0.248105 0.547562
vn -0.885045 1.3615e-16 0.465506
v 0.37803 0.0827005 0.535461
vn -0.97339 1.32496e-16 0.229154
v 0.37803 0.248105 0.535461
vn -0.973732 1.32819e-16 0.227696
v 0.37803 0.0827005 0.535461
vn 1.21714e-16 1 -6.08566e-17
v 0.37962 0.248105 0.50988
vn -0.9566 9.9105e-17 -0.291403
v 0.37962 0.0827005 0.50988
vn -0.956511 9.88756e-17 -0.291696
v 0.376014 0.248105 0.522608
vn -0.999083 1.19328e-16 -0.0428179
v 0.37962 0.0827005 0.50988
vn -0.95397 9.83712e-17 -0.299903
v 0.376014 0.0827005 0.522608
vn 1.2174e-16 1 -6.087e-17
v 0.37803 0.0827005 0.535461
vn -0.975726 1.32605e-16 0.218993
v 0.37803 0.248105 0.535461
vn -0.975714 1.32312e-16 0.21905
v 0.376014 0.0827005 0.522608
vn -0.999476 1.19827e-16 -0.0323592
v 0.376014 0.248105 0.522608
vn -0.999456 1.20082e-16 -0.0329701
v 0.376014 0.0827005 0.522608
vn -0.99912 1.19587e-16 -0.0419413
v 0.990823 0.0827005 0.395613
vn 0 1.95271e-17 1
v -0.990823 -0.248105 0.395613
vn 0 1.95271e-17 1
v 0.990823 -0.248105 0.395613
vn 0 2.96111e-17 1
v -0.990823 0.0827005 0.395613
vn 0 2.96111e-17 1
v 1.26606 0.179186 0
vn 1 -1.21959e-16 7.46783e-33
v 1.26606 0.220538 0.0494513
vn 1 -1.21959e-16 7.46783e-33
v 1.26606 0.179186 0.0494513
vn 1 -1.22212e-16 7.48328e-33
v 1.26606 0.220538 0.0494513
vn 1.2163e-16 1 -6.08149e-17
v 1.18348 0.220538 0
vn 1.2163e-16 1 -6.08149e-17
v 1.18348 0.220538 0.0494513
vn 1.22046e-16 1 -6.10229e-17
v -0.536697 0.0827005 0.476416
vn 0.493406 -7.61476e-18 0.869799
v -0.516781 0.248105 0.471475
vn 0.261271 2.66597e-17 0.965266
v -0.536697 0.248105 0.476416
vn 0.495073 -7.65321e-18 0.868851
v -0.516781 0.0827005 0.471475
vn 0.252915 2.76396e-17 0.967488
v -0.495412 0.248105 0.469789
vn 0.00425907 6.00816e-17 0.999991
v -0.516781 0.248105 0.471475
vn 0.254053 2.77946e-17 0.96719
v 1.18348 0.179186 0.0494513
vn -1.2163e-16 -1 6.08149e-17
v 1.26606 0.179186 0
vn -1.2163e-16 -1 6.08149e-17
v 1.26606 0.179186 0.0494513
vn -1.22046e-16 -1 6.10229e-17
v 1.26606 0.220538 0
vn 1 -1.22212e-16 7.48328e-33
v -1.26606 0.220538 0
vn -1 1.21959e-16 -7.46783e-33
v -1.26606 0.179186 0.0494513
vn -1 1.21959e-16 -7.46783e-33
v -1.26606 0.220538 0.0494513
vn -1 1.22212e-16 -7.48328e-33
v 1.26606 0.220538 0
vn 1.22046e-16 1 -6.10229e-17
v 1.18348 0.220538 0
vn -1 1.21959e-16 -7.46783e-33
v 1.18348 0.179186 0.0494513
vn -1 1.21959e-16 -7.46783e-33
v 1.18348 0.220538 0.0494513
vn -1 1.22212e-16 -7.48328e-33
v -1.18348 0.220538 0.0494513
vn 1.2163e-16 1 -6.08149e-17
v -1.26606 0.220538 0
vn 1.2163e-16 1 -6.08149e-17
v -1.26606 0.220538 0.0494513
vn 1.22046e-16 1 -6.10229e-17
v -0.553795 0.0827005 0.484274
vn 0.701199 -4.24549e-17 0.712966
v -0.536697 0.248105 0.476416
vn 0.50122 -8.63525e-18 0.86532
v -0.553795 0.248105 0.484274
vn 0.702823 -4.26327e-17 0.711364
v -0.516781 0.0827005 0.471475
vn 0.261849 2.68028e-17 0.965109
v -0.536697 0.0827005 0.476416
vn 0.502226 -8.67519e-18 0.864736
v -0.495412 0.0827005 0.469789
vn 0.00400241 6.04256e-17 0.999992
v -0.495412 0.0827005 0.469789
vn -0.00425907 6.09879e-17 0.999991
v -0.474044 0.248105 0.471475
vn -0.252915 8.9449e-17 0.967488
v -0.495412 0.248105 0.469789
vn -0.00400241 6.13371e-17 0.999992
v 1.18348 0.179186 0
vn -1.22046e-16 -1 6.10229e-17
v 1.26606 0.179186 0
vn 0 -6.05586e-17 -1
v 1.18348 0.220538 0
vn 0 -6.05586e-17 -1
v 1.26606 0.220538 0
vn 0 -6.08936e-17 -1
v -1.26606 0.179186 0
vn -1 1.22212e-16 -7.48328e-33
v 1.18348 0.179186 0
vn -1 1.22212e-16 -7.48328e-33
v -1.18348 0.220538 0
vn 1.22046e-16 1 -6.10229e-17
v -0.566917 0.248105 0.494517
vn 0.861948 -7.45259e-17 0.506996
v -0.553795 0.0827005 0.484274
vn 0.707928 -4.3461e-17 0.706284
v -0.553795 0.248105 0.484274
vn 0.708835 -4.36217e-17 0.705374
v -0.474044 0.0827005 0.471475
vn -0.254053 8.99507e-17 0.96719
v -0.474044 0.0827005 0.471475
vn -0.261272 9.02511e-17 0.965265
v -0.45413 0.248105 0.476416
vn -0.493409 1.12833e-16 0.869797
v -0.474044 0.248105 0.471475
vn -0.26185 9.07354e-17 0.965109
v 0.539015 0.248105 0.513445
vn -0.975714 1.32312e-16 0.21905
v 0.54103 0.0827005 0.526299
vn -0.999476 1.19827e-16 -0.0323592
v 0.54103 0.248105 0.526299
vn -0.999456 1.20082e-16 -0.0329701
v 0.54103 0.248105 0.526299
vn -0.999083 1.19328e-16 -0.0428234
v 0.537422 0.0827005 0.539027
vn -0.95651 9.88751e-17 -0.291701
v 0.537422 0.248105 0.539027
vn -0.956599 9.91045e-17 -0.291408
v 1.26606 -0.220538 0
vn 1 -1.21959e-16 7.46783e-33
v 1.26606 -0.179187 0.0494513
vn 1 -1.21959e-16 7.46783e-33
v 1.26606 -0.220538 0.0494513
vn 1 -1.22212e-16 7.48329e-33
v 1.18348 0.179186 0
vn 0 -6.08936e-17 -1
v -1.26606 0.220538 0
vn 0 -6.05586e-17 -1
v -1.18348 0.179186 0
vn 0 -6.05586e-17 -1
v -1.26606 0.179186 0
vn 0 -6.08936e-17 -1
v -1.18348 0.179186 0
vn -1.2163e-16 -1 6.08149e-17
v -1.26606 0.179186 0.0494513
vn -1.2163e-16 -1 6.08149e-17
v -1.26606 0.179186 0
vn -1.22046e-16 -1 6.10229e-17
v -1.26606 -0.179187 0.0164838
vn -1 1.22127e-16 -7.47813e-33
v -1.26606 -0.220538 0.0494513
vn -1 1.22127e-16 -7.47813e-33
v -1.26606 -0.179187 0.0494513
vn -1 1.22296e-16 -7.48845e-33
v -1.18348 0.179186 0
vn 1 -1.21959e-16 7.46783e-33
v -1.18348 0.220538 0.0494513
vn 1 -1.21959e-16 7.46783e-33
v -1.18348 0.179186 0.0494513
vn 1 -1.22212e-16 7.48328e-33
v -1.18348 0.220538 0
vn 1 -1.22212e-16 7.48328e-33
v -1.18348 0.220538 0
vn 0 -6.08936e-17 -1
v -0.566917 0.0827005 0.494517
vn 0.863046 -7.47689e-17 0.505125
v -0.45413 0.0827005 0.476416
vn -0.495075 1.13403e-16 0.86885
v -0.45413 0.0827005 0.476416
vn -0.501217 1.13488e-16 0.865322
v -0.437029 0.248105 0.484274
vn -0.701196 1.28648e-16 0.712969
v -0.45413 0.248105 0.476416
vn -0.502224 1.14013e-16 0.864738
v 0.531518 0.248105 0.501343
vn -0.885045 1.3615e-16 0.465506
v 0.539015 0.0827005 0.513445
vn -0.97339 1.32496e-16 0.229154
v 0.539015 0.248105 0.513445
vn -0.973732 1.32819e-16 0.227696
v 0.539015 0.0827005 0.513445
vn -0.975726 1.32605e-16 0.218993
v 0.54103 0.0827005 0.526299
vn -0.99912 1.19587e-16 -0.0419461
v 0.537422 0.248105 0.539027
vn -0.953457 9.81167e-17 -0.30153
v 0.528442 0.0827005 0.550759
vn -0.84768 7.11422e-17 -0.530507
v 0.528442 0.248105 0.550759
vn -0.848213 7.13516e-17 -0.529656
v 0.537422 0.0827005 0.539027
vn -0.953971 9.83716e-17 -0.2999
v 1.18348 -0.220538 0.0494513
vn -1.2163e-16 -1 6.08149e-17
v 1.26606 -0.220538 0
vn -1.2163e-16 -1 6.08149e-17
v 1.26606 -0.220538 0.0494513
vn -1.22046e-16 -1 6.10229e-17
v 1.26606 -0.179187 0
vn 1 -1.22212e-16 7.48329e-33
v -1.18348 0.179186 0.0494513
vn -1.22046e-16 -1 6.10229e-17
v 1.26606 -0.179187 0.0494513
vn 1.2163e-16 1 -6.08149e-17
v 1.18348 -0.179187 0
vn 1.2163e-16 1 -6.08149e-17
v 1.18348 -0.179187 0.0494513
vn 1.22046e-16 1 -6.10229e-17
v -1.26606 -0.220538 0.0164838
vn -1 1.22296e-16 -7.48845e-33
v -1.18348 -0.179187 0.0494513
vn 1.21907e-16 1 -6.09534e-17
v -1.26606 -0.179187 0.0164838
vn 1.21907e-16 1 -6.09534e-17
v -1.26606 -0.179187 0.0494513
vn 1.22185e-16 1 -6.10925e-17
v -0.575164 0.248105 0.506444
vn 0.9641 -1.01592e-16 0.265538
v -0.566917 0.0827005 0.494517
vn 0.866966 -7.544e-17 0.498367
v -0.566917 0.248105 0.494517
vn 0.867428 -7.56538e-17 0.497563
v -0.437029 0.0827005 0.484274
vn -0.702821 1.29187e-16 0.711367
v -0.437029 0.248105 0.484274
vn -0.707928 1.29097e-16 0.706284
v -0.423908 0.0827005 0.494517
vn -0.861948 1.35755e-16 0.506996
v -0.423908 0.248105 0.494517
vn -0.863046 1.36197e-16 0.505125
v 0.519046 0.248105 0.490815
vn -0.733831 1.30627e-16 0.679332
v 0.531518 0.0827005 0.501343
vn -0.880327 1.36017e-16 0.474367
v 0.531518 0.248105 0.501343
vn -0.881328 1.36443e-16 0.472505
v 0.531518 0.0827005 0.501343
vn -0.885436 1.36521e-16 0.464761
v 0.528442 0.248105 0.550759
vn -0.842377 7.02089e-17 -0.538889
v 0.514691 0.0827005 0.560702
vn -0.681056 3.8614e-17 -0.732231
v 0.514691 0.248105 0.560702
vn -0.682005 3.8762e-17 -0.731347
v 0.528442 0.0827005 0.550759
vn -0.843568 7.04467e-17 -0.537022
v -0.0249341 0.248105 0.62442
vn 0.25196 -8.92212e-17 -0.967738
v -3.58758e-09 0.0827005 0.626386
vn 0.0049384 -6.09448e-17 -0.999988
v -0.0249341 0.0827005 0.62442
vn 0.253281 -8.98048e-17 -0.967393
v 1.18348 -0.220538 0
vn -1.22046e-16 -1 6.10229e-17
v 1.26606 -0.220538 0
vn 0 -6.05586e-17 -1
v 1.18348 -0.179187 0
vn 0 -6.05586e-17 -1
v 1.26606 -0.179187 0
vn 0 -6.08936e-17 -1
v 1.26606 -0.179187 0
vn 1.22046e-16 1 -6.10229e-17
v 1.18348 -0.179187 0
vn -1 1.21959e-16 -7.46783e-33
v 1.18348 -0.220538 0.0494513
vn -1 1.21959e-16 -7.46783e-33
v 1.18348 -0.179187 0.0494513
vn -1 1.22212e-16 -7.48329e-33
v -1.26606 -0.179187 0.0164838
vn 0 -6.05586e-17 -1
v -1.18348 -0.220538 0.0164838
vn 0 -6.05586e-17 -1
v -1.26606 -0.220538 0.0164838
vn 0 -6.08936e-17 -1
v -1.18348 -0.220538 0.0164838
vn -1.21907e-16 -1 6.09534e-17
v -1.26606 -0.220538 0.0494513
vn -1.21907e-16 -1 6.09534e-17
v -1.26606 -0.220538 0.0164838
vn -1.22185e-16 -1 6.10925e-17
v -1.18348 -0.179187 0.0164838
vn 1.22185e-16 1 -6.10925e-17
v -1.18348 -0.220538 0.0494513
vn -1.22185e-16 -1 6.10925e-17
v -0.577981 0.248105 0.519242
vn 0.999986 -1.21711e-16 0.00524229
v -0.575164 0.0827005 0.506444
vn 0.966792 -1.02319e-16 0.255565
v -0.575164 0.248105 0.506444
vn 0.966839 -1.0255e-16 0.255387
v -0.575164 0.0827005 0.506444
vn 0.964526 -1.01847e-16 0.263988
v -0.437029 0.0827005 0.484274
vn -0.708835 1.29574e-16 0.705374
v -0.415661 0.0827005 0.506444
vn -0.9641 1.3357e-16 0.265538
v -0.423908 0.248105 0.494517
vn -0.866966 1.35931e-16 0.498367
v -0.423908 0.0827005 0.494517
vn -0.867428 1.36316e-16 0.497563
v -0.415661 0.248105 0.506444
vn -0.964526 1.33905e-16 0.263988
v 0.502444 0.0827005 0.48258
vn -0.533083 1.16213e-16 0.846063
v 0.519046 0.248105 0.490815
vn -0.727298 1.30214e-16 0.686322
v 0.502444 0.248105 0.48258
vn -0.534107 1.16735e-16 0.845417
v 0.519046 0.0827005 0.490815
vn -0.734688 1.31093e-16 0.678405
v 0.514691 0.0827005 0.560702
vn -0.674119 3.75994e-17 -0.738622
v 0.497104 0.248105 0.568172
vn -0.468657 3.57333e-18 -0.88338
v 0.514691 0.248105 0.560702
vn -0.675786 3.7762e-17 -0.737097
v -3.58758e-09 0.248105 0.626386
vn 0.00464382 -6.13516e-17 -0.999989
v -0.536697 0.248105 0.562068
vn 0.493406 -1.12833e-16 -0.869799
v -0.516781 0.0827005 0.56701
vn 0.261271 -9.02509e-17 -0.965266
v -0.536697 0.0827005 0.562068
vn 0.495073 -1.13403e-16 -0.868851
v -0.516781 0.248105 0.56701
vn 0.252915 -8.9449e-17 -0.967489
v -0.495412 0.0827005 0.568694
vn 0.00425863 -6.09879e-17 -0.999991
v -0.516781 0.0827005 0.56701
vn 0.254053 -8.99507e-17 -0.96719
v -0.0249341 0.0827005 0.62442
vn 0.261651 -9.01515e-17 -0.965162
v -0.048164 0.248105 0.618659
vn 0.492336 -1.12599e-16 -0.870405
v -0.0249341 0.248105 0.62442
vn 0.262327 -9.07154e-17 -0.964979
v -3.58758e-09 0.248105 0.626386
vn -0.0049384 -5.98946e-17 -0.999988
v 0.0249341 0.0827005 0.62442
vn -0.25196 -2.76682e-17 -0.967738
v -3.58758e-09 0.0827005 0.626386
vn -0.00464382 -6.02944e-17 -0.999989
v -1.18348 -0.220538 0.0164838
vn 1 -1.22127e-16 7.47813e-33
v -1.18348 -0.179187 0.0494513
vn 1 -1.22127e-16 7.47813e-33
v -1.18348 -0.220538 0.0494513
vn 1 -1.22296e-16 7.48845e-33
v 1.18348 -0.220538 0
vn -1 1.22212e-16 -7.48329e-33
v 1.18348 -0.220538 0
vn 0 -6.08936e-17 -1
v -1.18348 -0.179187 0.0164838
vn 0 -6.08936e-17 -1
v -1.18348 -0.179187 0.0164838
vn 1 -1.22296e-16 7.48845e-33
v -0.575164 0.248105 0.532041
vn 0.966792 -1.3343e-16 -0.255564
v -0.577981 0.0827005 0.519242
vn 0.999986 -1.22168e-16 -0.00524227
v -0.577981 0.248105 0.519242
vn 0.99999 -1.2243e-16 -0.00449619
v -0.577981 0.0827005 0.519242
vn 0.99999 -1.21972e-16 0.00449621
v -0.412844 0.0827005 0.519242
vn -0.999986 1.22168e-16 0.00524229
v -0.415661 0.248105 0.506444
vn -0.966792 1.33431e-16 0.255565
v -0.415661 0.0827005 0.506444
vn -0.966839 1.33733e-16 0.255387
v -0.412844 0.248105 0.519242
vn -0.99999 1.2243e-16 0.00449621
v 0.482855 0.0827005 0.477196
vn -0.296925 9.39752e-17 0.954901
v 0.502444 0.248105 0.48258
vn -0.525399 1.15584e-16 0.850856
v 0.482855 0.248105 0.477196
vn -0.297594 9.44714e-17 0.954692
v 0.519046 0.0827005 0.490815
vn -0.728872 1.30742e-16 0.68465
v 0.502444 0.0827005 0.48258
vn -0.527096 1.16155e-16 0.849806
v 0.497104 0.0827005 0.568172
vn -0.46076 2.55861e-18 -0.887525
v 0.476906 0.248105 0.572665
vn -0.225278 -3.1593e-17 -0.974294
v 0.497104 0.248105 0.568172
vn -0.462383 2.57179e-18 -0.88668
v 0.497104 0.0827005 0.568172
vn -0.469636 3.5903e-18 -0.88286
v -0.516781 0.248105 0.56701
vn 0.261849 -9.07353e-17 -0.965109
v -0.495412 0.248105 0.568694
vn 0.00400219 -6.13371e-17 -0.999992
v 0.0249341 0.248105 0.62442
vn -0.253281 -2.78492e-17 -0.967393
v -0.553795 0.248105 0.554209
vn 0.701199 -1.28649e-16 -0.712966
v -0.536697 0.0827005 0.562068
vn 0.50122 -1.13489e-16 -0.86532
v -0.553795 0.0827005 0.554209
vn 0.702823 -1.29188e-16 -0.711364
v -0.536697 0.248105 0.562068
vn 0.502226 -1.14013e-16 -0.864736
v -0.495412 0.248105 0.568694
vn -0.00425863 -6.00816e-17 -0.999991
v -0.474044 0.0827005 0.56701
vn -0.252915 -2.76396e-17 -0.967489
v -0.495412 0.0827005 0.568694
vn -0.00400219 -6.04256e-17 -0.999992
v -0.048164 0.0827005 0.618659
vn 0.494274 -1.13262e-16 -0.869306
v 0.0249341 0.248105 0.62442
vn -0.261651 -2.65328e-17 -0.965162
v 0.048164 0.0827005 0.618659
vn -0.492336 7.52056e-18 -0.870405
v 0.0249341 0.0827005 0.62442
vn -0.262327 -2.66988e-17 -0.964979
v -0.566917 0.248105 0.543968
vn 0.866966 -1.35931e-16 -0.498367
v -0.575164 0.0827005 0.532041
vn 0.9641 -1.3357e-16 -0.265538
v -0.575164 0.248105 0.532041
vn 0.964526 -1.33905e-16 -0.263988
v -0.575164 0.0827005 0.532041
vn 0.966839 -1.33732e-16 -0.255385
v -0.415661 0.0827005 0.532041
vn -0.966792 1.02319e-16 -0.255564
v -0.412844 0.248105 0.519242
vn -0.999986 1.21711e-16 -0.00524227
v -0.412844 0.0827005 0.519242
vn -0.99999 1.21972e-16 -0.00449619
v 0.461606 0.0827005 0.475035
vn -0.0413161 6.54588e-17 0.999146
v 0.482855 0.248105 0.477196
vn -0.288615 9.31907e-17 0.957445
v 0.461606 0.248105 0.475035
vn -0.0411914 6.58321e-17 0.999151
v 0.482855 0.0827005 0.477196
vn -0.289858 9.37083e-17 0.95707
v 0.476906 0.0827005 0.572665
vn -0.216872 -3.25645e-17 -0.9762
v 0.45544 0.248105 0.573872
vn 0.0327996 -6.4565e-17 -0.999462
v 0.476906 0.248105 0.572665
vn -0.217898 -3.27487e-17 -0.975972
v 0.476906 0.0827005 0.572665
vn -0.225755 -3.17649e-17 -0.974184
v -0.474044 0.248105 0.56701
vn -0.254053 -2.77946e-17 -0.96719
v 0.048164 0.248105 0.618659
vn -0.494274 7.56482e-18 -0.869306
v -0.566917 0.0827005 0.543968
vn 0.861948 -1.35755e-16 -0.506997
v -0.553795 0.248105 0.554209
vn 0.707928 -1.29097e-16 -0.706285
v -0.553795 0.0827005 0.554209
vn 0.708835 -1.29574e-16 -0.705374
v -0.474044 0.248105 0.56701
vn -0.261272 -2.66596e-17 -0.965265
v -0.45413 0.0827005 0.562068
vn -0.493409 7.61505e-18 -0.869797
v -0.474044 0.0827005 0.56701
vn -0.26185 -2.68027e-17 -0.965109
v -0.048164 0.0827005 0.618659
vn 0.501401 -1.13359e-16 -0.865215
v -0.068115 0.248105 0.609489
vn 0.700231 -1.28443e-16 -0.713916
v -0.048164 0.248105 0.618659
vn 0.502575 -1.1397e-16 -0.864534
v 0.048164 0.248105 0.618659
vn -0.501401 8.70339e-18 -0.865215
v 0.068115 0.0827005 0.609489
vn -0.700231 4.23177e-17 -0.713916
v 0.048164 0.0827005 0.618659
vn -0.502575 8.75032e-18 -0.864534
v -0.566917 0.248105 0.543968
vn 0.863046 -1.36197e-16 -0.505125
v -0.566917 0.0827005 0.543968
vn 0.867428 -1.36316e-16 -0.497563
v -0.415661 0.248105 0.532041
vn -0.966839 1.0255e-16 -0.255385
v -0.068115 0.0827005 0.527897
vn 0.700228 -4.23173e-17 0.713919
v -0.048164 0.248105 0.51873
vn 0.501397 -8.70292e-18 0.865217
v -0.068115 0.248105 0.527897
vn 0.70212 -4.25241e-17 0.712058
v -0.048164 0.0827005 0.51873
vn 0.49234 -7.52103e-18 0.870403
v -0.0249341 0.248105 0.512966
vn 0.261656 2.65322e-17 0.965161
v -0.048164 0.248105 0.51873
vn 0.494277 -7.5653e-18 0.869304
v 0.440138 0.0827005 0.476242
vn 0.216872 3.25645e-17 0.9762
v 0.461606 0.248105 0.475035
vn -0.0327996 6.45649e-17 0.999462
v 0.440138 0.248105 0.476242
vn 0.217898 3.27487e-17 0.975972
v 0.461606 0.0827005 0.475035
vn -0.0331892 6.49356e-17 0.999449
v 0.45544 0.0827005 0.573872
vn 0.0413211 -6.54593e-17 -0.999146
v 0.434191 0.248105 0.571708
vn 0.28862 -9.3191e-17 -0.957444
v 0.45544 0.248105 0.573872
vn 0.0411959 -6.58326e-17 -0.999151
v 0.45544 0.0827005 0.573872
vn 0.0331892 -6.49356e-17 -0.999449
v -0.45413 0.248105 0.562068
vn -0.495075 7.65349e-18 -0.86885
v 0.068115 0.248105 0.609489
vn -0.702123 4.25245e-17 -0.712056
v -0.45413 0.248105 0.562068
vn -0.501217 8.63496e-18 -0.865321
v -0.437029 0.0827005 0.554209
vn -0.701196 4.24544e-17 -0.712969
v -0.45413 0.0827005 0.562068
vn -0.502224 8.6749e-18 -0.864738
v -0.068115 0.0827005 0.609489
vn 0.702123 -1.29071e-16 -0.712056
v -0.415661 0.248105 0.532041
vn -0.9641 1.01592e-16 -0.265538
v -0.423908 0.0827005 0.543968
vn -0.866966 7.544e-17 -0.498367
v -0.423908 0.248105 0.543968
vn -0.867428 7.56538e-17 -0.497563
v 0.068115 0.0827005 0.609489
vn -0.708049 4.34853e-17 -0.706164
v 0.0834249 0.248105 0.59754
vn -0.861278 7.43763e-17 -0.508134
v 0.0834249 0.0827005 0.59754
vn -0.862559 7.46593e-17 -0.505957
v -0.415661 0.0827005 0.532041
vn -0.964526 1.01847e-16 -0.263988
v -0.0834249 0.248105 0.539846
vn 0.861278 -7.43762e-17 0.508134
v -0.068115 0.0827005 0.527897
vn 0.708049 -4.34853e-17 0.706164
v -0.068115 0.248105 0.527897
vn 0.709107 -4.36728e-17 0.705101
v -0.048164 0.0827005 0.51873
vn 0.502572 -8.74984e-18 0.864535
v -0.0249341 0.0827005 0.512966
vn 0.262332 2.66982e-17 0.964978
v -0.0249341 0.0827005 0.512966
vn 0.25196 2.76682e-17 0.967738
v -3.58758e-09 0.248105 0.511
vn 0.00493839 5.98946e-17 0.999988
v -0.0249341 0.248105 0.512966
vn 0.253281 2.78492e-17 0.967393
v 0.419932 0.0827005 0.480733
vn 0.460749 -2.55735e-18 0.88753
v 0.440138 0.248105 0.476242
vn 0.22527 3.15937e-17 0.974296
v 0.419932 0.248105 0.480733
vn 0.462374 -2.57052e-18 0.886685
v 0.440138 0.0827005 0.476242
vn 0.225747 3.17657e-17 0.974186
v 0.434191 0.0827005 0.571708
vn 0.296921 -9.39748e-17 -0.954902
v 0.4146 0.248105 0.566326
vn 0.525396 -1.15583e-16 -0.850858
v 0.434191 0.248105 0.571708
vn 0.297591 -9.4471e-17 -0.954693
v 0.434191 0.0827005 0.571708
vn 0.289862 -9.37087e-17 -0.957068
v -0.437029 0.248105 0.554209
vn -0.702821 4.26323e-17 -0.711367
v 0.068115 0.248105 0.609489
vn -0.709107 4.36728e-17 -0.705101
v -0.437029 0.0827005 0.554209
vn -0.707928 4.3461e-17 -0.706284
v -0.423908 0.248105 0.543968
vn -0.861948 7.4526e-17 -0.506996
v -0.423908 0.0827005 0.543968
vn -0.863046 7.47689e-17 -0.505125
v -0.0834249 0.0827005 0.59754
vn 0.861278 -1.35602e-16 -0.508134
v -0.068115 0.248105 0.609489
vn 0.708049 -1.28963e-16 -0.706164
v -0.068115 0.0827005 0.609489
vn 0.709107 -1.29519e-16 -0.705101
v -0.437029 0.248105 0.554209
vn -0.708835 4.36217e-17 -0.705374
v 0.0930461 0.248105 0.583626
vn -0.963799 1.01452e-16 -0.26663
v 0.0834249 0.0827005 0.59754
vn -0.867112 7.54375e-17 -0.498114
v 0.0834249 0.248105 0.59754
vn -0.86765 7.56867e-17 -0.497175
v 0.0930461 0.0827005 0.583626
vn -0.964296 1.01749e-16 -0.264826
v -3.58758e-09 0.0827005 0.511
vn 0.00464382 6.02944e-17 0.999989
v -0.0930461 0.248105 0.553761
vn 0.963799 -1.01452e-16 0.26663
v -0.0834249 0.0827005 0.539846
vn 0.867112 -7.54375e-17 0.498114
v -0.0834249 0.248105 0.539846
vn 0.86765 -7.56866e-17 0.497175
v -0.0834249 0.0827005 0.539846
vn 0.862559 -7.46592e-17 0.505957
v -3.58758e-09 0.0827005 0.511
vn -0.00493839 6.09448e-17 0.999988
v 0.0249341 0.248105 0.512966
vn -0.25196 8.92212e-17 0.967738
v -3.58758e-09 0.248105 0.511
vn -0.00464382 6.13516e-17 0.999989
v 0.402354 0.0827005 0.488204
vn 0.67413 -3.7601e-17 0.738613
v 0.419932 0.248105 0.480733
vn 0.468667 -3.57462e-18 0.883375
v 0.402354 0.248105 0.488204
vn 0.675796 -3.77635e-17 0.737089
v 0.419932 0.0827005 0.480733
vn 0.469645 -3.59159e-18 0.882855
v 0.4146 0.0827005 0.566326
vn 0.527092 -1.16154e-16 -0.849808
v -0.0834249 0.248105 0.59754
vn 0.862559 -1.36118e-16 -0.505957
v 0.096331 0.248105 0.568694
vn -0.999981 1.21587e-16 -0.00608903
v 0.0930461 0.0827005 0.583626
vn -0.96693 1.02295e-16 -0.255043
v 0.0930461 0.248105 0.583626
vn -0.966985 1.02566e-16 -0.254834
v 0.096331 0.0827005 0.568694
vn -0.999986 1.21891e-16 -0.00522139
v 0.0249341 0.0827005 0.512966
vn -0.253281 8.98048e-17 0.967393
v -0.096331 0.248105 0.568694
vn 0.999981 -1.21587e-16 0.006089
v -0.0930461 0.0827005 0.553761
vn 0.96693 -1.02295e-16 0.255042
v -0.0930461 0.248105 0.553761
vn 0.966985 -1.02565e-16 0.254832
v -0.0930461 0.0827005 0.553761
vn 0.964296 -1.01749e-16 0.264826
v 0.0249341 0.0827005 0.512966
vn -0.261656 9.01519e-17 0.965161
v 0.048164 0.248105 0.51873
vn -0.49234 1.12599e-16 0.870403
v 0.0249341 0.248105 0.512966
vn -0.262332 9.07157e-17 0.964978
v 0.388604 0.248105 0.498145
vn 0.842375 -7.02087e-17 0.538892
v 0.402354 0.0827005 0.488204
vn 0.681054 -3.86136e-17 0.732233
v 0.402354 0.248105 0.488204
vn 0.682003 -3.87616e-17 0.731349
v 0.4146 0.0827005 0.566326
vn 0.533084 -1.16213e-16 -0.846063
v 0.398 0.248105 0.558091
vn 0.727298 -1.30214e-16 -0.686322
v 0.4146 0.248105 0.566326
vn 0.534107 -1.16735e-16 -0.845417
v -0.0930461 0.0827005 0.583626
vn 0.963799 -1.33474e-16 -0.26663
v -0.0834249 0.248105 0.59754
vn 0.867112 -1.35808e-16 -0.498114
v -0.0834249 0.0827005 0.59754
vn 0.86765 -1.36257e-16 -0.497175
v -0.0930461 0.248105 0.583626
vn 0.964296 -1.33865e-16 -0.264826
v 0.0930461 0.248105 0.553761
vn -0.96693 1.33313e-16 0.255042
v 0.096331 0.0827005 0.568694
vn -0.999981 1.22117e-16 0.00608902
v 0.096331 0.248105 0.568694
vn -0.999986 1.22423e-16 0.00522138
v 0.048164 0.0827005 0.51873
vn -0.494277 1.13262e-16 0.869304
v -0.0930461 0.248105 0.583626
vn 0.96693 -1.33313e-16 -0.255043
v -0.096331 0.0827005 0.568694
vn 0.999981 -1.22117e-16 -0.00608902
v -0.096331 0.248105 0.568694
vn 0.999986 -1.22423e-16 -0.00522138
v -0.096331 0.0827005 0.568694
vn 0.999986 -1.21891e-16 0.00522136
v 0.048164 0.0827005 0.51873
vn -0.501397 1.13359e-16 0.865217
v 0.068115 0.248105 0.527897
vn -0.700228 1.28443e-16 0.713919
v 0.048164 0.248105 0.51873
vn -0.502572 1.1397e-16 0.864535
v 0.388604 0.0827005 0.498145
vn 0.843567 -7.04465e-17 0.537025
v 0.0834249 0.0827005 0.539846
vn -0.861278 1.35602e-16 0.508134
v 0.068115 0.248105 0.527897
vn -0.708049 1.28963e-16 0.706164
v 0.068115 0.0827005 0.527897
vn -0.709107 1.29519e-16 0.705101
v 0.0930461 0.0827005 0.553761
vn -0.963799 1.33474e-16 0.26663
v 0.0834249 0.248105 0.539846
vn -0.867112 1.35808e-16 0.498114
v 0.0834249 0.0827005 0.539846
vn -0.86765 1.36257e-16 0.497175
v 0.068115 0.0827005 0.527897
vn -0.70212 1.29071e-16 0.712058
v 0.398 0.0827005 0.558091
vn 0.728872 -1.30742e-16 -0.68465
v 0.398 0.248105 0.558091
vn 0.733831 -1.30627e-16 -0.679332
v 0.385528 0.0827005 0.547562
vn 0.880327 -1.36017e-16 -0.474367
v 0.385528 0.248105 0.547562
vn 0.881328 -1.36443e-16 -0.472505
v -0.0930461 0.0827005 0.583626
vn 0.966985 -1.33665e-16 -0.254834
v 0.0930461 0.0827005 0.553761
vn -0.966985 1.33665e-16 0.254832
v 0.0834249 0.248105 0.539846
vn -0.862559 1.36118e-16 0.505957
v 0.0930461 0.248105 0.553761
vn -0.964296 1.33865e-16 0.264826
v 0.37962 0.248105 0.50988
vn 0.953455 -9.81163e-17 0.301534
v 0.388604 0.0827005 0.498145
vn 0.847679 -7.11419e-17 0.53051
v 0.388604 0.248105 0.498145
vn 0.848212 -7.13513e-17 0.529657
v 0.398 0.0827005 0.558091
vn 0.734688 -1.31093e-16 -0.678405
v 0.37803 0.0827005 0.535461
vn 0.97339 -1.32496e-16 -0.229154
v 0.385528 0.248105 0.547562
vn 0.885045 -1.3615e-16 -0.465506
v 0.385528 0.0827005 0.547562
vn 0.885436 -1.36521e-16 -0.464762
v 0.37803 0.248105 0.535461
vn 0.973732 -1.32819e-16 -0.227696
v 0.376014 0.248105 0.522608
vn 0.999083 -1.19328e-16 0.0428179
v 0.37962 0.0827005 0.50988
vn 0.956511 -9.88756e-17 0.291696
v 0.37962 0.248105 0.50988
vn 0.9566 -9.9105e-17 0.291403
v 0.37962 0.0827005 0.50988
vn 0.95397 -9.83712e-17 0.299903
v 0.376014 0.0827005 0.522608
vn 0.999476 -1.19827e-16 0.0323592
v 0.37803 0.248105 0.535461
vn 0.975714 -1.32312e-16 -0.21905
v 0.37803 0.0827005 0.535461
vn 0.975726 -1.32605e-16 -0.218993
v 0.376014 0.248105 0.522608
vn 0.999456 -1.20082e-16 0.0329701
v 0.376014 0.0827005 0.522608
vn 0.99912 -1.19587e-16 0.0419413
f 1//1 2//2 3//3
f 2//2 1//1 4//4
f 5//5 3//3 2//2
f 2//2 4//4 12//12
f 5//5 2//2 14//14
f 3//3 5//5 13//13
f 13//13 5//5 21//21
f 5//5 14//14 25//25
f 20//20 25//25 14//14
f 25//25 20//20 55//55
f 12//12 4//4 20//20
f 20//20 4//4 36//36
f 20//20 36//36 55//55
f 55//55 36//36 21//21
f 13//13 21//21 37//37
f 37//37 21//21 36//36
f 13//13 37//37 56//56
f 13//13 56//56 4//4
f 37//37 36//36 81//81
f 37//37 81//81 104//104
f 36//36 4//4 54//54
f 54//54 4//4 80//80
f 80//80 4//4 103//103
f 103//103 4//4 56//56
f 104//104 80//80 103//103
f 80//80 104//104 81//81
f 6//6 7//7 8//8
f 6//6 15//15 7//7
f 6//6 26//26 15//15
f 6//6 42//42 26//26
f 42//42 6//6 58//58
f 8//8 7//7 16//16
f 8//8 16//16 27//27
f 8//8 27//27 43//43
f 8//8 43//43 67//67
f 8//8 67//67 95//95
f 8//8 95//95 110//110
f 8//8 110//110 125//125
f 8//8 18//18 19//19
f 8//8 32//32 18//18
f 8//8 49//49 32//32
f 8//8 75//75 49//49
f 8//8 97//97 75//75
f 8//8 112//112 97//97
f 8//8 126//126 112//112
f 8//8 125//125 140//140
f 8//8 141//141 126//126
f 8//8 140//140 156//156
f 8//8 157//157 141//141
f 8//8 156//156 171//171
f 8//8 172//172 157//157
f 8//8 171//171 185//185
f 8//8 186//186 172//172
f 8//8 185//185 197//197
f 8//8 188//188 186//186
f 8//8 197//197 207//207
f 8//8 208//208 188//188
f 8//8 207//207 216//216
f 8//8 216//216 208//208
f 186//186 188//188 209//209
f 209//209 188//188 217//217
f 217//217 188//188 221//221
f 188//188 219//219 221//221
f 188//188 212//212 219//219
f 188//188 201//201 212//212
f 188//188 174//174 201//201
f 174//174 18//18 160//160
f 188//188 18//18 174//174
f 160//160 18//18 143//143
f 143//143 18//18 128//128
f 128//128 18//18 115//115
f 115//115 18//18 98//98
f 98//98 18//18 76//76
f 76//76 18//18 50//50
f 50//50 18//18 32//32
f 99//99 42//42 18//18
f 99//99 18//18 118//118
f 118//118 18//18 132//132
f 132//132 18//18 147//147
f 147//147 18//18 163//163
f 163//163 18//18 177//177
f 177//177 18//18 190//190
f 190//190 18//18 188//188
f 117//117 42//42 99//99
f 117//117 99//99 131//131
f 131//131 99//99 146//146
f 150//150 99//99 151//151
f 146//146 99//99 162//162
f 167//167 99//99 150//150
f 162//162 99//99 176//176
f 176//176 99//99 167//167
f 130//130 42//42 117//117
f 145//145 42//42 130//130
f 136//136 42//42 145//145
f 122//122 42//42 136//136
f 26//26 42//42 60//60
f 60//60 42//42 92//92
f 92//92 42//42 107//107
f 42//42 122//122 107//107
f 150//150 151//151 125//125
f 125//125 151//151 179//179
f 125//125 179//179 191//191
f 125//125 191//191 203//203
f 125//125 203//203 196//196
f 184//184 125//125 196//196
f 140//140 125//125 155//155
f 155//155 125//125 170//170
f 170//170 125//125 184//184
f 9//9 10//10 11//11
f 10//10 9//9 17//17
f 17//17 9//9 28//28
f 22//22 23//23 24//24
f 23//23 22//22 38//38
f 38//38 22//22 57//57
f 29//29 30//30 31//31
f 48//48 30//30 29//29
f 40//40 39//39 30//30
f 40//40 30//30 48//48
f 39//39 40//40 41//41
f 59//59 41//41 40//40
f 33//33 34//34 35//35
f 34//34 33//33 44//44
f 45//45 46//46 47//47
f 46//46 45//45 71//71
f 51//51 52//52 53//53
f 52//52 51//51 77//77
f 61//61 62//62 63//63
f 61//61 63//63 64//64
f 65//65 62//62 61//61
f 61//61 64//64 78//78
f 78//78 105//105 61//61
f 62//62 65//65 66//66
f 66//66 65//65 93//93
f 66//66 93//93 94//94
f 94//94 93//93 109//109
f 109//109 93//93 124//124
f 124//124 93//93 138//138
f 138//138 93//93 139//139
f 139//139 93//93 154//154
f 68//68 93//93 69//69
f 68//68 111//111 93//93
f 113//113 93//93 111//111
f 127//127 93//93 113//113
f 142//142 93//93 127//127
f 158//158 93//93 142//142
f 159//159 93//93 158//158
f 154//154 93//93 169//169
f 173//173 93//93 159//159
f 169//169 93//93 181//181
f 187//187 93//93 173//173
f 181//181 93//93 193//193
f 200//200 93//93 187//187
f 193//193 93//93 204//204
f 204//204 93//93 200//200
f 154//154 169//169 182//182
f 154//154 182//182 194//194
f 154//154 194//194 205//205
f 154//154 205//205 214//214
f 154//154 214//214 215//215
f 206//206 154//154 215//215
f 195//195 154//154 206//206
f 183//183 154//154 195//195
f 166//166 154//154 183//183
f 166//166 165//165 154//154
f 79//79 165//165 166//166
f 79//79 178//178 165//165
f 79//79 164//164 178//178
f 79//79 149//149 164//164
f 79//79 134//134 149//149
f 79//79 120//120 134//134
f 79//79 101//101 120//120
f 79//79 78//78 101//101
f 101//101 78//78 119//119
f 119//119 78//78 133//133
f 133//133 78//78 148//148
f 148//148 78//78 153//153
f 153//153 78//78 137//137
f 78//78 123//123 137//137
f 78//78 108//108 123//123
f 78//78 79//79 68//68
f 78//78 64//64 108//108
f 68//68 79//79 102//102
f 68//68 102//102 121//121
f 68//68 121//121 135//135
f 68//68 135//135 152//152
f 68//68 152//152 168//168
f 68//68 168//168 180//180
f 68//68 180//180 192//192
f 68//68 69//69 70//70
f 68//68 114//114 111//111
f 68//68 116//116 114//114
f 68//68 129//129 116//116
f 68//68 144//144 129//129
f 68//68 161//161 144//144
f 68//68 175//175 161//161
f 68//68 189//189 175//175
f 68//68 202//202 189//189
f 68//68 192//192 202//202
f 202//202 192//192 213//213
f 213//213 192//192 220//220
f 220//220 192//192 223//223
f 223//223 192//192 224//224
f 192//192 222//222 224//224
f 192//192 218//218 222//222
f 192//192 210//210 218//218
f 192//192 199//199 210//210
f 211//211 199//199 192//192
f 198//198 187//187 199//199
f 198//198 199//199 211//211
f 200//200 187//187 198//198
f 72//72 73//73 74//74
f 73//73 72//72 96//96
f 82//82 83//83 84//84
f 83//83 82//82 88//88
f 85//85 86//86 87//87
f 86//86 85//85 100//100
f 89//89 90//90 91//91
f 90//90 89//89 106//106
f 225//225 226//226 227//227
f 226//226 225//225 229//229
f 237//237 229//229 225//225
f 228//228 227//227 226//226
f 236//236 228//228 226//226
f 238//238 226//226 229//229
f 248//248 229//229 237//237
f 255//255 238//238 229//229
f 280//280 248//248 237//237
f 320//320 280//280 237//237
f 228//228 320//320 237//237
f 272//272 248//248 280//280
f 248//248 272//272 314//314
f 370//370 272//272 280//280
f 426//426 370//370 280//280
f 272//272 228//228 244//244
f 313//313 228//228 272//272
f 314//314 272//272 244//244
f 314//314 244//244 255//255
f 238//238 255//255 244//244
f 244//244 228//228 236//236
f 359//359 228//228 313//313
f 417//417 228//228 359//359
f 320//320 228//228 417//417
f 417//417 359//359 426//426
f 370//370 426//426 359//359
f 230//230 231//231 232//232
f 240//240 231//231 230//230
f 242//242 243//243 230//230
f 263//263 240//240 230//230
f 243//243 268//268 230//230
f 302//302 263//263 230//230
f 268//268 308//308 230//230
f 340//340 302//302 230//230
f 308//308 348//348 230//230
f 397//397 340//340 230//230
f 348//348 402//402 230//230
f 444//444 397//397 230//230
f 402//402 446//446 230//230
f 495//495 444//444 230//230
f 446//446 496//496 230//230
f 545//545 495//495 230//230
f 496//496 546//546 230//230
f 591//591 545//545 230//230
f 546//546 592//592 230//230
f 637//637 591//591 230//230
f 592//592 638//638 230//230
f 680//680 637//637 230//230
f 638//638 681//681 230//230
f 721//721 680//680 230//230
f 681//681 687//687 230//230
f 749//749 721//721 230//230
f 687//687 750//750 230//230
f 779//779 749//749 230//230
f 750//750 779//779 230//230
f 751//751 687//687 681//681
f 780//780 687//687 751//751
f 800//800 687//687 780//780
f 800//800 794//794 687//687
f 794//794 760//760 687//687
f 760//760 729//729 687//687
f 729//729 644//644 687//687
f 599//599 243//243 644//644
f 644//644 243//243 687//687
f 553//553 243//243 599//599
f 502//502 243//243 553//553
f 453//453 243//243 502//502
f 408//408 243//243 453//453
f 352//352 243//243 408//408
f 309//309 243//243 352//352
f 268//268 243//243 309//309
f 243//243 292//292 413//413
f 460//460 243//243 413//413
f 509//509 243//243 460//460
f 563//563 243//243 509//509
f 607//607 243//243 563//563
f 652//652 243//243 607//607
f 694//694 243//243 652//652
f 687//687 243//243 694//694
f 256//256 292//292 232//232
f 322//322 232//232 292//292
f 326//326 292//292 256//256
f 389//389 292//292 326//326
f 433//433 292//292 389//389
f 413//413 292//292 459//459
f 433//433 483//483 292//292
f 459//459 292//292 507//507
f 533//533 292//292 483//483
f 507//507 292//292 559//559
f 559//559 292//292 533//533
f 508//508 413//413 459//459
f 561//561 413//413 508//508
f 605//605 413//413 561//561
f 650//650 413//413 605//605
f 621//621 413//413 650//650
f 576//576 413//413 621//621
f 575//575 413//413 576//576
f 495//495 575//575 576//576
f 659//659 575//575 495//495
f 702//702 659//659 495//495
f 733//733 702//702 495//495
f 713//713 733//733 495//495
f 713//713 495//495 671//671
f 590//590 495//495 545//545
f 630//630 495//495 590//590
f 671//671 495//495 630//630
f 239//239 256//256 232//232
f 231//231 239//239 232//232
f 233//233 234//234 235//235
f 241//241 235//235 234//234
f 264//264 235//235 241//241
f 245//245 246//246 247//247
f 276//276 247//247 246//246
f 249//249 250//250 251//251
f 281//281 251//251 250//250
f 321//321 251//251 281//281
f 252//252 253//253 254//254
f 285//285 254//254 253//253
f 257//257 258//258 259//259
f 296//296 259//259 258//258
f 260//260 261//261 262//262
f 298//298 262//262 261//261
f 265//265 266//266 267//267
f 267//267 266//266 307//307
f 266//266 284//284 283//283
f 307//307 266//266 283//283
f 282//282 283//283 284//284
f 283//283 282//282 323//323
f 269//269 270//270 271//271
f 303//303 271//271 270//270
f 273//273 274//274 275//275
f 315//315 275//275 274//274
f 277//277 278//278 279//279
f 319//319 279//279 278//278
f 286//286 287//287 288//288
f 324//324 288//288 287//287
f 289//289 290//290 291//291
f 325//325 291//291 290//290
f 293//293 294//294 295//295
f 297//297 295//295 294//294
f 299//299 300//300 301//301
f 336//336 301//301 300//300
f 304//304 305//305 306//306
f 344//344 306//306 305//305
f 310//310 311//311 312//312
f 356//356 312//312 311//311
f 316//316 317//317 318//318
f 363//363 318//318 317//317
f 327//327 328//328 329//329
f 390//390 329//329 328//328
f 330//330 331//331 332//332
f 333//333 330//330 332//332
f 334//334 335//335 331//331
f 332//332 331//331 335//335
f 358//358 333//333 332//332
f 332//332 431//431 358//358
f 437//437 333//333 358//358
f 488//488 437//437 358//358
f 538//538 488//488 358//358
f 538//538 358//358 585//585
f 585//585 358//358 565//565
f 565//565 358//358 511//511
f 511//511 358//358 461//461
f 461//461 358//358 415//415
f 415//415 358//358 357//357
f 462//462 415//415 357//357
f 518//518 462//462 357//357
f 573//573 518//518 357//357
f 615//615 573//573 357//357
f 657//657 615//615 357//357
f 617//617 657//657 357//357
f 616//616 617//617 357//357
f 586//586 617//617 616//616
f 670//670 586//586 616//616
f 712//712 586//586 670//670
f 741//741 586//586 712//712
f 771//771 586//586 741//741
f 771//771 770//770 586//586
f 770//770 740//740 586//586
f 740//740 711//711 586//586
f 711//711 668//668 586//586
f 668//668 628//628 586//586
f 628//628 391//391 586//586
f 667//667 391//391 628//628
f 709//709 391//391 667//667
f 738//738 391//391 709//709
f 728//728 391//391 738//738
f 686//686 391//391 728//728
f 727//727 686//686 728//728
f 643//643 391//391 686//686
f 726//726 686//686 727//727
f 756//756 726//726 727//727
f 755//755 726//726 708//708
f 708//708 726//726 756//756
f 782//782 755//755 708//708
f 804//804 782//782 708//708
f 815//815 804//804 708//708
f 815//815 708//708 810//810
f 810//810 708//708 797//797
f 797//797 708//708 768//768
f 768//768 708//708 731//731
f 708//708 666//666 343//343
f 731//731 708//708 343//343
f 692//692 731//731 343//343
f 649//649 692//692 343//343
f 604//604 649//649 343//343
f 558//558 604//604 343//343
f 506//506 558//558 343//343
f 458//458 506//506 343//343
f 452//452 458//458 343//343
f 445//445 452//452 343//343
f 391//391 445//445 343//343
f 445//445 391//391 451//451
f 451//451 391//391 501//501
f 501//501 391//391 552//552
f 552//552 391//391 597//597
f 597//597 391//391 598//598
f 598//598 391//391 643//643
f 391//391 335//335 334//334
f 392//392 391//391 334//334
f 342//342 391//391 343//343
f 439//439 391//391 392//392
f 489//489 391//391 439//439
f 539//539 391//391 489//489
f 540//540 391//391 539//539
f 586//586 391//391 540//540
f 341//341 342//342 343//343
f 343//343 357//357 358//358
f 416//416 357//357 343//343
f 466//466 416//416 343//343
f 525//525 466//466 343//343
f 580//580 525//525 343//343
f 625//625 580//580 343//343
f 666//666 625//625 343//343
f 337//337 338//338 339//339
f 393//393 339//339 338//338
f 345//345 346//346 347//347
f 398//398 347//347 346//346
f 349//349 350//350 351//351
f 406//406 351//351 350//350
f 353//353 354//354 355//355
f 407//407 355//355 354//354
f 360//360 361//361 362//362
f 421//421 362//362 361//361
f 364//364 365//365 366//366
f 388//388 366//366 365//365
f 367//367 368//368 369//369
f 422//422 369//369 368//368
f 371//371 372//372 373//373
f 427//427 373//373 372//372
f 374//374 375//375 376//376
f 380//380 376//376 375//375
f 377//377 378//378 379//379
f 414//414 379//379 378//378
f 381//381 382//382 383//383
f 432//432 383//383 382//382
f 384//384 385//385 386//386
f 387//387 386//386 385//385
f 394//394 395//395 396//396
f 440//440 396//396 395//395
f 399//399 400//400 401//401
f 438//438 401//401 400//400
f 403//403 404//404 405//405
f 450//450 405//405 404//404
f 409//409 410//410 411//411
f 412//412 411//411 410//410
f 418//418 419//419 420//420
f 467//467 420//420 419//419
f 423//423 424//424 425//425
f 471//471 425//425 424//424
f 428//428 429//429 430//430
f 481//481 430//430 429//429
f 434//434 435//435 436//436
f 487//487 436//436 435//435
f 441//441 442//442 443//443
f 490//490 443//443 442//442
f 447//447 448//448 449//449
f 500//500 449//449 448//448
f 454//454 455//455 456//456
f 457//457 456//456 455//455
f 463//463 464//464 465//465
f 510//510 465//465 464//464
f 468//468 469//469 470//470
f 530//530 470//470 469//469
f 472//472 473//473 474//474
f 529//529 474//474 473//473
f 475//475 476//476 477//477
f 531//531 477//477 476//476
f 478//478 479//479 480//480
f 482//482 480//480 479//479
f 484//484 485//485 486//486
f 537//537 486//486 485//485
f 491//491 492//492 493//493
f 494//494 493//493 492//492
f 497//497 498//498 499//499
f 550//550 499//499 498//498
f 503//503 504//504 505//505
f 557//557 505//505 504//504
f 512//512 513//513 514//514
f 560//560 514//514 513//513
f 515//515 516//516 517//517
f 562//562 517//517 516//516
f 519//519 520//520 521//521
f 574//574 521//521 520//520
f 522//522 523//523 524//524
f 564//564 524//524 523//523
f 526//526 527//527 528//528
f 532//532 528//528 527//527
f 534//534 535//535 536//536
f 584//584 536//536 535//535
f 541//541 542//542 543//543
f 544//544 543//543 542//542
f 547//547 548//548 549//549
f 551//551 549//549 548//548
f 554//554 555//555 556//556
f 603//603 556//556 555//555
f 566//566 567//567 568//568
f 569//569 568//568 567//567
f 570//570 571//571 572//572
f 606//606 572//572 571//571
f 577//577 578//578 579//579
f 608//608 579//579 578//578
f 581//581 582//582 583//583
f 627//627 583//583 582//582
f 587//587 588//588 589//589
f 629//629 589//589 588//588
f 593//593 594//594 595//595
f 596//596 595//595 594//594
f 600//600 601//601 602//602
f 648//648 602//602 601//601
f 609//609 610//610 611//611
f 626//626 611//611 610//610
f 612//612 613//613 614//614
f 651//651 614//614 613//613
f 618//618 619//619 620//620
f 658//658 620//620 619//619
f 622//622 623//623 624//624
f 653//653 624//624 623//623
f 631//631 632//632 633//633
f 675//675 633//633 632//632
f 634//634 635//635 636//636
f 676//676 636//636 635//635
f 639//639 640//640 641//641
f 642//642 641//641 640//640
f 645//645 646//646 647//647
f 691//691 647//647 646//646
f 654//654 655//655 656//656
f 693//693 656//656 655//655
f 660//660 661//661 662//662
f 669//669 662//662 661//661
f 663//663 664//664 665//665
f 695//695 665//665 664//664
f 672//672 673//673 674//674
f 717//717 674//674 673//673
f 677//677 678//678 679//679
f 710//710 679//679 678//678
f 682//682 683//683 684//684
f 685//685 684//684 683//683
f 688//688 689//689 690//690
f 730//730 690//690 689//689
f 696//696 697//697 698//698
f 703//703 698//698 697//697
f 699//699 700//700 701//701
f 732//732 701//701 700//700
f 704//704 705//705 706//706
f 707//707 706//706 705//705
f 714//714 715//715 716//716
f 745//745 716//716 715//715
f 718//718 719//719 720//720
f 739//739 720//720 719//719
f 722//722 723//723 724//724
f 725//725 724//724 723//723
f 734//734 735//735 736//736
f 737//737 736//736 735//735
f 742//742 743//743 744//744
f 775//775 744//744 743//743
f 746//746 747//747 748//748
f 769//769 748//748 747//747
f 752//752 753//753 754//754
f 781//781 754//754 753//753
f 757//757 758//758 759//759
f 790//790 759//759 758//758
f 761//761 762//762 763//763
f 764//764 763//763 762//762
f 765//765 766//766 767//767
f 796//796 767//767 766//766
f 772//772 773//773 774//774
f 795//795 774//774 773//773
f 776//776 777//777 778//778
f 789//789 778//778 777//777
f 783//783 784//784 785//785
f 798//798 785//785 784//784
f 786//786 787//787 788//788
f 799//799 788//788 787//787
f 791//791 792//792 793//793
f 805//805 793//793 792//792
f 801//801 802//802 803//803
f 814//814 803//803 802//802
f 806//806 807//807 808//808
f 809//809 808//808 807//807
f 811//811 812//812 813//813
f 820//820 813//813 812//812
f 816//816 817//817 818//818
f 819//819 818//818 817//817
f 821//821 822//822 823//823
f 822//822 821//821 824//824
f 825//825 826//826 827//827
f 826//826 825//825 840//840
f 828//828 829//829 830//830
f 829//829 828//828 844//844
f 831//831 832//832 833//833
f 832//832 831//831 854//854
f 834//834 835//835 836//836
f 835//835 834//834 856//856
f 837//837 838//838 839//839
f 838//838 837//837 860//860
f 841//841 842//842 843//843
f 842//842 841//841 864//864
f 845//845 846//846 847//847
f 846//846 845//845 865//865
f 848//848 849//849 850//850
f 849//849 848//848 866//866
f 851//851 852//852 853//853
f 852//852 851//851 855//855
f 857//857 858//858 859//859
f 858//858 857//857 870//870
f 861//861 862//862 863//863
f 862//862 861//861 883//883
f 867//867 868//868 869//869
f 868//868 867//867 898//898
f 871//871 872//872 873//873
f 872//872 871//871 899//899
f 874//874 875//875 876//876
f 875//875 874//874 906//906
f 877//877 878//878 879//879
f 878//878 877//877 907//907
f 880//880 881//881 882//882
f 881//881 880//880 915//915
f 884//884 885//885 886//886
f 885//885 884//884 897//897
f 887//887 888//888 889//889
f 888//888 887//887 916//916
f 890//890 891//891 892//892
f 891//891 890//890 920//920
f 893//893 894//894 895//895
f 894//894 893//893 896//896
f 900//900 901//901 902//902
f 901//901 900//900 927//927
f 903//903 904//904 905//905
f 904//904 903//903 934//934
f 908//908 909//909 910//910
f 909//909 908//908 911//911
f 912//912 913//913 914//914
f 913//913 912//912 942//942
f 917//917 918//918 919//919
f 918//918 917//917 946//946
f 921//921 922//922 923//923
f 922//922 921//921 956//956
f 924//924 925//925 926//926
f 925//925 924//924 961//961
f 928//928 929//929 930//930
f 929//929 928//928 962//962
f 931//931 932//932 933//933
f 932//932 931//931 970//970
f 935//935 936//936 937//937
f 936//936 935//935 938//938
f 939//939 940//940 941//941
f 940//940 939//939 974//974
f 943//943 944//944 945//945
f 944//944 943//943 991//991
f 947//947 948//948 949//949
f 948//948 947//947 990//990
f 950//950 951//951 952//952
f 951//951 950//950 992//992
f 953//953 954//954 955//955
f 954//954 953//953 957//957
f 958//958 959//959 960//960
f 959//959 958//958 997//997
f 963//963 964//964 965//965
f 964//964 963//963 966//966
f 967//967 968//968 969//969
f 968//968 967//967 1005//1005
f 971//971 972//972 973//973
f 972//972 971//971 1010//1010
f 975//975 976//976 977//977
f 976//976 975//975 1011//1011
f 978//978 979//979 980//980
f 979//979 978//978 1012//1012
f 981//981 982//982 983//983
f 982//982 981//981 1021//1021
f 984//984 985//985 986//986
f 985//985 984//984 1013//1013
f 987//987 988//988 989//989
f 988//988 987//987 993//993
f 994//994 995//995 996//996
f 995//995 994//994 1028//1028
f 998//998 999//999 1000//1000
f 999//999 998//998 1001//1001
f 1002//1002 1003//1003 1004//1004
f 1003//1003 1002//1002 1006//1006
f 1007//1007 1008//1008 1009//1009
f 1008//1008 1007//1007 1039//1039
f 1014//1014 1015//1015 1016//1016
f 1015//1015 1014//1014 1017//1017
f 1018//1018 1019//1019 1020//1020
f 1019//1019 1018//1018 1040//1040
f 1022//1022 1023//1023 1024//1024
f 1023//1023 1022//1022 1041//1041
f 1025//1025 1026//1026 1027//1027
f 1026//1026 1025//1025 1055//1055
f 1029//1029 1030//1030 1031//1031
f 1030//1030 1029//1029 1056//1056
f 1032//1032 1033//1033 1034//1034
f 1033//1033 1032//1032 1035//1035
f 1036//1036 1037//1037 1038//1038
f 1037//1037 1036//1036 1070//1070
f 1042//1042 1043//1043 1044//1044
f 1043//1043 1042//1042 1054//1054
f 1045//1045 1046//1046 1047//1047
f 1046//1046 1045//1045 1071//1071
f 1048//1048 1049//1049 1050//1050
f 1049//1049 1048//1048 1076//1076
f 1051//1051 1052//1052 1053//1053
f 1052//1052 1051//1051 1072//1072
f 1057//1057 1058//1058 1059//1059
f 1058//1058 1057//1057 1087//1087
f 1060//1060 1061//1061 1062//1062
f 1061//1061 1060//1060 1088//1088
f 1063//1063 1064//1064 1065//1065
f 1064//1064 1063//1063 1066//1066
f 1067//1067 1068//1068 1069//1069
f 1068//1068 1067//1067 1099//1099
f 1073//1073 1074//1074 1075//1075
f 1074//1074 1073//1073 1100//1100
f 1077//1077 1078//1078 1079//1079
f 1078//1078 1077//1077 1083//1083
f 1080//1080 1081//1081 1082//1082
f 1081//1081 1080//1080 1101//1101
f 1084//1084 1085//1085 1086//1086
f 1085//1085 1084//1084 1117//1117
f 1089//1089 1090//1090 1091//1091
f 1090//1090 1089//1089 1113//1113
f 1092//1092 1093//1093 1094//1094
f 1093//1093 1092//1092 1095//1095
f 1096//1096 1097//1097 1098//1098
f 1097//1097 1096//1096 1125//1125
f 1102//1102 1103//1103 1104//1104
f 1103//1103 1102//1102 1108//1108
f 1105//1105 1106//1106 1107//1107
f 1106//1106 1105//1105 1126//1126
f 1109//1109 1110//1110 1111//1111
f 1110//1110 1109//1109 1112//1112
f 1114//1114 1115//1115 1116//1116
f 1115//1115 1114//1114 1135//1135
f 1118//1118 1119//1119 1120//1120
f 1119//1119 1118//1118 1131//1131
f 1121//1121 1122//1122 1123//1123
f 1122//1122 1121//1121 1124//1124
f 1127//1127 1128//1128 1129//1129
f 1128//1128 1127//1127 1130//1130
f 1132//1132 1133//1133 1134//1134
f 1133//1133 1132//1132 1156//1156
f 1136//1136 1137//1137 1138//1138
f 1137//1137 1136//1136 1152//1152
f 1139//1139 1140//1140 1141//1141
f 1140//1140 1139//1139 1160//1160
f 1142//1142 1143//1143 1144//1144
f 1143//1143 1142//1142 1168//1168
f 1145//1145 1146//1146 1147//1147
f 1146//1146 1145//1145 1148//1148
f 1149//1149 1150//1150 1151//1151
f 1150//1150 1149//1149 1173//1173
f 1153//1153 1154//1154 1155//1155
f 1154//1154 1153//1153 1172//1172
f 1157//1157 1158//1158 1159//1159
f 1158//1158 1157//1157 1167//1167
f 1161//1161 1162//1162 1163//1163
f 1162//1162 1161//1161 1174//1174
f 1164//1164 1165//1165 1166//1166
f 1165//1165 1164//1164 1175//1175
f 1169//1169 1170//1170 1171//1171
f 1170//1170 1169//1169 1179//1179
f 1176//1176 1177//1177 1178//1178
f 1177//1177 1176//1176 1187//1187
f 1180//1180 1181//1181 1182//1182
f 1181//1181 1180//1180 1183//1183
f 1184//1184 1185//1185 1186//1186
f 1185//1185 1184//1184 1192//1192
f 1188//1188 1189//1189 1190//1190
f 1189//1189 1188//1188 1191//1191
