# Created by Open3D 
# object name: de6f494dbebd91ede057b217c7790618
# number of vertices: 1004
# number of triangles: 724
v -0.127782 0.00977465 0.185098
vn -1.16691e-16 -0.396058 0.875483
v 0.146976 0.00922226 0.184315
vn -1.22639e-16 -0.436363 0.846477
v 0.146976 0.00977465 0.185098
vn -1.16691e-16 -0.396058 0.875483
v -0.127782 0.00922226 0.184315
vn -1.22639e-16 -0.436363 0.846477
v 0.146976 -0.000918333 0.089588
vn 0.819577 -1.50554e-16 6.12323e-17
v 0.146976 0.00977465 0.185098
vn 0.819577 -1.50554e-16 6.12323e-17
v 0.146976 0.00922226 0.184315
vn 0.819577 -1.50554e-16 6.12323e-17
v 0.146976 0.00977465 0.185098
vn -1.16606e-16 -0.395496 0.875861
v -0.127782 0.0398325 0.217597
vn -1.03761e-16 -0.31226 0.924574
v -0.127782 0.00977465 0.185098
vn -1.16606e-16 -0.395496 0.875861
v -0.127782 0.00977465 0.185098
vn -0.819577 1.50554e-16 -6.12323e-17
v -0.127782 -0.000918333 0.089588
vn -0.819577 1.50554e-16 -6.12323e-17
v -0.127782 0.00922226 0.184315
vn -0.819577 1.50554e-16 -6.12323e-17
v -0.127782 0.00922226 0.184315
vn 3.36792e-17 0.418276 0.859963
v 0.146976 -0.00519487 0.203601
vn 2.34891e-17 0.371399 0.891429
v 0.146976 0.00922226 0.184315
vn 3.36792e-17 0.418276 0.859963
v 0.146976 0.0101762 0.105318
vn 0.819577 -1.50554e-16 6.12323e-17
v 0.146976 -0.00519487 0.203601
vn 0.819577 -1.50554e-16 6.12323e-17
v 0.146976 0.0398325 0.217597
vn -1.03761e-16 -0.31226 0.924574
v -0.127782 0.0398325 0.217597
vn -0.819577 1.50554e-16 -6.12323e-17
v -0.127782 0.0378664 0.140036
vn -0.819577 1.50554e-16 -6.12323e-17
v -0.127782 0.0101762 0.105318
vn -0.819577 1.50554e-16 -6.12323e-17
v -0.127782 -0.00519487 0.203601
vn -0.819577 1.50554e-16 -6.12323e-17
v -0.127782 -0.00519487 0.203601
vn 2.34891e-17 0.371399 0.891429
v 0.146976 0.0315245 0.067426
vn 0.819577 -1.50554e-16 6.12323e-17
v -0.127782 -0.000918333 0.089588
vn 1.22639e-16 0.436363 -0.846477
v 0.146976 0.0101762 0.105318
vn 1.22639e-16 0.436363 -0.846477
v 0.146976 -0.000918333 0.089588
vn 1.22639e-16 0.436363 -0.846477
v 0.146976 -0.0242377 0.047456
vn 0.819577 -1.50554e-16 6.12323e-17
v 0.146976 0.0378664 0.140036
vn 0.819577 -1.50554e-16 6.12323e-17
v 0.146976 0.0398325 0.217597
vn 0.819577 -1.50554e-16 6.12323e-17
v 0.146976 0.0398325 0.217597
vn -1.03576e-16 -0.311096 0.925158
v -0.127782 0.0713378 0.242157
vn -8.93971e-17 -0.22385 0.961977
v -0.127782 0.0398325 0.217597
vn -1.03576e-16 -0.311096 0.925158
v -0.127782 0.0513263 0.154589
vn -0.819577 1.50554e-16 -6.12323e-17
v -0.127782 0.0315245 0.067426
vn -0.819577 1.50554e-16 -6.12323e-17
v -0.127782 0.0101762 0.105318
vn 1.22639e-16 0.436363 -0.846477
v -0.127782 -0.0242377 0.047456
vn -0.819577 1.50554e-16 -6.12323e-17
v -0.127782 -0.00519487 0.203601
vn 2.32765e-17 0.370409 0.892042
v 0.146976 -0.0366608 0.233933
vn 2.78342e-18 0.272769 0.942991
v 0.146976 -0.00519487 0.203601
vn 2.32765e-17 0.370409 0.892042
v -0.127782 0.0101762 0.105318
vn -5.37196e-17 -0.507064 -0.785634
v 0.146976 0.0315245 0.067426
vn -6.33081e-17 -0.547826 -0.743777
v 0.146976 0.0101762 0.105318
vn -5.37196e-17 -0.507064 -0.785634
v 0.146976 -0.000918333 0.089588
vn 1.3332e-16 0.512596 -0.780271
v -0.127782 -0.0242377 0.047456
vn 1.37963e-16 0.547846 -0.743755
v -0.127782 -0.000918333 0.089588
vn 1.3332e-16 0.512596 -0.780271
v 0.146976 -0.0185818 0.144842
vn 0.819577 -1.50554e-16 6.12323e-17
v 0.146976 -0.0242377 0.047456
vn 1.37963e-16 0.547846 -0.743755
v 0.146976 0.0513263 0.154589
vn 0.819577 -1.50554e-16 6.12323e-17
v 0.146976 0.0713378 0.242157
vn -8.93971e-17 -0.22385 0.961977
v -0.127782 0.0713378 0.242157
vn -0.819577 1.50554e-16 -6.12323e-17
v 0.146976 0.0513263 0.154589
vn 1.10358e-16 0.354441 -0.901649
v -0.127782 0.0378664 0.140036
vn 1.10358e-16 0.354441 -0.901649
v -0.127782 0.0513263 0.154589
vn 1.10358e-16 0.354441 -0.901649
v -0.127782 0.0511214 0.116506
vn -0.819577 1.50554e-16 -6.12323e-17
v -0.127782 0.0315245 0.067426
vn -6.33081e-17 -0.547826 -0.743777
v -0.127782 -0.0185818 0.144842
vn -0.819577 1.50554e-16 -6.12323e-17
v -0.127782 -0.0366608 0.233933
vn 2.78342e-18 0.272769 0.942991
v 0.146976 -0.0366608 0.233933
vn 0.819577 -1.50554e-16 6.12323e-17
v 0.146976 0.0511214 0.116506
vn 0.819577 -1.50554e-16 6.12323e-17
v 0.146976 -0.0444558 0.098093
vn 0.819577 -1.50554e-16 6.12323e-17
v 0.146976 -0.0452737 -0.000393999
vn 1.46004e-16 0.613757 -0.662713
v -0.127782 -0.0242377 0.047456
vn 1.38071e-16 0.548686 -0.742832
v 0.146976 -0.0242377 0.047456
vn 1.38071e-16 0.548686 -0.742832
v 0.146976 0.0713378 0.242157
vn 0.819577 -1.50554e-16 6.12323e-17
v 0.146976 0.0378664 0.140036
vn 1.10358e-16 0.354441 -0.901649
v 0.146976 0.0713378 0.242157
vn -8.91957e-17 -0.222639 0.962396
v -0.127782 0.103881 0.258464
vn -7.38684e-17 -0.132524 0.98684
v -0.127782 0.0713378 0.242157
vn -8.91957e-17 -0.222639 0.962396
v -0.127782 0.0795713 0.176608
vn -0.819577 1.50554e-16 -6.12323e-17
v -0.127782 0.0513263 0.154589
vn 9.664e-17 0.267898 -0.945068
v 0.146976 0.0795713 0.176608
vn 9.664e-17 0.267898 -0.945068
v 0.146976 0.0513263 0.154589
vn 9.664e-17 0.267898 -0.945068
v -0.127782 0.0527171 0.018382
vn -0.819577 1.50554e-16 -6.12323e-17
v 0.146976 0.0378664 0.140036
vn 5.37196e-17 0.507064 0.785634
v -0.127782 0.0511214 0.116506
vn 6.33477e-17 0.547992 0.743595
v -0.127782 0.0378664 0.140036
vn 5.37196e-17 0.507064 0.785634
v -0.127782 0.0527171 0.018382
vn -8.18281e-17 -0.622968 -0.649792
v 0.146976 0.0315245 0.067426
vn -6.35305e-17 -0.548758 -0.742754
v -0.127782 0.0315245 0.067426
vn -6.35305e-17 -0.548758 -0.742754
v -0.127782 -0.0444558 0.098093
vn -0.819577 1.50554e-16 -6.12323e-17
v -0.127782 -0.0366608 0.233933
vn -0.819577 1.50554e-16 -6.12323e-17
v -0.127782 -0.0366608 0.233933
vn 2.49561e-18 0.271367 0.943593
v 0.146976 -0.0696192 0.254704
vn -1.80426e-17 0.169095 0.978484
v 0.146976 -0.0366608 0.233933
vn 2.49561e-18 0.271367 0.943593
v 0.146976 -0.0463859 0.171644
vn 0.819577 -1.50554e-16 6.12323e-17
v 0.146976 0.0527171 0.018382
vn 0.819577 -1.50554e-16 6.12323e-17
v 0.146976 0.0511214 0.116506
vn 6.33477e-17 0.547992 0.743595
v -0.127782 -0.0185818 0.144842
vn -1.3332e-16 -0.512596 0.780271
v 0.146976 -0.0444558 0.098093
vn -1.37957e-16 -0.547801 0.743805
v 0.146976 -0.0185818 0.144842
vn -1.3332e-16 -0.512596 0.780271
v 0.146976 -0.0452737 -0.000393999
vn 0.819577 -1.50554e-16 6.12323e-17
v -0.127782 -0.0452737 -0.000393999
vn 1.46004e-16 0.613757 -0.662713
v 0.146976 0.0795713 0.176608
vn 0.819577 -1.50554e-16 6.12323e-17
v 0.146976 0.103881 0.258464
vn -7.38684e-17 -0.132524 0.98684
v -0.127782 0.103881 0.258464
vn -0.819577 1.50554e-16 -6.12323e-17
v -0.127782 0.0795713 0.176608
vn 9.664e-17 0.267898 -0.945068
v -0.127782 0.0708747 -0.036501
vn -0.819577 1.50554e-16 -6.12323e-17
v 0.146976 0.0527171 0.018382
vn -8.18281e-17 -0.622968 -0.649792
v -0.127782 -0.0452737 -0.000393999
vn -0.819577 1.50554e-16 -6.12323e-17
v -0.127782 -0.0444558 0.098093
vn -1.37957e-16 -0.547801 0.743805
v -0.127782 -0.0463859 0.171644
vn -0.819577 1.50554e-16 -6.12323e-17
v -0.127782 -0.0696192 0.254704
vn -1.80426e-17 0.169095 0.978484
v 0.146976 -0.0696192 0.254704
vn 0.819577 -1.50554e-16 6.12323e-17
v -0.127782 -0.0463859 0.171644
vn -2.76686e-18 -0.272689 -0.943026
v 0.146976 -0.0185818 0.144842
vn -1.30574e-17 -0.322266 -0.919448
v 0.146976 -0.0463859 0.171644
vn -2.76686e-18 -0.272689 -0.943026
v 0.146976 0.0708747 -0.036501
vn 0.819577 -1.50554e-16 6.12323e-17
v 0.146976 0.0750005 0.06125
vn 8.18144e-17 0.622914 0.649869
v -0.127782 0.0511214 0.116506
vn 6.35451e-17 0.548818 0.742687
v 0.146976 0.0511214 0.116506
vn 6.35451e-17 0.548818 0.742687
v -0.127782 -0.0185818 0.144842
vn -1.30574e-17 -0.322266 -0.919448
v 0.146976 -0.0679218 0.04472
vn 0.819577 -1.50554e-16 6.12323e-17
v 0.146976 -0.0637535 -0.053336
vn 1.52141e-16 0.671667 -0.573033
v -0.127782 -0.0452737 -0.000393999
vn 1.4609e-16 0.614505 -0.66168
v 0.146976 -0.0452737 -0.000393999
vn 1.4609e-16 0.614505 -0.66168
v 0.146976 0.103881 0.258464
vn 0.819577 -1.50554e-16 6.12323e-17
v 0.146976 0.103881 0.258464
vn -7.36527e-17 -0.131281 0.987087
v -0.127782 0.137036 0.266306
vn -6.56189e-17 -0.0855111 0.994542
v -0.127782 0.103881 0.258464
vn -7.36527e-17 -0.131281 0.987087
v -0.127782 0.108744 0.191228
vn -0.819577 1.50554e-16 -6.12323e-17
v -0.127782 0.0795713 0.176608
vn 8.16617e-17 0.177864 -0.976167
v 0.146976 0.108744 0.191228
vn 8.16617e-17 0.177864 -0.976167
v 0.146976 0.0795713 0.176608
vn 8.16617e-17 0.177864 -0.976167
v -0.127782 0.0750005 0.06125
vn -0.819577 1.50554e-16 -6.12323e-17
v -0.127782 0.0708747 -0.036501
vn -9.89481e-17 -0.687409 -0.544533
v 0.146976 0.0527171 0.018382
vn -8.20473e-17 -0.623826 -0.648565
v -0.127782 0.0527171 0.018382
vn -8.20473e-17 -0.623826 -0.648565
v -0.127782 -0.0679218 0.04472
vn -0.819577 1.50554e-16 -6.12323e-17
v -0.127782 -0.0679218 0.04472
vn -1.45999e-16 -0.613715 0.662772
v 0.146976 -0.0444558 0.098093
vn -1.38077e-16 -0.548734 0.74278
v -0.127782 -0.0444558 0.098093
vn -1.38077e-16 -0.548734 0.74278
v -0.127782 -0.0696192 0.254704
vn -0.819577 1.50554e-16 -6.12323e-17
v -0.127782 -0.0696192 0.254704
vn -1.83285e-17 0.16764 0.978857
v 0.146976 -0.103501 0.265558
vn -3.85569e-17 0.0625025 0.997088
v 0.146976 -0.0696192 0.254704
vn -1.83285e-17 0.16764 0.978857
v 0.146976 -0.0756373 0.19008
vn 0.819577 -1.50554e-16 6.12323e-17
v 0.146976 -0.0463859 0.171644
vn -2.51165e-18 -0.271446 -0.94356
v -0.127782 -0.0756373 0.19008
vn 1.80584e-17 -0.169014 -0.978505
v -0.127782 -0.0463859 0.171644
vn -2.51165e-18 -0.271446 -0.94356
v 0.146976 0.0750005 0.06125
vn 0.819577 -1.50554e-16 6.12323e-17
v 0.146976 0.0708747 -0.036501
vn -9.89481e-17 -0.687409 -0.544533
v -0.127782 0.0750005 0.06125
vn 8.18144e-17 0.622914 0.649869
v 0.146976 -0.0679218 0.04472
vn -1.45999e-16 -0.613715 0.662772
v 0.146976 -0.0637535 -0.053336
vn 0.819577 -1.50554e-16 6.12323e-17
v -0.127782 -0.0637535 -0.053336
vn 1.52141e-16 0.671667 -0.573033
v 0.146976 0.108744 0.191228
vn 0.819577 -1.50554e-16 6.12323e-17
v 0.146976 0.137036 0.266306
vn -6.56189e-17 -0.0855111 0.994542
v -0.127782 0.137036 0.266306
vn -0.819577 1.50554e-16 -6.12323e-17
v -0.127782 0.108744 0.191228
vn 8.16617e-17 0.177864 -0.976167
v -0.127782 0.085684 -0.096276
vn -0.819577 1.50554e-16 -6.12323e-17
v -0.127782 -0.0637535 -0.053336
vn -0.819577 1.50554e-16 -6.12323e-17
v -0.127782 -0.0756373 0.19008
vn -0.819577 1.50554e-16 -6.12323e-17
v -0.127782 -0.103501 0.265558
vn -3.85569e-17 0.0625025 0.997088
v 0.146976 -0.103501 0.265558
vn 0.819577 -1.50554e-16 6.12323e-17
v 0.146976 -0.0756373 0.19008
vn 1.80584e-17 -0.169014 -0.978505
v 0.146976 0.085684 -0.096276
vn 0.819577 -1.50554e-16 6.12323e-17
v -0.127782 0.085684 -0.096276
vn -1.1436e-16 -0.739984 -0.429876
v 0.146976 0.0708747 -0.036501
vn -9.9148e-17 -0.688128 -0.54318
v -0.127782 0.0708747 -0.036501
vn -9.9148e-17 -0.688128 -0.54318
v 0.146976 0.0954591 -0.000588012
vn 9.89356e-17 0.687364 0.544618
v -0.127782 0.0750005 0.06125
vn 8.20609e-17 0.62388 0.648489
v 0.146976 0.0750005 0.06125
vn 8.20609e-17 0.62388 0.648489
v -0.127782 -0.0885345 -0.014336
vn -1.52137e-16 -0.671631 0.573097
v 0.146976 -0.0679218 0.04472
vn -1.46094e-16 -0.614548 0.661621
v -0.127782 -0.0679218 0.04472
vn -1.46094e-16 -0.614548 0.661621
v 0.146976 -0.079436 -0.110681
vn 0.819577 -1.50554e-16 6.12323e-17
v 0.146976 -0.079436 -0.110681
vn 1.56295e-16 0.720823 -0.475883
v -0.127782 -0.0637535 -0.053336
vn 1.52203e-16 0.672314 -0.571903
v 0.146976 -0.0637535 -0.053336
vn 1.52203e-16 0.672314 -0.571903
v 0.146976 0.137036 0.197917
vn 0.819577 -1.50554e-16 6.12323e-17
v 0.146976 0.137036 0.266306
vn 0.819577 -1.50554e-16 6.12323e-17
v 0.146976 0.137036 0.197917
vn 1.50554e-16 0.819574 7.4988e-33
v -0.127782 0.137036 0.266306
vn 1.50554e-16 0.819574 7.4988e-33
v 0.146976 0.137036 0.266306
vn 1.50554e-16 0.819574 7.4988e-33
v -0.127782 0.137036 0.197917
vn -0.819577 1.50554e-16 -6.12323e-17
v -0.127782 0.108744 0.191228
vn 6.56189e-17 0.0855111 -0.994542
v 0.146976 0.137036 0.197917
vn 6.56189e-17 0.0855111 -0.994542
v 0.146976 0.108744 0.191228
vn 6.56189e-17 0.0855111 -0.994542
v -0.127782 0.0954591 -0.000588012
vn -0.819577 1.50554e-16 -6.12323e-17
v -0.127782 -0.079436 -0.110681
vn -0.819577 1.50554e-16 -6.12323e-17
v -0.127782 -0.103501 0.265558
vn -0.819577 1.50554e-16 -6.12323e-17
v -0.127782 -0.103501 0.265558
vn -3.8836e-17 0.0610203 0.997224
v 0.146976 -0.137721 0.266306
vn -4.87234e-17 0.00794178 0.999953
v 0.146976 -0.103501 0.265558
vn -3.8836e-17 0.0610203 0.997224
v 0.146976 -0.10571 0.199713
vn 0.819577 -1.50554e-16 6.12323e-17
v 0.146976 -0.0756373 0.19008
vn 1.83126e-17 -0.167721 -0.978837
v -0.127782 -0.10571 0.199713
vn 3.85724e-17 -0.0624202 -0.997095
v -0.127782 -0.0756373 0.19008
vn 1.83126e-17 -0.167721 -0.978837
v 0.146976 0.0954591 -0.000588012
vn 0.819577 -1.50554e-16 6.12323e-17
v 0.146976 0.085684 -0.096276
vn -1.1436e-16 -0.739984 -0.429876
v -0.127782 0.0954591 -0.000588012
vn 9.89356e-17 0.687364 0.544618
v 0.146976 -0.0885345 -0.014336
vn -1.52137e-16 -0.671631 0.573097
v -0.127782 -0.0885345 -0.014336
vn -0.819577 1.50554e-16 -6.12323e-17
v 0.146976 -0.0885345 -0.014336
vn 0.819577 -1.50554e-16 6.12323e-17
v -0.127782 -0.079436 -0.110681
vn 1.56295e-16 0.720823 -0.475883
v -0.127782 0.137036 0.197917
vn 1.50554e-16 0.819574 7.4988e-33
v -0.127782 0.137036 0.197917
vn 6.56189e-17 0.0855111 -0.994542
v -0.127782 0.0968884 -0.15991
vn -0.819577 1.50554e-16 -6.12323e-17
v -0.127782 -0.10571 0.199713
vn -0.819577 1.50554e-16 -6.12323e-17
v -0.127782 -0.137721 0.266306
vn -4.87234e-17 0.00794178 0.999953
v 0.146976 -0.137721 0.266306
vn 0.819577 -1.50554e-16 6.12323e-17
v 0.146976 -0.10571 0.199713
vn 3.85724e-17 -0.0624202 -0.997095
v 0.146976 0.0968884 -0.15991
vn 0.819577 -1.50554e-16 6.12323e-17
v -0.127782 0.0968884 -0.15991
vn -1.27798e-16 -0.779785 -0.307799
v 0.146976 0.085684 -0.096276
vn -1.14537e-16 -0.740551 -0.42842
v -0.127782 0.085684 -0.096276
vn -1.14537e-16 -0.740551 -0.42842
v 0.146976 0.112144 -0.067939
vn 1.14349e-16 0.739949 0.429967
v -0.127782 0.0954591 -0.000588012
vn 9.91605e-17 0.688173 0.543095
v 0.146976 0.0954591 -0.000588012
vn 9.91605e-17 0.688173 0.543095
v -0.127782 -0.106028 -0.078303
vn -1.56293e-16 -0.720792 0.475952
v 0.146976 -0.0885345 -0.014336
vn -1.52207e-16 -0.672351 0.571838
v -0.127782 -0.0885345 -0.014336
vn -1.52207e-16 -0.672351 0.571838
v -0.127782 -0.0921152 -0.171681
vn -0.819577 1.50554e-16 -6.12323e-17
v 0.146976 -0.0921152 -0.171681
vn 0.819577 -1.50554e-16 6.12323e-17
v 0.146976 -0.0921152 -0.171681
vn 1.58412e-16 0.760581 -0.37253
v -0.127782 -0.079436 -0.110681
vn 1.56333e-16 0.72136 -0.474669
v 0.146976 -0.079436 -0.110681
vn 1.56333e-16 0.72136 -0.474669
v -0.127782 0.104295 -0.226307
vn -0.819577 1.50554e-16 -6.12323e-17
v -0.127782 -0.137721 0.266306
vn -0.819577 1.50554e-16 -6.12323e-17
v -0.127782 -0.137721 0.200413
vn -1.50554e-16 -0.819574 -7.4988e-33
v 0.146976 -0.137721 0.266306
vn -1.50554e-16 -0.819574 -7.4988e-33
v -0.127782 -0.137721 0.266306
vn -1.50554e-16 -0.819574 -7.4988e-33
v 0.146976 -0.137721 0.200413
vn 0.819577 -1.50554e-16 6.12323e-17
v 0.146976 -0.10571 0.199713
vn 3.88271e-17 -0.0610676 -0.99722
v -0.127782 -0.137721 0.200413
vn 4.87234e-17 -0.00794181 -0.999953
v -0.127782 -0.10571 0.199713
vn 3.88271e-17 -0.0610676 -0.99722
v 0.146976 0.104295 -0.226307
vn 0.819577 -1.50554e-16 6.12323e-17
v 0.146976 0.0968884 -0.15991
vn -1.27798e-16 -0.779785 -0.307799
v -0.127782 0.112144 -0.067939
vn 1.14349e-16 0.739949 0.429967
v 0.146976 0.10761 -0.291077
vn 0.819577 -1.50554e-16 6.12323e-17
v 0.146976 0.112144 -0.067939
vn 0.819577 -1.50554e-16 6.12323e-17
v 0.146976 -0.106028 -0.078303
vn -1.56293e-16 -0.720792 0.475952
v -0.127782 -0.106028 -0.078303
vn -0.819577 1.50554e-16 -6.12323e-17
v -0.127782 -0.0921152 -0.171681
vn 1.58412e-16 0.760581 -0.37253
v 0.146976 -0.106028 -0.078303
vn 0.819577 -1.50554e-16 6.12323e-17
v -0.127782 0.10761 -0.291077
vn -0.819577 1.50554e-16 -6.12323e-17
v -0.127782 0.104295 -0.226307
vn -1.39029e-16 -0.806127 -0.180408
v 0.146976 0.0968884 -0.15991
vn -1.27949e-16 -0.780191 -0.306265
v -0.127782 0.0968884 -0.15991
vn -1.27949e-16 -0.780191 -0.306265
v -0.127782 -0.137721 0.200413
vn -0.819577 1.50554e-16 -6.12323e-17
v 0.146976 -0.137721 0.200413
vn -1.50554e-16 -0.819574 -7.4988e-33
v 0.146976 -0.137721 0.200413
vn 4.87234e-17 -0.00794181 -0.999953
v 0.146976 0.104295 -0.226307
vn -1.39029e-16 -0.806127 -0.180408
v 0.146976 0.124769 -0.139637
vn 1.27788e-16 0.779759 0.307895
v -0.127782 0.112144 -0.067939
vn 1.14548e-16 0.740586 0.428329
v 0.146976 0.112144 -0.067939
vn 1.14548e-16 0.740586 0.428329
v -0.127782 0.112144 -0.067939
vn -0.819577 1.50554e-16 -6.12323e-17
v 0.146976 0.124769 -0.139637
vn 0.819577 -1.50554e-16 6.12323e-17
v -0.127782 -0.120172 -0.146346
vn -1.58411e-16 -0.760558 0.372603
v 0.146976 -0.106028 -0.078303
vn -1.56335e-16 -0.721391 0.4746
v -0.127782 -0.106028 -0.078303
vn -1.56335e-16 -0.721391 0.4746
v -0.127782 -0.101629 -0.235542
vn -0.819577 1.50554e-16 -6.12323e-17
v 0.146976 -0.101629 -0.235542
vn 1.58464e-16 0.790426 -0.26432
v -0.127782 -0.0921152 -0.171681
vn 1.58425e-16 0.761002 -0.37125
v 0.146976 -0.0921152 -0.171681
vn 1.58425e-16 0.761002 -0.37125
v 0.146976 -0.101629 -0.235542
vn 0.819577 -1.50554e-16 6.12323e-17
v -0.127782 0.10761 -0.291077
vn -1.4381e-16 -0.814174 -0.114604
v 0.146976 0.104295 -0.226307
vn -1.3915e-16 -0.806359 -0.178859
v -0.127782 0.104295 -0.226307
vn -1.3915e-16 -0.806359 -0.178859
v 0.146976 0.10761 -0.291077
vn -1.4381e-16 -0.814174 -0.114604
v -0.127782 0.124769 -0.139637
vn 1.27788e-16 0.779759 0.307895
v -0.127782 0.124769 -0.139637
vn -0.819577 1.50554e-16 -6.12323e-17
v 0.146976 0.133114 -0.214447
vn 0.819577 -1.50554e-16 6.12323e-17
v 0.146976 -0.120172 -0.146346
vn -1.58411e-16 -0.760558 0.372603
v -0.127782 -0.106871 -0.291077
vn -0.819577 1.50554e-16 -6.12323e-17
v -0.127782 -0.120172 -0.146346
vn -0.819577 1.50554e-16 -6.12323e-17
v -0.127782 -0.101629 -0.235542
vn 1.58464e-16 0.790426 -0.26432
v 0.146976 -0.106871 -0.291077
vn 0.819577 -1.50554e-16 6.12323e-17
v -0.127782 0.10761 -0.291077
vn 5.01846e-17 -3.07292e-33 -1
v 0.146976 0.137036 -0.291077
vn 5.01846e-17 -3.07292e-33 -1
v 0.146976 0.10761 -0.291077
vn 5.01846e-17 -3.07292e-33 -1
v 0.146976 0.133114 -0.214447
vn 1.39022e-16 0.806112 0.180507
v -0.127782 0.124769 -0.139637
vn 1.27959e-16 0.780216 0.306169
v 0.146976 0.124769 -0.139637
vn 1.27959e-16 0.780216 0.306169
v -0.127782 0.133114 -0.214447
vn -0.819577 1.50554e-16 -6.12323e-17
v 0.146976 0.137036 -0.291077
vn 0.819577 -1.50554e-16 6.12323e-17
v -0.127782 -0.130782 -0.21758
vn -1.58464e-16 -0.790409 0.264396
v 0.146976 -0.120172 -0.146346
vn -1.58426e-16 -0.761026 0.371177
v -0.127782 -0.120172 -0.146346
vn -1.58426e-16 -0.761026 0.371177
v 0.146976 -0.120172 -0.146346
vn 0.819577 -1.50554e-16 6.12323e-17
v -0.127782 -0.137721 -0.291077
vn -0.819577 1.50554e-16 -6.12323e-17
v 0.146976 -0.106871 -0.291077
vn 1.57702e-16 0.801622 -0.208159
v -0.127782 -0.101629 -0.235542
vn 1.58453e-16 0.790701 -0.263093
v 0.146976 -0.101629 -0.235542
vn 1.58453e-16 0.790701 -0.263093
v -0.127782 -0.106871 -0.291077
vn 1.57702e-16 0.801622 -0.208159
v -0.127782 0.137036 -0.291077
vn 5.01846e-17 -3.07292e-33 -1
v -0.127782 0.133114 -0.214447
vn 1.39022e-16 0.806112 0.180507
v -0.127782 0.137036 -0.291077
vn -0.819577 1.50554e-16 -6.12323e-17
v 0.146976 0.137036 -0.291077
vn 1.4381e-16 0.814174 0.114604
v -0.127782 0.133114 -0.214447
vn 1.3916e-16 0.806378 0.178723
v 0.146976 0.133114 -0.214447
vn 1.3916e-16 0.806378 0.178723
v 0.146976 -0.130782 -0.21758
vn -1.58464e-16 -0.790409 0.264396
v -0.127782 -0.130782 -0.21758
vn -0.819577 1.50554e-16 -6.12323e-17
v 0.146976 -0.137721 -0.291077
vn 0.819577 -1.50554e-16 6.12323e-17
v 0.146976 -0.106871 -0.291077
vn 5.01846e-17 -3.07292e-33 -1
v -0.127782 -0.137721 -0.291077
vn 5.01846e-17 -3.07292e-33 -1
v -0.127782 -0.106871 -0.291077
vn 5.01846e-17 -3.07292e-33 -1
v -0.127782 0.137036 -0.291077
vn 1.4381e-16 0.814174 0.114604
v -0.127782 -0.137721 -0.291077
vn -1.57702e-16 -0.801622 0.208159
v 0.146976 -0.130782 -0.21758
vn -1.58451e-16 -0.790741 0.262914
v -0.127782 -0.130782 -0.21758
vn -1.58451e-16 -0.790741 0.262914
v 0.146976 -0.130782 -0.21758
vn 0.819577 -1.50554e-16 6.12323e-17
v 0.146976 -0.137721 -0.291077
vn 5.01846e-17 -3.07292e-33 -1
v 0.146976 -0.137721 -0.291077
vn -1.57702e-16 -0.801622 0.208159
v 0.146976 0.00977465 0.185098
vn 1.16691e-16 0.396058 -0.875483
v 0.146976 0.00922226 0.184315
vn 1.22639e-16 0.436363 -0.846477
v -0.127782 0.00977465 0.185098
vn 1.16691e-16 0.396058 -0.875483
v -0.127782 0.00922226 0.184315
vn 1.22639e-16 0.436363 -0.846477
v 0.146976 0.00922226 0.184315
vn -0.819577 1.50554e-16 -6.12323e-17
v 0.146976 0.00977465 0.185098
vn -0.819577 1.50554e-16 -6.12323e-17
v 0.146976 -0.000918333 0.089588
vn -0.819577 1.50554e-16 -6.12323e-17
v -0.127782 0.00977465 0.185098
vn 1.16606e-16 0.395496 -0.875861
v -0.127782 0.0398325 0.217597
vn 1.03761e-16 0.31226 -0.924574
v 0.146976 0.00977465 0.185098
vn 1.16606e-16 0.395496 -0.875861
v -0.127782 0.00922226 0.184315
vn 0.819577 -1.50554e-16 6.12323e-17
v -0.127782 -0.000918333 0.089588
vn 0.819577 -1.50554e-16 6.12323e-17
v -0.127782 0.00977465 0.185098
vn 0.819577 -1.50554e-16 6.12323e-17
v 0.146976 0.00922226 0.184315
vn -3.36792e-17 -0.418276 -0.859963
v 0.146976 -0.00519487 0.203601
vn -2.34891e-17 -0.371399 -0.891429
v -0.127782 0.00922226 0.184315
vn -3.36792e-17 -0.418276 -0.859963
v 0.146976 0.0101762 0.105318
vn -0.819577 1.50554e-16 -6.12323e-17
v 0.146976 -0.00519487 0.203601
vn -0.819577 1.50554e-16 -6.12323e-17
v 0.146976 0.0398325 0.217597
vn 1.03761e-16 0.31226 -0.924574
v -0.127782 0.0378664 0.140036
vn 0.819577 -1.50554e-16 6.12323e-17
v -0.127782 0.0398325 0.217597
vn 0.819577 -1.50554e-16 6.12323e-17
v -0.127782 0.0101762 0.105318
vn 0.819577 -1.50554e-16 6.12323e-17
v -0.127782 -0.00519487 0.203601
vn 0.819577 -1.50554e-16 6.12323e-17
v -0.127782 -0.00519487 0.203601
vn -2.34891e-17 -0.371399 -0.891429
v 0.146976 0.0315245 0.067426
vn -0.819577 1.50554e-16 -6.12323e-17
v 0.146976 -0.000918333 0.089588
vn -1.22639e-16 -0.436363 0.846477
v 0.146976 0.0101762 0.105318
vn -1.22639e-16 -0.436363 0.846477
v -0.127782 -0.000918333 0.089588
vn -1.22639e-16 -0.436363 0.846477
v 0.146976 -0.0242377 0.047456
vn -0.819577 1.50554e-16 -6.12323e-17
v 0.146976 0.0398325 0.217597
vn -0.819577 1.50554e-16 -6.12323e-17
v 0.146976 0.0378664 0.140036
vn -0.819577 1.50554e-16 -6.12323e-17
v -0.127782 0.0398325 0.217597
vn 1.03576e-16 0.311096 -0.925158
v -0.127782 0.0713378 0.242157
vn 8.93971e-17 0.22385 -0.961977
v 0.146976 0.0398325 0.217597
vn 1.03576e-16 0.311096 -0.925158
v -0.127782 0.0513263 0.154589
vn 0.819577 -1.50554e-16 6.12323e-17
v -0.127782 0.0315245 0.067426
vn 0.819577 -1.50554e-16 6.12323e-17
v -0.127782 0.0101762 0.105318
vn -1.22639e-16 -0.436363 0.846477
v -0.127782 -0.0242377 0.047456
vn 0.819577 -1.50554e-16 6.12323e-17
v 0.146976 -0.00519487 0.203601
vn -2.32765e-17 -0.370409 -0.892042
v 0.146976 -0.0366608 0.233933
vn -2.78342e-18 -0.272769 -0.942991
v -0.127782 -0.00519487 0.203601
vn -2.32765e-17 -0.370409 -0.892042
v 0.146976 0.0101762 0.105318
vn 5.37196e-17 0.507064 0.785634
v 0.146976 0.0315245 0.067426
vn 6.33081e-17 0.547826 0.743777
v -0.127782 0.0101762 0.105318
vn 5.37196e-17 0.507064 0.785634
v -0.127782 -0.000918333 0.089588
vn -1.3332e-16 -0.512596 0.780271
v -0.127782 -0.0242377 0.047456
vn -1.37963e-16 -0.547846 0.743755
v 0.146976 -0.000918333 0.089588
vn -1.3332e-16 -0.512596 0.780271
v 0.146976 -0.0185818 0.144842
vn -0.819577 1.50554e-16 -6.12323e-17
v 0.146976 -0.0242377 0.047456
vn -1.37963e-16 -0.547846 0.743755
v 0.146976 0.0513263 0.154589
vn -0.819577 1.50554e-16 -6.12323e-17
v 0.146976 0.0713378 0.242157
vn 8.93971e-17 0.22385 -0.961977
v -0.127782 0.0713378 0.242157
vn 0.819577 -1.50554e-16 6.12323e-17
v -0.127782 0.0513263 0.154589
vn -1.10358e-16 -0.354441 0.901649
v -0.127782 0.0378664 0.140036
vn -1.10358e-16 -0.354441 0.901649
v 0.146976 0.0513263 0.154589
vn -1.10358e-16 -0.354441 0.901649
v -0.127782 0.0511214 0.116506
vn 0.819577 -1.50554e-16 6.12323e-17
v -0.127782 0.0315245 0.067426
vn 6.33081e-17 0.547826 0.743777
v -0.127782 -0.0185818 0.144842
vn 0.819577 -1.50554e-16 6.12323e-17
v -0.127782 -0.0366608 0.233933
vn -2.78342e-18 -0.272769 -0.942991
v 0.146976 -0.0366608 0.233933
vn -0.819577 1.50554e-16 -6.12323e-17
v 0.146976 0.0511214 0.116506
vn -0.819577 1.50554e-16 -6.12323e-17
v 0.146976 -0.0444558 0.098093
vn -0.819577 1.50554e-16 -6.12323e-17
v 0.146976 -0.0242377 0.047456
vn -1.38071e-16 -0.548686 0.742832
v -0.127782 -0.0242377 0.047456
vn -1.38071e-16 -0.548686 0.742832
v 0.146976 -0.0452737 -0.000393999
vn -1.46004e-16 -0.613757 0.662713
v 0.146976 0.0713378 0.242157
vn -0.819577 1.50554e-16 -6.12323e-17
v 0.146976 0.0378664 0.140036
vn -1.10358e-16 -0.354441 0.901649
v -0.127782 0.0713378 0.242157
vn 8.91957e-17 0.222639 -0.962396
v -0.127782 0.103881 0.258464
vn 7.38684e-17 0.132524 -0.98684
v 0.146976 0.0713378 0.242157
vn 8.91957e-17 0.222639 -0.962396
v -0.127782 0.0795713 0.176608
vn 0.819577 -1.50554e-16 6.12323e-17
v 0.146976 0.0513263 0.154589
vn -9.664e-17 -0.267898 0.945068
v 0.146976 0.0795713 0.176608
vn -9.664e-17 -0.267898 0.945068
v -0.127782 0.0513263 0.154589
vn -9.664e-17 -0.267898 0.945068
v -0.127782 0.0527171 0.018382
vn 0.819577 -1.50554e-16 6.12323e-17
v -0.127782 0.0378664 0.140036
vn -5.37196e-17 -0.507064 -0.785634
v -0.127782 0.0511214 0.116506
vn -6.33477e-17 -0.547992 -0.743595
v 0.146976 0.0378664 0.140036
vn -5.37196e-17 -0.507064 -0.785634
v -0.127782 0.0315245 0.067426
vn 6.35305e-17 0.548758 0.742754
v 0.146976 0.0315245 0.067426
vn 6.35305e-17 0.548758 0.742754
v -0.127782 0.0527171 0.018382
vn 8.18281e-17 0.622968 0.649792
v -0.127782 -0.0444558 0.098093
vn 0.819577 -1.50554e-16 6.12323e-17
v -0.127782 -0.0366608 0.233933
vn 0.819577 -1.50554e-16 6.12323e-17
v 0.146976 -0.0366608 0.233933
vn -2.49561e-18 -0.271367 -0.943593
v 0.146976 -0.0696192 0.254704
vn 1.80426e-17 -0.169095 -0.978484
v -0.127782 -0.0366608 0.233933
vn -2.49561e-18 -0.271367 -0.943593
v 0.146976 -0.0463859 0.171644
vn -0.819577 1.50554e-16 -6.12323e-17
v 0.146976 0.0527171 0.018382
vn -0.819577 1.50554e-16 -6.12323e-17
v 0.146976 0.0511214 0.116506
vn -6.33477e-17 -0.547992 -0.743595
v 0.146976 -0.0185818 0.144842
vn 1.3332e-16 0.512596 -0.780271
v 0.146976 -0.0444558 0.098093
vn 1.37957e-16 0.547801 -0.743805
v -0.127782 -0.0185818 0.144842
vn 1.3332e-16 0.512596 -0.780271
v 0.146976 -0.0452737 -0.000393999
vn -0.819577 1.50554e-16 -6.12323e-17
v -0.127782 -0.0452737 -0.000393999
vn -1.46004e-16 -0.613757 0.662713
v 0.146976 0.0795713 0.176608
vn -0.819577 1.50554e-16 -6.12323e-17
v 0.146976 0.103881 0.258464
vn 7.38684e-17 0.132524 -0.98684
v -0.127782 0.103881 0.258464
vn 0.819577 -1.50554e-16 6.12323e-17
v -0.127782 0.0795713 0.176608
vn -9.664e-17 -0.267898 0.945068
v -0.127782 0.0708747 -0.036501
vn 0.819577 -1.50554e-16 6.12323e-17
v 0.146976 0.0527171 0.018382
vn 8.18281e-17 0.622968 0.649792
v -0.127782 -0.0452737 -0.000393999
vn 0.819577 -1.50554e-16 6.12323e-17
v -0.127782 -0.0444558 0.098093
vn 1.37957e-16 0.547801 -0.743805
v -0.127782 -0.0463859 0.171644
vn 0.819577 -1.50554e-16 6.12323e-17
v -0.127782 -0.0696192 0.254704
vn 1.80426e-17 -0.169095 -0.978484
v 0.146976 -0.0696192 0.254704
vn -0.819577 1.50554e-16 -6.12323e-17
v 0.146976 -0.0463859 0.171644
vn 2.76686e-18 0.272689 0.943026
v 0.146976 -0.0185818 0.144842
vn 1.30574e-17 0.322266 0.919448
v -0.127782 -0.0463859 0.171644
vn 2.76686e-18 0.272689 0.943026
v 0.146976 0.0708747 -0.036501
vn -0.819577 1.50554e-16 -6.12323e-17
v 0.146976 0.0511214 0.116506
vn -6.35451e-17 -0.548818 -0.742687
v -0.127782 0.0511214 0.116506
vn -6.35451e-17 -0.548818 -0.742687
v 0.146976 0.0750005 0.06125
vn -8.18144e-17 -0.622914 -0.649869
v -0.127782 -0.0185818 0.144842
vn 1.30574e-17 0.322266 0.919448
v 0.146976 -0.0679218 0.04472
vn -0.819577 1.50554e-16 -6.12323e-17
v 0.146976 -0.0452737 -0.000393999
vn -1.4609e-16 -0.614505 0.66168
v -0.127782 -0.0452737 -0.000393999
vn -1.4609e-16 -0.614505 0.66168
v 0.146976 -0.0637535 -0.053336
vn -1.52141e-16 -0.671667 0.573033
v 0.146976 0.103881 0.258464
vn -0.819577 1.50554e-16 -6.12323e-17
v -0.127782 0.103881 0.258464
vn 7.36527e-17 0.131281 -0.987087
v -0.127782 0.137036 0.266306
vn 6.56189e-17 0.0855111 -0.994542
v 0.146976 0.103881 0.258464
vn 7.36527e-17 0.131281 -0.987087
v -0.127782 0.108744 0.191228
vn 0.819577 -1.50554e-16 6.12323e-17
v 0.146976 0.0795713 0.176608
vn -8.16617e-17 -0.177864 0.976167
v 0.146976 0.108744 0.191228
vn -8.16617e-17 -0.177864 0.976167
v -0.127782 0.0795713 0.176608
vn -8.16617e-17 -0.177864 0.976167
v -0.127782 0.0750005 0.06125
vn 0.819577 -1.50554e-16 6.12323e-17
v -0.127782 0.0527171 0.018382
vn 8.20473e-17 0.623826 0.648565
v 0.146976 0.0527171 0.018382
vn 8.20473e-17 0.623826 0.648565
v -0.127782 0.0708747 -0.036501
vn 9.89481e-17 0.687409 0.544533
v -0.127782 -0.0679218 0.04472
vn 0.819577 -1.50554e-16 6.12323e-17
v -0.127782 -0.0444558 0.098093
vn 1.38077e-16 0.548734 -0.74278
v 0.146976 -0.0444558 0.098093
vn 1.38077e-16 0.548734 -0.74278
v -0.127782 -0.0679218 0.04472
vn 1.45999e-16 0.613715 -0.662772
v -0.127782 -0.0696192 0.254704
vn 0.819577 -1.50554e-16 6.12323e-17
v 0.146976 -0.0696192 0.254704
vn 1.83285e-17 -0.16764 -0.978857
v 0.146976 -0.103501 0.265558
vn 3.85569e-17 -0.0625025 -0.997088
v -0.127782 -0.0696192 0.254704
vn 1.83285e-17 -0.16764 -0.978857
v 0.146976 -0.0756373 0.19008
vn -0.819577 1.50554e-16 -6.12323e-17
v -0.127782 -0.0463859 0.171644
vn 2.51165e-18 0.271446 0.94356
v -0.127782 -0.0756373 0.19008
vn -1.80584e-17 0.169014 0.978505
v 0.146976 -0.0463859 0.171644
vn 2.51165e-18 0.271446 0.94356
v 0.146976 0.0750005 0.06125
vn -0.819577 1.50554e-16 -6.12323e-17
v 0.146976 0.0708747 -0.036501
vn 9.89481e-17 0.687409 0.544533
v -0.127782 0.0750005 0.06125
vn -8.18144e-17 -0.622914 -0.649869
v 0.146976 -0.0679218 0.04472
vn 1.45999e-16 0.613715 -0.662772
v 0.146976 -0.0637535 -0.053336
vn -0.819577 1.50554e-16 -6.12323e-17
v -0.127782 -0.0637535 -0.053336
vn -1.52141e-16 -0.671667 0.573033
v 0.146976 0.108744 0.191228
vn -0.819577 1.50554e-16 -6.12323e-17
v 0.146976 0.137036 0.266306
vn 6.56189e-17 0.0855111 -0.994542
v -0.127782 0.137036 0.266306
vn 0.819577 -1.50554e-16 6.12323e-17
v -0.127782 0.108744 0.191228
vn -8.16617e-17 -0.177864 0.976167
v -0.127782 0.085684 -0.096276
vn 0.819577 -1.50554e-16 6.12323e-17
v -0.127782 -0.0637535 -0.053336
vn 0.819577 -1.50554e-16 6.12323e-17
v -0.127782 -0.0756373 0.19008
vn 0.819577 -1.50554e-16 6.12323e-17
v -0.127782 -0.103501 0.265558
vn 3.85569e-17 -0.0625025 -0.997088
v 0.146976 -0.103501 0.265558
vn -0.819577 1.50554e-16 -6.12323e-17
v 0.146976 -0.0756373 0.19008
vn -1.80584e-17 0.169014 0.978505
v 0.146976 0.085684 -0.096276
vn -0.819577 1.50554e-16 -6.12323e-17
v -0.127782 0.0708747 -0.036501
vn 9.9148e-17 0.688128 0.54318
v 0.146976 0.0708747 -0.036501
vn 9.9148e-17 0.688128 0.54318
v -0.127782 0.085684 -0.096276
vn 1.1436e-16 0.739984 0.429876
v 0.146976 0.0750005 0.06125
vn -8.20609e-17 -0.62388 -0.648489
v -0.127782 0.0750005 0.06125
vn -8.20609e-17 -0.62388 -0.648489
v 0.146976 0.0954591 -0.000588012
vn -9.89356e-17 -0.687364 -0.544618
v -0.127782 -0.0679218 0.04472
vn 1.46094e-16 0.614548 -0.661621
v 0.146976 -0.0679218 0.04472
vn 1.46094e-16 0.614548 -0.661621
v -0.127782 -0.0885345 -0.014336
vn 1.52137e-16 0.671631 -0.573097
v 0.146976 -0.079436 -0.110681
vn -0.819577 1.50554e-16 -6.12323e-17
v 0.146976 -0.0637535 -0.053336
vn -1.52203e-16 -0.672314 0.571903
v -0.127782 -0.0637535 -0.053336
vn -1.52203e-16 -0.672314 0.571903
v 0.146976 -0.079436 -0.110681
vn -1.56295e-16 -0.720823 0.475883
v 0.146976 0.137036 0.197917
vn -0.819577 1.50554e-16 -6.12323e-17
v 0.146976 0.137036 0.266306
vn -0.819577 1.50554e-16 -6.12323e-17
v 0.146976 0.137036 0.266306
vn -1.50554e-16 -0.819574 -7.4988e-33
v -0.127782 0.137036 0.266306
vn -1.50554e-16 -0.819574 -7.4988e-33
v 0.146976 0.137036 0.197917
vn -1.50554e-16 -0.819574 -7.4988e-33
v -0.127782 0.137036 0.197917
vn 0.819577 -1.50554e-16 6.12323e-17
v 0.146976 0.108744 0.191228
vn -6.56189e-17 -0.0855111 0.994542
v 0.146976 0.137036 0.197917
vn -6.56189e-17 -0.0855111 0.994542
v -0.127782 0.108744 0.191228
vn -6.56189e-17 -0.0855111 0.994542
v -0.127782 0.0954591 -0.000588012
vn 0.819577 -1.50554e-16 6.12323e-17
v -0.127782 -0.079436 -0.110681
vn 0.819577 -1.50554e-16 6.12323e-17
v -0.127782 -0.103501 0.265558
vn 0.819577 -1.50554e-16 6.12323e-17
v 0.146976 -0.103501 0.265558
vn 3.8836e-17 -0.0610203 -0.997224
v 0.146976 -0.137721 0.266306
vn 4.87234e-17 -0.00794178 -0.999953
v -0.127782 -0.103501 0.265558
vn 3.8836e-17 -0.0610203 -0.997224
v 0.146976 -0.10571 0.199713
vn -0.819577 1.50554e-16 -6.12323e-17
v -0.127782 -0.0756373 0.19008
vn -1.83126e-17 0.167721 0.978837
v -0.127782 -0.10571 0.199713
vn -3.85724e-17 0.0624202 0.997095
v 0.146976 -0.0756373 0.19008
vn -1.83126e-17 0.167721 0.978837
v 0.146976 0.0954591 -0.000588012
vn -0.819577 1.50554e-16 -6.12323e-17
v 0.146976 0.085684 -0.096276
vn 1.1436e-16 0.739984 0.429876
v -0.127782 0.0954591 -0.000588012
vn -9.89356e-17 -0.687364 -0.544618
v 0.146976 -0.0885345 -0.014336
vn 1.52137e-16 0.671631 -0.573097
v -0.127782 -0.0885345 -0.014336
vn 0.819577 -1.50554e-16 6.12323e-17
v 0.146976 -0.0885345 -0.014336
vn -0.819577 1.50554e-16 -6.12323e-17
v -0.127782 -0.079436 -0.110681
vn -1.56295e-16 -0.720823 0.475883
v -0.127782 0.137036 0.197917
vn -1.50554e-16 -0.819574 -7.4988e-33
v -0.127782 0.137036 0.197917
vn -6.56189e-17 -0.0855111 0.994542
v -0.127782 0.0968884 -0.15991
vn 0.819577 -1.50554e-16 6.12323e-17
v -0.127782 -0.10571 0.199713
vn 0.819577 -1.50554e-16 6.12323e-17
v -0.127782 -0.137721 0.266306
vn 4.87234e-17 -0.00794178 -0.999953
v 0.146976 -0.137721 0.266306
vn -0.819577 1.50554e-16 -6.12323e-17
v 0.146976 -0.10571 0.199713
vn -3.85724e-17 0.0624202 0.997095
v 0.146976 0.0968884 -0.15991
vn -0.819577 1.50554e-16 -6.12323e-17
v -0.127782 0.085684 -0.096276
vn 1.14537e-16 0.740551 0.42842
v 0.146976 0.085684 -0.096276
vn 1.14537e-16 0.740551 0.42842
v -0.127782 0.0968884 -0.15991
vn 1.27798e-16 0.779785 0.307799
v 0.146976 0.0954591 -0.000588012
vn -9.91605e-17 -0.688173 -0.543095
v -0.127782 0.0954591 -0.000588012
vn -9.91605e-17 -0.688173 -0.543095
v 0.146976 0.112144 -0.067939
vn -1.14349e-16 -0.739949 -0.429967
v -0.127782 -0.0885345 -0.014336
vn 1.52207e-16 0.672351 -0.571838
v 0.146976 -0.0885345 -0.014336
vn 1.52207e-16 0.672351 -0.571838
v -0.127782 -0.106028 -0.078303
vn 1.56293e-16 0.720792 -0.475952
v -0.127782 -0.0921152 -0.171681
vn 0.819577 -1.50554e-16 6.12323e-17
v 0.146976 -0.0921152 -0.171681
vn -0.819577 1.50554e-16 -6.12323e-17
v 0.146976 -0.079436 -0.110681
vn -1.56333e-16 -0.72136 0.474669
v -0.127782 -0.079436 -0.110681
vn -1.56333e-16 -0.72136 0.474669
v 0.146976 -0.0921152 -0.171681
vn -1.58412e-16 -0.760581 0.37253
v -0.127782 0.104295 -0.226307
vn 0.819577 -1.50554e-16 6.12323e-17
v -0.127782 -0.137721 0.266306
vn 0.819577 -1.50554e-16 6.12323e-17
v -0.127782 -0.137721 0.266306
vn 1.50554e-16 0.819574 7.4988e-33
v 0.146976 -0.137721 0.266306
vn 1.50554e-16 0.819574 7.4988e-33
v -0.127782 -0.137721 0.200413
vn 1.50554e-16 0.819574 7.4988e-33
v 0.146976 -0.137721 0.200413
vn -0.819577 1.50554e-16 -6.12323e-17
v -0.127782 -0.10571 0.199713
vn -3.88271e-17 0.0610676 0.99722
v -0.127782 -0.137721 0.200413
vn -4.87234e-17 0.00794181 0.999953
v 0.146976 -0.10571 0.199713
vn -3.88271e-17 0.0610676 0.99722
v 0.146976 0.104295 -0.226307
vn -0.819577 1.50554e-16 -6.12323e-17
v 0.146976 0.0968884 -0.15991
vn 1.27798e-16 0.779785 0.307799
v -0.127782 0.112144 -0.067939
vn -1.14349e-16 -0.739949 -0.429967
v 0.146976 0.112144 -0.067939
vn -0.819577 1.50554e-16 -6.12323e-17
v 0.146976 0.10761 -0.291077
vn -0.819577 1.50554e-16 -6.12323e-17
v 0.146976 -0.106028 -0.078303
vn 1.56293e-16 0.720792 -0.475952
v -0.127782 -0.106028 -0.078303
vn 0.819577 -1.50554e-16 6.12323e-17
v -0.127782 -0.0921152 -0.171681
vn -1.58412e-16 -0.760581 0.37253
v 0.146976 -0.106028 -0.078303
vn -0.819577 1.50554e-16 -6.12323e-17
v -0.127782 0.10761 -0.291077
vn 0.819577 -1.50554e-16 6.12323e-17
v -0.127782 0.0968884 -0.15991
vn 1.27949e-16 0.780191 0.306265
v 0.146976 0.0968884 -0.15991
vn 1.27949e-16 0.780191 0.306265
v -0.127782 0.104295 -0.226307
vn 1.39029e-16 0.806127 0.180408
v -0.127782 -0.137721 0.200413
vn 0.819577 -1.50554e-16 6.12323e-17
v 0.146976 -0.137721 0.200413
vn 1.50554e-16 0.819574 7.4988e-33
v 0.146976 -0.137721 0.200413
vn -4.87234e-17 0.00794181 0.999953
v 0.146976 0.104295 -0.226307
vn 1.39029e-16 0.806127 0.180408
v 0.146976 0.112144 -0.067939
vn -1.14548e-16 -0.740586 -0.428329
v -0.127782 0.112144 -0.067939
vn -1.14548e-16 -0.740586 -0.428329
v 0.146976 0.124769 -0.139637
vn -1.27788e-16 -0.779759 -0.307895
v -0.127782 0.112144 -0.067939
vn 0.819577 -1.50554e-16 6.12323e-17
v 0.146976 0.124769 -0.139637
vn -0.819577 1.50554e-16 -6.12323e-17
v -0.127782 -0.106028 -0.078303
vn 1.56335e-16 0.721391 -0.4746
v 0.146976 -0.106028 -0.078303
vn 1.56335e-16 0.721391 -0.4746
v -0.127782 -0.120172 -0.146346
vn 1.58411e-16 0.760558 -0.372603
v -0.127782 -0.101629 -0.235542
vn 0.819577 -1.50554e-16 6.12323e-17
v 0.146976 -0.0921152 -0.171681
vn -1.58425e-16 -0.761002 0.37125
v -0.127782 -0.0921152 -0.171681
vn -1.58425e-16 -0.761002 0.37125
v 0.146976 -0.101629 -0.235542
vn -1.58464e-16 -0.790426 0.26432
v 0.146976 -0.101629 -0.235542
vn -0.819577 1.50554e-16 -6.12323e-17
v -0.127782 0.104295 -0.226307
vn 1.3915e-16 0.806359 0.178859
v 0.146976 0.104295 -0.226307
vn 1.3915e-16 0.806359 0.178859
v -0.127782 0.10761 -0.291077
vn 1.4381e-16 0.814174 0.114604
v 0.146976 0.10761 -0.291077
vn 1.4381e-16 0.814174 0.114604
v -0.127782 0.124769 -0.139637
vn -1.27788e-16 -0.779759 -0.307895
v -0.127782 0.124769 -0.139637
vn 0.819577 -1.50554e-16 6.12323e-17
v 0.146976 0.133114 -0.214447
vn -0.819577 1.50554e-16 -6.12323e-17
v 0.146976 -0.120172 -0.146346
vn 1.58411e-16 0.760558 -0.372603
v -0.127782 -0.120172 -0.146346
vn 0.819577 -1.50554e-16 6.12323e-17
v -0.127782 -0.106871 -0.291077
vn 0.819577 -1.50554e-16 6.12323e-17
v -0.127782 -0.101629 -0.235542
vn -1.58464e-16 -0.790426 0.26432
v 0.146976 -0.106871 -0.291077
vn -0.819577 1.50554e-16 -6.12323e-17
v 0.146976 0.10761 -0.291077
vn -5.01846e-17 3.07292e-33 1
v 0.146976 0.137036 -0.291077
vn -5.01846e-17 3.07292e-33 1
v -0.127782 0.10761 -0.291077
vn -5.01846e-17 3.07292e-33 1
v 0.146976 0.124769 -0.139637
vn -1.27959e-16 -0.780216 -0.306169
v -0.127782 0.124769 -0.139637
vn -1.27959e-16 -0.780216 -0.306169
v 0.146976 0.133114 -0.214447
vn -1.39022e-16 -0.806112 -0.180507
v -0.127782 0.133114 -0.214447
vn 0.819577 -1.50554e-16 6.12323e-17
v 0.146976 0.137036 -0.291077
vn -0.819577 1.50554e-16 -6.12323e-17
v -0.127782 -0.120172 -0.146346
vn 1.58426e-16 0.761026 -0.371177
v 0.146976 -0.120172 -0.146346
vn 1.58426e-16 0.761026 -0.371177
v -0.127782 -0.130782 -0.21758
vn 1.58464e-16 0.790409 -0.264396
v 0.146976 -0.120172 -0.146346
vn -0.819577 1.50554e-16 -6.12323e-17
v -0.127782 -0.137721 -0.291077
vn 0.819577 -1.50554e-16 6.12323e-17
v 0.146976 -0.101629 -0.235542
vn -1.58453e-16 -0.790701 0.263093
v -0.127782 -0.101629 -0.235542
vn -1.58453e-16 -0.790701 0.263093
v 0.146976 -0.106871 -0.291077
vn -1.57702e-16 -0.801622 0.208159
v -0.127782 -0.106871 -0.291077
vn -1.57702e-16 -0.801622 0.208159
v -0.127782 0.137036 -0.291077
vn -5.01846e-17 3.07292e-33 1
v -0.127782 0.133114 -0.214447
vn -1.39022e-16 -0.806112 -0.180507
v -0.127782 0.137036 -0.291077
vn 0.819577 -1.50554e-16 6.12323e-17
v 0.146976 0.133114 -0.214447
vn -1.3916e-16 -0.806378 -0.178723
v -0.127782 0.133114 -0.214447
vn -1.3916e-16 -0.806378 -0.178723
v 0.146976 0.137036 -0.291077
vn -1.4381e-16 -0.814174 -0.114604
v 0.146976 -0.130782 -0.21758
vn 1.58464e-16 0.790409 -0.264396
v -0.127782 -0.130782 -0.21758
vn 0.819577 -1.50554e-16 6.12323e-17
v 0.146976 -0.137721 -0.291077
vn -0.819577 1.50554e-16 -6.12323e-17
v -0.127782 -0.106871 -0.291077
vn -5.01846e-17 3.07292e-33 1
v -0.127782 -0.137721 -0.291077
vn -5.01846e-17 3.07292e-33 1
v 0.146976 -0.106871 -0.291077
vn -5.01846e-17 3.07292e-33 1
v -0.127782 0.137036 -0.291077
vn -1.4381e-16 -0.814174 -0.114604
v -0.127782 -0.130782 -0.21758
vn 1.58451e-16 0.790741 -0.262914
v 0.146976 -0.130782 -0.21758
vn 1.58451e-16 0.790741 -0.262914
v -0.127782 -0.137721 -0.291077
vn 1.57702e-16 0.801622 -0.208159
v 0.146976 -0.130782 -0.21758
vn -0.819577 1.50554e-16 -6.12323e-17
v 0.146976 -0.137721 -0.291077
vn -5.01846e-17 3.07292e-33 1
v 0.146976 -0.137721 -0.291077
vn 1.57702e-16 0.801622 -0.208159
v -0.253709 -0.274757 0.266306
vn 5.01846e-17 -3.07292e-33 -1
v -0.247283 -0.274757 0.266306
vn 5.01846e-17 -3.07292e-33 -1
v -0.251025 -0.275 0.266306
vn 5.01846e-17 -3.07292e-33 -1
v -0.251025 -0.275 0.266306
vn -5.01846e-17 3.07292e-33 1
v -0.247283 -0.274757 0.266306
vn -5.01846e-17 3.07292e-33 1
v -0.253709 -0.274757 0.266306
vn -5.01846e-17 3.07292e-33 1
v 0.247282 -0.274757 0.266306
vn 5.01846e-17 -3.07292e-33 -1
v 0.253709 -0.274757 0.266306
vn 5.01846e-17 -3.07292e-33 -1
v 0.251025 -0.275 0.266306
vn 5.01846e-17 -3.07292e-33 -1
v 0.251025 -0.275 0.266306
vn -5.01846e-17 3.07292e-33 1
v 0.253709 -0.274757 0.266306
vn -5.01846e-17 3.07292e-33 1
v 0.247282 -0.274757 0.266306
vn -5.01846e-17 3.07292e-33 1
v -0.253709 0.274757 0.266306
vn 5.01846e-17 -3.07292e-33 -1
v -0.251025 0.275 0.266306
vn 5.01846e-17 -3.07292e-33 -1
v -0.247283 0.274757 0.266306
vn 5.01846e-17 -3.07292e-33 -1
v -0.247283 0.274757 0.266306
vn -5.01846e-17 3.07292e-33 1
v -0.251025 0.275 0.266306
vn -5.01846e-17 3.07292e-33 1
v -0.253709 0.274757 0.266306
vn -5.01846e-17 3.07292e-33 1
v 0.247282 0.274757 0.266306
vn 5.01846e-17 -3.07292e-33 -1
v 0.251025 0.275 0.266306
vn 5.01846e-17 -3.07292e-33 -1
v 0.253709 0.274757 0.266306
vn 5.01846e-17 -3.07292e-33 -1
v 0.253709 0.274757 0.266306
vn -5.01846e-17 3.07292e-33 1
v 0.251025 0.275 0.266306
vn -5.01846e-17 3.07292e-33 1
v 0.247282 0.274757 0.266306
vn -5.01846e-17 3.07292e-33 1
v -0.275 -0.251023 0.266306
vn 5.01846e-17 -3.07292e-33 -1
v -0.274759 -0.247282 0.266306
vn 5.01846e-17 -3.07292e-33 -1
v -0.274759 -0.253709 0.266306
vn 5.01846e-17 -3.07292e-33 -1
v -0.274759 -0.253709 0.266306
vn -5.01846e-17 3.07292e-33 1
v -0.274759 -0.247282 0.266306
vn -5.01846e-17 3.07292e-33 1
v -0.275 -0.251023 0.266306
vn -5.01846e-17 3.07292e-33 1
v -0.275 0.251024 0.266306
vn 5.01846e-17 -3.07292e-33 -1
v -0.274759 0.253709 0.266306
vn 5.01846e-17 -3.07292e-33 -1
v -0.274759 0.247282 0.266306
vn 5.01846e-17 -3.07292e-33 -1
v -0.274759 0.247282 0.266306
vn -5.01846e-17 3.07292e-33 1
v -0.274759 0.253709 0.266306
vn -5.01846e-17 3.07292e-33 1
v -0.275 0.251024 0.266306
vn -5.01846e-17 3.07292e-33 1
v 0.274757 0.253709 0.266306
vn 5.01846e-17 -3.07292e-33 -1
v 0.275 0.251024 0.266306
vn 5.01846e-17 -3.07292e-33 -1
v 0.274757 0.247282 0.266306
vn 5.01846e-17 -3.07292e-33 -1
v 0.274757 0.247282 0.266306
vn -5.01846e-17 3.07292e-33 1
v 0.275 0.251024 0.266306
vn -5.01846e-17 3.07292e-33 1
v 0.274757 0.253709 0.266306
vn -5.01846e-17 3.07292e-33 1
v 0.274757 -0.247282 0.266306
vn 5.01846e-17 -3.07292e-33 -1
v 0.275 -0.251023 0.266306
vn 5.01846e-17 -3.07292e-33 -1
v 0.274757 -0.253709 0.266306
vn 5.01846e-17 -3.07292e-33 -1
v 0.274757 -0.253709 0.266306
vn -5.01846e-17 3.07292e-33 1
v 0.275 -0.251023 0.266306
vn -5.01846e-17 3.07292e-33 1
v 0.274757 -0.247282 0.266306
vn -5.01846e-17 3.07292e-33 1
v -0.253709 -0.274757 0.291077
vn 1.50554e-16 0.819574 7.4988e-33
v -0.247283 -0.274757 0.266306
vn 1.50554e-16 0.819574 7.4988e-33
v -0.253709 -0.274757 0.266306
vn 1.50554e-16 0.819574 7.4988e-33
v -0.253709 -0.274757 0.266306
vn -1.50554e-16 -0.819574 -7.4988e-33
v -0.247283 -0.274757 0.266306
vn -1.50554e-16 -0.819574 -7.4988e-33
v -0.253709 -0.274757 0.291077
vn -1.50554e-16 -0.819574 -7.4988e-33
v -0.247283 -0.274757 0.291077
vn 1.50554e-16 0.819574 7.4988e-33
v -0.247283 -0.274757 0.291077
vn -1.50554e-16 -0.819574 -7.4988e-33
v -0.253709 -0.274757 0.266306
vn 0.0736029 0.816263 5.49903e-18
v -0.254759 -0.274663 0.291077
vn 0.136396 0.808145 1.01904e-17
v -0.253709 -0.274757 0.291077
vn 0.0736029 0.816263 5.49903e-18
v -0.253709 -0.274757 0.291077
vn -0.0736029 -0.816263 -5.49903e-18
v -0.254759 -0.274663 0.291077
vn -0.136396 -0.808145 -1.01904e-17
v -0.253709 -0.274757 0.266306
vn -0.0736029 -0.816263 -5.49903e-18
v -0.247283 0.274757 0.291077
vn 5.01846e-17 -3.07292e-33 -1
v -0.247283 -0.274757 0.291077
vn 5.01846e-17 -3.07292e-33 -1
v -0.253709 -0.274757 0.291077
vn 5.01846e-17 -3.07292e-33 -1
v -0.253709 -0.274757 0.291077
vn -5.01846e-17 3.07292e-33 1
v -0.247283 -0.274757 0.291077
vn -5.01846e-17 3.07292e-33 1
v -0.247283 0.274757 0.291077
vn -5.01846e-17 3.07292e-33 1
v 0.247282 -0.274757 0.266306
vn 1.50554e-16 0.819574 7.4988e-33
v 0.247282 -0.274757 0.266306
vn -1.50554e-16 -0.819574 -7.4988e-33
v -0.254759 -0.274663 0.266306
vn 0.136396 0.808145 1.01904e-17
v -0.254759 -0.274663 0.266306
vn -0.136396 -0.808145 -1.01904e-17
v -0.253709 0.274757 0.291077
vn 5.01846e-17 -3.07292e-33 -1
v -0.254759 -0.274663 0.291077
vn 5.01846e-17 -3.07292e-33 -1
v -0.254759 -0.274663 0.291077
vn -5.01846e-17 3.07292e-33 1
v -0.253709 0.274757 0.291077
vn -5.01846e-17 3.07292e-33 1
v 0.247282 0.274757 0.291077
vn 5.01846e-17 -3.07292e-33 -1
v 0.247282 0.274757 0.291077
vn -5.01846e-17 3.07292e-33 1
v 0.247282 -0.274757 0.291077
vn 1.50554e-16 0.819574 7.4988e-33
v 0.247282 -0.274757 0.291077
vn -1.50554e-16 -0.819574 -7.4988e-33
v -0.258396 -0.273755 0.291077
vn 0.25917 0.777518 1.93631e-17
v -0.258396 -0.273755 0.291077
vn -0.25917 -0.777518 -1.93631e-17
v -0.254759 0.274663 0.291077
vn 5.01846e-17 -3.07292e-33 -1
v -0.254759 0.274663 0.291077
vn -5.01846e-17 3.07292e-33 1
v 0.247282 -0.274757 0.291077
vn 5.01846e-17 -3.07292e-33 -1
v 0.247282 -0.274757 0.291077
vn -5.01846e-17 3.07292e-33 1
v -0.247283 0.274757 0.266306
vn -1.50554e-16 -0.819574 -7.4988e-33
v 0.247282 0.274757 0.291077
vn -1.50554e-16 -0.819574 -7.4988e-33
v -0.247283 0.274757 0.291077
vn -1.50554e-16 -0.819574 -7.4988e-33
v -0.247283 0.274757 0.291077
vn 1.50554e-16 0.819574 7.4988e-33
v 0.247282 0.274757 0.291077
vn 1.50554e-16 0.819574 7.4988e-33
v -0.247283 0.274757 0.266306
vn 1.50554e-16 0.819574 7.4988e-33
v -0.253709 0.274757 0.266306
vn -1.50554e-16 -0.819574 -7.4988e-33
v -0.253709 0.274757 0.291077
vn -1.50554e-16 -0.819574 -7.4988e-33
v -0.253709 0.274757 0.291077
vn 1.50554e-16 0.819574 7.4988e-33
v -0.253709 0.274757 0.266306
vn 1.50554e-16 0.819574 7.4988e-33
v 0.253709 -0.274757 0.266306
vn 1.50554e-16 0.819574 7.4988e-33
v 0.253709 -0.274757 0.266306
vn -1.50554e-16 -0.819574 -7.4988e-33
v -0.258396 -0.273755 0.266306
vn 0.25917 0.777518 1.93631e-17
v -0.258396 -0.273755 0.266306
vn -0.25917 -0.777518 -1.93631e-17
v -0.258396 -0.273755 0.291077
vn 5.01846e-17 -3.07292e-33 -1
v -0.258396 -0.273755 0.291077
vn -5.01846e-17 3.07292e-33 1
v -0.254759 0.274663 0.266306
vn 0.136396 -0.808145 1.01904e-17
v -0.253709 0.274757 0.291077
vn 0.0736029 -0.816263 5.49903e-18
v -0.254759 0.274663 0.291077
vn 0.136396 -0.808145 1.01904e-17
v -0.254759 0.274663 0.291077
vn -0.136396 0.808145 -1.01904e-17
v -0.253709 0.274757 0.291077
vn -0.0736029 0.816263 -5.49903e-18
v -0.254759 0.274663 0.266306
vn -0.136396 0.808145 -1.01904e-17
v 0.253709 0.274757 0.291077
vn 5.01846e-17 -3.07292e-33 -1
v 0.253709 0.274757 0.291077
vn -5.01846e-17 3.07292e-33 1
v 0.247282 0.274757 0.266306
vn -1.50554e-16 -0.819574 -7.4988e-33
v 0.247282 0.274757 0.266306
vn 1.50554e-16 0.819574 7.4988e-33
v -0.253709 0.274757 0.266306
vn 0.0736029 -0.816263 5.49903e-18
v -0.253709 0.274757 0.266306
vn -0.0736029 0.816263 -5.49903e-18
v 0.253709 -0.274757 0.291077
vn 1.50554e-16 0.819574 7.4988e-33
v 0.253709 -0.274757 0.291077
vn -1.50554e-16 -0.819574 -7.4988e-33
v -0.261851 -0.272298 0.291077
vn 0.375768 0.728356 2.80744e-17
v -0.261851 -0.272298 0.291077
vn -0.375768 -0.728356 -2.80744e-17
v -0.258396 0.273755 0.291077
vn 5.01846e-17 -3.07292e-33 -1
v -0.258396 0.273755 0.291077
vn -5.01846e-17 3.07292e-33 1
v -0.258396 0.273755 0.266306
vn 0.25917 -0.777518 1.93631e-17
v -0.258396 0.273755 0.266306
vn -0.25917 0.777518 -1.93631e-17
v 0.253709 -0.274757 0.291077
vn 5.01846e-17 -3.07292e-33 -1
v 0.253709 -0.274757 0.291077
vn -5.01846e-17 3.07292e-33 1
v 0.253709 0.274757 0.291077
vn -1.50554e-16 -0.819574 -7.4988e-33
v 0.253709 0.274757 0.291077
vn 1.50554e-16 0.819574 7.4988e-33
v 0.253709 -0.274757 0.291077
vn -0.0736029 0.816263 -5.49903e-18
v 0.254759 -0.274663 0.266306
vn -0.136396 0.808145 -1.01904e-17
v 0.253709 -0.274757 0.266306
vn -0.0736029 0.816263 -5.49903e-18
v 0.253709 -0.274757 0.266306
vn 0.0736029 -0.816263 5.49903e-18
v 0.254759 -0.274663 0.266306
vn 0.136396 -0.808145 1.01904e-17
v 0.253709 -0.274757 0.291077
vn 0.0736029 -0.816263 5.49903e-18
v -0.261851 -0.272298 0.266306
vn 0.375768 0.728356 2.80744e-17
v -0.261851 -0.272298 0.266306
vn -0.375768 -0.728356 -2.80744e-17
v -0.261851 -0.272298 0.291077
vn 5.01846e-17 -3.07292e-33 -1
v -0.261851 -0.272298 0.291077
vn -5.01846e-17 3.07292e-33 1
v -0.258396 0.273755 0.291077
vn 0.25917 -0.777518 1.93631e-17
v -0.258396 0.273755 0.291077
vn -0.25917 0.777518 -1.93631e-17
v 0.254759 0.274663 0.291077
vn 5.01846e-17 -3.07292e-33 -1
v 0.254759 0.274663 0.291077
vn -5.01846e-17 3.07292e-33 1
v 0.253709 0.274757 0.266306
vn -1.50554e-16 -0.819574 -7.4988e-33
v 0.253709 0.274757 0.266306
vn 1.50554e-16 0.819574 7.4988e-33
v 0.254759 -0.274663 0.291077
vn -0.136396 0.808145 -1.01904e-17
v 0.254759 -0.274663 0.291077
vn 0.136396 -0.808145 1.01904e-17
v -0.265041 -0.270327 0.291077
vn 0.483409 0.661831 3.61165e-17
v -0.265041 -0.270327 0.291077
vn -0.483409 -0.661831 -3.61165e-17
v -0.261851 0.272299 0.291077
vn 5.01846e-17 -3.07292e-33 -1
v -0.261851 0.272299 0.291077
vn -5.01846e-17 3.07292e-33 1
v -0.261851 0.272299 0.266306
vn 0.375768 -0.728356 2.80744e-17
v -0.261851 0.272299 0.266306
vn -0.375768 0.728356 -2.80744e-17
v 0.254759 -0.274663 0.291077
vn 5.01846e-17 -3.07292e-33 -1
v 0.254759 -0.274663 0.291077
vn -5.01846e-17 3.07292e-33 1
v 0.253709 0.274757 0.266306
vn -0.0736029 -0.816263 -5.49903e-18
v 0.254759 0.274663 0.291077
vn -0.136396 -0.808145 -1.01904e-17
v 0.253709 0.274757 0.291077
vn -0.0736029 -0.816263 -5.49903e-18
v 0.253709 0.274757 0.291077
vn 0.0736029 0.816263 5.49903e-18
v 0.254759 0.274663 0.291077
vn 0.136396 0.808145 1.01904e-17
v 0.253709 0.274757 0.266306
vn 0.0736029 0.816263 5.49903e-18
v 0.258396 -0.273755 0.266306
vn -0.25917 0.777518 -1.93631e-17
v 0.258396 -0.273755 0.266306
vn 0.25917 -0.777518 1.93631e-17
v -0.265041 -0.270327 0.266306
vn 0.483409 0.661831 3.61165e-17
v -0.265041 -0.270327 0.266306
vn -0.483409 -0.661831 -3.61165e-17
v -0.265041 -0.270327 0.291077
vn 5.01846e-17 -3.07292e-33 -1
v -0.265041 -0.270327 0.291077
vn -5.01846e-17 3.07292e-33 1
v -0.261851 0.272299 0.291077
vn 0.375768 -0.728356 2.80744e-17
v -0.261851 0.272299 0.291077
vn -0.375768 0.728356 -2.80744e-17
v 0.258396 0.273755 0.291077
vn 5.01846e-17 -3.07292e-33 -1
v 0.258396 0.273755 0.291077
vn -5.01846e-17 3.07292e-33 1
v 0.254759 0.274663 0.266306
vn -0.136396 -0.808145 -1.01904e-17
v 0.254759 0.274663 0.266306
vn 0.136396 0.808145 1.01904e-17
v 0.258396 -0.273755 0.291077
vn -0.25917 0.777518 -1.93631e-17
v 0.258396 -0.273755 0.291077
vn 0.25917 -0.777518 1.93631e-17
v -0.267889 -0.267888 0.291077
vn 0.579525 0.579529 4.32976e-17
v -0.267889 -0.267888 0.291077
vn -0.579525 -0.579529 -4.32976e-17
v -0.265041 0.270327 0.291077
vn 5.01846e-17 -3.07292e-33 -1
v -0.265041 0.270327 0.291077
vn -5.01846e-17 3.07292e-33 1
v -0.265041 0.270327 0.266306
vn 0.483409 -0.661831 3.61165e-17
v -0.265041 0.270327 0.266306
vn -0.483409 0.661831 -3.61165e-17
v 0.258396 -0.273755 0.291077
vn 5.01846e-17 -3.07292e-33 -1
v 0.258396 -0.273755 0.291077
vn -5.01846e-17 3.07292e-33 1
v 0.258396 0.273755 0.291077
vn -0.25917 -0.777518 -1.93631e-17
v 0.258396 0.273755 0.291077
vn 0.25917 0.777518 1.93631e-17
v 0.261851 -0.272298 0.266306
vn -0.375768 0.728356 -2.80744e-17
v 0.261851 -0.272298 0.266306
vn 0.375768 -0.728356 2.80744e-17
v -0.267889 -0.267888 0.266306
vn 0.579525 0.579529 4.32976e-17
v -0.267889 -0.267888 0.266306
vn -0.579525 -0.579529 -4.32976e-17
v -0.267889 -0.267888 0.291077
vn 5.01846e-17 -3.07292e-33 -1
v -0.267889 -0.267888 0.291077
vn -5.01846e-17 3.07292e-33 1
v -0.265041 0.270327 0.291077
vn 0.483409 -0.661831 3.61165e-17
v -0.265041 0.270327 0.291077
vn -0.483409 0.661831 -3.61165e-17
v 0.261851 0.272299 0.291077
vn 5.01846e-17 -3.07292e-33 -1
v 0.261851 0.272299 0.291077
vn -5.01846e-17 3.07292e-33 1
v 0.258396 0.273755 0.266306
vn -0.25917 -0.777518 -1.93631e-17
v 0.258396 0.273755 0.266306
vn 0.25917 0.777518 1.93631e-17
v 0.261851 -0.272298 0.291077
vn -0.375768 0.728356 -2.80744e-17
v 0.261851 -0.272298 0.291077
vn 0.375768 -0.728356 2.80744e-17
v -0.270328 -0.26504 0.266306
vn 0.661828 0.483414 4.94466e-17
v -0.270328 -0.26504 0.266306
vn -0.661828 -0.483414 -4.94466e-17
v -0.267889 0.267888 0.291077
vn 5.01846e-17 -3.07292e-33 -1
v -0.267889 0.267888 0.291077
vn -5.01846e-17 3.07292e-33 1
v -0.267889 0.267888 0.266306
vn 0.579525 -0.579529 4.32976e-17
v -0.267889 0.267888 0.266306
vn -0.579525 0.579529 -4.32976e-17
v 0.261851 -0.272298 0.291077
vn 5.01846e-17 -3.07292e-33 -1
v 0.261851 -0.272298 0.291077
vn -5.01846e-17 3.07292e-33 1
v 0.261851 0.272299 0.291077
vn -0.375768 -0.728356 -2.80744e-17
v 0.261851 0.272299 0.291077
vn 0.375768 0.728356 2.80744e-17
v 0.265041 -0.270327 0.266306
vn -0.483409 0.661831 -3.61165e-17
v 0.265041 -0.270327 0.266306
vn 0.483409 -0.661831 3.61165e-17
v -0.270328 -0.26504 0.291077
vn 0.661828 0.483414 4.94466e-17
v -0.270328 -0.26504 0.291077
vn -0.661828 -0.483414 -4.94466e-17
v -0.270328 -0.26504 0.291077
vn 5.01846e-17 -3.07292e-33 -1
v -0.270328 -0.26504 0.291077
vn -5.01846e-17 3.07292e-33 1
v -0.267889 0.267888 0.291077
vn 0.579525 -0.579529 4.32976e-17
v -0.267889 0.267888 0.291077
vn -0.579525 0.579529 -4.32976e-17
v 0.265041 0.270327 0.291077
vn 5.01846e-17 -3.07292e-33 -1
v 0.265041 0.270327 0.291077
vn -5.01846e-17 3.07292e-33 1
v 0.261851 0.272299 0.266306
vn -0.375768 -0.728356 -2.80744e-17
v 0.261851 0.272299 0.266306
vn 0.375768 0.728356 2.80744e-17
v 0.265041 -0.270327 0.291077
vn -0.483409 0.661831 -3.61165e-17
v 0.265041 -0.270327 0.291077
vn 0.483409 -0.661831 3.61165e-17
v -0.2723 -0.26185 0.266306
vn 0.728354 0.375773 5.44169e-17
v -0.2723 -0.26185 0.266306
vn -0.728354 -0.375773 -5.44169e-17
v -0.270328 0.265041 0.291077
vn 5.01846e-17 -3.07292e-33 -1
v -0.270328 0.265041 0.291077
vn -5.01846e-17 3.07292e-33 1
v -0.270328 0.265041 0.291077
vn 0.661828 -0.483414 4.94466e-17
v -0.270328 0.265041 0.291077
vn -0.661828 0.483414 -4.94466e-17
v 0.265041 -0.270327 0.291077
vn 5.01846e-17 -3.07292e-33 -1
v 0.265041 -0.270327 0.291077
vn -5.01846e-17 3.07292e-33 1
v 0.265041 0.270327 0.291077
vn -0.483409 -0.661831 -3.61165e-17
v 0.265041 0.270327 0.291077
vn 0.483409 0.661831 3.61165e-17
v 0.267889 -0.267888 0.266306
vn -0.579525 0.579529 -4.32976e-17
v 0.267889 -0.267888 0.266306
vn 0.579525 -0.579529 4.32976e-17
v -0.2723 -0.26185 0.291077
vn 0.728354 0.375773 5.44169e-17
v -0.2723 -0.26185 0.291077
vn -0.728354 -0.375773 -5.44169e-17
v -0.2723 -0.26185 0.291077
vn 5.01846e-17 -3.07292e-33 -1
v -0.2723 -0.26185 0.291077
vn -5.01846e-17 3.07292e-33 1
v -0.270328 0.265041 0.266306
vn 0.661828 -0.483414 4.94466e-17
v -0.270328 0.265041 0.266306
vn -0.661828 0.483414 -4.94466e-17
v 0.267889 0.267888 0.291077
vn 5.01846e-17 -3.07292e-33 -1
v 0.267889 0.267888 0.291077
vn -5.01846e-17 3.07292e-33 1
v 0.265041 0.270327 0.266306
vn -0.483409 -0.661831 -3.61165e-17
v 0.265041 0.270327 0.266306
vn 0.483409 0.661831 3.61165e-17
v 0.267889 -0.267888 0.291077
vn -0.579525 0.579529 -4.32976e-17
v 0.267889 -0.267888 0.291077
vn 0.579525 -0.579529 4.32976e-17
v -0.273757 -0.258395 0.266306
vn 0.777518 0.259176 5.809e-17
v -0.273757 -0.258395 0.266306
vn -0.777518 -0.259176 -5.809e-17
v -0.2723 0.261851 0.291077
vn 5.01846e-17 -3.07292e-33 -1
v -0.2723 0.261851 0.291077
vn -5.01846e-17 3.07292e-33 1
v -0.2723 0.261851 0.291077
vn 0.728354 -0.375773 5.44169e-17
v -0.2723 0.261851 0.291077
vn -0.728354 0.375773 -5.44169e-17
v 0.267889 -0.267888 0.291077
vn 5.01846e-17 -3.07292e-33 -1
v 0.267889 -0.267888 0.291077
vn -5.01846e-17 3.07292e-33 1
v 0.267889 0.267888 0.291077
vn -0.579525 -0.579529 -4.32976e-17
v 0.267889 0.267888 0.291077
vn 0.579525 0.579529 4.32976e-17
v 0.270328 -0.26504 0.291077
vn -0.661828 0.483414 -4.94466e-17
v 0.270328 -0.26504 0.291077
vn 0.661828 -0.483414 4.94466e-17
v -0.273757 -0.258395 0.291077
vn 0.777518 0.259176 5.809e-17
v -0.273757 -0.258395 0.291077
vn -0.777518 -0.259176 -5.809e-17
v -0.273757 -0.258395 0.291077
vn 5.01846e-17 -3.07292e-33 -1
v -0.273757 -0.258395 0.291077
vn -5.01846e-17 3.07292e-33 1
v -0.2723 0.261851 0.266306
vn 0.728354 -0.375773 5.44169e-17
v -0.2723 0.261851 0.266306
vn -0.728354 0.375773 -5.44169e-17
v 0.270328 0.265041 0.291077
vn 5.01846e-17 -3.07292e-33 -1
v 0.270328 0.265041 0.291077
vn -5.01846e-17 3.07292e-33 1
v 0.267889 0.267888 0.266306
vn -0.579525 -0.579529 -4.32976e-17
v 0.267889 0.267888 0.266306
vn 0.579525 0.579529 4.32976e-17
v 0.270328 -0.26504 0.266306
vn -0.661828 0.483414 -4.94466e-17
v 0.270328 -0.26504 0.266306
vn 0.661828 -0.483414 4.94466e-17
v 0.270328 -0.26504 0.291077
vn 5.01846e-17 -3.07292e-33 -1
v 0.270328 -0.26504 0.291077
vn -5.01846e-17 3.07292e-33 1
v -0.274664 -0.254757 0.266306
vn 0.808147 0.1364 6.03784e-17
v -0.274664 -0.254757 0.266306
vn -0.808147 -0.1364 -6.03784e-17
v -0.273757 0.258396 0.291077
vn 5.01846e-17 -3.07292e-33 -1
v -0.273757 0.258396 0.291077
vn -5.01846e-17 3.07292e-33 1
v -0.273757 0.258396 0.291077
vn 0.777518 -0.259176 5.809e-17
v -0.273757 0.258396 0.291077
vn -0.777518 0.259176 -5.809e-17
v 0.270328 0.265041 0.266306
vn -0.661828 -0.483414 -4.94466e-17
v 0.270328 0.265041 0.291077
vn -0.661828 -0.483414 -4.94466e-17
v 0.270328 0.265041 0.291077
vn 0.661828 0.483414 4.94466e-17
v 0.270328 0.265041 0.266306
vn 0.661828 0.483414 4.94466e-17
v 0.2723 -0.26185 0.291077
vn -0.728354 0.375773 -5.44169e-17
v 0.2723 -0.26185 0.291077
vn 0.728354 -0.375773 5.44169e-17
v 0.2723 0.261851 0.291077
vn 5.01846e-17 -3.07292e-33 -1
v 0.2723 0.261851 0.291077
vn -5.01846e-17 3.07292e-33 1
v -0.274664 -0.254757 0.291077
vn 0.808147 0.1364 6.03784e-17
v -0.274664 -0.254757 0.291077
vn -0.808147 -0.1364 -6.03784e-17
v -0.274664 -0.254757 0.291077
vn 5.01846e-17 -3.07292e-33 -1
v -0.274664 -0.254757 0.291077
vn -5.01846e-17 3.07292e-33 1
v -0.273757 0.258396 0.266306
vn 0.777518 -0.259176 5.809e-17
v -0.273757 0.258396 0.266306
vn -0.777518 0.259176 -5.809e-17
v 0.2723 0.261851 0.266306
vn -0.728354 -0.375773 -5.44169e-17
v 0.2723 0.261851 0.266306
vn 0.728354 0.375773 5.44169e-17
v 0.2723 -0.26185 0.266306
vn -0.728354 0.375773 -5.44169e-17
v 0.2723 -0.26185 0.266306
vn 0.728354 -0.375773 5.44169e-17
v 0.2723 -0.26185 0.291077
vn 5.01846e-17 -3.07292e-33 -1
v 0.2723 -0.26185 0.291077
vn -5.01846e-17 3.07292e-33 1
v 0.2723 0.261851 0.291077
vn -0.728354 -0.375773 -5.44169e-17
v 0.2723 0.261851 0.291077
vn 0.728354 0.375773 5.44169e-17
v -0.274759 -0.253709 0.266306
vn 0.816265 0.0736027 6.09849e-17
v -0.274759 -0.253709 0.266306
vn -0.816265 -0.0736027 -6.09849e-17
v -0.274664 0.254758 0.291077
vn 5.01846e-17 -3.07292e-33 -1
v -0.274664 0.254758 0.291077
vn -5.01846e-17 3.07292e-33 1
v -0.274664 0.254758 0.291077
vn 0.808147 -0.1364 6.03784e-17
v -0.274664 0.254758 0.291077
vn -0.808147 0.1364 -6.03784e-17
v 0.273757 -0.258395 0.291077
vn -0.777518 0.259176 -5.809e-17
v 0.273757 -0.258395 0.291077
vn 0.777518 -0.259176 5.809e-17
v 0.273757 0.258396 0.291077
vn 5.01846e-17 -3.07292e-33 -1
v 0.273757 0.258396 0.291077
vn -5.01846e-17 3.07292e-33 1
v 0.273757 0.258396 0.266306
vn -0.777518 -0.259176 -5.809e-17
v 0.273757 0.258396 0.266306
vn 0.777518 0.259176 5.809e-17
v -0.274759 -0.253709 0.291077
vn 0.816265 0.0736027 6.09849e-17
v -0.274759 -0.253709 0.291077
vn -0.816265 -0.0736027 -6.09849e-17
v -0.274759 -0.253709 0.291077
vn 5.01846e-17 -3.07292e-33 -1
v -0.274759 -0.253709 0.291077
vn -5.01846e-17 3.07292e-33 1
v -0.274664 0.254758 0.266306
vn 0.808147 -0.1364 6.03784e-17
v -0.274664 0.254758 0.266306
vn -0.808147 0.1364 -6.03784e-17
v 0.273757 -0.258395 0.266306
vn -0.777518 0.259176 -5.809e-17
v 0.273757 -0.258395 0.266306
vn 0.777518 -0.259176 5.809e-17
v 0.273757 -0.258395 0.291077
vn 5.01846e-17 -3.07292e-33 -1
v 0.273757 -0.258395 0.291077
vn -5.01846e-17 3.07292e-33 1
v 0.273757 0.258396 0.291077
vn -0.777518 -0.259176 -5.809e-17
v 0.273757 0.258396 0.291077
vn 0.777518 0.259176 5.809e-17
v -0.274759 -0.247282 0.266306
vn 0.819577 -1.50554e-16 6.12323e-17
v -0.274759 -0.253709 0.291077
vn 0.819577 -1.50554e-16 6.12323e-17
v -0.274759 -0.253709 0.266306
vn 0.819577 -1.50554e-16 6.12323e-17
v -0.274759 -0.253709 0.266306
vn -0.819577 1.50554e-16 -6.12323e-17
v -0.274759 -0.253709 0.291077
vn -0.819577 1.50554e-16 -6.12323e-17
v -0.274759 -0.247282 0.266306
vn -0.819577 1.50554e-16 -6.12323e-17
v -0.274759 0.253709 0.291077
vn 5.01846e-17 -3.07292e-33 -1
v -0.274759 0.253709 0.291077
vn -5.01846e-17 3.07292e-33 1
v -0.274759 0.253709 0.291077
vn 0.816265 -0.0736027 6.09849e-17
v -0.274759 0.253709 0.291077
vn -0.816265 0.0736027 -6.09849e-17
v 0.274663 -0.254757 0.291077
vn -0.808147 0.1364 -6.03784e-17
v 0.274663 -0.254757 0.291077
vn 0.808147 -0.1364 6.03784e-17
v 0.274663 0.254758 0.291077
vn 5.01846e-17 -3.07292e-33 -1
v 0.274663 0.254758 0.291077
vn -5.01846e-17 3.07292e-33 1
v 0.274663 0.254758 0.266306
vn -0.808147 -0.1364 -6.03784e-17
v 0.274663 0.254758 0.266306
vn 0.808147 0.1364 6.03784e-17
v -0.274759 -0.247282 0.291077
vn 0.819577 -1.50554e-16 6.12323e-17
v -0.274759 -0.247282 0.291077
vn -0.819577 1.50554e-16 -6.12323e-17
v -0.274759 -0.247282 0.291077
vn 5.01846e-17 -3.07292e-33 -1
v -0.274759 -0.247282 0.291077
vn -5.01846e-17 3.07292e-33 1
v -0.274759 0.253709 0.266306
vn 0.816265 -0.0736027 6.09849e-17
v -0.274759 0.253709 0.266306
vn -0.816265 0.0736027 -6.09849e-17
v 0.274663 -0.254757 0.266306
vn -0.808147 0.1364 -6.03784e-17
v 0.274663 -0.254757 0.266306
vn 0.808147 -0.1364 6.03784e-17
v 0.274663 -0.254757 0.291077
vn 5.01846e-17 -3.07292e-33 -1
v 0.274663 -0.254757 0.291077
vn -5.01846e-17 3.07292e-33 1
v 0.274663 0.254758 0.291077
vn -0.808147 -0.1364 -6.03784e-17
v 0.274663 0.254758 0.291077
vn 0.808147 0.1364 6.03784e-17
v -0.274759 0.247282 0.266306
vn 0.819577 -1.50554e-16 6.12323e-17
v -0.274759 0.247282 0.266306
vn -0.819577 1.50554e-16 -6.12323e-17
v -0.274759 0.247282 0.291077
vn 5.01846e-17 -3.07292e-33 -1
v -0.274759 0.247282 0.291077
vn -5.01846e-17 3.07292e-33 1
v -0.274759 0.247282 0.291077
vn 0.819577 -1.50554e-16 6.12323e-17
v -0.274759 0.253709 0.266306
vn 0.819577 -1.50554e-16 6.12323e-17
v -0.274759 0.253709 0.291077
vn 0.819577 -1.50554e-16 6.12323e-17
v -0.274759 0.253709 0.291077
vn -0.819577 1.50554e-16 -6.12323e-17
v -0.274759 0.253709 0.266306
vn -0.819577 1.50554e-16 -6.12323e-17
v -0.274759 0.247282 0.291077
vn -0.819577 1.50554e-16 -6.12323e-17
v 0.274757 -0.253709 0.291077
vn -0.816265 0.0736027 -6.09849e-17
v 0.274757 -0.253709 0.291077
vn 0.816265 -0.0736027 6.09849e-17
v 0.274757 0.253709 0.291077
vn 5.01846e-17 -3.07292e-33 -1
v 0.274757 0.253709 0.291077
vn -5.01846e-17 3.07292e-33 1
v 0.274757 0.253709 0.266306
vn -0.816265 -0.0736027 -6.09849e-17
v 0.274757 0.253709 0.266306
vn 0.816265 0.0736027 6.09849e-17
v 0.274757 -0.253709 0.266306
vn -0.816265 0.0736027 -6.09849e-17
v 0.274757 -0.253709 0.266306
vn 0.816265 -0.0736027 6.09849e-17
v 0.274757 -0.247282 0.291077
vn 5.01846e-17 -3.07292e-33 -1
v 0.274757 -0.253709 0.291077
vn 5.01846e-17 -3.07292e-33 -1
v 0.274757 -0.253709 0.291077
vn -5.01846e-17 3.07292e-33 1
v 0.274757 -0.247282 0.291077
vn -5.01846e-17 3.07292e-33 1
v 0.274757 0.247282 0.291077
vn 5.01846e-17 -3.07292e-33 -1
v 0.274757 0.247282 0.291077
vn -5.01846e-17 3.07292e-33 1
v 0.274757 0.253709 0.291077
vn -0.816265 -0.0736027 -6.09849e-17
v 0.274757 0.253709 0.291077
vn 0.816265 0.0736027 6.09849e-17
v 0.274757 -0.247282 0.291077
vn -0.819577 1.50554e-16 -6.12323e-17
v 0.274757 -0.253709 0.266306
vn -0.819577 1.50554e-16 -6.12323e-17
v 0.274757 -0.253709 0.291077
vn -0.819577 1.50554e-16 -6.12323e-17
v 0.274757 -0.253709 0.291077
vn 0.819577 -1.50554e-16 6.12323e-17
v 0.274757 -0.253709 0.266306
vn 0.819577 -1.50554e-16 6.12323e-17
v 0.274757 -0.247282 0.291077
vn 0.819577 -1.50554e-16 6.12323e-17
v 0.274757 0.253709 0.291077
vn -0.819577 1.50554e-16 -6.12323e-17
v 0.274757 0.247282 0.266306
vn -0.819577 1.50554e-16 -6.12323e-17
v 0.274757 0.247282 0.291077
vn -0.819577 1.50554e-16 -6.12323e-17
v 0.274757 0.247282 0.291077
vn 0.819577 -1.50554e-16 6.12323e-17
v 0.274757 0.247282 0.266306
vn 0.819577 -1.50554e-16 6.12323e-17
v 0.274757 0.253709 0.291077
vn 0.819577 -1.50554e-16 6.12323e-17
v 0.274757 0.253709 0.266306
vn -0.819577 1.50554e-16 -6.12323e-17
v 0.274757 0.253709 0.266306
vn 0.819577 -1.50554e-16 6.12323e-17
v 0.274757 -0.247282 0.266306
vn -0.819577 1.50554e-16 -6.12323e-17
v 0.274757 -0.247282 0.266306
vn 0.819577 -1.50554e-16 6.12323e-17
f 1//1 2//2 3//3
f 2//2 1//1 4//4
f 5//5 6//6 7//7
f 8//8 9//9 10//10
f 11//11 12//12 13//13
f 14//14 15//15 16//16
f 17//17 6//6 5//5
f 5//5 7//7 18//18
f 9//9 8//8 19//19
f 20//20 21//21 11//11
f 11//11 22//22 12//12
f 13//13 12//12 23//23
f 15//15 14//14 24//24
f 25//25 6//6 17//17
f 26//26 27//27 28//28
f 5//5 18//18 29//29
f 30//30 31//31 6//6
f 32//32 33//33 34//34
f 20//20 35//35 21//21
f 11//11 21//21 36//36
f 11//11 36//36 22//22
f 27//27 26//26 37//37
f 23//23 12//12 38//38
f 39//39 40//40 41//41
f 30//30 6//6 25//25
f 42//42 43//43 44//44
f 45//45 46//46 47//47
f 29//29 18//18 48//48
f 46//46 45//45 49//49
f 50//50 31//31 30//30
f 33//33 32//32 51//51
f 52//52 35//35 20//20
f 53//53 54//54 55//55
f 56//56 36//36 21//21
f 43//43 42//42 57//57
f 23//23 38//38 58//58
f 40//40 39//39 59//59
f 60//60 48//48 18//18
f 25//25 61//61 30//30
f 29//29 48//48 62//62
f 63//63 64//64 65//65
f 50//50 66//66 31//31
f 54//54 53//53 67//67
f 68//68 69//69 70//70
f 52//52 71//71 35//35
f 72//72 73//73 74//74
f 56//56 75//75 36//36
f 76//76 77//77 78//78
f 79//79 80//80 81//81
f 58//58 38//38 82//82
f 58//58 83//83 23//23
f 84//84 85//85 86//86
f 48//48 60//60 87//87
f 88//88 61//61 25//25
f 77//77 76//76 89//89
f 90//90 91//91 92//92
f 29//29 62//62 93//93
f 64//64 63//63 94//94
f 95//95 66//66 50//50
f 69//69 68//68 96//96
f 97//97 71//71 52//52
f 73//73 72//72 98//98
f 56//56 99//99 75//75
f 80//80 79//79 100//100
f 82//82 38//38 101//101
f 91//91 90//90 102//102
f 83//83 58//58 103//103
f 85//85 84//84 104//104
f 87//87 60//60 105//105
f 106//106 107//107 108//108
f 109//109 61//61 88//88
f 110//110 111//111 112//112
f 107//107 106//106 113//113
f 93//93 62//62 114//114
f 115//115 116//116 117//117
f 95//95 118//118 66//66
f 119//119 120//120 121//121
f 97//97 122//122 71//71
f 123//123 124//124 125//125
f 126//126 99//99 56//56
f 127//127 128//128 129//129
f 82//82 101//101 130//130
f 131//131 132//132 133//133
f 83//83 103//103 134//134
f 135//135 136//136 137//137
f 87//87 105//105 138//138
f 139//139 140//140 141//141
f 109//109 142//142 61//61
f 128//128 127//127 143//143
f 111//111 110//110 144//144
f 132//132 131//131 145//145
f 93//93 114//114 146//146
f 116//116 115//115 147//147
f 148//148 118//118 95//95
f 120//120 119//119 149//149
f 150//150 122//122 97//97
f 124//124 123//123 151//151
f 126//126 152//152 99//99
f 130//130 101//101 153//153
f 134//134 103//103 154//154
f 136//136 135//135 155//155
f 138//138 105//105 156//156
f 140//140 139//139 157//157
f 158//158 142//142 109//109
f 159//159 160//160 161//161
f 162//162 163//163 164//164
f 165//165 166//166 167//167
f 146//146 114//114 168//168
f 169//169 170//170 171//171
f 172//172 118//118 148//148
f 118//118 172//172 173//173
f 174//174 175//175 176//176
f 122//122 150//150 177//177
f 178//178 179//179 180//180
f 181//181 152//152 126//126
f 130//130 153//153 182//182
f 134//134 154//154 183//183
f 184//184 185//185 186//186
f 138//138 156//156 187//187
f 188//188 189//189 190//190
f 158//158 191//191 142//142
f 160//160 159//159 192//192
f 163//163 162//162 193//193
f 166//166 165//165 194//194
f 130//130 182//182 195//195
f 168//168 114//114 196//196
f 170//170 169//169 197//197
f 175//175 174//174 198//198
f 179//179 178//178 199//199
f 181//181 200//200 152//152
f 183//183 154//154 201//201
f 185//185 184//184 202//202
f 187//187 156//156 203//203
f 189//189 188//188 204//204
f 205//205 191//191 158//158
f 206//206 207//207 208//208
f 209//209 210//210 211//211
f 212//212 213//213 214//214
f 195//195 182//182 215//215
f 168//168 196//196 216//216
f 217//217 218//218 219//219
f 181//181 220//220 200//200
f 183//183 201//201 221//221
f 222//222 223//223 224//224
f 187//187 203//203 225//225
f 226//226 227//227 228//228
f 229//229 191//191 205//205
f 207//207 206//206 230//230
f 210//210 209//209 231//231
f 232//232 233//233 191//191
f 213//213 212//212 234//234
f 195//195 215//215 235//235
f 218//218 217//217 236//236
f 216//216 196//196 237//237
f 181//181 238//238 220//220
f 239//239 240//240 241//241
f 221//221 201//201 242//242
f 223//223 222//222 243//243
f 227//227 226//226 244//244
f 232//232 191//191 229//229
f 240//240 239//239 245//245
f 246//246 247//247 248//248
f 249//249 238//238 181//181
f 232//232 250//250 233//233
f 251//251 252//252 253//253
f 235//235 215//215 254//254
f 255//255 256//256 257//257
f 216//216 237//237 258//258
f 259//259 260//260 261//261
f 260//260 259//259 262//262
f 247//247 246//246 263//263
f 264//264 238//238 249//249
f 232//232 265//265 250//250
f 252//252 251//251 266//266
f 235//235 267//267 268//268
f 256//256 255//255 269//269
f 235//235 254//254 267//267
f 258//258 237//237 270//270
f 271//271 272//272 273//273
f 274//274 275//275 276//276
f 277//277 238//238 264//264
f 265//265 232//232 278//278
f 279//279 280//280 281//281
f 270//270 237//237 282//282
f 268//268 267//267 283//283
f 284//284 285//285 286//286
f 285//285 284//284 287//287
f 272//272 271//271 288//288
f 275//275 274//274 289//289
f 238//238 277//277 290//290
f 291//291 292//292 293//293
f 280//280 279//279 294//294
f 268//268 283//283 295//295
f 270//270 282//282 296//296
f 297//297 298//298 299//299
f 292//292 291//291 300//300
f 301//301 302//302 303//303
f 296//296 282//282 304//304
f 298//298 297//297 305//305
f 302//302 301//301 306//306
f 307//307 308//308 309//309
f 310//310 309//309 308//308
f 311//311 312//312 313//313
f 314//314 315//315 316//316
f 317//317 318//318 319//319
f 320//320 321//321 322//322
f 313//313 312//312 323//323
f 324//324 311//311 313//313
f 325//325 316//316 315//315
f 319//319 326//326 327//327
f 318//318 328//328 319//319
f 329//329 318//318 317//317
f 330//330 322//322 321//321
f 323//323 312//312 331//331
f 332//332 333//333 334//334
f 335//335 324//324 313//313
f 312//312 336//336 337//337
f 338//338 339//339 340//340
f 326//326 341//341 327//327
f 342//342 326//326 319//319
f 328//328 342//342 319//319
f 343//343 334//334 333//333
f 344//344 318//318 329//329
f 345//345 346//346 347//347
f 331//331 312//312 337//337
f 348//348 349//349 350//350
f 351//351 352//352 353//353
f 354//354 324//324 335//335
f 355//355 353//353 352//352
f 337//337 336//336 356//356
f 357//357 340//340 339//339
f 327//327 341//341 358//358
f 359//359 360//360 361//361
f 326//326 342//342 362//362
f 363//363 350//350 349//349
f 364//364 344//344 329//329
f 365//365 347//347 346//346
f 324//324 354//354 366//366
f 337//337 367//367 331//331
f 368//368 354//354 335//335
f 369//369 370//370 371//371
f 336//336 372//372 356//356
f 373//373 361//361 360//360
f 374//374 375//375 376//376
f 341//341 377//377 358//358
f 378//378 379//379 380//380
f 342//342 381//381 362//362
f 382//382 383//383 384//384
f 385//385 386//386 387//387
f 388//388 344//344 364//364
f 329//329 389//389 364//364
f 390//390 391//391 392//392
f 393//393 366//366 354//354
f 331//331 367//367 394//394
f 395//395 384//384 383//383
f 396//396 397//397 398//398
f 399//399 368//368 335//335
f 400//400 371//371 370//370
f 356//356 372//372 401//401
f 402//402 376//376 375//375
f 358//358 377//377 403//403
f 404//404 380//380 379//379
f 381//381 405//405 362//362
f 406//406 387//387 386//386
f 407//407 344//344 388//388
f 408//408 398//398 397//397
f 409//409 364//364 389//389
f 410//410 392//392 391//391
f 411//411 366//366 393//393
f 412//412 413//413 414//414
f 394//394 367//367 415//415
f 416//416 417//417 418//418
f 419//419 414//414 413//413
f 420//420 368//368 399//399
f 421//421 422//422 423//423
f 372//372 424//424 401//401
f 425//425 426//426 427//427
f 377//377 428//428 403//403
f 429//429 430//430 431//431
f 362//362 405//405 432//432
f 433//433 434//434 435//435
f 436//436 407//407 388//388
f 437//437 438//438 439//439
f 440//440 409//409 389//389
f 441//441 442//442 443//443
f 444//444 411//411 393//393
f 445//445 446//446 447//447
f 367//367 448//448 415//415
f 449//449 435//435 434//434
f 450//450 418//418 417//417
f 451//451 439//439 438//438
f 452//452 420//420 399//399
f 453//453 423//423 422//422
f 401//401 424//424 454//454
f 455//455 427//427 426//426
f 403//403 428//428 456//456
f 457//457 431//431 430//430
f 405//405 458//458 432//432
f 459//459 407//407 436//436
f 460//460 409//409 440//440
f 461//461 443//443 442//442
f 462//462 411//411 444//444
f 463//463 447//447 446//446
f 415//415 448//448 464//464
f 465//465 466//466 467//467
f 468//468 469//469 470//470
f 471//471 472//472 473//473
f 474//474 420//420 452//452
f 475//475 476//476 477//477
f 454//454 424//424 478//478
f 479//479 478//478 424//424
f 480//480 481//481 482//482
f 483//483 456//456 428//428
f 484//484 485//485 486//486
f 432//432 458//458 487//487
f 488//488 459//459 436//436
f 489//489 460//460 440//440
f 490//490 491//491 492//492
f 493//493 462//462 444//444
f 494//494 495//495 496//496
f 448//448 497//497 464//464
f 498//498 467//467 466//466
f 499//499 470//470 469//469
f 500//500 473//473 472//472
f 501//501 488//488 436//436
f 502//502 420//420 474//474
f 503//503 477//477 476//476
f 504//504 482//482 481//481
f 505//505 486//486 485//485
f 458//458 506//506 487//487
f 507//507 460//460 489//489
f 508//508 492//492 491//491
f 509//509 462//462 493//493
f 510//510 496//496 495//495
f 464//464 497//497 511//511
f 512//512 513//513 514//514
f 515//515 516//516 517//517
f 518//518 519//519 520//520
f 521//521 488//488 501//501
f 522//522 502//502 474//474
f 523//523 524//524 525//525
f 506//506 526//526 487//487
f 527//527 507//507 489//489
f 528//528 529//529 530//530
f 531//531 509//509 493//493
f 532//532 533//533 534//534
f 511//511 497//497 535//535
f 536//536 514//514 513//513
f 537//537 517//517 516//516
f 497//497 538//538 539//539
f 540//540 520//520 519//519
f 541//541 521//521 501//501
f 542//542 525//525 524//524
f 543//543 502//502 522//522
f 526//526 544//544 487//487
f 545//545 546//546 547//547
f 548//548 507//507 527//527
f 549//549 530//530 529//529
f 550//550 534//534 533//533
f 535//535 497//497 539//539
f 551//551 547//547 546//546
f 552//552 553//553 554//554
f 487//487 544//544 555//555
f 538//538 556//556 539//539
f 557//557 558//558 559//559
f 560//560 521//521 541//541
f 561//561 562//562 563//563
f 564//564 543//543 522//522
f 565//565 566//566 567//567
f 568//568 567//567 566//566
f 569//569 554//554 553//553
f 555//555 544//544 570//570
f 556//556 571//571 539//539
f 572//572 559//559 558//558
f 573//573 574//574 541//541
f 575//575 563//563 562//562
f 574//574 560//560 541//541
f 576//576 543//543 564//564
f 577//577 578//578 579//579
f 580//580 581//581 582//582
f 570//570 544//544 583//583
f 584//584 539//539 571//571
f 585//585 586//586 587//587
f 588//588 543//543 576//576
f 589//589 574//574 573//573
f 590//590 591//591 592//592
f 593//593 592//592 591//591
f 594//594 579//579 578//578
f 595//595 582//582 581//581
f 596//596 583//583 544//544
f 597//597 598//598 599//599
f 600//600 587//587 586//586
f 601//601 589//589 573//573
f 602//602 588//588 576//576
f 603//603 604//604 605//605
f 606//606 599//599 598//598
f 607//607 608//608 609//609
f 610//610 588//588 602//602
f 611//611 605//605 604//604
f 612//612 609//609 608//608
f 613//613 614//614 615//615
f 616//616 617//617 618//618
f 619//619 620//620 621//621
f 622//622 623//623 624//624
f 625//625 626//626 627//627
f 628//628 629//629 630//630
f 631//631 632//632 633//633
f 634//634 635//635 636//636
f 637//637 638//638 639//639
f 640//640 641//641 642//642
f 643//643 644//644 645//645
f 646//646 647//647 648//648
f 649//649 650//650 651//651
f 652//652 653//653 654//654
f 655//655 656//656 657//657
f 658//658 659//659 660//660
f 661//661 662//662 663//663
f 664//664 665//665 666//666
f 662//662 661//661 667//667
f 668//668 666//666 665//665
f 669//669 670//670 671//671
f 672//672 673//673 674//674
f 675//675 676//676 677//677
f 678//678 679//679 680//680
f 667//667 681//681 662//662
f 665//665 682//682 668//668
f 670//670 669//669 683//683
f 684//684 674//674 673//673
f 685//685 677//677 686//686
f 687//687 678//678 688//688
f 689//689 676//676 675//675
f 680//680 679//679 690//690
f 675//675 677//677 685//685
f 688//688 678//678 680//680
f 681//681 667//667 691//691
f 692//692 668//668 682//682
f 683//683 693//693 670//670
f 673//673 694//694 684//684
f 685//685 686//686 695//695
f 696//696 687//687 688//688
f 689//689 697//697 676//676
f 679//679 698//698 690//690
f 699//699 700//700 701//701
f 702//702 703//703 704//704
f 705//705 701//701 706//706
f 707//707 702//702 708//708
f 691//691 709//709 681//681
f 682//682 710//710 692//692
f 693//693 683//683 711//711
f 712//712 684//684 694//694
f 695//695 686//686 713//713
f 714//714 687//687 696//696
f 715//715 716//716 717//717
f 718//718 719//719 720//720
f 721//721 697//697 689//689
f 690//690 698//698 722//722
f 700//700 699//699 723//723
f 724//724 704//704 703//703
f 701//701 705//705 699//699
f 704//704 708//708 702//702
f 716//716 715//715 725//725
f 726//726 720//720 719//719
f 709//709 691//691 727//727
f 728//728 692//692 710//710
f 711//711 729//729 693//693
f 694//694 730//730 712//712
f 695//695 713//713 731//731
f 732//732 714//714 696//696
f 717//717 733//733 715//715
f 720//720 734//734 718//718
f 721//721 735//735 697//697
f 698//698 736//736 722//722
f 723//723 737//737 700//700
f 703//703 738//738 724//724
f 739//739 740//740 741//741
f 742//742 743//743 744//744
f 729//729 711//711 745//745
f 746//746 712//712 730//730
f 731//731 713//713 747//747
f 748//748 714//714 732//732
f 733//733 717//717 749//749
f 750//750 718//718 734//734
f 751//751 735//735 721//721
f 722//722 736//736 752//752
f 737//737 723//723 753//753
f 754//754 724//724 738//738
f 740//740 739//739 755//755
f 756//756 744//744 743//743
f 745//745 757//757 729//729
f 730//730 758//758 746//746
f 731//731 747//747 759//759
f 760//760 748//748 732//732
f 749//749 761//761 733//733
f 734//734 762//762 750//750
f 751//751 763//763 735//735
f 736//736 764//764 752//752
f 765//765 766//766 767//767
f 768//768 769//769 770//770
f 755//755 771//771 740//740
f 743//743 772//772 756//756
f 757//757 745//745 773//773
f 774//774 746//746 758//758
f 759//759 747//747 775//775
f 776//776 748//748 760//760
f 761//761 749//749 777//777
f 778//778 750//750 762//762
f 779//779 763//763 751//751
f 752//752 764//764 780//780
f 766//766 765//765 781//781
f 782//782 770//770 769//769
f 771//771 755//755 783//783
f 784//784 756//756 772//772
f 773//773 785//785 757//757
f 758//758 786//786 774//774
f 759//759 775//775 787//787
f 788//788 776//776 760//760
f 777//777 789//789 761//761
f 762//762 790//790 778//778
f 779//779 791//791 763//763
f 764//764 792//792 780//780
f 781//781 793//793 766//766
f 769//769 794//794 782//782
f 783//783 795//795 771//771
f 772//772 796//796 784//784
f 785//785 773//773 797//797
f 798//798 774//774 786//786
f 787//787 775//775 799//799
f 800//800 776//776 788//788
f 789//789 777//777 801//801
f 802//802 778//778 790//790
f 803//803 791//791 779//779
f 780//780 792//792 804//804
f 793//793 781//781 805//805
f 806//806 782//782 794//794
f 795//795 783//783 807//807
f 808//808 784//784 796//796
f 809//809 785//785 797//797
f 798//798 786//786 810//810
f 787//787 799//799 811//811
f 812//812 800//800 788//788
f 801//801 813//813 789//789
f 790//790 814//814 802//802
f 803//803 815//815 791//791
f 792//792 816//816 804//804
f 805//805 817//817 793//793
f 794//794 818//818 806//806
f 807//807 819//819 795//795
f 796//796 820//820 808//808
f 785//785 809//809 821//821
f 822//822 810//810 786//786
f 811//811 799//799 823//823
f 824//824 800//800 812//812
f 813//813 801//801 825//825
f 826//826 802//802 814//814
f 827//827 815//815 803//803
f 804//804 816//816 828//828
f 817//817 805//805 829//829
f 830//830 806//806 818//818
f 819//819 807//807 831//831
f 832//832 808//808 820//820
f 833//833 821//821 809//809
f 810//810 822//822 834//834
f 811//811 823//823 835//835
f 836//836 824//824 812//812
f 837//837 813//813 825//825
f 826//826 814//814 838//838
f 827//827 839//839 815//815
f 816//816 840//840 828//828
f 829//829 841//841 817//817
f 818//818 842//842 830//830
f 831//831 843//843 819//819
f 820//820 844//844 832//832
f 821//821 833//833 845//845
f 846//846 834//834 822//822
f 835//835 823//823 847//847
f 848//848 824//824 836//836
f 813//813 837//837 849//849
f 850//850 838//838 814//814
f 851//851 839//839 827//827
f 828//828 840//840 852//852
f 841//841 829//829 853//853
f 854//854 830//830 842//842
f 843//843 831//831 855//855
f 856//856 832//832 844//844
f 857//857 845//845 833//833
f 834//834 846//846 858//858
f 835//835 847//847 859//859
f 860//860 848//848 836//836
f 861//861 849//849 837//837
f 838//838 850//850 862//862
f 851//851 863//863 839//839
f 840//840 864//864 852//852
f 853//853 865//865 841//841
f 842//842 866//866 854//854
f 867//867 843//843 855//855
f 856//856 844//844 868//868
f 845//845 857//857 869//869
f 870//870 858//858 846//846
f 859//859 847//847 871//871
f 872//872 848//848 860//860
f 849//849 861//861 873//873
f 874//874 862//862 850//850
f 875//875 863//863 851//851
f 852//852 864//864 876//876
f 865//865 853//853 877//877
f 878//878 854//854 866//866
f 843//843 867//867 879//879
f 880//880 868//868 844//844
f 875//875 881//881 863//863
f 864//864 882//882 876//876
f 883//883 869//869 857//857
f 858//858 870//870 884//884
f 859//859 871//871 885//885
f 886//886 872//872 860//860
f 887//887 873//873 861//861
f 862//862 874//874 888//888
f 865//865 889//889 890//890
f 891//891 892//892 866//866
f 889//889 865//865 877//877
f 878//878 866//866 892//892
f 893//893 879//879 867//867
f 868//868 880//880 894//894
f 895//895 881//881 875//875
f 876//876 882//882 896//896
f 869//869 883//883 897//897
f 898//898 884//884 870//870
f 885//885 871//871 899//899
f 900//900 872//872 886//886
f 873//873 887//887 901//901
f 902//902 888//888 874//874
f 903//903 890//890 889//889
f 892//892 891//891 904//904
f 879//879 893//893 905//905
f 906//906 894//894 880//880
f 895//895 907//907 881//881
f 882//882 908//908 896//896
f 890//890 903//903 909//909
f 910//910 904//904 891//891
f 911//911 897//897 883//883
f 884//884 898//898 912//912
f 885//885 899//899 913//913
f 914//914 900//900 886//886
f 915//915 901//901 887//887
f 888//888 902//902 916//916
f 917//917 905//905 893//893
f 894//894 906//906 918//918
f 919//919 907//907 895//895
f 896//896 908//908 920//920
f 921//921 909//909 903//903
f 904//904 910//910 922//922
f 897//897 911//911 923//923
f 924//924 912//912 898//898
f 913//913 899//899 925//925
f 926//926 900//900 914//914
f 901//901 915//915 927//927
f 928//928 916//916 902//902
f 905//905 917//917 929//929
f 930//930 918//918 906//906
f 919//919 931//931 907//907
f 908//908 932//932 920//920
f 909//909 921//921 933//933
f 934//934 922//922 910//910
f 935//935 936//936 937//937
f 938//938 939//939 940//940
f 913//913 925//925 941//941
f 942//942 926//926 914//914
f 943//943 927//927 915//915
f 916//916 928//928 944//944
f 945//945 929//929 917//917
f 918//918 930//930 946//946
f 947//947 931//931 919//919
f 920//920 932//932 948//948
f 949//949 933//933 921//921
f 922//922 934//934 950//950
f 936//936 935//935 951//951
f 952//952 940//940 939//939
f 941//941 925//925 953//953
f 954//954 926//926 942//942
f 927//927 943//943 955//955
f 956//956 944//944 928//928
f 929//929 945//945 957//957
f 958//958 946//946 930//930
f 947//947 959//959 931//931
f 932//932 960//960 948//948
f 933//933 949//949 961//961
f 962//962 950//950 934//934
f 963//963 951//951 935//935
f 940//940 952//952 964//964
f 941//941 953//953 965//965
f 966//966 954//954 942//942
f 967//967 968//968 969//969
f 970//970 971//971 972//972
f 973//973 957//957 945//945
f 946//946 958//958 974//974
f 975//975 959//959 947//947
f 948//948 960//960 976//976
f 977//977 961//961 949//949
f 950//950 962//962 978//978
f 951//951 963//963 967//967
f 972//972 964//964 952//952
f 968//968 967//967 963//963
f 964//964 972//972 971//971
f 957//957 973//973 979//979
f 980//980 974//974 958//958
f 959//959 981//981 982//982
f 983//983 984//984 960//960
f 985//985 959//959 975//975
f 976//976 960//960 986//986
f 961//961 977//977 987//987
f 988//988 978//978 962//962
f 989//989 990//990 991//991
f 992//992 993//993 994//994
f 981//981 959//959 985//985
f 986//986 960//960 984//984
f 995//995 996//996 997//997
f 998//998 999//999 1000//1000
f 996//996 995//995 1001//1001
f 1002//1002 1000//1000 999//999
f 990//990 989//989 1003//1003
f 1004//1004 994//994 993//993
f 997//997 1003//1003 989//989
f 994//994 1004//1004 998//998
f 1003//1003 997//997 996//996
f 999//999 998//998 1004//1004
