# Created by Open3D 
# object name: 3319a9b24416ecea7ff6ace05b36a5
# number of vertices: 776
# number of triangles: 668
v -0.254628 -0.233085 -0.3
vn 5.56539e-17 -3.40782e-33 -0.742492
v -0.210493 -0.247653 -0.3
vn 5.56539e-17 -3.40782e-33 -0.742492
v -0.254628 -0.247653 -0.3
vn 5.56539e-17 -3.40782e-33 -0.742492
v -0.210493 -0.233085 -0.3
vn 5.56539e-17 -3.40782e-33 -0.742492
v -0.210493 -0.247653 -0.3
vn -1.72541e-16 -1 -5.5678e-33
v -0.254628 -0.247653 0.166047
vn -1.72541e-16 -1 -5.5678e-33
v -0.254628 -0.247653 -0.3
vn -1.72541e-16 -1 -5.5678e-33
v -0.254628 -0.247653 0.166047
vn -0.908899 1.78119e-16 -4.54645e-17
v -0.254628 -0.233085 -0.3
vn -0.908899 1.78119e-16 -4.54645e-17
v -0.254628 -0.247653 -0.3
vn -0.908899 1.78119e-16 -4.54645e-17
v -0.254628 -0.233085 -0.3
vn 1.72541e-16 1 5.5678e-33
v -0.210493 -0.233085 -0.0627996
vn 1.72541e-16 1 5.5678e-33
v -0.210493 -0.233085 -0.3
vn 1.72541e-16 1 5.5678e-33
v -0.210493 -0.233085 -0.0627996
vn 0.908899 -1.78119e-16 4.54645e-17
v -0.210493 -0.247653 -0.3
vn 0.908899 -1.78119e-16 4.54645e-17
v -0.210493 -0.233085 -0.3
vn 0.908899 -1.78119e-16 4.54645e-17
v -0.210493 -0.247653 -0.0878565
vn -1.72541e-16 -1 -5.5678e-33
v -0.254628 -0.233085 -0.0694821
vn -0.908899 1.78119e-16 -4.54645e-17
v -0.254628 -0.233085 -0.0694821
vn 1.72541e-16 1 5.5678e-33
v -0.210493 -0.247653 -0.0878565
vn 0.908899 -1.78119e-16 4.54645e-17
v -0.210493 -0.247653 -0.0627996
vn -1.72541e-16 -1 -5.5678e-33
v -0.254628 -0.233085 0.156024
vn -0.908899 1.78119e-16 -4.54645e-17
v -0.210493 -0.247653 -0.0627996
vn 0.908899 -1.78119e-16 4.54645e-17
v -0.210493 -0.247653 0.13598
vn -1.72541e-16 -1 -5.5678e-33
v -0.197252 -0.247653 -0.0878565
vn -1.72541e-16 -1 -5.5678e-33
v -0.210493 -0.247653 -0.0627996
vn -0.908899 1.78119e-16 -4.54645e-17
v -0.210493 0.247654 -0.0878565
vn -0.908899 1.78119e-16 -4.54645e-17
v -0.210493 -0.247653 -0.0878565
vn -0.908899 1.78119e-16 -4.54645e-17
v -0.254628 -0.233085 0.166047
vn -0.908899 1.78119e-16 -4.54645e-17
v -0.210493 -0.233085 0.13598
vn 0.908899 -1.78119e-16 4.54645e-17
v -0.210493 -0.247653 0.166047
vn -1.72541e-16 -1 -5.5678e-33
v -0.210493 -0.247653 0.13598
vn 0.908899 -1.78119e-16 4.54645e-17
v -0.197252 -0.247653 -0.0627996
vn -1.72541e-16 -1 -5.5678e-33
v -0.210493 0.247654 -0.0878565
vn 5.56539e-17 -3.40782e-33 -0.742492
v -0.197252 -0.247653 -0.0878565
vn 5.56539e-17 -3.40782e-33 -0.742492
v -0.210493 -0.247653 -0.0878565
vn 5.56539e-17 -3.40782e-33 -0.742492
v -0.210493 0.247654 -0.0627996
vn -0.908899 1.78119e-16 -4.54645e-17
v -0.254628 -0.271933 0.18108
vn -0.908899 1.78119e-16 -4.54645e-17
v -0.254628 -0.233085 0.166047
vn 0.908899 -1.78119e-16 4.54645e-17
v -0.254628 -0.271933 0.18108
vn 0.908899 -1.78119e-16 4.54645e-17
v -0.254628 -0.247653 0.166047
vn 0.908899 -1.78119e-16 4.54645e-17
v 0.230864 -0.233085 0.13598
vn 5.56539e-17 -3.40782e-33 -0.742492
v -0.210493 -0.240373 0.13598
vn 5.56539e-17 -3.40782e-33 -0.742492
v -0.210493 -0.233085 0.13598
vn 5.56539e-17 -3.40782e-33 -0.742492
v 0.230864 -0.247653 0.13598
vn -1.72541e-16 -1 -5.5678e-33
v 0.275 -0.247653 0.166047
vn 5.56539e-17 -3.40782e-33 -0.742492
v -0.254628 -0.247653 0.166047
vn 5.56539e-17 -3.40782e-33 -0.742492
v -0.210493 -0.247653 0.166047
vn 5.56539e-17 -3.40782e-33 -0.742492
v -0.210493 -0.247653 0.166047
vn -5.56539e-17 3.40782e-33 0.742492
v -0.254628 -0.247653 0.166047
vn -5.56539e-17 3.40782e-33 0.742492
v 0.275 -0.247653 0.166047
vn -5.56539e-17 3.40782e-33 0.742492
v -0.210493 -0.240373 0.13598
vn 0.908899 -1.78119e-16 4.54645e-17
v -0.197252 -0.247653 -0.0878565
vn 0.908899 -1.78119e-16 4.54645e-17
v -0.197252 0.247654 -0.0627996
vn 0.908899 -1.78119e-16 4.54645e-17
v -0.197252 -0.247653 -0.0627996
vn 0.908899 -1.78119e-16 4.54645e-17
v -0.197252 0.247654 -0.0627996
vn -5.56539e-17 3.40782e-33 0.742492
v -0.210493 -0.247653 -0.0627996
vn -5.56539e-17 3.40782e-33 0.742492
v -0.197252 -0.247653 -0.0627996
vn -5.56539e-17 3.40782e-33 0.742492
v -0.197252 0.247654 -0.0878565
vn 5.56539e-17 -3.40782e-33 -0.742492
v -0.210493 0.247654 -0.0627996
vn -5.56539e-17 3.40782e-33 0.742492
v -0.210493 0.247654 -0.0878565
vn 1.72541e-16 1 5.5678e-33
v -0.254628 0.247654 -0.3
vn 1.72541e-16 1 5.5678e-33
v -0.210493 0.247654 -0.0627996
vn 1.72541e-16 1 5.5678e-33
v -0.197252 0.247654 -0.0627996
vn 1.72541e-16 1 5.5678e-33
v -0.254628 -0.271933 0.166047
vn -0.908899 1.78119e-16 -4.54645e-17
v -0.254628 -0.271933 0.166047
vn 0.908899 -1.78119e-16 4.54645e-17
v -0.254628 -0.223373 0.166047
vn -0.908899 1.78119e-16 -4.54645e-17
v -0.254628 -0.223373 0.166047
vn 0.908899 -1.78119e-16 4.54645e-17
v -0.254628 -0.233085 0.166047
vn -5.56539e-17 3.40782e-33 0.742492
v -0.210493 -0.233085 0.166047
vn -5.56539e-17 3.40782e-33 0.742492
v -0.254628 -0.223373 0.166047
vn -5.56539e-17 3.40782e-33 0.742492
v 0.275 -0.233085 0.0106982
vn 1.72541e-16 1 5.5678e-33
v 0.230864 -0.233085 -0.3
vn 1.72541e-16 1 5.5678e-33
v 0.230864 -0.233085 0.00401577
vn 1.72541e-16 1 5.5678e-33
v 0.230864 -0.233085 0.00401577
vn -0.908899 1.78119e-16 -4.54645e-17
v 0.230864 -0.247653 0.13598
vn -0.908899 1.78119e-16 -4.54645e-17
v 0.230864 -0.233085 0.13598
vn -0.908899 1.78119e-16 -4.54645e-17
v 0.230864 -0.247653 0.13598
vn 5.56539e-17 -3.40782e-33 -0.742492
v 0.230864 -0.247653 0.166047
vn -1.72541e-16 -1 -5.5678e-33
v -0.210493 -0.247653 0.13598
vn 5.56539e-17 -3.40782e-33 -0.742492
v 0.275 -0.271933 0.166047
vn 5.56539e-17 -3.40782e-33 -0.742492
v 0.275 -0.271933 0.166047
vn -5.56539e-17 3.40782e-33 0.742492
v -0.197252 0.247654 -0.0878565
vn 0.908899 -1.78119e-16 4.54645e-17
v -0.197252 0.247654 -0.0878565
vn 1.72541e-16 1 5.5678e-33
v -0.210493 0.247654 -0.3
vn 1.72541e-16 1 5.5678e-33
v -0.210493 0.247654 0.166047
vn 1.72541e-16 1 5.5678e-33
v -0.210493 0.233086 -0.3
vn 0.908899 -1.78119e-16 4.54645e-17
v -0.210493 0.247654 -0.0878565
vn 0.908899 -1.78119e-16 4.54645e-17
v -0.210493 0.233086 -0.0878565
vn 0.908899 -1.78119e-16 4.54645e-17
v -0.254628 -0.271933 0.166047
vn 5.56539e-17 -3.40782e-33 -0.742492
v -0.254628 -0.271933 0.166047
vn -5.56539e-17 3.40782e-33 0.742492
v 0.275 -0.271933 0.166047
vn -1.72541e-16 -1 -5.5678e-33
v -0.254628 -0.271933 0.18108
vn -1.72541e-16 -1 -5.5678e-33
v -0.254628 -0.271933 0.166047
vn -1.72541e-16 -1 -5.5678e-33
v -0.254628 -0.271933 0.166047
vn 1.72541e-16 1 5.5678e-33
v -0.254628 -0.271933 0.18108
vn 1.72541e-16 1 5.5678e-33
v 0.275 -0.271933 0.166047
vn 1.72541e-16 1 5.5678e-33
v -0.254628 -0.223373 0.18108
vn -0.908899 1.78119e-16 -4.54645e-17
v -0.254628 -0.223373 0.18108
vn 0.908899 -1.78119e-16 4.54645e-17
v -0.254628 0.247654 0.166047
vn -0.908899 1.78119e-16 -4.54645e-17
v -0.254628 0.233086 -0.0694821
vn -0.908899 1.78119e-16 -4.54645e-17
v -0.254628 0.233086 0.166047
vn -0.908899 1.78119e-16 -4.54645e-17
v 0.275 -0.233085 0.166047
vn -5.56539e-17 3.40782e-33 0.742492
v 0.275 -0.233085 -0.3
vn 1.72541e-16 1 5.5678e-33
v 0.230864 -0.233085 -0.3
vn -0.908899 1.78119e-16 -4.54645e-17
v 0.230864 -0.247653 -0.0280562
vn -0.908899 1.78119e-16 -4.54645e-17
v 0.275 -0.247653 0.166047
vn 0.908899 -1.78119e-16 4.54645e-17
v 0.275 -0.233085 0.0106982
vn 0.908899 -1.78119e-16 4.54645e-17
v 0.275 -0.233085 0.166047
vn 0.908899 -1.78119e-16 4.54645e-17
v 0.230864 -0.247653 0.00201177
vn -0.908899 1.78119e-16 -4.54645e-17
v 0.230864 -0.247653 -0.3
vn -1.72541e-16 -1 -5.5678e-33
v 0.275 -0.271933 0.166047
vn -0.908899 1.78119e-16 -4.54645e-17
v 0.275 -0.223373 0.18108
vn -0.908899 1.78119e-16 -4.54645e-17
v 0.275 -0.247653 0.166047
vn -0.908899 1.78119e-16 -4.54645e-17
v -0.210493 0.247654 -0.3
vn 0.908899 -1.78119e-16 4.54645e-17
v -0.210493 0.233086 -0.3
vn 5.56539e-17 -3.40782e-33 -0.742492
v -0.254628 0.247654 -0.3
vn 5.56539e-17 -3.40782e-33 -0.742492
v -0.210493 0.247654 -0.3
vn 5.56539e-17 -3.40782e-33 -0.742492
v -0.254628 0.247654 0.166047
vn 1.72541e-16 1 5.5678e-33
v -0.210493 0.247654 0.166047
vn 0.908899 -1.78119e-16 4.54645e-17
v -0.210493 0.233086 -0.0627996
vn 0.908899 -1.78119e-16 4.54645e-17
v -0.210493 0.247654 -0.0627996
vn 0.908899 -1.78119e-16 4.54645e-17
v -0.254628 0.233086 -0.0694821
vn -1.72541e-16 -1 -5.5678e-33
v -0.210493 0.233086 -0.0878565
vn -1.72541e-16 -1 -5.5678e-33
v -0.210493 0.233086 -0.0627996
vn -1.72541e-16 -1 -5.5678e-33
v -0.210493 0.233086 -0.3
vn -1.72541e-16 -1 -5.5678e-33
v 0.275 -0.271933 0.18108
vn -1.72541e-16 -1 -5.5678e-33
v 0.275 -0.271933 0.18108
vn 1.72541e-16 1 5.5678e-33
v -0.254628 -0.271933 0.18108
vn -5.56539e-17 3.40782e-33 0.742492
v 0.275 -0.223373 0.18108
vn -5.56539e-17 3.40782e-33 0.742492
v -0.254628 -0.223373 0.18108
vn -5.56539e-17 3.40782e-33 0.742492
v -0.254628 -0.223373 0.18108
vn 5.56539e-17 -3.40782e-33 -0.742492
v 0.275 -0.223373 0.18108
vn 5.56539e-17 -3.40782e-33 -0.742492
v -0.254628 -0.271933 0.18108
vn 5.56539e-17 -3.40782e-33 -0.742492
v 0.275 -0.223373 0.166047
vn -5.56539e-17 3.40782e-33 0.742492
v -0.245801 -0.223373 0.166047
vn -5.56539e-17 3.40782e-33 0.742492
v -0.254628 0.247654 -0.3
vn -0.908899 1.78119e-16 -4.54645e-17
v -0.254628 0.223374 0.18108
vn -0.908899 1.78119e-16 -4.54645e-17
v -0.254628 0.223374 0.166047
vn -0.908899 1.78119e-16 -4.54645e-17
v 0.275 -0.247653 -0.3
vn 0.908899 -1.78119e-16 4.54645e-17
v 0.275 -0.233085 -0.3
vn 0.908899 -1.78119e-16 4.54645e-17
v 0.275 -0.247653 -0.3
vn 5.56539e-17 -3.40782e-33 -0.742492
v 0.230864 -0.233085 -0.3
vn 5.56539e-17 -3.40782e-33 -0.742492
v 0.275 -0.233085 -0.3
vn 5.56539e-17 -3.40782e-33 -0.742492
v 0.230864 -0.247653 -0.3
vn -0.908899 1.78119e-16 -4.54645e-17
v 0.275 -0.247653 -0.0143587
vn 0.908899 -1.78119e-16 4.54645e-17
v 0.275 -0.233085 0.166047
vn -0.908899 1.78119e-16 -4.54645e-17
v 0.230864 -0.247653 0.00201177
vn -1.72541e-16 -1 -5.5678e-33
v 0.275 -0.223373 0.166047
vn -0.908899 1.78119e-16 -4.54645e-17
v 0.275 -0.247653 -0.3
vn -1.72541e-16 -1 -5.5678e-33
v 0.275 -0.271933 0.18108
vn -0.908899 1.78119e-16 -4.54645e-17
v -0.254628 0.233086 -0.3
vn 5.56539e-17 -3.40782e-33 -0.742492
v -0.210493 0.233086 0.166047
vn 0.908899 -1.78119e-16 4.54645e-17
v -0.254628 0.233086 -0.3
vn -1.72541e-16 -1 -5.5678e-33
v 0.275 -0.271933 0.18108
vn -5.56539e-17 3.40782e-33 0.742492
v 0.275 -0.271933 0.18108
vn 5.56539e-17 -3.40782e-33 -0.742492
v -0.240415 -0.223373 0.18108
vn -5.56539e-17 3.40782e-33 0.742492
v -0.240415 -0.223373 0.18108
vn 5.56539e-17 -3.40782e-33 -0.742492
v -0.24945 -0.223373 0.18108
vn -5.56539e-17 3.40782e-33 0.742492
v -0.24945 -0.223373 0.18108
vn 5.56539e-17 -3.40782e-33 -0.742492
v -0.236187 -0.223373 0.166047
vn -5.56539e-17 3.40782e-33 0.742492
v -0.23673 -0.223373 0.166047
vn -5.56539e-17 3.40782e-33 0.742492
v -0.244528 -0.223373 0.166047
vn -5.56539e-17 3.40782e-33 0.742492
v -0.254628 0.233086 -0.3
vn -0.908899 1.78119e-16 -4.54645e-17
v -0.254628 0.271933 0.166047
vn -0.908899 1.78119e-16 -4.54645e-17
v -0.245801 0.223374 0.166047
vn -1.72541e-16 -1 -5.5678e-33
v -0.254628 0.223374 0.18108
vn -1.72541e-16 -1 -5.5678e-33
v -0.254628 0.223374 0.166047
vn -1.72541e-16 -1 -5.5678e-33
v 0.230864 -0.247653 -0.3
vn 5.56539e-17 -3.40782e-33 -0.742492
v 0.230864 -0.247653 -0.0280562
vn -1.72541e-16 -1 -5.5678e-33
v 0.217623 -0.247653 0.00201177
vn -1.72541e-16 -1 -5.5678e-33
v 0.230864 -0.247653 -0.0280562
vn 0.908899 -1.78119e-16 4.54645e-17
v 0.230864 0.247654 0.00201177
vn 0.908899 -1.78119e-16 4.54645e-17
v 0.230864 -0.247653 0.00201177
vn 0.908899 -1.78119e-16 4.54645e-17
v 0.275 -0.247653 -0.0143587
vn -1.72541e-16 -1 -5.5678e-33
v 0.275 -0.247653 0.166047
vn -1.72541e-16 -1 -5.5678e-33
v -0.210493 0.247654 0.166047
vn 5.56539e-17 -3.40782e-33 -0.742492
v 0.230864 0.233086 0.166047
vn 5.56539e-17 -3.40782e-33 -0.742492
v -0.210493 0.233086 0.166047
vn 5.56539e-17 -3.40782e-33 -0.742492
v -0.254628 0.271933 0.18108
vn -0.908899 1.78119e-16 -4.54645e-17
v -0.244528 0.223374 0.166047
vn -1.72541e-16 -1 -5.5678e-33
v 0.217623 -0.247653 -0.0280562
vn -1.72541e-16 -1 -5.5678e-33
v 0.230864 0.247654 0.00201177
vn -5.56539e-17 3.40782e-33 0.742492
v 0.217623 -0.247653 0.00201177
vn -5.56539e-17 3.40782e-33 0.742492
v 0.230864 -0.247653 0.00201177
vn -5.56539e-17 3.40782e-33 0.742492
v 0.230864 0.247654 -0.0280562
vn 0.908899 -1.78119e-16 4.54645e-17
v 0.230864 0.247654 0.166047
vn 5.56539e-17 -3.40782e-33 -0.742492
v -0.254628 0.223374 0.18108
vn -5.56539e-17 3.40782e-33 0.742492
v 0.275 0.271933 0.18108
vn -5.56539e-17 3.40782e-33 0.742492
v -0.254628 0.271933 0.18108
vn -5.56539e-17 3.40782e-33 0.742492
v 0.275 0.271933 0.18108
vn 1.72541e-16 1 5.5678e-33
v -0.254628 0.271933 0.166047
vn 1.72541e-16 1 5.5678e-33
v -0.254628 0.271933 0.18108
vn 1.72541e-16 1 5.5678e-33
v -0.23728 0.223374 0.168315
vn -1.72541e-16 -1 -5.5678e-33
v -0.23673 0.223374 0.166047
vn -1.72541e-16 -1 -5.5678e-33
v -0.240762 0.223374 0.18108
vn -1.72541e-16 -1 -5.5678e-33
v 0.230864 0.233086 0.166047
vn -1.72541e-16 -1 -5.5678e-33
v 0.275 0.233086 0.0207204
vn -1.72541e-16 -1 -5.5678e-33
v 0.275 0.233086 0.166047
vn -1.72541e-16 -1 -5.5678e-33
v 0.275 0.233086 0.166047
vn 1.72541e-16 1 5.5678e-33
v 0.275 0.233086 0.0207204
vn 1.72541e-16 1 5.5678e-33
v 0.230864 0.233086 0.166047
vn 1.72541e-16 1 5.5678e-33
v 0.275 0.233086 0.0207204
vn 0.908899 -1.78119e-16 4.54645e-17
v 0.275 0.247654 0.166047
vn 0.908899 -1.78119e-16 4.54645e-17
v 0.275 0.233086 0.166047
vn 0.908899 -1.78119e-16 4.54645e-17
v 0.217623 -0.247653 0.00201177
vn -0.908899 1.78119e-16 -4.54645e-17
v 0.217623 0.247654 -0.0280562
vn -0.908899 1.78119e-16 -4.54645e-17
v 0.217623 -0.247653 -0.0280562
vn -0.908899 1.78119e-16 -4.54645e-17
v 0.217623 0.247654 -0.0280562
vn 5.56539e-17 -3.40782e-33 -0.742492
v 0.230864 -0.247653 -0.0280562
vn 5.56539e-17 -3.40782e-33 -0.742492
v 0.217623 -0.247653 -0.0280562
vn 5.56539e-17 -3.40782e-33 -0.742492
v 0.217623 0.247654 0.00201177
vn -5.56539e-17 3.40782e-33 0.742492
v 0.230864 0.247654 -0.0280562
vn 5.56539e-17 -3.40782e-33 -0.742492
v 0.217623 0.247654 -0.0280562
vn 1.72541e-16 1 5.5678e-33
v 0.230864 0.247654 0.00201177
vn 1.72541e-16 1 5.5678e-33
v 0.230864 0.247654 -0.0280562
vn 1.72541e-16 1 5.5678e-33
v 0.230864 0.247654 -0.3
vn -0.908899 1.78119e-16 -4.54645e-17
v 0.230864 0.233086 0.166047
vn -0.908899 1.78119e-16 -4.54645e-17
v 0.230864 0.247654 0.166047
vn -0.908899 1.78119e-16 -4.54645e-17
v 0.275 0.247654 0.166047
vn 1.72541e-16 1 5.5678e-33
v 0.230864 0.247654 -0.3
vn 1.72541e-16 1 5.5678e-33
v 0.230864 0.247654 0.166047
vn 1.72541e-16 1 5.5678e-33
v 0.275 0.271933 0.18108
vn 0.908899 -1.78119e-16 4.54645e-17
v 0.275 0.223374 0.166047
vn 0.908899 -1.78119e-16 4.54645e-17
v -0.240762 0.223374 0.18108
vn -5.56539e-17 3.40782e-33 0.742492
v 0.275 0.271933 0.166047
vn 1.72541e-16 1 5.5678e-33
v 0.275 0.233086 -0.3
vn -1.72541e-16 -1 -5.5678e-33
v 0.275 0.233086 -0.3
vn 1.72541e-16 1 5.5678e-33
v 0.275 0.233086 -0.3
vn 0.908899 -1.78119e-16 4.54645e-17
v 0.217623 0.247654 0.00201177
vn -0.908899 1.78119e-16 -4.54645e-17
v 0.217623 0.247654 0.00201177
vn 1.72541e-16 1 5.5678e-33
v 0.230864 0.233086 -0.3
vn -0.908899 1.78119e-16 -4.54645e-17
v 0.275 0.271933 0.166047
vn 0.908899 -1.78119e-16 4.54645e-17
v 0.275 0.247654 -0.3
vn 1.72541e-16 1 5.5678e-33
v -0.24945 0.223374 0.18108
vn -1.72541e-16 -1 -5.5678e-33
v -0.266249 0.223374 0.286317
vn -1.72541e-16 -1 -5.5678e-33
v -0.275 0.223374 0.286317
vn -1.72541e-16 -1 -5.5678e-33
v -0.236187 0.223374 0.166047
vn -1.72541e-16 -1 -5.5678e-33
v 0.275 0.223374 0.166047
vn -1.72541e-16 -1 -5.5678e-33
v -0.193728 0.223374 0.17973
vn -1.72541e-16 -1 -5.5678e-33
v 0.275 0.223374 0.18108
vn 0.908899 -1.78119e-16 4.54645e-17
v -0.194067 0.223374 0.18108
vn -5.56539e-17 3.40782e-33 0.742492
v 0.230864 0.233086 -0.3
vn -1.72541e-16 -1 -5.5678e-33
v 0.230864 0.233086 -0.3
vn 1.72541e-16 1 5.5678e-33
v 0.275 0.247654 -0.3
vn 0.908899 -1.78119e-16 4.54645e-17
v 0.230864 0.247654 -0.3
vn 5.56539e-17 -3.40782e-33 -0.742492
v 0.275 0.233086 -0.3
vn 5.56539e-17 -3.40782e-33 -0.742492
v 0.230864 0.233086 -0.3
vn 5.56539e-17 -3.40782e-33 -0.742492
v 0.275 0.247654 -0.3
vn 5.56539e-17 -3.40782e-33 -0.742492
v -0.194067 0.223374 0.18108
vn -1.72541e-16 -1 -5.5678e-33
v 0.275 0.223374 0.18108
vn -5.56539e-17 3.40782e-33 0.742492
v 0.275 0.223374 0.18108
vn -1.72541e-16 -1 -5.5678e-33
v -0.254628 -0.247653 -0.3
vn -5.56539e-17 3.40782e-33 0.742492
v -0.210493 -0.247653 -0.3
vn -5.56539e-17 3.40782e-33 0.742492
v -0.254628 -0.233085 -0.3
vn -5.56539e-17 3.40782e-33 0.742492
v -0.210493 -0.233085 -0.3
vn -5.56539e-17 3.40782e-33 0.742492
v -0.254628 -0.247653 -0.3
vn 1.72541e-16 1 5.5678e-33
v -0.254628 -0.247653 0.166047
vn 1.72541e-16 1 5.5678e-33
v -0.210493 -0.247653 -0.3
vn 1.72541e-16 1 5.5678e-33
v -0.254628 -0.247653 -0.3
vn 0.908899 -1.78119e-16 4.54645e-17
v -0.254628 -0.233085 -0.3
vn 0.908899 -1.78119e-16 4.54645e-17
v -0.210493 -0.233085 -0.3
vn -0.908899 1.78119e-16 -4.54645e-17
v -0.210493 -0.247653 -0.3
vn -0.908899 1.78119e-16 -4.54645e-17
v -0.210493 -0.233085 -0.0627996
vn -0.908899 1.78119e-16 -4.54645e-17
v -0.210493 -0.247653 -0.0878565
vn 1.72541e-16 1 5.5678e-33
v -0.254628 -0.233085 -0.0694821
vn 0.908899 -1.78119e-16 4.54645e-17
v -0.210493 -0.247653 -0.0627996
vn 1.72541e-16 1 5.5678e-33
v -0.254628 -0.233085 0.156024
vn 0.908899 -1.78119e-16 4.54645e-17
v -0.210493 -0.247653 0.13598
vn 1.72541e-16 1 5.5678e-33
v -0.197252 -0.247653 -0.0878565
vn 1.72541e-16 1 5.5678e-33
v -0.254628 -0.223373 -0.0694821
vn 0.908899 -1.78119e-16 4.54645e-17
v -0.210493 -0.233085 0.13598
vn -0.908899 1.78119e-16 -4.54645e-17
v 0.230864 -0.233085 0.13598
vn 1.72541e-16 1 5.5678e-33
v -0.210493 -0.233085 0.13598
vn 1.72541e-16 1 5.5678e-33
v -0.210493 -0.247653 0.166047
vn 1.72541e-16 1 5.5678e-33
v -0.210493 -0.247653 0.13598
vn -0.908899 1.78119e-16 -4.54645e-17
v -0.197252 -0.247653 -0.0627996
vn 1.72541e-16 1 5.5678e-33
v -0.210493 -0.247653 -0.0878565
vn -5.56539e-17 3.40782e-33 0.742492
v -0.197252 -0.247653 -0.0878565
vn -5.56539e-17 3.40782e-33 0.742492
v -0.210493 0.247654 -0.0878565
vn -5.56539e-17 3.40782e-33 0.742492
v -0.254628 -0.233085 0.166047
vn 5.56539e-17 -3.40782e-33 -0.742492
v -0.254628 0.233086 0.166047
vn 0.908899 -1.78119e-16 4.54645e-17
v -0.254628 0.233086 -0.0694821
vn 0.908899 -1.78119e-16 4.54645e-17
v -0.210493 -0.233085 0.13598
vn -5.56539e-17 3.40782e-33 0.742492
v -0.210493 -0.240373 0.13598
vn -5.56539e-17 3.40782e-33 0.742492
v 0.230864 -0.233085 0.13598
vn -5.56539e-17 3.40782e-33 0.742492
v 0.230864 -0.247653 0.13598
vn 1.72541e-16 1 5.5678e-33
v -0.210493 -0.240373 0.13598
vn -0.908899 1.78119e-16 -4.54645e-17
v -0.197252 -0.247653 -0.0627996
vn -0.908899 1.78119e-16 -4.54645e-17
v -0.197252 0.247654 -0.0627996
vn -0.908899 1.78119e-16 -4.54645e-17
v -0.197252 -0.247653 -0.0878565
vn -0.908899 1.78119e-16 -4.54645e-17
v -0.197252 -0.247653 -0.0627996
vn 5.56539e-17 -3.40782e-33 -0.742492
v -0.210493 -0.247653 -0.0627996
vn 5.56539e-17 -3.40782e-33 -0.742492
v -0.197252 0.247654 -0.0627996
vn 5.56539e-17 -3.40782e-33 -0.742492
v -0.197252 0.247654 -0.0878565
vn -5.56539e-17 3.40782e-33 0.742492
v -0.210493 0.247654 -0.0627996
vn 5.56539e-17 -3.40782e-33 -0.742492
v -0.210493 0.247654 -0.0627996
vn -1.72541e-16 -1 -5.5678e-33
v -0.254628 0.247654 -0.3
vn -1.72541e-16 -1 -5.5678e-33
v -0.210493 0.247654 -0.0878565
vn -1.72541e-16 -1 -5.5678e-33
v -0.210493 0.233086 -0.0878565
vn -0.908899 1.78119e-16 -4.54645e-17
v -0.197252 0.247654 -0.0627996
vn -1.72541e-16 -1 -5.5678e-33
v -0.210493 -0.233085 0.166047
vn 5.56539e-17 -3.40782e-33 -0.742492
v 0.275 -0.223373 0.166047
vn 5.56539e-17 -3.40782e-33 -0.742492
v -0.254628 -0.223373 0.166047
vn 5.56539e-17 -3.40782e-33 -0.742492
v 0.230864 -0.233085 0.00401577
vn -1.72541e-16 -1 -5.5678e-33
v 0.230864 -0.233085 -0.3
vn -1.72541e-16 -1 -5.5678e-33
v 0.275 -0.233085 0.0106982
vn -1.72541e-16 -1 -5.5678e-33
v 0.230864 -0.233085 0.13598
vn 0.908899 -1.78119e-16 4.54645e-17
v 0.230864 -0.247653 0.13598
vn 0.908899 -1.78119e-16 4.54645e-17
v 0.230864 -0.233085 0.00401577
vn 0.908899 -1.78119e-16 4.54645e-17
v 0.230864 -0.233085 0.166047
vn -5.56539e-17 3.40782e-33 0.742492
v 0.230864 -0.233085 0.166047
vn 5.56539e-17 -3.40782e-33 -0.742492
v 0.230864 -0.247653 0.13598
vn -5.56539e-17 3.40782e-33 0.742492
v 0.230864 -0.247653 0.166047
vn 1.72541e-16 1 5.5678e-33
v -0.210493 -0.247653 0.13598
vn -5.56539e-17 3.40782e-33 0.742492
v -0.197252 0.247654 -0.0878565
vn -0.908899 1.78119e-16 -4.54645e-17
v -0.197252 0.247654 -0.0878565
vn -1.72541e-16 -1 -5.5678e-33
v -0.210493 0.247654 -0.3
vn -1.72541e-16 -1 -5.5678e-33
v -0.210493 0.247654 0.166047
vn -1.72541e-16 -1 -5.5678e-33
v -0.210493 0.233086 -0.0627996
vn -0.908899 1.78119e-16 -4.54645e-17
v -0.210493 0.233086 -0.3
vn -0.908899 1.78119e-16 -4.54645e-17
v -0.254628 0.247654 0.166047
vn 0.908899 -1.78119e-16 4.54645e-17
v -0.254628 0.233086 0.166047
vn 1.72541e-16 1 5.5678e-33
v -0.245801 0.233086 0.166047
vn 1.72541e-16 1 5.5678e-33
v -0.254628 0.233086 -0.0694821
vn 1.72541e-16 1 5.5678e-33
v -0.254628 0.223374 0.166047
vn 0.908899 -1.78119e-16 4.54645e-17
v 0.275 -0.233085 0.166047
vn 5.56539e-17 -3.40782e-33 -0.742492
v 0.275 -0.223373 0.0106982
vn -0.908899 1.78119e-16 -4.54645e-17
v 0.275 -0.233085 0.0106982
vn -0.908899 1.78119e-16 -4.54645e-17
v 0.275 -0.223373 0.0207204
vn -0.908899 1.78119e-16 -4.54645e-17
v 0.275 -0.233085 -0.3
vn -1.72541e-16 -1 -5.5678e-33
v 0.230864 -0.233085 -0.3
vn 0.908899 -1.78119e-16 4.54645e-17
v 0.230864 -0.247653 0.166047
vn -5.56539e-17 3.40782e-33 0.742492
v 0.230864 -0.247653 0.166047
vn 5.56539e-17 -3.40782e-33 -0.742492
v 0.230864 -0.247653 -0.3
vn 1.72541e-16 1 5.5678e-33
v -0.210493 0.247654 -0.3
vn -0.908899 1.78119e-16 -4.54645e-17
v -0.210493 0.247654 -0.3
vn -5.56539e-17 3.40782e-33 0.742492
v -0.254628 0.247654 -0.3
vn -5.56539e-17 3.40782e-33 0.742492
v -0.210493 0.233086 -0.3
vn -5.56539e-17 3.40782e-33 0.742492
v -0.254628 0.247654 0.166047
vn -1.72541e-16 -1 -5.5678e-33
v -0.210493 0.247654 0.166047
vn -0.908899 1.78119e-16 -4.54645e-17
v -0.210493 0.233086 -0.0627996
vn 1.72541e-16 1 5.5678e-33
v -0.210493 0.233086 -0.0878565
vn 1.72541e-16 1 5.5678e-33
v -0.210493 0.233086 -0.3
vn 1.72541e-16 1 5.5678e-33
v -0.254628 -0.223373 0.18108
vn -1.72541e-16 -1 -5.5678e-33
v -0.254628 -0.223373 0.166047
vn -1.72541e-16 -1 -5.5678e-33
v -0.24945 -0.223373 0.18108
vn -1.72541e-16 -1 -5.5678e-33
v -0.236187 -0.223373 0.166047
vn 5.56539e-17 -3.40782e-33 -0.742492
v -0.245801 -0.223373 0.166047
vn 5.56539e-17 -3.40782e-33 -0.742492
v -0.254628 0.247654 -0.3
vn 0.908899 -1.78119e-16 4.54645e-17
v -0.254628 0.247654 0.166047
vn 5.56539e-17 -3.40782e-33 -0.742492
v -0.245801 0.233086 0.166047
vn 5.56539e-17 -3.40782e-33 -0.742492
v -0.254628 0.233086 0.166047
vn 5.56539e-17 -3.40782e-33 -0.742492
v -0.254628 0.233086 0.166047
vn -5.56539e-17 3.40782e-33 0.742492
v -0.245801 0.233086 0.166047
vn -5.56539e-17 3.40782e-33 0.742492
v -0.254628 0.247654 0.166047
vn -5.56539e-17 3.40782e-33 0.742492
v -0.254628 0.223374 0.18108
vn 0.908899 -1.78119e-16 4.54645e-17
v -0.245801 0.223374 0.166047
vn 5.56539e-17 -3.40782e-33 -0.742492
v -0.245801 0.223374 0.166047
vn -5.56539e-17 3.40782e-33 0.742492
v -0.254628 0.223374 0.166047
vn 5.56539e-17 -3.40782e-33 -0.742492
v -0.254628 0.223374 0.166047
vn -5.56539e-17 3.40782e-33 0.742492
v 0.275 0.223374 0.0106982
vn -0.908899 1.78119e-16 -4.54645e-17
v 0.275 0.223374 0.0207204
vn -0.908899 1.78119e-16 -4.54645e-17
v 0.275 -0.233085 -0.3
vn -0.908899 1.78119e-16 -4.54645e-17
v 0.275 -0.247653 -0.3
vn -0.908899 1.78119e-16 -4.54645e-17
v 0.275 -0.233085 -0.3
vn -5.56539e-17 3.40782e-33 0.742492
v 0.230864 -0.233085 -0.3
vn -5.56539e-17 3.40782e-33 0.742492
v 0.275 -0.247653 -0.3
vn -5.56539e-17 3.40782e-33 0.742492
v 0.230864 -0.247653 -0.3
vn 0.908899 -1.78119e-16 4.54645e-17
v 0.275 -0.247653 -0.0143587
vn -0.908899 1.78119e-16 -4.54645e-17
v 0.230864 -0.247653 0.00201177
vn 1.72541e-16 1 5.5678e-33
v 0.275 -0.247653 -0.3
vn 1.72541e-16 1 5.5678e-33
v -0.254628 0.233086 -0.3
vn -5.56539e-17 3.40782e-33 0.742492
v -0.210493 0.247654 0.166047
vn -5.56539e-17 3.40782e-33 0.742492
v -0.210493 0.233086 0.166047
vn -5.56539e-17 3.40782e-33 0.742492
v -0.254628 0.271933 0.166047
vn -5.56539e-17 3.40782e-33 0.742492
v -0.210493 0.233086 0.166047
vn -0.908899 1.78119e-16 -4.54645e-17
v -0.254628 0.233086 -0.3
vn 1.72541e-16 1 5.5678e-33
v -0.245801 -0.223373 0.166047
vn -1.72541e-16 -1 -5.5678e-33
v -0.23673 -0.223373 0.166047
vn 5.56539e-17 -3.40782e-33 -0.742492
v 0.275 -0.223373 0.166047
vn -1.72541e-16 -1 -5.5678e-33
v 0.275 -0.223373 0.18108
vn -1.72541e-16 -1 -5.5678e-33
v -0.236187 -0.223373 0.166047
vn -1.72541e-16 -1 -5.5678e-33
v -0.244528 -0.223373 0.166047
vn 5.56539e-17 -3.40782e-33 -0.742492
v -0.254628 0.233086 -0.3
vn 0.908899 -1.78119e-16 4.54645e-17
v -0.254628 0.271933 0.166047
vn 0.908899 -1.78119e-16 4.54645e-17
v -0.210493 0.233086 0.166047
vn 1.72541e-16 1 5.5678e-33
v -0.244528 0.223374 0.166047
vn 5.56539e-17 -3.40782e-33 -0.742492
v -0.244528 0.223374 0.166047
vn -5.56539e-17 3.40782e-33 0.742492
v -0.254628 0.223374 0.166047
vn 1.72541e-16 1 5.5678e-33
v -0.254628 0.223374 0.18108
vn 1.72541e-16 1 5.5678e-33
v -0.245801 0.223374 0.166047
vn 1.72541e-16 1 5.5678e-33
v 0.275 0.233086 0.0106982
vn -0.908899 1.78119e-16 -4.54645e-17
v 0.275 0.233086 0.0207204
vn -0.908899 1.78119e-16 -4.54645e-17
v 0.275 -0.223373 0.0207204
vn 0.120123 -2.35407e-17 -0.735979
v -0.184553 -0.223373 -0.0488504
vn 0.120123 -2.35407e-17 -0.735979
v 0.275 0.223374 0.0207204
vn 0.120123 -2.35407e-17 -0.735979
v 0.230864 -0.247653 -0.3
vn -5.56539e-17 3.40782e-33 0.742492
v 0.230864 -0.247653 -0.0280562
vn 1.72541e-16 1 5.5678e-33
v 0.217623 -0.247653 0.00201177
vn 1.72541e-16 1 5.5678e-33
v 0.230864 0.247654 0.00201177
vn -0.908899 1.78119e-16 -4.54645e-17
v 0.275 -0.247653 0.166047
vn 1.72541e-16 1 5.5678e-33
v 0.275 -0.247653 -0.0143587
vn 1.72541e-16 1 5.5678e-33
v 0.230864 0.233086 0.166047
vn -5.56539e-17 3.40782e-33 0.742492
v 0.230864 0.247654 0.166047
vn -5.56539e-17 3.40782e-33 0.742492
v -0.240415 -0.223373 0.18108
vn -1.72541e-16 -1 -5.5678e-33
v -0.244528 -0.223373 0.166047
vn -1.72541e-16 -1 -5.5678e-33
v -0.23673 -0.223373 0.166047
vn -1.72541e-16 -1 -5.5678e-33
v -0.23728 -0.223373 0.168315
vn -1.72541e-16 -1 -5.5678e-33
v -0.245801 -0.223373 0.166047
vn 0.876212 -1.71713e-16 0.197331
v -0.245711 -0.223373 0.165677
vn 0.876212 -1.71713e-16 0.197331
v -0.245801 0.223374 0.166047
vn 0.876212 -1.71713e-16 0.197331
v -0.245801 0.223374 0.166047
vn -0.876212 1.71713e-16 -0.197331
v -0.245711 -0.223373 0.165677
vn -0.876212 1.71713e-16 -0.197331
v -0.245801 -0.223373 0.166047
vn -0.876212 1.71713e-16 -0.197331
v -0.245801 0.223374 0.166047
vn 0.908899 -1.78119e-16 4.54645e-17
v -0.245801 -0.223373 0.166047
vn 0.908899 -1.78119e-16 4.54645e-17
v -0.245801 0.223374 -0.0581242
vn 0.908899 -1.78119e-16 4.54645e-17
v -0.245711 -0.223373 0.165677
vn -1.72541e-16 -1 -5.5678e-33
v -0.244528 -0.223373 0.166047
vn 1.72541e-16 1 5.5678e-33
v -0.245711 -0.223373 0.165677
vn 1.72541e-16 1 5.5678e-33
v -0.245801 -0.223373 0.166047
vn 1.72541e-16 1 5.5678e-33
v 0.275 0.233086 0.166047
vn 5.56539e-17 -3.40782e-33 -0.742492
v 0.275 0.233086 0.166047
vn -5.56539e-17 3.40782e-33 0.742492
v -0.254628 0.271933 0.18108
vn 0.908899 -1.78119e-16 4.54645e-17
v -0.23673 0.223374 0.166047
vn 5.56539e-17 -3.40782e-33 -0.742492
v -0.23673 0.223374 0.166047
vn -5.56539e-17 3.40782e-33 0.742492
v -0.245711 0.223374 0.165677
vn -1.72541e-16 -1 -5.5678e-33
v -0.244528 0.223374 0.166047
vn 1.72541e-16 1 5.5678e-33
v -0.245711 0.223374 0.165677
vn 1.72541e-16 1 5.5678e-33
v 0.275 0.233086 0.166047
vn -0.908899 1.78119e-16 -4.54645e-17
v -0.184553 0.223374 -0.0488504
vn 0.120123 -2.35407e-17 -0.735979
v 0.26928 -0.223373 0.0704094
vn -1.72541e-16 -1 -5.5678e-33
v -0.184553 -0.223373 -0.0488504
vn -1.72541e-16 -1 -5.5678e-33
v 0.275 -0.223373 0.0207204
vn -1.72541e-16 -1 -5.5678e-33
v 0.217623 -0.247653 -0.0280562
vn 1.72541e-16 1 5.5678e-33
v 0.230864 -0.247653 0.00201177
vn 5.56539e-17 -3.40782e-33 -0.742492
v 0.217623 -0.247653 0.00201177
vn 5.56539e-17 -3.40782e-33 -0.742492
v 0.230864 0.247654 0.00201177
vn 5.56539e-17 -3.40782e-33 -0.742492
v 0.230864 0.247654 -0.0280562
vn -0.908899 1.78119e-16 -4.54645e-17
v 0.275 0.247654 0.166047
vn -5.56539e-17 3.40782e-33 0.742492
v -0.23728 -0.223373 0.168315
vn -0.797572 1.56302e-16 -0.356062
v -0.236187 0.223374 0.166047
vn -0.797572 1.56302e-16 -0.356062
v -0.236187 -0.223373 0.166047
vn -0.797572 1.56302e-16 -0.356062
v -0.23673 -0.223373 0.166047
vn 0.876221 -1.71715e-16 0.197304
v -0.23728 0.223374 0.168315
vn 0.876221 -1.71715e-16 0.197304
v -0.23728 -0.223373 0.168315
vn 0.876221 -1.71715e-16 0.197304
v -0.190593 -0.223373 0.00215359
vn -1.72541e-16 -1 -5.5678e-33
v -0.245801 -0.223373 -0.0581242
vn -1.72541e-16 -1 -5.5678e-33
v -0.245801 -0.223373 -0.0581242
vn 1.72541e-16 1 5.5678e-33
v -0.245711 0.223374 0.165677
vn 0.876212 -1.71713e-16 0.197331
v -0.245711 0.223374 0.165677
vn -0.876212 1.71713e-16 -0.197331
v -0.245801 -0.223373 -0.0581242
vn 0.908899 -1.78119e-16 4.54645e-17
v -0.245801 0.223374 -0.0581242
vn -1.72541e-16 -1 -5.5678e-33
v -0.245801 0.223374 -0.0581242
vn 1.72541e-16 1 5.5678e-33
v -0.245711 0.223374 0.165677
vn 0.241546 -4.73362e-17 -0.715792
v -0.244528 -0.223373 0.166047
vn 0.241546 -4.73362e-17 -0.715792
v -0.245711 -0.223373 0.165677
vn 0.241546 -4.73362e-17 -0.715792
v -0.245711 -0.223373 0.165677
vn -0.241546 4.73362e-17 0.715792
v -0.244528 -0.223373 0.166047
vn -0.241546 4.73362e-17 0.715792
v -0.245711 0.223374 0.165677
vn -0.241546 4.73362e-17 0.715792
v 0.275 0.223374 0.166047
vn 5.56539e-17 -3.40782e-33 -0.742492
v 0.275 0.223374 0.166047
vn -5.56539e-17 3.40782e-33 0.742492
v -0.254628 0.271933 0.18108
vn 5.56539e-17 -3.40782e-33 -0.742492
v 0.275 0.271933 0.18108
vn 5.56539e-17 -3.40782e-33 -0.742492
v -0.254628 0.223374 0.18108
vn 5.56539e-17 -3.40782e-33 -0.742492
v -0.254628 0.271933 0.18108
vn -1.72541e-16 -1 -5.5678e-33
v -0.254628 0.271933 0.166047
vn -1.72541e-16 -1 -5.5678e-33
v 0.275 0.271933 0.18108
vn -1.72541e-16 -1 -5.5678e-33
v -0.236187 0.223374 0.166047
vn 5.56539e-17 -3.40782e-33 -0.742492
v -0.236187 0.223374 0.166047
vn -5.56539e-17 3.40782e-33 0.742492
v -0.23673 0.145205 0.166047
vn 5.56539e-17 -3.40782e-33 -0.742492
v -0.23673 0.223374 0.166047
vn 1.72541e-16 1 5.5678e-33
v -0.23728 0.223374 0.168315
vn 1.72541e-16 1 5.5678e-33
v -0.244528 0.223374 0.166047
vn 0.241546 -4.73362e-17 -0.715792
v -0.244528 0.223374 0.166047
vn -0.241546 4.73362e-17 0.715792
v -0.240762 0.223374 0.18108
vn 1.72541e-16 1 5.5678e-33
v 0.275 0.247654 0.166047
vn -0.908899 1.78119e-16 -4.54645e-17
v 0.275 0.223374 0.166047
vn -0.908899 1.78119e-16 -4.54645e-17
v -0.184553 0.223374 -0.0488504
vn -0.120127 2.35416e-17 0.735979
v -0.193304 -0.223373 -0.0501758
vn -0.120127 2.35416e-17 0.735979
v -0.184553 -0.223373 -0.0488504
vn -0.120127 2.35416e-17 0.735979
v -0.193304 -0.223373 -0.0501758
vn 0.120127 -2.35416e-17 -0.735979
v 0.275 0.223374 0.0207204
vn 1.72541e-16 1 5.5678e-33
v 0.26928 0.223374 0.0704094
vn 1.72541e-16 1 5.5678e-33
v 0.275 0.223374 0.166047
vn 1.72541e-16 1 5.5678e-33
v 0.217623 -0.247653 -0.0280562
vn 0.908899 -1.78119e-16 4.54645e-17
v 0.217623 0.247654 -0.0280562
vn 0.908899 -1.78119e-16 4.54645e-17
v 0.217623 -0.247653 0.00201177
vn 0.908899 -1.78119e-16 4.54645e-17
v 0.217623 -0.247653 -0.0280562
vn -5.56539e-17 3.40782e-33 0.742492
v 0.230864 -0.247653 -0.0280562
vn -5.56539e-17 3.40782e-33 0.742492
v 0.217623 0.247654 -0.0280562
vn -5.56539e-17 3.40782e-33 0.742492
v 0.217623 0.247654 0.00201177
vn 5.56539e-17 -3.40782e-33 -0.742492
v 0.230864 0.247654 -0.0280562
vn -5.56539e-17 3.40782e-33 0.742492
v 0.230864 0.247654 -0.0280562
vn -1.72541e-16 -1 -5.5678e-33
v 0.230864 0.247654 0.00201177
vn -1.72541e-16 -1 -5.5678e-33
v 0.217623 0.247654 -0.0280562
vn -1.72541e-16 -1 -5.5678e-33
v 0.230864 0.247654 0.166047
vn 0.908899 -1.78119e-16 4.54645e-17
v 0.230864 0.233086 0.166047
vn 0.908899 -1.78119e-16 4.54645e-17
v 0.230864 0.247654 -0.3
vn 0.908899 -1.78119e-16 4.54645e-17
v 0.275 0.271933 0.166047
vn -5.56539e-17 3.40782e-33 0.742492
v 0.230864 0.247654 0.166047
vn -1.72541e-16 -1 -5.5678e-33
v 0.230864 0.247654 -0.3
vn -1.72541e-16 -1 -5.5678e-33
v 0.275 0.247654 0.166047
vn -1.72541e-16 -1 -5.5678e-33
v 0.275 0.247654 0.166047
vn 5.56539e-17 -3.40782e-33 -0.742492
v -0.275 0.223374 0.286317
vn 5.56539e-17 -3.40782e-33 -0.742492
v -0.266249 0.223374 0.286317
vn 5.56539e-17 -3.40782e-33 -0.742492
v -0.275 -0.223373 0.286317
vn 5.56539e-17 -3.40782e-33 -0.742492
v -0.23673 -0.223373 0.166047
vn -0.876213 1.71714e-16 -0.197329
v -0.184873 0.223374 -0.047537
vn -0.876213 1.71714e-16 -0.197329
v -0.184873 -0.223373 -0.047537
vn -0.876213 1.71714e-16 -0.197329
v -0.184873 -0.223373 -0.047537
vn -1.72541e-16 -1 -5.5678e-33
v -0.190593 -0.223373 0.00215359
vn -0.901231 1.76616e-16 -0.0962404
v -0.184873 0.223374 -0.047537
vn -0.901231 1.76616e-16 -0.0962404
v -0.184873 -0.223373 -0.047537
vn -0.901231 1.76616e-16 -0.0962404
v -0.184873 -0.223373 -0.047537
vn 0.901231 -1.76616e-16 0.0962404
v -0.184873 0.223374 -0.047537
vn 0.901231 -1.76616e-16 0.0962404
v -0.190593 -0.223373 0.00215359
vn 0.901231 -1.76616e-16 0.0962404
v -0.23728 0.223374 0.168315
vn -0.797572 1.56302e-16 -0.356062
v -0.23673 0.145205 0.166047
vn 0.876219 -1.71715e-16 0.197308
v -0.193304 -0.223373 -0.0501758
vn -1.72541e-16 -1 -5.5678e-33
v -0.193304 -0.223373 -0.0501758
vn 1.72541e-16 1 5.5678e-33
v -0.193304 -0.223373 -0.0501758
vn 0.876215 -1.71714e-16 0.197323
v -0.245711 0.223374 0.165677
vn 0.876215 -1.71714e-16 0.197323
v -0.245711 -0.223373 0.165677
vn 0.876215 -1.71714e-16 0.197323
v -0.245711 -0.223373 0.165677
vn -0.876215 1.71714e-16 -0.197323
v -0.245711 0.223374 0.165677
vn -0.876215 1.71714e-16 -0.197323
v -0.193304 -0.223373 -0.0501758
vn -0.876215 1.71714e-16 -0.197323
v -0.245801 -0.223373 -0.0581242
vn -0.12013 2.3542e-17 0.735979
v -0.193304 0.223374 -0.0501758
vn -0.12013 2.3542e-17 0.735979
v -0.245801 0.223374 -0.0581242
vn -0.12013 2.3542e-17 0.735979
v -0.245801 0.223374 -0.0581242
vn 0.12013 -2.3542e-17 -0.735979
v -0.193304 0.223374 -0.0501758
vn 0.12013 -2.3542e-17 -0.735979
v -0.245801 -0.223373 -0.0581242
vn 0.12013 -2.3542e-17 -0.735979
v -0.193304 0.223374 -0.0501758
vn -1.72541e-16 -1 -5.5678e-33
v -0.193304 0.223374 -0.0501758
vn 1.72541e-16 1 5.5678e-33
v 0.275 0.271933 0.18108
vn -0.908899 1.78119e-16 -4.54645e-17
v -0.240762 0.223374 0.18108
vn 5.56539e-17 -3.40782e-33 -0.742492
v 0.275 0.271933 0.166047
vn -1.72541e-16 -1 -5.5678e-33
v -0.236187 0.223374 0.166047
vn 1.72541e-16 1 5.5678e-33
v -0.190593 0.223374 0.00215359
vn 1.72541e-16 1 5.5678e-33
v -0.23728 0.223374 0.168315
vn 0.876215 -1.71714e-16 0.197323
v -0.23673 0.145205 0.166047
vn 0.876215 -1.71714e-16 0.197323
v -0.23673 0.223374 0.166047
vn 0.876215 -1.71714e-16 0.197323
v -0.23673 0.223374 0.166047
vn -0.876213 1.71714e-16 -0.197327
v -0.23673 0.145205 0.166047
vn -0.876213 1.71714e-16 -0.197327
v 0.275 0.233086 -0.3
vn -0.908899 1.78119e-16 -4.54645e-17
v -0.184873 -0.223373 -0.047537
vn 1.72541e-16 1 5.5678e-33
v -0.184553 -0.223373 -0.0488504
vn 1.72541e-16 1 5.5678e-33
v 0.217623 0.247654 0.00201177
vn 0.908899 -1.78119e-16 4.54645e-17
v 0.217623 0.247654 0.00201177
vn -1.72541e-16 -1 -5.5678e-33
v 0.230864 0.233086 -0.3
vn 0.908899 -1.78119e-16 4.54645e-17
v 0.275 0.271933 0.166047
vn -0.908899 1.78119e-16 -4.54645e-17
v 0.275 0.247654 -0.3
vn -1.72541e-16 -1 -5.5678e-33
v -0.266249 -0.223373 0.286317
vn 5.56539e-17 -3.40782e-33 -0.742492
v -0.184873 0.223374 -0.047537
vn -0.241549 4.73369e-17 0.715792
v -0.193304 -0.223373 -0.0501758
vn -0.241549 4.73369e-17 0.715792
v -0.184873 -0.223373 -0.047537
vn -0.241549 4.73369e-17 0.715792
v -0.184873 -0.223373 -0.047537
vn 0.241549 -4.73369e-17 -0.715792
v -0.193304 -0.223373 -0.0501758
vn 0.241549 -4.73369e-17 -0.715792
v -0.184873 0.223374 -0.047537
vn 0.241549 -4.73369e-17 -0.715792
v -0.184873 0.223374 -0.047537
vn -0.901227 -3.87112e-06 -0.0962679
v -0.190593 -0.223373 0.00215359
vn -0.901227 -3.87112e-06 -0.0962679
v -0.186645 0.223374 -0.0321622
vn -0.901227 -3.87112e-06 -0.0962679
v -0.186645 0.223374 -0.0321622
vn 0.901227 3.87112e-06 0.0962679
v -0.190593 -0.223373 0.00215359
vn 0.901227 3.87112e-06 0.0962679
v -0.184873 0.223374 -0.047537
vn 0.901227 3.87112e-06 0.0962679
v -0.186645 0.223374 -0.0321622
vn -0.901235 1.76617e-16 -0.0962196
v -0.190593 -0.223373 0.00215359
vn -0.901235 1.76617e-16 -0.0962196
v -0.190593 0.223374 0.00215359
vn -0.901235 1.76617e-16 -0.0962196
v -0.190593 0.223374 0.00215359
vn 0.901235 -1.76617e-16 0.0962196
v -0.190593 -0.223373 0.00215359
vn 0.901235 -1.76617e-16 0.0962196
v -0.186645 0.223374 -0.0321622
vn 0.901235 -1.76617e-16 0.0962196
v -0.193304 0.223374 -0.0501758
vn 0.876215 -1.71714e-16 0.197323
v -0.193304 0.223374 -0.0501758
vn -0.876215 1.71714e-16 -0.197323
v -0.193728 0.223374 0.17973
vn 1.72541e-16 1 5.5678e-33
v 0.275 0.223374 0.18108
vn -0.908899 1.78119e-16 -4.54645e-17
v -0.194067 0.223374 0.18108
vn 5.56539e-17 -3.40782e-33 -0.742492
v -0.186645 0.223374 -0.0321622
vn 1.72541e-16 1 5.5678e-33
v 0.275 0.247654 -0.3
vn -0.908899 1.78119e-16 -4.54645e-17
v -0.193304 0.223374 -0.0501758
vn -0.241549 4.73369e-17 0.715792
v -0.193304 0.223374 -0.0501758
vn 0.241549 -4.73369e-17 -0.715792
v 0.230864 0.233086 -0.3
vn -5.56539e-17 3.40782e-33 0.742492
v 0.275 0.233086 -0.3
vn -5.56539e-17 3.40782e-33 0.742492
v 0.230864 0.247654 -0.3
vn -5.56539e-17 3.40782e-33 0.742492
v 0.275 0.247654 -0.3
vn -5.56539e-17 3.40782e-33 0.742492
v -0.184873 0.223374 -0.047537
vn 1.72541e-16 1 5.5678e-33
v -0.194067 0.223374 0.18108
vn 1.72541e-16 1 5.5678e-33
v 0.275 0.223374 0.18108
vn 5.56539e-17 -3.40782e-33 -0.742492
v 0.275 0.223374 0.18108
vn 1.72541e-16 1 5.5678e-33
v -0.223795 0.223374 0.3
vn -1.72541e-16 -1 -5.5678e-33
v -0.254628 -0.223373 -0.0694821
vn 0.120124 -2.3541e-17 -0.735979
v -0.210493 -0.233085 -0.0627996
vn 0.120124 -2.3541e-17 -0.735979
v -0.254628 -0.233085 -0.0694821
vn 0.120124 -2.3541e-17 -0.735979
v 0.230864 -0.233085 0.00401577
vn 0.120124 -9.16431e-06 -0.735979
v 0.230864 -0.233085 0.00401577
vn 0.120124 1.05629e-05 -0.735979
v -0.254628 -0.223373 -0.0694821
vn 0.120124 1.05629e-05 -0.735979
v 0.275 -0.233085 0.0106982
vn 0.120124 1.05629e-05 -0.735979
v 0.275 -0.223373 0.0106982
vn 0.120124 -2.35409e-17 -0.735979
v -0.254628 0.233086 -0.0694821
vn 0.120124 -2.35409e-17 -0.735979
v 0.275 -0.233085 0.0106982
vn 0.120124 -2.35409e-17 -0.735979
v 0.275 0.223374 0.0106982
vn 0.120124 -2.35409e-17 -0.735979
v 0.275 0.233086 0.0106982
vn 0.120124 -2.35409e-17 -0.735979
v 0.275 0.233086 0.0106982
vn 0.120124 1.08919e-05 -0.735979
v -0.254628 0.233086 -0.0694821
vn 0.120124 1.08919e-05 -0.735979
v -0.210493 0.233086 -0.0627996
vn 0.120124 1.08919e-05 -0.735979
v 0.275 0.233086 0.0106982
vn 0.120124 -1.07717e-05 -0.735979
v -0.210493 0.233086 -0.0627996
vn 0.120124 -1.07717e-05 -0.735979
v 0.230864 0.233086 0.00401577
vn 0.120124 -1.07717e-05 -0.735979
v -0.254628 -0.233085 -0.0694821
vn -0.120124 2.3541e-17 0.735979
v -0.210493 -0.233085 -0.0627996
vn -0.120124 2.3541e-17 0.735979
v -0.254628 -0.223373 -0.0694821
vn -0.120124 2.3541e-17 0.735979
v -0.254628 -0.233085 0.166047
vn 1.72541e-16 1 5.5678e-33
v -0.254628 -0.233085 0.156024
vn 1.72541e-16 1 5.5678e-33
v 0.230864 -0.233085 0.00401577
vn -0.120124 9.16431e-06 0.735979
v -0.210493 -0.233085 0.166047
vn 1.72541e-16 1 5.5678e-33
v 0.275 -0.233085 0.0106982
vn -0.120124 -1.05629e-05 0.735979
v -0.254628 -0.223373 -0.0694821
vn -0.120124 -1.05629e-05 0.735979
v 0.230864 -0.233085 0.00401577
vn -0.120124 -1.05629e-05 0.735979
v 0.230864 -0.233085 0.166047
vn 1.72541e-16 1 5.5678e-33
v -0.254628 0.233086 -0.0694821
vn -0.120124 2.35409e-17 0.735979
v 0.275 -0.223373 0.0106982
vn -0.120124 2.35409e-17 0.735979
v 0.275 -0.233085 0.0106982
vn -0.120124 2.35409e-17 0.735979
v 0.275 -0.233085 0.166047
vn 1.72541e-16 1 5.5678e-33
v -0.245801 0.233086 0.166047
vn -1.72541e-16 -1 -5.5678e-33
v -0.254628 0.233086 0.166047
vn -1.72541e-16 -1 -5.5678e-33
v 0.275 0.223374 0.0106982
vn -0.120124 2.35409e-17 0.735979
v 0.275 0.233086 0.0106982
vn -0.120124 2.35409e-17 0.735979
v -0.210493 0.233086 -0.0627996
vn -0.120124 -1.08919e-05 0.735979
v -0.254628 0.233086 -0.0694821
vn -0.120124 -1.08919e-05 0.735979
v 0.275 0.233086 0.0106982
vn -0.120124 -1.08919e-05 0.735979
v -0.210493 0.233086 0.166047
vn -1.72541e-16 -1 -5.5678e-33
v 0.275 0.223374 0.0207204
vn -0.120123 2.35407e-17 0.735979
v 0.275 -0.223373 0.0207204
vn -0.120123 2.35407e-17 0.735979
v 0.275 -0.223373 0.0207204
vn -0.901232 1.76617e-16 -0.0962345
v 0.26928 -0.223373 0.0704094
vn -0.901232 1.76617e-16 -0.0962345
v 0.275 0.223374 0.0207204
vn -0.901232 1.76617e-16 -0.0962345
v 0.230864 0.233086 0.00401577
vn -1.72541e-16 -1 -5.5678e-33
v 0.230864 0.233086 0.00401577
vn -0.120124 1.07717e-05 0.735979
v -0.210493 0.233086 -0.0627996
vn -0.120124 1.07717e-05 0.735979
v 0.275 0.233086 0.0106982
vn -0.120124 1.07717e-05 0.735979
v -0.245801 -0.223373 0.166047
vn 0.876216 2.83919e-06 0.197317
v -0.275 0.223374 0.286317
vn 0.876216 2.83919e-06 0.197317
v -0.24945 -0.223373 0.18108
vn 0.876216 2.83919e-06 0.197317
v -0.245801 0.223374 -0.0581242
vn -0.908899 1.78119e-16 -4.54645e-17
v -0.245801 -0.223373 0.166047
vn -0.908899 1.78119e-16 -4.54645e-17
v -0.245801 0.223374 0.166047
vn -0.908899 1.78119e-16 -4.54645e-17
v -0.245801 0.223374 0.166047
vn 0.876216 -1.71714e-16 0.197318
v 0.26928 0.223374 0.0704094
vn -0.901232 1.76617e-16 -0.0962345
v -0.275 -0.223373 0.286317
vn 0.876215 -1.71714e-16 0.197322
v 0.26928 -0.223373 0.0704094
vn 0.117811 -2.30876e-17 -0.736229
v -0.190593 -0.223373 0.00215359
vn 0.117811 -2.30876e-17 -0.736229
v 0.26928 0.223374 0.0704094
vn 0.117811 -2.30876e-17 -0.736229
v -0.245801 -0.223373 -0.0581242
vn -0.908899 1.78119e-16 -4.54645e-17
v -0.23673 0.145205 0.166047
vn -5.56539e-17 3.40782e-33 0.742492
v -0.184553 0.223374 -0.0488504
vn 1.72541e-16 1 5.5678e-33
v -0.190593 0.223374 0.00215359
vn 0.117811 -2.30876e-17 -0.736229
v -0.210493 -0.233085 0.13598
vn -1.72541e-16 -1 -5.5678e-33
v -0.210493 -0.233085 -0.0627996
vn -1.72541e-16 -1 -5.5678e-33
v 0.230864 -0.233085 0.13598
vn -1.72541e-16 -1 -5.5678e-33
v 0.275 -0.223373 0.0207204
vn 0.908899 -1.78119e-16 4.54645e-17
v 0.275 -0.223373 0.0106982
vn 0.908899 -1.78119e-16 4.54645e-17
v 0.275 0.223374 0.0207204
vn 0.908899 -1.78119e-16 4.54645e-17
v 0.275 0.223374 0.0106982
vn 0.908899 -1.78119e-16 4.54645e-17
v 0.275 -0.223373 0.166047
vn 0.908899 -1.78119e-16 4.54645e-17
v -0.236187 -0.223373 0.166047
vn 1.72541e-16 1 5.5678e-33
v 0.275 -0.223373 0.166047
vn 1.72541e-16 1 5.5678e-33
v 0.26928 -0.223373 0.0704094
vn 1.72541e-16 1 5.5678e-33
v 0.275 0.233086 0.0106982
vn 0.908899 -1.78119e-16 4.54645e-17
v 0.275 -0.223373 0.0207204
vn 1.72541e-16 1 5.5678e-33
v 0.230864 0.233086 0.00401577
vn 1.72541e-16 1 5.5678e-33
v -0.24945 -0.223373 0.18108
vn 1.72541e-16 1 5.5678e-33
v -0.240415 -0.223373 0.18108
vn 1.72541e-16 1 5.5678e-33
v -0.255045 -0.223373 0.24148
vn 1.72541e-16 1 5.5678e-33
v -0.190593 -0.223373 0.00215359
vn 1.72541e-16 1 5.5678e-33
v -0.23673 -0.223373 0.166047
vn 1.72541e-16 1 5.5678e-33
v -0.23728 -0.223373 0.168315
vn 1.72541e-16 1 5.5678e-33
v -0.275 -0.223373 0.286317
vn 1.72541e-16 1 5.5678e-33
v -0.236187 -0.223373 0.166047
vn 0.797572 -1.56302e-16 0.356062
v -0.236187 0.223374 0.166047
vn 0.797572 -1.56302e-16 0.356062
v -0.23728 -0.223373 0.168315
vn 0.797572 -1.56302e-16 0.356062
v -0.23728 -0.223373 0.168315
vn -0.876221 1.71715e-16 -0.197304
v -0.23728 0.223374 0.168315
vn -0.876221 1.71715e-16 -0.197304
v -0.23673 -0.223373 0.166047
vn -0.876221 1.71715e-16 -0.197304
v 0.26928 0.223374 0.0704094
vn -1.72541e-16 -1 -5.5678e-33
v -0.184553 0.223374 -0.0488504
vn -1.72541e-16 -1 -5.5678e-33
v 0.275 0.223374 0.0207204
vn -1.72541e-16 -1 -5.5678e-33
v -0.266249 -0.223373 0.286317
vn 1.72541e-16 1 5.5678e-33
v -0.23728 0.223374 0.168315
vn 0.797572 -1.56302e-16 0.356062
v -0.236187 -0.223373 0.166047
vn -0.248163 4.8633e-17 0.714281
v -0.193728 -0.223373 0.17973
vn -0.248163 4.8633e-17 0.714281
v -0.236187 0.223374 0.166047
vn -0.248163 4.8633e-17 0.714281
v -0.223795 -0.223373 0.3
vn 1.72541e-16 1 5.5678e-33
v -0.23673 0.145205 0.166047
vn -0.876219 1.71715e-16 -0.197308
v -0.190593 0.223374 0.00215359
vn -1.72541e-16 -1 -5.5678e-33
v -0.23728 0.223374 0.168315
vn -0.876215 1.71714e-16 -0.197323
v -0.193728 0.223374 0.17973
vn -0.248163 4.8633e-17 0.714281
v -0.193728 -0.223373 0.17973
vn 1.72541e-16 1 5.5678e-33
v -0.186645 0.223374 -0.0321622
vn -1.72541e-16 -1 -5.5678e-33
v -0.184873 0.223374 -0.047537
vn -1.72541e-16 -1 -5.5678e-33
v -0.266249 0.223374 0.286317
vn 0.248178 -4.8636e-17 -0.714277
v -0.223795 0.223374 0.3
vn 0.248178 -4.8636e-17 -0.714277
v -0.266249 -0.223373 0.286317
vn 0.248178 -4.8636e-17 -0.714277
v -0.223795 -0.223373 0.3
vn 0.248178 -4.8636e-17 -0.714277
v -0.193728 0.223374 0.17973
vn -0.874353 1.71349e-16 -0.202757
v -0.193728 -0.223373 0.17973
vn -0.874353 1.71349e-16 -0.202757
v -0.194067 0.223374 0.18108
vn -0.874353 1.71349e-16 -0.202757
v -0.223795 -0.223373 0.3
vn -0.874359 -3.55956e-06 -0.202742
v -0.194067 0.223374 0.18108
vn -0.874359 -3.55956e-06 -0.202742
v -0.193728 -0.223373 0.17973
vn -0.874359 -3.55956e-06 -0.202742
v -0.223795 0.223374 0.3
vn -0.874362 1.7135e-16 -0.202732
v -0.194067 0.223374 0.18108
vn -0.874362 1.7135e-16 -0.202732
v -0.223795 -0.223373 0.3
vn -0.874362 1.7135e-16 -0.202732
v -0.254628 -0.223373 -0.0694821
vn -0.908899 1.78119e-16 -4.54645e-17
v -0.24945 -0.223373 0.18108
vn -0.876216 -2.83919e-06 -0.197317
v -0.275 0.223374 0.286317
vn -0.876216 -2.83919e-06 -0.197317
v -0.245801 -0.223373 0.166047
vn -0.876216 -2.83919e-06 -0.197317
v -0.255045 -0.223373 0.24148
vn -1.72541e-16 -1 -5.5678e-33
v -0.245801 0.223374 0.166047
vn -0.876216 1.71714e-16 -0.197318
v -0.275 -0.223373 0.286317
vn -0.876215 1.71714e-16 -0.197322
v -0.275 -0.223373 0.286317
vn -1.72541e-16 -1 -5.5678e-33
v -0.275 -0.223373 0.286317
vn -5.56539e-17 3.40782e-33 0.742492
v -0.266249 0.223374 0.286317
vn -5.56539e-17 3.40782e-33 0.742492
v -0.275 0.223374 0.286317
vn -5.56539e-17 3.40782e-33 0.742492
v -0.266249 -0.223373 0.286317
vn -1.72541e-16 -1 -5.5678e-33
v -0.184873 -0.223373 -0.047537
vn 0.876213 -1.71714e-16 0.197329
v -0.184873 0.223374 -0.047537
vn 0.876213 -1.71714e-16 0.197329
v -0.23673 -0.223373 0.166047
vn 0.876213 -1.71714e-16 0.197329
v -0.266249 -0.223373 0.286317
vn -5.56539e-17 3.40782e-33 0.742492
v -0.275 0.223374 0.286317
vn 1.72541e-16 1 5.5678e-33
v -0.266249 0.223374 0.286317
vn 1.72541e-16 1 5.5678e-33
v -0.24945 0.223374 0.18108
vn 1.72541e-16 1 5.5678e-33
v -0.210493 -0.233085 -0.3
vn -1.72541e-16 -1 -5.5678e-33
v -0.254628 -0.233085 -0.3
vn -1.72541e-16 -1 -5.5678e-33
v -0.254628 -0.233085 -0.0694821
vn -1.72541e-16 -1 -5.5678e-33
v -0.254628 -0.233085 0.156024
vn -1.72541e-16 -1 -5.5678e-33
v -0.254628 -0.233085 0.166047
vn -1.72541e-16 -1 -5.5678e-33
v -0.210493 -0.233085 0.166047
vn -1.72541e-16 -1 -5.5678e-33
v 0.230864 -0.233085 0.166047
vn -1.72541e-16 -1 -5.5678e-33
v 0.275 -0.233085 0.166047
vn -1.72541e-16 -1 -5.5678e-33
v 0.275 -0.223373 0.18108
vn 0.908899 -1.78119e-16 4.54645e-17
v 0.275 -0.271933 0.166047
vn 0.908899 -1.78119e-16 4.54645e-17
v -0.254628 -0.223373 0.166047
vn 1.72541e-16 1 5.5678e-33
v -0.254628 -0.223373 0.18108
vn 1.72541e-16 1 5.5678e-33
v 0.275 -0.271933 0.18108
vn 0.908899 -1.78119e-16 4.54645e-17
v -0.254628 0.271933 0.166047
vn 5.56539e-17 -3.40782e-33 -0.742492
v 0.275 -0.223373 0.18108
vn 1.72541e-16 1 5.5678e-33
v 0.275 0.271933 0.166047
vn 5.56539e-17 -3.40782e-33 -0.742492
v 0.275 0.223374 0.0207204
vn 0.901232 -1.76617e-16 0.0962345
v 0.26928 -0.223373 0.0704094
vn 0.901232 -1.76617e-16 0.0962345
v 0.275 -0.223373 0.0207204
vn 0.901232 -1.76617e-16 0.0962345
v 0.26928 0.223374 0.0704094
vn 0.901232 -1.76617e-16 0.0962345
v 0.26928 0.223374 0.0704094
vn -0.117811 2.30876e-17 0.736229
v -0.190593 -0.223373 0.00215359
vn -0.117811 2.30876e-17 0.736229
v 0.26928 -0.223373 0.0704094
vn -0.117811 2.30876e-17 0.736229
v -0.236187 0.223374 0.166047
vn 0.248163 -4.8633e-17 -0.714281
v -0.193728 -0.223373 0.17973
vn 0.248163 -4.8633e-17 -0.714281
v -0.236187 -0.223373 0.166047
vn 0.248163 -4.8633e-17 -0.714281
v -0.223795 -0.223373 0.3
vn -1.72541e-16 -1 -5.5678e-33
v -0.190593 0.223374 0.00215359
vn -0.117811 2.30876e-17 0.736229
v -0.193728 0.223374 0.17973
vn 0.248163 -4.8633e-17 -0.714281
v -0.193728 -0.223373 0.17973
vn -1.72541e-16 -1 -5.5678e-33
v -0.266249 -0.223373 0.286317
vn -0.248178 4.8636e-17 0.714277
v -0.223795 0.223374 0.3
vn -0.248178 4.8636e-17 0.714277
v -0.266249 0.223374 0.286317
vn -0.248178 4.8636e-17 0.714277
v -0.223795 -0.223373 0.3
vn -0.248178 4.8636e-17 0.714277
v -0.194067 0.223374 0.18108
vn 0.874353 -1.71349e-16 0.202757
v -0.193728 -0.223373 0.17973
vn 0.874353 -1.71349e-16 0.202757
v -0.193728 0.223374 0.17973
vn 0.874353 -1.71349e-16 0.202757
v -0.193728 -0.223373 0.17973
vn 0.874359 3.55956e-06 0.202742
v -0.194067 0.223374 0.18108
vn 0.874359 3.55956e-06 0.202742
v -0.223795 -0.223373 0.3
vn 0.874359 3.55956e-06 0.202742
v -0.223795 0.223374 0.3
vn 1.72541e-16 1 5.5678e-33
v -0.223795 -0.223373 0.3
vn 0.874362 -1.7135e-16 0.202732
v -0.194067 0.223374 0.18108
vn 0.874362 -1.7135e-16 0.202732
v -0.223795 0.223374 0.3
vn 0.874362 -1.7135e-16 0.202732
f 1//1 2//2 3//3
f 2//2 1//1 4//4
f 5//5 6//6 7//7
f 8//8 9//9 10//10
f 11//11 12//12 13//13
f 14//14 15//15 16//16
f 17//17 6//6 5//5
f 9//9 8//8 18//18
f 12//12 11//11 19//19
f 15//15 14//14 20//20
f 21//21 6//6 17//17
f 18//18 8//8 22//22
f 20//20 14//14 23//23
f 24//24 6//6 21//21
f 25//25 21//21 17//17
f 26//26 27//27 28//28
f 22//22 8//8 29//29
f 23//23 14//14 30//30
f 6//6 24//24 31//31
f 23//23 30//30 32//32
f 21//21 25//25 33//33
f 34//34 35//35 36//36
f 27//27 26//26 37//37
f 8//8 38//38 29//29
f 39//39 40//40 41//41
f 42//42 43//43 44//44
f 45//45 31//31 24//24
f 46//46 47//47 48//48
f 49//49 50//50 51//51
f 32//32 30//30 52//52
f 53//53 54//54 55//55
f 56//56 57//57 58//58
f 35//35 34//34 59//59
f 57//57 56//56 60//60
f 61//61 62//62 63//63
f 64//64 61//61 63//63
f 38//38 8//8 65//65
f 66//66 41//41 40//40
f 29//29 38//38 67//67
f 68//68 40//40 39//39
f 69//69 70//70 71//71
f 72//72 73//73 74//74
f 75//75 76//76 77//77
f 78//78 43//43 42//42
f 31//31 45//45 79//79
f 43//43 78//78 80//80
f 81//81 47//47 46//46
f 51//51 50//50 82//82
f 49//49 51//51 70//70
f 54//54 53//53 83//83
f 61//61 64//64 84//84
f 62//62 61//61 85//85
f 63//63 62//62 86//86
f 87//87 88//88 89//89
f 47//47 81//81 90//90
f 91//91 82//82 50//50
f 92//92 93//93 94//94
f 95//95 96//96 97//97
f 67//67 38//38 98//98
f 99//99 40//40 68//68
f 100//100 101//101 102//102
f 103//103 71//71 70//70
f 73//73 72//72 104//104
f 105//105 106//106 75//75
f 107//107 108//108 109//109
f 75//75 110//110 76//76
f 111//111 79//79 45//45
f 112//112 113//113 114//114
f 103//103 70//70 51//51
f 88//88 87//87 115//115
f 116//116 117//117 118//118
f 86//86 62//62 119//119
f 120//120 121//121 122//122
f 123//123 124//124 125//125
f 124//124 123//123 126//126
f 93//93 92//92 127//127
f 128//128 97//97 96//96
f 129//129 130//130 131//131
f 132//132 133//133 134//134
f 135//135 71//71 103//103
f 136//136 71//71 135//135
f 137//137 101//101 100//100
f 102//102 138//138 100//100
f 138//138 102//102 139//139
f 108//108 140//140 141//141
f 142//142 143//143 144//144
f 106//106 105//105 145//145
f 75//75 106//106 110//110
f 146//146 108//108 107//107
f 114//114 113//113 147//147
f 111//111 45//45 148//148
f 149//149 147//147 113//113
f 150//150 79//79 111//111
f 151//151 113//113 112//112
f 117//117 116//116 152//152
f 121//121 120//120 153//153
f 126//126 123//123 154//154
f 130//130 129//129 155//155
f 156//156 134//134 133//133
f 131//131 130//130 157//157
f 158//158 133//133 132//132
f 131//131 157//157 159//159
f 160//160 158//158 132//132
f 161//161 162//162 135//135
f 163//163 136//136 135//135
f 101//101 137//137 164//164
f 100//100 138//138 165//165
f 166//166 167//167 168//168
f 140//140 108//108 146//146
f 143//143 142//142 169//169
f 111//111 148//148 170//170
f 171//171 170//170 148//148
f 172//172 173//173 174//174
f 79//79 175//175 176//176
f 175//175 79//79 150//150
f 177//177 178//178 179//179
f 162//162 163//163 135//135
f 165//165 138//138 180//180
f 181//181 167//167 166//166
f 170//170 171//171 182//182
f 183//183 184//184 185//185
f 173//173 172//172 186//186
f 178//178 177//177 187//187
f 188//188 189//189 190//190
f 191//191 192//192 193//193
f 194//194 181//181 195//195
f 181//181 196//196 167//167
f 197//197 198//198 199//199
f 200//200 201//201 202//202
f 203//203 204//204 205//205
f 206//206 207//207 208//208
f 209//209 210//210 211//211
f 184//184 183//183 212//212
f 210//210 209//209 213//213
f 214//214 215//215 216//216
f 217//217 218//218 219//219
f 220//220 221//221 222//222
f 205//205 223//223 224//224
f 225//225 189//189 188//188
f 192//192 191//191 226//226
f 181//181 194//194 196//196
f 198//198 197//197 227//227
f 228//228 202//202 201//201
f 229//229 204//204 203//203
f 204//204 223//223 205//205
f 207//207 206//206 230//230
f 215//215 214//214 231//231
f 218//218 217//217 232//232
f 223//223 204//204 233//233
f 221//221 220//220 234//234
f 235//235 236//236 237//237
f 238//238 196//196 194//194
f 238//238 239//239 240//240
f 224//224 223//223 241//241
f 242//242 189//189 225//225
f 227//227 197//197 243//243
f 244//244 202//202 228//228
f 204//204 229//229 245//245
f 246//246 247//247 248//248
f 247//247 246//246 249//249
f 236//236 235//235 196//196
f 238//238 250//250 196//196
f 250//250 238//238 240//240
f 239//239 250//250 240//240
f 189//189 242//242 251//251
f 250//250 239//239 252//252
f 253//253 254//254 255//255
f 256//256 255//255 254//254
f 257//257 258//258 259//259
f 260//260 261//261 41//41
f 262//262 263//263 264//264
f 259//259 258//258 265//265
f 266//266 41//41 261//261
f 28//28 264//264 263//263
f 265//265 258//258 267//267
f 268//268 41//41 266//266
f 26//26 264//264 28//28
f 267//267 258//258 269//269
f 265//265 267//267 270//270
f 20//20 88//88 23//23
f 39//39 41//41 268//268
f 266//266 271//271 268//268
f 272//272 264//264 26//26
f 273//273 12//12 274//274
f 275//275 269//269 258//258
f 276//276 272//272 26//26
f 277//277 270//270 267//267
f 278//278 279//279 280//280
f 122//122 23//23 88//88
f 281//281 48//48 47//47
f 50//50 49//49 69//69
f 39//39 268//268 282//282
f 283//283 268//268 271//271
f 12//12 273//273 74//74
f 284//284 285//285 286//286
f 269//269 275//275 287//287
f 288//288 272//272 276//276
f 289//289 290//290 291//291
f 292//292 293//293 294//294
f 295//295 280//280 279//279
f 296//296 294//294 293//293
f 297//297 298//298 299//299
f 122//122 89//89 88//88
f 27//27 300//300 37//37
f 297//297 299//299 301//301
f 48//48 281//281 302//302
f 70//70 69//69 49//49
f 282//282 268//268 283//283
f 68//68 39//39 282//282
f 70//70 135//135 69//69
f 281//281 303//303 302//302
f 304//304 302//302 281//281
f 305//305 306//306 307//307
f 308//308 309//309 310//310
f 49//49 311//311 70//70
f 302//302 312//312 48//48
f 311//311 135//135 70//70
f 302//302 303//303 312//312
f 286//286 285//285 313//313
f 314//314 287//287 275//275
f 315//315 313//313 285//285
f 302//302 46//46 48//48
f 316//316 291//291 290//290
f 317//317 301//301 299//299
f 318//318 299//299 298//298
f 319//319 298//298 297//297
f 89//89 122//122 121//121
f 320//320 37//37 300//300
f 300//300 27//27 321//321
f 69//69 135//135 71//71
f 304//304 303//303 281//281
f 282//282 283//283 322//322
f 323//323 324//324 325//325
f 326//326 68//68 282//282
f 302//302 304//304 327//327
f 328//328 329//329 330//330
f 331//331 307//307 306//306
f 310//310 172//172 332//332
f 147//147 330//330 329//329
f 147//147 329//329 114//114
f 309//309 174//174 310//310
f 311//311 49//49 333//333
f 334//334 48//48 312//312
f 135//135 311//311 103//103
f 327//327 312//312 303//303
f 287//287 314//314 335//335
f 46//46 302//302 327//327
f 336//336 321//321 27//27
f 337//337 338//338 339//339
f 340//340 298//298 319//319
f 37//37 320//320 341//341
f 342//342 343//343 325//325
f 344//344 325//325 343//343
f 345//345 346//346 347//347
f 71//71 135//135 161//161
f 348//348 303//303 304//304
f 327//327 304//304 303//303
f 303//303 304//304 349//349
f 322//322 283//283 350//350
f 351//351 352//352 353//353
f 354//354 355//355 356//356
f 322//322 357//357 282//282
f 325//325 324//324 342//342
f 358//358 353//353 352//352
f 355//355 354//354 359//359
f 353//353 352//352 360//360
f 360//360 358//358 304//304
f 326//326 282//282 357//357
f 353//353 358//358 360//360
f 361//361 359//359 354//354
f 362//362 328//328 363//363
f 330//330 363//363 328//328
f 364//364 365//365 329//329
f 366//366 367//367 368//368
f 369//369 332//332 172//172
f 174//174 172//172 310//310
f 46//46 312//312 327//327
f 103//103 311//311 51//51
f 149//149 330//330 147//147
f 114//114 329//329 370//370
f 371//371 287//287 335//335
f 312//312 46//46 334//334
f 333//333 51//51 311//311
f 335//335 314//314 372//372
f 373//373 339//339 338//338
f 179//179 351//351 177//177
f 374//374 356//356 375//375
f 356//356 374//374 376//376
f 377//377 341//341 320//320
f 378//378 325//325 344//344
f 346//346 379//379 347//347
f 303//303 380//380 348//348
f 381//381 382//382 383//383
f 71//71 161//161 162//162
f 380//380 348//348 304//304
f 349//349 304//304 358//358
f 71//71 163//163 136//136
f 349//349 384//384 304//304
f 303//303 349//349 384//384
f 385//385 350//350 283//283
f 352//352 351//351 179//179
f 375//375 356//356 355//355
f 386//386 357//357 322//322
f 387//387 342//342 324//324
f 352//352 388//388 358//358
f 359//359 389//389 355//355
f 358//358 360//360 352//352
f 390//390 391//391 392//392
f 393//393 362//362 394//394
f 363//363 394//394 362//362
f 395//395 396//396 397//397
f 370//370 329//329 365//365
f 398//398 368//368 367//367
f 399//399 371//371 335//335
f 371//371 399//399 400//400
f 110//110 401//401 106//106
f 402//402 403//403 314//314
f 372//372 314//314 403//403
f 375//375 404//404 374//374
f 405//405 376//376 374//374
f 406//406 383//383 382//382
f 379//379 407//407 347//347
f 347//347 407//407 406//406
f 303//303 384//384 380//380
f 408//408 383//383 409//409
f 71//71 162//162 163//163
f 384//384 380//380 304//304
f 410//410 411//411 412//412
f 413//413 414//414 415//415
f 416//416 417//417 418//418
f 358//358 384//384 349//349
f 358//358 384//384 349//349
f 379//379 419//419 407//407
f 420//420 421//421 422//422
f 423//423 352//352 179//179
f 375//375 355//355 424//424
f 425//425 357//357 386//386
f 388//388 352//352 426//426
f 427//427 355//355 389//389
f 166//166 428//428 181//181
f 429//429 430//430 392//392
f 426//426 358//358 388//388
f 384//384 358//358 388//388
f 392//392 391//391 429//429
f 431//431 394//394 363//363
f 432//432 397//397 396//396
f 433//433 434//434 435//435
f 436//436 400//400 399//399
f 437//437 438//438 439//439
f 440//440 106//106 401//401
f 405//405 374//374 404//404
f 423//423 179//179 178//178
f 404//404 375//375 424//424
f 441//441 376//376 405//405
f 409//409 383//383 406//406
f 406//406 407//407 409//409
f 408//408 409//409 407//407
f 384//384 358//358 380//380
f 388//388 380//380 384//384
f 442//442 443//443 444//444
f 445//445 446//446 447//447
f 434//434 433//433 448//448
f 449//449 419//419 379//379
f 422//422 421//421 450//450
f 412//412 411//411 451//451
f 452//452 414//414 413//413
f 453//453 418//418 417//417
f 454//454 428//428 166//166
f 392//392 430//430 455//455
f 456//456 457//457 458//458
f 459//459 460//460 461//461
f 462//462 352//352 423//423
f 424//424 355//355 463//463
f 464//464 465//465 466//466
f 467//467 468//468 469//469
f 426//426 352//352 470//470
f 471//471 355//355 427//427
f 472//472 388//388 426//426
f 473//473 429//429 474//474
f 457//457 456//456 475//475
f 476//476 461//461 460//460
f 358//358 426//426 472//472
f 391//391 477//477 429//429
f 431//431 478//478 394//394
f 479//479 431//431 363//363
f 480//480 481//481 482//482
f 396//396 483//483 432//432
f 484//484 485//485 486//486
f 487//487 488//488 489//489
f 490//490 491//491 492//492
f 493//493 439//439 438//438
f 494//494 492//492 491//491
f 495//495 496//496 497//497
f 498//498 499//499 500//500
f 187//187 423//423 178//178
f 404//404 424//424 405//405
f 501//501 376//376 441//441
f 502//502 503//503 504//504
f 423//423 187//187 505//505
f 441//441 405//405 424//424
f 506//506 507//507 508//508
f 380//380 358//358 472//472
f 380//380 388//388 472//472
f 509//509 510//510 511//511
f 434//434 448//448 512//512
f 513//513 514//514 515//515
f 516//516 517//517 518//518
f 443//443 442//442 519//519
f 520//520 446//446 445//445
f 419//419 449//449 521//521
f 522//522 450//450 421//421
f 523//523 524//524 525//525
f 526//526 527//527 528//528
f 529//529 530//530 531//531
f 532//532 533//533 534//534
f 428//428 454//454 535//535
f 536//536 455//455 430//430
f 470//470 352//352 462//462
f 463//463 355//355 471//471
f 479//479 537//537 431//431
f 466//466 465//465 538//538
f 539//539 469//469 468//468
f 540//540 541//541 473//473
f 194//194 195//195 238//238
f 540//540 473//473 474//474
f 470//470 472//472 426//426
f 542//542 543//543 544//544
f 545//545 509//509 546//546
f 477//477 474//474 429//429
f 394//394 478//478 547//547
f 431//431 537//537 478//478
f 481//481 480//480 530//530
f 533//533 432//432 483//483
f 521//521 434//434 512//512
f 548//548 549//549 522//522
f 540//540 486//486 485//485
f 550//550 489//489 488//488
f 551//551 497//497 496//496
f 552//552 500//500 499//499
f 553//553 478//478 537//537
f 554//554 504//504 503//503
f 555//555 508//508 507//507
f 472//472 470//470 380//380
f 510//510 509//509 545//545
f 556//556 557//557 558//558
f 559//559 560//560 561//561
f 562//562 563//563 564//564
f 565//565 566//566 567//567
f 474//474 477//477 540//540
f 541//541 540//540 485//485
f 568//568 569//569 570//570
f 571//571 572//572 573//573
f 530//530 529//529 481//481
f 483//483 534//534 533//533
f 524//524 523//523 574//574
f 575//575 528//528 527//527
f 576//576 486//486 540//540
f 577//577 537//537 479//479
f 538//538 465//465 578//578
f 541//541 579//579 473//473
f 580//580 547//547 478//478
f 557//557 556//556 581//581
f 582//582 561//561 560//560
f 583//583 584//584 585//585
f 586//586 585//585 584//584
f 587//587 473//473 579//579
f 477//477 588//588 540//540
f 576//576 540//540 588//588
f 576//576 588//588 486//486
f 589//589 578//578 465//465
f 590//590 486//486 588//588
f 591//591 196//196 250//250
f 196//196 591//591 236//236
f 592//592 593//593 594//594
f 593//593 592//592 595//595
f 596//596 597//597 598//598
f 599//599 592//592 600//600
f 601//601 592//592 599//599
f 599//599 600//600 602//602
f 602//602 600//600 603//603
f 604//604 605//605 606//606
f 607//607 608//608 609//609
f 610//610 611//611 612//612
f 19//19 274//274 12//12
f 613//613 19//19 614//614
f 615//615 612//612 611//611
f 274//274 19//19 616//616
f 616//616 19//19 613//613
f 617//617 618//618 619//619
f 620//620 274//274 616//616
f 620//620 273//273 274//274
f 621//621 612//612 622//622
f 622//622 612//612 623//623
f 74//74 624//624 72//72
f 620//620 74//74 273//273
f 123//123 625//625 626//626
f 627//627 621//621 622//622
f 624//624 74//74 620//620
f 125//125 625//625 123//123
f 628//628 621//621 627//627
f 629//629 630//630 631//631
f 433//433 381//381 383//383
f 625//625 125//125 632//632
f 633//633 482//482 634//634
f 635//635 636//636 637//637
f 381//381 433//433 435//435
f 638//638 632//632 125//125
f 639//639 640//640 641//641
f 642//642 643//643 644//644
f 408//408 448//448 383//383
f 433//433 383//383 448//448
f 645//645 646//646 647//647
f 643//643 642//642 648//648
f 136//136 163//163 359//359
f 389//389 359//359 427//427
f 482//482 633//633 480//480
f 649//649 637//637 636//636
f 632//632 638//638 197//197
f 644//644 643//643 650//650
f 162//162 359//359 163//163
f 448//448 408//408 512//512
f 651//651 652//652 653//653
f 646//646 645//645 654//654
f 655//655 427//427 359//359
f 484//484 656//656 485//485
f 655//655 359//359 162//162
f 657//657 653//653 652//652
f 427//427 655//655 471//471
f 541//541 485//485 656//656
f 162//162 471//471 655//655
f 587//587 541//541 656//656
f 587//587 656//656 536//536
f 579//579 541//541 587//587
f 658//658 659//659 660//660
f 305//305 660//660 659//659
f 661//661 108//108 662//662
f 108//108 661//661 109//109
f 361//361 355//355 354//354
f 71//71 359//359 361//361
f 663//663 662//662 664//664
f 662//662 663//663 661//661
f 109//109 661//661 665//665
f 666//666 667//667 668//668
f 359//359 71//71 136//136
f 355//355 361//361 359//359
f 203//203 664//664 669//669
f 664//664 203//203 663//663
f 670//670 668//668 667//667
f 342//342 387//387 671//671
f 422//422 672//672 420//420
f 673//673 672//672 674//674
f 672//672 673//673 420//420
f 666//666 675//675 676//676
f 675//675 666//666 668//668
f 136//136 163//163 359//359
f 389//389 359//359 163//163
f 663//663 203//203 205//205
f 670//670 549//549 668//668
f 202//202 671//671 387//387
f 673//673 677//677 420//420
f 678//678 674//674 672//672
f 673//673 674//674 677//677
f 163//163 162//162 389//389
f 676//676 420//420 677//677
f 548//548 676//676 675//675
f 679//679 680//680 681//681
f 677//677 674//674 666//666
f 682//682 683//683 684//684
f 675//675 668//668 549//549
f 427//427 389//389 655//655
f 663//663 205//205 224//224
f 685//685 686//686 687//687
f 239//239 685//685 687//687
f 688//688 674//674 678//678
f 655//655 389//389 162//162
f 548//548 675//675 549//549
f 689//689 681//681 680//680
f 690//690 691//691 692//692
f 674//674 693//693 666//666
f 684//684 683//683 694//694
f 195//195 695//695 238//238
f 545//545 546//546 696//696
f 686//686 685//685 695//695
f 685//685 239//239 238//238
f 688//688 693//693 674//674
f 697//697 692//692 691//691
f 698//698 666//666 693//693
f 685//685 238//238 695//695
f 195//195 699//699 695//695
f 686//686 695//695 700//700
f 535//535 686//686 700//700
f 701//701 702//702 703//703
f 704//704 703//703 702//702
f 699//699 195//195 700//700
f 700//700 695//695 699//699
f 705//705 706//706 707//707
f 708//708 709//709 710//710
f 711//711 712//712 713//713
f 22//22 714//714 18//18
f 102//102 22//22 29//29
f 714//714 22//22 101//101
f 101//101 22//22 102//102
f 102//102 29//29 67//67
f 102//102 67//67 139//139
f 715//715 716//716 717//717
f 718//718 347//347 406//406
f 719//719 717//717 716//716
f 720//720 716//716 715//715
f 347//347 718//718 721//721
f 722//722 723//723 724//724
f 721//721 718//718 725//725
f 726//726 727//727 728//728
f 543//543 728//728 544//544
f 723//723 722//722 729//729
f 730//730 731//731 732//732
f 544//544 728//728 727//727
f 477//477 732//732 731//731
f 733//733 659//659 734//734
f 735//735 734//734 659//659
f 659//659 658//658 735//735
f 736//736 735//735 737//737
f 738//738 735//735 658//658
f 737//737 735//735 738//738
f 738//738 658//658 739//739
f 658//658 660//660 739//739
f 307//307 740//740 305//305
f 660//660 305//305 739//739
f 739//739 305//305 740//740
f 107//107 741//741 742//742
f 672//672 743//743 744//744
f 109//109 741//741 107//107
f 741//741 109//109 665//665
f 742//742 741//741 745//745
f 746//746 177//177 351//351
f 672//672 422//422 743//743
f 666//666 747//747 667//667
f 177//177 746//746 187//187
f 747//747 666//666 673//673
f 672//672 420//420 422//422
f 673//673 420//420 672//672
f 677//677 666//666 676//676
f 187//187 746//746 505//505
f 673//673 666//666 677//677
f 677//677 420//420 673//673
f 420//420 677//677 676//676
f 505//505 746//746 748//748
f 749//749 750//750 751//751
f 407//407 347//347 379//379
f 407//407 406//406 347//347
f 750//750 749//749 752//752
f 407//407 409//409 406//406
f 409//409 718//718 406//406
f 409//409 407//407 408//408
f 383//383 718//718 409//409
f 753//753 754//754 755//755
f 756//756 757//757 758//758
f 383//383 759//759 718//718
f 754//754 753//753 760//760
f 718//718 759//759 725//725
f 757//757 756//756 761//761
f 759//759 383//383 762//762
f 763//763 764//764 765//765
f 764//764 763//763 766//766
f 767//767 768//768 769//769
f 770//770 771//771 772//772
f 588//588 477//477 773//773
f 731//731 773//773 477//477
f 774//774 775//775 776//776
