# Created by Open3D 
# object name: 6d78523e939aedd482e23b5f9fd46e1e
# number of vertices: 834
# number of triangles: 608
v -0.146667 -0.275 0.171428
vn 6.05645e-17 -3.70851e-33 -0.742492
v 0.165 -0.165076 0.171428
vn 6.05645e-17 -3.70851e-33 -0.742492
v 0.165 -0.275 0.171428
vn 6.05645e-17 -3.70851e-33 -0.742492
v -0.146667 -0.165076 0.171428
vn 6.05645e-17 -3.70851e-33 -0.742492
v 0.275 -0.275 -0.214285
vn -1.73007e-16 -0.84722 -5.5678e-33
v 0.165 -0.275 0.0642861
vn -1.73007e-16 -0.84722 -5.5678e-33
v -0.275 -0.275 -0.214285
vn -1.73007e-16 -0.84722 -5.5678e-33
v 0.275 -0.275 0.3
vn -1.73007e-16 -0.84722 -5.5678e-33
v 0.165 -0.275 0.171428
vn -1.73007e-16 -0.84722 -5.5678e-33
v -0.146667 -0.275 0.171428
vn -1.73007e-16 -0.84722 -5.5678e-33
v -0.275 -0.275 0.171428
vn -1.73007e-16 -0.84722 -5.5678e-33
v -0.275 -0.275 0.3
vn -1.73007e-16 -0.84722 -5.5678e-33
v -0.275 -0.275 0.0642861
vn -1.73007e-16 -0.84722 -5.5678e-33
v -0.275 -0.275 0.171428
vn 6.05645e-17 -3.70851e-33 -0.742492
v -0.167457 -0.110112 0.171428
vn 6.05645e-17 -3.70851e-33 -0.742492
v -0.165625 -0.106325 0.171428
vn 6.05645e-17 -3.70851e-33 -0.742492
v -0.165 -0.10226 0.171428
vn 6.05645e-17 -3.70851e-33 -0.742492
v -0.146667 0.165075 0.171428
vn 6.05645e-17 -3.70851e-33 -0.742492
v -0.146667 0.275 0.171428
vn 6.05645e-17 -3.70851e-33 -0.742492
v -0.170371 -0.113364 0.171428
vn 6.05645e-17 -3.70851e-33 -0.742492
v -0.174167 -0.11586 0.171428
vn 6.05645e-17 -3.70851e-33 -0.742492
v -0.178589 -0.11743 0.171428
vn 6.05645e-17 -3.70851e-33 -0.742492
v -0.183334 -0.117964 0.171428
vn 6.05645e-17 -3.70851e-33 -0.742492
v -0.188078 -0.11743 0.171428
vn 6.05645e-17 -3.70851e-33 -0.742492
v -0.192501 -0.11586 0.171428
vn 6.05645e-17 -3.70851e-33 -0.742492
v -0.196298 -0.113364 0.171428
vn 6.05645e-17 -3.70851e-33 -0.742492
v -0.199211 -0.110112 0.171428
vn 6.05645e-17 -3.70851e-33 -0.742492
v -0.201042 -0.106325 0.171428
vn 6.05645e-17 -3.70851e-33 -0.742492
v -0.201667 -0.10226 0.171428
vn 6.05645e-17 -3.70851e-33 -0.742492
v -0.201667 0.10226 0.171428
vn 6.05645e-17 -3.70851e-33 -0.742492
v -0.167457 0.110112 0.171428
vn 6.05645e-17 -3.70851e-33 -0.742492
v -0.275 0.275 0.171428
vn 6.05645e-17 -3.70851e-33 -0.742492
v -0.165625 0.106325 0.171428
vn 6.05645e-17 -3.70851e-33 -0.742492
v -0.165 0.10226 0.171428
vn 6.05645e-17 -3.70851e-33 -0.742492
v -0.170371 0.113364 0.171428
vn 6.05645e-17 -3.70851e-33 -0.742492
v -0.174167 0.11586 0.171428
vn 6.05645e-17 -3.70851e-33 -0.742492
v -0.178589 0.11743 0.171428
vn 6.05645e-17 -3.70851e-33 -0.742492
v -0.183334 0.117964 0.171428
vn 6.05645e-17 -3.70851e-33 -0.742492
v -0.188078 0.11743 0.171428
vn 6.05645e-17 -3.70851e-33 -0.742492
v -0.192501 0.11586 0.171428
vn 6.05645e-17 -3.70851e-33 -0.742492
v -0.196298 0.113364 0.171428
vn 6.05645e-17 -3.70851e-33 -0.742492
v -0.199211 0.110112 0.171428
vn 6.05645e-17 -3.70851e-33 -0.742492
v -0.201042 0.106325 0.171428
vn 6.05645e-17 -3.70851e-33 -0.742492
v -0.165625 -0.0981962 0.171428
vn 6.05645e-17 -3.70851e-33 -0.742492
v -0.165625 0.0981962 0.171428
vn 6.05645e-17 -3.70851e-33 -0.742492
v -0.167457 -0.0944083 0.171428
vn 6.05645e-17 -3.70851e-33 -0.742492
v -0.167457 0.0944083 0.171428
vn 6.05645e-17 -3.70851e-33 -0.742492
v -0.170371 -0.0911558 0.171428
vn 6.05645e-17 -3.70851e-33 -0.742492
v -0.170371 0.0911566 0.171428
vn 6.05645e-17 -3.70851e-33 -0.742492
v -0.174167 -0.0886607 0.171428
vn 6.05645e-17 -3.70851e-33 -0.742492
v -0.174167 0.0886607 0.171428
vn 6.05645e-17 -3.70851e-33 -0.742492
v -0.178589 -0.0870925 0.171428
vn 6.05645e-17 -3.70851e-33 -0.742492
v -0.178589 0.0870917 0.171428
vn 6.05645e-17 -3.70851e-33 -0.742492
v -0.183334 -0.0865571 0.171428
vn 6.05645e-17 -3.70851e-33 -0.742492
v -0.183334 0.0865571 0.171428
vn 6.05645e-17 -3.70851e-33 -0.742492
v -0.188078 -0.0870925 0.171428
vn 6.05645e-17 -3.70851e-33 -0.742492
v -0.188078 0.0870917 0.171428
vn 6.05645e-17 -3.70851e-33 -0.742492
v -0.192501 -0.0886607 0.171428
vn 6.05645e-17 -3.70851e-33 -0.742492
v -0.192501 0.0886607 0.171428
vn 6.05645e-17 -3.70851e-33 -0.742492
v -0.196298 -0.0911558 0.171428
vn 6.05645e-17 -3.70851e-33 -0.742492
v -0.196298 0.0911566 0.171428
vn 6.05645e-17 -3.70851e-33 -0.742492
v -0.199211 -0.0944083 0.171428
vn 6.05645e-17 -3.70851e-33 -0.742492
v -0.199211 0.0944083 0.171428
vn 6.05645e-17 -3.70851e-33 -0.742492
v -0.201042 -0.0981962 0.171428
vn 6.05645e-17 -3.70851e-33 -0.742492
v -0.201042 0.0981962 0.171428
vn 6.05645e-17 -3.70851e-33 -0.742492
v -0.146667 -0.165076 0.3
vn 1.67746e-16 0.84722 -1.60649e-17
v 0.165 -0.165076 0.171428
vn 1.67746e-16 0.84722 -1.60649e-17
v -0.146667 -0.165076 0.171428
vn 1.67746e-16 0.84722 -1.60649e-17
v 0.275 -0.165076 0.0642861
vn 1.64102e-16 0.84722 -2.71941e-17
v 0.165 -0.165076 0.0642861
vn 1.64102e-16 0.84722 -2.71941e-17
v 0.275 -0.165076 0.3
vn 1.66393e-16 0.84722 -2.01979e-17
v 0.165 -0.275 0.0642861
vn -0.989095 1.64319e-16 -4.54645e-17
v 0.165 -0.165076 0.171428
vn -0.989095 1.64319e-16 -4.54645e-17
v 0.165 -0.165076 0.0642861
vn -0.989095 1.64319e-16 -4.54645e-17
v 0.165 -0.275 0.171428
vn -0.989095 1.64319e-16 -4.54645e-17
v -0.275 -0.275 0.171428
vn -0.989095 1.64319e-16 -4.54645e-17
v -0.275 0.275 0.3
vn -0.989095 1.64319e-16 -4.54645e-17
v -0.275 0.275 0.171428
vn -0.989095 1.64319e-16 -4.54645e-17
v -0.275 -0.275 0.3
vn -0.989095 1.64319e-16 -4.54645e-17
v -0.163476 0.275 0.0642861
vn -7.69109e-17 1.70338e-17 0.742492
v 0.165 0.165075 0.0642861
vn -7.69109e-17 1.70338e-17 0.742492
v 0.165 0.275 0.0642861
vn -7.69109e-17 1.70338e-17 0.742492
v -0.146667 0.165075 0.0642861
vn -7.74546e-17 1.76004e-17 0.742492
v -0.146667 -0.165076 0.0642861
vn -9.5526e-17 3.64318e-17 0.742492
v -0.165625 0.106325 0.0642861
vn -1.04406e-16 4.56852e-17 0.742492
v -0.165 0.10226 0.0642861
vn -1.04406e-16 4.56852e-17 0.742492
v -0.167457 0.110112 0.0642861
vn -1.03994e-16 4.5256e-17 0.742492
v -0.275 0.275 0.0642861
vn -8.42114e-17 2.46413e-17 0.742492
v -0.170371 0.113364 0.0642861
vn -1.04372e-16 4.56501e-17 0.742492
v -0.174167 0.11586 0.0642861
vn -1.03923e-16 4.51822e-17 0.742492
v -0.178589 0.11743 0.0642861
vn -1.03539e-16 4.47825e-17 0.742492
v -0.183334 0.117964 0.0642861
vn -1.03246e-16 4.44758e-17 0.742492
v -0.188078 0.11743 0.0642861
vn -1.03056e-16 4.42784e-17 0.742492
v -0.192501 0.11586 0.0642861
vn -1.02981e-16 4.42001e-17 0.742492
v -0.196298 0.113364 0.0642861
vn -1.03025e-16 4.42461e-17 0.742492
v -0.199211 0.110112 0.0642861
vn -1.03186e-16 4.44137e-17 0.742492
v -0.201042 0.106325 0.0642861
vn -1.03454e-16 4.46934e-17 0.742492
v -0.201667 0.10226 0.0642861
vn -1.03816e-16 4.50709e-17 0.742492
v -0.201667 -0.10226 0.0642861
vn -8.64213e-17 2.69441e-17 0.742492
v 0.165 -0.275 0.0642861
vn -7.74547e-17 1.76005e-17 0.742492
v 0.165 -0.165076 0.0642861
vn -7.74547e-17 1.76005e-17 0.742492
v -0.275 -0.275 0.0642861
vn -7.40338e-17 1.40357e-17 0.742492
v -0.167457 -0.110112 0.0642861
vn -9.11998e-17 3.19236e-17 0.742492
v -0.165625 -0.106325 0.0642861
vn -1.04272e-16 4.55464e-17 0.742492
v -0.165 -0.10226 0.0642861
vn -1.04407e-16 4.56862e-17 0.742492
v -0.170371 -0.113364 0.0642861
vn -1.04372e-16 4.56499e-17 0.742492
v -0.174167 -0.11586 0.0642861
vn -1.03923e-16 4.51822e-17 0.742492
v -0.178589 -0.11743 0.0642861
vn -1.03539e-16 4.47825e-17 0.742492
v -0.183334 -0.117964 0.0642861
vn -1.03246e-16 4.4476e-17 0.742492
v -0.188078 -0.11743 0.0642861
vn -1.03056e-16 4.42783e-17 0.742492
v -0.192501 -0.11586 0.0642861
vn -1.02981e-16 4.42001e-17 0.742492
v -0.196298 -0.113364 0.0642861
vn -1.03025e-16 4.42461e-17 0.742492
v -0.199211 -0.110112 0.0642861
vn -1.03186e-16 4.44139e-17 0.742492
v -0.201042 -0.106325 0.0642861
vn -1.03454e-16 4.46933e-17 0.742492
v -0.165625 0.0981962 0.0642861
vn -1.04378e-16 4.56561e-17 0.742492
v -0.165625 -0.0981962 0.0642861
vn -1.04388e-16 4.56669e-17 0.742492
v -0.167457 0.0944083 0.0642861
vn -1.03908e-16 4.51669e-17 0.742492
v -0.167457 -0.0944083 0.0642861
vn -1.03936e-16 4.51959e-17 0.742492
v -0.170371 0.0911566 0.0642861
vn -1.03531e-16 4.4773e-17 0.742492
v -0.170371 -0.0911558 0.0642861
vn -1.03568e-16 4.48119e-17 0.742492
v -0.174167 0.0886607 0.0642861
vn -1.03254e-16 4.44839e-17 0.742492
v -0.174167 -0.0886607 0.0642861
vn -1.0329e-16 4.45223e-17 0.742492
v -0.178589 0.0870917 0.0642861
vn -1.03076e-16 4.42983e-17 0.742492
v -0.178589 -0.0870925 0.0642861
vn -1.03102e-16 4.43262e-17 0.742492
v -0.183334 0.0865571 0.0642861
vn -1.02993e-16 4.42136e-17 0.742492
v -0.183334 -0.0865571 0.0642861
vn -1.03003e-16 4.42238e-17 0.742492
v -0.188078 0.0870917 0.0642861
vn -1.03003e-16 4.42238e-17 0.742492
v -0.188078 -0.0870925 0.0642861
vn -1.02993e-16 4.42136e-17 0.742492
v -0.192501 0.0886607 0.0642861
vn -1.03102e-16 4.43262e-17 0.742492
v -0.192501 -0.0886607 0.0642861
vn -1.03076e-16 4.42983e-17 0.742492
v -0.196298 0.0911566 0.0642861
vn -1.03289e-16 4.45219e-17 0.742492
v -0.196298 -0.0911558 0.0642861
vn -1.03253e-16 4.44835e-17 0.742492
v -0.199211 0.0944083 0.0642861
vn -1.03568e-16 4.48123e-17 0.742492
v -0.199211 -0.0944083 0.0642861
vn -1.03531e-16 4.47734e-17 0.742492
v -0.201042 0.0981962 0.0642861
vn -1.03936e-16 4.51959e-17 0.742492
v -0.201042 -0.0981962 0.0642861
vn -1.03908e-16 4.51669e-17 0.742492
v -0.275 -0.275 -0.214285
vn -0.989095 1.64319e-16 -4.54645e-17
v -0.275 0.275 0.0642861
vn -0.989095 1.64319e-16 -4.54645e-17
v -0.275 0.275 -0.214285
vn -0.989095 1.64319e-16 -4.54645e-17
v -0.275 -0.275 0.0642861
vn -0.989095 1.64319e-16 -4.54645e-17
v 0.275 -0.275 0.3
vn 0.989095 -1.64319e-16 4.54645e-17
v 0.275 -0.165076 0.0642861
vn 0.989095 -1.64319e-16 4.54645e-17
v 0.275 -0.165076 0.3
vn 0.989095 -1.64319e-16 4.54645e-17
v 0.275 -0.165076 -0.0857137
vn 0.989095 -1.64319e-16 4.54645e-17
v 0.275 0.165075 0.3
vn 0.989095 -1.64319e-16 4.54645e-17
v 0.275 0.275 -0.214285
vn 0.989095 -1.64319e-16 4.54645e-17
v 0.275 0.275 0.3
vn 0.989095 -1.64319e-16 4.54645e-17
v 0.275 0.165075 -0.0857137
vn 0.989095 -1.64319e-16 4.54645e-17
v 0.275 -0.275 -0.214285
vn 0.989095 -1.64319e-16 4.54645e-17
v 0.275 0.165075 0.0642861
vn 0.989095 -1.64319e-16 4.54645e-17
v -0.275 0.275 0.3
vn -6.05645e-17 3.70851e-33 0.742492
v 0.275 0.165075 0.3
vn -6.05645e-17 3.70851e-33 0.742492
v 0.275 0.275 0.3
vn -6.05645e-17 3.70851e-33 0.742492
v -0.146667 0.165075 0.3
vn -6.05645e-17 3.70851e-33 0.742492
v -0.146667 -0.165076 0.3
vn -6.05645e-17 3.70851e-33 0.742492
v 0.275 -0.275 0.3
vn -6.05645e-17 3.70851e-33 0.742492
v 0.275 -0.165076 0.3
vn -6.05645e-17 3.70851e-33 0.742492
v -0.275 -0.275 0.3
vn -6.05645e-17 3.70851e-33 0.742492
v -0.275 0.275 0.0642861
vn 1.73007e-16 0.84722 5.5678e-33
v 0.275 0.275 -0.214285
vn 1.73007e-16 0.84722 5.5678e-33
v -0.275 0.275 -0.214285
vn 1.73007e-16 0.84722 5.5678e-33
v -0.163476 0.275 0.0642861
vn 1.73007e-16 0.84722 5.5678e-33
v -0.275 0.275 0.3
vn 1.73007e-16 0.84722 5.5678e-33
v -0.146667 0.275 0.171428
vn 1.73007e-16 0.84722 5.5678e-33
v -0.275 0.275 0.171428
vn 1.73007e-16 0.84722 5.5678e-33
v 0.165 0.275 0.171428
vn 1.73007e-16 0.84722 5.5678e-33
v 0.165 0.275 0.0642861
vn 1.73007e-16 0.84722 5.5678e-33
v 0.275 0.275 0.3
vn 1.73007e-16 0.84722 5.5678e-33
v 0.165 0.275 0.171428
vn 6.05645e-17 -3.70851e-33 -0.742492
v 0.165 0.165075 0.171428
vn 6.05645e-17 -3.70851e-33 -0.742492
v -0.146667 -0.165076 0.3
vn 0.989095 -1.64319e-16 4.54645e-17
v -0.146667 0.165075 0.171428
vn 0.989095 -1.64319e-16 4.54645e-17
v -0.146667 0.165075 0.3
vn 0.989095 -1.64319e-16 4.54645e-17
v -0.146667 -0.165076 0.171428
vn 0.989095 -1.64319e-16 4.54645e-17
v 0.275 -0.165076 0.0642861
vn -6.05645e-17 3.70851e-33 0.742492
v 0.275 0.165075 0.0642861
vn -6.05645e-17 3.70851e-33 0.742492
v 0.165 0.165075 0.0642861
vn -0.989095 1.64319e-16 -4.54645e-17
v 0.165 0.275 0.171428
vn -0.989095 1.64319e-16 -4.54645e-17
v 0.165 0.275 0.0642861
vn -0.989095 1.64319e-16 -4.54645e-17
v 0.165 0.165075 0.171428
vn -0.989095 1.64319e-16 -4.54645e-17
v 0.275 0.165075 0.3
vn -1.73007e-16 -0.84722 -5.5678e-33
v 0.165 0.165075 0.0642861
vn -1.73007e-16 -0.84722 -5.5678e-33
v 0.275 0.165075 0.0642861
vn -1.73007e-16 -0.84722 -5.5678e-33
v 0.165 0.165075 0.171428
vn -1.73007e-16 -0.84722 -5.5678e-33
v -0.146667 0.165075 0.171428
vn -1.73007e-16 -0.84722 -5.5678e-33
v -0.146667 0.165075 0.3
vn -1.73007e-16 -0.84722 -5.5678e-33
v -0.192501 -0.11586 0.171428
vn -0.496488 -0.732752 -2.28215e-17
v -0.196298 -0.113364 0.0642861
vn -0.69781 -0.60043 -3.20755e-17
v -0.192501 -0.11586 0.0642861
vn -0.496488 -0.732752 -2.28215e-17
v -0.196298 -0.113364 0.171428
vn -0.69781 -0.60043 -3.20755e-17
v -0.188078 -0.11743 0.171428
vn -0.258161 -0.817853 -1.18665e-17
v -0.192501 -0.11586 0.0642861
vn -0.492607 -0.734671 -2.2643e-17
v -0.188078 -0.11743 0.0642861
vn -0.258161 -0.817853 -1.18665e-17
v -0.192501 -0.11586 0.171428
vn -0.492607 -0.734671 -2.2643e-17
v -0.196298 -0.113364 0.0642861
vn -0.700977 -0.597717 -3.2221e-17
v -0.199211 -0.110112 0.171428
vn -0.855459 -0.425271 -3.93219e-17
v -0.199211 -0.110112 0.0642861
vn -0.855459 -0.425271 -3.93219e-17
v -0.196298 -0.113364 0.171428
vn -0.700977 -0.597717 -3.2221e-17
v -0.183334 -0.117964 0.171428
vn -0.00224155 -0.847218 -1.03035e-19
v -0.188078 -0.11743 0.0642861
vn -0.253833 -0.818846 -1.16677e-17
v -0.183334 -0.117964 0.0642861
vn -0.00224155 -0.847218 -1.03035e-19
v -0.188078 -0.11743 0.171428
vn -0.253833 -0.818846 -1.16677e-17
v -0.199211 -0.110112 0.0642861
vn -0.857698 -0.421948 -3.94248e-17
v -0.201042 -0.106325 0.171428
vn -0.95481 -0.22113 -4.38886e-17
v -0.201042 -0.106325 0.0642861
vn -0.95481 -0.22113 -4.38886e-17
v -0.199211 -0.110112 0.171428
vn -0.857698 -0.421948 -3.94248e-17
v -0.178589 -0.11743 0.171428
vn 0.253833 -0.818846 1.16677e-17
v -0.183334 -0.117964 0.0642861
vn 0.00224155 -0.847218 1.03035e-19
v -0.178589 -0.11743 0.0642861
vn 0.253833 -0.818846 1.16677e-17
v -0.183334 -0.117964 0.171428
vn 0.00224155 -0.847218 1.03035e-19
v -0.201042 -0.106325 0.0642861
vn -0.95597 -0.217421 -4.3942e-17
v -0.201667 -0.10226 0.171428
vn -0.989092 -0.00191702 -4.54644e-17
v -0.201667 -0.10226 0.0642861
vn -0.989092 -0.00191702 -4.54644e-17
v -0.201042 -0.106325 0.171428
vn -0.95597 -0.217421 -4.3942e-17
v -0.174167 -0.11586 0.171428
vn 0.492607 -0.734671 2.2643e-17
v -0.178589 -0.11743 0.0642861
vn 0.258161 -0.817853 1.18665e-17
v -0.174167 -0.11586 0.0642861
vn 0.492607 -0.734671 2.2643e-17
v -0.178589 -0.11743 0.171428
vn 0.258161 -0.817853 1.18665e-17
v -0.201667 -0.10226 0.0642861
vn -0.989092 0.00191702 -4.54644e-17
v -0.201042 -0.0981962 0.171428
vn -0.95597 0.217421 -4.3942e-17
v -0.201042 -0.0981962 0.0642861
vn -0.95597 0.217421 -4.3942e-17
v -0.201667 -0.10226 0.171428
vn -0.989092 0.00191702 -4.54644e-17
v -0.170371 -0.113364 0.171428
vn 0.697812 -0.600428 3.20755e-17
v -0.174167 -0.11586 0.0642861
vn 0.496489 -0.732751 2.28215e-17
v -0.170371 -0.113364 0.0642861
vn 0.697812 -0.600428 3.20755e-17
v -0.174167 -0.11586 0.171428
vn 0.496489 -0.732751 2.28215e-17
v -0.201042 -0.0981962 0.0642861
vn -0.95481 0.22113 -4.38886e-17
v -0.199211 -0.0944083 0.171428
vn -0.857698 0.421948 -3.94248e-17
v -0.199211 -0.0944083 0.0642861
vn -0.857698 0.421948 -3.94248e-17
v -0.201042 -0.0981962 0.171428
vn -0.95481 0.22113 -4.38886e-17
v -0.170371 -0.113364 0.171428
vn 0.700975 -0.597719 3.22209e-17
v -0.167457 -0.110112 0.0642861
vn 0.855457 -0.425273 3.93218e-17
v -0.167457 -0.110112 0.171428
vn 0.855457 -0.425273 3.93218e-17
v -0.170371 -0.113364 0.0642861
vn 0.700975 -0.597719 3.22209e-17
v -0.199211 -0.0944083 0.0642861
vn -0.855459 0.42527 -3.93219e-17
v -0.196298 -0.0911558 0.171428
vn -0.700979 0.597715 -3.22211e-17
v -0.196298 -0.0911558 0.0642861
vn -0.700979 0.597715 -3.22211e-17
v -0.199211 -0.0944083 0.171428
vn -0.855459 0.42527 -3.93219e-17
v -0.167457 -0.110112 0.171428
vn 0.857698 -0.421948 3.94248e-17
v -0.165625 -0.106325 0.0642861
vn 0.95481 -0.22113 4.38886e-17
v -0.165625 -0.106325 0.171428
vn 0.95481 -0.22113 4.38886e-17
v -0.167457 -0.110112 0.0642861
vn 0.857698 -0.421948 3.94248e-17
v -0.196298 -0.0911558 0.171428
vn -0.69781 0.60043 -3.20755e-17
v -0.192501 -0.0886607 0.0642861
vn -0.496488 0.732752 -2.28215e-17
v -0.196298 -0.0911558 0.0642861
vn -0.69781 0.60043 -3.20755e-17
v -0.192501 -0.0886607 0.171428
vn -0.496488 0.732752 -2.28215e-17
v -0.165625 -0.106325 0.171428
vn 0.955969 -0.217424 4.39419e-17
v -0.165 -0.10226 0.0642861
vn 0.989092 -0.00192005 4.54644e-17
v -0.165 -0.10226 0.171428
vn 0.989092 -0.00192005 4.54644e-17
v -0.165625 -0.106325 0.0642861
vn 0.955969 -0.217424 4.39419e-17
v -0.192501 -0.0886607 0.171428
vn -0.492604 0.734673 -2.2643e-17
v -0.188078 -0.0870925 0.0642861
vn -0.258157 0.817854 -1.18664e-17
v -0.192501 -0.0886607 0.0642861
vn -0.492604 0.734673 -2.2643e-17
v -0.188078 -0.0870925 0.171428
vn -0.258157 0.817854 -1.18664e-17
v -0.165 -0.10226 0.171428
vn 0.989092 0.00192005 4.54644e-17
v -0.165625 -0.0981962 0.0642861
vn 0.955969 0.217424 4.39419e-17
v -0.165625 -0.0981962 0.171428
vn 0.955969 0.217424 4.39419e-17
v -0.165 -0.10226 0.0642861
vn 0.989092 0.00192005 4.54644e-17
v -0.188078 -0.0870925 0.171428
vn -0.25383 0.818847 -1.16675e-17
v -0.183334 -0.0865571 0.0642861
vn -0.00223806 0.847218 -1.02875e-19
v -0.188078 -0.0870925 0.0642861
vn -0.25383 0.818847 -1.16675e-17
v -0.183334 -0.0865571 0.171428
vn -0.00223806 0.847218 -1.02875e-19
v -0.165625 -0.0981962 0.171428
vn 0.95481 0.22113 4.38886e-17
v -0.167457 -0.0944083 0.0642861
vn 0.857698 0.421948 3.94248e-17
v -0.167457 -0.0944083 0.171428
vn 0.857698 0.421948 3.94248e-17
v -0.165625 -0.0981962 0.0642861
vn 0.95481 0.22113 4.38886e-17
v -0.183334 -0.0865571 0.171428
vn 0.00223806 0.847218 1.02875e-19
v -0.178589 -0.0870925 0.0642861
vn 0.25383 0.818847 1.16675e-17
v -0.183334 -0.0865571 0.0642861
vn 0.00223806 0.847218 1.02875e-19
v -0.178589 -0.0870925 0.171428
vn 0.25383 0.818847 1.16675e-17
v -0.167457 -0.0944083 0.171428
vn 0.855458 0.425272 3.93218e-17
v -0.170371 -0.0911558 0.0642861
vn 0.700977 0.597717 3.2221e-17
v -0.170371 -0.0911558 0.171428
vn 0.700977 0.597717 3.2221e-17
v -0.167457 -0.0944083 0.0642861
vn 0.855458 0.425272 3.93218e-17
v -0.178589 -0.0870925 0.171428
vn 0.258157 0.817854 1.18664e-17
v -0.174167 -0.0886607 0.0642861
vn 0.492604 0.734673 2.2643e-17
v -0.178589 -0.0870925 0.0642861
vn 0.258157 0.817854 1.18664e-17
v -0.174167 -0.0886607 0.171428
vn 0.492604 0.734673 2.2643e-17
v -0.174167 -0.0886607 0.171428
vn 0.496489 0.732751 2.28215e-17
v -0.170371 -0.0911558 0.0642861
vn 0.697812 0.600428 3.20755e-17
v -0.174167 -0.0886607 0.0642861
vn 0.496489 0.732751 2.28215e-17
v -0.170371 -0.0911558 0.171428
vn 0.697812 0.600428 3.20755e-17
v -0.170371 0.0911566 0.171428
vn 0.697812 -0.600428 3.20755e-17
v -0.174167 0.0886607 0.0642861
vn 0.496489 -0.732751 2.28215e-17
v -0.170371 0.0911566 0.0642861
vn 0.697812 -0.600428 3.20755e-17
v -0.174167 0.0886607 0.171428
vn 0.496489 -0.732751 2.28215e-17
v -0.170371 0.0911566 0.171428
vn 0.700977 -0.597717 3.2221e-17
v -0.167457 0.0944083 0.0642861
vn 0.855458 -0.425272 3.93218e-17
v -0.167457 0.0944083 0.171428
vn 0.855458 -0.425272 3.93218e-17
v -0.170371 0.0911566 0.0642861
vn 0.700977 -0.597717 3.2221e-17
v -0.174167 0.0886607 0.171428
vn 0.492607 -0.734671 2.2643e-17
v -0.178589 0.0870917 0.0642861
vn 0.25816 -0.817853 1.18665e-17
v -0.174167 0.0886607 0.0642861
vn 0.492607 -0.734671 2.2643e-17
v -0.178589 0.0870917 0.171428
vn 0.25816 -0.817853 1.18665e-17
v -0.167457 0.0944083 0.171428
vn 0.857697 -0.421949 3.94248e-17
v -0.165625 0.0981962 0.0642861
vn 0.95481 -0.22113 4.38886e-17
v -0.165625 0.0981962 0.171428
vn 0.95481 -0.22113 4.38886e-17
v -0.167457 0.0944083 0.0642861
vn 0.857697 -0.421949 3.94248e-17
v -0.178589 0.0870917 0.171428
vn 0.25383 -0.818847 1.16675e-17
v -0.183334 0.0865571 0.0642861
vn 0.00223803 -0.847218 1.02873e-19
v -0.178589 0.0870917 0.0642861
vn 0.25383 -0.818847 1.16675e-17
v -0.183334 0.0865571 0.171428
vn 0.00223803 -0.847218 1.02873e-19
v -0.165625 0.0981962 0.171428
vn 0.955969 -0.217424 4.39419e-17
v -0.165 0.10226 0.0642861
vn 0.989092 -0.00192005 4.54644e-17
v -0.165 0.10226 0.171428
vn 0.989092 -0.00192005 4.54644e-17
v -0.165625 0.0981962 0.0642861
vn 0.955969 -0.217424 4.39419e-17
v -0.183334 0.0865571 0.171428
vn -0.00223803 -0.847218 -1.02873e-19
v -0.188078 0.0870917 0.0642861
vn -0.25383 -0.818847 -1.16675e-17
v -0.183334 0.0865571 0.0642861
vn -0.00223803 -0.847218 -1.02873e-19
v -0.188078 0.0870917 0.171428
vn -0.25383 -0.818847 -1.16675e-17
v -0.165 0.10226 0.171428
vn 0.989092 0.00192005 4.54644e-17
v -0.165625 0.106325 0.0642861
vn 0.955969 0.217424 4.39419e-17
v -0.165625 0.106325 0.171428
vn 0.955969 0.217424 4.39419e-17
v -0.165 0.10226 0.0642861
vn 0.989092 0.00192005 4.54644e-17
v -0.188078 0.0870917 0.171428
vn -0.25816 -0.817853 -1.18665e-17
v -0.192501 0.0886607 0.0642861
vn -0.492607 -0.734671 -2.2643e-17
v -0.188078 0.0870917 0.0642861
vn -0.25816 -0.817853 -1.18665e-17
v -0.192501 0.0886607 0.171428
vn -0.492607 -0.734671 -2.2643e-17
v -0.165625 0.106325 0.171428
vn 0.95481 0.22113 4.38886e-17
v -0.167457 0.110112 0.0642861
vn 0.857697 0.421949 3.94248e-17
v -0.167457 0.110112 0.171428
vn 0.857697 0.421949 3.94248e-17
v -0.165625 0.106325 0.0642861
vn 0.95481 0.22113 4.38886e-17
v -0.192501 0.0886607 0.171428
vn -0.496488 -0.732752 -2.28215e-17
v -0.196298 0.0911566 0.0642861
vn -0.69781 -0.60043 -3.20755e-17
v -0.192501 0.0886607 0.0642861
vn -0.496488 -0.732752 -2.28215e-17
v -0.196298 0.0911566 0.171428
vn -0.69781 -0.60043 -3.20755e-17
v -0.167457 0.110112 0.171428
vn 0.855458 0.425272 3.93218e-17
v -0.170371 0.113364 0.0642861
vn 0.700977 0.597717 3.2221e-17
v -0.170371 0.113364 0.171428
vn 0.700977 0.597717 3.2221e-17
v -0.167457 0.110112 0.0642861
vn 0.855458 0.425272 3.93218e-17
v -0.196298 0.0911566 0.0642861
vn -0.700979 -0.597715 -3.22211e-17
v -0.199211 0.0944083 0.171428
vn -0.855459 -0.42527 -3.93219e-17
v -0.199211 0.0944083 0.0642861
vn -0.855459 -0.42527 -3.93219e-17
v -0.196298 0.0911566 0.171428
vn -0.700979 -0.597715 -3.22211e-17
v -0.174167 0.11586 0.171428
vn 0.496489 0.732751 2.28215e-17
v -0.170371 0.113364 0.0642861
vn 0.697812 0.600428 3.20755e-17
v -0.174167 0.11586 0.0642861
vn 0.496489 0.732751 2.28215e-17
v -0.170371 0.113364 0.171428
vn 0.697812 0.600428 3.20755e-17
v -0.199211 0.0944083 0.0642861
vn -0.857697 -0.421949 -3.94248e-17
v -0.201042 0.0981962 0.171428
vn -0.95481 -0.22113 -4.38886e-17
v -0.201042 0.0981962 0.0642861
vn -0.95481 -0.22113 -4.38886e-17
v -0.199211 0.0944083 0.171428
vn -0.857697 -0.421949 -3.94248e-17
v -0.178589 0.11743 0.171428
vn 0.258161 0.817853 1.18665e-17
v -0.174167 0.11586 0.0642861
vn 0.492607 0.734671 2.2643e-17
v -0.178589 0.11743 0.0642861
vn 0.258161 0.817853 1.18665e-17
v -0.174167 0.11586 0.171428
vn 0.492607 0.734671 2.2643e-17
v -0.201042 0.0981962 0.0642861
vn -0.95597 -0.21742 -4.3942e-17
v -0.201667 0.10226 0.171428
vn -0.989092 -0.00191702 -4.54644e-17
v -0.201667 0.10226 0.0642861
vn -0.989092 -0.00191702 -4.54644e-17
v -0.201042 0.0981962 0.171428
vn -0.95597 -0.21742 -4.3942e-17
v -0.183334 0.117964 0.171428
vn 0.00223801 0.847218 1.02872e-19
v -0.178589 0.11743 0.0642861
vn 0.25383 0.818847 1.16675e-17
v -0.183334 0.117964 0.0642861
vn 0.00223801 0.847218 1.02872e-19
v -0.178589 0.11743 0.171428
vn 0.25383 0.818847 1.16675e-17
v -0.201667 0.10226 0.0642861
vn -0.989092 0.00191702 -4.54644e-17
v -0.201042 0.106325 0.171428
vn -0.95597 0.217421 -4.3942e-17
v -0.201042 0.106325 0.0642861
vn -0.95597 0.217421 -4.3942e-17
v -0.201667 0.10226 0.171428
vn -0.989092 0.00191702 -4.54644e-17
v -0.188078 0.11743 0.171428
vn -0.25383 0.818847 -1.16675e-17
v -0.183334 0.117964 0.0642861
vn -0.00223801 0.847218 -1.02872e-19
v -0.188078 0.11743 0.0642861
vn -0.25383 0.818847 -1.16675e-17
v -0.183334 0.117964 0.171428
vn -0.00223801 0.847218 -1.02872e-19
v -0.201042 0.106325 0.0642861
vn -0.95481 0.22113 -4.38886e-17
v -0.199211 0.110112 0.171428
vn -0.857697 0.421949 -3.94248e-17
v -0.199211 0.110112 0.0642861
vn -0.857697 0.421949 -3.94248e-17
v -0.201042 0.106325 0.171428
vn -0.95481 0.22113 -4.38886e-17
v -0.192501 0.11586 0.171428
vn -0.492607 0.734671 -2.2643e-17
v -0.188078 0.11743 0.0642861
vn -0.258161 0.817853 -1.18665e-17
v -0.192501 0.11586 0.0642861
vn -0.492607 0.734671 -2.2643e-17
v -0.188078 0.11743 0.171428
vn -0.258161 0.817853 -1.18665e-17
v -0.199211 0.110112 0.0642861
vn -0.855459 0.42527 -3.93219e-17
v -0.196298 0.113364 0.171428
vn -0.700979 0.597715 -3.22211e-17
v -0.196298 0.113364 0.0642861
vn -0.700979 0.597715 -3.22211e-17
v -0.199211 0.110112 0.171428
vn -0.855459 0.42527 -3.93219e-17
v -0.196298 0.113364 0.171428
vn -0.69781 0.60043 -3.20755e-17
v -0.192501 0.11586 0.0642861
vn -0.496488 0.732752 -2.28215e-17
v -0.196298 0.113364 0.0642861
vn -0.69781 0.60043 -3.20755e-17
v -0.192501 0.11586 0.171428
vn -0.496488 0.732752 -2.28215e-17
v 0.265833 -0.259297 -0.214285
vn -1.73007e-16 -0.84722 -5.5678e-33
v 0.2475 -0.259297 -0.214285
vn -1.73007e-16 -0.84722 -5.5678e-33
v 0.265833 -0.259297 -0.3
vn -1.73007e-16 -0.84722 -5.5678e-33
v 0.2475 -0.259297 -0.3
vn -1.73007e-16 -0.84722 -5.5678e-33
v 0.265833 -0.259297 -0.214285
vn 0.989095 -1.64319e-16 4.54645e-17
v 0.265833 -0.259297 -0.3
vn 0.989095 -1.64319e-16 4.54645e-17
v 0.265833 -0.196483 -0.214285
vn 0.989095 -1.64319e-16 4.54645e-17
v 0.265833 -0.196483 -0.3
vn 0.989095 -1.64319e-16 4.54645e-17
v 0.2475 -0.259297 -0.3
vn -0.989095 1.64319e-16 -4.54645e-17
v 0.2475 -0.259297 -0.214285
vn -0.989095 1.64319e-16 -4.54645e-17
v 0.2475 -0.196483 -0.3
vn -0.989095 1.64319e-16 -4.54645e-17
v 0.2475 -0.196483 -0.214285
vn -0.989095 1.64319e-16 -4.54645e-17
v 0.2475 -0.196483 -0.214285
vn 1.73007e-16 0.84722 5.5678e-33
v 0.265833 -0.196483 -0.214285
vn 1.73007e-16 0.84722 5.5678e-33
v 0.2475 -0.196483 -0.3
vn 1.73007e-16 0.84722 5.5678e-33
v 0.265833 -0.196483 -0.3
vn 1.73007e-16 0.84722 5.5678e-33
v -0.200555 -0.244547 -0.214285
vn 0.701286 -0.597451 3.22352e-17
v -0.200555 -0.244547 -0.3
vn 0.701286 -0.597451 3.22352e-17
v -0.196184 -0.239668 -0.214285
vn 0.855238 -0.425598 3.93117e-17
v -0.196184 -0.239668 -0.3
vn 0.855238 -0.425598 3.93117e-17
v -0.196184 -0.239668 -0.214285
vn 0.857918 -0.421621 3.94349e-17
v -0.196184 -0.239668 -0.3
vn 0.857918 -0.421621 3.94349e-17
v -0.193437 -0.233986 -0.214285
vn 0.954696 -0.221491 4.38834e-17
v -0.193437 -0.233986 -0.3
vn 0.954696 -0.221491 4.38834e-17
v -0.200555 -0.244547 -0.214285
vn 0.697499 -0.600696 3.20611e-17
v -0.20625 -0.248289 -0.214285
vn 0.496866 -0.732564 2.28388e-17
v -0.200555 -0.244547 -0.3
vn 0.697499 -0.600696 3.20611e-17
v -0.20625 -0.248289 -0.3
vn 0.496866 -0.732564 2.28388e-17
v -0.193437 -0.233986 -0.214285
vn 0.956083 -0.217059 4.39471e-17
v -0.193437 -0.233986 -0.3
vn 0.956083 -0.217059 4.39471e-17
v -0.192501 -0.22789 -0.214285
vn 0.989091 -0.00229376 4.54644e-17
v -0.192501 -0.22789 -0.3
vn 0.989091 -0.00229376 4.54644e-17
v -0.20625 -0.248289 -0.214285
vn 0.492225 -0.734859 2.26255e-17
v -0.212883 -0.250642 -0.214285
vn 0.258582 -0.817755 1.18859e-17
v -0.20625 -0.248289 -0.3
vn 0.492225 -0.734859 2.26255e-17
v -0.212883 -0.250642 -0.3
vn 0.258582 -0.817755 1.18859e-17
v -0.192501 -0.22789 -0.214285
vn 0.989091 0.00229376 4.54644e-17
v -0.192501 -0.22789 -0.3
vn 0.989091 0.00229376 4.54644e-17
v -0.193437 -0.221794 -0.214285
vn 0.956083 0.217059 4.39471e-17
v -0.193437 -0.221794 -0.3
vn 0.956083 0.217059 4.39471e-17
v -0.212883 -0.250642 -0.214285
vn 0.25341 -0.818942 1.16481e-17
v -0.22 -0.251445 -0.214285
vn 0.00268064 -0.847217 1.23218e-19
v -0.212883 -0.250642 -0.3
vn 0.25341 -0.818942 1.16481e-17
v -0.22 -0.251445 -0.3
vn 0.00268064 -0.847217 1.23218e-19
v -0.193437 -0.221794 -0.214285
vn 0.954696 0.221491 4.38834e-17
v -0.193437 -0.221794 -0.3
vn 0.954696 0.221491 4.38834e-17
v -0.196184 -0.216112 -0.214285
vn 0.857918 0.421621 3.94349e-17
v -0.196184 -0.216112 -0.3
vn 0.857918 0.421621 3.94349e-17
v -0.22 -0.251445 -0.214285
vn -0.00268064 -0.847217 -1.23218e-19
v -0.227118 -0.250642 -0.214285
vn -0.25341 -0.818942 -1.16481e-17
v -0.22 -0.251445 -0.3
vn -0.00268064 -0.847217 -1.23218e-19
v -0.227118 -0.250642 -0.3
vn -0.25341 -0.818942 -1.16481e-17
v -0.196184 -0.216112 -0.214285
vn 0.855238 0.425598 3.93117e-17
v -0.196184 -0.216112 -0.3
vn 0.855238 0.425598 3.93117e-17
v -0.200555 -0.211233 -0.214285
vn 0.701286 0.597451 3.22352e-17
v -0.200555 -0.211233 -0.3
vn 0.701286 0.597451 3.22352e-17
v -0.227118 -0.250642 -0.214285
vn -0.258582 -0.817755 -1.1886e-17
v -0.23375 -0.248289 -0.214285
vn -0.492226 -0.734858 -2.26256e-17
v -0.227118 -0.250642 -0.3
vn -0.258582 -0.817755 -1.1886e-17
v -0.23375 -0.248289 -0.3
vn -0.492226 -0.734858 -2.26256e-17
v -0.20625 -0.207489 -0.214285
vn 0.496868 0.732563 2.28389e-17
v -0.200555 -0.211233 -0.214285
vn 0.6975 0.600694 3.20611e-17
v -0.20625 -0.207489 -0.3
vn 0.496868 0.732563 2.28389e-17
v -0.200555 -0.211233 -0.3
vn 0.6975 0.600694 3.20611e-17
v -0.23375 -0.248289 -0.214285
vn -0.496865 -0.732565 -2.28388e-17
v -0.239446 -0.244547 -0.214285
vn -0.697497 -0.600697 -3.2061e-17
v -0.23375 -0.248289 -0.3
vn -0.496865 -0.732565 -2.28388e-17
v -0.239446 -0.244547 -0.3
vn -0.697497 -0.600697 -3.2061e-17
v -0.212883 -0.205137 -0.214285
vn 0.258582 0.817755 1.18859e-17
v -0.20625 -0.207489 -0.214285
vn 0.492225 0.734859 2.26255e-17
v -0.212883 -0.205137 -0.3
vn 0.258582 0.817755 1.18859e-17
v -0.20625 -0.207489 -0.3
vn 0.492225 0.734859 2.26255e-17
v -0.239446 -0.244547 -0.3
vn -0.701288 -0.59745 -3.22352e-17
v -0.239446 -0.244547 -0.214285
vn -0.701288 -0.59745 -3.22352e-17
v -0.243816 -0.239668 -0.3
vn -0.855239 -0.425596 -3.93117e-17
v -0.243816 -0.239668 -0.214285
vn -0.855239 -0.425596 -3.93117e-17
v -0.22 -0.204334 -0.214285
vn 0.0026779 0.847217 1.23092e-19
v -0.212883 -0.205137 -0.214285
vn 0.253407 0.818943 1.16481e-17
v -0.22 -0.204334 -0.3
vn 0.0026779 0.847217 1.23092e-19
v -0.212883 -0.205137 -0.3
vn 0.253407 0.818943 1.16481e-17
v -0.243816 -0.239668 -0.3
vn -0.857917 -0.421622 -3.94348e-17
v -0.243816 -0.239668 -0.214285
vn -0.857917 -0.421622 -3.94348e-17
v -0.246564 -0.233986 -0.3
vn -0.954695 -0.221493 -4.38833e-17
v -0.246564 -0.233986 -0.214285
vn -0.954695 -0.221493 -4.38833e-17
v -0.227118 -0.205137 -0.214285
vn -0.253407 0.818943 -1.16481e-17
v -0.22 -0.204334 -0.214285
vn -0.0026779 0.847217 -1.23092e-19
v -0.227118 -0.205137 -0.3
vn -0.253407 0.818943 -1.16481e-17
v -0.22 -0.204334 -0.3
vn -0.0026779 0.847217 -1.23092e-19
v -0.246564 -0.233986 -0.3
vn -0.956083 -0.217059 -4.39471e-17
v -0.246564 -0.233986 -0.214285
vn -0.956083 -0.217059 -4.39471e-17
v -0.2475 -0.22789 -0.3
vn -0.989091 -0.00229376 -4.54644e-17
v -0.2475 -0.22789 -0.214285
vn -0.989091 -0.00229376 -4.54644e-17
v -0.23375 -0.207489 -0.214285
vn -0.492226 0.734858 -2.26256e-17
v -0.227118 -0.205137 -0.214285
vn -0.258582 0.817755 -1.1886e-17
v -0.23375 -0.207489 -0.3
vn -0.492226 0.734858 -2.26256e-17
v -0.227118 -0.205137 -0.3
vn -0.258582 0.817755 -1.1886e-17
v -0.2475 -0.22789 -0.3
vn -0.989091 0.00229376 -4.54644e-17
v -0.2475 -0.22789 -0.214285
vn -0.989091 0.00229376 -4.54644e-17
v -0.246564 -0.221794 -0.3
vn -0.956083 0.217059 -4.39471e-17
v -0.246564 -0.221794 -0.214285
vn -0.956083 0.217059 -4.39471e-17
v -0.239446 -0.211233 -0.214285
vn -0.697499 0.600696 -3.20611e-17
v -0.23375 -0.207489 -0.214285
vn -0.496867 0.732563 -2.28388e-17
v -0.239446 -0.211233 -0.3
vn -0.697499 0.600696 -3.20611e-17
v -0.23375 -0.207489 -0.3
vn -0.496867 0.732563 -2.28388e-17
v -0.246564 -0.221794 -0.3
vn -0.954695 0.221493 -4.38833e-17
v -0.246564 -0.221794 -0.214285
vn -0.954695 0.221493 -4.38833e-17
v -0.243816 -0.216112 -0.3
vn -0.857917 0.421622 -3.94348e-17
v -0.243816 -0.216112 -0.214285
vn -0.857917 0.421622 -3.94348e-17
v -0.243816 -0.216112 -0.3
vn -0.855239 0.425596 -3.93117e-17
v -0.243816 -0.216112 -0.214285
vn -0.855239 0.425596 -3.93117e-17
v -0.239446 -0.211233 -0.3
vn -0.701288 0.59745 -3.22352e-17
v -0.239446 -0.211233 -0.214285
vn -0.701288 0.59745 -3.22352e-17
v -0.200555 0.211233 -0.214285
vn 0.697499 -0.600696 3.20611e-17
v -0.20625 0.207489 -0.214285
vn 0.496866 -0.732564 2.28388e-17
v -0.200555 0.211233 -0.3
vn 0.697499 -0.600696 3.20611e-17
v -0.20625 0.207489 -0.3
vn 0.496866 -0.732564 2.28388e-17
v -0.200555 0.211233 -0.214285
vn 0.701288 -0.59745 3.22352e-17
v -0.200555 0.211233 -0.3
vn 0.701288 -0.59745 3.22352e-17
v -0.196184 0.216112 -0.214285
vn 0.855238 -0.425597 3.93117e-17
v -0.196184 0.216112 -0.3
vn 0.855238 -0.425597 3.93117e-17
v -0.20625 0.207489 -0.214285
vn 0.492227 -0.734858 2.26256e-17
v -0.212883 0.205137 -0.214285
vn 0.258584 -0.817755 1.1886e-17
v -0.20625 0.207489 -0.3
vn 0.492227 -0.734858 2.26256e-17
v -0.212883 0.205137 -0.3
vn 0.258584 -0.817755 1.1886e-17
v -0.196184 0.216112 -0.214285
vn 0.857917 -0.421622 3.94349e-17
v -0.196184 0.216112 -0.3
vn 0.857917 -0.421622 3.94349e-17
v -0.193437 0.221792 -0.214285
vn 0.954696 -0.221491 4.38834e-17
v -0.193437 0.221792 -0.3
vn 0.954696 -0.221491 4.38834e-17
v -0.212883 0.205137 -0.214285
vn 0.253407 -0.818943 1.16481e-17
v -0.22 0.204334 -0.214285
vn 0.00267787 -0.847217 1.2309e-19
v -0.212883 0.205137 -0.3
vn 0.253407 -0.818943 1.16481e-17
v -0.22 0.204334 -0.3
vn 0.00267787 -0.847217 1.2309e-19
v -0.193437 0.221792 -0.214285
vn 0.956083 -0.217059 4.39471e-17
v -0.193437 0.221792 -0.3
vn 0.956083 -0.217059 4.39471e-17
v -0.192501 0.227889 -0.214285
vn 0.989091 -0.00229376 4.54644e-17
v -0.192501 0.227889 -0.3
vn 0.989091 -0.00229376 4.54644e-17
v -0.22 0.204334 -0.214285
vn -0.00267787 -0.847217 -1.2309e-19
v -0.227118 0.205137 -0.214285
vn -0.253407 -0.818943 -1.16481e-17
v -0.22 0.204334 -0.3
vn -0.00267787 -0.847217 -1.2309e-19
v -0.227118 0.205137 -0.3
vn -0.253407 -0.818943 -1.16481e-17
v -0.192501 0.227889 -0.214285
vn 0.989091 0.00229376 4.54644e-17
v -0.192501 0.227889 -0.3
vn 0.989091 0.00229376 4.54644e-17
v -0.193437 0.233986 -0.214285
vn 0.956083 0.217059 4.39471e-17
v -0.193437 0.233986 -0.3
vn 0.956083 0.217059 4.39471e-17
v -0.227118 0.205137 -0.214285
vn -0.258585 -0.817755 -1.1886e-17
v -0.23375 0.207489 -0.214285
vn -0.492228 -0.734857 -2.26257e-17
v -0.227118 0.205137 -0.3
vn -0.258585 -0.817755 -1.1886e-17
v -0.23375 0.207489 -0.3
vn -0.492228 -0.734857 -2.26257e-17
v -0.193437 0.233986 -0.214285
vn 0.954696 0.221491 4.38834e-17
v -0.193437 0.233986 -0.3
vn 0.954696 0.221491 4.38834e-17
v -0.196184 0.239668 -0.214285
vn 0.857918 0.421621 3.94349e-17
v -0.196184 0.239668 -0.3
vn 0.857918 0.421621 3.94349e-17
v -0.23375 0.207489 -0.214285
vn -0.496865 -0.732565 -2.28388e-17
v -0.239446 0.211233 -0.214285
vn -0.697497 -0.600697 -3.2061e-17
v -0.23375 0.207489 -0.3
vn -0.496865 -0.732565 -2.28388e-17
v -0.239446 0.211233 -0.3
vn -0.697497 -0.600697 -3.2061e-17
v -0.196184 0.239668 -0.214285
vn 0.855238 0.425598 3.93117e-17
v -0.196184 0.239668 -0.3
vn 0.855238 0.425598 3.93117e-17
v -0.200555 0.244545 -0.214285
vn 0.701286 0.597451 3.22352e-17
v -0.200555 0.244545 -0.3
vn 0.701286 0.597451 3.22352e-17
v -0.239446 0.211233 -0.3
vn -0.701289 -0.597449 -3.22353e-17
v -0.239446 0.211233 -0.214285
vn -0.701289 -0.597449 -3.22353e-17
v -0.243816 0.216112 -0.3
vn -0.85524 -0.425595 -3.93118e-17
v -0.243816 0.216112 -0.214285
vn -0.85524 -0.425595 -3.93118e-17
v -0.20625 0.248289 -0.214285
vn 0.496868 0.732563 2.28389e-17
v -0.200555 0.244545 -0.214285
vn 0.6975 0.600694 3.20611e-17
v -0.20625 0.248289 -0.3
vn 0.496868 0.732563 2.28389e-17
v -0.200555 0.244545 -0.3
vn 0.6975 0.600694 3.20611e-17
v -0.243816 0.216112 -0.3
vn -0.857916 -0.421623 -3.94348e-17
v -0.243816 0.216112 -0.214285
vn -0.857916 -0.421623 -3.94348e-17
v -0.246564 0.221792 -0.3
vn -0.954695 -0.221494 -4.38833e-17
v -0.246564 0.221792 -0.214285
vn -0.954695 -0.221494 -4.38833e-17
v -0.212883 0.250642 -0.214285
vn 0.258582 0.817755 1.18859e-17
v -0.20625 0.248289 -0.214285
vn 0.492225 0.734859 2.26255e-17
v -0.212883 0.250642 -0.3
vn 0.258582 0.817755 1.18859e-17
v -0.20625 0.248289 -0.3
vn 0.492225 0.734859 2.26255e-17
v -0.246564 0.221792 -0.3
vn -0.956083 -0.217059 -4.39471e-17
v -0.246564 0.221792 -0.214285
vn -0.956083 -0.217059 -4.39471e-17
v -0.2475 0.227889 -0.3
vn -0.989091 -0.00229376 -4.54644e-17
v -0.2475 0.227889 -0.214285
vn -0.989091 -0.00229376 -4.54644e-17
v -0.22 0.251445 -0.214285
vn 0.00267787 0.847217 1.2309e-19
v -0.212883 0.250642 -0.214285
vn 0.253407 0.818943 1.16481e-17
v -0.22 0.251445 -0.3
vn 0.00267787 0.847217 1.2309e-19
v -0.212883 0.250642 -0.3
vn 0.253407 0.818943 1.16481e-17
v -0.2475 0.227889 -0.3
vn -0.989091 0.00229376 -4.54644e-17
v -0.2475 0.227889 -0.214285
vn -0.989091 0.00229376 -4.54644e-17
v -0.246564 0.233986 -0.3
vn -0.956083 0.217059 -4.39471e-17
v -0.246564 0.233986 -0.214285
vn -0.956083 0.217059 -4.39471e-17
v -0.227118 0.250642 -0.214285
vn -0.253407 0.818943 -1.16481e-17
v -0.22 0.251445 -0.214285
vn -0.00267787 0.847217 -1.2309e-19
v -0.227118 0.250642 -0.3
vn -0.253407 0.818943 -1.16481e-17
v -0.22 0.251445 -0.3
vn -0.00267787 0.847217 -1.2309e-19
v -0.246564 0.233986 -0.3
vn -0.954695 0.221493 -4.38833e-17
v -0.246564 0.233986 -0.214285
vn -0.954695 0.221493 -4.38833e-17
v -0.243816 0.239668 -0.3
vn -0.857917 0.421622 -3.94348e-17
v -0.243816 0.239668 -0.214285
vn -0.857917 0.421622 -3.94348e-17
v -0.23375 0.248289 -0.214285
vn -0.492226 0.734858 -2.26256e-17
v -0.227118 0.250642 -0.214285
vn -0.258582 0.817755 -1.1886e-17
v -0.23375 0.248289 -0.3
vn -0.492226 0.734858 -2.26256e-17
v -0.227118 0.250642 -0.3
vn -0.258582 0.817755 -1.1886e-17
v -0.243816 0.239668 -0.3
vn -0.855239 0.425596 -3.93117e-17
v -0.243816 0.239668 -0.214285
vn -0.855239 0.425596 -3.93117e-17
v -0.239446 0.244545 -0.3
vn -0.701288 0.59745 -3.22352e-17
v -0.239446 0.244545 -0.214285
vn -0.701288 0.59745 -3.22352e-17
v -0.239446 0.244545 -0.214285
vn -0.697499 0.600696 -3.20611e-17
v -0.23375 0.248289 -0.214285
vn -0.496867 0.732563 -2.28388e-17
v -0.239446 0.244545 -0.3
vn -0.697499 0.600696 -3.20611e-17
v -0.23375 0.248289 -0.3
vn -0.496867 0.732563 -2.28388e-17
v 0.2475 0.196482 -0.3
vn -0.989095 1.64319e-16 -4.54645e-17
v 0.2475 0.196482 -0.214285
vn -0.989095 1.64319e-16 -4.54645e-17
v 0.2475 0.259297 -0.3
vn -0.989095 1.64319e-16 -4.54645e-17
v 0.2475 0.259297 -0.214285
vn -0.989095 1.64319e-16 -4.54645e-17
v 0.265833 0.196482 -0.214285
vn -1.73007e-16 -0.84722 -5.5678e-33
v 0.2475 0.196482 -0.214285
vn -1.73007e-16 -0.84722 -5.5678e-33
v 0.265833 0.196482 -0.3
vn -1.73007e-16 -0.84722 -5.5678e-33
v 0.2475 0.196482 -0.3
vn -1.73007e-16 -0.84722 -5.5678e-33
v 0.2475 0.259297 -0.214285
vn 1.73007e-16 0.84722 5.5678e-33
v 0.265833 0.259297 -0.214285
vn 1.73007e-16 0.84722 5.5678e-33
v 0.2475 0.259297 -0.3
vn 1.73007e-16 0.84722 5.5678e-33
v 0.265833 0.259297 -0.3
vn 1.73007e-16 0.84722 5.5678e-33
v 0.265833 0.196482 -0.214285
vn 0.989095 -1.64319e-16 4.54645e-17
v 0.265833 0.196482 -0.3
vn 0.989095 -1.64319e-16 4.54645e-17
v 0.265833 0.259297 -0.214285
vn 0.989095 -1.64319e-16 4.54645e-17
v 0.265833 0.259297 -0.3
vn 0.989095 -1.64319e-16 4.54645e-17
v 0.275 0.275 -0.214285
vn -6.05645e-17 3.70851e-33 0.742492
v 0.265833 0.259297 -0.214285
vn -6.05645e-17 3.70851e-33 0.742492
v 0.275 -0.275 -0.214285
vn -6.05645e-17 3.70851e-33 0.742492
v -0.275 0.275 -0.214285
vn -6.05645e-17 3.70851e-33 0.742492
v 0.2475 0.259297 -0.214285
vn -6.05645e-17 3.70851e-33 0.742492
v 0.2475 0.196482 -0.214285
vn -6.05645e-17 3.70851e-33 0.742492
v -0.20625 0.248289 -0.214285
vn -6.05645e-17 3.70851e-33 0.742492
v -0.200555 0.244545 -0.214285
vn -6.05645e-17 3.70851e-33 0.742492
v 0.2475 -0.196483 -0.214285
vn -6.05645e-17 3.70851e-33 0.742492
v -0.196184 0.239668 -0.214285
vn -6.05645e-17 3.70851e-33 0.742492
v 0.2475 -0.259297 -0.214285
vn -6.05645e-17 3.70851e-33 0.742492
v -0.193437 0.233986 -0.214285
vn -6.05645e-17 3.70851e-33 0.742492
v -0.192501 0.227889 -0.214285
vn -6.05645e-17 3.70851e-33 0.742492
v -0.212883 0.250642 -0.214285
vn -6.05645e-17 3.70851e-33 0.742492
v -0.22 0.251445 -0.214285
vn -6.05645e-17 3.70851e-33 0.742492
v -0.227118 0.250642 -0.214285
vn -6.05645e-17 3.70851e-33 0.742492
v -0.23375 0.248289 -0.214285
vn -6.05645e-17 3.70851e-33 0.742492
v -0.239446 0.244545 -0.214285
vn -6.05645e-17 3.70851e-33 0.742492
v -0.243816 0.239668 -0.214285
vn -6.05645e-17 3.70851e-33 0.742492
v -0.246564 0.233986 -0.214285
vn -6.05645e-17 3.70851e-33 0.742492
v -0.2475 0.227889 -0.214285
vn -6.05645e-17 3.70851e-33 0.742492
v -0.2475 -0.22789 -0.214285
vn -6.05645e-17 3.70851e-33 0.742492
v 0.265833 -0.259297 -0.214285
vn -6.05645e-17 3.70851e-33 0.742492
v -0.275 -0.275 -0.214285
vn -6.05645e-17 3.70851e-33 0.742492
v 0.265833 0.196482 -0.214285
vn -6.05645e-17 3.70851e-33 0.742492
v 0.265833 -0.196483 -0.214285
vn -6.05645e-17 3.70851e-33 0.742492
v -0.20625 -0.248289 -0.214285
vn -6.05645e-17 3.70851e-33 0.742492
v -0.200555 -0.244547 -0.214285
vn -6.05645e-17 3.70851e-33 0.742492
v -0.196184 -0.239668 -0.214285
vn -6.05645e-17 3.70851e-33 0.742492
v -0.193437 -0.233986 -0.214285
vn -6.05645e-17 3.70851e-33 0.742492
v -0.192501 -0.22789 -0.214285
vn -6.05645e-17 3.70851e-33 0.742492
v -0.212883 -0.250642 -0.214285
vn -6.05645e-17 3.70851e-33 0.742492
v -0.22 -0.251445 -0.214285
vn -6.05645e-17 3.70851e-33 0.742492
v -0.227118 -0.250642 -0.214285
vn -6.05645e-17 3.70851e-33 0.742492
v -0.23375 -0.248289 -0.214285
vn -6.05645e-17 3.70851e-33 0.742492
v -0.239446 -0.244547 -0.214285
vn -6.05645e-17 3.70851e-33 0.742492
v -0.243816 -0.239668 -0.214285
vn -6.05645e-17 3.70851e-33 0.742492
v -0.246564 -0.233986 -0.214285
vn -6.05645e-17 3.70851e-33 0.742492
v -0.193437 0.221792 -0.214285
vn -6.05645e-17 3.70851e-33 0.742492
v -0.193437 -0.221794 -0.214285
vn -6.05645e-17 3.70851e-33 0.742492
v -0.196184 0.216112 -0.214285
vn -6.05645e-17 3.70851e-33 0.742492
v -0.196184 -0.216112 -0.214285
vn -6.05645e-17 3.70851e-33 0.742492
v -0.200555 0.211233 -0.214285
vn -6.05645e-17 3.70851e-33 0.742492
v -0.200555 -0.211233 -0.214285
vn -6.05645e-17 3.70851e-33 0.742492
v -0.20625 0.207489 -0.214285
vn -6.05645e-17 3.70851e-33 0.742492
v -0.20625 -0.207489 -0.214285
vn -6.05645e-17 3.70851e-33 0.742492
v -0.212883 0.205137 -0.214285
vn -6.05645e-17 3.70851e-33 0.742492
v -0.212883 -0.205137 -0.214285
vn -6.05645e-17 3.70851e-33 0.742492
v -0.22 0.204334 -0.214285
vn -6.05645e-17 3.70851e-33 0.742492
v -0.22 -0.204334 -0.214285
vn -6.05645e-17 3.70851e-33 0.742492
v -0.227118 0.205137 -0.214285
vn -6.05645e-17 3.70851e-33 0.742492
v -0.227118 -0.205137 -0.214285
vn -6.05645e-17 3.70851e-33 0.742492
v -0.23375 0.207489 -0.214285
vn -6.05645e-17 3.70851e-33 0.742492
v -0.23375 -0.207489 -0.214285
vn -6.05645e-17 3.70851e-33 0.742492
v -0.239446 0.211233 -0.214285
vn -6.05645e-17 3.70851e-33 0.742492
v -0.239446 -0.211233 -0.214285
vn -6.05645e-17 3.70851e-33 0.742492
v -0.243816 0.216112 -0.214285
vn -6.05645e-17 3.70851e-33 0.742492
v -0.243816 -0.216112 -0.214285
vn -6.05645e-17 3.70851e-33 0.742492
v -0.246564 0.221792 -0.214285
vn -6.05645e-17 3.70851e-33 0.742492
v -0.246564 -0.221794 -0.214285
vn -6.05645e-17 3.70851e-33 0.742492
v 0.2475 0.259297 -0.3
vn -6.05645e-17 3.70851e-33 0.742492
v 0.265833 0.196482 -0.3
vn -6.05645e-17 3.70851e-33 0.742492
v 0.265833 0.259297 -0.3
vn -6.05645e-17 3.70851e-33 0.742492
v 0.2475 0.196482 -0.3
vn -6.05645e-17 3.70851e-33 0.742492
v -0.193437 -0.221794 -0.3
vn -6.05645e-17 3.70851e-33 0.742492
v -0.193437 -0.233986 -0.3
vn -6.05645e-17 3.70851e-33 0.742492
v -0.192501 -0.22789 -0.3
vn -6.05645e-17 3.70851e-33 0.742492
v -0.196184 -0.216112 -0.3
vn -6.05645e-17 3.70851e-33 0.742492
v -0.196184 -0.239668 -0.3
vn -6.05645e-17 3.70851e-33 0.742492
v -0.200555 -0.244547 -0.3
vn -6.05645e-17 3.70851e-33 0.742492
v -0.200555 -0.211233 -0.3
vn -6.05645e-17 3.70851e-33 0.742492
v -0.20625 -0.207489 -0.3
vn -6.05645e-17 3.70851e-33 0.742492
v -0.20625 -0.248289 -0.3
vn -6.05645e-17 3.70851e-33 0.742492
v -0.212883 -0.205137 -0.3
vn -6.05645e-17 3.70851e-33 0.742492
v -0.212883 -0.250642 -0.3
vn -6.05645e-17 3.70851e-33 0.742492
v -0.22 -0.204334 -0.3
vn -6.05645e-17 3.70851e-33 0.742492
v -0.22 -0.251445 -0.3
vn -6.05645e-17 3.70851e-33 0.742492
v -0.227118 -0.205137 -0.3
vn -6.05645e-17 3.70851e-33 0.742492
v -0.227118 -0.250642 -0.3
vn -6.05645e-17 3.70851e-33 0.742492
v -0.23375 -0.207489 -0.3
vn -6.05645e-17 3.70851e-33 0.742492
v -0.23375 -0.248289 -0.3
vn -6.05645e-17 3.70851e-33 0.742492
v -0.239446 -0.211233 -0.3
vn -6.05645e-17 3.70851e-33 0.742492
v -0.239446 -0.244547 -0.3
vn -6.05645e-17 3.70851e-33 0.742492
v -0.243816 -0.216112 -0.3
vn -6.05645e-17 3.70851e-33 0.742492
v -0.243816 -0.239668 -0.3
vn -6.05645e-17 3.70851e-33 0.742492
v -0.246564 -0.233986 -0.3
vn -6.05645e-17 3.70851e-33 0.742492
v -0.246564 -0.221794 -0.3
vn -6.05645e-17 3.70851e-33 0.742492
v -0.2475 -0.22789 -0.3
vn -6.05645e-17 3.70851e-33 0.742492
v 0.2475 -0.196483 -0.3
vn -6.05645e-17 3.70851e-33 0.742492
v 0.265833 -0.259297 -0.3
vn -6.05645e-17 3.70851e-33 0.742492
v 0.265833 -0.196483 -0.3
vn -6.05645e-17 3.70851e-33 0.742492
v 0.2475 -0.259297 -0.3
vn -6.05645e-17 3.70851e-33 0.742492
v -0.193437 0.233986 -0.3
vn -6.05645e-17 3.70851e-33 0.742492
v -0.193437 0.221792 -0.3
vn -6.05645e-17 3.70851e-33 0.742492
v -0.192501 0.227889 -0.3
vn -6.05645e-17 3.70851e-33 0.742492
v -0.196184 0.239668 -0.3
vn -6.05645e-17 3.70851e-33 0.742492
v -0.196184 0.216112 -0.3
vn -6.05645e-17 3.70851e-33 0.742492
v -0.200555 0.211233 -0.3
vn -6.05645e-17 3.70851e-33 0.742492
v -0.200555 0.244545 -0.3
vn -6.05645e-17 3.70851e-33 0.742492
v -0.20625 0.248289 -0.3
vn -6.05645e-17 3.70851e-33 0.742492
v -0.20625 0.207489 -0.3
vn -6.05645e-17 3.70851e-33 0.742492
v -0.212883 0.250642 -0.3
vn -6.05645e-17 3.70851e-33 0.742492
v -0.212883 0.205137 -0.3
vn -6.05645e-17 3.70851e-33 0.742492
v -0.22 0.251445 -0.3
vn -6.05645e-17 3.70851e-33 0.742492
v -0.22 0.204334 -0.3
vn -6.05645e-17 3.70851e-33 0.742492
v -0.227118 0.250642 -0.3
vn -6.05645e-17 3.70851e-33 0.742492
v -0.227118 0.205137 -0.3
vn -6.05645e-17 3.70851e-33 0.742492
v -0.23375 0.248289 -0.3
vn -6.05645e-17 3.70851e-33 0.742492
v -0.23375 0.207489 -0.3
vn -6.05645e-17 3.70851e-33 0.742492
v -0.239446 0.244545 -0.3
vn -6.05645e-17 3.70851e-33 0.742492
v -0.239446 0.211233 -0.3
vn -6.05645e-17 3.70851e-33 0.742492
v -0.243816 0.239668 -0.3
vn -6.05645e-17 3.70851e-33 0.742492
v -0.243816 0.216112 -0.3
vn -6.05645e-17 3.70851e-33 0.742492
v -0.246564 0.221792 -0.3
vn -6.05645e-17 3.70851e-33 0.742492
v -0.246564 0.233986 -0.3
vn -6.05645e-17 3.70851e-33 0.742492
v -0.2475 0.227889 -0.3
vn -6.05645e-17 3.70851e-33 0.742492
v 0.2475 -0.196483 -0.214285
vn 6.05645e-17 -3.70851e-33 -0.742492
v 0.2475 0.196482 -0.214285
vn 6.05645e-17 -3.70851e-33 -0.742492
v 0.265833 -0.196483 -0.214285
vn 6.05645e-17 -3.70851e-33 -0.742492
v 0.265833 0.196482 -0.214285
vn 6.05645e-17 -3.70851e-33 -0.742492
v -0.2475 -0.22789 -0.214285
vn 6.05645e-17 -3.70851e-33 -0.742492
v -0.2475 0.227889 -0.214285
vn 6.05645e-17 -3.70851e-33 -0.742492
v -0.246564 -0.221794 -0.214285
vn 6.05645e-17 -3.70851e-33 -0.742492
v -0.246564 0.221792 -0.214285
vn 6.05645e-17 -3.70851e-33 -0.742492
v -0.243816 -0.216112 -0.214285
vn 6.05645e-17 -3.70851e-33 -0.742492
v -0.243816 0.216112 -0.214285
vn 6.05645e-17 -3.70851e-33 -0.742492
v -0.239446 -0.211233 -0.214285
vn 6.05645e-17 -3.70851e-33 -0.742492
v -0.239446 0.211233 -0.214285
vn 6.05645e-17 -3.70851e-33 -0.742492
v -0.23375 -0.207489 -0.214285
vn 6.05645e-17 -3.70851e-33 -0.742492
v -0.23375 0.207489 -0.214285
vn 6.05645e-17 -3.70851e-33 -0.742492
v -0.227118 -0.205137 -0.214285
vn 6.05645e-17 -3.70851e-33 -0.742492
v -0.227118 0.205137 -0.214285
vn 6.05645e-17 -3.70851e-33 -0.742492
v -0.22 -0.204334 -0.214285
vn 6.05645e-17 -3.70851e-33 -0.742492
v -0.22 0.204334 -0.214285
vn 6.05645e-17 -3.70851e-33 -0.742492
v -0.212883 -0.205137 -0.214285
vn 6.05645e-17 -3.70851e-33 -0.742492
v -0.212883 0.205137 -0.214285
vn 6.05645e-17 -3.70851e-33 -0.742492
v -0.20625 -0.207489 -0.214285
vn 6.05645e-17 -3.70851e-33 -0.742492
v -0.20625 0.207489 -0.214285
vn 6.05645e-17 -3.70851e-33 -0.742492
v -0.200555 -0.211233 -0.214285
vn 6.05645e-17 -3.70851e-33 -0.742492
v -0.200555 0.211233 -0.214285
vn 6.05645e-17 -3.70851e-33 -0.742492
v -0.196184 -0.216112 -0.214285
vn 6.05645e-17 -3.70851e-33 -0.742492
v -0.196184 0.216112 -0.214285
vn 6.05645e-17 -3.70851e-33 -0.742492
v -0.193437 -0.221794 -0.214285
vn 6.05645e-17 -3.70851e-33 -0.742492
v -0.193437 0.221792 -0.214285
vn 6.05645e-17 -3.70851e-33 -0.742492
v -0.192501 -0.22789 -0.214285
vn 6.05645e-17 -3.70851e-33 -0.742492
v -0.192501 0.227889 -0.214285
vn 6.05645e-17 -3.70851e-33 -0.742492
v -0.275 0.275 -0.214285
vn 6.05645e-17 -3.70851e-33 -0.742492
v -0.275 -0.275 -0.214285
vn 6.05645e-17 -3.70851e-33 -0.742492
v -0.246564 -0.233986 -0.214285
vn 6.05645e-17 -3.70851e-33 -0.742492
v -0.243816 -0.239668 -0.214285
vn 6.05645e-17 -3.70851e-33 -0.742492
v -0.239446 -0.244547 -0.214285
vn 6.05645e-17 -3.70851e-33 -0.742492
v -0.23375 -0.248289 -0.214285
vn 6.05645e-17 -3.70851e-33 -0.742492
v -0.227118 -0.250642 -0.214285
vn 6.05645e-17 -3.70851e-33 -0.742492
v -0.22 -0.251445 -0.214285
vn 6.05645e-17 -3.70851e-33 -0.742492
v -0.212883 -0.250642 -0.214285
vn 6.05645e-17 -3.70851e-33 -0.742492
v -0.20625 -0.248289 -0.214285
vn 6.05645e-17 -3.70851e-33 -0.742492
v 0.2475 -0.259297 -0.214285
vn 6.05645e-17 -3.70851e-33 -0.742492
v -0.193437 -0.233986 -0.214285
vn 6.05645e-17 -3.70851e-33 -0.742492
v -0.196184 -0.239668 -0.214285
vn 6.05645e-17 -3.70851e-33 -0.742492
v -0.200555 -0.244547 -0.214285
vn 6.05645e-17 -3.70851e-33 -0.742492
v 0.265833 -0.259297 -0.214285
vn 6.05645e-17 -3.70851e-33 -0.742492
v 0.265833 0.259297 -0.214285
vn 6.05645e-17 -3.70851e-33 -0.742492
v 0.275 -0.275 -0.214285
vn 6.05645e-17 -3.70851e-33 -0.742492
v -0.246564 0.233986 -0.214285
vn 6.05645e-17 -3.70851e-33 -0.742492
v -0.243816 0.239668 -0.214285
vn 6.05645e-17 -3.70851e-33 -0.742492
v -0.239446 0.244545 -0.214285
vn 6.05645e-17 -3.70851e-33 -0.742492
v -0.23375 0.248289 -0.214285
vn 6.05645e-17 -3.70851e-33 -0.742492
v -0.227118 0.250642 -0.214285
vn 6.05645e-17 -3.70851e-33 -0.742492
v -0.22 0.251445 -0.214285
vn 6.05645e-17 -3.70851e-33 -0.742492
v -0.212883 0.250642 -0.214285
vn 6.05645e-17 -3.70851e-33 -0.742492
v -0.20625 0.248289 -0.214285
vn 6.05645e-17 -3.70851e-33 -0.742492
v -0.193437 0.233986 -0.214285
vn 6.05645e-17 -3.70851e-33 -0.742492
v -0.196184 0.239668 -0.214285
vn 6.05645e-17 -3.70851e-33 -0.742492
v -0.200555 0.244545 -0.214285
vn 6.05645e-17 -3.70851e-33 -0.742492
v 0.2475 0.259297 -0.214285
vn 6.05645e-17 -3.70851e-33 -0.742492
v 0.275 0.275 -0.214285
vn 6.05645e-17 -3.70851e-33 -0.742492
v 0.2475 0.196482 -0.3
vn 6.05645e-17 -3.70851e-33 -0.742492
v 0.2475 0.259297 -0.3
vn 6.05645e-17 -3.70851e-33 -0.742492
v 0.265833 0.196482 -0.3
vn 6.05645e-17 -3.70851e-33 -0.742492
v 0.265833 0.259297 -0.3
vn 6.05645e-17 -3.70851e-33 -0.742492
v -0.2475 -0.22789 -0.3
vn 6.05645e-17 -3.70851e-33 -0.742492
v -0.246564 -0.221794 -0.3
vn 6.05645e-17 -3.70851e-33 -0.742492
v -0.246564 -0.233986 -0.3
vn 6.05645e-17 -3.70851e-33 -0.742492
v -0.243816 -0.216112 -0.3
vn 6.05645e-17 -3.70851e-33 -0.742492
v -0.243816 -0.239668 -0.3
vn 6.05645e-17 -3.70851e-33 -0.742492
v -0.239446 -0.244547 -0.3
vn 6.05645e-17 -3.70851e-33 -0.742492
v -0.239446 -0.211233 -0.3
vn 6.05645e-17 -3.70851e-33 -0.742492
v -0.23375 -0.248289 -0.3
vn 6.05645e-17 -3.70851e-33 -0.742492
v -0.23375 -0.207489 -0.3
vn 6.05645e-17 -3.70851e-33 -0.742492
v -0.227118 -0.250642 -0.3
vn 6.05645e-17 -3.70851e-33 -0.742492
v -0.227118 -0.205137 -0.3
vn 6.05645e-17 -3.70851e-33 -0.742492
v -0.22 -0.251445 -0.3
vn 6.05645e-17 -3.70851e-33 -0.742492
v -0.22 -0.204334 -0.3
vn 6.05645e-17 -3.70851e-33 -0.742492
v -0.212883 -0.250642 -0.3
vn 6.05645e-17 -3.70851e-33 -0.742492
v -0.212883 -0.205137 -0.3
vn 6.05645e-17 -3.70851e-33 -0.742492
v -0.20625 -0.248289 -0.3
vn 6.05645e-17 -3.70851e-33 -0.742492
v -0.20625 -0.207489 -0.3
vn 6.05645e-17 -3.70851e-33 -0.742492
v -0.200555 -0.244547 -0.3
vn 6.05645e-17 -3.70851e-33 -0.742492
v -0.200555 -0.211233 -0.3
vn 6.05645e-17 -3.70851e-33 -0.742492
v -0.196184 -0.216112 -0.3
vn 6.05645e-17 -3.70851e-33 -0.742492
v -0.196184 -0.239668 -0.3
vn 6.05645e-17 -3.70851e-33 -0.742492
v -0.193437 -0.233986 -0.3
vn 6.05645e-17 -3.70851e-33 -0.742492
v -0.193437 -0.221794 -0.3
vn 6.05645e-17 -3.70851e-33 -0.742492
v -0.192501 -0.22789 -0.3
vn 6.05645e-17 -3.70851e-33 -0.742492
v 0.2475 -0.259297 -0.3
vn 6.05645e-17 -3.70851e-33 -0.742492
v 0.2475 -0.196483 -0.3
vn 6.05645e-17 -3.70851e-33 -0.742492
v 0.265833 -0.259297 -0.3
vn 6.05645e-17 -3.70851e-33 -0.742492
v 0.265833 -0.196483 -0.3
vn 6.05645e-17 -3.70851e-33 -0.742492
v -0.2475 0.227889 -0.3
vn 6.05645e-17 -3.70851e-33 -0.742492
v -0.246564 0.233986 -0.3
vn 6.05645e-17 -3.70851e-33 -0.742492
v -0.246564 0.221792 -0.3
vn 6.05645e-17 -3.70851e-33 -0.742492
v -0.243816 0.239668 -0.3
vn 6.05645e-17 -3.70851e-33 -0.742492
v -0.243816 0.216112 -0.3
vn 6.05645e-17 -3.70851e-33 -0.742492
v -0.239446 0.211233 -0.3
vn 6.05645e-17 -3.70851e-33 -0.742492
v -0.239446 0.244545 -0.3
vn 6.05645e-17 -3.70851e-33 -0.742492
v -0.23375 0.207489 -0.3
vn 6.05645e-17 -3.70851e-33 -0.742492
v -0.23375 0.248289 -0.3
vn 6.05645e-17 -3.70851e-33 -0.742492
v -0.227118 0.205137 -0.3
vn 6.05645e-17 -3.70851e-33 -0.742492
v -0.227118 0.250642 -0.3
vn 6.05645e-17 -3.70851e-33 -0.742492
v -0.22 0.204334 -0.3
vn 6.05645e-17 -3.70851e-33 -0.742492
v -0.22 0.251445 -0.3
vn 6.05645e-17 -3.70851e-33 -0.742492
v -0.212883 0.205137 -0.3
vn 6.05645e-17 -3.70851e-33 -0.742492
v -0.212883 0.250642 -0.3
vn 6.05645e-17 -3.70851e-33 -0.742492
v -0.20625 0.207489 -0.3
vn 6.05645e-17 -3.70851e-33 -0.742492
v -0.20625 0.248289 -0.3
vn 6.05645e-17 -3.70851e-33 -0.742492
v -0.200555 0.211233 -0.3
vn 6.05645e-17 -3.70851e-33 -0.742492
v -0.200555 0.244545 -0.3
vn 6.05645e-17 -3.70851e-33 -0.742492
v -0.196184 0.239668 -0.3
vn 6.05645e-17 -3.70851e-33 -0.742492
v -0.196184 0.216112 -0.3
vn 6.05645e-17 -3.70851e-33 -0.742492
v -0.193437 0.221792 -0.3
vn 6.05645e-17 -3.70851e-33 -0.742492
v -0.193437 0.233986 -0.3
vn 6.05645e-17 -3.70851e-33 -0.742492
v -0.192501 0.227889 -0.3
vn 6.05645e-17 -3.70851e-33 -0.742492
f 1//1 2//2 3//3
f 2//2 1//1 4//4
f 5//5 6//6 7//7
f 6//6 5//5 8//8
f 6//6 8//8 9//9
f 9//9 8//8 10//10
f 10//10 8//8 11//11
f 11//11 8//8 12//12
f 13//13 7//7 6//6
f 14//14 4//4 1//1
f 4//4 14//14 15//15
f 4//4 15//15 16//16
f 4//4 16//16 17//17
f 4//4 17//17 18//18
f 18//18 17//17 19//19
f 15//15 14//14 20//20
f 20//20 14//14 21//21
f 21//21 14//14 22//22
f 22//22 14//14 23//23
f 23//23 14//14 24//24
f 24//24 14//14 25//25
f 25//25 14//14 26//26
f 26//26 14//14 27//27
f 27//27 14//14 28//28
f 28//28 14//14 29//29
f 29//29 14//14 30//30
f 19//19 31//31 32//32
f 31//31 19//19 33//33
f 33//33 19//19 34//34
f 34//34 19//19 17//17
f 32//32 31//31 35//35
f 32//32 35//35 36//36
f 32//32 36//36 37//37
f 32//32 37//37 38//38
f 32//32 38//38 39//39
f 32//32 39//39 40//40
f 32//32 40//40 41//41
f 32//32 41//41 42//42
f 32//32 42//42 43//43
f 32//32 43//43 30//30
f 32//32 30//30 14//14
f 44//44 34//34 17//17
f 34//34 44//44 45//45
f 45//45 44//44 46//46
f 45//45 46//46 47//47
f 47//47 46//46 48//48
f 47//47 48//48 49//49
f 49//49 48//48 50//50
f 49//49 50//50 51//51
f 51//51 50//50 52//52
f 51//51 52//52 53//53
f 53//53 52//52 54//54
f 53//53 54//54 55//55
f 55//55 54//54 56//56
f 55//55 56//56 57//57
f 57//57 56//56 58//58
f 57//57 58//58 59//59
f 59//59 58//58 60//60
f 59//59 60//60 61//61
f 61//61 60//60 62//62
f 61//61 62//62 63//63
f 63//63 62//62 64//64
f 63//63 64//64 65//65
f 65//65 64//64 29//29
f 65//65 29//29 30//30
f 66//66 67//67 68//68
f 67//67 69//69 70//70
f 69//69 67//67 71//71
f 71//71 67//67 66//66
f 72//72 73//73 74//74
f 73//73 72//72 75//75
f 76//76 77//77 78//78
f 77//77 76//76 79//79
f 80//80 81//81 82//82
f 81//81 80//80 83//83
f 83//83 80//80 84//84
f 80//80 85//85 86//86
f 85//85 80//80 87//87
f 87//87 80//80 88//88
f 87//87 88//88 89//89
f 89//89 88//88 90//90
f 90//90 88//88 91//91
f 91//91 88//88 92//92
f 92//92 88//88 93//93
f 93//93 88//88 94//94
f 94//94 88//88 95//95
f 95//95 88//88 96//96
f 96//96 88//88 97//97
f 97//97 88//88 98//98
f 98//98 88//88 99//99
f 84//84 100//100 101//101
f 100//100 84//84 102//102
f 102//102 84//84 103//103
f 103//103 84//84 104//104
f 104//104 84//84 105//105
f 105//105 84//84 80//80
f 105//105 80//80 86//86
f 102//102 103//103 106//106
f 102//102 106//106 107//107
f 102//102 107//107 108//108
f 102//102 108//108 109//109
f 102//102 109//109 110//110
f 102//102 110//110 111//111
f 102//102 111//111 112//112
f 102//102 112//112 113//113
f 102//102 113//113 114//114
f 102//102 114//114 99//99
f 102//102 99//99 88//88
f 115//115 105//105 86//86
f 105//105 115//115 116//116
f 116//116 115//115 117//117
f 116//116 117//117 118//118
f 118//118 117//117 119//119
f 118//118 119//119 120//120
f 120//120 119//119 121//121
f 120//120 121//121 122//122
f 122//122 121//121 123//123
f 122//122 123//123 124//124
f 124//124 123//123 125//125
f 124//124 125//125 126//126
f 126//126 125//125 127//127
f 126//126 127//127 128//128
f 128//128 127//127 129//129
f 128//128 129//129 130//130
f 130//130 129//129 131//131
f 130//130 131//131 132//132
f 132//132 131//131 133//133
f 132//132 133//133 134//134
f 134//134 133//133 135//135
f 134//134 135//135 136//136
f 136//136 135//135 98//98
f 136//136 98//98 99//99
f 137//137 138//138 139//139
f 138//138 137//137 140//140
f 141//141 142//142 143//143
f 142//142 141//141 144//144
f 145//145 146//146 147//147
f 146//146 145//145 148//148
f 146//146 148//148 149//149
f 148//148 145//145 150//150
f 149//149 148//148 144//144
f 149//149 144//144 141//141
f 151//151 152//152 153//153
f 152//152 151//151 154//154
f 154//154 151//151 155//155
f 155//155 156//156 157//157
f 156//156 155//155 158//158
f 158//158 155//155 151//151
f 159//159 160//160 161//161
f 160//160 159//159 162//162
f 163//163 164//164 165//165
f 164//164 163//163 166//166
f 160//160 167//167 168//168
f 167//167 160//160 162//162
f 168//168 167//167 166//166
f 168//168 166//166 163//163
f 18//18 169//169 170//170
f 169//169 18//18 19//19
f 171//171 172//172 173//173
f 172//172 171//171 174//174
f 81//81 175//175 176//176
f 175//175 81//81 101//101
f 101//101 81//81 83//83
f 101//101 83//83 84//84
f 177//177 178//178 179//179
f 178//178 177//177 180//180
f 181//181 182//182 183//183
f 182//182 181//181 184//184
f 184//184 181//181 185//185
f 185//185 181//181 186//186
f 142//142 148//148 150//150
f 148//148 142//142 144//144
f 187//187 188//188 189//189
f 188//188 187//187 190//190
f 191//191 192//192 193//193
f 192//192 191//191 194//194
f 195//195 196//196 197//197
f 196//196 195//195 198//198
f 199//199 200//200 201//201
f 200//200 199//199 202//202
f 203//203 204//204 205//205
f 204//204 203//203 206//206
f 207//207 208//208 209//209
f 208//208 207//207 210//210
f 211//211 212//212 213//213
f 212//212 211//211 214//214
f 215//215 216//216 217//217
f 216//216 215//215 218//218
f 219//219 220//220 221//221
f 220//220 219//219 222//222
f 223//223 224//224 225//225
f 224//224 223//223 226//226
f 227//227 228//228 229//229
f 228//228 227//227 230//230
f 231//231 232//232 233//233
f 232//232 231//231 234//234
f 235//235 236//236 237//237
f 236//236 235//235 238//238
f 239//239 240//240 241//241
f 240//240 239//239 242//242
f 243//243 244//244 245//245
f 244//244 243//243 246//246
f 247//247 248//248 249//249
f 248//248 247//247 250//250
f 251//251 252//252 253//253
f 252//252 251//251 254//254
f 255//255 256//256 257//257
f 256//256 255//255 258//258
f 259//259 260//260 261//261
f 260//260 259//259 262//262
f 263//263 264//264 265//265
f 264//264 263//263 266//266
f 267//267 268//268 269//269
f 268//268 267//267 270//270
f 271//271 272//272 273//273
f 272//272 271//271 274//274
f 275//275 276//276 277//277
f 276//276 275//275 278//278
f 279//279 280//280 281//281
f 280//280 279//279 282//282
f 283//283 284//284 285//285
f 284//284 283//283 286//286
f 287//287 288//288 289//289
f 288//288 287//287 290//290
f 291//291 292//292 293//293
f 292//292 291//291 294//294
f 295//295 296//296 297//297
f 296//296 295//295 298//298
f 299//299 300//300 301//301
f 300//300 299//299 302//302
f 303//303 304//304 305//305
f 304//304 303//303 306//306
f 307//307 308//308 309//309
f 308//308 307//307 310//310
f 311//311 312//312 313//313
f 312//312 311//311 314//314
f 315//315 316//316 317//317
f 316//316 315//315 318//318
f 319//319 320//320 321//321
f 320//320 319//319 322//322
f 323//323 324//324 325//325
f 324//324 323//323 326//326
f 327//327 328//328 329//329
f 328//328 327//327 330//330
f 331//331 332//332 333//333
f 332//332 331//331 334//334
f 335//335 336//336 337//337
f 336//336 335//335 338//338
f 339//339 340//340 341//341
f 340//340 339//339 342//342
f 343//343 344//344 345//345
f 344//344 343//343 346//346
f 347//347 348//348 349//349
f 348//348 347//347 350//350
f 351//351 352//352 353//353
f 352//352 351//351 354//354
f 355//355 356//356 357//357
f 356//356 355//355 358//358
f 359//359 360//360 361//361
f 360//360 359//359 362//362
f 363//363 364//364 365//365
f 364//364 363//363 366//366
f 367//367 368//368 369//369
f 368//368 367//367 370//370
f 371//371 372//372 373//373
f 372//372 371//371 374//374
f 375//375 376//376 377//377
f 376//376 375//375 378//378
f 379//379 380//380 381//381
f 382//382 381//381 380//380
f 383//383 384//384 385//385
f 386//386 385//385 384//384
f 387//387 388//388 389//389
f 390//390 389//389 388//388
f 391//391 392//392 393//393
f 394//394 393//393 392//392
f 395//395 396//396 397//397
f 398//398 397//397 396//396
f 399//399 400//400 401//401
f 402//402 401//401 400//400
f 403//403 404//404 405//405
f 406//406 405//405 404//404
f 407//407 408//408 409//409
f 410//410 409//409 408//408
f 411//411 412//412 413//413
f 414//414 413//413 412//412
f 415//415 416//416 417//417
f 418//418 417//417 416//416
f 419//419 420//420 421//421
f 422//422 421//421 420//420
f 423//423 424//424 425//425
f 426//426 425//425 424//424
f 427//427 428//428 429//429
f 430//430 429//429 428//428
f 431//431 432//432 433//433
f 434//434 433//433 432//432
f 435//435 436//436 437//437
f 438//438 437//437 436//436
f 439//439 440//440 441//441
f 442//442 441//441 440//440
f 443//443 444//444 445//445
f 446//446 445//445 444//444
f 447//447 448//448 449//449
f 450//450 449//449 448//448
f 451//451 452//452 453//453
f 454//454 453//453 452//452
f 455//455 456//456 457//457
f 458//458 457//457 456//456
f 459//459 460//460 461//461
f 462//462 461//461 460//460
f 463//463 464//464 465//465
f 466//466 465//465 464//464
f 467//467 468//468 469//469
f 470//470 469//469 468//468
f 471//471 472//472 473//473
f 474//474 473//473 472//472
f 475//475 476//476 477//477
f 478//478 477//477 476//476
f 479//479 480//480 481//481
f 482//482 481//481 480//480
f 483//483 484//484 485//485
f 486//486 485//485 484//484
f 487//487 488//488 489//489
f 490//490 489//489 488//488
f 491//491 492//492 493//493
f 494//494 493//493 492//492
f 495//495 496//496 497//497
f 498//498 497//497 496//496
f 499//499 500//500 501//501
f 502//502 501//501 500//500
f 503//503 504//504 505//505
f 506//506 505//505 504//504
f 507//507 508//508 509//509
f 510//510 509//509 508//508
f 511//511 512//512 513//513
f 514//514 513//513 512//512
f 515//515 516//516 517//517
f 518//518 517//517 516//516
f 519//519 520//520 521//521
f 522//522 521//521 520//520
f 523//523 524//524 525//525
f 526//526 525//525 524//524
f 527//527 528//528 529//529
f 530//530 529//529 528//528
f 531//531 532//532 533//533
f 534//534 533//533 532//532
f 535//535 536//536 537//537
f 538//538 537//537 536//536
f 539//539 540//540 541//541
f 542//542 541//541 540//540
f 543//543 544//544 545//545
f 546//546 545//545 544//544
f 547//547 548//548 549//549
f 550//550 549//549 548//548
f 551//551 552//552 553//553
f 554//554 553//553 552//552
f 555//555 556//556 557//557
f 558//558 557//557 556//556
f 559//559 560//560 561//561
f 562//562 561//561 560//560
f 563//563 564//564 565//565
f 566//566 565//565 564//564
f 567//567 568//568 569//569
f 570//570 569//569 568//568
f 571//571 572//572 573//573
f 574//574 573//573 572//572
f 575//575 576//576 577//577
f 578//578 577//577 576//576
f 579//579 580//580 581//581
f 582//582 581//581 580//580
f 583//583 584//584 585//585
f 586//586 585//585 584//584
f 587//587 588//588 589//589
f 590//590 589//589 588//588
f 591//591 592//592 593//593
f 594//594 593//593 592//592
f 595//595 596//596 597//597
f 598//598 597//597 596//596
f 599//599 600//600 601//601
f 602//602 601//601 600//600
f 603//603 604//604 605//605
f 604//604 603//603 606//606
f 604//604 606//606 607//607
f 607//607 606//606 608//608
f 608//608 606//606 609//609
f 608//608 609//609 610//610
f 608//608 610//610 611//611
f 611//611 610//610 612//612
f 611//611 612//612 613//613
f 613//613 612//612 614//614
f 613//613 614//614 615//615
f 609//609 606//606 616//616
f 616//616 606//606 617//617
f 617//617 606//606 618//618
f 618//618 606//606 619//619
f 619//619 606//606 620//620
f 620//620 606//606 621//621
f 621//621 606//606 622//622
f 622//622 606//606 623//623
f 623//623 606//606 624//624
f 605//605 625//625 626//626
f 625//625 605//605 604//604
f 625//625 604//604 627//627
f 625//625 627//627 628//628
f 626//626 625//625 613//613
f 626//626 613//613 629//629
f 629//629 613//613 630//630
f 630//630 613//613 631//631
f 631//631 613//613 632//632
f 632//632 613//613 633//633
f 633//633 613//613 615//615
f 626//626 629//629 634//634
f 626//626 634//634 635//635
f 626//626 635//635 636//636
f 626//626 636//636 637//637
f 626//626 637//637 638//638
f 626//626 638//638 639//639
f 626//626 639//639 640//640
f 626//626 640//640 624//624
f 626//626 624//624 606//606
f 641//641 633//633 615//615
f 633//633 641//641 642//642
f 642//642 641//641 643//643
f 642//642 643//643 644//644
f 644//644 643//643 645//645
f 644//644 645//645 646//646
f 646//646 645//645 647//647
f 646//646 647//647 648//648
f 648//648 647//647 649//649
f 648//648 649//649 650//650
f 650//650 649//649 651//651
f 650//650 651//651 652//652
f 652//652 651//651 653//653
f 652//652 653//653 654//654
f 654//654 653//653 655//655
f 654//654 655//655 656//656
f 656//656 655//655 657//657
f 656//656 657//657 658//658
f 658//658 657//657 659//659
f 658//658 659//659 660//660
f 660//660 659//659 661//661
f 660//660 661//661 662//662
f 662//662 661//661 623//623
f 662//662 623//623 624//624
f 608//608 628//628 627//627
f 628//628 608//608 611//611
f 663//663 664//664 665//665
f 664//664 663//663 666//666
f 667//667 668//668 669//669
f 668//668 667//667 670//670
f 668//668 670//670 671//671
f 671//671 670//670 672//672
f 672//672 670//670 673//673
f 672//672 673//673 674//674
f 672//672 674//674 675//675
f 675//675 674//674 676//676
f 675//675 676//676 677//677
f 677//677 676//676 678//678
f 677//677 678//678 679//679
f 679//679 678//678 680//680
f 679//679 680//680 681//681
f 681//681 680//680 682//682
f 681//681 682//682 683//683
f 683//683 682//682 684//684
f 683//683 684//684 685//685
f 685//685 684//684 686//686
f 685//685 686//686 687//687
f 687//687 686//686 688//688
f 688//688 686//686 689//689
f 688//688 689//689 690//690
f 691//691 692//692 693//693
f 692//692 691//691 694//694
f 695//695 696//696 697//697
f 696//696 695//695 698//698
f 696//696 698//698 699//699
f 699//699 698//698 700//700
f 700//700 698//698 701//701
f 700//700 701//701 702//702
f 700//700 702//702 703//703
f 703//703 702//702 704//704
f 703//703 704//704 705//705
f 705//705 704//704 706//706
f 705//705 706//706 707//707
f 707//707 706//706 708//708
f 707//707 708//708 709//709
f 709//709 708//708 710//710
f 709//709 710//710 711//711
f 711//711 710//710 712//712
f 711//711 712//712 713//713
f 713//713 712//712 714//714
f 713//713 714//714 715//715
f 715//715 714//714 716//716
f 716//716 714//714 717//717
f 716//716 717//717 718//718
f 719//719 720//720 721//721
f 722//722 721//721 720//720
f 723//723 724//724 725//725
f 724//724 726//726 725//725
f 725//725 726//726 727//727
f 726//726 728//728 727//727
f 727//727 728//728 729//729
f 728//728 730//730 729//729
f 729//729 730//730 731//731
f 730//730 732//732 731//731
f 731//731 732//732 733//733
f 732//732 734//734 733//733
f 733//733 734//734 735//735
f 734//734 736//736 735//735
f 735//735 736//736 737//737
f 736//736 738//738 737//737
f 737//737 738//738 739//739
f 738//738 740//740 739//739
f 739//739 740//740 741//741
f 740//740 742//742 741//741
f 741//741 742//742 743//743
f 742//742 744//744 743//743
f 743//743 744//744 745//745
f 744//744 746//746 745//745
f 745//745 746//746 747//747
f 748//748 747//747 746//746
f 749//749 723//723 750//750
f 723//723 751//751 750//750
f 751//751 752//752 750//750
f 752//752 753//753 750//750
f 753//753 754//754 750//750
f 754//754 755//755 750//750
f 755//755 756//756 750//750
f 756//756 757//757 750//750
f 757//757 758//758 750//750
f 748//748 759//759 747//747
f 747//747 759//759 760//760
f 760//760 759//759 761//761
f 761//761 759//759 762//762
f 762//762 759//759 758//758
f 758//758 759//759 750//750
f 759//759 763//763 750//750
f 721//721 722//722 763//763
f 722//722 764//764 763//763
f 764//764 765//765 763//763
f 750//750 763//763 765//765
f 723//723 749//749 724//724
f 724//724 749//749 766//766
f 766//766 749//749 767//767
f 767//767 749//749 768//768
f 768//768 749//749 769//769
f 769//769 749//749 770//770
f 770//770 749//749 771//771
f 771//771 749//749 772//772
f 772//772 749//749 773//773
f 748//748 774//774 759//759
f 774//774 775//775 759//759
f 759//759 775//775 719//719
f 775//775 776//776 719//719
f 719//719 776//776 720//720
f 776//776 773//773 720//720
f 773//773 749//749 720//720
f 720//720 749//749 777//777
f 777//777 749//749 764//764
f 749//749 778//778 764//764
f 765//765 764//764 778//778
f 779//779 780//780 781//781
f 782//782 781//781 780//780
f 783//783 784//784 785//785
f 784//784 786//786 785//785
f 785//785 786//786 787//787
f 787//787 786//786 788//788
f 786//786 789//789 788//788
f 788//788 789//789 790//790
f 789//789 791//791 790//790
f 790//790 791//791 792//792
f 791//791 793//793 792//792
f 792//792 793//793 794//794
f 793//793 795//795 794//794
f 794//794 795//795 796//796
f 795//795 797//797 796//796
f 796//796 797//797 798//798
f 797//797 799//799 798//798
f 798//798 799//799 800//800
f 799//799 801//801 800//800
f 801//801 802//802 800//800
f 800//800 802//802 803//803
f 803//803 802//802 804//804
f 802//802 805//805 804//804
f 806//806 804//804 805//805
f 807//807 808//808 809//809
f 810//810 809//809 808//808
f 811//811 812//812 813//813
f 812//812 814//814 813//813
f 813//813 814//814 815//815
f 815//815 814//814 816//816
f 814//814 817//817 816//816
f 816//816 817//817 818//818
f 817//817 819//819 818//818
f 818//818 819//819 820//820
f 819//819 821//821 820//820
f 820//820 821//821 822//822
f 821//821 823//823 822//822
f 822//822 823//823 824//824
f 823//823 825//825 824//824
f 824//824 825//825 826//826
f 825//825 827//827 826//826
f 826//826 827//827 828//828
f 827//827 829//829 828//828
f 829//829 830//830 828//828
f 828//828 830//830 831//831
f 831//831 830//830 832//832
f 830//830 833//833 832//832
f 834//834 832//832 833//833
