# Created by Open3D 
# object name: cross_box
# number of vertices: 40
# number of triangles: 60
v -0.25 -0.25 -0.25
v 0.25 -0.25 -0.25
v -0.25 -0.25 0.25
v 0.25 -0.25 0.25
v -0.25 0.25 -0.25
v 0.25 0.25 -0.25
v -0.25 0.25 0.25
v 0.25 0.25 0.25
v 0.25 -0.25 -0.25
v 1 -0.25 -0.25
v 0.25 -0.25 0.25
v 1 -0.25 0.25
v 0.25 0.25 -0.25
v 1 0.25 -0.25
v 0.25 0.25 0.25
v 1 0.25 0.25
v -1 -0.25 -0.25
v -0.25 -0.25 -0.25
v -1 -0.25 0.25
v -0.25 -0.25 0.25
v -1 0.25 -0.25
v -0.25 0.25 -0.25
v -1 0.25 0.25
v -0.25 0.25 0.25
v 0.25 0.25 -0.25
v 0.25 1 -0.25
v 0.25 0.25 0.25
v 0.25 1 0.25
v -0.25 0.25 -0.25
v -0.25 1 -0.25
v -0.25 0.25 0.25
v -0.25 1 0.25
v 0.25 -1 -0.25
v 0.25 -0.25 -0.25
v 0.25 -1 0.25
v 0.25 -0.25 0.25
v -0.25 -1 -0.25
v -0.25 -0.25 -0.25
v -0.25 -1 0.25
v -0.25 -0.25 0.25
f 5 8 6
f 5 7 8
f 1 3 5
f 3 7 5
f 1 2 3
f 2 4 3
f 2 6 8
f 2 8 4
f 3 4 8
f 3 8 7
f 1 5 2
f 2 5 6
f 13 16 14
f 13 15 16
f 9 11 13
f 11 15 13
f 9 10 11
f 10 12 11
f 10 14 16
f 10 16 12
f 11 12 16
f 11 16 15
f 9 13 10
f 10 13 14
f 21 24 22
f 21 23 24
f 17 19 21
f 19 23 21
f 17 18 19
f 18 20 19
f 18 22 24
f 18 24 20
f 19 20 24
f 19 24 23
f 17 21 18
f 18 21 22
f 29 32 30
f 29 31 32
f 25 27 29
f 27 31 29
f 25 26 27
f 26 28 27
f 26 30 32
f 26 32 28
f 27 28 32
f 27 32 31
f 25 29 26
f 26 29 30
f 37 40 38
f 37 39 40
f 33 35 37
f 35 39 37
f 33 34 35
f 34 36 35
f 34 38 40
f 34 40 36
f 35 36 40
f 35 40 39
f 33 37 34
f 34 37 38
