# Created by Open3D 
# object name: h_box
# number of vertices: 36
# number of triangles: 60
v -0.75 -1 -0.25
v 0.75 -1 -0.25
v -0.75 -1 0.25
v 0.75 -1 0.25
v -0.75 1 -0.25
v 0.75 1 -0.25
v -0.75 1 0.25
v 0.75 1 0.25
v -1.35 0.5 -0.25
v -0.75 0.5 -0.25
v -1.35 0.5 0.25
v -0.75 0.5 0.25
v -1.35 1 -0.25
v -0.75 1 -0.25
v -1.35 1 0.25
v -0.75 1 0.25
v -1.35 -1 -0.25
v -0.75 -1 -0.25
v -1.35 -1 0.25
v -0.75 -1 0.25
v -1.35 -0.5 -0.25
v -0.75 -0.5 -0.25
v -1.35 -0.5 0.25
v -0.75 -0.5 0.25
v 0.75 0.5 -0.25
v 1.35 0.5 -0.25
v 0.75 0.5 0.25
v 1.35 0.5 0.25
v 1.35 1 -0.25
v 1.35 1 0.25
v 1.35 -1 -0.25
v 1.35 -1 0.25
v 0.75 -0.5 -0.25
v 1.35 -0.5 -0.25
v 0.75 -0.5 0.25
v 1.35 -0.5 0.25
f 5 8 6
f 5 7 8
f 1 3 5
f 3 7 5
f 1 2 3
f 2 4 3
f 2 6 8
f 2 8 4
f 3 4 8
f 3 8 7
f 1 5 2
f 2 5 6
f 13 16 14
f 13 15 16
f 9 11 13
f 11 15 13
f 9 10 11
f 10 12 11
f 10 14 16
f 10 16 12
f 11 12 16
f 11 16 15
f 9 13 10
f 10 13 14
f 21 24 22
f 21 23 24
f 17 19 21
f 19 23 21
f 17 18 19
f 18 20 19
f 18 22 24
f 18 24 20
f 19 20 24
f 19 24 23
f 17 21 18
f 18 21 22
f 6 30 29
f 6 8 30
f 25 27 6
f 27 8 6
f 25 26 27
f 26 28 27
f 26 29 30
f 26 30 28
f 27 28 30
f 27 30 8
f 25 6 26
f 26 6 29
f 33 36 34
f 33 35 36
f 2 4 33
f 4 35 33
f 2 31 4
f 31 32 4
f 31 34 36
f 31 36 32
f 4 32 36
f 4 36 35
f 2 33 31
f 31 33 34
