# Created by Open3D 
# object name: 2eb503dde3cc027d86c701087a194026
# number of vertices: 504
# number of triangles: 168
mtllib 2eb503dde3cc027d86c701087a194026.mtl
v 0.3 -0.131818 3.10797e-17
vn -1.21234e-16 -0.98995 -0.141421
v 0.28868 -0.133104 0.0173071
vn -1.21234e-16 -0.98995 -0.141421
v -0.28868 -0.131818 3.10797e-17
vn -1.21234e-16 -0.98995 -0.141421
v 0.28868 -0.133104 0.0173071
vn 2.12221e-07 -0.98995 -0.141421
v 0.3 -0.131818 3.10797e-17
vn 2.12221e-07 -0.98995 -0.141421
v 0.3 -0.15 0.244755
vn 2.12221e-07 -0.98995 -0.141421
v -0.28868 -0.131818 3.10797e-17
vn 1.21234e-16 0.98995 0.141421
v 0.28868 -0.133104 0.0173071
vn 1.21234e-16 0.98995 0.141421
v 0.3 -0.131818 3.10797e-17
vn 1.21234e-16 0.98995 0.141421
v 0.3 -0.15 0.244755
vn -2.12221e-07 0.98995 0.141421
v 0.3 -0.131818 3.10797e-17
vn -2.12221e-07 0.98995 0.141421
v 0.28868 -0.133104 0.0173071
vn -2.12221e-07 0.98995 0.141421
v -0.28868 -0.133104 0.0173071
vn -1.21234e-16 -0.98995 -0.141421
v -0.28868 -0.131818 3.10797e-17
vn -1.21234e-16 -0.98995 -0.141421
v 0.28868 -0.133104 0.0173071
vn -1.21234e-16 -0.98995 -0.141421
v 0.28868 -0.133104 0.0173071
vn 1.21234e-16 0.98995 0.141421
v -0.28868 -0.131818 3.10797e-17
vn 1.21234e-16 0.98995 0.141421
v -0.28868 -0.133104 0.0173071
vn 1.21234e-16 0.98995 0.141421
v -0.28868 -0.131818 3.10797e-17
vn -1.22465e-16 -1 6.12323e-17
v 0.3 -0.131818 3.10797e-17
vn -1.22465e-16 -1 6.12323e-17
v -0.28868 -0.131818 0.0174829
vn -1.22465e-16 -1 6.12323e-17
v 0.3 -0.131818 3.10797e-17
vn 1 -1.22465e-16 7.4988e-33
v 0.3 -0.140817 0.244755
vn 1 -1.22465e-16 7.4988e-33
v 0.3 -0.15 0.244755
vn 1 -1.22465e-16 7.4988e-33
v 0.3 -0.15 0.244755
vn -1 1.22465e-16 -7.4988e-33
v 0.3 -0.140817 0.244755
vn -1 1.22465e-16 -7.4988e-33
v 0.3 -0.131818 3.10797e-17
vn -1 1.22465e-16 -7.4988e-33
v 0.28868 -0.133104 0.0173071
vn -1.16765e-07 -0.98995 -0.141421
v 0.3 -0.15 0.244755
vn -1.16765e-07 -0.98995 -0.141421
v 0.28868 -0.148714 0.227448
vn -1.16765e-07 -0.98995 -0.141421
v 0.28868 -0.148714 0.227448
vn 1.16765e-07 0.98995 0.141421
v 0.3 -0.15 0.244755
vn 1.16765e-07 0.98995 0.141421
v 0.28868 -0.133104 0.0173071
vn 1.16765e-07 0.98995 0.141421
v -0.28868 -0.133104 0.0173071
vn -1 1.22465e-16 -7.4988e-33
v -0.28868 -0.131818 0.0174829
vn -1 1.22465e-16 -7.4988e-33
v -0.28868 -0.131818 3.10797e-17
vn -1 1.22465e-16 -7.4988e-33
v -0.28868 -0.131818 3.10797e-17
vn 1 -1.22465e-16 7.4988e-33
v -0.28868 -0.131818 0.0174829
vn 1 -1.22465e-16 7.4988e-33
v -0.28868 -0.133104 0.0173071
vn 1 -1.22465e-16 7.4988e-33
v 0.3 -0.131818 0.0174829
vn -1.22465e-16 -1 6.12323e-17
v -0.28868 -0.131818 0.0174829
vn -1.22465e-16 -1 6.12323e-17
v 0.3 -0.131818 3.10797e-17
vn -1.22465e-16 -1 6.12323e-17
v 0.3 -0.131818 0.0174829
vn 1 -1.22465e-16 7.4988e-33
v 0.3 -0.140817 0.244755
vn 1 -1.22465e-16 7.4988e-33
v 0.3 -0.131818 3.10797e-17
vn 1 -1.22465e-16 7.4988e-33
v 0.3 -0.131818 3.10797e-17
vn -1 1.22465e-16 -7.4988e-33
v 0.3 -0.140817 0.244755
vn -1 1.22465e-16 -7.4988e-33
v 0.3 -0.131818 0.0174829
vn -1 1.22465e-16 -7.4988e-33
v 0.28868 -0.148714 0.227448
vn -1.21234e-16 -0.98995 -0.141421
v 0.3 -0.15 0.244755
vn -1.21234e-16 -0.98995 -0.141421
v -0.28868 -0.148714 0.227448
vn -1.21234e-16 -0.98995 -0.141421
v -0.28868 -0.148714 0.227448
vn 1.21234e-16 0.98995 0.141421
v 0.3 -0.15 0.244755
vn 1.21234e-16 0.98995 0.141421
v 0.28868 -0.148714 0.227448
vn 1.21234e-16 0.98995 0.141421
v -0.28868 -0.138956 0.2197
vn -1 1.22465e-16 -7.4988e-33
v -0.28868 -0.131818 0.0174829
vn -1 1.22465e-16 -7.4988e-33
v -0.28868 -0.133104 0.0173071
vn -1 1.22465e-16 -7.4988e-33
v -0.28868 -0.133104 0.0173071
vn 1 -1.22465e-16 7.4988e-33
v -0.28868 -0.131818 0.0174829
vn 1 -1.22465e-16 7.4988e-33
v -0.28868 -0.138956 0.2197
vn 1 -1.22465e-16 7.4988e-33
v 0.3 -0.131818 0.0174829
vn 0 6.12323e-17 1
v 0.3 -0.123934 0.0174829
vn 0 6.12323e-17 1
v -0.28868 -0.131818 0.0174829
vn 0 6.12323e-17 1
v 0.3 -0.140817 0.244755
vn 1 -1.22465e-16 7.4988e-33
v 0.3 -0.131818 0.0174829
vn 1 -1.22465e-16 7.4988e-33
v 0.3 -0.123934 0.0174829
vn 1 -1.22465e-16 7.4988e-33
v 0.3 -0.123934 0.0174829
vn -1 1.22465e-16 -7.4988e-33
v 0.3 -0.131818 0.0174829
vn -1 1.22465e-16 -7.4988e-33
v 0.3 -0.140817 0.244755
vn -1 1.22465e-16 -7.4988e-33
v -0.28868 -0.148714 0.227448
vn 2.12577e-07 -0.989948 -0.141432
v 0.3 -0.15 0.244755
vn 2.12577e-07 -0.989948 -0.141432
v -0.28868 -0.149344 0.235926
vn 2.12577e-07 -0.989948 -0.141432
v -0.28868 -0.149344 0.235926
vn -2.12577e-07 0.989948 0.141432
v 0.3 -0.15 0.244755
vn -2.12577e-07 0.989948 0.141432
v -0.28868 -0.148714 0.227448
vn -2.12577e-07 0.989948 0.141432
v -0.28868 -0.131818 0.0174829
vn -1 1.22465e-16 -7.4988e-33
v -0.28868 -0.138956 0.2197
vn -1 1.22465e-16 -7.4988e-33
v -0.28868 -0.123934 0.0174829
vn -1 1.22465e-16 -7.4988e-33
v -0.28868 -0.123934 0.0174829
vn 1 -1.22465e-16 7.4988e-33
v -0.28868 -0.138956 0.2197
vn 1 -1.22465e-16 7.4988e-33
v -0.28868 -0.131818 0.0174829
vn 1 -1.22465e-16 7.4988e-33
v -0.28868 -0.138956 0.2197
vn -1 1.22465e-16 -7.4988e-33
v -0.28868 -0.133104 0.0173071
vn -1 1.22465e-16 -7.4988e-33
v -0.28868 -0.148714 0.227448
vn -1 1.22465e-16 -7.4988e-33
v -0.28868 -0.148714 0.227448
vn 1 -1.22465e-16 7.4988e-33
v -0.28868 -0.133104 0.0173071
vn 1 -1.22465e-16 7.4988e-33
v -0.28868 -0.138956 0.2197
vn 1 -1.22465e-16 7.4988e-33
v 0.3 0.123934 0.0174829
vn 0 6.12323e-17 1
v -0.28868 -0.131818 0.0174829
vn 0 6.12323e-17 1
v 0.3 -0.123934 0.0174829
vn 0 6.12323e-17 1
v -0.3 -0.149344 0.235926
vn -1.21234e-16 -0.989951 -0.14141
v 0.3 -0.15 0.244755
vn -1.21234e-16 -0.989951 -0.14141
v -0.3 -0.15 0.244755
vn -1.21234e-16 -0.989951 -0.14141
v -0.3 -0.15 0.244755
vn 1.21234e-16 0.989951 0.14141
v 0.3 -0.15 0.244755
vn 1.21234e-16 0.989951 0.14141
v -0.3 -0.149344 0.235926
vn 1.21234e-16 0.989951 0.14141
v -0.28868 -0.149344 0.235926
vn -1.21234e-16 -0.98995 -0.141421
v 0.3 -0.15 0.244755
vn -1.21234e-16 -0.98995 -0.141421
v -0.3 -0.149344 0.235926
vn -1.21234e-16 -0.98995 -0.141421
v -0.3 -0.149344 0.235926
vn 1.21234e-16 0.98995 0.141421
v 0.3 -0.15 0.244755
vn 1.21234e-16 0.98995 0.141421
v -0.28868 -0.149344 0.235926
vn 1.21234e-16 0.98995 0.141421
v -0.28868 -0.140161 0.235926
vn -1 1.22465e-16 -7.4988e-33
v -0.28868 -0.148714 0.227448
vn -1 1.22465e-16 -7.4988e-33
v -0.28868 -0.149344 0.235926
vn -1 1.22465e-16 -7.4988e-33
v -0.28868 -0.149344 0.235926
vn 1 -1.22465e-16 7.4988e-33
v -0.28868 -0.148714 0.227448
vn 1 -1.22465e-16 7.4988e-33
v -0.28868 -0.140161 0.235926
vn 1 -1.22465e-16 7.4988e-33
v -0.28868 -0.138956 0.2197
vn -1.21234e-16 -0.989949 -0.141421
v -0.3 -0.123934 0.0174829
vn -1.21234e-16 -0.989949 -0.141421
v -0.28868 -0.123934 0.0174829
vn -1.21234e-16 -0.989949 -0.141421
v -0.28868 -0.123934 0.0174829
vn 1.21234e-16 0.989949 0.141421
v -0.3 -0.123934 0.0174829
vn 1.21234e-16 0.989949 0.141421
v -0.28868 -0.138956 0.2197
vn 1.21234e-16 0.989949 0.141421
v -0.28868 -0.123934 0.0174829
vn 0 6.12323e-17 1
v -0.28868 -0.131818 0.0174829
vn 0 6.12323e-17 1
v -0.28868 0.131818 0.0174829
vn 0 6.12323e-17 1
v -0.28868 -0.138956 0.2197
vn -1 1.22465e-16 -7.4988e-33
v -0.28868 -0.148714 0.227448
vn -1 1.22465e-16 -7.4988e-33
v -0.28868 -0.140161 0.235926
vn -1 1.22465e-16 -7.4988e-33
v -0.28868 -0.140161 0.235926
vn 1 -1.22465e-16 7.4988e-33
v -0.28868 -0.148714 0.227448
vn 1 -1.22465e-16 7.4988e-33
v -0.28868 -0.138956 0.2197
vn 1 -1.22465e-16 7.4988e-33
v 0.3 0.131818 0.0174829
vn 0 6.12323e-17 1
v -0.28868 -0.131818 0.0174829
vn 0 6.12323e-17 1
v 0.3 0.123934 0.0174829
vn 0 6.12323e-17 1
v 0.3 0.140816 0.244755
vn 1 -1.22465e-16 7.4988e-33
v 0.3 0.131818 0
vn 1 -1.22465e-16 7.4988e-33
v 0.3 0.15 0.244755
vn 1 -1.22465e-16 7.4988e-33
v 0.3 0.15 0.244755
vn -1 1.22465e-16 -7.4988e-33
v 0.3 0.131818 0
vn -1 1.22465e-16 -7.4988e-33
v 0.3 0.140816 0.244755
vn -1 1.22465e-16 -7.4988e-33
v -0.3 -0.15 0.25
vn -1 1.22465e-16 -7.4988e-33
v -0.3 -0.149344 0.235926
vn -1 1.22465e-16 -7.4988e-33
v -0.3 -0.15 0.244755
vn -1 1.22465e-16 -7.4988e-33
v -0.3 -0.149344 0.235926
vn 0 -6.12323e-17 -1
v -0.28868 -0.140161 0.235926
vn 0 -6.12323e-17 -1
v -0.28868 -0.149344 0.235926
vn 0 -6.12323e-17 -1
v -0.28868 -0.149344 0.235926
vn 0 6.12323e-17 1
v -0.28868 -0.140161 0.235926
vn 0 6.12323e-17 1
v -0.3 -0.149344 0.235926
vn 0 6.12323e-17 1
v -0.3 -0.123934 0.0174829
vn -1.21234e-16 -0.989949 -0.141421
v -0.28868 -0.138956 0.2197
vn -1.21234e-16 -0.989949 -0.141421
v -0.3 -0.138956 0.2197
vn -1.21234e-16 -0.989949 -0.141421
v -0.3 -0.138956 0.2197
vn 1.21234e-16 0.989949 0.141421
v -0.28868 -0.138956 0.2197
vn 1.21234e-16 0.989949 0.141421
v -0.3 -0.123934 0.0174829
vn 1.21234e-16 0.989949 0.141421
v -0.3 -0.123934 0.0174829
vn 0 -6.12323e-17 -1
v -0.28868 0.123934 0.0174829
vn 0 -6.12323e-17 -1
v -0.28868 -0.123934 0.0174829
vn 0 -6.12323e-17 -1
v -0.28868 -0.123934 0.0174829
vn 0 6.12323e-17 1
v -0.28868 0.123934 0.0174829
vn 0 6.12323e-17 1
v -0.3 -0.123934 0.0174829
vn 0 6.12323e-17 1
v -0.28868 0.131818 0.0174829
vn 0 6.12323e-17 1
v -0.28868 -0.131818 0.0174829
vn 0 6.12323e-17 1
v 0.3 0.131818 0.0174829
vn 0 6.12323e-17 1
v -0.28868 0.123934 0.0174829
vn 0 6.12323e-17 1
v -0.28868 -0.123934 0.0174829
vn 0 6.12323e-17 1
v -0.28868 0.131818 0.0174829
vn 0 6.12323e-17 1
v -0.28868 -0.140161 0.235926
vn -1.21234e-16 -0.98995 -0.141421
v -0.3 -0.138956 0.2197
vn -1.21234e-16 -0.98995 -0.141421
v -0.28868 -0.138956 0.2197
vn -1.21234e-16 -0.98995 -0.141421
v -0.28868 -0.138956 0.2197
vn 1.21234e-16 0.98995 0.141421
v -0.3 -0.138956 0.2197
vn 1.21234e-16 0.98995 0.141421
v -0.28868 -0.140161 0.235926
vn 1.21234e-16 0.98995 0.141421
v 0.3 0.123934 0.0174829
vn 1 -1.22465e-16 7.4988e-33
v 0.3 0.131818 0.0174829
vn 1 -1.22465e-16 7.4988e-33
v 0.3 0.140816 0.244755
vn 1 -1.22465e-16 7.4988e-33
v 0.3 0.140816 0.244755
vn -1 1.22465e-16 -7.4988e-33
v 0.3 0.131818 0.0174829
vn -1 1.22465e-16 -7.4988e-33
v 0.3 0.123934 0.0174829
vn -1 1.22465e-16 -7.4988e-33
v 0.3 0.131818 0
vn 1 -1.22465e-16 7.4988e-33
v 0.3 0.140816 0.244755
vn 1 -1.22465e-16 7.4988e-33
v 0.3 0.131818 0.0174829
vn 1 -1.22465e-16 7.4988e-33
v 0.3 0.131818 0.0174829
vn -1 1.22465e-16 -7.4988e-33
v 0.3 0.140816 0.244755
vn -1 1.22465e-16 -7.4988e-33
v 0.3 0.131818 0
vn -1 1.22465e-16 -7.4988e-33
v 0.3 0.131818 0
vn -4.27625e-07 0.989949 -0.141421
v 0.28868 0.133103 0.0173071
vn -4.27625e-07 0.989949 -0.141421
v 0.3 0.15 0.244755
vn -4.27625e-07 0.989949 -0.141421
v 0.3 0.15 0.244755
vn 4.27625e-07 -0.989949 0.141421
v 0.28868 0.133103 0.0173071
vn 4.27625e-07 -0.989949 0.141421
v 0.3 0.131818 0
vn 4.27625e-07 -0.989949 0.141421
v -0.3 0.15 0.25
vn -1 1.22465e-16 -7.4988e-33
v -0.3 0.149344 0.235926
vn -1 1.22465e-16 -7.4988e-33
v -0.3 -0.15 0.25
vn -1 1.22465e-16 -7.4988e-33
v -0.3 -0.15 0.25
vn -1 1.22465e-16 -7.4988e-33
v -0.3 -0.140161 0.235926
vn -1 1.22465e-16 -7.4988e-33
v -0.3 -0.149344 0.235926
vn -1 1.22465e-16 -7.4988e-33
v -0.28868 -0.140161 0.235926
vn 0 -6.12323e-17 -1
v -0.3 -0.149344 0.235926
vn 0 -6.12323e-17 -1
v -0.3 -0.140161 0.235926
vn 0 -6.12323e-17 -1
v -0.3 -0.140161 0.235926
vn 0 6.12323e-17 1
v -0.3 -0.149344 0.235926
vn 0 6.12323e-17 1
v -0.28868 -0.140161 0.235926
vn 0 6.12323e-17 1
v -0.28868 0.123934 0.0174829
vn 0 -6.12323e-17 -1
v -0.3 -0.123934 0.0174829
vn 0 -6.12323e-17 -1
v -0.3 0.123934 0.0174829
vn 0 -6.12323e-17 -1
v -0.3 0.123934 0.0174829
vn 0 6.12323e-17 1
v -0.3 -0.123934 0.0174829
vn 0 6.12323e-17 1
v -0.28868 0.123934 0.0174829
vn 0 6.12323e-17 1
v -0.28868 0.131818 0.0174829
vn 1.22465e-16 1 -6.12323e-17
v 0.3 0.131818 0.0174829
vn 1.22465e-16 1 -6.12323e-17
v -0.28868 0.131818 0
vn 1.22465e-16 1 -6.12323e-17
v -0.28868 0.124104 0.0197795
vn -1 1.22465e-16 -7.4988e-33
v -0.28868 0.131818 0.0174829
vn -1 1.22465e-16 -7.4988e-33
v -0.28868 0.123934 0.0174829
vn -1 1.22465e-16 -7.4988e-33
v -0.28868 0.123934 0.0174829
vn 1 -1.22465e-16 7.4988e-33
v -0.28868 0.131818 0.0174829
vn 1 -1.22465e-16 7.4988e-33
v -0.28868 0.124104 0.0197795
vn 1 -1.22465e-16 7.4988e-33
v -0.3 -0.138956 0.2197
vn -1.21234e-16 -0.98995 -0.141421
v -0.28868 -0.140161 0.235926
vn -1.21234e-16 -0.98995 -0.141421
v -0.3 -0.140161 0.235926
vn -1.21234e-16 -0.98995 -0.141421
v -0.3 -0.140161 0.235926
vn 1.21234e-16 0.98995 0.141421
v -0.28868 -0.140161 0.235926
vn 1.21234e-16 0.98995 0.141421
v -0.3 -0.138956 0.2197
vn 1.21234e-16 0.98995 0.141421
v 0.3 0.131818 0
vn 1.22465e-16 1 -6.12323e-17
v -0.28868 0.131818 0
vn 1.22465e-16 1 -6.12323e-17
v 0.3 0.131818 0.0174829
vn 1.22465e-16 1 -6.12323e-17
v 0.3 0.131818 0
vn 1.21234e-16 0.98995 -0.141421
v -0.28868 0.133103 0.0173071
vn 1.21234e-16 0.98995 -0.141421
v 0.28868 0.133103 0.0173071
vn 1.21234e-16 0.98995 -0.141421
v 0.28868 0.133103 0.0173071
vn -1.21234e-16 -0.98995 0.141421
v -0.28868 0.133103 0.0173071
vn -1.21234e-16 -0.98995 0.141421
v 0.3 0.131818 0
vn -1.21234e-16 -0.98995 0.141421
v 0.3 0.15 0.244755
vn 4.27352e-07 0.989949 -0.141421
v 0.28868 0.133103 0.0173071
vn 4.27352e-07 0.989949 -0.141421
v 0.28868 0.148714 0.227448
vn 4.27352e-07 0.989949 -0.141421
v 0.28868 0.148714 0.227448
vn -4.27352e-07 -0.989949 0.141421
v 0.28868 0.133103 0.0173071
vn -4.27352e-07 -0.989949 0.141421
v 0.3 0.15 0.244755
vn -4.27352e-07 -0.989949 0.141421
v -0.3 0.149344 0.235926
vn -1 1.22465e-16 -7.4988e-33
v -0.3 0.15 0.25
vn -1 1.22465e-16 -7.4988e-33
v -0.3 0.15 0.244755
vn -1 1.22465e-16 -7.4988e-33
v -0.3 -0.15 0.25
vn -1 1.22465e-16 -7.4988e-33
v -0.3 0.149344 0.235926
vn -1 1.22465e-16 -7.4988e-33
v -0.3 0.140161 0.235926
vn -1 1.22465e-16 -7.4988e-33
v -0.3 -0.15 0.25
vn -1 1.22465e-16 -7.4988e-33
v -0.3 0.140161 0.235926
vn -1 1.22465e-16 -7.4988e-33
v -0.3 -0.140161 0.235926
vn -1 1.22465e-16 -7.4988e-33
v -0.3 0.138473 0.213211
vn 1.21234e-16 0.98995 -0.141421
v -0.28868 0.123934 0.0174829
vn 1.21234e-16 0.98995 -0.141421
v -0.3 0.123934 0.0174829
vn 1.21234e-16 0.98995 -0.141421
v -0.3 0.123934 0.0174829
vn -1.21234e-16 -0.98995 0.141421
v -0.28868 0.123934 0.0174829
vn -1.21234e-16 -0.98995 0.141421
v -0.3 0.138473 0.213211
vn -1.21234e-16 -0.98995 0.141421
v -0.28868 0.131818 0.0174829
vn -1 1.22465e-16 -7.4988e-33
v -0.28868 0.133103 0.0173071
vn -1 1.22465e-16 -7.4988e-33
v -0.28868 0.131818 0
vn -1 1.22465e-16 -7.4988e-33
v -0.28868 0.131818 0
vn 1 -1.22465e-16 7.4988e-33
v -0.28868 0.133103 0.0173071
vn 1 -1.22465e-16 7.4988e-33
v -0.28868 0.131818 0.0174829
vn 1 -1.22465e-16 7.4988e-33
v -0.28868 0.133103 0.0173071
vn -1 1.22465e-16 -7.4988e-33
v -0.28868 0.131818 0.0174829
vn -1 1.22465e-16 -7.4988e-33
v -0.28868 0.124104 0.0197795
vn -1 1.22465e-16 -7.4988e-33
v -0.28868 0.124104 0.0197795
vn 1 -1.22465e-16 7.4988e-33
v -0.28868 0.131818 0.0174829
vn 1 -1.22465e-16 7.4988e-33
v -0.28868 0.133103 0.0173071
vn 1 -1.22465e-16 7.4988e-33
v -0.28868 0.123934 0.0174829
vn 4.13033e-08 0.98995 -0.141421
v -0.3 0.138473 0.213211
vn 4.13033e-08 0.98995 -0.141421
v -0.28868 0.124104 0.0197795
vn 4.13033e-08 0.98995 -0.141421
v -0.28868 0.124104 0.0197795
vn -4.13033e-08 -0.98995 0.141421
v -0.3 0.138473 0.213211
vn -4.13033e-08 -0.98995 0.141421
v -0.28868 0.123934 0.0174829
vn -4.13033e-08 -0.98995 0.141421
v 0.3 0.15 0.244755
vn 1.21234e-16 0.989947 -0.141436
v -0.28868 0.149344 0.235926
vn 1.21234e-16 0.989947 -0.141436
v -0.3 0.15 0.244755
vn 1.21234e-16 0.989947 -0.141436
v -0.3 0.15 0.244755
vn -1.21234e-16 -0.989947 0.141436
v -0.28868 0.149344 0.235926
vn -1.21234e-16 -0.989947 0.141436
v 0.3 0.15 0.244755
vn -1.21234e-16 -0.989947 0.141436
v -0.28868 0.133103 0.0173071
vn 1.21234e-16 0.98995 -0.141421
v 0.3 0.131818 0
vn 1.21234e-16 0.98995 -0.141421
v -0.28868 0.131818 0
vn 1.21234e-16 0.98995 -0.141421
v -0.28868 0.131818 0
vn -1.21234e-16 -0.98995 0.141421
v 0.3 0.131818 0
vn -1.21234e-16 -0.98995 0.141421
v -0.28868 0.133103 0.0173071
vn -1.21234e-16 -0.98995 0.141421
v -0.28868 0.133103 0.0173071
vn 1.73194e-17 0.141424 0.989949
v 0.28868 0.124104 0.0197795
vn 1.73194e-17 0.141424 0.989949
v 0.28868 0.133103 0.0173071
vn 1.73194e-17 0.141424 0.989949
v 0.28868 0.133103 0.0173071
vn -1.73194e-17 -0.141424 -0.989949
v 0.28868 0.124104 0.0197795
vn -1.73194e-17 -0.141424 -0.989949
v -0.28868 0.133103 0.0173071
vn -1.73194e-17 -0.141424 -0.989949
v 0.28868 0.133103 0.0173071
vn -1 1.22465e-16 -7.4988e-33
v 0.28868 0.139715 0.22992
vn -1 1.22465e-16 -7.4988e-33
v 0.28868 0.148714 0.227448
vn -1 1.22465e-16 -7.4988e-33
v 0.28868 0.148714 0.227448
vn 1 -1.22465e-16 7.4988e-33
v 0.28868 0.139715 0.22992
vn 1 -1.22465e-16 7.4988e-33
v 0.28868 0.133103 0.0173071
vn 1 -1.22465e-16 7.4988e-33
v 0.3 0.15 0.244755
vn -2.35616e-07 0.98995 -0.141421
v 0.28868 0.148714 0.227448
vn -2.35616e-07 0.98995 -0.141421
v -0.28868 0.149344 0.235926
vn -2.35616e-07 0.98995 -0.141421
v -0.28868 0.149344 0.235926
vn 2.35616e-07 -0.98995 0.141421
v 0.28868 0.148714 0.227448
vn 2.35616e-07 -0.98995 0.141421
v 0.3 0.15 0.244755
vn 2.35616e-07 -0.98995 0.141421
v -0.3 0.15 0.244755
vn 1.21234e-16 0.989949 -0.141421
v -0.28868 0.149344 0.235926
vn 1.21234e-16 0.989949 -0.141421
v -0.3 0.149344 0.235926
vn 1.21234e-16 0.989949 -0.141421
v -0.3 0.149344 0.235926
vn -1.21234e-16 -0.989949 0.141421
v -0.28868 0.149344 0.235926
vn -1.21234e-16 -0.989949 0.141421
v -0.3 0.15 0.244755
vn -1.21234e-16 -0.989949 0.141421
v -0.28868 0.149344 0.235926
vn 0 -6.12323e-17 -1
v -0.3 0.140161 0.235926
vn 0 -6.12323e-17 -1
v -0.3 0.149344 0.235926
vn 0 -6.12323e-17 -1
v -0.3 0.149344 0.235926
vn 0 6.12323e-17 1
v -0.3 0.140161 0.235926
vn 0 6.12323e-17 1
v -0.28868 0.149344 0.235926
vn 0 6.12323e-17 1
v -0.28868 0.133103 0.0173071
vn 1 -1.22465e-16 7.4988e-33
v -0.28868 0.138473 0.213211
vn 1 -1.22465e-16 7.4988e-33
v -0.28868 0.124104 0.0197795
vn 1 -1.22465e-16 7.4988e-33
v -0.28868 0.124104 0.0197795
vn -1 1.22465e-16 -7.4988e-33
v -0.28868 0.138473 0.213211
vn -1 1.22465e-16 -7.4988e-33
v -0.28868 0.133103 0.0173071
vn -1 1.22465e-16 -7.4988e-33
v 0.28868 0.124104 0.0197795
vn 1.73194e-17 0.141424 0.989949
v -0.28868 0.133103 0.0173071
vn 1.73194e-17 0.141424 0.989949
v -0.28868 0.124104 0.0197795
vn 1.73194e-17 0.141424 0.989949
v -0.28868 0.124104 0.0197795
vn -1.73194e-17 -0.141424 -0.989949
v -0.28868 0.133103 0.0173071
vn -1.73194e-17 -0.141424 -0.989949
v 0.28868 0.124104 0.0197795
vn -1.73194e-17 -0.141424 -0.989949
v -0.28868 0.124104 0.0197795
vn 1.21234e-16 0.98995 -0.141421
v -0.3 0.138473 0.213211
vn 1.21234e-16 0.98995 -0.141421
v -0.28868 0.138473 0.213211
vn 1.21234e-16 0.98995 -0.141421
v -0.28868 0.138473 0.213211
vn -1.21234e-16 -0.98995 0.141421
v -0.3 0.138473 0.213211
vn -1.21234e-16 -0.98995 0.141421
v -0.28868 0.124104 0.0197795
vn -1.21234e-16 -0.98995 0.141421
v 0.28868 0.139715 0.22992
vn -1 1.22465e-16 -7.4988e-33
v 0.28868 0.133103 0.0173071
vn -1 1.22465e-16 -7.4988e-33
v 0.28868 0.124104 0.0197795
vn -1 1.22465e-16 -7.4988e-33
v 0.28868 0.124104 0.0197795
vn 1 -1.22465e-16 7.4988e-33
v 0.28868 0.133103 0.0173071
vn 1 -1.22465e-16 7.4988e-33
v 0.28868 0.139715 0.22992
vn 1 -1.22465e-16 7.4988e-33
v -0.28868 0.149344 0.235926
vn 1.21234e-16 0.989952 -0.141407
v 0.28868 0.148714 0.227448
vn 1.21234e-16 0.989952 -0.141407
v -0.28868 0.148714 0.227448
vn 1.21234e-16 0.989952 -0.141407
v -0.28868 0.148714 0.227448
vn -1.21234e-16 -0.989952 0.141407
v 0.28868 0.148714 0.227448
vn -1.21234e-16 -0.989952 0.141407
v -0.28868 0.149344 0.235926
vn -1.21234e-16 -0.989952 0.141407
v -0.3 0.140161 0.235926
vn 0 -6.12323e-17 -1
v -0.28868 0.149344 0.235926
vn 0 -6.12323e-17 -1
v -0.28868 0.140161 0.235926
vn 0 -6.12323e-17 -1
v -0.28868 0.140161 0.235926
vn 0 6.12323e-17 1
v -0.28868 0.149344 0.235926
vn 0 6.12323e-17 1
v -0.3 0.140161 0.235926
vn 0 6.12323e-17 1
v -0.28868 0.133103 0.0173071
vn 1 -1.22465e-16 7.4988e-33
v -0.28868 0.139715 0.22992
vn 1 -1.22465e-16 7.4988e-33
v -0.28868 0.138473 0.213211
vn 1 -1.22465e-16 7.4988e-33
v -0.28868 0.138473 0.213211
vn -1 1.22465e-16 -7.4988e-33
v -0.28868 0.139715 0.22992
vn -1 1.22465e-16 -7.4988e-33
v -0.28868 0.133103 0.0173071
vn -1 1.22465e-16 -7.4988e-33
v -0.3 0.140161 0.235926
vn 1.21234e-16 0.98995 -0.141421
v -0.28868 0.138473 0.213211
vn 1.21234e-16 0.98995 -0.141421
v -0.3 0.138473 0.213211
vn 1.21234e-16 0.98995 -0.141421
v -0.3 0.138473 0.213211
vn -1.21234e-16 -0.98995 0.141421
v -0.28868 0.138473 0.213211
vn -1.21234e-16 -0.98995 0.141421
v -0.3 0.140161 0.235926
vn -1.21234e-16 -0.98995 0.141421
v -0.28868 0.148714 0.227448
vn -1 1.22465e-16 -7.4988e-33
v -0.28868 0.140161 0.235926
vn -1 1.22465e-16 -7.4988e-33
v -0.28868 0.149344 0.235926
vn -1 1.22465e-16 -7.4988e-33
v -0.28868 0.149344 0.235926
vn 1 -1.22465e-16 7.4988e-33
v -0.28868 0.140161 0.235926
vn 1 -1.22465e-16 7.4988e-33
v -0.28868 0.148714 0.227448
vn 1 -1.22465e-16 7.4988e-33
v -0.28868 0.139715 0.22992
vn 1.21234e-16 0.98995 -0.141421
v -0.3 0.140161 0.235926
vn 1.21234e-16 0.98995 -0.141421
v -0.28868 0.140161 0.235926
vn 1.21234e-16 0.98995 -0.141421
v -0.28868 0.140161 0.235926
vn -1.21234e-16 -0.98995 0.141421
v -0.3 0.140161 0.235926
vn -1.21234e-16 -0.98995 0.141421
v -0.28868 0.139715 0.22992
vn -1.21234e-16 -0.98995 0.141421
v -0.28868 0.139715 0.22992
vn 1 -1.22465e-16 7.4988e-33
v -0.28868 0.133103 0.0173071
vn 1 -1.22465e-16 7.4988e-33
v -0.28868 0.148714 0.227448
vn 1 -1.22465e-16 7.4988e-33
v -0.28868 0.148714 0.227448
vn -1 1.22465e-16 -7.4988e-33
v -0.28868 0.133103 0.0173071
vn -1 1.22465e-16 -7.4988e-33
v -0.28868 0.139715 0.22992
vn -1 1.22465e-16 -7.4988e-33
v -0.28868 0.138473 0.213211
vn -1.46302e-07 0.98995 -0.141421
v -0.3 0.140161 0.235926
vn -1.46302e-07 0.98995 -0.141421
v -0.28868 0.139715 0.22992
vn -1.46302e-07 0.98995 -0.141421
v -0.28868 0.139715 0.22992
vn 1.46302e-07 -0.98995 0.141421
v -0.3 0.140161 0.235926
vn 1.46302e-07 -0.98995 0.141421
v -0.28868 0.138473 0.213211
vn 1.46302e-07 -0.98995 0.141421
v -0.28868 0.140161 0.235926
vn -1 1.22465e-16 -7.4988e-33
v -0.28868 0.148714 0.227448
vn -1 1.22465e-16 -7.4988e-33
v -0.28868 0.139715 0.22992
vn -1 1.22465e-16 -7.4988e-33
v -0.28868 0.139715 0.22992
vn 1 -1.22465e-16 7.4988e-33
v -0.28868 0.148714 0.227448
vn 1 -1.22465e-16 7.4988e-33
v -0.28868 0.140161 0.235926
vn 1 -1.22465e-16 7.4988e-33
v -0.28868 -0.131818 0.0174829
vn 1.22465e-16 1 -6.12323e-17
v 0.3 -0.131818 3.10797e-17
vn 1.22465e-16 1 -6.12323e-17
v -0.28868 -0.131818 3.10797e-17
vn 1.22465e-16 1 -6.12323e-17
v 0.3 -0.131818 3.10797e-17
vn 1.22465e-16 1 -6.12323e-17
v -0.28868 -0.131818 0.0174829
vn 1.22465e-16 1 -6.12323e-17
v 0.3 -0.131818 0.0174829
vn 1.22465e-16 1 -6.12323e-17
v 0.3 -0.15 0.244755
vn -1 1.22465e-16 -7.4988e-33
v 0.3 -0.15 0.25
vn -1 1.22465e-16 -7.4988e-33
v 0.3 -0.140817 0.244755
vn -1 1.22465e-16 -7.4988e-33
v -0.28868 -0.131818 0.0174829
vn 0 -6.12323e-17 -1
v 0.3 -0.123934 0.0174829
vn 0 -6.12323e-17 -1
v 0.3 -0.131818 0.0174829
vn 0 -6.12323e-17 -1
v 0.3 -0.140817 0.244755
vn -1 1.22465e-16 -7.4988e-33
v 0.3 -0.15 0.25
vn -1 1.22465e-16 -7.4988e-33
v 0.3 0.140816 0.244755
vn -1 1.22465e-16 -7.4988e-33
v 0.3 -0.15 0.244755
vn 1.22465e-16 1 -6.12323e-17
v -0.3 -0.15 0.244755
vn 1.22465e-16 1 -6.12323e-17
v 0.3 -0.15 0.25
vn 1.22465e-16 1 -6.12323e-17
v 0.3 -0.123934 0.0174829
vn 0 -6.12323e-17 -1
v -0.28868 -0.131818 0.0174829
vn 0 -6.12323e-17 -1
v 0.3 0.123934 0.0174829
vn 0 -6.12323e-17 -1
v 0.3 0.140816 0.244755
vn -1 1.22465e-16 -7.4988e-33
v 0.3 -0.15 0.25
vn -1 1.22465e-16 -7.4988e-33
v 0.3 0.15 0.244755
vn -1 1.22465e-16 -7.4988e-33
v -0.3 -0.15 0.25
vn 1.22465e-16 1 -6.12323e-17
v 0.3 -0.15 0.25
vn 1.22465e-16 1 -6.12323e-17
v -0.3 -0.15 0.244755
vn 1.22465e-16 1 -6.12323e-17
v -0.28868 0.131818 0.0174829
vn 0 -6.12323e-17 -1
v -0.28868 -0.131818 0.0174829
vn 0 -6.12323e-17 -1
v -0.28868 -0.123934 0.0174829
vn 0 -6.12323e-17 -1
v 0.3 0.123934 0.0174829
vn 0 -6.12323e-17 -1
v -0.28868 -0.131818 0.0174829
vn 0 -6.12323e-17 -1
v 0.3 0.131818 0.0174829
vn 0 -6.12323e-17 -1
v 0.3 0.15 0.25
vn -1 1.22465e-16 -7.4988e-33
v 0.3 0.15 0.244755
vn -1 1.22465e-16 -7.4988e-33
v 0.3 -0.15 0.25
vn -1 1.22465e-16 -7.4988e-33
v -0.3 -0.15 0.25
vn 0 -6.12323e-17 -1
v -0.3 0.15 0.25
vn 0 -6.12323e-17 -1
v 0.3 -0.15 0.25
vn 0 -6.12323e-17 -1
v -0.3 -0.15 0.244755
vn 1 -1.22465e-16 7.4988e-33
v -0.3 -0.149344 0.235926
vn 1 -1.22465e-16 7.4988e-33
v -0.3 -0.15 0.25
vn 1 -1.22465e-16 7.4988e-33
v 0.3 0.131818 0.0174829
vn 0 -6.12323e-17 -1
v -0.28868 -0.131818 0.0174829
vn 0 -6.12323e-17 -1
v -0.28868 0.131818 0.0174829
vn 0 -6.12323e-17 -1
v -0.28868 0.131818 0.0174829
vn 0 -6.12323e-17 -1
v -0.28868 -0.123934 0.0174829
vn 0 -6.12323e-17 -1
v -0.28868 0.123934 0.0174829
vn 0 -6.12323e-17 -1
v 0.3 0.15 0.25
vn -1.22465e-16 -1 6.12323e-17
v -0.3 0.15 0.25
vn -1.22465e-16 -1 6.12323e-17
v 0.3 0.15 0.244755
vn -1.22465e-16 -1 6.12323e-17
v 0.3 0.15 0.25
vn 0 -6.12323e-17 -1
v 0.3 -0.15 0.25
vn 0 -6.12323e-17 -1
v -0.3 0.15 0.25
vn 0 -6.12323e-17 -1
v -0.3 -0.15 0.25
vn 1 -1.22465e-16 7.4988e-33
v -0.3 0.149344 0.235926
vn 1 -1.22465e-16 7.4988e-33
v -0.3 0.15 0.25
vn 1 -1.22465e-16 7.4988e-33
v -0.3 -0.149344 0.235926
vn 1 -1.22465e-16 7.4988e-33
v -0.3 -0.140161 0.235926
vn 1 -1.22465e-16 7.4988e-33
v -0.3 -0.15 0.25
vn 1 -1.22465e-16 7.4988e-33
v -0.28868 0.131818 0
vn -1.22465e-16 -1 6.12323e-17
v 0.3 0.131818 0.0174829
vn -1.22465e-16 -1 6.12323e-17
v -0.28868 0.131818 0.0174829
vn -1.22465e-16 -1 6.12323e-17
v -0.3 0.15 0.244755
vn -1.22465e-16 -1 6.12323e-17
v 0.3 0.15 0.244755
vn -1.22465e-16 -1 6.12323e-17
v -0.3 0.15 0.25
vn -1.22465e-16 -1 6.12323e-17
v 0.3 0.131818 0.0174829
vn -1.22465e-16 -1 6.12323e-17
v -0.28868 0.131818 0
vn -1.22465e-16 -1 6.12323e-17
v 0.3 0.131818 0
vn -1.22465e-16 -1 6.12323e-17
v -0.3 0.15 0.244755
vn 1 -1.22465e-16 7.4988e-33
v -0.3 0.15 0.25
vn 1 -1.22465e-16 7.4988e-33
v -0.3 0.149344 0.235926
vn 1 -1.22465e-16 7.4988e-33
v -0.3 0.140161 0.235926
vn 1 -1.22465e-16 7.4988e-33
v -0.3 0.149344 0.235926
vn 1 -1.22465e-16 7.4988e-33
v -0.3 -0.15 0.25
vn 1 -1.22465e-16 7.4988e-33
v -0.3 -0.140161 0.235926
vn 1 -1.22465e-16 7.4988e-33
v -0.3 0.140161 0.235926
vn 1 -1.22465e-16 7.4988e-33
v -0.3 -0.15 0.25
vn 1 -1.22465e-16 7.4988e-33
v -0.28868 0.139715 0.22992
vn -1.73191e-17 -0.141421 -0.98995
v 0.28868 0.148714 0.227448
vn -1.73191e-17 -0.141421 -0.98995
v 0.28868 0.139715 0.22992
vn -1.73191e-17 -0.141421 -0.98995
v 0.28868 0.139715 0.22992
vn 1.73191e-17 0.141421 0.98995
v 0.28868 0.148714 0.227448
vn 1.73191e-17 0.141421 0.98995
v -0.28868 0.139715 0.22992
vn 1.73191e-17 0.141421 0.98995
v 0.28868 0.148714 0.227448
vn -1.73191e-17 -0.141421 -0.98995
v -0.28868 0.139715 0.22992
vn -1.73191e-17 -0.141421 -0.98995
v -0.28868 0.148714 0.227448
vn -1.73191e-17 -0.141421 -0.98995
v -0.28868 0.148714 0.227448
vn 1.73191e-17 0.141421 0.98995
v -0.28868 0.139715 0.22992
vn 1.73191e-17 0.141421 0.98995
v 0.28868 0.148714 0.227448
vn 1.73191e-17 0.141421 0.98995
v 0.3 -0.140817 0.244755
vn 1 -1.22465e-16 7.4988e-33
v 0.3 -0.15 0.25
vn 1 -1.22465e-16 7.4988e-33
v 0.3 -0.15 0.244755
vn 1 -1.22465e-16 7.4988e-33
v 0.3 0.140816 0.244755
vn 1 -1.22465e-16 7.4988e-33
v 0.3 -0.15 0.25
vn 1 -1.22465e-16 7.4988e-33
v 0.3 -0.140817 0.244755
vn 1 -1.22465e-16 7.4988e-33
v 0.3 -0.15 0.25
vn -1.22465e-16 -1 6.12323e-17
v -0.3 -0.15 0.244755
vn -1.22465e-16 -1 6.12323e-17
v 0.3 -0.15 0.244755
vn -1.22465e-16 -1 6.12323e-17
v 0.3 0.15 0.244755
vn 1 -1.22465e-16 7.4988e-33
v 0.3 -0.15 0.25
vn 1 -1.22465e-16 7.4988e-33
v 0.3 0.140816 0.244755
vn 1 -1.22465e-16 7.4988e-33
v -0.3 -0.15 0.244755
vn -1.22465e-16 -1 6.12323e-17
v 0.3 -0.15 0.25
vn -1.22465e-16 -1 6.12323e-17
v -0.3 -0.15 0.25
vn -1.22465e-16 -1 6.12323e-17
v 0.3 -0.15 0.25
vn 1 -1.22465e-16 7.4988e-33
v 0.3 0.15 0.244755
vn 1 -1.22465e-16 7.4988e-33
v 0.3 0.15 0.25
vn 1 -1.22465e-16 7.4988e-33
v 0.3 -0.15 0.25
vn 0 6.12323e-17 1
v -0.3 0.15 0.25
vn 0 6.12323e-17 1
v -0.3 -0.15 0.25
vn 0 6.12323e-17 1
v 0.3 0.15 0.244755
vn 1.22465e-16 1 -6.12323e-17
v -0.3 0.15 0.25
vn 1.22465e-16 1 -6.12323e-17
v 0.3 0.15 0.25
vn 1.22465e-16 1 -6.12323e-17
v -0.3 0.15 0.25
vn 0 6.12323e-17 1
v 0.3 -0.15 0.25
vn 0 6.12323e-17 1
v 0.3 0.15 0.25
vn 0 6.12323e-17 1
v -0.3 0.15 0.25
vn 1.22465e-16 1 -6.12323e-17
v 0.3 0.15 0.244755
vn 1.22465e-16 1 -6.12323e-17
v -0.3 0.15 0.244755
vn 1.22465e-16 1 -6.12323e-17
vt -19.4388 1.3203
vt -19.4647 1.33353
vt -20.7856 1.3203
vt -19.4647 1.33353
vt -19.4388 1.3203
vt -19.4388 1.5073
vt -20.7856 1.3203
vt -19.4647 1.33353
vt -19.4388 1.3203
vt -19.4388 1.5073
vt -19.4388 1.3203
vt -19.4647 1.33353
vt -20.7856 1.33353
vt -20.7856 1.3203
vt -19.4647 1.33353
vt -19.4647 1.33353
vt -20.7856 1.3203
vt -20.7856 1.33353
vt 6.52154 5.15804
vt 5.17476 5.15804
vt 6.52154 5.17126
vt -18.2871 0
vt -18.3127 0.185112
vt -18.3389 0.185112
vt -18.3389 0.185112
vt -18.3127 0.185112
vt -18.2871 0
vt -19.4647 1.33353
vt -19.4388 1.5073
vt -19.4647 1.49407
vt -19.4647 1.49407
vt -19.4388 1.5073
vt -19.4647 1.33353
vt 18.2908 0.013089
vt 18.2871 0.013222
vt 18.2871 0
vt 18.2871 0
vt 18.2871 0.013222
vt 18.2908 0.013089
vt 5.17476 5.17126
vt 6.52154 5.17126
vt 5.17476 5.15804
vt -18.2871 0.013222
vt -18.3127 0.185112
vt -18.2871 0
vt -18.2871 0
vt -18.3127 0.185112
vt -18.2871 0.013222
vt -19.4647 1.49407
vt -19.4388 1.5073
vt -20.7856 1.49407
vt -20.7856 1.49407
vt -19.4388 1.5073
vt -19.4647 1.49407
vt 18.3074 0.166163
vt 18.2871 0.013222
vt 18.2908 0.013089
vt 18.2908 0.013089
vt 18.2871 0.013222
vt 18.3074 0.166163
vt -19.4388 9.33595
vt -19.4388 9.32449
vt -20.7856 9.33595
vt -18.3127 0.185112
vt -18.2871 0.013222
vt -18.2646 0.013222
vt -18.2646 0.013222
vt -18.2871 0.013222
vt -18.3127 0.185112
vt -20.7856 1.49407
vt -19.4388 1.5073
vt -20.7856 1.50055
vt -20.7856 1.50055
vt -19.4388 1.5073
vt -20.7856 1.49407
vt 18.2871 0.013222
vt 18.3074 0.166163
vt 18.2646 0.013222
vt 18.2646 0.013222
vt 18.3074 0.166163
vt 18.2871 0.013222
vt 18.3074 0.166163
vt 18.2908 0.013089
vt 18.3352 0.172023
vt 18.3352 0.172023
vt 18.2908 0.013089
vt 18.3074 0.166163
vt -19.4388 8.96398
vt -20.7856 9.33595
vt -19.4388 9.32449
vt -20.8115 1.50055
vt -19.4388 1.5073
vt -20.8115 1.5073
vt -20.8115 1.5073
vt -19.4388 1.5073
vt -20.8115 1.50055
vt -20.7856 1.50055
vt -19.4388 1.5073
vt -20.8115 1.50055
vt -20.8115 1.50055
vt -19.4388 1.5073
vt -20.7856 1.50055
vt 18.3109 0.178435
vt 18.3352 0.172023
vt 18.337 0.178435
vt 18.337 0.178435
vt 18.3352 0.172023
vt 18.3109 0.178435
vt -3.55009 0.756808
vt -3.57599 0.602314
vt -3.55009 0.602314
vt -3.55009 0.602314
vt -3.57599 0.602314
vt -3.55009 0.756808
vt -20.7856 9.32449
vt -20.7856 9.33595
vt -20.7856 8.95251
vt 18.3074 0.166163
vt 18.3352 0.172023
vt 18.3109 0.178435
vt 18.3109 0.178435
vt 18.3352 0.172023
vt 18.3074 0.166163
vt -19.4388 8.95251
vt -20.7856 9.33595
vt -19.4388 8.96398
vt -17.5104 0.185112
vt -17.536 0
vt -17.4842 0.185112
vt -17.4842 0.185112
vt -17.536 0
vt -17.5104 0.185112
vt 18.3389 0.189079
vt 18.337 0.178435
vt 18.3389 0.185112
vt -3.57599 4.2034
vt -3.55009 4.19005
vt -3.55009 4.2034
vt -3.55009 4.2034
vt -3.55009 4.19005
vt -3.57599 4.2034
vt -3.57599 0.602314
vt -3.55009 0.756808
vt -3.57599 0.756808
vt -3.57599 0.756808
vt -3.55009 0.756808
vt -3.57599 0.602314
vt -3.57599 4.16645
vt -3.55009 3.80593
vt -3.55009 4.16645
vt -3.55009 4.16645
vt -3.55009 3.80593
vt -3.57599 4.16645
vt -20.7856 8.95251
vt -20.7856 9.33595
vt -19.4388 8.95251
vt -20.7856 8.96398
vt -20.7856 9.32449
vt -20.7856 8.95251
vt -3.55009 0.769204
vt -3.57599 0.756808
vt -3.55009 0.756808
vt -3.55009 0.756808
vt -3.57599 0.756808
vt -3.55009 0.769204
vt -17.5585 0.013222
vt -17.536 0.013222
vt -17.5104 0.185112
vt -17.5104 0.185112
vt -17.536 0.013222
vt -17.5585 0.013222
vt -17.536 0
vt -17.5104 0.185112
vt -17.536 0.013222
vt -17.536 0.013222
vt -17.5104 0.185112
vt -17.536 0
vt 19.4388 -1.26608
vt 19.4647 -1.25285
vt 19.4388 -1.07908
vt 19.4388 -1.07908
vt 19.4647 -1.25285
vt 19.4388 -1.26608
vt 17.4842 0.189079
vt 17.4861 0.178435
vt 18.3389 0.189079
vt 18.3389 0.189079
vt 18.3109 0.178435
vt 18.337 0.178435
vt -3.55009 4.19005
vt -3.57599 4.2034
vt -3.57599 4.19005
vt -3.57599 4.19005
vt -3.57599 4.2034
vt -3.55009 4.19005
vt -3.55009 3.80593
vt -3.57599 4.16645
vt -3.57599 3.80593
vt -3.57599 3.80593
vt -3.57599 4.16645
vt -3.55009 3.80593
vt -20.7856 5.17126
vt -19.4388 5.17126
vt -20.7856 5.15804
vt 17.558 0.014959
vt 17.536 0.013222
vt 17.5585 0.013222
vt 17.5585 0.013222
vt 17.536 0.013222
vt 17.558 0.014959
vt -3.57599 0.756808
vt -3.55009 0.769204
vt -3.57599 0.769204
vt -3.57599 0.769204
vt -3.55009 0.769204
vt -3.57599 0.756808
vt -19.4388 5.15804
vt -20.7856 5.15804
vt -19.4388 5.17126
vt 19.4388 -1.26608
vt 20.7856 -1.25285
vt 19.4647 -1.25285
vt 19.4647 -1.25285
vt 20.7856 -1.25285
vt 19.4388 -1.26608
vt 19.4388 -1.07908
vt 19.4647 -1.25285
vt 19.4647 -1.09231
vt 19.4647 -1.09231
vt 19.4647 -1.25285
vt 19.4388 -1.07908
vt 17.4861 0.178435
vt 17.4842 0.189079
vt 17.4842 0.185112
vt 18.3389 0.189079
vt 17.4861 0.178435
vt 17.5122 0.178435
vt 18.3389 0.189079
vt 17.5122 0.178435
vt 18.3109 0.178435
vt 23.7829 -0.375616
vt 23.757 -0.525151
vt 23.7829 -0.525151
vt 23.7829 -0.525151
vt 23.757 -0.525151
vt 23.7829 -0.375616
vt 17.536 0.013222
vt 17.5323 0.013089
vt 17.536 0
vt 17.536 0
vt 17.5323 0.013089
vt 17.536 0.013222
vt 17.5323 0.013089
vt 17.536 0.013222
vt 17.558 0.014959
vt 17.558 0.014959
vt 17.536 0.013222
vt 17.5323 0.013089
vt 23.757 -0.525151
vt 23.7829 -0.375616
vt 23.757 -0.523396
vt 23.757 -0.523396
vt 23.7829 -0.375616
vt 23.757 -0.525151
vt 19.4388 -1.07908
vt 20.7856 -1.08583
vt 20.8115 -1.07908
vt 20.8115 -1.07908
vt 20.7856 -1.08583
vt 19.4388 -1.07908
vt 20.7856 -1.25285
vt 19.4388 -1.26608
vt 20.7856 -1.26608
vt 20.7856 -1.26608
vt 19.4388 -1.26608
vt 20.7856 -1.25285
vt 20.7856 8.86253
vt 19.4647 8.87575
vt 19.4647 8.86253
vt 19.4647 8.86253
vt 19.4647 8.87575
vt 20.7856 8.86253
vt 17.5323 0.013089
vt 17.5135 0.173893
vt 17.4879 0.172023
vt 17.4879 0.172023
vt 17.5135 0.173893
vt 17.5323 0.013089
vt 19.4388 -1.07908
vt 19.4647 -1.09231
vt 20.7856 -1.08583
vt 20.7856 -1.08583
vt 19.4647 -1.09231
vt 19.4388 -1.07908
vt 20.8115 -1.07908
vt 20.7856 -1.08583
vt 20.8115 -1.08583
vt 20.8115 -1.08583
vt 20.7856 -1.08583
vt 20.8115 -1.07908
vt -3.55009 3.76898
vt -3.57599 3.78233
vt -3.57599 3.76898
vt -3.57599 3.76898
vt -3.57599 3.78233
vt -3.55009 3.76898
vt -17.5323 0.013089
vt -17.517 0.161255
vt -17.558 0.014959
vt -17.558 0.014959
vt -17.517 0.161255
vt -17.5323 0.013089
vt 19.4647 8.87575
vt 20.7856 8.86253
vt 20.7856 8.87575
vt 20.7856 8.87575
vt 20.7856 8.86253
vt 19.4647 8.87575
vt 23.757 -0.523396
vt 23.7829 -0.375616
vt 23.757 -0.375616
vt 23.757 -0.375616
vt 23.7829 -0.375616
vt 23.757 -0.523396
vt 17.5135 0.173893
vt 17.5323 0.013089
vt 17.558 0.014959
vt 17.558 0.014959
vt 17.5323 0.013089
vt 17.5135 0.173893
vt 20.7856 -1.08583
vt 19.4647 -1.09231
vt 20.7856 -1.09231
vt 20.7856 -1.09231
vt 19.4647 -1.09231
vt 20.7856 -1.08583
vt -3.57599 3.78233
vt -3.55009 3.76898
vt -3.55009 3.78233
vt -3.55009 3.78233
vt -3.55009 3.76898
vt -3.57599 3.78233
vt -17.5323 0.013089
vt -17.5135 0.173893
vt -17.517 0.161255
vt -17.517 0.161255
vt -17.5135 0.173893
vt -17.5323 0.013089
vt 23.7829 -0.358261
vt 23.757 -0.375616
vt 23.7829 -0.375616
vt 23.7829 -0.375616
vt 23.757 -0.375616
vt 23.7829 -0.358261
vt 17.4879 0.172023
vt 17.5122 0.178435
vt 17.4861 0.178435
vt 17.4861 0.178435
vt 17.5122 0.178435
vt 17.4879 0.172023
vt 23.757 -0.362849
vt 23.7829 -0.358261
vt 23.757 -0.358261
vt 23.757 -0.358261
vt 23.7829 -0.358261
vt 23.757 -0.362849
vt -17.5135 0.173893
vt -17.5323 0.013089
vt -17.4879 0.172023
vt -17.4879 0.172023
vt -17.5323 0.013089
vt -17.5135 0.173893
vt 23.757 -0.375616
vt 23.7829 -0.358261
vt 23.757 -0.362849
vt 23.757 -0.362849
vt 23.7829 -0.358261
vt 23.757 -0.375616
vt 17.5122 0.178435
vt 17.4879 0.172023
vt 17.5135 0.173893
vt 17.5135 0.173893
vt 17.4879 0.172023
vt 17.5122 0.178435
vt 0 0
vt 0 0
vt 0 0
vt 0 0
vt 0 0
vt 0 0
vt 0 0
vt 0 0
vt 0 0
vt 0 0
vt 0 0
vt 0 0
vt 0 0
vt 0 0
vt 0 0
vt 0 0
vt 0 0
vt 0 0
vt 0 0
vt 0 0
vt 0 0
vt 0 0
vt 0 0
vt 0 0
vt 0 0
vt 0 0
vt 0 0
vt 0 0
vt 0 0
vt 0 0
vt 0 0
vt 0 0
vt 0 0
vt 0 0
vt 0 0
vt 0 0
vt 0 0
vt 0 0
vt 0 0
vt 0 0
vt 0 0
vt 0 0
vt 0 0
vt 0 0
vt 0 0
vt 0 0
vt 0 0
vt 0 0
vt 0 0
vt 0 0
vt 0 0
vt 0 0
vt 0 0
vt 0 0
vt 0 0
vt 0 0
vt 0 0
vt 0 0
vt 0 0
vt 0 0
vt 0 0
vt 0 0
vt 0 0
vt 0 0
vt 0 0
vt 0 0
vt 0 0
vt 0 0
vt 0 0
vt 0 0
vt 0 0
vt 0 0
vt 0 0
vt 0 0
vt 0 0
vt 0 0
vt 0 0
vt 0 0
vt 0 0
vt 0 0
vt 0 0
vt 0 0
vt 0 0
vt 0 0
vt 0 0
vt 0 0
vt 0 0
vt 0 0
vt 0 0
vt 0 0
vt -16.8124 0.332058
vt -16.8365 0.339174
vt -16.8365 0.332058
vt -16.0758 0.332058
vt -16.8365 0.339174
vt -16.8124 0.332058
vt -17.8463 0.339174
vt -19.1065 0.332058
vt -17.8463 0.332058
vt -16.0518 0.332058
vt -16.8365 0.339174
vt -16.0758 0.332058
vt -19.1065 0.332058
vt -17.8463 0.339174
vt -19.1065 0.339174
vt -16.8365 0.339174
vt -16.0518 0.332058
vt -16.0518 0.339174
vt 17.8463 16.7945
vt 19.1065 16.0118
vt 19.1065 16.7945
vt 17.8463 0.332058
vt 19.1065 0.339174
vt 17.8463 0.339174
vt 19.1065 16.0118
vt 17.8463 16.7945
vt 17.8463 16.0118
vt 19.1065 0.339174
vt 17.8463 0.332058
vt 19.1065 0.332058
usemtl 2eb503dde3cc027d86c701087a194026_1
f 1/1/1 2/2/2 3/3/3
f 4/4/4 5/5/5 6/6/6
f 7/7/7 8/8/8 9/9/9
f 10/10/10 11/11/11 12/12/12
f 13/13/13 14/14/14 15/15/15
f 16/16/16 17/17/17 18/18/18
f 19/19/19 20/20/20 21/21/21
f 22/22/22 23/23/23 24/24/24
f 25/25/25 26/26/26 27/27/27
f 28/28/28 29/29/29 30/30/30
f 31/31/31 32/32/32 33/33/33
f 34/34/34 35/35/35 36/36/36
f 37/37/37 38/38/38 39/39/39
f 40/40/40 41/41/41 42/42/42
f 43/43/43 44/44/44 45/45/45
f 46/46/46 47/47/47 48/48/48
f 49/49/49 50/50/50 51/51/51
f 52/52/52 53/53/53 54/54/54
f 55/55/55 56/56/56 57/57/57
f 58/58/58 59/59/59 60/60/60
f 61/61/61 62/62/62 63/63/63
f 64/64/64 65/65/65 66/66/66
f 67/67/67 68/68/68 69/69/69
f 70/70/70 71/71/71 72/72/72
f 73/73/73 74/74/74 75/75/75
f 76/76/76 77/77/77 78/78/78
f 79/79/79 80/80/80 81/81/81
f 82/82/82 83/83/83 84/84/84
f 85/85/85 86/86/86 87/87/87
f 88/88/88 89/89/89 90/90/90
f 91/91/91 92/92/92 93/93/93
f 94/94/94 95/95/95 96/96/96
f 97/97/97 98/98/98 99/99/99
f 100/100/100 101/101/101 102/102/102
f 103/103/103 104/104/104 105/105/105
f 106/106/106 107/107/107 108/108/108
f 109/109/109 110/110/110 111/111/111
f 112/112/112 113/113/113 114/114/114
f 115/115/115 116/116/116 117/117/117
f 118/118/118 119/119/119 120/120/120
f 121/121/121 122/122/122 123/123/123
f 124/124/124 125/125/125 126/126/126
f 127/127/127 128/128/128 129/129/129
f 130/130/130 131/131/131 132/132/132
f 133/133/133 134/134/134 135/135/135
f 136/136/136 137/137/137 138/138/138
f 139/139/139 140/140/140 141/141/141
f 142/142/142 143/143/143 144/144/144
f 145/145/145 146/146/146 147/147/147
f 148/148/148 149/149/149 150/150/150
f 151/151/151 152/152/152 153/153/153
f 154/154/154 155/155/155 156/156/156
f 157/157/157 158/158/158 159/159/159
f 160/160/160 161/161/161 162/162/162
f 163/163/163 164/164/164 165/165/165
f 166/166/166 167/167/167 168/168/168
f 169/169/169 170/170/170 171/171/171
f 172/172/172 173/173/173 174/174/174
f 175/175/175 176/176/176 177/177/177
f 178/178/178 179/179/179 180/180/180
f 181/181/181 182/182/182 183/183/183
f 184/184/184 185/185/185 186/186/186
f 187/187/187 188/188/188 189/189/189
f 190/190/190 191/191/191 192/192/192
f 193/193/193 194/194/194 195/195/195
f 196/196/196 197/197/197 198/198/198
f 199/199/199 200/200/200 201/201/201
f 202/202/202 203/203/203 204/204/204
f 205/205/205 206/206/206 207/207/207
f 208/208/208 209/209/209 210/210/210
f 211/211/211 212/212/212 213/213/213
f 214/214/214 215/215/215 216/216/216
f 217/217/217 218/218/218 219/219/219
f 220/220/220 221/221/221 222/222/222
f 223/223/223 224/224/224 225/225/225
f 226/226/226 227/227/227 228/228/228
f 229/229/229 230/230/230 231/231/231
f 232/232/232 233/233/233 234/234/234
f 235/235/235 236/236/236 237/237/237
f 238/238/238 239/239/239 240/240/240
f 241/241/241 242/242/242 243/243/243
f 244/244/244 245/245/245 246/246/246
f 247/247/247 248/248/248 249/249/249
f 250/250/250 251/251/251 252/252/252
f 253/253/253 254/254/254 255/255/255
f 256/256/256 257/257/257 258/258/258
f 259/259/259 260/260/260 261/261/261
f 262/262/262 263/263/263 264/264/264
f 265/265/265 266/266/266 267/267/267
f 268/268/268 269/269/269 270/270/270
f 271/271/271 272/272/272 273/273/273
f 274/274/274 275/275/275 276/276/276
f 277/277/277 278/278/278 279/279/279
f 280/280/280 281/281/281 282/282/282
f 283/283/283 284/284/284 285/285/285
f 286/286/286 287/287/287 288/288/288
f 289/289/289 290/290/290 291/291/291
f 292/292/292 293/293/293 294/294/294
f 295/295/295 296/296/296 297/297/297
f 298/298/298 299/299/299 300/300/300
f 301/301/301 302/302/302 303/303/303
f 304/304/304 305/305/305 306/306/306
f 307/307/307 308/308/308 309/309/309
f 310/310/310 311/311/311 312/312/312
f 313/313/313 314/314/314 315/315/315
f 316/316/316 317/317/317 318/318/318
f 319/319/319 320/320/320 321/321/321
f 322/322/322 323/323/323 324/324/324
f 325/325/325 326/326/326 327/327/327
f 328/328/328 329/329/329 330/330/330
f 331/331/331 332/332/332 333/333/333
f 334/334/334 335/335/335 336/336/336
f 337/337/337 338/338/338 339/339/339
f 340/340/340 341/341/341 342/342/342
f 343/343/343 344/344/344 345/345/345
f 346/346/346 347/347/347 348/348/348
f 349/349/349 350/350/350 351/351/351
f 352/352/352 353/353/353 354/354/354
f 355/355/355 356/356/356 357/357/357
f 358/358/358 359/359/359 360/360/360
f 361/361/361 362/362/362 363/363/363
f 364/364/364 365/365/365 366/366/366
f 367/367/367 368/368/368 369/369/369
f 370/370/370 371/371/371 372/372/372
f 373/373/373 374/374/374 375/375/375
f 376/376/376 377/377/377 378/378/378
f 379/379/379 380/380/380 381/381/381
f 382/382/382 383/383/383 384/384/384
usemtl 2eb503dde3cc027d86c701087a194026_2
f 385/385/385 386/386/386 387/387/387
f 388/388/388 389/389/389 390/390/390
f 391/391/391 392/392/392 393/393/393
f 394/394/394 395/395/395 396/396/396
f 397/397/397 398/398/398 399/399/399
f 400/400/400 401/401/401 402/402/402
f 403/403/403 404/404/404 405/405/405
f 406/406/406 407/407/407 408/408/408
f 409/409/409 410/410/410 411/411/411
f 412/412/412 413/413/413 414/414/414
f 415/415/415 416/416/416 417/417/417
f 418/418/418 419/419/419 420/420/420
f 421/421/421 422/422/422 423/423/423
f 424/424/424 425/425/425 426/426/426
f 427/427/427 428/428/428 429/429/429
f 430/430/430 431/431/431 432/432/432
f 433/433/433 434/434/434 435/435/435
f 436/436/436 437/437/437 438/438/438
f 439/439/439 440/440/440 441/441/441
f 442/442/442 443/443/443 444/444/444
f 445/445/445 446/446/446 447/447/447
f 448/448/448 449/449/449 450/450/450
f 451/451/451 452/452/452 453/453/453
f 454/454/454 455/455/455 456/456/456
f 457/457/457 458/458/458 459/459/459
f 460/460/460 461/461/461 462/462/462
f 463/463/463 464/464/464 465/465/465
f 466/466/466 467/467/467 468/468/468
f 469/469/469 470/470/470 471/471/471
f 472/472/472 473/473/473 474/474/474
usemtl 2eb503dde3cc027d86c701087a194026_3
f 475/475/475 476/476/476 477/477/477
f 478/478/478 479/479/479 480/480/480
f 481/481/481 482/482/482 483/483/483
f 484/484/484 485/485/485 486/486/486
f 487/487/487 488/488/488 489/489/489
f 490/490/490 491/491/491 492/492/492
f 493/493/493 494/494/494 495/495/495
f 496/496/496 497/497/497 498/498/498
f 499/499/499 500/500/500 501/501/501
f 502/502/502 503/503/503 504/504/504
